<?xml version="1.0" encoding="UTF-8"?>
<svg version="1.1" xmlns="http://www.w3.org/2000/svg" width="512" height="512">
<path d="M0 0 C0.75771123 -0.00235223 1.51542245 -0.00470446 2.29609463 -0.00712797 C4.84966514 -0.01381532 7.40318473 -0.01335983 9.95676327 -0.01294994 C11.80028722 -0.01624873 13.64381045 -0.01997433 15.48733276 -0.02409142 C20.56496477 -0.03411785 25.64258495 -0.03782925 30.72022545 -0.04048073 C36.19213274 -0.04438189 41.66403066 -0.05396037 47.13593197 -0.0626936 C60.35653026 -0.0824635 73.57712932 -0.09252495 86.7977387 -0.10142139 C93.0220521 -0.10580349 99.24636465 -0.1111705 105.47067738 -0.11641026 C126.15924462 -0.13342318 146.8478114 -0.14794246 167.53638458 -0.155159 C168.87434637 -0.15563375 170.21230817 -0.15610964 171.55026996 -0.15658666 C172.21377475 -0.15682303 172.87727954 -0.15705941 173.56089054 -0.15730295 C176.92249798 -0.15850414 180.28410542 -0.15971959 183.64571285 -0.16094494 C184.31283248 -0.16118509 184.97995212 -0.16142524 185.66728749 -0.16167267 C207.29250462 -0.169564 228.91766688 -0.19299223 250.54286005 -0.22550088 C273.40953793 -0.25981301 296.27619188 -0.27951031 319.14289707 -0.28280324 C331.60643628 -0.28496906 344.06989485 -0.29372836 356.53341007 -0.31926441 C367.14748597 -0.34096084 377.76146163 -0.349027 388.37555719 -0.33929763 C393.79056362 -0.33474989 399.20536318 -0.33666694 404.6203413 -0.35605907 C409.58062565 -0.37366934 414.5405519 -0.37271019 419.50083994 -0.35716178 C421.29229486 -0.35478248 423.08377443 -0.35912594 424.87519164 -0.37099043 C437.05813708 -0.44665933 447.52200044 0.44448998 457.54195309 8.13422108 C458.53195309 8.83547108 459.52195309 9.53672108 460.54195309 10.25922108 C467.36733283 16.08139539 472.0249812 26.03790793 472.92226982 34.88338661 C472.92469972 36.18173282 472.92712961 37.48007902 472.92963314 38.81776905 C472.93771145 39.91281412 472.93771145 39.91281412 472.94595295 41.02998132 C472.96015328 43.45333185 472.95314872 45.87612999 472.94600582 48.29950428 C472.95171364 50.0463654 472.95867949 51.79322279 472.96680355 53.54007435 C472.9847069 58.26958125 472.9835716 62.99890232 472.97786117 67.72843289 C472.97476449 71.68445354 472.98086726 75.64043873 472.98689991 79.59645432 C473.00093497 88.93451284 472.99939301 98.27247987 472.98799801 107.61053944 C472.97652431 117.225191 472.99058223 126.83956338 473.01739448 136.45417815 C473.03959175 144.72537579 473.0461796 152.99648605 473.04031807 161.26771134 C473.03695613 166.20042303 473.0393124 171.13295588 473.0565691 176.06564236 C473.07209988 180.70741245 473.06801501 185.34877105 473.04926395 189.99052525 C473.04559465 191.68715877 473.04863779 193.3838232 473.05914974 195.08042812 C473.13777474 208.82758618 471.37819794 219.83051112 461.54195309 230.13422108 C452.07429163 239.1723478 440.97776405 242.27417161 428.0558691 242.24774647 C426.8151112 242.24767094 425.57435329 242.24759541 424.29599667 242.24751759 C422.96261714 242.24241262 421.62923803 242.23719665 420.29585934 242.23187733 C418.9158092 242.23000955 417.5357584 242.22858735 416.15570736 242.22758961 C412.54393807 242.22379276 408.93220974 242.21398702 405.3204565 242.20288563 C401.62671621 242.19261026 397.93296922 242.18807893 394.23921871 242.1830492 C387.00677827 242.1723619 379.77437145 242.15531996 372.54195309 242.13422108 C372.34666012 243.77004139 372.34666012 243.77004139 372.14742184 245.43890858 C371.02771719 252.27271889 367.03029817 256.18261262 361.54195309 260.13422108 C355.91243038 262.67213308 350.3740294 262.41652693 344.32030392 262.39491749 C343.18559434 262.39874304 342.05088476 262.40256858 340.88179004 262.40651006 C337.07722053 262.41683389 333.2728021 262.412849 329.46822262 262.40887928 C326.74143188 262.41213256 324.01464957 262.41834464 321.28786373 262.42436695 C314.64848491 262.43711173 308.00914654 262.43890791 301.36975755 262.43656669 C295.97236709 262.43478306 290.5749889 262.43653413 285.17759991 262.44079113 C284.02495835 262.44168391 284.02495835 262.44168391 282.84903111 262.44259473 C281.28792017 262.4438065 279.72680922 262.44502063 278.16569827 262.44623711 C263.52766825 262.45711187 248.88966126 262.4549505 234.25162993 262.44885226 C220.86521056 262.44368361 207.47886396 262.45493728 194.09245898 262.47395048 C180.34223262 262.49333048 166.59204068 262.50158457 152.84180057 262.49782723 C145.12413219 262.49591537 137.40652575 262.49840122 129.68886852 262.51254177 C123.11844044 262.52445863 116.54811243 262.5258571 109.97768296 262.5137516 C106.62675226 262.50786484 103.27615444 262.50838665 99.92521191 262.51875401 C96.28916122 262.52919238 92.65360245 262.52114344 89.01756954 262.50844288 C87.96328137 262.51581716 86.90899319 262.52319145 85.82275689 262.5307892 C78.89397706 262.47986942 72.82840369 261.8710214 67.29976559 257.26703358 C63.21294006 252.24160697 60.54195309 248.82089333 60.54195309 242.13422108 C59.42347485 242.14421383 59.42347485 242.14421383 58.28240108 242.15440845 C51.19361073 242.21496732 44.10491266 242.26042005 37.01593494 242.28965759 C33.37296382 242.30519513 29.73020959 242.32620992 26.08736324 242.36053944 C22.56006069 242.39356527 19.03296436 242.41116316 15.50551891 242.41885281 C13.53060499 242.42694813 11.55577198 242.45029494 9.58098507 242.4741106 C-4.97364613 242.47676977 -17.51483946 240.31377704 -28.51664066 230.25140858 C-35.94233677 222.36260455 -39.5700557 213.64878963 -39.60521793 202.92496204 C-39.60889462 202.19764413 -39.61257131 201.47032622 -39.61635941 200.72096837 C-39.62737522 198.2830285 -39.63123653 195.8451313 -39.63504887 193.4071703 C-39.64131518 191.65927972 -39.64796213 189.91139048 -39.65496159 188.16350269 C-39.67598688 182.42198073 -39.68636349 176.68045855 -39.69632816 170.93890858 C-39.70037648 168.96044495 -39.70449343 166.98198145 -39.70867825 165.0035181 C-39.72772763 155.70662056 -39.74195843 146.40973095 -39.75029022 137.11281765 C-39.76005792 126.39138842 -39.78636636 115.67016591 -39.82679111 104.9488095 C-39.85698406 96.6556458 -39.87176216 88.36254124 -39.87507123 80.06932366 C-39.87741834 75.1192327 -39.88633456 70.16936264 -39.9115324 65.21933079 C-39.93487336 60.5587741 -39.93902219 55.89858281 -39.92877102 51.23798275 C-39.92827699 49.53285663 -39.93455805 47.82771216 -39.94832706 46.12264156 C-40.01688781 37.12484164 -39.85588254 29.25706309 -35.45804691 21.13422108 C-35.00042973 20.24347889 -34.54281254 19.3527367 -34.07132816 18.43500233 C-28.14927035 9.38296802 -20.02462581 3.90296989 -9.7964893 0.59719974 C-6.53423391 -0.04868089 -3.31139631 -0.00696767 0 0 Z " fill="#000101" transform="translate(39.45804691314697,54.86577892303467)"/>
<path d="M0 0 C0.64431976 -0.00029205 1.28863953 -0.00058411 1.95248413 -0.00088501 C4.0736049 0.00050384 6.19437059 0.01604362 8.31542969 0.03173828 C9.7894471 0.03547 11.26346701 0.03831622 12.73748779 0.04031372 C16.61074716 0.04793767 20.48385574 0.06757543 24.35705566 0.08972168 C28.31190959 0.11020685 32.26678796 0.11932114 36.22167969 0.12939453 C43.97695665 0.15082257 51.73210951 0.18494346 59.48730469 0.22705078 C59.49665039 0.97277344 59.50599609 1.71849609 59.515625 2.48681641 C59.56966499 5.90087228 59.65324773 9.31360733 59.73730469 12.72705078 C59.75148438 13.90009766 59.76566406 15.07314453 59.78027344 16.28173828 C59.97042248 23.05104402 60.2164139 28.76362179 64.48730469 34.22705078 C70.49820309 39.59302904 76.36394018 39.94105548 84.13928223 39.85523987 C85.29611842 39.86233426 86.45295461 39.86942864 87.64484644 39.87673801 C90.83831065 39.89124546 94.03080315 39.88346795 97.22422338 39.86601508 C100.67488771 39.8526058 104.12544193 39.86809084 107.57609558 39.87983704 C114.32892286 39.89819163 121.08146029 39.88971606 127.83427846 39.87174881 C133.32364721 39.85770859 138.81293741 39.85383306 144.30232239 39.85719109 C145.08435592 39.85766853 145.86638944 39.85814597 146.67212096 39.85863788 C148.26093386 39.85966424 149.84974673 39.8607196 151.43855959 39.86180364 C165.4797682 39.87036629 179.52083711 39.85370991 193.56201172 39.82397461 C207.17893339 39.79513825 220.79565382 39.78805421 234.41259766 39.8034668 C249.24964047 39.82023744 264.08658778 39.82425438 278.9236331 39.80675644 C280.50651772 39.8049121 282.08940235 39.80307737 283.67228699 39.80125237 C284.8404234 39.79988423 284.8404234 39.79988423 286.03215852 39.79848846 C291.51330215 39.79288842 296.99439907 39.79618527 302.47554016 39.80279732 C309.1575894 39.81053823 315.83944074 39.80375078 322.52145016 39.77862228 C325.92909398 39.76614463 329.33642995 39.75995931 332.74408531 39.77116394 C336.44148964 39.77985106 340.13799774 39.76391287 343.83532715 39.74171448 C344.90770583 39.74995524 345.98008451 39.75819601 347.08495951 39.7666865 C353.31975572 39.697585 358.35469421 38.98604611 363.48730469 35.22705078 C367.43186277 30.27106755 368.59093397 26.47790738 368.80371094 20.24658203 C368.84560547 19.08320312 368.8875 17.91982422 368.93066406 16.72119141 C368.98963867 14.8987793 368.98963867 14.8987793 369.04980469 13.03955078 C369.09298828 11.81300781 369.13617188 10.58646484 369.18066406 9.32275391 C369.28683559 6.29096697 369.38888421 3.25909763 369.48730469 0.22705078 C377.69366989 0.15732219 385.89990983 0.10412419 394.10649872 0.07161427 C397.91778583 0.05600553 401.72886918 0.03485588 405.54003906 0.00073242 C409.22292565 -0.03203342 412.90561712 -0.04983822 416.58863831 -0.05758095 C417.98876514 -0.06309374 419.38888215 -0.07385848 420.78892517 -0.09013939 C437.43230354 -0.275861 437.43230354 -0.275861 443.98339844 5.38330078 C444.6240625 6.15673828 445.26472656 6.93017578 445.92480469 7.72705078 C446.58351563 8.50048828 447.24222656 9.27392578 447.92089844 10.07080078 C473.62089475 45.44835182 450.48730469 97.49993187 450.48730469 141.22705078 C294.72730469 141.22705078 138.96730469 141.22705078 -21.51269531 141.22705078 C-21.51269531 12.55161218 -21.51269531 12.55161218 -15.73144531 6.30126953 C-15.16425781 5.84365234 -14.59707031 5.38603516 -14.01269531 4.91455078 C-13.44550781 4.44404297 -12.87832031 3.97353516 -12.29394531 3.48876953 C-8.11390619 0.52790848 -5.16114357 -0.01969902 0 0 Z " fill="#8ED6F9" transform="translate(41.5126953125,74.77294921875)"/>
<path d="M0 0 C155.76 0 311.52 0 472 0 C472 28.76199616 472 28.76199616 465.96484375 35.15625 C465.29582031 35.5996875 464.62679688 36.043125 463.9375 36.5 C463.26589844 36.9640625 462.59429687 37.428125 461.90234375 37.90625 C458.08258233 40.10241673 454.92076847 40.12175384 450.60083008 40.11352539 C449.63456947 40.11374443 449.63456947 40.11374443 448.64878845 40.1139679 C446.52233498 40.11327195 444.3959694 40.10549448 442.26953125 40.09765625 C440.79408313 40.09579094 439.31863439 40.09436757 437.84318542 40.09336853 C433.96174405 40.08955226 430.08034015 40.07972956 426.19891357 40.06866455 C422.23743192 40.05843131 418.27594419 40.05386681 414.31445312 40.04882812 C406.54295167 40.0381065 398.77148109 40.02104075 391 40 C390.80539436 39.06557571 390.80539436 39.06557571 390.6068573 38.11227417 C390.43261734 37.29775787 390.25837738 36.48324158 390.07885742 35.64404297 C389.90787033 34.83546844 389.73688324 34.02689392 389.56071472 33.19381714 C388.91448724 30.66542814 388.06666992 29.05698989 386.3125 27.125 C385.85488281 26.59132813 385.39726562 26.05765625 384.92578125 25.5078125 C378.59073072 20.54771208 372.27741085 20.5669945 364.54420471 20.60559082 C363.39639005 20.59949972 362.24857539 20.59340861 361.06597847 20.58713293 C357.22300267 20.57049485 353.38035792 20.57528007 349.53735352 20.58007812 C346.78085279 20.57437442 344.02437197 20.56424505 341.2678833 20.55441284 C334.55978426 20.53338098 327.85177169 20.52881666 321.14364357 20.53060073 C315.6904929 20.53190935 310.23736916 20.52809912 304.78422356 20.52067566 C303.21230998 20.51857643 301.6403964 20.51647883 300.06848282 20.51438284 C299.28605636 20.51333931 298.5036299 20.51229578 297.69749355 20.51122063 C282.90732329 20.49232773 268.11720267 20.49336571 253.32702535 20.50018996 C239.80159041 20.50576623 226.27634484 20.48493481 212.75095416 20.45182949 C198.85604512 20.41808418 184.96122679 20.4029251 171.06627601 20.40754652 C163.26809328 20.40979017 155.47008563 20.40456322 147.67193794 20.37965393 C141.03377442 20.35863003 134.395882 20.35505957 127.75770731 20.37395352 C124.37215002 20.38310473 120.98751129 20.38155856 117.6019268 20.36359787 C113.92841508 20.34545405 110.2562496 20.35812098 106.58277893 20.37854004 C105.51750003 20.36602219 104.45222113 20.35350434 103.35466105 20.34060717 C95.24487673 20.43726946 90.46507758 22.71729492 84.625 28.25 C83.06155468 30.89583055 82.51388253 32.70703544 81.8984375 35.671875 C81.72747559 36.48237305 81.55651367 37.29287109 81.38037109 38.12792969 C81.1920874 39.05460449 81.1920874 39.05460449 81 40 C72.41984682 40.1395164 63.84017384 40.24587962 55.25916386 40.31087303 C51.27384712 40.34207976 47.28931095 40.38435283 43.30444336 40.45263672 C39.45291503 40.51821664 35.60213355 40.55378606 31.75008965 40.56926346 C30.28650606 40.58028133 28.82295966 40.6017966 27.35969734 40.63438034 C19.44374289 40.803512 13.18452867 40.63048097 6.66673279 35.65200806 C3.25222673 32.26766742 1.51738907 28.55216722 0 24 C0 16.08 0 8.16 0 0 Z " fill="#6FC5F7" transform="translate(20,236)"/>
<path d="M0 0 C89.1 0 178.2 0 270 0 C270 6.6 270 13.2 270 20 C180.9 20 91.8 20 0 20 C0 13.4 0 6.8 0 0 Z " fill="#8EABDF" transform="translate(121,276)"/>
<path d="M0 0 C89.1 0 178.2 0 270 0 C270 6.6 270 13.2 270 20 C180.9 20 91.8 20 0 20 C0 13.4 0 6.8 0 0 Z " fill="#8DAADD" transform="translate(121,75)"/>
<path d="M0 0 C3.47884669 2.00672894 5.7062659 4.11879769 7 8 C7.09457212 10.72695303 7.13326591 13.42881315 7.12597656 16.15576172 C7.1278447 16.9869754 7.12971283 17.81818909 7.13163757 18.67459106 C7.13564151 20.48012863 7.13771641 22.28567126 7.13809967 24.09121323 C7.14151411 27.92904978 7.16287371 31.76671674 7.18333054 35.60449409 C7.22136555 42.75116342 7.25261319 49.89765151 7.25048828 57.04443359 C7.2497017 62.01480894 7.27304099 66.98456348 7.3123703 71.95477676 C7.32283937 73.84855484 7.32434767 75.74240449 7.31671906 77.63619614 C7.30710702 80.28663168 7.32825916 82.9351838 7.35644531 85.58544922 C7.34624863 86.36692322 7.33605194 87.14839722 7.32554626 87.95355225 C7.40147151 91.93652064 7.8495382 93.8058333 10.31756592 96.99075317 C12.92935924 99.27324939 12.92935924 99.27324939 16.5625 99.5625 C19.93835009 99.2317498 19.93835009 99.2317498 22.25 97.625 C24.00317202 94.99524198 24.66308971 93.01821902 25.5 90 C27.37853774 83.25117925 27.37853774 83.25117925 31 81 C34.99810867 79.80728691 37.93343952 79.54967446 41.8125 81.1875 C46.69792173 85.23542087 46.69792173 85.23542087 47.3203125 88.87109375 C47.76303702 97.15004234 45.01069684 104.95583135 39.8125 111.375 C34.36011926 117.09764961 27.74463237 120.63957338 19.86328125 121.23828125 C8.74722516 121.47063006 1.89013668 119.45854169 -6.27734375 111.859375 C-12.64138138 104.99025502 -14.30052136 97.10275337 -14.29052734 88.04467773 C-14.29724457 87.16425812 -14.30396179 86.2838385 -14.31088257 85.3767395 C-14.32981453 82.47896622 -14.33378374 79.58142495 -14.3359375 76.68359375 C-14.34236662 74.66390387 -14.34909507 72.64421491 -14.35610962 70.62452698 C-14.3680688 66.39720499 -14.37179162 62.16996466 -14.37060547 57.94262695 C-14.37040187 52.52639052 -14.39775286 47.11067635 -14.43214989 41.69456387 C-14.45438149 37.52612398 -14.45844423 33.35781081 -14.45738602 29.1893177 C-14.45974573 27.19222265 -14.46859005 25.1951243 -14.48405075 23.19808769 C-14.50364356 20.40699381 -14.49790015 17.61703991 -14.48583984 14.82592773 C-14.49707886 14.00241318 -14.50831787 13.17889862 -14.51989746 12.33042908 C-14.47670718 8.39757321 -14.26967164 6.43740644 -12.15713501 3.01087952 C-8.45283106 -0.44226964 -4.89490492 -0.49778694 0 0 Z " fill="#000000" transform="translate(340,336)"/>
<path d="M0 0 C3.5386994 1.65139305 4.81070153 2.71605229 7 6 C7.20525255 8.87677968 7.29369128 11.65753823 7.29052734 14.53540039 C7.29724457 15.40735046 7.30396179 16.27930054 7.31088257 17.17767334 C7.32991725 20.06772531 7.33379039 22.95754544 7.3359375 25.84765625 C7.34236474 27.85965571 7.34909305 29.87165424 7.35610962 31.88365173 C7.36809826 36.10792199 7.37178912 40.33211041 7.37060547 44.55639648 C7.3704029 49.95093052 7.39763334 55.34493403 7.43214989 60.73934269 C7.45447528 64.89941276 7.45844118 69.05935669 7.45738602 73.21948051 C7.45973624 75.20686091 7.46852698 77.19424509 7.48405075 79.18156624 C7.57838052 92.51274729 7.41215398 103.13954504 -2.20703125 113.3125 C-9.49418674 120.17099929 -16.74744626 121.48241412 -26.4609375 121.30859375 C-35.1723089 120.54899293 -42.33441258 116.66021277 -48 110 C-52.44752911 102.81978509 -55.26876125 95.52725586 -54 87 C-52.69556822 84.06198077 -51.60017338 83.16681115 -49 81 C-45.02594437 79.58183902 -42.07533862 79.54596814 -38.1875 81.1875 C-34.57443095 84.18118578 -33.04466689 86.43631076 -32.0625 91 C-31.20098727 94.72395826 -30.33166444 96.83892037 -27 99 C-23.54271642 99.75011367 -23.54271642 99.75011367 -20 99 C-16.31512629 96.23920379 -15.12317651 94.76258312 -14.38095093 90.16748047 C-14.35798601 88.65088809 -14.36219361 87.13373105 -14.38818359 85.6171875 C-14.38251877 84.78568176 -14.37685394 83.95417603 -14.37101746 83.09747314 C-14.35754199 80.35618663 -14.37844116 77.61622826 -14.3984375 74.875 C-14.39293669 72.96597387 -14.38481151 71.05695365 -14.37417603 69.14794922 C-14.3512918 64.12575804 -14.35551022 59.10400214 -14.36798096 54.08178711 C-14.38628879 46.04353491 -14.37633782 38.00553753 -14.34212112 29.96734619 C-14.33601683 27.1614652 -14.34927728 24.35613101 -14.36410522 21.55029297 C-14.36115704 19.82779804 -14.35750224 18.10530413 -14.35302734 16.3828125 C-14.36231766 15.60448059 -14.37160797 14.82614868 -14.38117981 14.02423096 C-14.33994644 8.41039502 -13.11683023 5.19243131 -9.25 1.1875 C-5.99828436 -0.52868326 -3.62539838 -0.38162088 0 0 Z " fill="#000000" transform="translate(179,336)"/>
<path d="M0 0 C6.47124866 4.92179475 11.51419674 11.10896205 13.90625 18.9375 C15.06781814 29.15929967 13.82796197 37.65326513 7.38671875 46.0859375 C0.58632504 53.30213438 -6.6566113 56.52694199 -16.46875 57 C-24.80708528 56.876102 -31.95504867 53.59800209 -37.953125 47.84375 C-44.45262888 40.17766851 -46.81636826 32.37139828 -46.35546875 22.375 C-45.09172492 14.25952943 -41.74269298 7.88523603 -35.40625 2.625 C-33.89516722 1.599265 -32.35445449 0.61514816 -30.78125 -0.3125 C-30.17796875 -0.67085937 -29.5746875 -1.02921875 -28.953125 -1.3984375 C-20.19156986 -5.55065276 -8.25795773 -4.84466854 0 0 Z " fill="#020303" transform="translate(457.78125,139.3125)"/>
<path d="M0 0 C6.25927961 4.02994715 10.25786387 9.77359161 12.609375 16.828125 C14.13238098 25.29603826 14.13026855 34.25848623 9.671875 41.78515625 C4.30788936 48.89118396 -2.2770839 53.90440454 -11 56 C-19.81309849 57.2121167 -27.24148128 55.38184035 -34.484375 50.234375 C-40.51073238 45.23210449 -43.52324556 40.43026331 -46 33 C-46.75612052 23.4836832 -47.03427244 14.94292309 -41 7 C-30.48437029 -5.05450235 -13.98266203 -7.91611025 0 0 Z " fill="#010202" transform="translate(378,140)"/>
<path d="M0 0 C2.8100346 1.79363911 4.50940468 3.01880935 6 6 C6.11363273 8.47540281 6.16780074 10.9233439 6.17700195 13.3996582 C6.18357315 14.16245087 6.19014435 14.92524353 6.19691467 15.71115112 C6.21666062 18.24102879 6.22831315 20.77084705 6.23828125 23.30078125 C6.24235678 24.16427877 6.2464323 25.0277763 6.25063133 25.91744041 C6.27149767 30.48784522 6.2857969 35.05821995 6.29516602 39.62866211 C6.30623131 44.34998887 6.34063076 49.07084442 6.38033772 53.79200459 C6.40648064 57.42171608 6.41485577 61.05131492 6.41844749 64.68111229 C6.42331954 66.42144134 6.43495114 68.16176516 6.45348549 69.90200233 C6.47782807 72.33910088 6.4769213 74.77497536 6.4699707 77.2121582 C6.48278076 77.92974808 6.49559082 78.64733795 6.50878906 79.38667297 C6.45886649 84.19430012 5.40714005 86.62516029 2 90 C-1.20173254 91.60086627 -4.52577059 91.49917089 -8 91 C-10.8100346 89.20636089 -12.50940468 87.98119065 -14 85 C-14.11363273 82.52459719 -14.16780074 80.0766561 -14.17700195 77.6003418 C-14.18357315 76.83754913 -14.19014435 76.07475647 -14.19691467 75.28884888 C-14.21666062 72.75897121 -14.22831315 70.22915295 -14.23828125 67.69921875 C-14.24235678 66.83572123 -14.2464323 65.9722237 -14.25063133 65.08255959 C-14.27149767 60.51215478 -14.2857969 55.94178005 -14.29516602 51.37133789 C-14.30623131 46.65001113 -14.34063076 41.92915558 -14.38033772 37.20799541 C-14.40648064 33.57828392 -14.41485577 29.94868508 -14.41844749 26.31888771 C-14.42331954 24.57855866 -14.43495114 22.83823484 -14.45348549 21.09799767 C-14.47782807 18.66089912 -14.4769213 16.22502464 -14.4699707 13.7878418 C-14.48278076 13.07025192 -14.49559082 12.35266205 -14.50878906 11.61332703 C-14.45886649 6.80569988 -13.40714005 4.37483971 -10 1 C-6.79826746 -0.60086627 -3.47422941 -0.49917089 0 0 Z " fill="#000000" transform="translate(260,336)"/>
<path d="M0 0 C3.52787301 1.95657197 5.70285021 4.10855063 7 8 C7.09579296 9.43104603 7.13806943 10.86606242 7.14526367 12.30029297 C7.15164352 13.164841 7.15802338 14.02938904 7.16459656 14.9201355 C7.16570938 15.85141266 7.1668222 16.78268982 7.16796875 17.7421875 C7.17129715 18.70271027 7.17462555 19.66323303 7.17805481 20.65286255 C7.18311847 22.68539959 7.18546331 24.71794494 7.18530273 26.75048828 C7.18748659 29.85593418 7.20564107 32.96102334 7.22460938 36.06640625 C7.22754395 38.04166545 7.22952832 40.01692634 7.23046875 41.9921875 C7.23765427 42.9194162 7.24483978 43.8466449 7.25224304 44.80197144 C7.23150894 50.67084327 7.01313065 54.87183331 2.8125 59.3125 C-0.78147168 61.46888301 -2.86672399 61.5166595 -7 61 C-10.5386994 59.34860695 -11.81070153 58.28394771 -14 55 C-14.26742554 52.81265259 -14.26742554 52.81265259 -14.29052734 50.24072266 C-14.30328705 49.27607086 -14.31604675 48.31141907 -14.32919312 47.3175354 C-14.33141876 46.27688934 -14.33364441 45.23624329 -14.3359375 44.1640625 C-14.3425943 43.09255951 -14.3492511 42.02105652 -14.35610962 40.91708374 C-14.36623987 38.64916705 -14.37092652 36.38122054 -14.37060547 34.11328125 C-14.37497439 30.64533255 -14.41127975 27.1786606 -14.44921875 23.7109375 C-14.45508765 21.50781685 -14.45905655 19.30469016 -14.4609375 17.1015625 C-14.47530853 16.0649649 -14.48967957 15.02836731 -14.50448608 13.96035767 C-14.45882128 6.75466039 -14.45882128 6.75466039 -12.09619141 2.86865234 C-8.4164093 -0.41169383 -4.79587262 -0.80969278 0 0 Z " fill="#000000" transform="translate(300,336)"/>
<path d="M0 0 C2.8100346 1.79363911 4.50940468 3.01880935 6 6 C6.1150767 7.54563998 6.16945006 9.09601099 6.19287109 10.64575195 C6.21696548 12.09284294 6.21696548 12.09284294 6.24154663 13.56916809 C6.28596513 17.98319837 6.32706 22.39707784 6.35009766 26.8112793 C6.36666174 29.14015696 6.39395742 31.46898369 6.43212891 33.79760742 C6.48686002 37.15310068 6.50876647 40.50740191 6.5234375 43.86328125 C6.54610687 44.9030159 6.56877625 45.94275055 6.59213257 47.01399231 C6.57094286 54.25694062 6.57094286 54.25694062 3.59228516 58.13354492 C-0.51862342 61.09341458 -2.88399153 61.51160085 -8 61 C-10.9598293 59.35565039 -13.51483811 57.40655067 -14.6539917 54.10398865 C-15.01676896 51.89803223 -15.1409875 49.82167276 -15.16113281 47.58618164 C-15.17074036 46.72170914 -15.1803479 45.85723663 -15.19024658 44.96656799 C-15.19449646 44.04045212 -15.19874634 43.11433624 -15.203125 42.16015625 C-15.20882507 41.20104843 -15.21452515 40.24194061 -15.22039795 39.25376892 C-15.22983399 37.22721455 -15.23637638 35.20064493 -15.24023438 33.17407227 C-15.24995335 30.07736491 -15.28099546 26.98131769 -15.3125 23.88476562 C-15.31902917 21.91406643 -15.32427998 19.94336251 -15.328125 17.97265625 C-15.3404718 17.04856461 -15.3528186 16.12447296 -15.36553955 15.17237854 C-15.34473685 9.15826854 -14.51074286 5.69672381 -10.3125 1.1875 C-6.91635199 -0.5564679 -3.6895784 -0.68081506 0 0 Z " fill="#000000" transform="translate(220,336)"/>
<path d="M0 0 C2.16015625 0.47265625 2.16015625 0.47265625 5.22265625 2.41015625 C7.82325194 6.52077524 8.2164708 9.73212265 7.16015625 14.47265625 C4.64181152 18.13570313 2.95731814 19.22626076 -1.27734375 20.53515625 C-5.72054309 20.45720538 -7.50129846 19.34535801 -10.83984375 16.47265625 C-12.94841828 13.8140188 -12.84007989 12.48564418 -12.77734375 9.03515625 C-10.91516333 1.95887064 -7.04575111 -0.45873839 0 0 Z " fill="#D86A79" transform="translate(363.83984375,155.52734375)"/>
<path d="M0 0 C3.64051176 0.81120099 5.09653944 2.45526886 7.15625 5.48046875 C8.51477611 9.87570027 8.56996666 11.66835826 6.46875 15.79296875 C3.08287116 19.72790902 3.08287116 19.72790902 0.15625 20.48046875 C-3.84397687 20.3376035 -6.08707729 20.09775438 -9.21875 17.54296875 C-11.82136463 14.23965019 -12.26084364 11.76882393 -12.17578125 7.5234375 C-11.84375 5.48046875 -11.84375 5.48046875 -9.90625 2.48046875 C-6.33358656 0.14730079 -4.19648565 -0.25878328 0 0 Z " fill="#ECE26F" transform="translate(443.84375,155.51953125)"/>
</svg>
