<?xml version="1.0" encoding="UTF-8"?>
<svg xmlns="http://www.w3.org/2000/svg" xmlns:xlink="http://www.w3.org/1999/xlink" width="48pt" height="48pt" viewBox="0 0 48 48" version="1.1">
<g id="surface1">
<path style=" stroke:none;fill-rule:nonzero;fill:#BCBCBC;fill-opacity:1;" d="M 31.367188 26.230469 C 31.539063 25.601563 31.460938 24.957031 30.957031 24.507813 C 30.507813 24.101563 29.886719 23.90625 29.289063 23.914063 C 28.632813 23.925781 27.945313 24.160156 27.402344 24.535156 C 27.148438 24.710938 26.898438 24.917969 26.773438 25.210938 C 26.726563 25.320313 26.625 25.808594 26.726563 25.882813 C 26.914063 26.015625 26.953125 26.230469 26.898438 26.410156 C 28.152344 26.484375 29.410156 26.53125 30.65625 26.484375 C 30.890625 26.476563 31.125 26.464844 31.359375 26.464844 C 31.351563 26.398438 31.351563 26.316406 31.367188 26.230469 Z "/>
<path style=" stroke:none;fill-rule:nonzero;fill:#BCBCBC;fill-opacity:1;" d="M 34.199219 25.789063 C 33.703125 23.925781 33.101563 21.882813 31.753906 20.464844 C 30.488281 19.132813 28.386719 19.480469 26.726563 19.492188 C 24.441406 19.507813 22.144531 19.40625 19.882813 19.828125 C 18.320313 20.117188 16.726563 20.4375 15.804688 21.882813 C 15.382813 22.546875 15.046875 23.289063 14.691406 23.980469 C 14.390625 24.570313 13.914063 25.40625 14.007813 26.109375 C 14.539063 25.976563 15.121094 26.101563 15.664063 26.148438 C 16.566406 26.222656 17.457031 26.109375 18.355469 26.070313 C 20.382813 25.988281 22.425781 26.109375 24.449219 26.242188 C 24.984375 26.277344 25.519531 26.316406 26.054688 26.351563 C 25.640625 25.742188 25.914063 24.769531 26.417969 24.261719 C 27.054688 23.617188 28.039063 23.148438 28.960938 23.082031 C 29.867188 23.007813 30.882813 23.242188 31.554688 23.898438 C 32.257813 24.570313 32.464844 25.5 32.210938 26.429688 C 32.210938 26.429688 32.210938 26.429688 32.210938 26.4375 C 32.335938 26.429688 32.464844 26.429688 32.585938 26.417969 C 33.066406 26.382813 33.628906 26.371094 34.085938 26.183594 C 34.03125 26.035156 34.085938 25.894531 34.199219 25.789063 Z "/>
<path style=" stroke:none;fill-rule:nonzero;fill:#127274;fill-opacity:1;" d="M 34.695313 22.273438 C 34.378906 21.695313 34.058594 21.101563 33.757813 20.511719 C 33.496094 20.007813 33.273438 19.480469 32.972656 18.992188 C 32.4375 18.121094 31.734375 17.15625 30.683594 16.914063 C 29.625 16.667969 28.480469 16.742188 27.402344 16.773438 C 24.917969 16.847656 22.433594 17.0625 19.96875 17.371094 C 18.984375 17.492188 17.933594 17.558594 16.996094 17.925781 C 16.011719 18.308594 15.441406 19.058594 14.992188 19.988281 C 14.203125 21.609375 13.453125 23.296875 12.488281 24.835938 C 12.757813 25.003906 12.796875 25.492188 12.402344 25.613281 C 12.347656 25.632813 12.300781 25.648438 12.242188 25.667969 C 12.335938 25.742188 12.429688 25.828125 12.523438 25.902344 C 12.628906 25.988281 12.664063 26.089844 12.664063 26.195313 C 12.816406 26.128906 12.984375 26.109375 13.152344 26.109375 C 13.085938 24.992188 13.800781 23.820313 14.296875 22.894531 C 14.878906 21.816406 15.367188 20.738281 16.445313 20.054688 C 17.101563 19.632813 17.839844 19.378906 18.601563 19.21875 C 19.667969 18.992188 20.765625 18.816406 21.851563 18.730469 C 23.953125 18.570313 26.070313 18.636719 28.171875 18.617188 C 29.0625 18.609375 30.007813 18.628906 30.851563 18.929688 C 31.734375 19.246094 32.363281 19.800781 32.90625 20.558594 C 34.003906 22.105469 34.574219 23.960938 35.0625 25.78125 C 35.4375 25.648438 35.832031 25.988281 36.054688 26.296875 C 36.179688 26.136719 36.320313 25.996094 36.476563 25.875 C 35.972656 24.628906 35.335938 23.445313 34.695313 22.273438 Z "/>
<path style=" stroke:none;fill-rule:nonzero;fill:#127274;fill-opacity:1;" d="M 11.820313 26.558594 C 11.804688 26.503906 11.792969 26.4375 11.792969 26.390625 C 11.015625 25.742188 10.117188 25.039063 9.132813 24.796875 C 8.632813 24.675781 8.15625 24.730469 7.707031 24.992188 C 7.414063 25.164063 6.882813 25.492188 6.9375 25.902344 C 6.976563 26.148438 7.273438 26.324219 7.453125 26.445313 C 7.734375 26.644531 8.023438 26.820313 8.324219 26.972656 C 8.832031 27.226563 9.523438 27.570313 10.105469 27.542969 C 10.5 27.535156 10.929688 27.394531 11.269531 27.195313 C 11.492188 27.074219 11.925781 26.859375 11.820313 26.558594 Z "/>
<path style=" stroke:none;fill-rule:nonzero;fill:#BCBCBC;fill-opacity:1;" d="M 11.804688 39.695313 C 11.183594 39.429688 10.59375 39.066406 10.132813 38.578125 C 10.171875 38.925781 10.171875 39.273438 10.199219 39.617188 C 10.21875 39.890625 10.226563 40.164063 10.292969 40.425781 C 10.3125 40.507813 10.332031 40.613281 10.378906 40.695313 C 10.414063 40.773438 10.492188 40.820313 10.433594 40.808594 C 10.882813 40.929688 11.382813 40.902344 11.851563 40.902344 C 12.429688 40.914063 13.011719 40.941406 13.59375 40.96875 L 13.632813 40.117188 C 13.632813 40.085938 13.640625 40.050781 13.640625 40.023438 C 13.011719 39.984375 12.394531 39.945313 11.804688 39.695313 Z "/>
<path style=" stroke:none;fill-rule:nonzero;fill:#BCBCBC;fill-opacity:1;" d="M 36.253906 42.515625 C 36.019531 42.375 35.953125 42 36.179688 41.8125 C 36.179688 41.785156 36.179688 41.757813 36.179688 41.726563 C 35.792969 41.804688 35.417969 41.859375 35.023438 41.878906 C 34.808594 41.886719 34.574219 41.699219 34.585938 41.464844 C 34.59375 41.242188 34.585938 41.015625 34.585938 40.789063 C 34.585938 40.667969 34.574219 40.546875 34.574219 40.414063 C 34.398438 40.414063 34.226563 40.414063 34.105469 40.414063 C 33.816406 40.425781 33.535156 40.433594 33.242188 40.445313 C 33.273438 40.554688 33.242188 40.6875 33.121094 40.789063 C 33.113281 40.835938 33.09375 40.882813 33.09375 40.929688 C 33.074219 41.054688 33.074219 41.175781 33.074219 41.304688 C 33.074219 41.699219 33.101563 42.09375 33.148438 42.488281 C 33.195313 42.851563 33.253906 43.226563 33.347656 43.585938 C 33.375 43.707031 33.414063 43.828125 33.460938 43.941406 C 33.460938 43.929688 33.46875 43.949219 33.476563 43.976563 C 33.476563 43.976563 33.476563 43.976563 33.488281 43.976563 C 33.816406 44.136719 34.246094 44.15625 34.601563 44.175781 C 34.96875 44.195313 35.371094 44.222656 35.738281 44.148438 C 36.335938 44.035156 36.328125 43.125 36.253906 42.515625 Z "/>
<path style=" stroke:none;fill-rule:nonzero;fill:#BCBCBC;fill-opacity:1;" d="M 15.234375 40.414063 C 15.179688 40.40625 15.113281 40.398438 15.054688 40.398438 C 14.925781 40.378906 14.785156 40.367188 14.652344 40.378906 C 14.664063 40.378906 14.597656 40.386719 14.558594 40.386719 C 14.53125 40.425781 14.492188 40.445313 14.457031 40.460938 L 14.417969 41.417969 C 14.410156 41.632813 14.25 41.867188 14.007813 41.859375 C 13.210938 41.820313 12.402344 41.785156 11.605469 41.773438 C 11.558594 41.773438 11.511719 41.773438 11.457031 41.773438 C 11.457031 41.804688 11.457031 41.839844 11.445313 41.878906 C 11.371094 42.328125 11.351563 42.796875 11.371094 43.246094 C 11.390625 43.640625 11.398438 44.082031 11.738281 44.34375 C 12.066406 44.597656 12.523438 44.652344 12.917969 44.679688 C 13.285156 44.699219 13.640625 44.757813 14.007813 44.792969 C 14.269531 44.820313 14.820313 44.914063 14.972656 44.617188 C 15.160156 44.269531 15.1875 43.847656 15.195313 43.453125 C 15.242188 42.429688 15.195313 41.417969 15.234375 40.414063 Z "/>
<path style=" stroke:none;fill-rule:nonzero;fill:#BCBCBC;fill-opacity:1;" d="M 25.070313 36.984375 C 23.492188 36.910156 21.917969 36.789063 20.34375 36.710938 C 20.90625 36.945313 21.507813 37.105469 22.105469 37.171875 C 22.847656 37.246094 23.605469 37.125 24.347656 37.117188 C 24.976563 37.105469 25.554688 37.164063 26.164063 37.304688 C 26.71875 37.425781 27.300781 37.585938 27.871094 37.539063 C 28.480469 37.480469 28.96875 37.191406 29.429688 36.789063 C 29.445313 36.769531 29.464844 36.75 29.484375 36.742188 C 28.058594 37.132813 26.539063 37.050781 25.070313 36.984375 Z "/>
<path style=" stroke:none;fill-rule:nonzero;fill:#BCBCBC;fill-opacity:1;" d="M 30.769531 34.359375 C 30.46875 34.171875 30.085938 34.164063 29.738281 34.152344 C 29.175781 34.132813 28.613281 34.191406 28.050781 34.210938 C 26.851563 34.265625 25.660156 34.050781 24.460938 33.984375 C 23.222656 33.917969 21.992188 34.003906 20.757813 34.085938 C 20.136719 34.125 19.492188 34.210938 18.871094 34.171875 C 18.535156 34.152344 18.121094 34.078125 17.785156 34.199219 C 17.859375 34.398438 17.953125 34.585938 18.054688 34.773438 C 18.101563 34.640625 18.226563 34.539063 18.421875 34.546875 C 20.644531 34.640625 22.867188 34.808594 25.097656 34.78125 C 26.175781 34.761719 27.253906 34.714844 28.332031 34.679688 C 28.59375 34.667969 28.855469 34.679688 29.117188 34.660156 C 29.363281 34.640625 29.632813 34.554688 29.867188 34.566406 C 29.980469 34.574219 30.101563 34.574219 30.214844 34.574219 C 30.226563 34.574219 30.242188 34.574219 30.261719 34.574219 C 30.347656 34.507813 30.46875 34.480469 30.609375 34.527344 C 30.710938 34.566406 30.824219 34.613281 30.898438 34.6875 C 30.882813 34.539063 30.882813 34.425781 30.769531 34.359375 Z "/>
<path style=" stroke:none;fill-rule:nonzero;fill:#BCBCBC;fill-opacity:1;" d="M 30.027344 35.410156 C 29.605469 35.390625 29.195313 35.523438 28.761719 35.511719 C 27.648438 35.484375 26.523438 35.597656 25.40625 35.617188 C 23.101563 35.652344 20.792969 35.492188 18.496094 35.390625 C 18.730469 35.664063 19.003906 35.90625 19.292969 36.121094 C 19.332031 35.953125 19.453125 35.820313 19.679688 35.832031 C 21.429688 35.90625 23.175781 36.046875 24.917969 36.132813 C 26.277344 36.195313 27.703125 36.300781 29.035156 35.972656 C 29.101563 35.898438 29.203125 35.851563 29.335938 35.851563 L 29.484375 35.859375 C 29.757813 35.867188 29.914063 36.09375 29.914063 36.308594 C 30.179688 36.027344 30.421875 35.726563 30.609375 35.390625 C 30.429688 35.4375 30.214844 35.417969 30.027344 35.410156 Z "/>
<path style=" stroke:none;fill-rule:nonzero;fill:#127274;fill-opacity:1;" d="M 35.785156 27.769531 C 35.785156 27.542969 35.644531 27.226563 35.503906 26.992188 C 35.4375 26.867188 35.363281 26.746094 35.257813 26.652344 C 35.148438 26.699219 34.996094 26.671875 34.894531 26.605469 C 34.867188 26.691406 34.808594 26.757813 34.707031 26.8125 C 34.171875 27.113281 33.515625 27.1875 32.90625 27.242188 C 32.269531 27.300781 31.632813 27.308594 30.984375 27.335938 C 28.960938 27.414063 26.953125 27.273438 24.929688 27.132813 C 22.894531 26.992188 20.851563 26.859375 18.804688 26.914063 C 17.851563 26.945313 16.882813 27.074219 15.929688 27.019531 C 15.609375 27 15.289063 26.953125 14.972656 26.933594 C 14.726563 26.914063 14.351563 26.839844 14.128906 26.953125 C 14.023438 27 13.929688 27.007813 13.835938 26.980469 C 13.726563 27.074219 13.554688 27.113281 13.386719 27.019531 C 13.304688 26.972656 13.191406 26.945313 13.097656 26.953125 C 13.011719 26.953125 13.011719 26.953125 12.945313 26.972656 C 12.957031 26.972656 12.957031 26.972656 12.9375 26.980469 C 12.84375 27.113281 12.695313 27.195313 12.535156 27.179688 C 12.261719 27.675781 11.605469 28.03125 11.007813 28.21875 C 10.976563 28.902344 10.914063 29.664063 11.382813 30.234375 C 11.886719 30.871094 12.757813 31.351563 13.507813 31.640625 C 13.941406 31.808594 14.410156 31.914063 14.851563 32.042969 C 15.300781 32.175781 15.75 32.316406 16.210938 32.445313 C 16.921875 32.644531 17.691406 32.765625 18.375 33.039063 C 18.515625 33.09375 18.589844 33.195313 18.601563 33.308594 C 18.601563 33.308594 18.609375 33.308594 18.609375 33.308594 C 19.257813 33.355469 19.914063 33.300781 20.550781 33.253906 C 21.882813 33.167969 23.210938 33.066406 24.542969 33.148438 C 25.847656 33.234375 27.101563 33.421875 28.414063 33.335938 C 29.054688 33.300781 29.679688 33.28125 30.320313 33.347656 C 30.347656 33.347656 30.375 33.355469 30.402344 33.355469 C 30.421875 33.261719 30.488281 33.167969 30.609375 33.113281 C 31.265625 32.804688 31.988281 32.710938 32.652344 32.429688 C 33.242188 32.175781 33.769531 31.679688 34.210938 31.21875 C 35.070313 30.308594 35.652344 29.203125 35.804688 27.964844 C 35.804688 27.910156 35.785156 27.84375 35.785156 27.769531 Z "/>
<path style=" stroke:none;fill-rule:nonzero;fill:#127274;fill-opacity:1;" d="M 38.429688 29.390625 C 37.734375 29.457031 37.039063 29.34375 36.515625 28.875 C 36.253906 29.886719 35.757813 30.835938 35.035156 31.613281 C 34.546875 32.136719 33.945313 32.765625 33.28125 33.085938 C 32.652344 33.382813 31.96875 33.488281 31.332031 33.730469 C 32.25 34.527344 31.386719 35.914063 30.769531 36.636719 C 30.355469 37.125 29.878906 37.574219 29.335938 37.914063 C 28.660156 38.335938 27.898438 38.445313 27.113281 38.34375 C 26.492188 38.257813 25.875 38.023438 25.257813 37.988281 C 24.683594 37.949219 24.101563 37.96875 23.53125 38.007813 C 22.554688 38.0625 21.609375 38.042969 20.671875 37.734375 C 18.976563 37.179688 17.484375 36.019531 16.914063 34.273438 C 16.855469 34.117188 16.902344 33.976563 16.988281 33.882813 C 16.996094 33.769531 17.042969 33.648438 17.164063 33.570313 C 17.015625 33.542969 16.855469 33.515625 16.707031 33.476563 C 16.257813 33.375 15.816406 33.226563 15.375 33.085938 C 14.464844 32.8125 13.5 32.617188 12.65625 32.175781 C 11.886719 31.78125 10.921875 31.210938 10.507813 30.414063 C 10.246094 29.886719 10.179688 29.351563 10.179688 28.789063 C 10.03125 28.988281 9.882813 29.183594 9.742188 29.390625 C 9.429688 29.859375 9.355469 30.367188 9.28125 30.917969 C 9.140625 32.054688 9.066406 33.253906 9.074219 34.398438 C 9.074219 34.835938 9.101563 35.34375 9.234375 35.691406 C 9.347656 35.980469 9.488281 36.253906 9.617188 36.523438 C 9.710938 36.710938 9.929688 37.050781 10.039063 37.378906 C 10.179688 37.367188 10.320313 37.425781 10.414063 37.574219 C 10.855469 38.296875 11.632813 38.785156 12.421875 39.046875 C 13.304688 39.335938 14.269531 39.167969 15.160156 39.449219 C 15.242188 39.476563 15.320313 39.523438 15.367188 39.582031 C 15.507813 39.609375 15.648438 39.628906 15.769531 39.648438 C 16.613281 39.777344 17.363281 39.84375 18.226563 39.851563 C 20.671875 39.882813 23.128906 39.789063 25.574219 39.882813 C 26.785156 39.929688 27.976563 39.789063 29.183594 39.703125 C 30.027344 39.648438 30.871094 39.664063 31.714844 39.65625 C 32.371094 39.648438 33.027344 39.628906 33.683594 39.609375 C 33.992188 39.601563 34.292969 39.582031 34.601563 39.5625 C 34.695313 39.554688 34.789063 39.554688 34.882813 39.542969 C 34.988281 39.535156 34.960938 39.535156 34.894531 39.570313 C 34.929688 39.554688 34.96875 39.542969 35.007813 39.542969 C 35.015625 39.542969 35.015625 39.535156 35.023438 39.535156 C 36.148438 39.085938 37.117188 38.417969 37.941406 37.539063 C 38.054688 37.414063 38.195313 37.386719 38.316406 37.414063 C 39.007813 36.496094 39.414063 35.429688 39.441406 34.210938 C 39.496094 32.511719 38.511719 31.039063 38.429688 29.390625 Z M 16.867188 38.71875 C 16.246094 38.90625 15.589844 38.914063 14.945313 38.933594 C 14.164063 38.953125 13.339844 39.066406 12.582031 38.820313 C 11.242188 38.390625 10.425781 36.992188 9.976563 35.726563 C 9.777344 35.175781 9.636719 34.492188 10.03125 33.984375 C 10.507813 33.355469 11.550781 33.46875 12.179688 33.769531 C 12.695313 34.011719 13.105469 34.40625 13.621094 34.648438 C 14.128906 34.882813 14.644531 35.101563 15.140625 35.34375 C 15.917969 35.71875 16.59375 36.449219 17.445313 36.65625 C 17.691406 36.554688 18.046875 36.664063 18.074219 37.011719 C 18.140625 37.835938 17.652344 38.476563 16.867188 38.71875 Z M 38.195313 36.355469 C 37.742188 37.039063 37.023438 37.585938 36.328125 37.996094 C 35.605469 38.4375 34.761719 38.886719 33.890625 38.859375 C 32.914063 38.832031 31.960938 38.550781 31.085938 38.117188 C 30.851563 38.007813 30.824219 37.78125 30.910156 37.59375 C 30.890625 37.507813 30.890625 37.40625 30.929688 37.3125 C 31.03125 37.058594 31.171875 36.835938 31.339844 36.628906 C 31.914063 35.925781 32.710938 35.429688 33.46875 34.949219 C 34.085938 34.554688 34.640625 34.085938 35.242188 33.65625 C 35.832031 33.234375 36.542969 32.757813 37.3125 32.785156 C 38.089844 32.8125 38.511719 33.488281 38.605469 34.199219 C 38.699219 34.894531 38.585938 35.746094 38.195313 36.355469 Z "/>
<path style=" stroke:none;fill-rule:nonzero;fill:#127274;fill-opacity:1;" d="M 41.457031 26.4375 C 41.042969 25.445313 39.945313 25.527344 39.054688 25.726563 C 38.511719 25.835938 37.96875 25.996094 37.472656 26.257813 C 37.3125 26.34375 37.105469 26.445313 36.9375 26.585938 C 37.085938 26.738281 37.125 26.960938 36.929688 27.148438 C 36.789063 27.28125 36.722656 27.414063 36.703125 27.542969 C 36.703125 27.5625 36.703125 27.582031 36.703125 27.601563 C 36.703125 27.9375 37.023438 28.265625 37.367188 28.433594 C 37.882813 28.6875 38.539063 28.554688 39.074219 28.414063 C 39.742188 28.246094 40.40625 28.023438 40.996094 27.675781 C 41.484375 27.394531 41.679688 26.972656 41.457031 26.4375 Z "/>
<path style=" stroke:none;fill-rule:nonzero;fill:#BCBCBC;fill-opacity:1;" d="M 37.492188 39.085938 C 36.929688 39.515625 36.328125 39.871094 35.671875 40.164063 C 35.625 40.257813 35.550781 40.320313 35.4375 40.351563 C 35.4375 40.472656 35.4375 40.59375 35.4375 40.695313 C 35.4375 40.800781 35.4375 40.902344 35.445313 40.996094 C 36.160156 40.914063 36.863281 40.726563 37.554688 40.554688 C 37.539063 40.058594 37.5 39.570313 37.492188 39.085938 Z "/>
<path style=" stroke:none;fill-rule:nonzero;fill:#FEBF10;fill-opacity:1;" d="M 15.027344 36.226563 C 14.570313 35.972656 14.089844 35.765625 13.613281 35.558594 C 13.351563 35.445313 13.085938 35.324219 12.835938 35.195313 C 12.617188 35.082031 12.441406 34.882813 12.226563 34.753906 C 11.960938 34.59375 10.660156 34.003906 10.640625 34.695313 C 10.632813 35.257813 10.902344 35.8125 11.164063 36.300781 C 11.457031 36.851563 11.785156 37.472656 12.335938 37.800781 C 12.984375 38.183594 13.734375 38.15625 14.457031 38.117188 C 15.179688 38.082031 16.828125 38.257813 17.164063 37.453125 C 16.367188 37.226563 15.730469 36.617188 15.027344 36.226563 Z "/>
<path style=" stroke:none;fill-rule:nonzero;fill:#010101;fill-opacity:1;" d="M 37.726563 34.085938 C 37.660156 33.863281 37.554688 33.65625 37.304688 33.628906 C 37.039063 33.601563 36.742188 33.730469 36.515625 33.851563 C 35.925781 34.171875 35.410156 34.585938 34.894531 34.996094 C 33.898438 35.785156 32.410156 36.328125 31.789063 37.5 C 32.464844 37.800781 33.242188 38.035156 33.976563 38.007813 C 34.695313 37.976563 35.390625 37.585938 35.992188 37.210938 C 36.535156 36.851563 37.238281 36.414063 37.527344 35.804688 C 37.773438 35.316406 37.894531 34.632813 37.726563 34.085938 Z "/>
<path style=" stroke:none;fill-rule:nonzero;fill:#010101;fill-opacity:1;" d="M 38.605469 34.199219 C 38.511719 33.496094 38.089844 32.8125 37.3125 32.785156 C 36.554688 32.757813 35.839844 33.234375 35.242188 33.65625 C 34.640625 34.085938 34.097656 34.554688 33.46875 34.949219 C 32.710938 35.429688 31.914063 35.914063 31.339844 36.628906 C 31.171875 36.835938 31.03125 37.058594 30.929688 37.3125 C 30.890625 37.414063 30.882813 37.507813 30.910156 37.59375 C 30.824219 37.773438 30.851563 38.007813 31.085938 38.117188 C 31.960938 38.550781 32.914063 38.832031 33.890625 38.859375 C 34.753906 38.886719 35.605469 38.429688 36.328125 37.996094 C 37.023438 37.574219 37.742188 37.039063 38.195313 36.355469 C 38.585938 35.746094 38.699219 34.894531 38.605469 34.199219 Z M 37.527344 35.8125 C 37.226563 36.414063 36.535156 36.863281 35.992188 37.21875 C 35.398438 37.601563 34.695313 37.996094 33.976563 38.015625 C 33.242188 38.042969 32.464844 37.808594 31.789063 37.507813 C 32.410156 36.335938 33.898438 35.792969 34.894531 35.007813 C 35.410156 34.59375 35.933594 34.179688 36.515625 33.863281 C 36.742188 33.742188 37.039063 33.609375 37.304688 33.636719 C 37.554688 33.664063 37.660156 33.882813 37.726563 34.097656 C 37.894531 34.632813 37.773438 35.316406 37.527344 35.8125 Z "/>
<path style=" stroke:none;fill-rule:nonzero;fill:#010101;fill-opacity:1;" d="M 18.074219 37.003906 C 18.046875 36.65625 17.691406 36.542969 17.445313 36.648438 C 16.59375 36.441406 15.917969 35.710938 15.140625 35.335938 C 14.632813 35.089844 14.128906 34.875 13.621094 34.640625 C 13.105469 34.40625 12.695313 34.003906 12.179688 33.757813 C 11.558594 33.46875 10.507813 33.355469 10.03125 33.976563 C 9.648438 34.480469 9.789063 35.164063 9.976563 35.71875 C 10.414063 36.992188 11.230469 38.382813 12.582031 38.8125 C 13.339844 39.054688 14.164063 38.953125 14.945313 38.925781 C 15.589844 38.90625 16.238281 38.898438 16.867188 38.710938 C 17.652344 38.476563 18.140625 37.835938 18.074219 37.003906 Z M 14.457031 38.109375 C 13.734375 38.148438 12.984375 38.164063 12.335938 37.789063 C 11.785156 37.460938 11.457031 36.835938 11.164063 36.289063 C 10.902344 35.804688 10.632813 35.25 10.640625 34.6875 C 10.648438 34.003906 11.960938 34.585938 12.226563 34.742188 C 12.429688 34.875 12.617188 35.0625 12.835938 35.183594 C 13.085938 35.324219 13.351563 35.4375 13.613281 35.550781 C 14.089844 35.757813 14.578125 35.960938 15.027344 36.214844 C 15.742188 36.609375 16.378906 37.21875 17.175781 37.445313 C 16.828125 38.257813 15.179688 38.082031 14.457031 38.109375 Z "/>
<path style=" stroke:none;fill-rule:nonzero;fill:#010101;fill-opacity:1;" d="M 42.394531 26.726563 C 42.335938 25.941406 41.804688 25.265625 41.109375 24.929688 C 40.554688 24.664063 39.851563 24.730469 39.273438 24.824219 C 38.558594 24.929688 37.875 25.132813 37.226563 25.433594 C 36.335938 23.34375 35.148438 21.382813 34.132813 19.351563 C 33.65625 18.382813 33.027344 17.457031 32.210938 16.753906 C 31.453125 16.085938 30.449219 15.957031 29.476563 15.917969 C 27.046875 15.804688 24.5625 16.03125 22.144531 16.265625 C 20.980469 16.378906 19.828125 16.527344 18.675781 16.679688 C 17.710938 16.800781 16.753906 16.988281 15.910156 17.503906 C 14.679688 18.253906 14.175781 19.707031 13.566406 20.933594 C 12.882813 22.304688 12.226563 23.710938 11.371094 24.984375 C 10.546875 24.394531 9.628906 23.914063 8.644531 23.878906 C 7.527344 23.839844 5.671875 24.945313 6.167969 26.269531 C 6.441406 26.992188 7.398438 27.449219 8.042969 27.769531 C 8.464844 27.976563 8.972656 28.199219 9.476563 28.3125 C 9.335938 28.507813 9.1875 28.6875 9.046875 28.882813 C 8.738281 29.304688 8.605469 29.765625 8.511719 30.273438 C 8.296875 31.414063 8.296875 32.597656 8.242188 33.75 C 8.195313 34.59375 8.203125 35.457031 8.550781 36.242188 C 8.691406 36.5625 8.851563 36.863281 9 37.179688 C 9.054688 37.304688 9.121094 37.425781 9.179688 37.546875 C 9.195313 37.585938 9.214844 37.632813 9.226563 37.667969 C 9.207031 37.78125 9.234375 37.882813 9.308594 37.96875 C 9.234375 38.0625 9.195313 38.183594 9.234375 38.335938 C 9.488281 39.320313 9.074219 40.707031 9.917969 41.476563 C 10.085938 41.625 10.339844 41.691406 10.613281 41.726563 C 10.460938 42.710938 10.351563 43.996094 11.015625 44.792969 C 11.671875 45.582031 12.992188 45.496094 13.914063 45.601563 C 14.390625 45.65625 14.851563 45.65625 15.289063 45.441406 C 15.75 45.214844 15.910156 44.617188 15.984375 44.15625 C 16.179688 42.976563 16.050781 41.726563 16.070313 40.527344 C 16.097656 40.539063 16.125 40.539063 16.164063 40.546875 C 17.101563 40.695313 18.046875 40.679688 18.992188 40.679688 C 20.230469 40.679688 21.46875 40.660156 22.707031 40.660156 C 23.90625 40.660156 25.105469 40.734375 26.304688 40.714844 C 27.515625 40.695313 28.714844 40.539063 29.925781 40.480469 C 30.648438 40.445313 31.359375 40.480469 32.082031 40.472656 C 32.164063 40.472656 32.242188 40.472656 32.324219 40.460938 C 32.242188 40.667969 32.230469 40.929688 32.222656 41.128906 C 32.195313 41.617188 32.242188 42.113281 32.296875 42.589844 C 32.371094 43.238281 32.417969 44.417969 33.113281 44.738281 C 33.570313 44.953125 34.117188 44.992188 34.613281 45.019531 C 35.101563 45.046875 35.644531 45.066406 36.113281 44.914063 C 37.152344 44.578125 37.171875 43.226563 37.050781 42.273438 C 37.078125 42.1875 37.085938 42.085938 37.058594 41.992188 C 37.039063 41.925781 37.023438 41.859375 37.003906 41.804688 C 37.039063 41.71875 37.050781 41.625 37.03125 41.53125 C 37.378906 41.445313 37.734375 41.363281 38.082031 41.277344 C 38.277344 41.230469 38.382813 41.035156 38.382813 40.855469 C 38.398438 40.125 38.304688 39.394531 38.324219 38.652344 C 39.476563 37.507813 40.125 36.140625 40.265625 34.5 C 40.351563 33.589844 40.171875 32.726563 39.898438 31.855469 C 39.628906 30.992188 39.28125 30.140625 39.261719 29.222656 C 39.929688 29.0625 40.585938 28.820313 41.195313 28.507813 C 41.933594 28.164063 42.449219 27.601563 42.394531 26.726563 Z M 12.402344 25.601563 C 12.796875 25.480469 12.75 24.984375 12.488281 24.824219 C 13.445313 23.289063 14.195313 21.601563 14.992188 19.976563 C 15.441406 19.050781 16.003906 18.300781 16.996094 17.914063 C 17.933594 17.550781 18.984375 17.492188 19.96875 17.363281 C 22.433594 17.042969 24.917969 16.835938 27.402344 16.761719 C 28.480469 16.726563 29.625 16.648438 30.683594 16.902344 C 31.734375 17.148438 32.4375 18.121094 32.972656 18.984375 C 33.273438 19.472656 33.507813 19.996094 33.757813 20.503906 C 34.058594 21.09375 34.386719 21.675781 34.695313 22.265625 C 35.335938 23.445313 35.980469 24.617188 36.488281 25.867188 C 36.328125 25.988281 36.1875 26.128906 36.066406 26.289063 C 35.839844 25.976563 35.445313 25.640625 35.070313 25.773438 C 34.585938 23.953125 34.011719 22.097656 32.914063 20.550781 C 32.371094 19.789063 31.742188 19.238281 30.863281 18.917969 C 30.019531 18.609375 29.070313 18.601563 28.179688 18.609375 C 26.082031 18.628906 23.960938 18.5625 21.863281 18.722656 C 20.765625 18.804688 19.679688 18.976563 18.609375 19.210938 C 17.851563 19.367188 17.109375 19.621094 16.453125 20.042969 C 15.382813 20.726563 14.886719 21.804688 14.304688 22.882813 C 13.800781 23.820313 13.085938 24.984375 13.164063 26.101563 C 12.992188 26.089844 12.824219 26.117188 12.675781 26.183594 C 12.675781 26.082031 12.636719 25.976563 12.535156 25.894531 C 12.441406 25.820313 12.347656 25.734375 12.253906 25.660156 C 12.289063 25.640625 12.347656 25.621094 12.402344 25.601563 Z M 29.34375 35.851563 C 29.203125 35.839844 29.109375 35.898438 29.042969 35.972656 C 27.710938 36.300781 26.289063 36.195313 24.929688 36.132813 C 23.175781 36.046875 21.429688 35.90625 19.6875 35.832031 C 19.460938 35.820313 19.339844 35.953125 19.304688 36.121094 C 19.011719 35.90625 18.742188 35.664063 18.507813 35.390625 C 20.8125 35.492188 23.109375 35.652344 25.414063 35.617188 C 26.53125 35.597656 27.65625 35.484375 28.773438 35.511719 C 29.195313 35.523438 29.617188 35.398438 30.039063 35.410156 C 30.226563 35.417969 30.441406 35.4375 30.628906 35.390625 C 30.441406 35.726563 30.195313 36.027344 29.933594 36.308594 C 29.933594 36.09375 29.773438 35.867188 29.503906 35.859375 Z M 29.492188 36.730469 C 29.476563 36.75 29.457031 36.757813 29.4375 36.777344 C 28.988281 37.179688 28.492188 37.472656 27.882813 37.527344 C 27.308594 37.574219 26.726563 37.414063 26.175781 37.292969 C 25.566406 37.152344 24.976563 37.097656 24.355469 37.105469 C 23.605469 37.117188 22.855469 37.238281 22.117188 37.164063 C 21.507813 37.097656 20.914063 36.945313 20.351563 36.703125 C 21.929688 36.789063 23.503906 36.898438 25.078125 36.976563 C 26.539063 37.050781 28.058594 37.132813 29.492188 36.730469 Z M 30.589844 34.519531 C 30.449219 34.472656 30.328125 34.5 30.242188 34.566406 C 30.226563 34.566406 30.214844 34.566406 30.195313 34.566406 C 30.085938 34.566406 29.960938 34.554688 29.851563 34.554688 C 29.617188 34.546875 29.34375 34.632813 29.101563 34.648438 C 28.835938 34.667969 28.574219 34.660156 28.3125 34.667969 C 27.234375 34.695313 26.15625 34.753906 25.078125 34.773438 C 22.855469 34.800781 20.625 34.640625 18.402344 34.539063 C 18.207031 34.527344 18.085938 34.632813 18.039063 34.761719 C 17.933594 34.585938 17.839844 34.386719 17.765625 34.191406 C 18.101563 34.070313 18.515625 34.132813 18.851563 34.164063 C 19.472656 34.199219 20.117188 34.125 20.738281 34.078125 C 21.976563 33.992188 23.203125 33.917969 24.441406 33.976563 C 25.640625 34.03125 26.832031 34.257813 28.03125 34.199219 C 28.59375 34.171875 29.15625 34.125 29.71875 34.144531 C 30.066406 34.152344 30.449219 34.164063 30.75 34.351563 C 30.851563 34.414063 30.863281 34.527344 30.863281 34.667969 C 30.804688 34.601563 30.695313 34.554688 30.589844 34.519531 Z M 30.636719 33.113281 C 30.515625 33.167969 30.449219 33.261719 30.429688 33.355469 C 30.402344 33.355469 30.375 33.347656 30.347656 33.347656 C 29.710938 33.273438 29.082031 33.289063 28.445313 33.335938 C 27.140625 33.414063 25.875 33.226563 24.570313 33.148438 C 23.242188 33.066406 21.910156 33.160156 20.578125 33.253906 C 19.929688 33.300781 19.285156 33.355469 18.636719 33.308594 C 18.636719 33.308594 18.628906 33.308594 18.628906 33.308594 C 18.617188 33.195313 18.542969 33.09375 18.402344 33.039063 C 17.710938 32.765625 16.949219 32.644531 16.238281 32.445313 C 15.777344 32.324219 15.328125 32.183594 14.878906 32.042969 C 14.429688 31.914063 13.96875 31.820313 13.539063 31.640625 C 12.789063 31.339844 11.925781 30.863281 11.410156 30.234375 C 10.949219 29.664063 11.007813 28.914063 11.035156 28.21875 C 11.632813 28.03125 12.289063 27.675781 12.5625 27.179688 C 12.722656 27.1875 12.871094 27.113281 12.964844 26.980469 C 12.976563 26.972656 12.976563 26.972656 12.976563 26.972656 C 13.039063 26.945313 13.039063 26.953125 13.125 26.953125 C 13.21875 26.953125 13.332031 26.980469 13.414063 27.019531 C 13.585938 27.113281 13.753906 27.074219 13.867188 26.980469 C 13.949219 27 14.054688 26.992188 14.15625 26.953125 C 14.382813 26.851563 14.765625 26.925781 15 26.933594 C 15.320313 26.953125 15.636719 27 15.957031 27.019531 C 16.914063 27.066406 17.878906 26.933594 18.835938 26.914063 C 20.867188 26.859375 22.921875 26.992188 24.957031 27.132813 C 26.972656 27.273438 28.988281 27.402344 31.011719 27.335938 C 31.648438 27.320313 32.296875 27.300781 32.933594 27.242188 C 33.535156 27.1875 34.199219 27.121094 34.734375 26.8125 C 34.828125 26.757813 34.894531 26.679688 34.921875 26.605469 C 35.035156 26.671875 35.175781 26.699219 35.289063 26.652344 C 35.390625 26.746094 35.457031 26.878906 35.53125 26.992188 C 35.671875 27.226563 35.8125 27.542969 35.8125 27.769531 C 35.8125 27.84375 35.832031 27.917969 35.859375 27.976563 C 35.710938 29.203125 35.128906 30.320313 34.265625 31.226563 C 33.824219 31.6875 33.300781 32.183594 32.710938 32.4375 C 32.015625 32.710938 31.292969 32.804688 30.636719 33.113281 Z M 34.070313 26.175781 C 33.609375 26.363281 33.046875 26.371094 32.570313 26.410156 C 32.445313 26.417969 32.316406 26.429688 32.195313 26.429688 C 32.195313 26.429688 32.195313 26.429688 32.195313 26.417969 C 32.445313 25.492188 32.242188 24.5625 31.539063 23.886719 C 30.863281 23.242188 29.851563 23.007813 28.941406 23.070313 C 28.03125 23.148438 27.046875 23.617188 26.398438 24.253906 C 25.894531 24.757813 25.621094 25.734375 26.035156 26.34375 C 25.5 26.304688 24.964844 26.269531 24.429688 26.230469 C 22.40625 26.089844 20.363281 25.976563 18.335938 26.0625 C 17.4375 26.101563 16.546875 26.210938 15.648438 26.136719 C 15.101563 26.089844 14.523438 25.976563 13.988281 26.101563 C 13.894531 25.398438 14.371094 24.5625 14.671875 23.972656 C 15.027344 23.269531 15.367188 22.527344 15.789063 21.871094 C 16.707031 20.429688 18.300781 20.109375 19.867188 19.820313 C 22.125 19.398438 24.421875 19.5 26.710938 19.480469 C 28.359375 19.472656 30.46875 19.125 31.734375 20.457031 C 33.074219 21.871094 33.683594 23.914063 34.179688 25.78125 C 34.085938 25.894531 34.03125 26.035156 34.070313 26.175781 Z M 31.367188 26.464844 C 31.132813 26.476563 30.898438 26.476563 30.664063 26.484375 C 29.410156 26.53125 28.152344 26.484375 26.90625 26.410156 C 26.960938 26.230469 26.925781 26.023438 26.738281 25.882813 C 26.632813 25.808594 26.726563 25.320313 26.785156 25.210938 C 26.90625 24.917969 27.160156 24.703125 27.414063 24.535156 C 27.957031 24.160156 28.640625 23.925781 29.296875 23.914063 C 29.898438 23.90625 30.515625 24.113281 30.964844 24.507813 C 31.472656 24.957031 31.546875 25.601563 31.378906 26.230469 C 31.351563 26.316406 31.351563 26.398438 31.367188 26.464844 Z M 8.335938 26.960938 C 8.023438 26.8125 7.734375 26.632813 7.460938 26.4375 C 7.285156 26.316406 6.984375 26.128906 6.945313 25.894531 C 6.882813 25.480469 7.414063 25.152344 7.714844 24.984375 C 8.164063 24.730469 8.644531 24.675781 9.140625 24.789063 C 10.132813 25.023438 11.023438 25.726563 11.804688 26.382813 C 11.804688 26.4375 11.804688 26.492188 11.832031 26.550781 C 11.933594 26.851563 11.503906 27.066406 11.296875 27.1875 C 10.949219 27.382813 10.527344 27.523438 10.132813 27.535156 C 9.523438 27.5625 8.839844 27.214844 8.335938 26.960938 Z M 10.433594 40.820313 C 10.492188 40.828125 10.414063 40.773438 10.378906 40.707031 C 10.332031 40.632813 10.3125 40.527344 10.292969 40.433594 C 10.226563 40.171875 10.210938 39.898438 10.199219 39.628906 C 10.179688 39.28125 10.179688 38.933594 10.132813 38.585938 C 10.59375 39.074219 11.183594 39.441406 11.804688 39.703125 C 12.394531 39.957031 13.011719 39.992188 13.632813 40.039063 C 13.621094 40.070313 13.621094 40.097656 13.621094 40.132813 L 13.585938 40.988281 C 13.003906 40.960938 12.421875 40.929688 11.839844 40.921875 C 11.382813 40.914063 10.882813 40.941406 10.433594 40.820313 Z M 15.207031 43.445313 C 15.195313 43.835938 15.167969 44.25 14.980469 44.605469 C 14.820313 44.898438 14.277344 44.8125 14.015625 44.785156 C 13.648438 44.746094 13.292969 44.691406 12.929688 44.671875 C 12.535156 44.652344 12.066406 44.585938 11.746094 44.335938 C 11.410156 44.070313 11.398438 43.632813 11.382813 43.238281 C 11.363281 42.777344 11.382813 42.320313 11.457031 41.867188 C 11.464844 41.832031 11.464844 41.804688 11.464844 41.765625 C 11.523438 41.765625 11.570313 41.765625 11.617188 41.765625 C 12.414063 41.785156 13.21875 41.820313 14.015625 41.851563 C 14.257813 41.859375 14.417969 41.625 14.429688 41.410156 L 14.464844 40.453125 C 14.503906 40.433594 14.53125 40.40625 14.570313 40.378906 C 14.605469 40.378906 14.671875 40.367188 14.664063 40.367188 C 14.792969 40.367188 14.933594 40.378906 15.066406 40.386719 C 15.121094 40.398438 15.1875 40.40625 15.242188 40.40625 C 15.195313 41.417969 15.242188 42.429688 15.207031 43.445313 Z M 35.71875 44.164063 C 35.363281 44.242188 34.949219 44.210938 34.585938 44.195313 C 34.226563 44.175781 33.796875 44.148438 33.46875 43.996094 C 33.46875 43.996094 33.46875 43.996094 33.460938 43.996094 C 33.449219 43.976563 33.441406 43.960938 33.441406 43.960938 C 33.394531 43.847656 33.355469 43.726563 33.328125 43.601563 C 33.234375 43.246094 33.179688 42.871094 33.132813 42.507813 C 33.085938 42.113281 33.054688 41.71875 33.054688 41.324219 C 33.054688 41.203125 33.054688 41.070313 33.074219 40.949219 C 33.085938 40.902344 33.09375 40.855469 33.101563 40.808594 C 33.226563 40.707031 33.253906 40.574219 33.226563 40.460938 C 33.515625 40.453125 33.796875 40.445313 34.085938 40.433594 C 34.210938 40.425781 34.378906 40.433594 34.554688 40.433594 C 34.554688 40.554688 34.566406 40.679688 34.566406 40.808594 C 34.566406 41.035156 34.574219 41.257813 34.566406 41.484375 C 34.554688 41.710938 34.78125 41.90625 35.007813 41.898438 C 35.390625 41.878906 35.773438 41.820313 36.160156 41.746094 C 36.160156 41.773438 36.160156 41.804688 36.160156 41.832031 C 35.933594 42.019531 36 42.394531 36.234375 42.535156 C 36.328125 43.125 36.335938 44.035156 35.71875 44.164063 Z M 35.4375 40.996094 C 35.4375 40.894531 35.4375 40.789063 35.429688 40.695313 C 35.429688 40.59375 35.4375 40.472656 35.429688 40.351563 C 35.539063 40.320313 35.625 40.257813 35.664063 40.164063 C 36.320313 39.871094 36.917969 39.515625 37.480469 39.085938 C 37.492188 39.570313 37.539063 40.070313 37.546875 40.554688 C 36.851563 40.726563 36.148438 40.902344 35.4375 40.996094 Z M 39.449219 34.179688 C 39.414063 35.398438 39.019531 36.46875 38.324219 37.386719 C 38.203125 37.359375 38.0625 37.386719 37.949219 37.507813 C 37.125 38.390625 36.160156 39.066406 35.035156 39.507813 C 35.023438 39.507813 35.023438 39.515625 35.015625 39.515625 C 34.976563 39.523438 34.941406 39.523438 34.902344 39.542969 C 34.96875 39.507813 34.988281 39.507813 34.894531 39.515625 C 34.800781 39.523438 34.707031 39.535156 34.613281 39.535156 C 34.3125 39.554688 34.003906 39.5625 33.695313 39.582031 C 33.039063 39.609375 32.382813 39.628906 31.726563 39.628906 C 30.882813 39.636719 30.039063 39.617188 29.195313 39.675781 C 27.992188 39.757813 26.792969 39.898438 25.585938 39.851563 C 23.136719 39.769531 20.679688 39.851563 18.234375 39.824219 C 17.371094 39.816406 16.621094 39.75 15.777344 39.617188 C 15.65625 39.601563 15.515625 39.570313 15.375 39.554688 C 15.328125 39.496094 15.261719 39.449219 15.167969 39.421875 C 14.277344 39.140625 13.3125 39.308594 12.429688 39.019531 C 11.644531 38.757813 10.855469 38.269531 10.425781 37.546875 C 10.332031 37.398438 10.191406 37.339844 10.050781 37.351563 C 9.9375 37.023438 9.710938 36.683594 9.628906 36.496094 C 9.488281 36.226563 9.347656 35.953125 9.242188 35.664063 C 9.113281 35.316406 9.085938 34.808594 9.085938 34.367188 C 9.074219 33.226563 9.148438 32.023438 9.289063 30.890625 C 9.355469 30.347656 9.441406 29.832031 9.75 29.363281 C 9.890625 29.15625 10.039063 28.960938 10.191406 28.761719 C 10.191406 29.324219 10.257813 29.867188 10.519531 30.382813 C 10.929688 31.179688 11.886719 31.753906 12.664063 32.148438 C 13.519531 32.585938 14.476563 32.785156 15.382813 33.054688 C 15.824219 33.1875 16.265625 33.347656 16.714844 33.449219 C 16.867188 33.488281 17.023438 33.515625 17.175781 33.542969 C 17.054688 33.628906 16.996094 33.742188 16.996094 33.851563 C 16.914063 33.945313 16.867188 34.078125 16.921875 34.246094 C 17.484375 35.992188 18.984375 37.152344 20.679688 37.707031 C 21.617188 38.015625 22.566406 38.035156 23.539063 37.976563 C 24.113281 37.941406 24.695313 37.921875 25.265625 37.960938 C 25.894531 38.007813 26.503906 38.230469 27.121094 38.316406 C 27.910156 38.429688 28.667969 38.316406 29.34375 37.882813 C 29.886719 37.546875 30.367188 37.097656 30.777344 36.609375 C 31.398438 35.886719 32.257813 34.5 31.339844 33.703125 C 31.976563 33.449219 32.664063 33.347656 33.289063 33.054688 C 33.945313 32.746094 34.546875 32.117188 35.042969 31.585938 C 35.765625 30.804688 36.273438 29.859375 36.523438 28.847656 C 37.050781 29.316406 37.742188 29.429688 38.4375 29.363281 C 38.511719 31.039063 39.496094 32.511719 39.449219 34.179688 Z M 41.007813 27.675781 C 40.414063 28.023438 39.75 28.246094 39.085938 28.414063 C 38.550781 28.546875 37.894531 28.6875 37.378906 28.433594 C 37.023438 28.265625 36.710938 27.9375 36.710938 27.601563 C 36.710938 27.582031 36.710938 27.5625 36.710938 27.542969 C 36.730469 27.414063 36.796875 27.273438 36.9375 27.148438 C 37.132813 26.972656 37.085938 26.738281 36.945313 26.585938 C 37.117188 26.457031 37.320313 26.34375 37.480469 26.257813 C 37.96875 25.996094 38.523438 25.847656 39.066406 25.726563 C 39.957031 25.527344 41.054688 25.445313 41.464844 26.4375 C 41.679688 26.972656 41.484375 27.394531 41.007813 27.675781 Z "/>
<path style=" stroke:none;fill-rule:nonzero;fill:#000000;fill-opacity:1;" d="M 47.429688 15.140625 C 47.792969 12.429688 47.597656 9.695313 46.226563 7.285156 C 45.140625 5.371094 43.378906 3.917969 41.398438 3.007813 C 39.054688 1.929688 36.488281 1.726563 33.9375 1.734375 C 30.910156 1.753906 27.890625 2.148438 24.863281 2.269531 C 21.957031 2.390625 19.039063 2.136719 16.132813 2.269531 C 13.460938 2.390625 10.714844 2.785156 8.316406 4.011719 C 6.335938 5.015625 4.679688 6.496094 3.46875 8.363281 C 2.015625 10.613281 1.601563 13.21875 1.6875 15.863281 C 1.734375 17.390625 1.949219 18.910156 2.148438 20.417969 C 2.34375 21.945313 2.445313 23.476563 2.492188 25.011719 C 2.652344 31.039063 1.875 37.039063 2.023438 43.070313 C 2.042969 43.734375 3.066406 43.648438 3.054688 42.992188 C 2.90625 36.84375 3.703125 30.710938 3.515625 24.5625 C 3.421875 21.496094 2.785156 18.476563 2.71875 15.414063 C 2.664063 12.789063 3.273438 10.285156 4.855469 8.175781 C 6.1875 6.402344 8.0625 5.109375 10.132813 4.332031 C 11.429688 3.84375 12.804688 3.570313 14.203125 3.429688 C 14.082031 3.929688 13.960938 4.5 13.574219 4.914063 C 13.125 5.410156 13.902344 6.085938 14.351563 5.597656 C 14.71875 5.195313 14.859375 4.695313 15.039063 4.191406 C 15.09375 4.03125 15.148438 3.882813 15.195313 3.710938 C 15.207031 3.664063 15.214844 3.617188 15.234375 3.5625 C 15.308594 3.496094 15.367188 3.421875 15.394531 3.328125 C 15.898438 3.300781 16.414063 3.28125 16.921875 3.273438 C 16.921875 3.5625 16.882813 3.84375 16.679688 4.070313 C 16.21875 4.554688 16.996094 5.230469 17.457031 4.753906 C 17.851563 4.332031 17.933594 3.804688 17.953125 3.261719 C 18.1875 3.261719 18.421875 3.261719 18.65625 3.261719 C 19.117188 3.261719 19.566406 3.273438 20.023438 3.273438 L 20.023438 4.640625 C 20.023438 5.304688 21.054688 5.222656 21.054688 4.566406 L 21.054688 3.28125 C 21.429688 3.289063 21.816406 3.300781 22.191406 3.300781 C 22.191406 3.394531 22.21875 3.476563 22.273438 3.5625 C 22.414063 3.789063 22.5 4.105469 22.59375 4.378906 C 22.800781 5.007813 23.773438 4.667969 23.570313 4.039063 C 23.484375 3.796875 23.410156 3.542969 23.304688 3.308594 C 23.980469 3.308594 24.648438 3.300781 25.320313 3.261719 C 25.359375 3.375 25.433594 3.46875 25.574219 3.542969 C 25.820313 3.664063 25.867188 4.058594 25.921875 4.304688 C 26.015625 4.660156 26.089844 5.035156 26.304688 5.34375 C 26.691406 5.878906 27.554688 5.304688 27.160156 4.761719 C 26.945313 4.472656 26.914063 4.039063 26.820313 3.695313 C 26.773438 3.515625 26.699219 3.347656 26.617188 3.195313 C 26.90625 3.179688 27.195313 3.160156 27.496094 3.140625 C 27.570313 3.132813 27.65625 3.132813 27.730469 3.121094 C 27.742188 3.207031 27.769531 3.289063 27.804688 3.375 C 27.992188 3.742188 28.238281 4.070313 28.460938 4.40625 C 28.835938 4.960938 29.691406 4.378906 29.316406 3.824219 C 29.136719 3.5625 28.960938 3.308594 28.789063 3.039063 C 29.25 3 29.710938 2.960938 30.167969 2.933594 C 30.179688 3.140625 30.300781 3.347656 30.570313 3.402344 C 31.023438 3.496094 31.695313 4.351563 31.875 4.753906 C 32.136719 5.363281 33.113281 5.023438 32.851563 4.414063 C 32.664063 3.976563 32.351563 3.601563 32.035156 3.242188 C 31.902344 3.101563 31.773438 2.960938 31.613281 2.832031 C 33.28125 2.738281 34.949219 2.699219 36.617188 2.832031 C 38.898438 3.019531 41.148438 3.722656 42.984375 5.101563 C 44.945313 6.582031 46.171875 8.757813 46.5 11.183594 C 46.894531 14.101563 45.992188 16.929688 45.589844 19.789063 C 45.179688 22.726563 45.28125 25.695313 45.496094 28.640625 C 45.648438 30.769531 45.863281 32.898438 45.984375 35.035156 C 46.039063 36.101563 46.070313 37.171875 46.058594 38.25 C 46.050781 39.300781 46.070313 40.378906 45.929688 41.417969 C 45.84375 42.074219 46.855469 42.273438 46.941406 41.617188 C 47.128906 40.191406 47.101563 38.710938 47.089844 37.273438 C 47.082031 35.785156 46.988281 34.304688 46.875 32.820313 C 46.648438 29.867188 46.339844 26.914063 46.351563 23.953125 C 46.351563 22.445313 46.460938 20.945313 46.695313 19.453125 C 46.882813 18.019531 47.230469 16.59375 47.429688 15.140625 Z "/>
<path style=" stroke:none;fill-rule:nonzero;fill:#000000;fill-opacity:1;" d="M 13.367188 6.554688 C 13.179688 6.382813 12.796875 6.367188 12.636719 6.601563 C 12.46875 6.851563 12.367188 7.097656 12.28125 7.386719 C 12.226563 7.585938 12.195313 7.828125 12.074219 8.007813 C 11.914063 8.242188 11.898438 8.53125 12.121094 8.738281 C 12.308594 8.90625 12.695313 8.925781 12.851563 8.691406 C 13.023438 8.4375 13.125 8.195313 13.210938 7.902344 C 13.265625 7.707031 13.292969 7.460938 13.414063 7.285156 C 13.574219 7.050781 13.601563 6.75 13.367188 6.554688 Z "/>
<path style=" stroke:none;fill-rule:nonzero;fill:#000000;fill-opacity:1;" d="M 11.664063 10.414063 C 11.390625 10.285156 11.117188 10.414063 10.96875 10.648438 C 10.601563 11.222656 10.398438 11.859375 10.03125 12.429688 C 9.882813 12.664063 10.03125 13.011719 10.265625 13.125 C 10.539063 13.257813 10.808594 13.125 10.960938 12.890625 C 11.324219 12.320313 11.53125 11.679688 11.898438 11.109375 C 12.046875 10.867188 11.898438 10.527344 11.664063 10.414063 Z "/>
<path style=" stroke:none;fill-rule:nonzero;fill:#000000;fill-opacity:1;" d="M 8.679688 15.84375 C 8.492188 16.453125 8.164063 17.015625 7.882813 17.585938 C 7.585938 18.179688 8.511719 18.636719 8.8125 18.046875 C 9.140625 17.390625 9.488281 16.753906 9.703125 16.039063 C 9.890625 15.402344 8.867188 15.207031 8.679688 15.84375 Z "/>
<path style=" stroke:none;fill-rule:nonzero;fill:#000000;fill-opacity:1;" d="M 6.554688 20.101563 C 6.234375 20.511719 6.027344 21.074219 5.625 21.421875 C 5.410156 21.601563 5.316406 21.890625 5.484375 22.132813 C 5.625 22.351563 5.980469 22.453125 6.195313 22.273438 C 6.695313 21.851563 6.9375 21.289063 7.332031 20.785156 C 7.734375 20.25 6.957031 19.574219 6.554688 20.101563 Z "/>
<path style=" stroke:none;fill-rule:nonzero;fill:#000000;fill-opacity:1;" d="M 35.644531 7.707031 C 35.464844 7.332031 35.203125 7.058594 34.875 6.816406 C 34.621094 6.628906 34.246094 6.429688 34.144531 6.113281 C 33.929688 5.484375 32.960938 5.820313 33.167969 6.449219 C 33.289063 6.824219 33.5625 7.105469 33.871094 7.339844 C 34.125 7.539063 34.527344 7.734375 34.667969 8.042969 C 34.789063 8.296875 35.042969 8.457031 35.324219 8.363281 C 35.570313 8.277344 35.765625 7.960938 35.644531 7.707031 Z "/>
<path style=" stroke:none;fill-rule:nonzero;fill:#000000;fill-opacity:1;" d="M 38.398438 11.429688 C 37.882813 11.007813 37.285156 10.40625 37.050781 9.769531 C 36.824219 9.148438 35.851563 9.488281 36.074219 10.105469 C 36.375 10.914063 37.070313 11.664063 37.726563 12.195313 C 38.242188 12.617188 38.914063 11.851563 38.398438 11.429688 Z "/>
<path style=" stroke:none;fill-rule:nonzero;fill:#000000;fill-opacity:1;" d="M 41.175781 16.332031 C 40.742188 15.421875 40.03125 14.746094 39.429688 13.960938 C 39.027344 13.433594 38.175781 14.007813 38.578125 14.539063 C 39.121094 15.242188 39.824219 15.863281 40.210938 16.667969 C 40.480469 17.269531 41.457031 16.929688 41.175781 16.332031 Z "/>
<path style=" stroke:none;fill-rule:nonzero;fill:#000000;fill-opacity:1;" d="M 16.179688 6.5625 C 16.097656 6.945313 15.9375 7.292969 15.757813 7.648438 C 15.460938 8.25 16.386719 8.699219 16.6875 8.109375 C 16.902344 7.679688 17.101563 7.238281 17.203125 6.757813 C 17.335938 6.101563 16.320313 5.90625 16.179688 6.5625 Z "/>
<path style=" stroke:none;fill-rule:nonzero;fill:#000000;fill-opacity:1;" d="M 15.101563 10.554688 C 14.8125 11.148438 14.550781 11.746094 14.257813 12.335938 C 13.960938 12.9375 14.886719 13.386719 15.1875 12.796875 C 15.476563 12.207031 15.742188 11.605469 16.03125 11.015625 C 16.320313 10.414063 15.394531 9.957031 15.101563 10.554688 Z "/>
<path style=" stroke:none;fill-rule:nonzero;fill:#000000;fill-opacity:1;" d="M 13.414063 15.523438 C 13.070313 16.132813 12.835938 16.847656 12.710938 17.53125 C 12.695313 17.625 12.703125 17.699219 12.722656 17.773438 C 12.636719 17.878906 12.609375 18 12.609375 18.140625 L 12.609375 18.234375 C 12.609375 18.367188 12.695313 18.496094 12.789063 18.582031 C 12.890625 18.675781 13.03125 18.722656 13.171875 18.710938 C 13.304688 18.703125 13.433594 18.636719 13.519531 18.535156 C 13.613281 18.421875 13.648438 18.300781 13.648438 18.148438 L 13.648438 18.054688 C 13.648438 18.019531 13.640625 17.992188 13.632813 17.953125 C 13.679688 17.898438 13.714844 17.8125 13.734375 17.71875 C 13.847656 17.109375 14.035156 16.507813 14.34375 15.976563 C 14.671875 15.402344 13.742188 14.945313 13.414063 15.523438 Z "/>
<path style=" stroke:none;fill-rule:nonzero;fill:#000000;fill-opacity:1;" d="M 20.015625 6.414063 L 20.015625 8.289063 C 20.015625 8.953125 21.046875 8.867188 21.046875 8.210938 L 21.046875 6.335938 C 21.046875 5.671875 20.015625 5.757813 20.015625 6.414063 Z "/>
<path style=" stroke:none;fill-rule:nonzero;fill:#000000;fill-opacity:1;" d="M 20.671875 10.742188 C 20.664063 10.078125 19.640625 10.164063 19.640625 10.820313 C 19.640625 11.242188 19.742188 11.738281 19.601563 12.140625 C 19.507813 12.402344 19.566406 12.695313 19.835938 12.835938 C 20.0625 12.945313 20.4375 12.871094 20.53125 12.601563 C 20.738281 11.992188 20.679688 11.382813 20.671875 10.742188 Z "/>
<path style=" stroke:none;fill-rule:nonzero;fill:#000000;fill-opacity:1;" d="M 24.234375 8.210938 C 24.140625 7.585938 23.972656 6.964844 23.859375 6.335938 C 23.746094 5.691406 22.714844 5.757813 22.828125 6.414063 C 22.941406 7.039063 23.109375 7.660156 23.203125 8.289063 C 23.304688 8.945313 24.335938 8.867188 24.234375 8.210938 Z "/>
<path style=" stroke:none;fill-rule:nonzero;fill:#000000;fill-opacity:1;" d="M 24.992188 12.460938 C 24.882813 12.335938 24.863281 12.121094 24.84375 11.960938 C 24.796875 11.699219 24.769531 11.429688 24.675781 11.175781 C 24.449219 10.546875 23.476563 10.894531 23.699219 11.511719 C 23.792969 11.765625 23.8125 12.027344 23.859375 12.289063 C 23.933594 12.65625 24.066406 12.945313 24.308594 13.226563 C 24.496094 13.433594 24.871094 13.378906 25.039063 13.179688 C 25.246094 12.957031 25.179688 12.664063 24.992188 12.460938 Z "/>
<path style=" stroke:none;fill-rule:nonzero;fill:#000000;fill-opacity:1;" d="M 28.726563 8.820313 C 28.554688 8.738281 28.453125 8.351563 28.378906 8.15625 C 28.257813 7.835938 28.152344 7.507813 27.984375 7.210938 C 27.65625 6.628906 26.804688 7.210938 27.132813 7.789063 C 27.496094 8.4375 27.515625 9.382813 28.265625 9.75 C 28.867188 10.03125 29.324219 9.113281 28.726563 8.820313 Z "/>
<path style=" stroke:none;fill-rule:nonzero;fill:#000000;fill-opacity:1;" d="M 30.992188 13.492188 C 30.695313 12.976563 30.382813 12.421875 29.972656 11.980469 C 29.773438 11.773438 29.417969 11.832031 29.242188 12.027344 C 29.042969 12.253906 29.089844 12.554688 29.289063 12.757813 C 29.304688 12.777344 29.324219 12.804688 29.34375 12.824219 C 29.390625 12.882813 29.4375 12.945313 29.476563 13.011719 C 29.585938 13.171875 29.691406 13.332031 29.792969 13.5 C 29.914063 13.6875 30.027344 13.875 30.140625 14.070313 C 30.46875 14.644531 31.320313 14.0625 30.992188 13.492188 Z "/>
<path style=" stroke:none;fill-rule:nonzero;fill:#000000;fill-opacity:1;" d="M 31.238281 7.800781 C 31.003906 7.226563 30.710938 6.675781 30.335938 6.179688 C 29.933594 5.652344 29.070313 6.226563 29.484375 6.757813 C 29.8125 7.179688 30.066406 7.648438 30.273438 8.136719 C 30.515625 8.757813 31.492188 8.417969 31.238281 7.800781 Z "/>
<path style=" stroke:none;fill-rule:nonzero;fill:#000000;fill-opacity:1;" d="M 33.703125 11.867188 C 33.5625 11.128906 33.167969 10.5 32.585938 10.023438 C 32.070313 9.601563 31.398438 10.367188 31.902344 10.800781 C 32.257813 11.089844 32.578125 11.484375 32.664063 11.953125 C 32.71875 12.226563 32.914063 12.449219 33.214844 12.429688 C 33.488281 12.402344 33.757813 12.140625 33.703125 11.867188 Z "/>
<path style=" stroke:none;fill-rule:nonzero;fill:#000000;fill-opacity:1;" d="M 36.300781 15.675781 C 36.1875 15.300781 35.839844 15 35.570313 14.738281 C 35.417969 14.585938 35.269531 14.445313 35.117188 14.304688 C 35.070313 14.269531 35.035156 14.222656 34.996094 14.183594 C 34.855469 13.828125 34.273438 13.679688 34.039063 14.117188 C 33.804688 14.558594 34.285156 14.933594 34.566406 15.207031 C 34.734375 15.375 34.902344 15.535156 35.070313 15.703125 C 35.164063 15.796875 35.183594 15.824219 35.25 15.898438 C 35.277344 15.9375 35.296875 15.964844 35.324219 16.003906 C 35.324219 16.003906 35.324219 16.011719 35.324219 16.011719 C 35.523438 16.648438 36.496094 16.3125 36.300781 15.675781 Z "/>
<path style=" stroke:none;fill-rule:nonzero;fill:#000000;fill-opacity:1;" d="M 39.804688 20.523438 C 39.441406 20.136719 39.132813 19.574219 39.019531 19.050781 C 38.953125 18.777344 38.605469 18.648438 38.363281 18.730469 C 38.070313 18.835938 37.988281 19.117188 38.042969 19.386719 C 38.203125 20.082031 38.632813 20.785156 39.132813 21.289063 C 39.589844 21.777344 40.265625 20.992188 39.804688 20.523438 Z "/>
<path style=" stroke:none;fill-rule:nonzero;fill:#000000;fill-opacity:1;" d="M 44.679688 20.335938 C 44.183594 19.640625 43.714844 18.898438 42.890625 18.5625 C 42.28125 18.320313 41.8125 19.238281 42.429688 19.492188 C 43.085938 19.753906 43.433594 20.351563 43.828125 20.90625 C 44.203125 21.460938 45.066406 20.878906 44.679688 20.335938 Z "/>
<path style=" stroke:none;fill-rule:nonzero;fill:#000000;fill-opacity:1;" d="M 11.679688 21 C 11.605469 21.347656 11.53125 21.929688 11.242188 22.171875 C 11.023438 22.351563 10.929688 22.640625 11.101563 22.882813 C 11.25 23.101563 11.597656 23.203125 11.8125 23.023438 C 12.355469 22.574219 12.554688 21.863281 12.683594 21.195313 C 12.824219 20.539063 11.8125 20.34375 11.679688 21 Z "/>
</g>
</svg>
