<?xml version="1.0" encoding="UTF-8"?>
<svg xmlns="http://www.w3.org/2000/svg" xmlns:xlink="http://www.w3.org/1999/xlink" width="24pt" height="24pt" viewBox="0 0 24 24" version="1.1">
<g id="surface1">
<path style=" stroke:none;fill-rule:nonzero;fill:#6200EE;fill-opacity:0.301961;" d="M 3 3 L 6 3 L 6 6 L 3 6 Z "/>
<path style=" stroke:none;fill-rule:nonzero;fill:#6200EE;fill-opacity:0.301961;" d="M 10 3 L 13 3 L 13 6 L 10 6 Z "/>
<path style=" stroke:none;fill-rule:nonzero;fill:#6200EE;fill-opacity:0.301961;" d="M 17 3 L 20 3 L 20 6 L 17 6 Z "/>
<path style=" stroke:none;fill-rule:nonzero;fill:#6200EE;fill-opacity:0.301961;" d="M 3 10 L 6 10 L 6 13 L 3 13 Z "/>
<path style=" stroke:none;fill-rule:nonzero;fill:#6200EE;fill-opacity:0.301961;" d="M 10 10 L 13 10 L 13 13 L 10 13 Z "/>
<path style=" stroke:none;fill-rule:nonzero;fill:#6200EE;fill-opacity:0.301961;" d="M 17 10 L 20 10 L 20 13 L 17 13 Z "/>
<path style=" stroke:none;fill-rule:nonzero;fill:#6200EE;fill-opacity:0.301961;" d="M 3 17 L 6 17 L 6 20 L 3 20 Z "/>
<path style=" stroke:none;fill-rule:nonzero;fill:#6200EE;fill-opacity:0.301961;" d="M 10 17 L 13 17 L 13 20 L 10 20 Z "/>
<path style=" stroke:none;fill-rule:nonzero;fill:#6200EE;fill-opacity:0.301961;" d="M 17 17 L 20 17 L 20 20 L 17 20 Z "/>
<path style=" stroke:none;fill-rule:nonzero;fill:#6200EE;fill-opacity:1;" d="M 5.5 7 L 3.5 7 C 2.699219 7 2 6.300781 2 5.5 L 2 3.5 C 2 2.699219 2.699219 2 3.5 2 L 5.5 2 C 6.300781 2 7 2.699219 7 3.5 L 7 5.5 C 7 6.300781 6.300781 7 5.5 7 Z M 4 5 L 5 5 L 5 4 L 4 4 Z "/>
<path style=" stroke:none;fill-rule:nonzero;fill:#6200EE;fill-opacity:1;" d="M 12.5 7 L 10.5 7 C 9.699219 7 9 6.300781 9 5.5 L 9 3.5 C 9 2.699219 9.699219 2 10.5 2 L 12.5 2 C 13.300781 2 14 2.699219 14 3.5 L 14 5.5 C 14 6.300781 13.300781 7 12.5 7 Z M 11 5 L 12 5 L 12 4 L 11 4 Z "/>
<path style=" stroke:none;fill-rule:nonzero;fill:#6200EE;fill-opacity:1;" d="M 19.5 7 L 17.5 7 C 16.699219 7 16 6.300781 16 5.5 L 16 3.5 C 16 2.699219 16.699219 2 17.5 2 L 19.5 2 C 20.300781 2 21 2.699219 21 3.5 L 21 5.5 C 21 6.300781 20.300781 7 19.5 7 Z M 18 5 L 19 5 L 19 4 L 18 4 Z "/>
<path style=" stroke:none;fill-rule:nonzero;fill:#6200EE;fill-opacity:1;" d="M 5.5 14 L 3.5 14 C 2.699219 14 2 13.300781 2 12.5 L 2 10.5 C 2 9.699219 2.699219 9 3.5 9 L 5.5 9 C 6.300781 9 7 9.699219 7 10.5 L 7 12.5 C 7 13.300781 6.300781 14 5.5 14 Z M 4 12 L 5 12 L 5 11 L 4 11 Z "/>
<path style=" stroke:none;fill-rule:nonzero;fill:#6200EE;fill-opacity:1;" d="M 12.5 14 L 10.5 14 C 9.699219 14 9 13.300781 9 12.5 L 9 10.5 C 9 9.699219 9.699219 9 10.5 9 L 12.5 9 C 13.300781 9 14 9.699219 14 10.5 L 14 12.5 C 14 13.300781 13.300781 14 12.5 14 Z M 11 12 L 12 12 L 12 11 L 11 11 Z "/>
<path style=" stroke:none;fill-rule:nonzero;fill:#6200EE;fill-opacity:1;" d="M 19.5 14 L 17.5 14 C 16.699219 14 16 13.300781 16 12.5 L 16 10.5 C 16 9.699219 16.699219 9 17.5 9 L 19.5 9 C 20.300781 9 21 9.699219 21 10.5 L 21 12.5 C 21 13.300781 20.300781 14 19.5 14 Z M 18 12 L 19 12 L 19 11 L 18 11 Z "/>
<path style=" stroke:none;fill-rule:nonzero;fill:#6200EE;fill-opacity:1;" d="M 5.5 21 L 3.5 21 C 2.699219 21 2 20.300781 2 19.5 L 2 17.5 C 2 16.699219 2.699219 16 3.5 16 L 5.5 16 C 6.300781 16 7 16.699219 7 17.5 L 7 19.5 C 7 20.300781 6.300781 21 5.5 21 Z M 4 19 L 5 19 L 5 18 L 4 18 Z "/>
<path style=" stroke:none;fill-rule:nonzero;fill:#6200EE;fill-opacity:1;" d="M 12.5 21 L 10.5 21 C 9.699219 21 9 20.300781 9 19.5 L 9 17.5 C 9 16.699219 9.699219 16 10.5 16 L 12.5 16 C 13.300781 16 14 16.699219 14 17.5 L 14 19.5 C 14 20.300781 13.300781 21 12.5 21 Z M 11 19 L 12 19 L 12 18 L 11 18 Z "/>
<path style=" stroke:none;fill-rule:nonzero;fill:#6200EE;fill-opacity:1;" d="M 19.5 21 L 17.5 21 C 16.699219 21 16 20.300781 16 19.5 L 16 17.5 C 16 16.699219 16.699219 16 17.5 16 L 19.5 16 C 20.300781 16 21 16.699219 21 17.5 L 21 19.5 C 21 20.300781 20.300781 21 19.5 21 Z M 18 19 L 19 19 L 19 18 L 18 18 Z "/>
</g>
</svg>
