<?xml version="1.0" encoding="UTF-8"?>
<svg xmlns="http://www.w3.org/2000/svg" xmlns:xlink="http://www.w3.org/1999/xlink" width="48pt" height="48pt" viewBox="0 0 48 48" version="1.1">
<g id="surface1">
<path style=" stroke:none;fill-rule:nonzero;fill:#FEBF10;fill-opacity:1;" d="M 12.957031 25.414063 C 12.917969 25.070313 13.03125 24.609375 12.890625 24.289063 C 12.851563 24.195313 12.460938 24.242188 12.394531 24.261719 C 12.214844 24.320313 12.09375 24.382813 11.972656 24.523438 C 11.914063 24.601563 11.851563 24.648438 11.773438 24.675781 C 11.867188 25.304688 11.925781 25.941406 12.140625 26.550781 C 12.148438 26.578125 12.160156 26.605469 12.160156 26.632813 C 12.355469 26.398438 12.730469 26.429688 12.917969 26.625 C 12.957031 26.578125 12.984375 26.503906 13.003906 26.398438 C 13.050781 26.082031 12.992188 25.742188 12.957031 25.414063 Z "/>
<path style=" stroke:none;fill-rule:nonzero;fill:#FEBF10;fill-opacity:1;" d="M 25.023438 16.59375 C 24.816406 16.238281 24.609375 15.863281 24.421875 15.488281 C 24.421875 15.496094 24.421875 15.496094 24.421875 15.507813 C 24.414063 16.179688 24.414063 16.855469 24.414063 17.539063 C 24.488281 17.539063 24.5625 17.550781 24.648438 17.585938 C 25.097656 17.792969 25.566406 18.007813 26.054688 18.101563 C 26.277344 18.140625 26.503906 18.160156 26.71875 18.160156 C 26.023438 17.8125 25.433594 17.316406 25.023438 16.59375 Z "/>
<path style=" stroke:none;fill-rule:nonzero;fill:#FEBF10;fill-opacity:1;" d="M 17.101563 30.871094 C 17.023438 30.523438 16.941406 30.148438 16.742188 29.851563 C 16.527344 29.511719 16.480469 29.652344 16.246094 30.019531 C 16.191406 30.101563 16.132813 30.160156 16.058594 30.195313 C 16.191406 30.898438 16.351563 31.601563 16.425781 32.316406 C 16.5 32.257813 16.59375 32.222656 16.714844 32.222656 C 17.007813 32.230469 17.15625 32.257813 17.15625 31.941406 C 17.164063 31.601563 17.164063 31.210938 17.101563 30.871094 Z "/>
<path style=" stroke:none;fill-rule:nonzero;fill:#74CCCF;fill-opacity:1;" d="M 32.4375 37.867188 L 32.445313 37.6875 C 32.445313 37.679688 32.445313 37.660156 32.445313 37.648438 C 32.503906 36.789063 32.605469 35.34375 31.332031 35.757813 C 30.402344 36.054688 31.023438 37.59375 31.238281 38.203125 C 31.246094 38.230469 31.257813 38.269531 31.265625 38.296875 C 31.707031 38.277344 32.15625 38.257813 32.597656 38.242188 C 32.492188 38.164063 32.429688 38.042969 32.4375 37.867188 Z "/>
<path style=" stroke:none;fill-rule:nonzero;fill:#FEBF10;fill-opacity:1;" d="M 21.195313 25.351563 C 21.167969 24.976563 21.113281 24.601563 21.074219 24.214844 C 21.054688 23.945313 21.085938 23.53125 20.945313 23.277344 C 20.804688 23.035156 20.390625 23.148438 20.164063 23.183594 C 20.148438 23.183594 20.128906 23.195313 20.109375 23.195313 C 20.15625 23.257813 20.183594 23.351563 20.183594 23.464844 C 20.148438 24.273438 20.230469 25.085938 20.398438 25.875 C 20.617188 25.773438 20.839844 25.726563 21.066406 25.648438 C 21.242188 25.59375 21.207031 25.554688 21.195313 25.351563 Z "/>
<path style=" stroke:none;fill-rule:nonzero;fill:#FEBF10;fill-opacity:1;" d="M 20.398438 14.054688 C 20.398438 13.828125 20.398438 13.601563 20.398438 13.378906 C 20.390625 13.171875 20.429688 12.742188 20.257813 12.589844 C 20.117188 12.460938 19.867188 12.460938 19.632813 12.488281 C 19.640625 12.617188 19.585938 12.75 19.492188 12.851563 C 19.492188 12.917969 19.492188 12.992188 19.492188 13.023438 C 19.5 13.238281 19.480469 13.453125 19.492188 13.667969 C 19.519531 14.222656 19.574219 14.765625 19.566406 15.320313 C 19.695313 15.226563 19.835938 15.160156 19.988281 15.132813 C 20.164063 15.09375 20.398438 15.121094 20.4375 14.898438 C 20.503906 14.625 20.398438 14.34375 20.398438 14.054688 Z "/>
<path style=" stroke:none;fill-rule:nonzero;fill:#FEBF10;fill-opacity:1;" d="M 20.726563 18.882813 C 20.710938 18.703125 20.710938 18.226563 20.585938 18.121094 C 20.492188 18.046875 20.210938 18.039063 20.007813 18.027344 C 20.007813 18.054688 19.996094 18.09375 19.988281 18.121094 C 19.800781 18.789063 19.875 19.5 20.070313 20.15625 C 20.089844 20.148438 20.117188 20.148438 20.136719 20.148438 C 20.316406 20.128906 20.691406 20.117188 20.726563 19.921875 C 20.792969 19.613281 20.765625 19.210938 20.726563 18.882813 Z "/>
<path style=" stroke:none;fill-rule:nonzero;fill:#FEBF10;fill-opacity:1;" d="M 16.585938 23.785156 C 16.351563 23.410156 15.929688 23.511719 15.554688 23.617188 C 15.496094 23.632813 15.441406 23.632813 15.382813 23.632813 C 15.382813 23.664063 15.382813 23.691406 15.382813 23.726563 C 15.28125 24.535156 15.589844 25.367188 15.757813 26.15625 C 15.871094 26.109375 16.011719 26.117188 16.144531 26.210938 C 16.460938 26.4375 16.539063 26.390625 16.6875 26.023438 C 16.808594 25.714844 16.875 25.351563 16.882813 25.023438 C 16.882813 24.617188 16.800781 24.132813 16.585938 23.785156 Z "/>
<path style=" stroke:none;fill-rule:nonzero;fill:#FEBF10;fill-opacity:1;" d="M 35.25 24.917969 C 35.148438 24.675781 34.976563 24.429688 34.773438 24.261719 C 34.695313 24.207031 34.632813 24.167969 34.574219 24.160156 C 34.574219 24.160156 34.546875 24.148438 34.492188 24.1875 C 34.433594 24.226563 34.378906 24.242188 34.320313 24.253906 C 34.332031 24.789063 34.425781 25.292969 34.59375 25.800781 C 35.25 25.828125 35.503906 25.554688 35.25 24.917969 Z "/>
<path style=" stroke:none;fill-rule:nonzero;fill:#FEBF10;fill-opacity:1;" d="M 31.304688 30.488281 C 31.285156 30.347656 31.246094 30.207031 31.226563 30.066406 C 31.191406 29.851563 31.164063 29.464844 30.984375 29.304688 C 30.890625 29.230469 30.757813 29.242188 30.617188 29.289063 C 30.648438 29.71875 30.730469 30.148438 30.816406 30.582031 C 30.917969 30.609375 31.023438 30.664063 31.105469 30.75 C 31.179688 30.742188 31.257813 30.722656 31.304688 30.695313 C 31.285156 30.695313 31.320313 30.582031 31.304688 30.488281 Z "/>
<path style=" stroke:none;fill-rule:nonzero;fill:#FEBF10;fill-opacity:1;" d="M 36.039063 29.699219 C 35.953125 29.363281 35.832031 29.023438 35.632813 28.742188 C 35.382813 28.386719 35.25 28.507813 35.007813 28.828125 C 34.949219 28.902344 34.882813 28.949219 34.820313 28.96875 C 34.820313 29.53125 35.023438 30.09375 35.128906 30.65625 C 35.136719 30.65625 35.136719 30.65625 35.148438 30.648438 C 35.382813 30.601563 35.90625 30.582031 36.074219 30.394531 C 36.1875 30.273438 36.074219 29.839844 36.039063 29.699219 Z "/>
<path style=" stroke:none;fill-rule:nonzero;fill:#FEBF10;fill-opacity:1;" d="M 36.917969 34.460938 C 36.917969 34.238281 36.917969 33.871094 36.742188 33.695313 C 36.554688 33.507813 36.328125 33.5625 36.101563 33.648438 C 36.074219 34.164063 36.074219 34.667969 36.140625 35.183594 C 36.148438 35.183594 36.167969 35.175781 36.179688 35.175781 C 36.328125 35.15625 36.703125 35.148438 36.816406 35.023438 C 36.9375 34.914063 36.929688 34.621094 36.917969 34.460938 Z "/>
<path style=" stroke:none;fill-rule:nonzero;fill:#BCBCBC;fill-opacity:1;" d="M 39.328125 36.957031 C 39.609375 36.589844 39.335938 35.710938 39.273438 35.289063 C 39.160156 34.585938 39.167969 33.9375 39.160156 33.226563 C 39.148438 32.210938 39.054688 31.210938 38.972656 30.207031 C 38.886719 29.203125 38.859375 28.191406 38.679688 27.195313 C 38.550781 26.457031 38.398438 25.714844 38.242188 24.976563 C 38.117188 24.421875 38.054688 23.8125 37.789063 23.296875 C 37.414063 22.566406 36.84375 22.273438 36.039063 22.265625 C 34.820313 22.246094 33.601563 22.179688 32.382813 22.144531 C 30.75 22.097656 29.109375 22.058594 27.476563 22.117188 C 26.886719 22.132813 26.242188 22.164063 25.679688 22.257813 C 25.480469 22.292969 25.285156 22.332031 25.097656 22.398438 C 25.117188 22.386719 25.105469 22.40625 25.085938 22.414063 C 25.003906 22.707031 24.683594 22.742188 24.441406 22.601563 C 24.507813 24.898438 24.636719 27.1875 24.757813 29.484375 C 24.84375 31.039063 24.910156 32.585938 25.058594 34.132813 C 25.199219 35.558594 25.332031 36.976563 25.292969 38.410156 C 26.945313 38.398438 28.601563 38.371094 30.253906 38.316406 C 29.820313 37.050781 29.492188 35.101563 31.246094 34.78125 C 32.0625 34.632813 32.839844 34.875 33.1875 35.671875 C 33.496094 36.382813 33.402344 37.085938 33.367188 37.835938 C 33.355469 37.996094 33.28125 38.117188 33.179688 38.203125 C 33.253906 38.203125 33.335938 38.195313 33.414063 38.195313 C 34.800781 38.117188 36.1875 38.070313 37.574219 37.882813 C 38.195313 37.800781 38.8125 37.660156 39.441406 37.546875 C 39.261719 37.433594 39.148438 37.199219 39.328125 36.957031 Z M 25.585938 26.417969 C 25.527344 25.714844 25.386719 25.011719 25.40625 24.300781 C 25.414063 24.054688 25.574219 23.90625 25.761719 23.851563 C 25.679688 23.617188 25.761719 23.335938 26.070313 23.269531 C 26.632813 23.148438 27.28125 23.089844 27.65625 23.617188 C 27.984375 24.074219 27.9375 24.683594 28.117188 25.199219 C 28.273438 25.667969 28.472656 26.289063 28.105469 26.71875 C 27.742188 27.140625 27.101563 27.054688 26.617188 27 C 26.464844 26.980469 26.363281 26.914063 26.316406 26.820313 C 26.035156 26.945313 25.613281 26.8125 25.585938 26.417969 Z M 25.914063 29.210938 C 25.921875 29.035156 26.007813 28.914063 26.117188 28.835938 C 26.136719 28.714844 26.203125 28.59375 26.351563 28.519531 C 26.792969 28.292969 27.394531 28.097656 27.84375 28.414063 C 28.265625 28.707031 28.507813 29.148438 28.621094 29.644531 C 28.734375 30.132813 28.882813 30.75 28.574219 31.199219 C 28.332031 31.546875 27.945313 31.621094 27.570313 31.734375 C 27.355469 31.800781 27.1875 31.726563 27.085938 31.585938 C 26.886719 31.855469 26.363281 31.882813 26.210938 31.460938 C 25.949219 30.730469 25.882813 29.972656 25.914063 29.210938 Z M 28.828125 36.300781 C 28.445313 36.976563 27.703125 37.304688 27.007813 36.835938 C 26.898438 36.757813 26.832031 36.65625 26.804688 36.554688 C 26.644531 36.523438 26.492188 36.429688 26.417969 36.242188 C 26.15625 35.585938 26.175781 34.882813 26.210938 34.199219 C 26.222656 34.011719 26.316406 33.882813 26.445313 33.804688 C 26.417969 33.675781 26.445313 33.523438 26.558594 33.394531 C 27.589844 32.25 28.566406 33.664063 28.835938 34.648438 C 29.007813 35.183594 29.117188 35.792969 28.828125 36.300781 Z M 29.222656 26.832031 C 29.101563 26.195313 28.96875 25.554688 28.894531 24.917969 C 28.867188 24.636719 28.875 24.167969 29.0625 23.933594 C 29.042969 23.773438 29.109375 23.617188 29.296875 23.511719 C 31.179688 22.519531 31.742188 25.050781 31.800781 26.398438 C 31.808594 26.617188 31.660156 26.8125 31.453125 26.867188 C 31.070313 26.972656 30.675781 27.085938 30.289063 27.1875 C 30.121094 27.234375 29.980469 27.195313 29.878906 27.113281 C 29.632813 27.234375 29.296875 27.179688 29.222656 26.832031 Z M 32.015625 31.339844 C 31.726563 31.621094 31.320313 31.6875 30.929688 31.714844 C 30.777344 32.128906 30.039063 32.070313 30 31.539063 C 29.933594 30.65625 29.632813 29.820313 29.664063 28.929688 C 29.671875 28.640625 29.886719 28.480469 30.121094 28.460938 C 30.609375 28.285156 31.265625 28.199219 31.660156 28.632813 C 32.023438 29.035156 32.089844 29.53125 32.195313 30.039063 C 32.277344 30.460938 32.363281 31.003906 32.015625 31.339844 Z M 33.75 26.304688 C 33.488281 25.574219 33.335938 24.835938 33.367188 24.054688 C 33.375 23.773438 33.589844 23.617188 33.804688 23.585938 C 33.84375 23.503906 33.898438 23.429688 33.992188 23.371094 C 35.710938 22.265625 37.820313 26.867188 34.59375 26.765625 C 34.453125 26.757813 34.339844 26.710938 34.265625 26.625 C 34.058594 26.644531 33.84375 26.558594 33.75 26.304688 Z M 34.238281 31.097656 C 34.164063 30.1875 33.789063 29.390625 33.910156 28.460938 C 33.945313 28.179688 34.152344 28.085938 34.367188 28.117188 C 34.800781 27.589844 35.445313 27.347656 36.039063 27.804688 C 36.507813 28.164063 36.796875 28.789063 36.9375 29.351563 C 37.058594 29.839844 37.191406 30.476563 36.882813 30.929688 C 36.5625 31.398438 35.933594 31.480469 35.429688 31.585938 C 35.257813 31.613281 35.117188 31.566406 35.015625 31.480469 C 34.734375 31.640625 34.273438 31.519531 34.238281 31.097656 Z M 37.5 35.699219 C 37.125 36.007813 36.675781 36.066406 36.214844 36.132813 C 36.039063 36.460938 35.457031 36.515625 35.335938 36.054688 C 35.109375 35.183594 35.117188 34.320313 35.164063 33.441406 C 35.175781 33.226563 35.296875 33.085938 35.457031 33.019531 C 35.503906 32.925781 35.585938 32.839844 35.71875 32.792969 C 36.910156 32.324219 37.875 33.085938 37.882813 34.332031 C 37.882813 34.753906 37.875 35.390625 37.5 35.699219 Z "/>
<path style=" stroke:none;fill-rule:nonzero;fill:#FEBF10;fill-opacity:1;" d="M 27.703125 29.898438 C 27.570313 29.390625 27.402344 29.054688 26.867188 29.316406 C 26.851563 29.878906 26.898438 30.429688 27.054688 30.964844 C 27.113281 30.890625 27.1875 30.835938 27.300781 30.796875 C 27.414063 30.757813 27.769531 30.675781 27.789063 30.648438 C 27.871094 30.46875 27.75 30.09375 27.703125 29.898438 Z "/>
<path style=" stroke:none;fill-rule:nonzero;fill:#FEBF10;fill-opacity:1;" d="M 29.90625 24.28125 C 29.90625 24.375 29.867188 24.460938 29.820313 24.535156 C 29.820313 24.628906 29.832031 24.710938 29.839844 24.804688 C 29.867188 25.011719 29.898438 25.21875 29.925781 25.433594 C 29.972656 25.707031 30.019531 25.976563 30.074219 26.25 C 30.320313 26.183594 30.570313 26.109375 30.816406 26.042969 C 30.769531 25.320313 30.5625 24.066406 29.90625 24.28125 Z "/>
<path style=" stroke:none;fill-rule:nonzero;fill:#FEBF10;fill-opacity:1;" d="M 27.101563 25.117188 C 27.046875 24.851563 27.046875 24.46875 26.90625 24.226563 C 26.804688 24.046875 26.53125 24.140625 26.363281 24.179688 C 26.363281 24.207031 26.371094 24.234375 26.371094 24.273438 C 26.351563 24.898438 26.457031 25.507813 26.523438 26.136719 C 26.617188 26.082031 26.71875 26.054688 26.851563 26.070313 C 27 26.089844 27.207031 26.128906 27.355469 26.082031 C 27.328125 25.761719 27.167969 25.445313 27.101563 25.117188 Z "/>
<path style=" stroke:none;fill-rule:nonzero;fill:#FEBF10;fill-opacity:1;" d="M 28.058594 35.53125 C 28.039063 35.289063 27.984375 35.054688 27.910156 34.828125 C 27.824219 34.566406 27.722656 34.246094 27.523438 34.039063 C 27.375 33.882813 27.394531 33.910156 27.253906 34.070313 C 27.226563 34.097656 27.195313 34.125 27.167969 34.144531 C 27.167969 34.164063 27.167969 34.171875 27.167969 34.191406 C 27.140625 34.789063 27.101563 35.382813 27.320313 35.945313 C 27.375 35.953125 27.421875 35.980469 27.476563 36.019531 C 27.816406 36.234375 28.078125 35.878906 28.058594 35.53125 Z "/>
<path style=" stroke:none;fill-rule:nonzero;fill:#FEBF10;fill-opacity:1;" d="M 21.300781 31.339844 C 21.226563 30.984375 21.167969 30.617188 21.09375 30.261719 C 21.027344 29.960938 20.972656 29.617188 20.792969 29.363281 C 20.652344 29.15625 20.429688 29.222656 20.230469 29.316406 C 20.210938 29.371094 20.175781 29.417969 20.136719 29.464844 C 19.988281 29.625 20.117188 30.300781 20.148438 30.523438 C 20.183594 30.804688 20.230469 31.117188 20.324219 31.398438 C 20.371094 31.414063 20.417969 31.453125 20.457031 31.492188 C 20.671875 31.695313 21 31.679688 21.253906 31.519531 C 21.335938 31.460938 21.328125 31.492188 21.300781 31.339844 Z "/>
<path style=" stroke:none;fill-rule:nonzero;fill:#BCBCBC;fill-opacity:1;" d="M 23.914063 31.386719 C 23.8125 28.292969 23.570313 25.199219 23.492188 22.105469 C 23.417969 18.976563 23.484375 15.84375 23.484375 12.710938 C 23.484375 11.886719 23.671875 10.3125 22.585938 10.070313 C 21.929688 9.917969 21.261719 9.984375 20.597656 10.070313 C 20.457031 10.085938 20.324219 10.105469 20.183594 10.117188 C 20.054688 10.199219 19.882813 10.210938 19.742188 10.164063 C 19.378906 10.199219 19.023438 10.226563 18.65625 10.257813 C 15.703125 10.472656 12.757813 10.820313 9.796875 11.023438 C 9.65625 11.980469 9.730469 12.964844 9.816406 13.929688 C 9.910156 15.066406 9.976563 16.179688 9.929688 17.324219 C 9.835938 19.761719 9.65625 22.179688 9.824219 24.628906 C 9.992188 27.085938 10.367188 29.523438 10.507813 31.976563 C 10.640625 34.285156 10.585938 36.589844 10.460938 38.886719 C 11.101563 38.867188 11.738281 38.832031 12.367188 38.792969 C 13.367188 38.738281 14.363281 38.765625 15.355469 38.773438 C 15.355469 38.746094 15.355469 38.71875 15.355469 38.691406 C 15.402344 37.734375 15.367188 36.777344 15.414063 35.820313 C 15.421875 35.558594 15.609375 35.34375 15.882813 35.335938 C 16.773438 35.289063 17.671875 35.242188 18.5625 35.289063 C 18.84375 35.296875 19.023438 35.484375 19.050781 35.757813 C 19.164063 36.703125 19.132813 37.640625 19.085938 38.585938 C 19.640625 38.539063 20.195313 38.484375 20.746094 38.445313 C 21.945313 38.363281 23.15625 38.410156 24.355469 38.417969 C 24.421875 36.066406 23.992188 33.742188 23.914063 31.386719 Z M 22.003906 23.867188 C 22.050781 24.449219 22.191406 25.070313 22.144531 25.640625 C 22.125 25.929688 22.011719 26.203125 21.757813 26.371094 C 21.476563 26.558594 21.148438 26.570313 20.859375 26.71875 C 20.570313 26.859375 20.296875 26.699219 20.183594 26.476563 C 19.941406 26.625 19.574219 26.570313 19.5 26.210938 C 19.304688 25.332031 19.199219 24.402344 19.238281 23.492188 C 19.246094 23.203125 19.472656 23.042969 19.707031 23.023438 C 19.5 22.78125 19.507813 22.351563 19.914063 22.273438 C 20.4375 22.179688 21.179688 22.070313 21.582031 22.527344 C 21.910156 22.914063 21.964844 23.382813 22.003906 23.867188 Z M 14.316406 12.554688 C 14.390625 12.402344 14.503906 12.328125 14.625 12.308594 C 14.652344 12.234375 14.710938 12.167969 14.785156 12.113281 C 15.421875 11.632813 16.460938 11.773438 16.988281 12.347656 C 17.230469 12.617188 17.304688 12.964844 17.34375 13.320313 C 17.382813 13.660156 17.523438 13.976563 17.585938 14.316406 C 17.710938 14.992188 17.792969 15.863281 17.070313 16.238281 C 16.507813 16.527344 15.710938 16.695313 15.195313 16.246094 C 15.140625 16.191406 15.09375 16.132813 15.074219 16.078125 C 15 16.078125 14.914063 16.058594 14.839844 16.003906 C 14.351563 15.703125 14.316406 14.851563 14.257813 14.351563 C 14.175781 13.78125 14.070313 13.078125 14.316406 12.554688 Z M 14.539063 18.167969 C 14.550781 17.867188 14.785156 17.710938 15.019531 17.699219 C 15.066406 17.671875 15.113281 17.644531 15.167969 17.625 C 15.695313 17.457031 16.320313 17.371094 16.761719 17.773438 C 17.183594 18.160156 17.324219 18.769531 17.4375 19.3125 C 17.539063 19.789063 17.644531 20.382813 17.34375 20.8125 C 17.042969 21.253906 16.585938 21.515625 16.132813 21.777344 C 15.789063 21.984375 15.460938 21.710938 15.421875 21.402344 C 15.140625 21.601563 14.652344 21.488281 14.664063 21.046875 C 14.710938 20.082031 14.511719 19.132813 14.539063 18.167969 Z M 13.988281 19.574219 C 14.082031 20.128906 14.136719 20.820313 13.707031 21.261719 C 13.285156 21.703125 12.664063 21.789063 12.085938 21.824219 C 11.878906 21.835938 11.738281 21.742188 11.664063 21.601563 C 11.492188 21.636719 11.304688 21.582031 11.195313 21.375 C 10.695313 20.511719 10.828125 19.5 10.882813 18.542969 C 10.902344 18.253906 11.117188 18.09375 11.34375 18.074219 C 11.363281 18.066406 11.382813 18.054688 11.398438 18.046875 C 11.972656 17.773438 12.617188 17.644531 13.171875 18.046875 C 13.667969 18.394531 13.894531 19.003906 13.988281 19.574219 Z M 10.386719 14.617188 C 10.367188 14.164063 10.386719 13.714844 10.40625 13.257813 C 10.414063 13.078125 10.5 12.957031 10.613281 12.882813 C 10.632813 12.757813 10.695313 12.636719 10.847656 12.5625 C 11.136719 12.402344 11.445313 12.289063 11.726563 12.132813 C 11.960938 12 12.234375 12.074219 12.382813 12.300781 C 13.03125 13.273438 13.179688 14.417969 13.339844 15.554688 C 13.378906 15.804688 13.117188 16.050781 12.871094 16.039063 C 12.421875 16.03125 11.980469 16.078125 11.53125 16.070313 C 11.296875 16.058594 11.15625 15.929688 11.089844 15.75 C 11.042969 15.75 10.996094 15.75 10.941406 15.742188 C 10.460938 15.617188 10.40625 15.027344 10.386719 14.617188 Z M 11.230469 26.820313 C 11.007813 26.183594 10.949219 25.519531 10.847656 24.851563 C 10.726563 24.777344 10.648438 24.65625 10.660156 24.46875 L 10.6875 23.992188 C 10.707031 23.550781 11.257813 23.363281 11.511719 23.644531 C 11.992188 23.269531 12.730469 23.164063 13.265625 23.417969 C 13.988281 23.765625 13.835938 24.46875 13.894531 25.125 C 13.941406 25.695313 14.0625 26.304688 13.875 26.867188 C 13.660156 27.496094 13.070313 27.730469 12.441406 27.675781 C 12.148438 27.648438 11.859375 27.402344 11.960938 27.085938 C 11.960938 27.074219 11.972656 27.066406 11.972656 27.066406 C 11.738281 27.214844 11.351563 27.167969 11.230469 26.820313 Z M 14.398438 33.308594 C 14.390625 33.5625 14.203125 33.804688 13.929688 33.796875 C 13.320313 33.789063 12.664063 33.910156 12.421875 33.207031 C 12.375 33.074219 12.382813 32.960938 12.429688 32.867188 C 12.335938 32.953125 12.195313 32.992188 12.027344 32.925781 C 11.511719 32.726563 11.523438 32.070313 11.476563 31.601563 C 11.429688 31.058594 11.390625 30.515625 11.417969 29.972656 C 11.429688 29.804688 11.503906 29.679688 11.605469 29.605469 C 11.597656 29.484375 11.632813 29.363281 11.765625 29.257813 C 12.195313 28.902344 12.789063 28.574219 13.339844 28.894531 C 13.78125 29.15625 14.007813 29.652344 14.136719 30.121094 C 14.417969 31.144531 14.457031 32.25 14.398438 33.308594 Z M 14.878906 26.632813 C 14.691406 25.585938 14.316406 24.5625 14.457031 23.492188 C 14.492188 23.203125 14.726563 23.101563 14.953125 23.148438 C 14.945313 22.949219 15.046875 22.761719 15.289063 22.695313 C 16.023438 22.492188 16.820313 22.480469 17.304688 23.148438 C 17.679688 23.664063 17.867188 24.441406 17.820313 25.070313 C 17.773438 25.667969 17.679688 26.335938 17.316406 26.832031 C 16.894531 27.402344 16.226563 27.449219 15.664063 27.039063 C 15.609375 27 15.5625 26.953125 15.535156 26.898438 C 15.289063 27.046875 14.945313 26.992188 14.878906 26.632813 Z M 18.074219 32.316406 C 17.914063 32.972656 17.371094 33.195313 16.742188 33.1875 C 16.539063 33.179688 16.386719 33.066406 16.320313 32.914063 C 16.070313 33.148438 15.523438 33.039063 15.496094 32.585938 C 15.441406 31.742188 15.226563 30.929688 15.085938 30.101563 C 15.039063 29.8125 15.226563 29.597656 15.449219 29.523438 C 15.777344 29.023438 16.398438 28.386719 17.035156 28.808594 C 17.570313 29.15625 17.832031 29.804688 17.972656 30.402344 C 18.101563 30.964844 18.214844 31.726563 18.074219 32.316406 Z M 18.609375 15.421875 C 18.636719 14.578125 18.582031 13.695313 18.515625 12.851563 C 18.496094 12.570313 18.488281 12.234375 18.769531 12.074219 C 18.789063 12.066406 18.804688 12.054688 18.824219 12.046875 C 18.851563 11.839844 19.003906 11.632813 19.257813 11.597656 C 19.789063 11.511719 20.445313 11.476563 20.878906 11.867188 C 21.214844 12.179688 21.308594 12.636719 21.335938 13.078125 C 21.355469 13.398438 21.355469 13.714844 21.355469 14.042969 C 21.355469 14.410156 21.496094 14.792969 21.375 15.148438 C 21.273438 15.476563 21.113281 15.769531 20.785156 15.929688 C 20.503906 16.058594 20.183594 16.003906 19.976563 16.265625 C 19.660156 16.660156 19.152344 16.285156 19.179688 15.871094 C 18.910156 15.917969 18.601563 15.777344 18.609375 15.421875 Z M 19.058594 17.90625 C 19.105469 17.71875 19.238281 17.617188 19.378906 17.578125 C 19.351563 17.324219 19.5 17.0625 19.828125 17.082031 C 20.324219 17.109375 20.925781 17.101563 21.289063 17.484375 C 21.648438 17.851563 21.664063 18.515625 21.683594 18.992188 C 21.703125 19.492188 21.789063 20.070313 21.515625 20.523438 C 21.234375 20.980469 20.652344 21.066406 20.164063 21.121094 C 19.988281 21.140625 19.867188 21.074219 19.78125 20.972656 C 19.566406 21.019531 19.3125 20.925781 19.21875 20.652344 C 18.917969 19.78125 18.816406 18.789063 19.058594 17.90625 Z M 21.917969 32.210938 C 21.394531 32.632813 20.664063 32.710938 20.089844 32.390625 C 19.914063 32.4375 19.714844 32.382813 19.613281 32.164063 C 19.351563 31.632813 19.238281 31.011719 19.171875 30.429688 C 19.117188 29.914063 19.058594 29.269531 19.414063 28.835938 C 19.433594 28.714844 19.507813 28.601563 19.648438 28.539063 C 20.203125 28.265625 20.980469 28.078125 21.441406 28.640625 C 21.863281 29.148438 21.976563 29.785156 22.085938 30.414063 C 22.191406 31.003906 22.480469 31.761719 21.917969 32.210938 Z "/>
<path style=" stroke:none;fill-rule:nonzero;fill:#74CCCF;fill-opacity:1;" d="M 18.140625 36.234375 C 17.550781 36.226563 16.949219 36.242188 16.359375 36.273438 C 16.339844 37.070313 16.359375 37.875 16.320313 38.671875 C 16.320313 38.710938 16.3125 38.738281 16.304688 38.773438 C 16.40625 38.773438 16.507813 38.773438 16.613281 38.765625 C 17.117188 38.746094 17.632813 38.71875 18.140625 38.671875 C 18.179688 37.855469 18.195313 37.039063 18.140625 36.234375 Z "/>
<path style=" stroke:none;fill-rule:nonzero;fill:#FEBF10;fill-opacity:1;" d="M 15.382813 15.214844 C 15.367188 15.195313 15.335938 15.1875 15.300781 15.160156 C 15.335938 15.179688 15.367188 15.207031 15.382813 15.226563 C 15.382813 15.226563 15.382813 15.226563 15.382813 15.214844 Z "/>
<path style=" stroke:none;fill-rule:nonzero;fill:#FEBF10;fill-opacity:1;" d="M 11.773438 13.164063 C 11.632813 13.226563 11.484375 13.292969 11.34375 13.367188 C 11.324219 13.660156 11.316406 13.949219 11.316406 14.242188 C 11.316406 14.410156 11.316406 14.585938 11.335938 14.757813 C 11.34375 14.804688 11.34375 14.851563 11.351563 14.898438 C 11.417969 14.953125 11.464844 15.027344 11.484375 15.101563 C 11.484375 15.101563 11.484375 15.101563 11.492188 15.101563 C 11.765625 15.113281 12.027344 15.09375 12.300781 15.085938 C 12.214844 14.417969 12.074219 13.761719 11.773438 13.164063 Z "/>
<path style=" stroke:none;fill-rule:nonzero;fill:#FEBF10;fill-opacity:1;" d="M 13.070313 19.835938 C 12.976563 19.152344 12.675781 18.507813 11.898438 18.863281 C 11.867188 18.871094 11.839844 18.890625 11.8125 18.890625 C 11.757813 19.554688 11.679688 20.296875 12.007813 20.867188 C 12.027344 20.867188 12.046875 20.867188 12.054688 20.859375 C 12.308594 20.839844 12.757813 20.851563 12.957031 20.644531 C 13.164063 20.457031 13.105469 20.101563 13.070313 19.835938 Z "/>
<path style=" stroke:none;fill-rule:nonzero;fill:#FEBF10;fill-opacity:1;" d="M 16.585938 14.203125 C 16.527344 13.996094 16.445313 13.789063 16.414063 13.585938 C 16.398438 13.414063 16.398438 13.21875 16.332031 13.058594 C 16.179688 12.683594 15.542969 12.722656 15.28125 12.929688 C 15.242188 12.957031 15.207031 12.976563 15.167969 12.992188 C 15.167969 13.011719 15.140625 13.078125 15.140625 13.097656 C 15.132813 13.210938 15.132813 13.3125 15.132813 13.425781 C 15.132813 13.6875 15.148438 13.960938 15.179688 14.222656 C 15.207031 14.464844 15.242188 14.71875 15.300781 14.960938 C 15.320313 15.046875 15.347656 15.140625 15.375 15.226563 C 15.414063 15.253906 15.414063 15.261719 15.402344 15.261719 C 15.449219 15.308594 15.476563 15.375 15.496094 15.429688 C 15.609375 15.421875 15.730469 15.460938 15.84375 15.554688 C 15.910156 15.609375 16.539063 15.515625 16.640625 15.355469 C 16.847656 15.066406 16.667969 14.511719 16.585938 14.203125 Z "/>
<path style=" stroke:none;fill-rule:nonzero;fill:#127274;fill-opacity:1;" d="M 40.867188 38.335938 C 39.722656 38.390625 38.570313 38.738281 37.433594 38.878906 C 36.046875 39.046875 34.660156 39.101563 33.273438 39.167969 C 30.421875 39.308594 27.5625 39.375 24.710938 39.382813 C 23.277344 39.382813 21.84375 39.328125 20.417969 39.441406 C 19.097656 39.554688 17.773438 39.722656 16.453125 39.730469 C 15.039063 39.75 13.632813 39.683594 12.214844 39.769531 C 10.949219 39.84375 9.683594 39.910156 8.417969 39.824219 C 8.398438 39.917969 8.351563 39.992188 8.296875 40.050781 C 8.296875 40.601563 8.476563 41.148438 8.578125 41.679688 C 8.632813 41.953125 8.652344 42.367188 8.992188 42.414063 C 9.476563 42.476563 10.011719 42.382813 10.5 42.347656 C 11.222656 42.289063 11.945313 42.253906 12.664063 42.234375 C 15.710938 42.148438 18.769531 42.308594 21.816406 42.28125 C 24.929688 42.253906 28.039063 42.121094 31.152344 42.132813 C 34.238281 42.140625 37.332031 41.664063 40.414063 41.914063 C 40.519531 41.925781 40.601563 41.960938 40.679688 42.007813 C 40.695313 41.832031 40.789063 41.664063 40.929688 41.578125 C 40.949219 40.5 40.894531 39.414063 40.867188 38.335938 Z "/>
<path style=" stroke:none;fill-rule:nonzero;fill:#FEBF10;fill-opacity:1;" d="M 15.382813 15.226563 C 15.382813 15.234375 15.382813 15.234375 15.382813 15.226563 C 15.394531 15.242188 15.402344 15.253906 15.414063 15.253906 C 15.402344 15.242188 15.394531 15.234375 15.382813 15.226563 Z "/>
<path style=" stroke:none;fill-rule:nonzero;fill:#FEBF10;fill-opacity:1;" d="M 16.554688 19.695313 C 16.480469 19.332031 16.425781 18.851563 16.191406 18.554688 C 16.03125 18.335938 15.703125 18.460938 15.488281 18.523438 C 15.507813 19.339844 15.648438 20.15625 15.628906 20.972656 C 15.636719 20.960938 15.648438 20.960938 15.65625 20.953125 C 16.21875 20.625 16.714844 20.417969 16.554688 19.695313 Z "/>
<path style=" stroke:none;fill-rule:nonzero;fill:#FEBF10;fill-opacity:1;" d="M 13.339844 30.9375 C 13.273438 30.554688 13.210938 30.113281 12.964844 29.792969 C 12.898438 29.699219 12.882813 29.699219 12.816406 29.710938 C 12.710938 29.71875 12.542969 29.832031 12.441406 29.914063 C 12.414063 29.933594 12.394531 29.953125 12.367188 29.972656 C 12.347656 30.367188 12.367188 30.769531 12.394531 31.164063 C 12.414063 31.398438 12.421875 31.640625 12.460938 31.875 C 12.46875 31.960938 12.476563 32.054688 12.507813 32.136719 C 12.515625 32.183594 12.523438 32.203125 12.535156 32.222656 C 12.542969 32.242188 12.542969 32.242188 12.535156 32.222656 C 12.515625 32.183594 12.449219 32.089844 12.308594 32.023438 C 12.601563 32.175781 12.648438 32.523438 12.523438 32.746094 C 12.730469 32.558594 13.125 32.558594 13.292969 32.859375 C 13.304688 32.859375 13.3125 32.859375 13.320313 32.867188 C 13.367188 32.867188 13.40625 32.867188 13.453125 32.867188 C 13.472656 32.210938 13.453125 31.566406 13.339844 30.9375 Z "/>
<path style=" stroke:none;fill-rule:nonzero;fill:#000000;fill-opacity:1;" d="M 41.8125 37.835938 C 41.8125 37.566406 41.578125 37.378906 41.324219 37.367188 C 40.929688 37.359375 40.539063 37.386719 40.144531 37.445313 C 40.144531 37.433594 40.152344 37.433594 40.164063 37.425781 C 40.640625 36.789063 40.285156 35.617188 40.179688 34.914063 C 40.105469 34.453125 40.117188 34.023438 40.125 33.5625 C 40.144531 32.792969 40.085938 32.015625 40.03125 31.246094 C 39.917969 29.804688 39.851563 28.359375 39.617188 26.933594 C 39.507813 26.25 39.355469 25.566406 39.214844 24.882813 C 39.085938 24.253906 38.980469 23.625 38.726563 23.035156 C 38.34375 22.125 37.621094 21.515625 36.648438 21.355469 C 36.195313 21.28125 35.726563 21.308594 35.269531 21.300781 C 35.136719 21.300781 34.996094 21.289063 34.867188 21.289063 C 34.882813 21.019531 34.882813 20.738281 34.855469 20.445313 L 34.808594 20.445313 C 34.761719 19.800781 34.640625 19.164063 34.492188 18.523438 C 34.726563 18.476563 34.960938 18.414063 35.175781 18.320313 C 35.726563 18.066406 35.417969 17.15625 34.855469 17.417969 C 34.667969 17.503906 34.472656 17.558594 34.265625 17.597656 C 34.265625 17.585938 34.257813 17.570313 34.257813 17.558594 C 34.199219 17.34375 34.152344 17.117188 34.117188 16.894531 C 34.902344 16.78125 35.691406 16.679688 36.476563 16.621094 C 37.097656 16.585938 37.023438 15.628906 36.402344 15.664063 C 35.585938 15.722656 34.773438 15.835938 33.964844 15.945313 C 33.945313 15.816406 33.929688 15.683594 33.910156 15.554688 C 33.898438 15.460938 33.882813 15.375 33.871094 15.28125 C 34.179688 15.234375 34.492188 15.167969 34.789063 15.066406 C 35.371094 14.859375 35.0625 13.960938 34.472656 14.164063 C 34.246094 14.242188 34.011719 14.296875 33.777344 14.335938 C 33.769531 14.230469 33.769531 14.128906 33.757813 14.035156 C 33.824219 13.949219 33.863281 13.847656 33.863281 13.726563 C 33.863281 13.5 33.804688 13.304688 33.683594 13.117188 C 33.402344 12.664063 32.839844 12.984375 32.8125 13.414063 C 32.792969 13.753906 32.792969 14.089844 32.820313 14.429688 C 32.457031 14.4375 32.082031 14.4375 31.726563 14.4375 C 31.105469 14.4375 31.179688 15.394531 31.800781 15.394531 C 32.164063 15.394531 32.539063 15.394531 32.914063 15.382813 C 32.945313 15.617188 32.992188 15.863281 33.027344 16.097656 C 32.503906 16.164063 31.96875 16.226563 31.433594 16.257813 C 30.816406 16.292969 30.890625 17.25 31.507813 17.210938 C 32.070313 17.175781 32.632813 17.109375 33.1875 17.035156 C 33.207031 17.136719 33.226563 17.242188 33.242188 17.34375 C 33.261719 17.484375 33.289063 17.617188 33.320313 17.757813 C 33.261719 17.765625 33.207031 17.773438 33.148438 17.785156 C 32.550781 17.898438 32.617188 18.851563 33.226563 18.742188 C 33.328125 18.722656 33.421875 18.703125 33.523438 18.695313 C 33.664063 19.285156 33.796875 19.867188 33.851563 20.464844 C 33.863281 20.523438 33.863281 20.570313 33.871094 20.625 C 33.890625 20.839844 33.890625 21.054688 33.882813 21.273438 C 32.886719 21.234375 31.882813 21.207031 30.882813 21.1875 C 29.851563 21.167969 28.808594 21.148438 27.777344 21.1875 C 27.789063 20.726563 27.957031 20.296875 28.152344 19.875 C 28.265625 19.914063 28.386719 19.960938 28.492188 20.015625 C 29.035156 20.304688 29.503906 19.472656 28.960938 19.179688 C 28.820313 19.105469 28.679688 19.050781 28.527344 18.992188 C 28.574219 18.863281 28.621094 18.730469 28.648438 18.589844 C 28.679688 18.535156 28.6875 18.476563 28.695313 18.402344 L 28.707031 18.195313 C 28.714844 17.945313 28.566406 17.792969 28.367188 17.757813 C 28.3125 17.710938 28.246094 17.671875 28.152344 17.652344 C 27.160156 17.429688 26.382813 17.015625 25.835938 16.125 C 25.164063 15.007813 24.476563 13.679688 24.609375 12.347656 C 24.628906 12.160156 24.554688 12.027344 24.429688 11.960938 C 24.421875 11.738281 24.402344 11.523438 24.382813 11.296875 C 24.289063 10.273438 23.832031 9.46875 22.808594 9.160156 C 22.238281 8.992188 21.648438 9 21.054688 9.054688 C 21.074219 9 21.09375 8.945313 21.121094 8.886719 L 20.558594 8.886719 C 20.773438 7.914063 21.074219 6.957031 21.308594 5.992188 C 21.414063 6.007813 21.507813 6.027344 21.609375 6.046875 C 21.730469 6.074219 21.851563 6.101563 21.964844 6.148438 C 22.03125 6.179688 22.164063 6.289063 22.097656 6.195313 C 22.460938 6.695313 23.25 6.160156 22.894531 5.664063 C 22.601563 5.269531 22.050781 5.117188 21.535156 5.054688 C 21.617188 4.648438 21.703125 4.246094 21.777344 3.84375 C 22.847656 3.917969 23.90625 4.039063 24.957031 4.238281 C 25.03125 4.273438 25.117188 4.304688 25.210938 4.304688 L 25.398438 4.304688 C 25.949219 4.304688 25.96875 3.460938 25.453125 3.355469 C 24.289063 3.132813 23.117188 2.992188 21.945313 2.898438 C 22.003906 2.570313 22.058594 2.242188 22.105469 1.902344 C 22.199219 1.292969 21.261719 1.117188 21.167969 1.726563 C 21.113281 2.101563 21.046875 2.464844 20.980469 2.839844 C 20.042969 2.792969 19.097656 2.773438 18.160156 2.773438 C 17.539063 2.773438 17.617188 3.730469 18.234375 3.730469 C 19.097656 3.730469 19.949219 3.75 20.804688 3.789063 C 20.726563 4.171875 20.652344 4.554688 20.570313 4.949219 C 19.96875 4.894531 19.304688 4.882813 18.789063 5.15625 C 18.242188 5.4375 18.777344 6.234375 19.320313 5.953125 C 19.238281 6 19.398438 5.945313 19.40625 5.945313 C 19.539063 5.925781 19.679688 5.914063 19.808594 5.90625 C 19.988281 5.898438 20.175781 5.898438 20.351563 5.90625 C 20.082031 7.03125 19.714844 8.136719 19.507813 9.28125 C 19.339844 9.300781 19.171875 9.320313 19.003906 9.320313 C 15.796875 9.460938 12.601563 9.9375 9.382813 10.144531 C 9.179688 10.152344 8.972656 10.292969 8.933594 10.507813 C 8.492188 12.648438 9.039063 14.867188 8.992188 17.023438 C 8.933594 19.460938 8.71875 21.882813 8.851563 24.320313 C 8.980469 26.773438 9.355469 29.222656 9.535156 31.667969 C 9.710938 34.085938 9.636719 36.515625 9.515625 38.933594 C 9.054688 38.933594 8.597656 38.914063 8.136719 38.878906 C 7.894531 38.859375 7.753906 39 7.707031 39.179688 C 7.546875 39.214844 7.414063 39.320313 7.386719 39.507813 C 7.292969 40.097656 7.367188 40.660156 7.492188 41.242188 C 7.59375 41.757813 7.679688 42.328125 7.941406 42.796875 C 8.371094 43.554688 9.441406 43.414063 10.164063 43.351563 C 13.179688 43.078125 16.210938 43.199219 19.226563 43.246094 C 22.339844 43.304688 25.453125 43.179688 28.566406 43.125 C 30.113281 43.097656 31.660156 43.144531 33.207031 43.078125 C 34.753906 43.011719 36.300781 42.871094 37.847656 42.824219 C 38.558594 42.804688 39.261719 42.816406 39.976563 42.863281 C 40.003906 42.871094 40.03125 42.871094 40.058594 42.871094 L 40.445313 42.890625 C 40.734375 42.910156 40.882813 42.703125 40.894531 42.488281 C 40.988281 42.5625 41.070313 42.683594 40.988281 42.515625 C 41.210938 42.984375 41.851563 42.695313 41.878906 42.261719 C 41.933594 40.773438 41.839844 39.300781 41.8125 37.835938 Z M 32.390625 22.144531 C 33.609375 22.179688 34.828125 22.246094 36.046875 22.265625 C 36.851563 22.273438 37.425781 22.566406 37.800781 23.296875 C 38.0625 23.804688 38.128906 24.421875 38.25 24.976563 C 38.410156 25.714844 38.558594 26.457031 38.691406 27.195313 C 38.859375 28.191406 38.898438 29.203125 38.980469 30.207031 C 39.066406 31.210938 39.160156 32.210938 39.167969 33.226563 C 39.179688 33.9375 39.167969 34.585938 39.28125 35.289063 C 39.347656 35.710938 39.609375 36.589844 39.335938 36.957031 C 39.148438 37.199219 39.273438 37.433594 39.46875 37.554688 C 38.839844 37.667969 38.222656 37.808594 37.601563 37.894531 C 36.226563 38.082031 34.835938 38.128906 33.441406 38.203125 C 33.367188 38.203125 33.28125 38.210938 33.207031 38.210938 C 33.308594 38.136719 33.382813 38.015625 33.394531 37.847656 C 33.429688 37.097656 33.523438 36.394531 33.214844 35.679688 C 32.867188 34.882813 32.089844 34.648438 31.273438 34.789063 C 29.523438 35.101563 29.839844 37.058594 30.28125 38.324219 C 28.632813 38.371094 26.972656 38.398438 25.320313 38.417969 C 25.359375 36.992188 25.226563 35.570313 25.085938 34.144531 C 24.9375 32.597656 24.871094 31.050781 24.789063 29.492188 C 24.664063 27.195313 24.535156 24.910156 24.46875 22.613281 C 24.703125 22.742188 25.023438 22.714844 25.117188 22.425781 C 25.132813 22.414063 25.144531 22.398438 25.125 22.40625 C 25.3125 22.332031 25.507813 22.292969 25.707031 22.265625 C 26.277344 22.164063 26.914063 22.144531 27.507813 22.125 C 29.128906 22.058594 30.757813 22.097656 32.390625 22.144531 Z M 32.605469 38.242188 C 32.164063 38.257813 31.714844 38.277344 31.273438 38.296875 C 31.265625 38.269531 31.265625 38.242188 31.246094 38.203125 C 31.03125 37.601563 30.414063 36.054688 31.339844 35.757813 C 32.617188 35.351563 32.511719 36.789063 32.457031 37.648438 C 32.457031 37.660156 32.457031 37.679688 32.457031 37.6875 L 32.445313 37.867188 C 32.429688 38.042969 32.492188 38.164063 32.605469 38.242188 Z M 24.421875 15.496094 C 24.421875 15.488281 24.421875 15.488281 24.421875 15.476563 C 24.609375 15.863281 24.824219 16.226563 25.023438 16.585938 C 25.433594 17.304688 26.023438 17.804688 26.71875 18.132813 C 26.492188 18.132813 26.269531 18.121094 26.054688 18.074219 C 25.566406 17.980469 25.097656 17.765625 24.648438 17.558594 C 24.5625 17.523438 24.488281 17.511719 24.414063 17.511719 C 24.414063 16.855469 24.414063 16.179688 24.421875 15.496094 Z M 25.820313 19.011719 C 25.941406 19.039063 26.0625 19.058594 26.183594 19.070313 C 26.15625 19.320313 26.316406 19.621094 26.652344 19.640625 C 26.839844 19.648438 27.027344 19.660156 27.214844 19.667969 C 26.992188 20.15625 26.832031 20.644531 26.820313 21.1875 C 26.710938 21.195313 26.597656 21.195313 26.484375 21.207031 C 26.035156 21.242188 24.9375 21.253906 24.441406 21.664063 C 24.429688 21.167969 24.421875 20.679688 24.414063 20.183594 C 24.402344 19.621094 24.402344 19.058594 24.402344 18.496094 C 24.863281 18.710938 25.332031 18.910156 25.820313 19.011719 Z M 9.804688 11.035156 C 12.757813 10.828125 15.703125 10.480469 18.664063 10.265625 C 19.03125 10.238281 19.386719 10.210938 19.753906 10.171875 C 19.902344 10.21875 20.070313 10.199219 20.195313 10.125 C 20.335938 10.105469 20.464844 10.085938 20.605469 10.078125 C 21.273438 9.984375 21.929688 9.917969 22.59375 10.078125 C 23.671875 10.320313 23.492188 11.898438 23.492188 12.722656 C 23.492188 15.851563 23.429688 18.984375 23.503906 22.117188 C 23.578125 25.21875 23.820313 28.304688 23.925781 31.398438 C 24 33.75 24.429688 36.074219 24.375 38.429688 C 23.175781 38.417969 21.964844 38.382813 20.765625 38.457031 C 20.210938 38.492188 19.660156 38.539063 19.105469 38.597656 C 19.152344 37.648438 19.179688 36.703125 19.070313 35.765625 C 19.039063 35.492188 18.863281 35.316406 18.582031 35.296875 C 17.691406 35.257813 16.789063 35.296875 15.898438 35.34375 C 15.628906 35.363281 15.449219 35.570313 15.429688 35.832031 C 15.382813 36.789063 15.421875 37.742188 15.375 38.699219 C 15.375 38.726563 15.375 38.757813 15.375 38.785156 C 14.382813 38.773438 13.386719 38.746094 12.382813 38.804688 C 11.746094 38.839844 11.109375 38.878906 10.480469 38.898438 C 10.601563 36.589844 10.660156 34.285156 10.527344 31.988281 C 10.386719 29.53125 10.011719 27.09375 9.84375 24.636719 C 9.683594 22.199219 9.863281 19.78125 9.945313 17.335938 C 9.984375 16.191406 9.929688 15.074219 9.835938 13.941406 C 9.742188 12.976563 9.65625 11.992188 9.804688 11.035156 Z M 18.132813 38.671875 C 17.625 38.710938 17.109375 38.746094 16.601563 38.765625 C 16.5 38.765625 16.398438 38.765625 16.292969 38.773438 C 16.304688 38.746094 16.304688 38.710938 16.3125 38.671875 C 16.351563 37.875 16.332031 37.070313 16.351563 36.273438 C 16.941406 36.242188 17.539063 36.226563 18.132813 36.234375 C 18.195313 37.039063 18.179688 37.855469 18.132813 38.671875 Z M 40.929688 41.578125 C 40.789063 41.652344 40.6875 41.820313 40.679688 42.007813 C 40.613281 41.953125 40.519531 41.925781 40.414063 41.914063 C 37.332031 41.664063 34.238281 42.140625 31.152344 42.132813 C 28.039063 42.121094 24.929688 42.253906 21.816406 42.28125 C 18.769531 42.308594 15.710938 42.148438 12.664063 42.234375 C 11.945313 42.253906 11.222656 42.289063 10.5 42.347656 C 10.011719 42.382813 9.476563 42.476563 8.992188 42.414063 C 8.664063 42.367188 8.632813 41.953125 8.578125 41.679688 C 8.476563 41.148438 8.289063 40.601563 8.296875 40.050781 C 8.363281 39.992188 8.398438 39.917969 8.417969 39.824219 C 9.683594 39.910156 10.949219 39.84375 12.214844 39.769531 C 13.632813 39.683594 15.039063 39.75 16.453125 39.730469 C 17.785156 39.710938 19.105469 39.542969 20.417969 39.441406 C 21.84375 39.328125 23.289063 39.382813 24.710938 39.382813 C 27.570313 39.375 30.421875 39.308594 33.273438 39.167969 C 34.667969 39.101563 36.054688 39.046875 37.433594 38.878906 C 38.570313 38.738281 39.710938 38.390625 40.867188 38.335938 C 40.894531 39.414063 40.949219 40.5 40.929688 41.578125 Z "/>
<path style=" stroke:none;fill-rule:nonzero;fill:#000000;fill-opacity:1;" d="M 13.339844 15.542969 C 13.179688 14.410156 13.023438 13.265625 12.382813 12.289063 C 12.234375 12.066406 11.960938 12 11.726563 12.121094 C 11.4375 12.28125 11.128906 12.394531 10.847656 12.554688 C 10.695313 12.628906 10.632813 12.75 10.613281 12.871094 C 10.5 12.945313 10.414063 13.078125 10.40625 13.246094 C 10.378906 13.695313 10.367188 14.148438 10.386719 14.605469 C 10.40625 15.019531 10.460938 15.609375 10.949219 15.722656 C 11.007813 15.730469 11.054688 15.742188 11.101563 15.730469 C 11.164063 15.898438 11.304688 16.039063 11.539063 16.050781 C 11.992188 16.058594 12.429688 16.011719 12.882813 16.023438 C 13.117188 16.039063 13.378906 15.796875 13.339844 15.542969 Z M 11.511719 15.101563 C 11.511719 15.101563 11.503906 15.101563 11.511719 15.101563 C 11.484375 15.027344 11.4375 14.953125 11.371094 14.898438 C 11.363281 14.851563 11.351563 14.804688 11.351563 14.757813 C 11.335938 14.585938 11.335938 14.410156 11.335938 14.242188 C 11.335938 13.949219 11.34375 13.660156 11.363281 13.367188 C 11.503906 13.292969 11.644531 13.226563 11.792969 13.164063 C 12.09375 13.761719 12.226563 14.417969 12.328125 15.085938 C 12.046875 15.09375 11.773438 15.113281 11.511719 15.101563 Z "/>
<path style=" stroke:none;fill-rule:nonzero;fill:#000000;fill-opacity:1;" d="M 17.585938 14.304688 C 17.523438 13.96875 17.382813 13.648438 17.34375 13.3125 C 17.304688 12.964844 17.242188 12.609375 16.988281 12.335938 C 16.460938 11.765625 15.421875 11.617188 14.785156 12.101563 C 14.710938 12.160156 14.652344 12.226563 14.625 12.300781 C 14.503906 12.320313 14.390625 12.394531 14.316406 12.542969 C 14.0625 13.078125 14.175781 13.773438 14.242188 14.335938 C 14.296875 14.832031 14.335938 15.695313 14.820313 15.984375 C 14.90625 16.03125 14.980469 16.058594 15.054688 16.058594 C 15.085938 16.117188 15.121094 16.171875 15.179688 16.226563 C 15.703125 16.679688 16.5 16.507813 17.054688 16.21875 C 17.792969 15.84375 17.710938 14.972656 17.585938 14.304688 Z M 16.660156 15.355469 C 16.554688 15.507813 15.929688 15.609375 15.863281 15.554688 C 15.75 15.460938 15.628906 15.421875 15.515625 15.429688 C 15.496094 15.375 15.46875 15.308594 15.421875 15.261719 C 15.414063 15.261719 15.402344 15.253906 15.394531 15.242188 C 15.394531 15.242188 15.394531 15.242188 15.394531 15.234375 C 15.367188 15.207031 15.335938 15.1875 15.308594 15.167969 C 15.347656 15.195313 15.375 15.214844 15.394531 15.226563 C 15.367188 15.140625 15.335938 15.046875 15.320313 14.960938 C 15.261719 14.71875 15.226563 14.476563 15.195313 14.222656 C 15.167969 13.960938 15.148438 13.6875 15.148438 13.425781 C 15.148438 13.3125 15.148438 13.210938 15.160156 13.097656 C 15.160156 13.078125 15.1875 13.011719 15.1875 12.992188 C 15.226563 12.976563 15.261719 12.957031 15.300781 12.929688 C 15.5625 12.730469 16.199219 12.683594 16.351563 13.058594 C 16.414063 13.21875 16.414063 13.414063 16.433594 13.585938 C 16.453125 13.789063 16.546875 14.007813 16.601563 14.203125 C 16.667969 14.511719 16.847656 15.066406 16.660156 15.355469 Z "/>
<path style=" stroke:none;fill-rule:nonzero;fill:#000000;fill-opacity:1;" d="M 15.382813 15.214844 C 15.382813 15.214844 15.382813 15.226563 15.382813 15.226563 C 15.394531 15.234375 15.402344 15.242188 15.414063 15.253906 C 15.421875 15.261719 15.421875 15.242188 15.382813 15.214844 Z "/>
<path style=" stroke:none;fill-rule:nonzero;fill:#000000;fill-opacity:1;" d="M 21.355469 14.035156 C 21.355469 13.714844 21.355469 13.398438 21.335938 13.070313 C 21.308594 12.628906 21.214844 12.179688 20.878906 11.859375 C 20.445313 11.464844 19.789063 11.503906 19.257813 11.585938 C 18.992188 11.625 18.851563 11.832031 18.824219 12.039063 C 18.804688 12.046875 18.789063 12.054688 18.769531 12.066406 C 18.496094 12.234375 18.496094 12.570313 18.515625 12.84375 C 18.582031 13.6875 18.636719 14.570313 18.609375 15.414063 C 18.601563 15.769531 18.910156 15.910156 19.179688 15.84375 C 19.152344 16.257813 19.660156 16.632813 19.976563 16.238281 C 20.183594 15.984375 20.503906 16.03125 20.785156 15.898438 C 21.113281 15.75 21.273438 15.449219 21.375 15.121094 C 21.496094 14.785156 21.355469 14.398438 21.355469 14.035156 Z M 20.445313 14.90625 C 20.410156 15.132813 20.175781 15.101563 19.996094 15.140625 C 19.835938 15.167969 19.695313 15.234375 19.574219 15.328125 C 19.585938 14.773438 19.527344 14.222656 19.5 13.679688 C 19.492188 13.460938 19.507813 13.246094 19.5 13.03125 C 19.5 13.003906 19.5 12.929688 19.5 12.863281 C 19.59375 12.769531 19.648438 12.636719 19.640625 12.496094 C 19.875 12.46875 20.128906 12.46875 20.269531 12.601563 C 20.4375 12.757813 20.398438 13.191406 20.410156 13.386719 C 20.417969 13.613281 20.410156 13.835938 20.410156 14.0625 C 20.398438 14.34375 20.503906 14.625 20.445313 14.90625 Z "/>
<path style=" stroke:none;fill-rule:nonzero;fill:#000000;fill-opacity:1;" d="M 13.988281 19.574219 C 13.894531 18.992188 13.667969 18.394531 13.179688 18.046875 C 12.628906 17.652344 11.992188 17.785156 11.410156 18.046875 C 11.390625 18.054688 11.371094 18.066406 11.351563 18.074219 C 11.128906 18.09375 10.902344 18.253906 10.894531 18.542969 C 10.835938 19.5 10.707031 20.511719 11.203125 21.375 C 11.316406 21.570313 11.503906 21.628906 11.671875 21.601563 C 11.746094 21.742188 11.878906 21.84375 12.09375 21.824219 C 12.675781 21.789063 13.292969 21.703125 13.714844 21.261719 C 14.136719 20.820313 14.082031 20.128906 13.988281 19.574219 Z M 12.964844 20.664063 C 12.769531 20.867188 12.320313 20.859375 12.066406 20.878906 C 12.046875 20.878906 12.027344 20.878906 12.019531 20.886719 C 11.691406 20.316406 11.765625 19.574219 11.820313 18.910156 C 11.851563 18.898438 11.878906 18.890625 11.90625 18.882813 C 12.683594 18.515625 12.984375 19.164063 13.078125 19.855469 C 13.105469 20.101563 13.164063 20.457031 12.964844 20.664063 Z "/>
<path style=" stroke:none;fill-rule:nonzero;fill:#000000;fill-opacity:1;" d="M 17.445313 19.304688 C 17.335938 18.769531 17.195313 18.148438 16.773438 17.765625 C 16.332031 17.363281 15.695313 17.445313 15.179688 17.617188 C 15.121094 17.632813 15.066406 17.664063 15.027344 17.691406 C 14.792969 17.699219 14.558594 17.859375 14.550781 18.160156 C 14.511719 19.125 14.71875 20.070313 14.679688 21.039063 C 14.664063 21.476563 15.148438 21.589844 15.441406 21.394531 C 15.488281 21.695313 15.816406 21.964844 16.152344 21.769531 C 16.601563 21.496094 17.054688 21.234375 17.363281 20.804688 C 17.652344 20.371094 17.550781 19.78125 17.445313 19.304688 Z M 15.65625 20.953125 C 15.648438 20.960938 15.636719 20.960938 15.628906 20.972656 C 15.648438 20.15625 15.507813 19.339844 15.488281 18.523438 C 15.703125 18.449219 16.03125 18.335938 16.191406 18.554688 C 16.414063 18.863281 16.472656 19.339844 16.554688 19.695313 C 16.714844 20.417969 16.21875 20.625 15.65625 20.953125 Z "/>
<path style=" stroke:none;fill-rule:nonzero;fill:#000000;fill-opacity:1;" d="M 21.683594 18.992188 C 21.664063 18.515625 21.636719 17.851563 21.289063 17.484375 C 20.925781 17.101563 20.324219 17.109375 19.828125 17.082031 C 19.5 17.0625 19.359375 17.324219 19.378906 17.578125 C 19.238281 17.617188 19.105469 17.71875 19.058594 17.90625 C 18.816406 18.796875 18.917969 19.789063 19.21875 20.652344 C 19.3125 20.925781 19.554688 21.007813 19.78125 20.972656 C 19.855469 21.074219 19.988281 21.140625 20.164063 21.121094 C 20.652344 21.066406 21.234375 20.980469 21.515625 20.523438 C 21.789063 20.070313 21.703125 19.492188 21.683594 18.992188 Z M 20.726563 19.929688 C 20.691406 20.128906 20.316406 20.136719 20.136719 20.15625 C 20.109375 20.15625 20.089844 20.164063 20.070313 20.164063 C 19.875 19.507813 19.808594 18.796875 19.988281 18.132813 C 19.996094 18.09375 20.007813 18.066406 20.007813 18.039063 C 20.210938 18.046875 20.492188 18.054688 20.585938 18.132813 C 20.710938 18.226563 20.710938 18.710938 20.726563 18.890625 C 20.765625 19.210938 20.792969 19.613281 20.726563 19.929688 Z "/>
<path style=" stroke:none;fill-rule:nonzero;fill:#000000;fill-opacity:1;" d="M 13.894531 25.132813 C 13.835938 24.46875 13.988281 23.773438 13.265625 23.429688 C 12.730469 23.175781 11.992188 23.277344 11.511719 23.652344 C 11.257813 23.371094 10.707031 23.570313 10.6875 24 L 10.660156 24.476563 C 10.648438 24.664063 10.734375 24.789063 10.847656 24.863281 C 10.949219 25.527344 11.007813 26.195313 11.230469 26.832031 C 11.351563 27.179688 11.738281 27.226563 11.972656 27.074219 C 11.972656 27.085938 11.960938 27.09375 11.960938 27.09375 C 11.859375 27.414063 12.148438 27.664063 12.441406 27.683594 C 13.070313 27.742188 13.660156 27.507813 13.875 26.878906 C 14.0625 26.316406 13.941406 25.707031 13.894531 25.132813 Z M 13.011719 26.410156 C 13.003906 26.511719 12.976563 26.585938 12.929688 26.632813 C 12.75 26.4375 12.367188 26.410156 12.167969 26.644531 C 12.160156 26.617188 12.160156 26.585938 12.148438 26.558594 C 11.933594 25.949219 11.878906 25.3125 11.785156 24.683594 C 11.851563 24.65625 11.914063 24.609375 11.980469 24.535156 C 12.101563 24.382813 12.226563 24.320313 12.402344 24.273438 C 12.476563 24.253906 12.863281 24.195313 12.898438 24.300781 C 13.03125 24.617188 12.929688 25.078125 12.964844 25.425781 C 12.992188 25.742188 13.050781 26.082031 13.011719 26.410156 Z "/>
<path style=" stroke:none;fill-rule:nonzero;fill:#000000;fill-opacity:1;" d="M 17.304688 23.148438 C 16.820313 22.480469 16.011719 22.492188 15.289063 22.695313 C 15.046875 22.761719 14.953125 22.949219 14.953125 23.148438 C 14.726563 23.101563 14.492188 23.195313 14.457031 23.492188 C 14.316406 24.570313 14.691406 25.59375 14.878906 26.632813 C 14.945313 26.992188 15.289063 27.046875 15.535156 26.90625 C 15.5625 26.953125 15.609375 27.007813 15.664063 27.046875 C 16.226563 27.449219 16.894531 27.414063 17.316406 26.839844 C 17.679688 26.34375 17.785156 25.679688 17.820313 25.078125 C 17.867188 24.441406 17.691406 23.664063 17.304688 23.148438 Z M 16.875 25.023438 C 16.867188 25.359375 16.808594 25.714844 16.679688 26.023438 C 16.527344 26.390625 16.453125 26.4375 16.132813 26.210938 C 15.992188 26.109375 15.863281 26.101563 15.75 26.15625 C 15.582031 25.367188 15.273438 24.535156 15.375 23.726563 C 15.375 23.699219 15.382813 23.664063 15.375 23.632813 C 15.429688 23.632813 15.488281 23.632813 15.542969 23.617188 C 15.917969 23.511719 16.332031 23.410156 16.574219 23.785156 C 16.800781 24.132813 16.882813 24.617188 16.875 25.023438 Z "/>
<path style=" stroke:none;fill-rule:nonzero;fill:#000000;fill-opacity:1;" d="M 22.003906 23.867188 C 21.964844 23.382813 21.898438 22.914063 21.570313 22.539063 C 21.167969 22.078125 20.429688 22.191406 19.902344 22.285156 C 19.5 22.359375 19.480469 22.78125 19.695313 23.035156 C 19.472656 23.054688 19.246094 23.210938 19.226563 23.503906 C 19.191406 24.414063 19.292969 25.339844 19.492188 26.222656 C 19.566406 26.578125 19.921875 26.632813 20.175781 26.484375 C 20.289063 26.710938 20.558594 26.867188 20.851563 26.726563 C 21.140625 26.585938 21.46875 26.570313 21.75 26.382813 C 22.003906 26.210938 22.117188 25.941406 22.132813 25.648438 C 22.191406 25.070313 22.050781 24.441406 22.003906 23.867188 Z M 21.066406 25.660156 C 20.839844 25.734375 20.617188 25.78125 20.398438 25.882813 C 20.230469 25.097656 20.15625 24.28125 20.183594 23.476563 C 20.183594 23.363281 20.164063 23.277344 20.109375 23.203125 C 20.128906 23.203125 20.148438 23.203125 20.164063 23.195313 C 20.382813 23.15625 20.804688 23.042969 20.945313 23.289063 C 21.085938 23.53125 21.046875 23.953125 21.074219 24.226563 C 21.101563 24.601563 21.160156 24.976563 21.195313 25.359375 C 21.207031 25.554688 21.242188 25.59375 21.066406 25.660156 Z "/>
<path style=" stroke:none;fill-rule:nonzero;fill:#000000;fill-opacity:1;" d="M 12.535156 32.210938 C 12.542969 32.230469 12.542969 32.230469 12.535156 32.210938 Z "/>
<path style=" stroke:none;fill-rule:nonzero;fill:#000000;fill-opacity:1;" d="M 14.136719 30.113281 C 14.007813 29.632813 13.78125 29.136719 13.339844 28.882813 C 12.796875 28.566406 12.195313 28.902344 11.765625 29.25 C 11.632813 29.351563 11.597656 29.484375 11.605469 29.597656 C 11.503906 29.671875 11.429688 29.804688 11.417969 29.960938 C 11.398438 30.507813 11.4375 31.058594 11.476563 31.59375 C 11.511719 32.0625 11.511719 32.71875 12.027344 32.914063 C 12.195313 32.980469 12.328125 32.945313 12.429688 32.859375 C 12.382813 32.953125 12.375 33.066406 12.421875 33.195313 C 12.664063 33.898438 13.332031 33.777344 13.929688 33.789063 C 14.203125 33.789063 14.382813 33.554688 14.398438 33.300781 C 14.457031 32.25 14.417969 31.144531 14.136719 30.113281 Z M 13.460938 32.851563 C 13.414063 32.851563 13.378906 32.851563 13.332031 32.851563 C 13.320313 32.851563 13.3125 32.839844 13.304688 32.839844 C 13.132813 32.550781 12.75 32.550781 12.535156 32.726563 C 12.65625 32.503906 12.609375 32.148438 12.320313 32.007813 C 12.460938 32.070313 12.523438 32.164063 12.542969 32.203125 C 12.535156 32.183594 12.523438 32.164063 12.515625 32.117188 C 12.496094 32.035156 12.488281 31.941406 12.46875 31.855469 C 12.441406 31.621094 12.421875 31.378906 12.402344 31.144531 C 12.375 30.75 12.355469 30.355469 12.375 29.953125 C 12.402344 29.933594 12.421875 29.925781 12.449219 29.898438 C 12.554688 29.8125 12.722656 29.699219 12.824219 29.691406 C 12.890625 29.679688 12.910156 29.691406 12.976563 29.773438 C 13.210938 30.09375 13.285156 30.535156 13.351563 30.917969 C 13.453125 31.566406 13.472656 32.210938 13.460938 32.851563 Z "/>
<path style=" stroke:none;fill-rule:nonzero;fill:#000000;fill-opacity:1;" d="M 17.972656 30.394531 C 17.832031 29.792969 17.570313 29.148438 17.035156 28.800781 C 16.386719 28.386719 15.777344 29.015625 15.449219 29.511719 C 15.226563 29.585938 15.039063 29.804688 15.085938 30.09375 C 15.226563 30.917969 15.441406 31.734375 15.496094 32.578125 C 15.523438 33.039063 16.070313 33.140625 16.320313 32.90625 C 16.386719 33.054688 16.539063 33.167969 16.742188 33.179688 C 17.371094 33.195313 17.925781 32.960938 18.074219 32.304688 C 18.214844 31.726563 18.101563 30.964844 17.972656 30.394531 Z M 17.15625 31.949219 C 17.15625 32.257813 16.996094 32.230469 16.714844 32.230469 C 16.59375 32.230469 16.5 32.257813 16.425781 32.324219 C 16.351563 31.613281 16.199219 30.910156 16.058594 30.207031 C 16.132813 30.167969 16.191406 30.113281 16.246094 30.027344 C 16.480469 29.664063 16.527344 29.523438 16.742188 29.859375 C 16.929688 30.160156 17.023438 30.535156 17.101563 30.882813 C 17.164063 31.210938 17.164063 31.601563 17.15625 31.949219 Z "/>
<path style=" stroke:none;fill-rule:nonzero;fill:#000000;fill-opacity:1;" d="M 22.085938 30.414063 C 21.976563 29.785156 21.863281 29.148438 21.441406 28.640625 C 20.980469 28.078125 20.203125 28.265625 19.648438 28.539063 C 19.5 28.613281 19.433594 28.726563 19.414063 28.835938 C 19.058594 29.269531 19.117188 29.914063 19.171875 30.429688 C 19.238281 31.011719 19.351563 31.632813 19.613281 32.164063 C 19.726563 32.382813 19.914063 32.4375 20.089844 32.390625 C 20.664063 32.710938 21.394531 32.632813 21.917969 32.210938 C 22.480469 31.761719 22.191406 31.003906 22.085938 30.414063 Z M 21.253906 31.519531 C 21.007813 31.679688 20.679688 31.695313 20.457031 31.492188 C 20.410156 31.453125 20.363281 31.414063 20.324219 31.398438 C 20.230469 31.117188 20.183594 30.804688 20.148438 30.523438 C 20.117188 30.300781 19.988281 29.625 20.136719 29.464844 C 20.183594 29.417969 20.210938 29.363281 20.230469 29.316406 C 20.429688 29.222656 20.652344 29.15625 20.792969 29.363281 C 20.972656 29.617188 21.027344 29.960938 21.09375 30.261719 C 21.167969 30.617188 21.226563 30.984375 21.300781 31.339844 C 21.328125 31.492188 21.335938 31.460938 21.253906 31.519531 Z "/>
<path style=" stroke:none;fill-rule:nonzero;fill:#000000;fill-opacity:1;" d="M 28.105469 25.210938 C 27.9375 24.695313 27.976563 24.085938 27.648438 23.625 C 27.273438 23.101563 26.625 23.15625 26.0625 23.277344 C 25.753906 23.34375 25.667969 23.625 25.753906 23.859375 C 25.566406 23.914063 25.40625 24.066406 25.398438 24.308594 C 25.367188 25.023438 25.507813 25.714844 25.574219 26.429688 C 25.601563 26.820313 26.023438 26.953125 26.296875 26.832031 C 26.351563 26.925781 26.445313 26.992188 26.597656 27.007813 C 27.085938 27.066406 27.722656 27.148438 28.085938 26.726563 C 28.472656 26.296875 28.265625 25.679688 28.105469 25.210938 Z M 26.839844 26.070313 C 26.71875 26.054688 26.605469 26.082031 26.511719 26.136719 C 26.445313 25.519531 26.34375 24.898438 26.363281 24.273438 C 26.363281 24.242188 26.363281 24.207031 26.351563 24.179688 C 26.523438 24.140625 26.804688 24.046875 26.898438 24.226563 C 27.039063 24.46875 27.039063 24.84375 27.09375 25.117188 C 27.160156 25.445313 27.308594 25.753906 27.335938 26.089844 C 27.195313 26.128906 26.992188 26.089844 26.839844 26.070313 Z "/>
<path style=" stroke:none;fill-rule:nonzero;fill:#000000;fill-opacity:1;" d="M 29.296875 23.503906 C 29.109375 23.605469 29.042969 23.765625 29.0625 23.925781 C 28.875 24.160156 28.867188 24.636719 28.894531 24.910156 C 28.96875 25.554688 29.101563 26.195313 29.222656 26.820313 C 29.289063 27.179688 29.632813 27.226563 29.878906 27.09375 C 29.980469 27.179688 30.121094 27.214844 30.289063 27.167969 C 30.675781 27.066406 31.070313 26.953125 31.453125 26.851563 C 31.660156 26.792969 31.808594 26.585938 31.800781 26.382813 C 31.742188 25.039063 31.179688 22.507813 29.296875 23.503906 Z M 30.085938 26.25 C 30.027344 25.976563 29.980469 25.707031 29.933594 25.433594 C 29.898438 25.226563 29.867188 25.023438 29.851563 24.804688 C 29.839844 24.710938 29.832031 24.628906 29.832031 24.535156 C 29.878906 24.460938 29.90625 24.367188 29.914063 24.28125 C 30.582031 24.074219 30.777344 25.320313 30.835938 26.042969 C 30.582031 26.109375 30.328125 26.183594 30.085938 26.25 Z "/>
<path style=" stroke:none;fill-rule:nonzero;fill:#000000;fill-opacity:1;" d="M 33.992188 23.371094 C 33.898438 23.429688 33.84375 23.511719 33.804688 23.585938 C 33.582031 23.617188 33.375 23.773438 33.367188 24.054688 C 33.335938 24.835938 33.488281 25.574219 33.75 26.304688 C 33.835938 26.558594 34.058594 26.644531 34.265625 26.625 C 34.339844 26.710938 34.453125 26.757813 34.59375 26.765625 C 37.820313 26.878906 35.710938 22.265625 33.992188 23.371094 Z M 34.59375 25.808594 C 34.433594 25.304688 34.332031 24.796875 34.320313 24.261719 C 34.378906 24.253906 34.433594 24.226563 34.492188 24.195313 C 34.554688 24.160156 34.574219 24.167969 34.574219 24.167969 C 34.632813 24.179688 34.695313 24.214844 34.773438 24.273438 C 34.976563 24.441406 35.148438 24.675781 35.25 24.929688 C 35.503906 25.554688 35.25 25.828125 34.59375 25.808594 Z "/>
<path style=" stroke:none;fill-rule:nonzero;fill:#000000;fill-opacity:1;" d="M 28.621094 29.632813 C 28.507813 29.136719 28.265625 28.695313 27.84375 28.40625 C 27.382813 28.097656 26.792969 28.285156 26.351563 28.507813 C 26.203125 28.585938 26.128906 28.707031 26.117188 28.828125 C 26.007813 28.902344 25.921875 29.035156 25.914063 29.203125 C 25.875 29.960938 25.949219 30.722656 26.203125 31.445313 C 26.351563 31.867188 26.878906 31.835938 27.074219 31.566406 C 27.179688 31.707031 27.347656 31.78125 27.5625 31.714844 C 27.9375 31.59375 28.332031 31.519531 28.566406 31.179688 C 28.882813 30.742188 28.734375 30.121094 28.621094 29.632813 Z M 27.777344 30.65625 C 27.769531 30.683594 27.402344 30.769531 27.289063 30.804688 C 27.179688 30.84375 27.101563 30.898438 27.046875 30.976563 C 26.886719 30.429688 26.839844 29.886719 26.859375 29.324219 C 27.394531 29.0625 27.5625 29.398438 27.695313 29.90625 C 27.75 30.09375 27.871094 30.46875 27.777344 30.65625 Z "/>
<path style=" stroke:none;fill-rule:nonzero;fill:#000000;fill-opacity:1;" d="M 32.195313 30.046875 C 32.089844 29.53125 32.023438 29.042969 31.660156 28.640625 C 31.265625 28.210938 30.609375 28.292969 30.121094 28.472656 C 29.898438 28.492188 29.671875 28.648438 29.664063 28.941406 C 29.632813 29.832031 29.933594 30.664063 30 31.546875 C 30.039063 32.082031 30.777344 32.136719 30.929688 31.726563 C 31.320313 31.695313 31.726563 31.632813 32.015625 31.351563 C 32.363281 31.003906 32.277344 30.460938 32.195313 30.046875 Z M 31.304688 30.695313 C 31.257813 30.722656 31.191406 30.742188 31.105469 30.75 C 31.03125 30.664063 30.929688 30.601563 30.816406 30.582031 C 30.730469 30.148438 30.648438 29.726563 30.617188 29.289063 C 30.75 29.25 30.890625 29.230469 30.984375 29.304688 C 31.164063 29.464844 31.191406 29.851563 31.226563 30.066406 C 31.246094 30.207031 31.285156 30.347656 31.304688 30.488281 C 31.320313 30.582031 31.285156 30.695313 31.304688 30.695313 Z "/>
<path style=" stroke:none;fill-rule:nonzero;fill:#000000;fill-opacity:1;" d="M 36.929688 29.34375 C 36.789063 28.789063 36.496094 28.152344 36.027344 27.796875 C 35.4375 27.335938 34.789063 27.582031 34.359375 28.105469 C 34.144531 28.078125 33.9375 28.179688 33.898438 28.453125 C 33.789063 29.382813 34.152344 30.179688 34.226563 31.085938 C 34.265625 31.507813 34.734375 31.632813 34.996094 31.460938 C 35.101563 31.546875 35.242188 31.59375 35.410156 31.566406 C 35.925781 31.460938 36.542969 31.378906 36.863281 30.910156 C 37.179688 30.46875 37.050781 29.832031 36.929688 29.34375 Z M 36.074219 30.394531 C 35.90625 30.589844 35.382813 30.609375 35.148438 30.648438 C 35.136719 30.648438 35.128906 30.648438 35.128906 30.65625 C 35.015625 30.09375 34.820313 29.53125 34.820313 28.96875 C 34.882813 28.941406 34.949219 28.894531 35.007813 28.828125 C 35.25 28.507813 35.371094 28.386719 35.632813 28.742188 C 35.839844 29.023438 35.953125 29.363281 36.039063 29.699219 C 36.074219 29.839844 36.1875 30.273438 36.074219 30.394531 Z "/>
<path style=" stroke:none;fill-rule:nonzero;fill:#000000;fill-opacity:1;" d="M 37.875 34.332031 C 37.867188 33.085938 36.898438 32.316406 35.710938 32.792969 C 35.585938 32.839844 35.503906 32.925781 35.445313 33.019531 C 35.296875 33.085938 35.175781 33.226563 35.15625 33.441406 C 35.109375 34.332031 35.109375 35.195313 35.324219 36.054688 C 35.445313 36.523438 36.027344 36.460938 36.207031 36.132813 C 36.675781 36.066406 37.125 36.007813 37.492188 35.699219 C 37.875 35.390625 37.882813 34.753906 37.875 34.332031 Z M 36.824219 35.035156 C 36.710938 35.15625 36.335938 35.164063 36.1875 35.183594 C 36.179688 35.183594 36.160156 35.195313 36.148438 35.195313 C 36.085938 34.6875 36.09375 34.171875 36.113281 33.65625 C 36.335938 33.570313 36.5625 33.515625 36.75 33.703125 C 36.929688 33.882813 36.929688 34.238281 36.929688 34.472656 C 36.929688 34.621094 36.9375 34.914063 36.824219 35.035156 Z "/>
<path style=" stroke:none;fill-rule:nonzero;fill:#000000;fill-opacity:1;" d="M 28.855469 34.648438 C 28.574219 33.664063 27.609375 32.25 26.578125 33.394531 C 26.457031 33.523438 26.429688 33.675781 26.464844 33.804688 C 26.335938 33.882813 26.242188 34.011719 26.230469 34.199219 C 26.195313 34.894531 26.175781 35.585938 26.4375 36.242188 C 26.511719 36.429688 26.664063 36.523438 26.820313 36.554688 C 26.851563 36.65625 26.914063 36.757813 27.027344 36.835938 C 27.710938 37.304688 28.453125 36.976563 28.847656 36.300781 C 29.117188 35.792969 29.007813 35.183594 28.855469 34.648438 Z M 27.488281 36.007813 C 27.429688 35.972656 27.375 35.953125 27.328125 35.933594 C 27.113281 35.371094 27.148438 34.78125 27.179688 34.179688 C 27.179688 34.164063 27.179688 34.144531 27.179688 34.132813 C 27.207031 34.117188 27.234375 34.085938 27.261719 34.058594 C 27.402344 33.898438 27.382813 33.871094 27.535156 34.03125 C 27.730469 34.238281 27.824219 34.554688 27.917969 34.820313 C 27.992188 35.042969 28.050781 35.289063 28.070313 35.523438 C 28.078125 35.878906 27.816406 36.234375 27.488281 36.007813 Z "/>
</g>
</svg>
