<?xml version="1.0" encoding="UTF-8"?>
<svg xmlns="http://www.w3.org/2000/svg" xmlns:xlink="http://www.w3.org/1999/xlink" width="48pt" height="48pt" viewBox="0 0 48 48" version="1.1">
<g id="surface1">
<path style=" stroke:none;fill-rule:nonzero;fill:#D6E7E7;fill-opacity:1;" d="M 28.507813 27.234375 C 28.386719 26.757813 28.273438 26.25 28.359375 25.761719 C 28.105469 25.742188 27.675781 25.800781 27.488281 25.820313 C 27.027344 25.867188 26.570313 25.921875 26.109375 25.949219 C 25.132813 25.996094 24.148438 26.035156 23.175781 26.054688 C 23.164063 26.136719 23.128906 26.210938 23.082031 26.277344 C 23.082031 26.289063 23.082031 26.289063 23.082031 26.296875 C 23.089844 26.351563 23.089844 26.410156 23.109375 26.464844 C 23.128906 26.578125 23.164063 26.699219 23.195313 26.8125 C 23.257813 27.046875 23.335938 27.289063 23.410156 27.523438 C 23.625 28.257813 23.71875 29.023438 23.886719 29.773438 C 25.378906 29.691406 26.867188 29.570313 28.351563 29.382813 C 28.472656 29.25 28.648438 29.175781 28.828125 29.230469 C 28.761719 28.554688 28.679688 27.910156 28.507813 27.234375 Z "/>
<path style=" stroke:none;fill-rule:nonzero;fill:#D6E7E7;fill-opacity:1;" d="M 15.617188 26.082031 C 14.015625 26.0625 12.402344 26.042969 10.800781 26.042969 C 10.800781 26.183594 10.808594 26.324219 10.820313 26.457031 C 10.855469 26.8125 10.921875 27.160156 10.988281 27.515625 C 11.117188 28.179688 11.222656 28.835938 11.304688 29.511719 C 12.9375 29.476563 14.558594 29.597656 16.191406 29.710938 C 15.957031 28.5 15.648438 27.308594 15.617188 26.082031 Z "/>
<path style=" stroke:none;fill-rule:nonzero;fill:#D6E7E7;fill-opacity:1;" d="M 29.136719 33.421875 C 29.082031 33.007813 29.070313 32.578125 29.0625 32.164063 C 29.054688 31.554688 28.976563 30.957031 28.914063 30.355469 C 27.328125 30.5625 25.726563 30.710938 24.121094 30.804688 C 24.273438 31.472656 24.394531 32.136719 24.476563 32.820313 C 24.507813 33.074219 24.523438 33.320313 24.582031 33.5625 C 24.601563 33.65625 24.628906 33.75 24.648438 33.84375 C 24.675781 33.863281 24.695313 33.890625 24.722656 33.917969 C 25.820313 33.695313 26.992188 33.757813 28.078125 34.058594 C 28.398438 34.144531 28.695313 34.265625 28.988281 34.40625 C 29.042969 34.273438 29.148438 34.171875 29.289063 34.132813 C 29.25 33.890625 29.164063 33.65625 29.136719 33.421875 Z "/>
<path style=" stroke:none;fill-rule:nonzero;fill:#D6E7E7;fill-opacity:1;" d="M 22.773438 29.539063 C 22.660156 29.015625 22.601563 28.453125 22.453125 27.9375 C 22.367188 27.648438 22.265625 27.355469 22.191406 27.066406 C 22.117188 26.773438 22.03125 26.398438 22.070313 26.089844 C 21.703125 26.101563 21.347656 26.101563 20.980469 26.101563 C 19.539063 26.109375 18.09375 26.101563 16.640625 26.089844 C 16.6875 27.335938 17.007813 28.554688 17.242188 29.785156 C 18.226563 29.851563 19.210938 29.898438 20.195313 29.898438 C 21.074219 29.898438 21.957031 29.867188 22.835938 29.839844 C 22.820313 29.726563 22.800781 29.632813 22.773438 29.539063 Z "/>
<path style=" stroke:none;fill-rule:nonzero;fill:#D6E7E7;fill-opacity:1;" d="M 15.617188 8.886719 C 14.664063 8.914063 13.714844 9.027344 12.769531 9.054688 C 12.945313 9.5625 13.023438 10.097656 13.199219 10.613281 C 14.035156 10.59375 14.867188 10.585938 15.710938 10.566406 C 15.703125 10.011719 15.636719 9.449219 15.617188 8.886719 Z "/>
<path style=" stroke:none;fill-rule:nonzero;fill:#3AB37C;fill-opacity:1;" d="M 34.679688 39.757813 C 33.851563 38.691406 32.082031 38.804688 30.882813 38.886719 C 30.664063 38.90625 30.414063 38.765625 30.355469 38.539063 C 30.160156 37.773438 29.980469 36.929688 29.539063 36.253906 C 29.109375 35.597656 28.507813 35.210938 27.742188 35.035156 C 26.007813 34.613281 24 34.742188 22.695313 36.085938 C 22.359375 36.429688 21.882813 36.214844 21.796875 35.785156 C 21.300781 33.414063 18.824219 33 16.761719 33.066406 C 15.628906 33.09375 14.492188 33.382813 13.695313 34.257813 C 12.957031 35.070313 12.609375 36.121094 12.601563 37.210938 C 12.601563 37.574219 12.226563 37.921875 11.859375 37.714844 C 10.902344 37.171875 9.636719 36.742188 8.550781 37.125 C 7.632813 37.453125 7.246094 38.664063 7.929688 39.394531 C 8.210938 39.695313 8.117188 40.285156 7.632813 40.292969 C 7.039063 40.304688 5.804688 40.507813 6.207031 41.390625 C 6.367188 41.738281 6.769531 41.746094 7.097656 41.820313 C 7.238281 41.859375 7.367188 41.898438 7.5 41.953125 C 7.632813 41.953125 7.753906 41.972656 7.855469 41.980469 C 9.214844 42.054688 10.621094 42 11.980469 41.90625 C 13.492188 41.804688 15.039063 41.898438 16.554688 41.867188 C 19.613281 41.8125 22.667969 41.652344 25.726563 41.597656 C 27.09375 41.570313 28.480469 41.457031 29.839844 41.523438 C 30.917969 41.570313 32.015625 41.738281 33.085938 41.605469 C 33.917969 41.492188 35.523438 40.847656 34.679688 39.757813 Z "/>
<path style=" stroke:none;fill-rule:nonzero;fill:#D6E7E7;fill-opacity:1;" d="M 16.453125 31.941406 C 16.445313 31.539063 16.414063 31.132813 16.359375 30.742188 C 14.71875 30.628906 13.070313 30.496094 11.429688 30.535156 C 11.503906 31.273438 11.558594 32.007813 11.570313 32.757813 C 11.570313 33.234375 11.578125 33.710938 11.746094 34.164063 C 11.820313 34.378906 12.132813 34.332031 12.367188 34.304688 C 12.542969 34.011719 12.757813 33.730469 13.011719 33.488281 C 13.960938 32.558594 15.167969 32.109375 16.472656 32.042969 C 16.460938 32.015625 16.453125 31.976563 16.453125 31.941406 Z "/>
<path style=" stroke:none;fill-rule:nonzero;fill:#D6E7E7;fill-opacity:1;" d="M 23.464844 33.074219 C 23.382813 32.316406 23.230469 31.585938 23.0625 30.851563 C 22.078125 30.890625 21.085938 30.917969 20.101563 30.910156 C 19.199219 30.910156 18.300781 30.863281 17.410156 30.804688 C 17.457031 31.152344 17.484375 31.5 17.484375 31.855469 C 17.484375 31.921875 17.476563 31.976563 17.457031 32.023438 C 18.523438 32.042969 19.621094 32.183594 20.578125 32.664063 C 21.542969 33.140625 22.191406 33.890625 22.566406 34.835938 C 22.902344 34.59375 23.277344 34.386719 23.664063 34.226563 C 23.53125 33.863281 23.503906 33.414063 23.464844 33.074219 Z "/>
<path style=" stroke:none;fill-rule:nonzero;fill:#EF4823;fill-opacity:1;" d="M 44.972656 21.328125 C 44.898438 21.121094 44.820313 20.914063 44.738281 20.71875 C 44.558594 20.289063 44.363281 19.855469 44.210938 19.425781 C 43.695313 17.972656 43.453125 16.445313 42.984375 14.980469 C 42.816406 14.457031 42.636719 13.96875 42.355469 13.5 C 42.121094 13.117188 41.898438 12.722656 41.679688 12.320313 C 41.539063 12.046875 41.296875 11.644531 41.195313 11.242188 C 40.773438 11.183594 40.339844 11.210938 39.910156 11.164063 C 39.253906 11.101563 38.578125 11.148438 37.914063 11.148438 C 36.488281 11.148438 35.0625 11.148438 33.636719 11.164063 C 30.789063 11.203125 27.9375 11.269531 25.085938 11.351563 C 19.566406 11.511719 14.054688 11.691406 8.53125 11.710938 C 8.390625 12.46875 7.949219 13.078125 7.554688 13.753906 C 7.039063 14.632813 6.496094 15.46875 6.085938 16.40625 C 5.34375 18.066406 4.761719 19.800781 3.984375 21.449219 C 5.445313 21.429688 6.910156 21.507813 8.371094 21.570313 C 11.417969 21.703125 14.445313 21.601563 17.492188 21.515625 C 20.570313 21.429688 23.644531 21.46875 26.71875 21.515625 C 29.804688 21.5625 32.898438 21.617188 35.980469 21.648438 C 38.992188 21.664063 42 21.570313 45.007813 21.5625 C 45.007813 21.535156 45.007813 21.515625 45.019531 21.488281 C 45 21.421875 44.980469 21.375 44.972656 21.328125 Z "/>
<path style=" stroke:none;fill-rule:nonzero;fill:#D6E7E7;fill-opacity:1;" d="M 45.019531 21.46875 C 45.027344 21.496094 45.039063 21.515625 45.039063 21.542969 C 45.132813 21.375 45.320313 21.242188 45.5625 21.273438 C 45.179688 21.226563 45.046875 21.347656 45.019531 21.46875 Z "/>
<path style=" stroke:none;fill-rule:nonzero;fill:#127274;fill-opacity:1;" d="M 41.429688 39.429688 C 41.371094 39 41.296875 38.578125 41.296875 38.148438 C 41.296875 37.265625 41.304688 36.382813 41.296875 35.503906 C 41.289063 33.917969 40.988281 32.351563 40.714844 30.796875 C 39.84375 30.757813 38.980469 30.824219 38.109375 30.824219 L 36.515625 30.824219 C 36.589844 33.871094 37.339844 36.871094 37.351563 39.929688 C 37.351563 40.03125 37.320313 40.117188 37.285156 40.191406 C 38.558594 40.171875 39.84375 40.132813 41.117188 40.023438 C 41.242188 40.011719 41.371094 40.003906 41.492188 39.984375 C 41.464844 39.804688 41.457031 39.609375 41.429688 39.429688 Z M 38.351563 36.273438 C 38.269531 36.367188 38.136719 36.449219 38.007813 36.449219 L 37.820313 36.449219 C 37.679688 36.449219 37.546875 36.421875 37.433594 36.320313 C 37.332031 36.234375 37.273438 36.101563 37.257813 35.972656 C 37.246094 35.832031 37.292969 35.691406 37.386719 35.585938 C 37.472656 35.492188 37.601563 35.410156 37.734375 35.410156 L 37.921875 35.410156 C 38.0625 35.410156 38.195313 35.4375 38.304688 35.539063 C 38.410156 35.625 38.464844 35.757813 38.484375 35.886719 C 38.492188 36.027344 38.445313 36.167969 38.351563 36.273438 Z "/>
<path style=" stroke:none;fill-rule:nonzero;fill:#F6851F;fill-opacity:1;" d="M 43.546875 36.628906 C 43.539063 34.894531 43.492188 33.167969 43.414063 31.433594 C 43.292969 28.492188 43.144531 25.539063 43.097656 22.59375 C 42.101563 22.613281 41.109375 22.632813 40.125 22.648438 C 33.957031 22.742188 27.777344 22.492188 21.601563 22.480469 C 18.5625 22.472656 15.523438 22.632813 12.488281 22.660156 C 10.097656 22.6875 7.707031 22.5 5.316406 22.460938 C 5.316406 22.480469 5.316406 22.507813 5.324219 22.527344 C 5.382813 23.128906 5.464844 23.726563 5.550781 24.328125 C 5.851563 26.335938 5.839844 28.386719 5.945313 30.414063 C 6.046875 32.410156 6.253906 34.445313 6.121094 36.441406 C 6.085938 37.039063 6.019531 37.648438 6.039063 38.25 C 6.046875 38.511719 6.046875 38.792969 6.132813 39.054688 C 6.140625 39.09375 6.160156 39.140625 6.167969 39.179688 C 6.335938 39.167969 6.507813 39.234375 6.617188 39.382813 C 6.664063 39.375 6.703125 39.367188 6.75 39.347656 C 6.347656 38.324219 6.65625 37.125 7.648438 36.429688 C 8.804688 35.632813 10.378906 35.878906 11.644531 36.421875 C 11.691406 36.046875 11.773438 35.679688 11.898438 35.316406 C 11.679688 35.304688 11.476563 35.269531 11.269531 35.15625 C 10.820313 34.902344 10.667969 34.292969 10.601563 33.816406 C 10.519531 33.261719 10.539063 32.699219 10.546875 32.148438 C 10.554688 31.480469 10.433594 30.804688 10.351563 30.148438 C 10.226563 29.203125 10.085938 28.285156 9.910156 27.347656 C 9.804688 26.773438 9.515625 25.714844 10.011719 25.246094 C 10.070313 25.191406 10.132813 25.152344 10.199219 25.132813 C 10.273438 25.039063 10.386719 24.984375 10.554688 24.984375 C 14.195313 24.984375 17.820313 25.078125 21.460938 25.03125 C 23.128906 25.011719 24.835938 25.03125 26.492188 24.871094 C 27.007813 24.816406 27.535156 24.730469 28.058594 24.722656 C 28.445313 24.722656 28.929688 24.710938 29.222656 25.011719 C 29.25 25.039063 29.277344 25.078125 29.296875 25.105469 C 29.464844 25.238281 29.558594 25.460938 29.4375 25.714844 C 29.164063 26.257813 29.570313 27.066406 29.679688 27.609375 C 29.851563 28.367188 29.839844 29.148438 29.90625 29.925781 C 29.945313 30.367188 30.039063 30.804688 30.066406 31.257813 C 30.09375 31.679688 30.085938 32.109375 30.113281 32.53125 C 30.148438 33.242188 30.421875 33.976563 30.328125 34.679688 C 30.308594 34.847656 30.160156 35.015625 29.992188 35.0625 C 29.980469 35.0625 29.972656 35.0625 29.972656 35.070313 C 30.113281 35.210938 30.234375 35.371094 30.347656 35.550781 C 30.789063 36.234375 31.039063 37.011719 31.246094 37.789063 C 32.71875 37.714844 34.519531 37.808594 35.464844 39.039063 C 35.726563 39.375 35.878906 39.769531 35.90625 40.164063 C 36.066406 40.164063 36.214844 40.164063 36.375 40.164063 C 36.355469 40.105469 36.335938 40.039063 36.335938 39.964844 C 36.320313 36.789063 35.503906 33.675781 35.492188 30.496094 C 35.492188 30.355469 35.539063 30.242188 35.617188 30.148438 C 35.644531 29.933594 35.785156 29.746094 36.074219 29.746094 C 37.800781 29.746094 39.554688 29.617188 41.269531 29.757813 C 41.511719 29.773438 41.652344 30.007813 41.679688 30.226563 C 41.960938 31.875 42.328125 33.535156 42.335938 35.210938 C 42.347656 36.09375 42.335938 36.964844 42.335938 37.847656 C 42.335938 38.242188 42.382813 38.605469 42.429688 38.992188 C 42.449219 39.1875 42.523438 39.402344 42.523438 39.601563 C 42.523438 39.648438 42.542969 39.742188 42.554688 39.789063 C 42.5625 39.816406 42.570313 39.835938 42.582031 39.863281 C 42.796875 39.851563 43.011719 39.84375 43.226563 39.851563 C 43.339844 39.851563 43.460938 39.851563 43.585938 39.851563 C 43.386719 38.839844 43.554688 37.695313 43.546875 36.628906 Z "/>
<path style=" stroke:none;fill-rule:nonzero;fill:#000000;fill-opacity:1;" d="M 45.710938 20.371094 C 45.234375 19.199219 44.859375 18.046875 44.550781 16.820313 C 44.222656 15.488281 43.921875 14.089844 43.199219 12.898438 C 42.964844 12.515625 42.742188 12.121094 42.523438 11.71875 C 42.429688 11.539063 42.347656 11.351563 42.261719 11.164063 C 42.234375 11.101563 42.214844 11.035156 42.1875 10.960938 C 42.214844 10.894531 42.226563 10.828125 42.214844 10.753906 C 42.214844 10.714844 42.207031 10.6875 42.207031 10.648438 C 42.1875 10.539063 42.140625 10.433594 42.074219 10.359375 C 42.039063 10.3125 42 10.265625 41.953125 10.21875 C 41.746094 10.003906 41.492188 10.039063 41.324219 10.191406 C 40.96875 10.144531 40.59375 10.144531 40.238281 10.132813 C 39.5625 10.117188 38.878906 10.085938 38.203125 10.085938 C 36.777344 10.085938 35.351563 10.085938 33.929688 10.105469 C 31.078125 10.132813 28.226563 10.210938 25.378906 10.285156 C 22.492188 10.367188 19.613281 10.453125 16.726563 10.527344 C 16.726563 10.519531 16.726563 10.507813 16.726563 10.492188 L 16.726563 10.285156 C 16.726563 10.257813 16.726563 10.226563 16.714844 10.199219 C 16.695313 9.664063 16.632813 9.132813 16.632813 8.597656 C 16.632813 8.335938 16.472656 8.195313 16.285156 8.148438 C 16.210938 7.96875 16.039063 7.835938 15.796875 7.835938 C 14.632813 7.847656 13.492188 8.015625 12.328125 8.023438 C 12.074219 8.023438 11.933594 8.175781 11.886719 8.363281 C 11.644531 8.492188 11.476563 8.804688 11.664063 9.113281 C 11.933594 9.5625 12 10.105469 12.121094 10.621094 C 10.753906 10.640625 9.382813 10.648438 8.015625 10.648438 C 7.648438 10.648438 7.507813 10.960938 7.566406 11.242188 C 7.546875 11.289063 7.539063 11.335938 7.539063 11.390625 C 7.5 12.121094 6.851563 12.917969 6.46875 13.507813 C 5.925781 14.324219 5.476563 15.1875 5.082031 16.078125 C 4.320313 17.804688 3.742188 19.601563 2.90625 21.28125 C 2.765625 21.367188 2.671875 21.515625 2.671875 21.722656 L 2.671875 21.910156 C 2.671875 22.105469 2.773438 22.246094 2.925781 22.3125 C 3.019531 22.414063 3.148438 22.480469 3.320313 22.472656 C 3.636719 22.460938 3.957031 22.453125 4.273438 22.453125 C 4.3125 23.007813 4.386719 23.558594 4.472656 24.101563 C 4.789063 26.277344 4.808594 28.480469 4.921875 30.664063 C 5.023438 32.746094 5.203125 34.855469 5.054688 36.945313 C 5.007813 37.660156 4.949219 38.390625 5.082031 39.09375 C 5.136719 39.382813 5.269531 39.75 5.484375 40.023438 C 5.257813 40.273438 5.109375 40.59375 5.101563 40.996094 C 5.089844 41.585938 5.351563 42.195313 5.878906 42.496094 C 6.113281 42.628906 6.367188 42.703125 6.628906 42.757813 C 6.664063 42.769531 6.730469 42.769531 6.796875 42.789063 C 6.863281 42.882813 6.945313 42.976563 7.070313 43.039063 C 7.21875 43.125 7.351563 43.125 7.472656 43.078125 C 7.585938 43.078125 7.6875 43.039063 7.78125 42.984375 C 7.949219 42.992188 8.109375 43.003906 8.277344 43.003906 C 9.066406 43.003906 9.851563 43.003906 10.640625 42.984375 C 12.148438 42.945313 13.648438 42.917969 15.148438 42.898438 C 18.207031 42.882813 21.261719 42.683594 24.320313 42.636719 C 25.847656 42.609375 27.375 42.589844 28.902344 42.542969 C 29.980469 42.507813 31.039063 42.648438 32.117188 42.664063 C 33.140625 42.683594 34.21875 42.5625 35.070313 41.945313 C 35.34375 41.746094 35.550781 41.492188 35.691406 41.222656 C 37.425781 41.222656 39.1875 41.222656 40.914063 41.070313 C 41.539063 41.015625 42.167969 40.960938 42.796875 40.929688 C 43.070313 40.921875 43.332031 40.914063 43.601563 40.929688 C 43.726563 40.941406 43.835938 40.960938 43.960938 40.976563 C 43.988281 40.988281 43.996094 40.988281 44.007813 40.988281 C 44.007813 40.988281 43.996094 40.988281 44.007813 41.007813 C 44.429688 41.457031 45.046875 40.820313 44.765625 40.339844 L 44.765625 40.117188 C 44.765625 39.945313 44.699219 39.824219 44.597656 39.75 C 44.382813 38.671875 44.585938 37.445313 44.578125 36.375 C 44.570313 34.640625 44.511719 32.914063 44.4375 31.179688 C 44.324219 28.320313 44.175781 25.453125 44.128906 22.585938 C 44.492188 22.585938 44.859375 22.574219 45.234375 22.574219 C 45.46875 22.574219 45.609375 22.445313 45.664063 22.273438 C 46.425781 22.132813 45.910156 20.859375 45.710938 20.371094 Z M 15.617188 8.886719 C 15.636719 9.449219 15.703125 10.003906 15.703125 10.566406 C 14.867188 10.585938 14.035156 10.601563 13.191406 10.613281 C 13.003906 10.105469 12.9375 9.5625 12.757813 9.054688 C 13.714844 9.027344 14.664063 8.914063 15.617188 8.886719 Z M 33.085938 41.597656 C 32.007813 41.726563 30.910156 41.570313 29.839844 41.511719 C 28.472656 41.445313 27.09375 41.558594 25.726563 41.585938 C 22.667969 41.644531 19.613281 41.804688 16.554688 41.859375 C 15.039063 41.886719 13.5 41.792969 11.980469 41.898438 C 10.621094 41.992188 9.214844 42.046875 7.855469 41.972656 C 7.753906 41.960938 7.632813 41.953125 7.5 41.945313 C 7.378906 41.886719 7.246094 41.839844 7.097656 41.8125 C 6.769531 41.738281 6.367188 41.726563 6.207031 41.382813 C 5.804688 40.5 7.039063 40.292969 7.632813 40.285156 C 8.117188 40.273438 8.210938 39.683594 7.929688 39.382813 C 7.246094 38.652344 7.632813 37.445313 8.550781 37.117188 C 9.636719 36.730469 10.902344 37.164063 11.859375 37.707031 C 12.226563 37.914063 12.601563 37.566406 12.601563 37.199219 C 12.609375 36.113281 12.945313 35.0625 13.695313 34.246094 C 14.484375 33.382813 15.628906 33.09375 16.761719 33.054688 C 18.824219 33 21.300781 33.402344 21.796875 35.773438 C 21.890625 36.207031 22.359375 36.421875 22.695313 36.074219 C 24 34.726563 26.007813 34.601563 27.742188 35.023438 C 28.5 35.210938 29.109375 35.585938 29.539063 36.242188 C 29.980469 36.917969 30.160156 37.761719 30.355469 38.53125 C 30.414063 38.757813 30.664063 38.886719 30.882813 38.878906 C 32.082031 38.792969 33.851563 38.679688 34.679688 39.75 C 35.523438 40.847656 33.917969 41.492188 33.085938 41.597656 Z M 16.359375 30.742188 C 16.414063 31.132813 16.453125 31.539063 16.453125 31.941406 C 16.453125 31.976563 16.453125 32.015625 16.460938 32.042969 C 15.160156 32.117188 13.949219 32.558594 13.003906 33.488281 C 12.75 33.730469 12.535156 34.011719 12.355469 34.304688 C 12.113281 34.332031 11.8125 34.378906 11.738281 34.164063 C 11.578125 33.710938 11.570313 33.226563 11.558594 32.757813 C 11.558594 32.007813 11.503906 31.273438 11.417969 30.535156 C 13.070313 30.496094 14.71875 30.628906 16.359375 30.742188 Z M 11.304688 29.511719 C 11.222656 28.835938 11.117188 28.179688 10.988281 27.515625 C 10.921875 27.167969 10.855469 26.8125 10.820313 26.457031 C 10.800781 26.316406 10.800781 26.183594 10.800781 26.042969 C 12.402344 26.042969 14.015625 26.0625 15.617188 26.082031 C 15.65625 27.308594 15.957031 28.507813 16.191406 29.710938 C 14.558594 29.585938 12.9375 29.476563 11.304688 29.511719 Z M 22.191406 27.066406 C 22.265625 27.355469 22.367188 27.648438 22.453125 27.9375 C 22.613281 28.453125 22.660156 29.015625 22.773438 29.539063 C 22.789063 29.632813 22.808594 29.726563 22.835938 29.832031 C 21.957031 29.867188 21.074219 29.886719 20.195313 29.886719 C 19.210938 29.886719 18.226563 29.839844 17.242188 29.773438 C 17.007813 28.546875 16.6875 27.328125 16.640625 26.082031 C 18.085938 26.089844 19.527344 26.101563 20.980469 26.089844 C 21.347656 26.089844 21.703125 26.082031 22.070313 26.082031 C 22.03125 26.398438 22.117188 26.773438 22.191406 27.066406 Z M 28.507813 27.234375 C 28.679688 27.910156 28.773438 28.546875 28.820313 29.230469 C 28.640625 29.183594 28.460938 29.25 28.339844 29.382813 C 26.859375 29.570313 25.367188 29.691406 23.878906 29.773438 C 23.710938 29.023438 23.625 28.257813 23.398438 27.523438 C 23.324219 27.289063 23.25 27.054688 23.183594 26.8125 C 23.15625 26.699219 23.117188 26.578125 23.101563 26.464844 C 23.089844 26.410156 23.082031 26.351563 23.070313 26.296875 C 23.070313 26.289063 23.070313 26.289063 23.070313 26.277344 C 23.117188 26.210938 23.148438 26.128906 23.164063 26.054688 C 24.140625 26.035156 25.125 25.996094 26.101563 25.949219 C 26.558594 25.921875 27.019531 25.867188 27.476563 25.820313 C 27.664063 25.800781 28.097656 25.734375 28.351563 25.761719 C 28.273438 26.25 28.386719 26.757813 28.507813 27.234375 Z M 28.914063 30.355469 C 28.976563 30.957031 29.054688 31.554688 29.0625 32.164063 C 29.070313 32.585938 29.082031 33.007813 29.136719 33.421875 C 29.164063 33.65625 29.25 33.890625 29.289063 34.125 C 29.148438 34.171875 29.042969 34.273438 28.988281 34.398438 C 28.695313 34.246094 28.398438 34.132813 28.078125 34.050781 C 26.992188 33.75 25.820313 33.683594 24.722656 33.910156 C 24.703125 33.882813 24.675781 33.851563 24.648438 33.835938 C 24.617188 33.742188 24.601563 33.648438 24.582031 33.554688 C 24.523438 33.308594 24.507813 33.054688 24.476563 32.8125 C 24.402344 32.128906 24.273438 31.460938 24.121094 30.796875 C 25.726563 30.710938 27.320313 30.5625 28.914063 30.355469 Z M 23.464844 33.074219 C 23.503906 33.421875 23.53125 33.863281 23.664063 34.238281 C 23.277344 34.398438 22.914063 34.59375 22.566406 34.847656 C 22.191406 33.910156 21.542969 33.160156 20.578125 32.671875 C 19.621094 32.195313 18.523438 32.054688 17.457031 32.035156 C 17.476563 31.976563 17.484375 31.921875 17.484375 31.867188 C 17.484375 31.507813 17.445313 31.164063 17.410156 30.816406 C 18.308594 30.871094 19.210938 30.917969 20.101563 30.917969 C 21.085938 30.917969 22.078125 30.898438 23.0625 30.863281 C 23.230469 31.585938 23.382813 32.316406 23.464844 33.074219 Z M 41.117188 40.023438 C 39.851563 40.132813 38.570313 40.171875 37.285156 40.191406 C 37.320313 40.117188 37.351563 40.03125 37.351563 39.929688 C 37.332031 36.871094 36.582031 33.882813 36.515625 30.824219 L 38.109375 30.824219 C 38.980469 30.824219 39.84375 30.757813 40.714844 30.796875 C 40.988281 32.351563 41.289063 33.917969 41.296875 35.503906 C 41.304688 36.382813 41.296875 37.265625 41.296875 38.148438 C 41.296875 38.578125 41.371094 39 41.429688 39.429688 C 41.457031 39.617188 41.464844 39.804688 41.492188 39.992188 C 41.371094 40.003906 41.25 40.011719 41.117188 40.023438 Z M 43.21875 39.898438 C 43.003906 39.898438 42.789063 39.898438 42.570313 39.910156 C 42.5625 39.882813 42.554688 39.863281 42.542969 39.835938 C 42.542969 39.789063 42.515625 39.683594 42.515625 39.648438 C 42.515625 39.449219 42.441406 39.234375 42.421875 39.039063 C 42.375 38.644531 42.328125 38.289063 42.328125 37.894531 C 42.328125 37.011719 42.335938 36.140625 42.328125 35.257813 C 42.320313 33.582031 41.953125 31.921875 41.671875 30.273438 C 41.632813 30.066406 41.492188 29.820313 41.257813 29.804688 C 39.542969 29.664063 37.789063 29.792969 36.066406 29.792969 C 35.785156 29.792969 35.632813 29.980469 35.605469 30.195313 C 35.53125 30.28125 35.484375 30.394531 35.484375 30.542969 C 35.492188 33.722656 36.308594 36.835938 36.328125 40.011719 C 36.328125 40.085938 36.335938 40.152344 36.367188 40.210938 C 36.207031 40.210938 36.054688 40.210938 35.898438 40.210938 C 35.867188 39.816406 35.71875 39.421875 35.457031 39.085938 C 34.507813 37.855469 32.710938 37.761719 31.238281 37.835938 C 31.03125 37.058594 30.789063 36.28125 30.335938 35.597656 C 30.226563 35.417969 30.09375 35.269531 29.960938 35.117188 C 29.972656 35.117188 29.980469 35.117188 29.980469 35.109375 C 30.140625 35.054688 30.289063 34.894531 30.320313 34.726563 C 30.414063 34.011719 30.140625 33.289063 30.101563 32.578125 C 30.085938 32.15625 30.085938 31.726563 30.054688 31.304688 C 30.027344 30.851563 29.933594 30.421875 29.898438 29.972656 C 29.832031 29.203125 29.832031 28.425781 29.671875 27.65625 C 29.550781 27.101563 29.15625 26.304688 29.429688 25.761719 C 29.550781 25.507813 29.457031 25.285156 29.289063 25.152344 C 29.269531 25.117188 29.242188 25.085938 29.210938 25.058594 C 28.929688 24.757813 28.433594 24.757813 28.050781 24.769531 C 27.523438 24.777344 27.007813 24.863281 26.484375 24.917969 C 24.824219 25.085938 23.117188 25.058594 21.449219 25.078125 C 17.8125 25.117188 14.183594 25.03125 10.546875 25.03125 C 10.386719 25.03125 10.265625 25.085938 10.191406 25.179688 C 10.125 25.210938 10.070313 25.246094 10.003906 25.292969 C 9.507813 25.761719 9.796875 26.820313 9.898438 27.394531 C 10.070313 28.332031 10.21875 29.25 10.339844 30.195313 C 10.425781 30.851563 10.546875 31.527344 10.539063 32.195313 C 10.527344 32.757813 10.507813 33.308594 10.59375 33.863281 C 10.660156 34.339844 10.808594 34.941406 11.257813 35.203125 C 11.457031 35.316406 11.671875 35.351563 11.886719 35.363281 C 11.765625 35.71875 11.691406 36.09375 11.632813 36.46875 C 10.367188 35.925781 8.785156 35.679688 7.640625 36.476563 C 6.636719 37.171875 6.328125 38.371094 6.742188 39.394531 C 6.695313 39.402344 6.65625 39.414063 6.609375 39.429688 C 6.507813 39.273438 6.328125 39.207031 6.160156 39.226563 C 6.140625 39.1875 6.132813 39.140625 6.121094 39.101563 C 6.046875 38.851563 6.039063 38.570313 6.027344 38.296875 C 6.007813 37.6875 6.074219 37.085938 6.113281 36.488281 C 6.242188 34.492188 6.027344 32.445313 5.933594 30.460938 C 5.832031 28.433594 5.839844 26.382813 5.539063 24.375 C 5.445313 23.773438 5.371094 23.175781 5.316406 22.574219 C 5.316406 22.554688 5.316406 22.527344 5.304688 22.507813 C 7.695313 22.546875 10.085938 22.726563 12.476563 22.707031 C 15.515625 22.667969 18.554688 22.519531 21.589844 22.527344 C 27.757813 22.539063 33.9375 22.789063 40.117188 22.695313 C 41.109375 22.679688 42.101563 22.660156 43.085938 22.640625 C 43.132813 25.59375 43.292969 28.539063 43.40625 31.480469 C 43.472656 33.214844 43.527344 34.941406 43.539063 36.675781 C 43.546875 37.742188 43.378906 38.878906 43.566406 39.945313 C 43.453125 39.898438 43.332031 39.898438 43.21875 39.898438 Z M 45.039063 21.542969 C 45.027344 21.515625 45.019531 21.496094 45.007813 21.46875 C 45 21.496094 45 21.515625 45 21.542969 C 41.992188 21.554688 38.980469 21.648438 35.972656 21.628906 C 32.886719 21.609375 29.792969 21.542969 26.710938 21.496094 C 23.632813 21.449219 20.558594 21.421875 17.484375 21.496094 C 14.4375 21.582031 11.410156 21.683594 8.363281 21.554688 C 6.898438 21.488281 5.4375 21.421875 3.976563 21.429688 C 4.753906 19.789063 5.335938 18.054688 6.074219 16.386719 C 6.496094 15.449219 7.03125 14.617188 7.546875 13.734375 C 7.941406 13.058594 8.382813 12.449219 8.523438 11.691406 C 14.042969 11.679688 19.554688 11.492188 25.078125 11.335938 C 27.929688 11.25 30.777344 11.183594 33.628906 11.148438 C 35.054688 11.128906 36.476563 11.128906 37.902344 11.128906 C 38.558594 11.128906 39.242188 11.089844 39.898438 11.148438 C 40.332031 11.183594 40.761719 11.164063 41.183594 11.222656 C 41.289063 11.617188 41.53125 12.027344 41.671875 12.300781 C 41.878906 12.703125 42.113281 13.097656 42.347656 13.480469 C 42.628906 13.949219 42.804688 14.445313 42.976563 14.960938 C 43.453125 16.425781 43.6875 17.960938 44.203125 19.40625 C 44.363281 19.847656 44.550781 20.269531 44.726563 20.699219 C 44.8125 20.898438 44.886719 21.101563 44.960938 21.308594 C 44.980469 21.355469 44.992188 21.402344 45.007813 21.449219 C 45.039063 21.328125 45.179688 21.207031 45.5625 21.253906 C 45.320313 21.242188 45.140625 21.375 45.039063 21.542969 Z "/>
<path style=" stroke:none;fill-rule:nonzero;fill:#000000;fill-opacity:1;" d="M 38.304688 35.550781 C 38.195313 35.457031 38.070313 35.417969 37.921875 35.417969 L 37.734375 35.417969 C 37.601563 35.417969 37.472656 35.503906 37.386719 35.597656 C 37.292969 35.699219 37.246094 35.839844 37.257813 35.980469 C 37.265625 36.113281 37.332031 36.242188 37.433594 36.328125 C 37.546875 36.421875 37.667969 36.460938 37.820313 36.460938 L 38.007813 36.460938 C 38.136719 36.460938 38.269531 36.375 38.351563 36.28125 C 38.445313 36.179688 38.492188 36.039063 38.484375 35.898438 C 38.476563 35.757813 38.410156 35.632813 38.304688 35.550781 Z "/>
</g>
</svg>
