<?xml version="1.0" encoding="UTF-8"?>
<svg xmlns="http://www.w3.org/2000/svg" xmlns:xlink="http://www.w3.org/1999/xlink" width="48pt" height="48pt" viewBox="0 0 48 48" version="1.1">
<g id="surface1">
<path style=" stroke:none;fill-rule:nonzero;fill:#14B6B9;fill-opacity:1;" d="M 13.539063 14.316406 C 13.40625 12.261719 13.472656 10.199219 13.367188 8.148438 C 13.339844 7.59375 13.3125 7.050781 13.304688 6.496094 C 13.292969 6.101563 13.339844 5.699219 13.257813 5.304688 C 13.210938 5.089844 12.945313 4.179688 12.570313 4.453125 C 11.34375 5.351563 11.644531 7.507813 11.726563 8.792969 C 11.785156 9.65625 11.773438 10.507813 11.839844 11.371094 C 11.851563 11.492188 11.859375 11.605469 11.867188 11.726563 C 11.992188 11.8125 12.074219 11.933594 12.074219 12.09375 L 12.074219 13.078125 C 12.074219 13.21875 12.027344 13.320313 11.960938 13.414063 C 11.972656 13.707031 11.960938 13.996094 11.953125 14.296875 C 12.488281 14.316406 13.011719 14.316406 13.539063 14.316406 Z "/>
<path style=" stroke:none;fill-rule:nonzero;fill:#74CCCF;fill-opacity:1;" d="M 27.167969 18.835938 C 26.175781 19.132813 25.117188 19.164063 24.09375 19.117188 C 23.410156 19.078125 22.726563 19.011719 22.039063 18.992188 C 21.347656 18.976563 20.652344 19.050781 19.960938 19.097656 C 17.539063 19.285156 15.132813 19.445313 12.703125 19.398438 C 11.417969 19.367188 9.929688 19.359375 8.605469 19.003906 C 9.476563 21.964844 8.8125 25.132813 9.148438 28.191406 C 9.347656 29.933594 9.957031 31.59375 11.25 32.820313 C 12.429688 33.945313 13.902344 34.808594 15.488281 35.222656 C 18.910156 36.121094 22.789063 35.183594 25.164063 32.476563 C 26.511719 30.929688 27.242188 29.007813 27.367188 26.960938 C 27.542969 24.253906 27 21.554688 27.167969 18.835938 Z M 11.054688 22.5 C 10.386719 22.5 10.3125 21.46875 10.976563 21.46875 C 13.398438 21.46875 15.824219 21.570313 18.242188 21.554688 C 19.679688 21.542969 21.121094 21.535156 22.554688 21.421875 C 23.042969 21.382813 23.53125 21.347656 24.007813 21.242188 C 24 21.242188 24.234375 21.1875 24.355469 21.140625 C 24.617188 20.699219 25.425781 20.925781 25.304688 21.507813 C 25.132813 22.332031 23.710938 22.351563 23.070313 22.40625 C 21.628906 22.539063 20.175781 22.566406 18.722656 22.574219 C 16.164063 22.601563 13.601563 22.5 11.054688 22.5 Z M 23.511719 29.679688 C 23.363281 29.792969 23.183594 29.8125 23.007813 29.8125 C 22.847656 29.8125 22.714844 29.757813 22.621094 29.664063 C 22.480469 29.664063 22.304688 29.625 22.238281 29.625 C 22.058594 29.617188 21.882813 29.617188 21.695313 29.617188 C 21.335938 29.617188 20.980469 29.617188 20.625 29.625 C 19.929688 29.644531 19.238281 29.671875 18.554688 29.671875 C 17.351563 29.679688 15.984375 29.335938 14.832031 29.785156 C 14.210938 30.027344 13.875 29.054688 14.492188 28.808594 C 15.179688 28.539063 15.917969 28.527344 16.640625 28.566406 C 17.429688 28.613281 18.195313 28.648438 18.984375 28.632813 C 19.867188 28.613281 20.746094 28.566406 21.617188 28.585938 C 22.023438 28.59375 22.433594 28.601563 22.835938 28.632813 C 23.148438 28.648438 23.476563 28.667969 23.644531 28.976563 C 23.792969 29.222656 23.746094 29.503906 23.511719 29.679688 Z M 24.976563 25.78125 C 24.601563 25.914063 24.167969 25.929688 23.785156 25.960938 C 22.480469 26.0625 21.167969 26.136719 19.855469 26.148438 C 17.4375 26.164063 15.019531 26.148438 12.601563 26.148438 C 11.933594 26.148438 11.859375 25.117188 12.523438 25.117188 C 14.550781 25.117188 16.574219 25.117188 18.601563 25.117188 C 20.015625 25.117188 21.421875 25.003906 22.835938 24.976563 C 23.195313 24.964844 23.550781 24.9375 23.90625 24.910156 C 24.085938 24.890625 24.261719 24.871094 24.441406 24.84375 C 24.429688 24.84375 24.460938 24.84375 24.488281 24.835938 C 24.628906 24.710938 24.816406 24.65625 25.03125 24.75 C 25.5 24.945313 25.445313 25.621094 24.976563 25.78125 Z "/>
<path style=" stroke:none;fill-rule:nonzero;fill:#14B6B9;fill-opacity:1;" d="M 23.960938 12.460938 C 23.90625 11.644531 23.839844 10.847656 23.859375 10.03125 C 23.886719 8.914063 23.953125 7.800781 23.886719 6.695313 C 23.859375 6.234375 23.953125 5.082031 23.417969 4.808594 C 22.679688 4.425781 22.285156 8.335938 22.246094 8.785156 C 22.085938 10.621094 22.105469 12.460938 22.199219 14.296875 L 23.914063 14.296875 C 24.074219 13.714844 24.007813 13.039063 23.960938 12.460938 Z "/>
<path style=" stroke:none;fill-rule:nonzero;fill:#74CCCF;fill-opacity:1;" d="M 28.445313 15.140625 C 28.367188 15.253906 28.246094 15.328125 28.070313 15.328125 L 24.582031 15.328125 C 24.382813 15.515625 24.085938 15.476563 23.886719 15.328125 L 17.304688 15.328125 C 16.351563 15.328125 15.382813 15.347656 14.429688 15.355469 C 14.242188 15.488281 13.96875 15.496094 13.78125 15.355469 C 13.132813 15.355469 12.488281 15.347656 11.839844 15.320313 C 11.203125 15.289063 10.566406 15.242188 9.929688 15.253906 C 9.589844 15.261719 8.839844 15.195313 8.585938 15.429688 C 8.363281 15.628906 8.082031 15.601563 7.894531 15.46875 C 7.632813 15.582031 7.398438 15.757813 7.226563 15.976563 C 6.722656 16.613281 6.976563 17.089844 7.527344 17.4375 C 7.742188 17.398438 7.996094 17.476563 8.117188 17.71875 C 9.113281 18.09375 10.445313 18.253906 10.902344 18.289063 C 12.984375 18.46875 15.121094 18.414063 17.203125 18.273438 C 18.675781 18.167969 20.195313 17.925781 21.664063 17.953125 C 22.988281 17.980469 24.308594 18.195313 25.632813 18.074219 C 26.617188 17.980469 27.910156 17.710938 28.453125 16.773438 C 28.800781 16.179688 28.753906 15.617188 28.445313 15.140625 Z "/>
<path style=" stroke:none;fill-rule:nonzero;fill:#BCBCBC;fill-opacity:1;" d="M 43.339844 27.140625 C 43.273438 24.28125 43.378906 21.402344 42.992188 18.5625 C 42.777344 16.960938 42.441406 15.253906 41.570313 13.875 C 40.753906 12.589844 39.242188 11.511719 37.640625 11.933594 C 36.636719 12.195313 35.820313 12.84375 35.175781 13.648438 C 34.539063 14.445313 33.917969 15.441406 33.710938 16.445313 C 33.421875 17.867188 33.429688 19.304688 33.488281 20.757813 C 33.535156 22.21875 33.449219 23.644531 33.328125 25.097656 C 33.207031 26.605469 33.101563 28.105469 33.101563 29.617188 C 33.101563 30.957031 33.101563 32.316406 32.90625 33.648438 C 32.558594 36.019531 31.5 38.625 29.398438 39.964844 C 27.496094 41.183594 25.117188 41.089844 23.277344 39.789063 C 22.265625 39.074219 20.625 37.714844 20.691406 36.300781 C 19.753906 36.535156 18.777344 36.636719 17.8125 36.601563 C 17.597656 36.589844 17.382813 36.582031 17.175781 36.554688 C 17.597656 38.136719 18.367188 39.609375 19.585938 40.726563 C 20.898438 41.925781 22.546875 42.675781 24.273438 43.058594 C 26.230469 43.492188 28.339844 43.554688 30.242188 42.835938 C 31.929688 42.195313 33.335938 40.996094 34.21875 39.421875 C 35.417969 37.292969 35.691406 34.820313 35.933594 32.417969 C 36.085938 30.929688 36.242188 29.390625 36.121094 27.898438 C 36.007813 26.484375 35.785156 25.058594 35.8125 23.632813 C 35.832031 22.351563 35.980469 20.972656 36.609375 19.820313 C 36.976563 19.144531 37.59375 18.375 38.457031 18.496094 C 39.375 18.617188 39.851563 19.648438 40.078125 20.445313 C 40.460938 21.84375 40.472656 23.34375 40.445313 24.777344 C 40.332031 30.789063 40.621094 36.796875 40.3125 42.804688 C 40.789063 42.835938 41.277344 42.816406 41.746094 42.75 C 42.027344 42.710938 42.308594 42.675781 42.589844 42.617188 C 42.601563 42.617188 42.609375 42.609375 42.628906 42.609375 C 42.695313 42.535156 42.796875 42.476563 42.9375 42.476563 C 43.3125 37.378906 43.453125 32.257813 43.339844 27.140625 Z "/>
<path style=" stroke:none;fill-rule:nonzero;fill:#010101;fill-opacity:1;" d="M 44.335938 25.78125 C 44.277344 22.445313 44.390625 19.039063 43.480469 15.789063 C 43.070313 14.304688 42.367188 12.816406 41.136719 11.839844 C 39.628906 10.640625 37.601563 10.546875 35.972656 11.539063 C 34.144531 12.65625 32.898438 14.878906 32.578125 16.949219 C 32.363281 18.347656 32.429688 19.761719 32.464844 21.167969 C 32.511719 22.660156 32.371094 24.132813 32.257813 25.613281 C 32.164063 26.859375 32.082031 28.105469 32.070313 29.351563 C 32.0625 30.507813 32.082031 31.660156 31.96875 32.8125 C 31.761719 34.960938 31.03125 37.273438 29.34375 38.726563 C 27.851563 40.011719 25.921875 40.097656 24.226563 39.179688 C 23.605469 38.839844 23.054688 38.335938 22.566406 37.828125 C 22.171875 37.425781 21.496094 36.664063 21.804688 36.054688 C 21.824219 36.019531 21.835938 35.992188 21.84375 35.953125 C 23.710938 35.257813 25.386719 34.039063 26.558594 32.417969 C 27.742188 30.789063 28.320313 28.867188 28.414063 26.859375 C 28.554688 24.027344 27.929688 21.207031 28.246094 18.375 C 28.949219 17.933594 29.492188 17.269531 29.699219 16.445313 C 29.960938 15.375 29.34375 14.351563 28.519531 13.726563 C 28.070313 13.386719 27.507813 13.894531 27.675781 14.296875 L 24.984375 14.296875 C 25.078125 13.753906 25.050781 13.179688 25.023438 12.65625 C 24.964844 11.625 24.882813 10.621094 24.910156 9.582031 C 24.945313 8.269531 24.992188 6.957031 24.871094 5.652344 C 24.804688 4.949219 24.46875 4.105469 23.765625 3.824219 C 20.699219 2.585938 21.09375 12.421875 21.1875 14.296875 L 16.875 14.296875 C 16.105469 14.296875 15.335938 14.304688 14.570313 14.316406 C 14.410156 12 14.464844 9.65625 14.363281 7.339844 C 14.324219 6.382813 14.457031 5.382813 14.070313 4.472656 C 13.820313 3.863281 13.273438 3.289063 12.5625 3.375 C 11.738281 3.476563 11.183594 4.414063 10.929688 5.117188 C 10.621094 5.960938 10.621094 6.890625 10.648438 7.773438 C 10.679688 8.691406 10.761719 9.609375 10.773438 10.527344 C 10.78125 11.277344 10.867188 12.027344 10.914063 12.777344 C 10.867188 13.257813 10.882813 13.742188 10.902344 14.230469 C 10.164063 14.175781 9.289063 14.109375 8.578125 14.324219 C 8.503906 14.289063 8.410156 14.269531 8.296875 14.289063 C 7.226563 14.4375 6.328125 15.113281 5.980469 16.144531 C 5.652344 17.109375 6.394531 17.960938 7.164063 18.414063 C 7.21875 18.441406 7.273438 18.476563 7.332031 18.507813 C 8.851563 22.246094 7.359375 26.445313 8.511719 30.28125 C 9.515625 33.617188 12.722656 35.746094 16.050781 36.394531 C 16.050781 36.394531 16.050781 36.402344 16.050781 36.402344 C 16.480469 38.390625 17.445313 40.199219 18.957031 41.578125 C 20.4375 42.929688 22.351563 43.714844 24.289063 44.117188 C 28.125 44.925781 32.277344 43.988281 34.613281 40.648438 C 35.914063 38.785156 36.375 36.628906 36.695313 34.414063 C 36.898438 32.933594 37.050781 31.433594 37.117188 29.933594 C 37.179688 28.472656 37.039063 27.054688 36.910156 25.59375 C 36.777344 24.148438 36.742188 22.707031 37.097656 21.300781 C 37.210938 20.851563 37.667969 19.359375 38.351563 19.519531 C 38.632813 19.585938 38.832031 20.117188 38.925781 20.34375 C 39.195313 21.039063 39.273438 21.804688 39.328125 22.539063 C 39.449219 24.007813 39.347656 25.492188 39.328125 26.960938 C 39.261719 32.410156 39.523438 37.847656 39.214844 43.292969 C 39.207031 43.507813 39.429688 43.734375 39.628906 43.761719 C 40.226563 43.828125 40.835938 43.835938 41.4375 43.800781 C 41.773438 43.773438 42.121094 43.726563 42.460938 43.667969 C 42.730469 43.621094 43.050781 43.492188 43.320313 43.492188 C 43.613281 43.492188 43.761719 43.292969 43.78125 43.070313 C 43.835938 43.003906 43.882813 42.910156 43.894531 42.789063 C 44.363281 37.132813 44.4375 31.460938 44.335938 25.78125 Z M 22.246094 8.785156 C 22.285156 8.335938 22.679688 4.425781 23.417969 4.808594 C 23.953125 5.082031 23.859375 6.234375 23.886719 6.695313 C 23.953125 7.808594 23.886719 8.925781 23.859375 10.03125 C 23.839844 10.847656 23.90625 11.644531 23.960938 12.460938 C 24.007813 13.039063 24.074219 13.707031 23.925781 14.296875 L 22.210938 14.296875 C 22.117188 12.460938 22.097656 10.621094 22.246094 8.785156 Z M 12.589844 4.453125 C 12.964844 4.179688 13.226563 5.089844 13.273438 5.304688 C 13.351563 5.699219 13.3125 6.101563 13.320313 6.496094 C 13.332031 7.050781 13.359375 7.59375 13.386719 8.148438 C 13.492188 10.199219 13.425781 12.261719 13.554688 14.316406 C 13.03125 14.316406 12.507813 14.304688 11.980469 14.296875 C 12 14.007813 12 13.714844 11.992188 13.414063 C 12.054688 13.332031 12.101563 13.21875 12.101563 13.078125 L 12.101563 12.09375 C 12.101563 11.933594 12.019531 11.804688 11.898438 11.726563 C 11.886719 11.605469 11.878906 11.492188 11.867188 11.371094 C 11.804688 10.519531 11.8125 9.65625 11.757813 8.792969 C 11.664063 7.507813 11.363281 5.351563 12.589844 4.453125 Z M 8.109375 17.71875 C 7.988281 17.476563 7.734375 17.390625 7.519531 17.4375 C 6.964844 17.089844 6.710938 16.621094 7.21875 15.976563 C 7.386719 15.75 7.632813 15.582031 7.882813 15.46875 C 8.082031 15.601563 8.363281 15.628906 8.578125 15.429688 C 8.832031 15.195313 9.589844 15.261719 9.917969 15.253906 C 10.554688 15.242188 11.195313 15.289063 11.832031 15.320313 C 12.476563 15.347656 13.125 15.355469 13.773438 15.355469 C 13.960938 15.488281 14.230469 15.488281 14.417969 15.355469 C 15.382813 15.347656 16.339844 15.328125 17.296875 15.328125 L 23.878906 15.328125 C 24.074219 15.476563 24.375 15.515625 24.570313 15.328125 L 28.058594 15.328125 C 28.238281 15.328125 28.367188 15.253906 28.433594 15.140625 C 28.742188 15.617188 28.789063 16.179688 28.445313 16.773438 C 27.898438 17.710938 26.605469 17.980469 25.621094 18.074219 C 24.300781 18.195313 22.976563 17.980469 21.65625 17.953125 C 20.175781 17.925781 18.664063 18.179688 17.195313 18.273438 C 15.113281 18.414063 12.976563 18.460938 10.894531 18.289063 C 10.433594 18.253906 9.101563 18.09375 8.109375 17.71875 Z M 15.496094 35.230469 C 13.914063 34.820313 12.441406 33.957031 11.257813 32.832031 C 9.964844 31.601563 9.355469 29.945313 9.160156 28.199219 C 8.820313 25.144531 9.488281 21.964844 8.617188 19.011719 C 9.9375 19.367188 11.417969 19.378906 12.710938 19.40625 C 15.140625 19.453125 17.550781 19.292969 19.96875 19.105469 C 20.664063 19.050781 21.355469 18.976563 22.050781 19.003906 C 22.734375 19.023438 23.417969 19.085938 24.101563 19.125 C 25.132813 19.179688 26.195313 19.144531 27.179688 18.84375 C 27 21.5625 27.554688 24.261719 27.382813 26.980469 C 27.261719 29.023438 26.53125 30.945313 25.179688 32.492188 C 22.800781 35.195313 18.917969 36.132813 15.496094 35.230469 Z M 42.917969 42.476563 C 42.789063 42.488281 42.683594 42.535156 42.609375 42.609375 C 42.601563 42.609375 42.589844 42.617188 42.570313 42.617188 C 42.289063 42.675781 42.007813 42.710938 41.726563 42.75 C 41.25 42.804688 40.773438 42.824219 40.292969 42.804688 C 40.601563 36.804688 40.320313 30.789063 40.425781 24.777344 C 40.453125 23.34375 40.445313 21.84375 40.058594 20.445313 C 39.84375 19.660156 39.355469 18.628906 38.4375 18.496094 C 37.574219 18.382813 36.957031 19.152344 36.589844 19.820313 C 35.960938 20.960938 35.820313 22.351563 35.792969 23.632813 C 35.765625 25.058594 35.992188 26.484375 36.101563 27.898438 C 36.226563 29.390625 36.066406 30.9375 35.914063 32.417969 C 35.671875 34.808594 35.390625 37.285156 34.199219 39.421875 C 33.320313 40.996094 31.914063 42.195313 30.226563 42.835938 C 28.320313 43.554688 26.210938 43.492188 24.253906 43.058594 C 22.527344 42.675781 20.878906 41.925781 19.566406 40.726563 C 18.335938 39.609375 17.570313 38.128906 17.15625 36.554688 C 17.371094 36.570313 17.585938 36.589844 17.792969 36.601563 C 18.757813 36.636719 19.734375 36.523438 20.671875 36.300781 C 20.605469 37.714844 22.246094 39.074219 23.257813 39.789063 C 25.105469 41.089844 27.488281 41.183594 29.382813 39.964844 C 31.480469 38.625 32.539063 36.007813 32.886719 33.648438 C 33.085938 32.316406 33.085938 30.964844 33.085938 29.617188 C 33.085938 28.105469 33.1875 26.597656 33.308594 25.097656 C 33.421875 23.644531 33.515625 22.21875 33.46875 20.757813 C 33.421875 19.3125 33.402344 17.867188 33.695313 16.445313 C 33.898438 15.429688 34.519531 14.445313 35.15625 13.648438 C 35.792969 12.851563 36.617188 12.195313 37.621094 11.933594 C 39.226563 11.511719 40.734375 12.589844 41.550781 13.875 C 42.421875 15.261719 42.757813 16.96875 42.976563 18.5625 C 43.359375 21.402344 43.257813 24.28125 43.320313 27.140625 C 43.453125 32.257813 43.3125 37.378906 42.917969 42.476563 Z "/>
<path style=" stroke:none;fill-rule:nonzero;fill:#010101;fill-opacity:1;" d="M 24.347656 21.148438 C 24.226563 21.195313 23.992188 21.253906 24 21.253906 C 23.523438 21.347656 23.035156 21.394531 22.546875 21.429688 C 21.113281 21.542969 19.667969 21.554688 18.234375 21.5625 C 15.804688 21.570313 13.386719 21.476563 10.96875 21.476563 C 10.304688 21.476563 10.386719 22.507813 11.042969 22.507813 C 13.601563 22.507813 16.152344 22.613281 18.710938 22.59375 C 20.164063 22.585938 21.617188 22.566406 23.0625 22.425781 C 23.691406 22.367188 25.117188 22.351563 25.292969 21.523438 C 25.414063 20.933594 24.609375 20.71875 24.347656 21.148438 Z "/>
<path style=" stroke:none;fill-rule:nonzero;fill:#010101;fill-opacity:1;" d="M 25.023438 24.757813 C 24.804688 24.675781 24.617188 24.730469 24.476563 24.84375 C 24.441406 24.851563 24.421875 24.851563 24.429688 24.851563 C 24.253906 24.882813 24.074219 24.898438 23.898438 24.917969 C 23.539063 24.957031 23.183594 24.976563 22.828125 24.984375 C 21.414063 25.011719 20.007813 25.125 18.589844 25.125 C 16.566406 25.125 14.539063 25.125 12.515625 25.125 C 11.851563 25.125 11.933594 26.15625 12.589844 26.15625 C 15.007813 26.15625 17.429688 26.175781 19.847656 26.15625 C 21.160156 26.148438 22.460938 26.070313 23.773438 25.96875 C 24.167969 25.941406 24.589844 25.921875 24.964844 25.789063 C 25.445313 25.621094 25.5 24.945313 25.023438 24.757813 Z "/>
<path style=" stroke:none;fill-rule:nonzero;fill:#010101;fill-opacity:1;" d="M 23.652344 28.96875 C 23.484375 28.667969 23.15625 28.648438 22.847656 28.621094 C 22.445313 28.59375 22.03125 28.585938 21.628906 28.574219 C 20.746094 28.566406 19.867188 28.601563 18.992188 28.621094 C 18.207031 28.640625 17.4375 28.601563 16.648438 28.554688 C 15.929688 28.519531 15.1875 28.527344 14.503906 28.800781 C 13.882813 29.042969 14.222656 30.019531 14.839844 29.773438 C 15.984375 29.324219 17.363281 29.671875 18.5625 29.664063 C 19.257813 29.652344 19.949219 29.625 20.632813 29.617188 C 20.992188 29.605469 21.347656 29.605469 21.703125 29.605469 C 21.882813 29.605469 22.058594 29.617188 22.246094 29.617188 C 22.3125 29.617188 22.492188 29.652344 22.632813 29.652344 C 22.726563 29.746094 22.847656 29.804688 23.015625 29.804688 C 23.195313 29.804688 23.382813 29.785156 23.523438 29.671875 C 23.746094 29.503906 23.792969 29.222656 23.652344 28.96875 Z "/>
</g>
</svg>
