<?xml version="1.0" encoding="UTF-8"?>
<svg version="1.1" xmlns="http://www.w3.org/2000/svg" width="512" height="512">
<path d="M0 0 C1.76537109 -0.0299707 1.76537109 -0.0299707 3.56640625 -0.06054688 C21.49151163 -0.05068708 35.52344603 7.07249397 48.125 19.4375 C49.23294922 20.74074219 49.23294922 20.74074219 50.36328125 22.0703125 C54.02172561 25.20612196 57.30313559 25.79118204 61.9375 26.75 C82.66383805 31.64216627 101.45808102 43.60829284 113.3671875 61.52734375 C126.17679081 82.73435367 131.62390615 106.43442288 125.625 131.0625 C121.89597677 143.51008459 115.93936296 154.85737908 107.125 164.4375 C106.37605469 165.27796875 105.62710937 166.1184375 104.85546875 166.984375 C93.71663513 178.86099889 79.95443948 184.54957049 65.125 190.4375 C64.53867869 193.22739839 64.53867869 193.22739839 65.125 196.4375 C67.47003317 198.41306831 69.51383504 199.84864309 72.125 201.375 C73.51795018 202.25021648 74.90860124 203.12910329 76.296875 204.01171875 C76.96525391 204.43114746 77.63363281 204.85057617 78.32226562 205.28271484 C95.07851825 216.01633821 105.47843369 235.65138245 110.125 254.4375 C111.31143663 260.02890938 111.29780593 265.52705959 111.33032227 271.21630859 C111.34022186 272.29007751 111.35012146 273.36384644 111.36032104 274.47015381 C111.3918328 278.00872617 111.41665265 281.54731195 111.44140625 285.0859375 C111.46198469 287.54359276 111.48298139 290.00124456 111.50437927 292.45889282 C111.55950799 298.91966946 111.60895782 305.38047755 111.65722656 311.84130859 C111.7075088 318.43720287 111.76315976 325.03305161 111.81835938 331.62890625 C111.92582841 344.56506498 112.02748069 357.50126263 112.125 370.4375 C112.93686768 369.71324829 112.93686768 369.71324829 113.76513672 368.97436523 C114.83658936 368.02605835 114.83658936 368.02605835 115.9296875 367.05859375 C116.63593262 366.43138428 117.34217773 365.8041748 118.06982422 365.15795898 C124.12253488 360.09102479 129.90286277 359.83459746 137.61328125 360.03125 C143.8391535 360.75148439 148.62153335 362.85058446 153 367.375 C158.88902246 374.8495285 159.51368344 381.32273338 159.5625 390.625 C159.59537109 391.71103516 159.62824219 392.79707031 159.66210938 393.91601562 C159.72136002 402.88440824 157.51847331 409.31030273 151.8125 416.25 C145.19048865 421.64000924 139.85296229 424.58008897 131.1875 424.75 C129.96160156 424.78738281 128.73570312 424.82476562 127.47265625 424.86328125 C123.125 424.4375 123.125 424.4375 111.125 420.4375 C111.125 445.5175 111.125 470.5975 111.125 496.4375 C58.325 496.4375 5.525 496.4375 -48.875 496.4375 C-48.875 455.5175 -48.875 414.5975 -48.875 372.4375 C-51.845 371.7775 -54.815 371.1175 -57.875 370.4375 C-87.13041847 360.55986409 -111.30845296 341.42563928 -128.29663086 315.65600586 C-130.53124421 311.97243366 -130.53124421 311.97243366 -133.875 309.4375 C-134.225625 310.675 -134.57625 311.9125 -134.9375 313.1875 C-141.17942632 331.71005344 -155.89217732 347.21061209 -172.875 356.4375 C-174.195 356.7675 -175.515 357.0975 -176.875 357.4375 C-176.545 361.7275 -176.215 366.0175 -175.875 370.4375 C-174.66585937 370.97117187 -173.45671875 371.50484375 -172.2109375 372.0546875 C-140.25250978 386.46711896 -116.97141874 410.68560575 -103.875 443.4375 C-101.86271802 449.01383588 -100.28918296 454.68396849 -98.875 460.4375 C-98.50568359 461.86835937 -98.50568359 461.86835937 -98.12890625 463.328125 C-95.81467499 474.24491246 -96.875 485.28040168 -96.875 496.4375 C-165.515 496.4375 -234.155 496.4375 -304.875 496.4375 C-304.875 459.24511979 -295.96118055 430.02913485 -269.875 403.4375 C-264.9058352 398.57243554 -259.75957653 394.36025462 -253.6015625 391.1328125 C-246.12133602 387.62754736 -246.12133602 387.62754736 -241.07177734 381.53564453 C-240.14456105 377.13891183 -240.35196249 372.89520606 -240.875 368.4375 C-242.03515625 368.49550781 -243.1953125 368.55351562 -244.390625 368.61328125 C-257.04121819 369.05985262 -266.22207657 367.64131871 -276.25 359.25 C-282.47727987 353.24297761 -288.39000671 345.19614078 -289.03027344 336.27368164 C-289.07111773 333.86660769 -289.04990287 331.46935389 -289 329.0625 C-288.99097656 328.23105469 -288.98195313 327.39960938 -288.97265625 326.54296875 C-288.9492622 324.50768663 -288.91339725 322.47255436 -288.875 320.4375 C-289.95136719 320.17582031 -291.02773438 319.91414063 -292.13671875 319.64453125 C-295.68198398 318.49982179 -297.1945942 317.75802228 -299.6875 315.125 C-300.25082031 314.55136719 -300.81414062 313.97773438 -301.39453125 313.38671875 C-305.23792607 308.32641792 -305.47727295 303.08567919 -305.38671875 296.9140625 C-304.49498534 290.85572102 -301.28196394 286.40798045 -297.875 281.4375 C-296.75510692 279.71847676 -295.64986376 277.98978201 -294.5625 276.25 C-294.09199219 275.53457031 -293.62148438 274.81914062 -293.13671875 274.08203125 C-288.23172691 263.80128985 -289.36767853 251.27642758 -288.875 240.4375 C-304.385 240.4375 -319.895 240.4375 -335.875 240.4375 C-334.17501074 236.18752686 -332.51777564 233.20124067 -329.9609375 229.48046875 C-329.3991832 228.65872917 -329.3991832 228.65872917 -328.82608032 227.82038879 C-327.63854471 226.08546163 -326.4444057 224.35520261 -325.25 222.625 C-324.43966229 221.44366236 -323.62976183 220.26202466 -322.8203125 219.08007812 C-320.84358818 216.19573014 -318.8609185 213.31552785 -316.875 210.4375 C-320.65130152 205.92177696 -324.55109428 201.62474026 -328.75 197.5 C-329.24757813 197.00693359 -329.74515625 196.51386719 -330.2578125 196.00585938 C-331.46120285 194.81404008 -332.66775365 193.62541322 -333.875 192.4375 C-332.5924268 188.5897804 -331.12867373 188.02591435 -327.74609375 185.86328125 C-326.71162109 185.19619141 -325.67714844 184.52910156 -324.61132812 183.84179688 C-323.52271484 183.15150391 -322.43410156 182.46121094 -321.3125 181.75 C-320.22001953 181.04810547 -319.12753906 180.34621094 -318.00195312 179.62304688 C-315.29761903 177.88707695 -312.58857542 176.15897479 -309.875 174.4375 C-314.19599961 166.09289751 -319.53450631 158.47452665 -324.88647461 150.77514648 C-326.03877951 149.114437 -327.18550142 147.449858 -328.33203125 145.78515625 C-329.01241455 144.80554932 -329.69279785 143.82594238 -330.39379883 142.81665039 C-331.875 140.4375 -331.875 140.4375 -331.875 138.4375 C-324.27620427 139.80393677 -316.92947939 141.74656278 -309.5234375 143.9140625 C-308.38339264 144.24417328 -307.24334778 144.57428406 -306.0687561 144.91439819 C-302.46137033 145.95990467 -298.85567373 147.01110616 -295.25 148.0625 C-292.79047437 148.77641999 -290.33083998 149.48996543 -287.87109375 150.203125 C-281.87113145 151.94358745 -275.87254205 153.68871683 -269.875 155.4375 C-270.2776709 153.62983154 -270.2776709 153.62983154 -270.68847656 151.78564453 C-271.04754048 150.17220373 -271.40658914 148.55875954 -271.765625 146.9453125 C-271.94174316 146.15487549 -272.11786133 145.36443848 -272.29931641 144.55004883 C-273.86301121 137.5206282 -275.38005124 130.48187977 -276.875 123.4375 C-270.24110342 124.7504152 -264.20632538 126.66212162 -257.9296875 129.15625 C-256.50715164 129.71219597 -256.50715164 129.71219597 -255.05587769 130.27937317 C-253.01415709 131.07799047 -250.97354815 131.87945457 -248.93395996 132.6835022 C-245.71050367 133.95305557 -242.48331683 135.21264541 -239.25488281 136.46948242 C-229.05813765 140.44123833 -218.8710276 144.43677556 -208.6937561 148.4581604 C-204.3761028 150.16022801 -200.05320505 151.84866955 -195.72906494 153.53417969 C-193.66481827 154.34271723 -191.60305884 155.1576347 -189.54388428 155.97900391 C-186.67570825 157.12265811 -183.80008821 158.24517689 -180.921875 159.36328125 C-180.075112 159.707043 -179.228349 160.05080475 -178.35592651 160.40498352 C-177.57170319 160.70486679 -176.78747986 161.00475006 -175.97949219 161.3137207 C-174.9654129 161.7140728 -174.9654129 161.7140728 -173.93084717 162.12251282 C-171.1221708 162.55284493 -169.47708137 161.51959314 -166.875 160.4375 C-164.03627014 160.17007446 -164.03627014 160.17007446 -160.89477539 160.14697266 C-159.71327408 160.13421295 -158.53177277 160.12145325 -157.31446838 160.10830688 C-156.04667038 160.10608124 -154.77887238 160.10385559 -153.47265625 160.1015625 C-151.50696938 160.0915773 -151.50696938 160.0915773 -149.50157166 160.08139038 C-146.73188989 160.06944074 -143.96233266 160.06570725 -141.19262695 160.06689453 C-137.65402488 160.06709781 -134.11622511 160.03977746 -130.57781315 160.00535011 C-127.18858257 159.97769019 -123.79949817 159.97893104 -120.41015625 159.9765625 C-119.14438248 159.96219147 -117.8786087 159.94782043 -116.57447815 159.93301392 C-105.43126803 159.99089334 -105.43126803 159.99089334 -100.875 164.4375 C-96.35085587 169.51725733 -96.28585562 173.88640182 -96.34375 180.3671875 C-96.3399231 181.3163504 -96.33609619 182.26551331 -96.33215332 183.24343872 C-96.32943917 185.24547388 -96.33676546 187.24754479 -96.35351562 189.24951172 C-96.3748847 192.29606237 -96.35372151 195.34024215 -96.328125 198.38671875 C-96.33076929 200.33854682 -96.33589637 202.29037343 -96.34375 204.2421875 C-96.33565308 205.14452118 -96.32755615 206.04685486 -96.31921387 206.97653198 C-96.42088097 213.91855983 -98.03938471 219.3482931 -102.796875 224.53125 C-103.40015625 224.9953125 -104.0034375 225.459375 -104.625 225.9375 C-105.23859375 226.4221875 -105.8521875 226.906875 -106.484375 227.40625 C-106.94328125 227.7465625 -107.4021875 228.086875 -107.875 228.4375 C-107.18277344 228.96923828 -107.18277344 228.96923828 -106.4765625 229.51171875 C-99.81751412 234.94687089 -94.90085834 241.54042243 -89.875 248.4375 C-89.13008301 249.4579541 -89.13008301 249.4579541 -88.37011719 250.49902344 C-83.93424673 256.58969772 -79.54222457 262.71172068 -75.15625 268.83837891 C-63.85637845 285.34112165 -63.85637845 285.34112165 -49.875 299.4375 C-49.74544922 297.89255859 -49.74544922 297.89255859 -49.61328125 296.31640625 C-47.5152633 274.00809934 -40.31742415 254.08846169 -24.875 237.4375 C-23.77865234 236.23867188 -23.77865234 236.23867188 -22.66015625 235.015625 C-16.27213574 228.32448225 -9.49996924 222.8874877 -0.875 219.4375 C-0.875 215.8075 -0.875 212.1775 -0.875 208.4375 C-1.83019531 208.48390625 -2.78539062 208.5303125 -3.76953125 208.578125 C-17.15434873 208.95177893 -27.71680093 205.9213318 -37.8125 196.66015625 C-45.58991912 188.46369515 -49.07416729 178.81011497 -48.9375 167.6875 C-48.93298828 166.99011719 -48.92847656 166.29273438 -48.92382812 165.57421875 C-48.9121002 163.86194197 -48.89416653 162.14970967 -48.875 160.4375 C-49.78894531 160.32792969 -50.70289063 160.21835938 -51.64453125 160.10546875 C-57.24375687 158.94770868 -60.44596268 155.3275171 -63.8125 150.875 C-65.73164998 144.66598535 -66.40101346 137.86594358 -63.703125 131.8046875 C-62.21458283 129.54118266 -60.63760976 127.49319007 -58.875 125.4375 C-58.37613281 124.81617188 -57.87726563 124.19484375 -57.36328125 123.5546875 C-56.22973999 122.15806073 -55.05701839 120.79334462 -53.875 119.4375 C-56.73686826 117.87588696 -59.32783438 117.07246312 -62.5 116.375 C-70.14515861 114.1437463 -75.59167823 108.79532613 -80 102.3125 C-81.7068738 94.75348746 -82.55864284 85.90364611 -79.0625 78.75 C-75.60227273 73.51022727 -75.60227273 73.51022727 -73.875 71.4375 C-75.050625 69.890625 -75.050625 69.890625 -76.25 68.3125 C-82.06259722 60.66434576 -81.59339578 51.55839826 -80.875 42.4375 C-78.99822073 34.49209313 -73.51445983 28.27172272 -67.19140625 23.34765625 C-63.24559527 21.07498067 -59.5889187 20.18866516 -55.1875 19.1875 C-48.08624602 17.40788098 -43.06539347 15.01996788 -37.3125 10.36328125 C-26.41981406 1.75736111 -13.48034905 -0.08067674 0 0 Z M120.125 386.5625 C119.25488281 387.4184375 118.38476562 388.274375 117.48828125 389.15625 C112.65190397 393.66607977 112.65190397 393.66607977 110.8828125 399.73388672 C110.96273438 400.6260791 111.04265625 401.51827148 111.125 402.4375 C122.81350963 407.0607998 122.81350963 407.0607998 135.125 407.4375 C138.91395947 405.57582511 140.8208332 403.14261394 142.5 399.25 C143.72700925 391.7652436 144.09741641 385.2263931 140 378.625 C137.54593347 377.07075786 135.34852174 376.78125832 132.46923828 376.82836914 C127.24558824 378.18569125 123.73671518 382.77879838 120.125 386.5625 Z " fill="#010000" transform="translate(344.875,7.5625)"/>
<path d="M0 0 C0.72985107 0.35352539 1.45970215 0.70705078 2.21166992 1.07128906 C27.7735396 13.99938413 47.80617193 37.42474508 56.875 64.5625 C59.79909764 74.01412874 61 81.66568713 61 91.75 C3.58 91.75 -53.84 91.75 -113 91.75 C-113 66.38382103 -100.48414126 44.69271607 -83.3125 26.6875 C-68.63625403 12.41334296 -50.72093651 4.29996791 -31 -0.25 C-30.29858887 -0.41371094 -29.59717773 -0.57742188 -28.87451172 -0.74609375 C-18.41405195 -3.13931641 -9.86221498 -4.85474207 0 0 Z " fill="#FBD66F" transform="translate(170,396.25)"/>
<path d="M0 0 C10.36446845 6.74934185 10.36446845 6.74934185 12.78125 11.203125 C14.5233926 14.38135812 16.02598015 16.61822798 19.58007812 17.8359375 C22.77592659 18.61307774 25.9922518 19.19098671 29.23120117 19.75708008 C47.61634052 23.0060792 63.04346225 33.28565908 74.01953125 48.3984375 C84.61340531 64.94768046 88.54116138 84.06575765 84.4375 103.47265625 C81.86005569 112.80246769 77.64321387 120.60522561 71.6875 128.1875 C71.11515625 128.94804687 70.5428125 129.70859375 69.953125 130.4921875 C62.43659805 139.7754195 51.1332105 146.80581281 39.6875 150.1875 C39.0275 150.1875 38.3675 150.1875 37.6875 150.1875 C37.6875 145.5675 37.6875 140.9475 37.6875 136.1875 C38.71875 135.671875 39.75 135.15625 40.8125 134.625 C45.95138128 131.67509452 49.42139807 127.71970385 52.0625 122.4375 C53.42857344 115.33391813 53.79668492 108.46629954 50.09375 102.0390625 C47.05706605 98.04076197 43.18486709 94.24044396 38.51953125 92.2734375 C36.6875 91.1875 36.6875 91.1875 35.88671875 89.15625 C35.71785156 88.3415625 35.54898438 87.526875 35.375 86.6875 C32.78550912 77.00140439 26.25314305 69.18512944 17.75 64.0078125 C8.00455313 58.7924757 -1.55962029 58.86004087 -12.37695312 58.97265625 C-20.33801241 58.84863735 -20.33801241 58.84863735 -23.19165039 56.91259766 C-25.49758965 54.29034801 -26.30503532 52.56073386 -26.375 49.0625 C-25.07664869 45.5493141 -24.53179449 44.18039659 -21.3125 42.1875 C-17.57878815 41.85394073 -14.075647 42.00830252 -10.3125 42.1875 C-10.3125 36.9075 -10.3125 31.6275 -10.3125 26.1875 C-24.06639421 26.57668116 -24.06639421 26.57668116 -35.0859375 34.015625 C-38.06098304 37.7003727 -38.06098304 37.7003727 -39.77685547 42.06713867 C-40.68501785 45.50874431 -41.39536445 47.58039545 -44.43798828 49.59448242 C-47.15372248 50.82053768 -49.88054965 51.87549809 -52.6875 52.875 C-61.44122958 56.04259871 -61.44122958 56.04259871 -68.3125 62.1875 C-69.3953125 63.4559375 -69.3953125 63.4559375 -70.5 64.75 C-73.09757357 69.67643264 -73.6381548 74.70400877 -74.3125 80.1875 C-86.61049427 77.43105301 -86.61049427 77.43105301 -89.6875 73.375 C-90.54193421 70.38448027 -90.75548104 68.28836727 -90.3125 65.1875 C-86.38163491 60.37612114 -81.66222561 58.03092386 -76.125 55.375 C-75.30580078 54.96830078 -74.48660156 54.56160156 -73.64257812 54.14257812 C-67.60825893 51.1875 -67.60825893 51.1875 -65.3125 51.1875 C-65.3125 50.5275 -65.3125 49.8675 -65.3125 49.1875 C-66.16714844 48.92453125 -67.02179688 48.6615625 -67.90234375 48.390625 C-76.93657831 45.2032891 -85.87902693 41.05444614 -90.3125 32.1875 C-90.97738702 27.52379246 -90.93317401 23.43643091 -88.375 19.375 C-83.12167573 13.02111897 -74.8069214 11.63538604 -67.109375 9.99609375 C-62.32329723 8.61240926 -58.88684607 5.91898477 -55.125 2.75 C-40.17383558 -9.07592102 -16.25502196 -9.27120264 0 0 Z " fill="#646C76" transform="translate(370.3125,29.8125)"/>
<path d="M0 0 C28.44247564 5.88465013 28.44247564 5.88465013 33.6953125 13.296875 C37.1319328 19.03216186 36.54417283 25.01316087 36.3125 31.5 C36.28994141 32.70398438 36.26738281 33.90796875 36.24414062 35.1484375 C36.18557259 38.10026661 36.10360022 41.04946573 36 44 C36.68634521 43.98404785 37.37269043 43.9680957 38.07983398 43.95166016 C38.98032471 43.93925293 39.88081543 43.9268457 40.80859375 43.9140625 C41.70118896 43.89811035 42.59378418 43.8821582 43.51342773 43.86572266 C46.70647006 44.03815008 48.56232611 44.95549932 51 47 C52.40457737 49.80915474 52.24895157 51.88810534 52 55 C50.22015595 58.1359157 49.47691793 58.84102736 46 60 C42.7 60 39.4 60 36 60 C36 87.06 36 114.12 36 142 C6 149 6 149 4 149 C2.77488667 133.22666584 2.77488667 133.22666584 5.60546875 128.08203125 C7.64264195 125.92255121 9.78686425 123.97630572 12 122 C13.69187883 119.84511074 13.69187883 119.84511074 15.0625 117.625 C15.66771484 116.68527344 15.66771484 116.68527344 16.28515625 115.7265625 C17.30010325 113.80850721 17.30010325 113.80850721 16 111 C14.02274622 109.28545408 14.02274622 109.28545408 11.625 107.75 C10.83351563 107.20859375 10.04203125 106.6671875 9.2265625 106.109375 C6.92159344 104.63385054 6.92159344 104.63385054 4 106 C2.34289326 108.11980302 2.34289326 108.11980302 0.75 110.6875 C-3.47869749 116.92349061 -7.7323711 121.57745703 -15 124 C-22.92437495 125.1563988 -29.51188343 123.73304141 -36 119 C-39.27387004 115.64117924 -42 112.81094206 -42 108 C-41.10539062 107.90203125 -40.21078125 107.8040625 -39.2890625 107.703125 C-27.56853327 106.25367789 -18.13953669 104.00582884 -10 95 C-8.14581739 92.42399448 -6.50815275 89.79153273 -5 87 C-6.2065625 86.62875 -6.2065625 86.62875 -7.4375 86.25 C-11.74324143 84.73921353 -15.85364007 82.89811144 -20 81 C-20.27328125 81.60585938 -20.5465625 82.21171875 -20.828125 82.8359375 C-23.05623059 86.95050582 -26.62991572 89.34609614 -30.75 91.3125 C-35.24162561 92.26265157 -39.41119882 92.12402165 -44 92 C-44 86.72 -44 81.44 -44 76 C-47.403125 76.061875 -47.403125 76.061875 -50.875 76.125 C-54.7421875 76.1953125 -54.7421875 76.1953125 -58 76 C-58.66 75.34 -59.32 74.68 -60 74 C-59.85251251 68.42005661 -57.25786171 64.924544 -54.125 60.5625 C-47.84024098 51.7149358 -45.03753006 44.31165047 -44.68359375 33.2890625 C-44.64169922 32.04511719 -44.59980469 30.80117188 -44.55664062 29.51953125 C-44.49766602 27.59173828 -44.49766602 27.59173828 -44.4375 25.625 C-44.39431641 24.31660156 -44.35113281 23.00820313 -44.30664062 21.66015625 C-44.20087571 18.44020203 -44.09878421 15.22017469 -44 12 C-43.20416504 11.9906543 -42.40833008 11.98130859 -41.58837891 11.97167969 C-37.93332349 11.91753072 -34.27948716 11.83396924 -30.625 11.75 C-29.37332031 11.73582031 -28.12164062 11.72164062 -26.83203125 11.70703125 C-18.61144388 11.49183263 -10.25709937 11.04752872 -4.00634766 5.10449219 C-2.5594711 3.45970405 -1.24462036 1.80115792 0 0 Z " fill="#EECEB2" transform="translate(116,236)"/>
<path d="M0 0 C25.36462082 9.58484716 50.68216282 19.29240216 76 29 C76.02187378 30.43666016 76.02187378 30.43666016 76.04418945 31.90234375 C76.10258363 35.48848011 76.17980984 39.07401526 76.26245117 42.65966797 C76.29550862 44.20546643 76.32359903 45.75138004 76.34643555 47.29736328 C76.4143359 62.36390951 76.4143359 62.36390951 84 75 C84.64187256 75.33128906 85.28374512 75.66257812 85.94506836 76.00390625 C88.5372466 77.43439915 90.14877521 78.66970426 92 81 C93.11709442 86.11513671 92.9877829 91.17258875 92.875 96.375 C92.79473945 108.74085817 93.05249888 117.7949483 100 128.375 C100.67675781 129.44041016 100.67675781 129.44041016 101.3671875 130.52734375 C103.11851411 133.25796246 104.69910957 135.69910957 107 138 C108.03974989 151.00487164 100.70024218 164.87469728 92.796875 174.75390625 C82.09263158 186.96912281 82.09263158 186.96912281 76 189 C75.80181009 183.9648329 75.65688777 178.93194594 75.56054688 173.89379883 C75.52038283 172.18148246 75.46583602 170.46943936 75.39648438 168.75805664 C74.8321036 154.47009333 74.8321036 154.47009333 77.71533203 150.84082031 C79.78226194 149.57751275 81.73230959 148.82308967 84 148 C88.85485255 143.84616815 90.59089739 138.8455645 91.25390625 132.61328125 C91.54187 126.5474642 90.63364488 121.93667206 87 117 C84.27581082 114.15571895 81.57400864 111.54528157 77.8125 110.2421875 C77.214375 109.83226562 76.61625 109.42234375 76 109 C75.53125 106.09375 75.53125 106.09375 75.5 102.5 C75.01015976 92.29673198 72.21553605 85.82070026 65.5859375 78.10546875 C57.22040944 71.29426086 47.07689282 69.22244952 36.75 67.03515625 C28.78363764 65.06756073 28.78363764 65.06756073 26.45556641 61.89599609 C25.421875 59.5078125 25.421875 59.5078125 24.72949219 57.21533203 C23.13838569 52.38343767 19.59070093 48.96511826 15.328125 46.37890625 C11.38897476 44.74684048 7.83523053 44.22830915 3.625 43.8125 C1.10875 43.544375 -1.4075 43.27625 -4 43 C-4 48.28 -4 53.56 -4 59 C-1.6796875 58.9071875 -1.6796875 58.9071875 0.6875 58.8125 C4.96240243 58.8064449 7.61890939 59.16424659 11 62 C12.40457737 64.80915474 12.24895157 66.88810534 12 70 C10.22015595 73.1359157 9.47691793 73.84102736 6 75 C4.08281152 75.08865176 2.16264087 75.11761757 0.2434082 75.11352539 C-1.52808846 75.11341209 -1.52808846 75.11341209 -3.33537292 75.11329651 C-4.61044205 75.10813522 -5.88551117 75.10297394 -7.19921875 75.09765625 C-8.50454056 75.0962413 -9.80986237 75.09482635 -11.15473938 75.09336853 C-14.62189656 75.0895538 -18.08901174 75.07973244 -21.55615234 75.06866455 C-25.09537182 75.05842798 -28.6345981 75.0538661 -32.17382812 75.04882812 C-39.11590265 75.03810923 -46.05794931 75.02104534 -53 75 C-52.52949219 74.26394531 -52.05898438 73.52789062 -51.57421875 72.76953125 C-50.95160156 71.79371094 -50.32898437 70.81789063 -49.6875 69.8125 C-49.07261719 68.84957031 -48.45773438 67.88664062 -47.82421875 66.89453125 C-47.22222656 65.93933594 -46.62023437 64.98414063 -46 64 C-45.12819092 62.64406738 -45.12819092 62.64406738 -44.23876953 61.26074219 C-42.73282474 59.11818262 -42.73282474 59.11818262 -43.4921875 57.015625 C-45.49111626 54.3434819 -47.73517701 52.07854548 -50.125 49.75 C-51.03507812 48.85796875 -51.94515625 47.9659375 -52.8828125 47.046875 C-53.58148438 46.37140625 -54.28015625 45.6959375 -55 45 C-51.14775005 40.86460595 -47.03180437 37.77724826 -42.3125 34.6875 C-41.63638672 34.23310547 -40.96027344 33.77871094 -40.26367188 33.31054688 C-35.26051457 30 -35.26051457 30 -33 30 C-35.64 26.04 -38.28 22.08 -41 18 C-37.50362329 16.8345411 -36.41648823 17.22238989 -32.94140625 18.22265625 C-31.92425537 18.51132568 -30.90710449 18.79999512 -29.85913086 19.09741211 C-28.77124268 19.41589111 -27.68335449 19.73437012 -26.5625 20.0625 C-25.45334229 20.38033447 -24.34418457 20.69816895 -23.20141602 21.02563477 C-13.10873961 23.93060988 -3.04540825 26.93586988 7 30 C6.68192383 28.84999512 6.68192383 28.84999512 6.35742188 27.67675781 C5.39968608 24.20259752 4.44976181 20.72634826 3.5 17.25 C3.16613281 16.0434375 2.83226562 14.836875 2.48828125 13.59375 C2.17246094 12.43359375 1.85664062 11.2734375 1.53125 10.078125 C1.23798828 9.00981445 0.94472656 7.94150391 0.64257812 6.84082031 C0 4 0 4 0 0 Z " fill="#B07745" transform="translate(92,157)"/>
<path d="M0 0 C1.49080078 -0.07347656 1.49080078 -0.07347656 3.01171875 -0.1484375 C9.42907696 0.8692264 13.75476285 4.33856308 17.69921875 9.38671875 C18.81403883 10.9349318 19.91371759 12.49413207 21 14.0625 C21.598125 14.89974609 22.19625 15.73699219 22.8125 16.59960938 C24.05194994 18.33614398 25.28550171 20.0769032 26.51318359 21.82177734 C29.24486894 25.69802773 32.03040201 29.53486106 34.8125 33.375 C35.8831372 34.85523395 36.9534473 36.33570455 38.0234375 37.81640625 C38.55936523 38.55777832 39.09529297 39.29915039 39.64746094 40.06298828 C40.79012011 41.64964258 41.92857713 43.23932907 43.06347656 44.83154297 C57.27182203 64.76280202 71.65192876 80.55463769 96.3125 86.375 C100.9325 87.035 105.5525 87.695 110.3125 88.375 C110.3125 98.935 110.3125 109.495 110.3125 120.375 C79.66035551 120.375 52.31017095 108.40818622 30.3125 87.375 C29.59964844 86.73691406 28.88679688 86.09882813 28.15234375 85.44140625 C16.20984644 74.32252944 7.58199814 59.442553 -1.52734375 46.015625 C-3.62340262 42.92751356 -5.74026711 39.8556493 -7.87890625 36.796875 C-8.38405762 36.07193848 -8.88920898 35.34700195 -9.40966797 34.60009766 C-10.3566465 33.2428985 -11.30724911 31.88821765 -12.26220703 30.53662109 C-16.34766167 24.66309863 -18.80991478 19.66376757 -17.6875 12.375 C-15.88372024 7.55842054 -12.95265057 4.21843372 -8.6875 1.375 C-5.60785384 0.34845128 -3.23412186 0.10766603 0 0 Z " fill="#EDCEB2" transform="translate(217.6875,247.625)"/>
<path d="M0 0 C8.58791597 7.69759207 12.68215194 21.33665658 13.31640625 32.60546875 C14.06836703 54.7690854 6.9714704 72.19384143 -8.1328125 88.3828125 C-26.39784301 107.5280227 -51.177435 122.31311093 -78 125 C-79.65 125 -81.3 125 -83 125 C-83 114.11 -83 103.22 -83 92 C-78.71 90.68 -74.42 89.36 -70 88 C-50.39782011 80.02327135 -37.25540747 66.34072536 -29 47 C-27.61745125 43.61523422 -26.27477055 40.2153703 -24.9375 36.8125 C-19.33643335 22.56948413 -12.59014446 9.36190229 0 0 Z " fill="#FD816D" transform="translate(427,242)"/>
<path d="M0 0 C1.4634701 1.23581919 2.92545465 2.47364919 4.36816406 3.73364258 C11.67532532 9.40423585 20.99345115 8.4342537 29.71289062 8.43945312 C37.9153059 8.58370421 44.1011455 9.83329681 50.55859375 15.078125 C51.48865234 16.15320313 51.48865234 16.15320313 52.4375 17.25 C53.07558594 17.95640625 53.71367187 18.6628125 54.37109375 19.390625 C56.47377835 22.75895428 57.64802376 26.058986 58 30 C56.09033461 35.44295834 52.57659728 39.70410785 48.8125 44 C48.27553497 44.61861908 47.73856995 45.23723816 47.18533325 45.87460327 C37.8686833 55.89638792 27.54703766 58.30970467 14.3515625 58.83203125 C8.20931267 59.02345776 2.079879 58.96538053 -4.0625 58.8125 C-4.83635921 58.79398987 -5.61021843 58.77547974 -6.40752792 58.75640869 C-34.98691894 58.01308106 -34.98691894 58.01308106 -38 55 C-37.72030926 51.27079017 -35.82056688 49.55123931 -33.25 47 C-24.86462563 37.92211715 -22.76657933 27.21996009 -22.74609375 15.28710938 C-22.61101857 11.24551778 -22.34562637 9.45441165 -19.828125 6.14453125 C-16.94871888 3.96111418 -14.33855254 2.49619122 -11 1.125 C-9.989375 0.69445312 -8.97875 0.26390625 -7.9375 -0.1796875 C-4.73714201 -1.07340449 -3.12202702 -1.06011104 0 0 Z " fill="#EECEB2" transform="translate(334,95)"/>
<path d="M0 0 C21.12 0 42.24 0 64 0 C64 18.81 64 37.62 64 57 C42.88 57 21.76 57 0 57 C0 38.19 0 19.38 0 0 Z " fill="#FE816D" transform="translate(312,431)"/>
<path d="M0 0 C15.84 0 31.68 0 48 0 C48 23.76 48 47.52 48 72 C32.16 72 16.32 72 0 72 C0 48.24 0 24.48 0 0 Z " fill="#969FAA" transform="translate(392,416)"/>
<path d="M0 0 C4.26029191 0.57999024 7.35161535 3.12387893 10.75 5.5625 C11.35199219 5.98724609 11.95398438 6.41199219 12.57421875 6.84960938 C14.05329714 7.89435522 15.52717259 8.94646016 17 10 C11.61011236 16.35730337 11.61011236 16.35730337 8.87890625 19.234375 C-2.71336895 31.52982114 -8.69822395 45.60188459 -14.81982422 61.07177734 C-17.97542538 69.02181122 -21.2462427 75.63250859 -27 82 C-27.49757813 82.60070312 -27.99515625 83.20140625 -28.5078125 83.8203125 C-37.08679444 93.43394552 -50.43851611 99.21667601 -63 101 C-71.13877926 101.44925226 -79.08789137 101.06862382 -87 99 C-88 98 -88 98 -88.1328125 94.9375 C-88.0957814 76.27382785 -88.0957814 76.27382785 -85 69 C-84.29504395 68.98541748 -83.59008789 68.97083496 -82.86376953 68.95581055 C-79.61700886 68.88055803 -76.37119124 68.78415626 -73.125 68.6875 C-72.01640625 68.66494141 -70.9078125 68.64238281 -69.765625 68.61914062 C-61.0437231 68.33696145 -52.60654732 67.32544738 -45.25 62.25 C-44.57453125 61.80140625 -43.8990625 61.3528125 -43.203125 60.890625 C-37.281281 55.80875887 -33.71058738 50.00837023 -30.3125 43.0625 C-23.42620497 29.51932126 -14.84615633 17.54308908 -5 6 C-3.97782261 4.77195082 -2.95672878 3.54299749 -1.9375 2.3125 C-0.9784375 1.1678125 -0.9784375 1.1678125 0 0 Z " fill="#5AD3B1" transform="translate(400,219)"/>
<path d="M0 0 C0.33 0 0.66 0 1 0 C1 23.1 1 46.2 1 70 C-14.84 70 -30.68 70 -47 70 C-47 59.77 -47 49.54 -47 39 C-44.586875 37.700625 -42.17375 36.40125 -39.6875 35.0625 C-32.45916534 31.05881022 -26.17519515 26.5135671 -20 21 C-19.14921875 20.26910156 -18.2984375 19.53820312 -17.421875 18.78515625 C-7.49363438 10.40130654 -7.49363438 10.40130654 0 0 Z " fill="#FE816D" transform="translate(439,330)"/>
<path d="M0 0 C0.07436755 4.6081187 0.12870394 9.21588514 0.16479492 13.82446289 C0.17984622 15.39093107 0.20029207 16.95735736 0.22631836 18.52368164 C0.26286433 20.78021606 0.27976261 23.03619153 0.29296875 25.29296875 C0.30845261 25.98899704 0.32393646 26.68502533 0.33988953 27.40214539 C0.34138827 31.76958966 -0.24663444 34.56765618 -3 38 C-5.99367018 38.99789006 -8.01388009 39.137985 -11.14233398 39.16113281 C-12.19029648 39.17074036 -13.23825897 39.1803479 -14.31797791 39.19024658 C-15.44925613 39.19449646 -16.58053436 39.19874634 -17.74609375 39.203125 C-18.90875259 39.20882507 -20.07141144 39.21452515 -21.26930237 39.22039795 C-23.72973724 39.2298485 -26.19018476 39.23638215 -28.65063477 39.24023438 C-32.41900597 39.24995231 -36.18683468 39.28098101 -39.95507812 39.3125 C-42.34374676 39.3190288 -44.73241929 39.32427975 -47.12109375 39.328125 C-48.25034775 39.3404718 -49.37960175 39.3528186 -50.54307556 39.36553955 C-51.59419022 39.36253845 -52.64530487 39.35953735 -53.72827148 39.35644531 C-55.11368385 39.36191376 -55.11368385 39.36191376 -56.52708435 39.36749268 C-59.49892716 38.92585591 -60.84641834 38.06933457 -63 36 C-64.09911549 32.70265354 -64.1139456 30.27041255 -64.09765625 26.80078125 C-64.09443359 25.59228516 -64.09121094 24.38378906 -64.08789062 23.13867188 C-64.07951172 21.87603516 -64.07113281 20.61339844 -64.0625 19.3125 C-64.05573242 17.40114258 -64.05573242 17.40114258 -64.04882812 15.45117188 C-64.03702873 12.30073436 -64.02056597 9.15039051 -64 6 C-63.15107178 6.02094727 -62.30214355 6.04189453 -61.42749023 6.06347656 C-40.5107403 6.50938447 -19.91981029 0 0 0 Z " fill="#5BD4B2" transform="translate(376,377)"/>
<path d="M0 0 C1.74731445 0.97973633 1.74731445 0.97973633 3.74731445 3.97973633 C4.10749403 7.36542439 4.12917283 9.30693823 2.43481445 12.29223633 C0.19315381 14.53389697 -1.60201157 14.95411924 -4.7331543 15.07739258 C-5.62647461 15.06579102 -6.51979492 15.05418945 -7.44018555 15.04223633 C-8.34124023 15.03321289 -9.24229492 15.02418945 -10.1706543 15.01489258 C-10.85772461 15.00329102 -11.54479492 14.99168945 -12.25268555 14.97973633 C-12.23270004 15.62151825 -12.21271454 16.26330017 -12.19212341 16.92453003 C-11.99207844 23.64071265 -11.85689488 30.35604169 -11.75830078 37.07446289 C-11.71320692 39.57709153 -11.65191214 42.07948525 -11.57373047 44.58129883 C-11.46379322 48.19126442 -11.41334831 51.79808227 -11.3737793 55.40942383 C-11.32732773 56.51712128 -11.28087616 57.62481873 -11.23301697 58.76608276 C-11.22887074 65.23352411 -12.20256188 68.61868938 -16.58374023 73.48510742 C-18.13394506 74.98963852 -19.68998654 76.48818659 -21.25268555 77.97973633 C-23.61496996 80.82913135 -25.84028677 83.77228215 -28.06518555 86.72973633 C-28.61110352 87.44516602 -29.15702148 88.1605957 -29.71948242 88.89770508 C-32.7102375 92.83957089 -35.55790548 96.82990553 -38.25268555 100.97973633 C-45.26407551 92.33235538 -45.55134989 85.24749458 -44.68920898 74.2800293 C-44.25268555 71.97973633 -44.25268555 71.97973633 -42.41674805 69.38989258 C-40.06518555 67.79223633 -40.06518555 67.79223633 -37.5847168 66.45239258 C-32.71352059 63.37627705 -31.00875371 57.24794081 -29.25268555 51.97973633 C-29.40435527 50.28600173 -29.61148444 48.59698317 -29.8503418 46.91333008 C-30.74576073 36.91851871 -30.72959626 28.35779921 -24.19026184 20.30741882 C-21.40773624 17.15654089 -18.47931277 14.19492266 -15.44018555 11.29223633 C-14.8370755 10.71190643 -14.23396545 10.13157654 -13.61257935 9.53366089 C-11.86425091 7.87849885 -10.09197295 6.25837237 -8.2956543 4.65551758 C-7.4781218 3.9184407 -7.4781218 3.9184407 -6.64407349 3.16647339 C-2.87330874 -0.02584639 -2.87330874 -0.02584639 0 0 Z " fill="#EECEB2" transform="translate(404.252685546875,137.020263671875)"/>
<path d="M0 0 C15.84 0 31.68 0 48 0 C48 20.92857143 48 20.92857143 42.375 26.6875 C36.61844434 31.08289964 29.7095767 32.67318298 22.546875 32.40625 C14.88089517 31.18345567 9.13619921 27.02511834 4.40625 21.0234375 C-0.77561152 13.56731454 0 9.93377632 0 0 Z " fill="#E4E7EB" transform="translate(312,168)"/>
<path d="M0 0 C5.67406841 3.21302669 10.62382932 7.62963703 13.3359375 13.63671875 C14.67153267 19.03902999 14.15749367 24.584852 13.9453125 30.1015625 C8.6653125 30.1015625 3.3853125 30.1015625 -2.0546875 30.1015625 C-2.1784375 27.5028125 -2.1784375 27.5028125 -2.3046875 24.8515625 C-2.63670749 21.31759628 -2.83707037 19.44813793 -4.7421875 16.4140625 C-7.81231561 14.67155736 -9.57681076 14.52191638 -13.0546875 15.1015625 C-15.5914984 16.2998142 -15.5914984 16.2998142 -17.0546875 19.1015625 C-17.6874773 22.79726763 -17.87560468 26.34082324 -18.0546875 30.1015625 C-23.3346875 30.1015625 -28.6146875 30.1015625 -34.0546875 30.1015625 C-34.68125 13.8109375 -34.68125 13.8109375 -30.0546875 8.1015625 C-21.49964938 -0.83653703 -12.07013706 -5.22876383 0 0 Z " fill="#020202" transform="translate(122.0546875,265.8984375)"/>
<path d="M0 0 C2.06427775 0.89452036 3.94698943 1.96819366 5.875 3.125 C8.82218422 4.33854644 10.8313494 4.38023807 14 4 C16.0360882 2.72245446 18.04109119 1.39300182 20 0 C20.99 0 21.98 0 23 0 C23 0.66 23 1.32 23 2 C23.66 2 24.32 2 25 2 C26.70884005 3.62339805 28.37446717 5.29319053 30 7 C30.66 7.66 31.32 8.32 32 9 C31.890625 10.9296875 31.890625 10.9296875 31 13 C29.109375 14.6328125 29.109375 14.6328125 26.75 16.125 C25.59757812 16.87136719 25.59757812 16.87136719 24.421875 17.6328125 C17.99206465 21.26254415 12.31262957 22.01854483 5 21 C-0.17333314 19.08417453 -6.69637175 16.66740361 -10 12 C-9.82247493 8.44239751 -8.05418855 6.70058404 -5.5625 4.3125 C-4.94503906 3.71050781 -4.32757813 3.10851562 -3.69140625 2.48828125 C-2 1 -2 1 0 0 Z " fill="#070605" transform="translate(333,115)"/>
<path d="M0 0 C15.84 0 31.68 0 48 0 C44.67180926 5.54698457 44.67180926 5.54698457 41.5625 7.4375 C38.71149431 9.29890041 37.98893389 10.02090265 36.3125 13.1875 C33.03588862 17.17256789 29.85030533 17.05571794 24.875 17.578125 C22.111344 17.98366148 20.43469614 18.71968565 18 20 C17.01 20 16.02 20 15 20 C14.63261719 19.05640625 14.63261719 19.05640625 14.2578125 18.09375 C11.34851462 11.43246107 7.91669133 7.80050419 2.01171875 3.59375 C1.34785156 3.0678125 0.68398437 2.541875 0 2 C0 1.34 0 0.68 0 0 Z " fill="#A8B0BB" transform="translate(184,216)"/>
<path d="M0 0 C3.41783867 1.13927956 3.87349509 1.81382173 5.75 4.75 C6.19859375 5.42546875 6.6471875 6.1009375 7.109375 6.796875 C8.27172803 9.67216933 7.91937229 11.06161406 7 14 C4.34602845 20.06622068 1.04120875 25.25886098 -5.01171875 28.23828125 C-11.82120999 29.97403392 -19.03534651 29.33808998 -26 29 C-23.44247982 23.46069811 -20.92833055 19.37249943 -16.75 14.9375 C-16.26982422 14.42654785 -15.78964844 13.9155957 -15.29492188 13.38916016 C-10.58546692 8.43984282 -5.69572725 3.7971515 0 0 Z " fill="#FA7F6C" transform="translate(348,243)"/>
<path d="M0 0 C5.28 0 10.56 0 16 0 C16 5.28 16 10.56 16 16 C10.72 16 5.44 16 0 16 C0 10.72 0 5.44 0 0 Z " fill="#CCD1D9" transform="translate(216,184)"/>
<path d="M0 0 C5.28 0 10.56 0 16 0 C16 5.28 16 10.56 16 16 C10.72 16 5.44 16 0 16 C0 10.72 0 5.44 0 0 Z " fill="#CCD1D9" transform="translate(184,184)"/>
</svg>
