<?xml version="1.0" encoding="UTF-8"?>
<svg version="1.1" xmlns="http://www.w3.org/2000/svg" width="512" height="512">
<path d="M0 0 C3.83245809 2.38505869 6.9354964 5.48729716 10.13842773 8.64331055 C11.47046036 9.93241634 12.80379252 11.2201807 14.13842773 12.5065918 C14.79633301 13.14274414 15.45423828 13.77889648 16.13208008 14.43432617 C18.76895296 16.92680957 21.49802881 19.30180088 24.2409668 21.67626953 C27.05280568 24.12812647 29.78326263 26.66381472 32.51342773 29.20581055 C36.36366129 32.77594628 40.22722248 36.32728792 44.13842773 39.83081055 C48.00505341 43.29570888 51.82856559 46.80385623 55.63842773 50.33081055 C60.26192875 54.61058678 64.91935161 58.8483971 69.61108398 63.0534668 C72.46924977 65.6289083 75.30553035 68.22766818 78.13842773 70.83081055 C82.58769429 74.91877267 87.06629859 78.97223416 91.56420898 83.0065918 C95.46333475 86.52704677 99.32191143 90.0912093 103.18139648 93.6550293 C106.44555635 96.60872745 109.79605354 99.46591838 113.13842773 102.33081055 C113.46842773 90.12081055 113.79842773 77.91081055 114.13842773 65.33081055 C111.49842773 65.33081055 108.85842773 65.33081055 106.13842773 65.33081055 C103.30988899 64.06950769 102.30297679 62.70653512 100.13842773 60.33081055 C98.710575 55.12657807 98.9167343 49.81282756 98.88842773 44.45581055 C98.85749023 43.00368164 98.85749023 43.00368164 98.82592773 41.5222168 C98.79411713 35.6770175 99.21875656 31.44705676 102.13842773 26.33081055 C105.89167652 23.82864469 108.85426887 24.02813757 113.20239258 24.02441406 C114.43458275 24.01192879 114.43458275 24.01192879 115.69166565 23.99919128 C118.41094687 23.97506892 121.12998832 23.96631652 123.84936523 23.9597168 C125.73882114 23.95075222 127.6282763 23.9416304 129.51773071 23.93235779 C133.48050665 23.9158592 137.44319802 23.90816609 141.40600586 23.90527344 C146.48278918 23.89988849 151.55877723 23.86220768 156.63533592 23.81652927 C160.53871561 23.78678021 164.4419033 23.77955035 168.34538651 23.77854729 C170.21690132 23.77434076 172.0884165 23.76188911 173.95981979 23.74102974 C176.57903182 23.7141592 179.19639414 23.7189271 181.81567383 23.73144531 C182.97385872 23.70919388 182.97385872 23.70919388 184.15544128 23.68649292 C188.13143397 23.74057952 189.94758823 24.18159275 193.11717224 26.65989685 C195.71180177 30.08847457 195.79630628 32.15181495 195.83764648 36.42456055 C195.84837944 37.42827698 195.84837944 37.42827698 195.85932922 38.45227051 C195.86708084 39.86082637 195.86214751 41.2695031 195.84521484 42.67797852 C195.82596823 44.82629021 195.86540138 46.96813962 195.90991211 49.1159668 C195.97430023 58.75305034 195.97430023 58.75305034 194.03540039 62.4128418 C191.9679764 64.40385032 189.90483025 65.27591266 187.05082703 65.48034668 C185.08002726 65.4305013 183.1092275 65.38065592 181.13842773 65.33081055 C180.96743783 78.16206144 180.86731845 90.99176469 180.85602093 103.82420731 C180.84858218 109.78403012 180.81734525 115.74169151 180.73046875 121.70092773 C180.64741459 127.45945501 180.62851079 133.21504367 180.65284157 138.97408295 C180.65105866 141.16367975 180.62671116 143.35338558 180.57874107 145.54245758 C179.92572435 158.13994299 179.92572435 158.13994299 184.90615845 169.21618652 C187.52614377 171.8419425 190.36260833 174.01300164 193.42341042 176.09732819 C196.37813821 178.22244061 198.94862064 180.75877997 201.57592773 183.26831055 C204.4507632 185.91923672 207.33950159 188.51204668 210.36889648 190.9831543 C214.19953195 194.23027971 215.79851788 196.86835252 216.48999023 201.87768555 C216.79304104 207.65160098 216.19716622 211.94406929 212.75170898 216.6706543 C208.93844925 220.59471093 204.52693233 222.50421149 199.07592773 222.76831055 C191.54020735 221.93100828 188.02178024 219.2336043 182.13842773 214.33081055 C181.80842773 281.98081055 181.47842773 349.63081055 181.13842773 419.33081055 C185.75842773 419.33081055 190.37842773 419.33081055 195.13842773 419.33081055 C203.15976235 420.16419596 207.86365466 423.18750054 213.13842773 429.33081055 C216.09525062 434.04449007 216.49681373 437.62104385 216.38842773 443.14331055 C216.38327148 443.82329102 216.37811523 444.50327148 216.37280273 445.20385742 C216.29349042 450.17574786 216.29349042 450.17574786 215.13842773 451.33081055 C212.79015659 451.43286686 210.47114404 451.46969123 208.12220764 451.46452332 C207.00823291 451.46792165 207.00823291 451.46792165 205.87175363 451.47138864 C203.36435674 451.47775715 200.8570135 451.47689746 198.34960938 451.47607422 C196.55962554 451.47906393 194.76964236 451.48246602 192.97966003 451.48625183 C188.10370398 451.49511505 183.22776544 451.49743091 178.35180211 451.49806762 C174.28842686 451.49901476 170.22505574 451.50269078 166.16168207 451.50623971 C156.5791401 451.51439306 146.99660754 451.51682314 137.4140625 451.51611328 C127.5126017 451.51551222 117.61119534 451.52606775 107.70974833 451.54185694 C99.22314034 451.55491025 90.73655019 451.56029811 82.24993223 451.55965787 C77.1749289 451.55940224 72.09997392 451.56228933 67.02498055 451.57283592 C62.25376061 451.58247986 57.4826356 451.58262171 52.71141243 451.57531929 C50.95617536 451.57426882 49.20093249 451.57666351 47.44570541 451.58267975 C45.05756721 451.59033776 42.66976192 451.58579644 40.28163147 451.57804871 C39.57998668 451.58319227 38.8783419 451.58833583 38.15543514 451.59363526 C33.36669899 451.5590818 33.36669899 451.5590818 31.13842773 449.33081055 C28.2575485 449.01882516 28.2575485 449.01882516 24.88842773 449.06518555 C23.64061523 449.06260742 22.39280273 449.0600293 21.10717773 449.05737305 C19.79749023 449.06510742 18.48780273 449.0728418 17.13842773 449.08081055 C15.82874023 449.07307617 14.51905273 449.0653418 13.16967773 449.05737305 C11.92186523 449.05995117 10.67405273 449.0625293 9.38842773 449.06518555 C7.66366211 449.06856934 7.66366211 449.06856934 5.90405273 449.07202148 C2.99642942 449.04737378 2.99642942 449.04737378 1.13842773 451.33081055 C-1.95548101 451.5267992 -4.95982527 451.59550878 -8.05482483 451.57804871 C-9.01954647 451.58046312 -9.98426811 451.58287754 -10.97822374 451.58536512 C-14.23115552 451.59102914 -17.48389326 451.58231865 -20.73681641 451.57373047 C-23.06058302 451.57480267 -25.38434938 451.57674043 -27.70811462 451.57948303 C-34.0343341 451.5843441 -40.3604834 451.5766602 -46.68669438 451.56652999 C-52.62389649 451.55865773 -58.5610928 451.55936706 -64.49829917 451.55980531 C-76.26141099 451.56030625 -88.02449564 451.55113539 -99.78759766 451.53662109 C-111.21370946 451.52252982 -122.63979736 451.51545043 -134.06591797 451.51611328 C-134.76975807 451.51615324 -135.47359818 451.51619319 -136.19876678 451.51623436 C-137.25266459 451.51629489 -137.25266459 451.51629489 -138.32785326 451.51635665 C-150.66177926 451.51701082 -162.99569538 451.51186972 -175.32961845 451.50356483 C-180.58999139 451.50002434 -185.85036087 451.49820049 -191.11073494 451.49767113 C-197.29860475 451.49667022 -203.48644922 451.49059433 -209.67431068 451.48050499 C-211.95243423 451.47757194 -214.2305607 451.47635624 -216.50868607 451.47693253 C-219.60425254 451.47741947 -222.69974687 451.47180471 -225.79530334 451.46452332 C-226.70929006 451.46607192 -227.62327678 451.46762052 -228.56496006 451.46921605 C-234.74739377 451.44498904 -234.74739377 451.44498904 -235.86157227 450.33081055 C-237.20217249 435.14372512 -237.20217249 435.14372512 -232.40454102 428.9753418 C-231.89536133 428.43264648 -231.38618164 427.88995117 -230.86157227 427.33081055 C-230.34208008 426.75717773 -229.82258789 426.18354492 -229.28735352 425.5925293 C-221.20406469 417.69766212 -211.92971466 419.33081055 -200.86157227 419.33081055 C-201.19157227 351.68081055 -201.52157227 284.03081055 -201.86157227 214.33081055 C-204.83157227 216.64081055 -207.80157227 218.95081055 -210.86157227 221.33081055 C-216.33735889 223.15607276 -221.76897574 223.13208078 -227.11157227 220.83081055 C-231.52610561 218.2968684 -234.12201337 215.1106077 -235.86157227 210.33081055 C-236.81829328 204.94337339 -236.68948354 200.05174433 -233.98657227 195.20581055 C-230.35208603 190.18675813 -225.529329 186.34936606 -220.86157227 182.33081055 C-218.84767809 180.51247909 -216.85465112 178.67190197 -214.86157227 176.83081055 C-211.23510252 173.49648267 -207.59262894 170.18133622 -203.92407227 166.89331055 C-200.03786629 163.40632958 -196.1931442 159.87749069 -192.36157227 156.33081055 C-187.73804615 152.05106099 -183.08064892 147.81322447 -178.38891602 143.6081543 C-175.53075023 141.03271279 -172.69446965 138.43395291 -169.86157227 135.83081055 C-165.40824609 131.73911848 -160.92497338 127.68258078 -156.42407227 123.64331055 C-153.03758905 120.58721594 -149.67912412 117.50095443 -146.3203125 114.41455078 C-143.20524102 111.5547885 -140.07305552 108.71565696 -136.92407227 105.89331055 C-133.03786526 102.40632866 -129.193186 98.87744662 -125.36157227 95.33081055 C-120.70114617 91.01781284 -116.0209935 86.73031217 -111.27563477 82.51049805 C-109.55795825 80.95958624 -107.86785906 79.37789495 -106.19750977 77.77612305 C-105.32352539 76.94854492 -104.44954102 76.1209668 -103.54907227 75.26831055 C-102.37924805 74.1371582 -102.37924805 74.1371582 -101.18579102 72.9831543 C-98.86157227 71.33081055 -98.86157227 71.33081055 -96.33813477 71.33862305 C-93.72265914 71.58556924 -93.72265914 71.58556924 -91.68579102 69.6081543 C-90.98067383 68.83600586 -90.27555664 68.06385742 -89.54907227 67.26831055 C-86.65025972 64.19556925 -83.75555384 61.27014175 -80.54907227 58.51831055 C-79.90196289 57.95885742 -79.25485352 57.3994043 -78.58813477 56.82299805 C-78.01836914 56.33057617 -77.44860352 55.8381543 -76.86157227 55.33081055 C-73.88155697 52.89099579 -73.88155697 52.89099579 -72.54907227 49.51831055 C-71.5589135 46.36780537 -69.65661243 44.80386475 -67.29907227 42.51831055 C-65.93008789 41.18993164 -65.93008789 41.18993164 -64.53344727 39.8347168 C-61.78016304 37.25451916 -58.98074972 34.75385346 -56.11547852 32.29956055 C-53.18636038 29.74102408 -50.33801876 27.10029058 -47.48657227 24.45581055 C-42.78217757 20.09671113 -38.05597656 15.76614408 -33.26782227 11.4987793 C-31.58241067 9.98026723 -29.9172533 8.43911176 -28.26782227 6.8815918 C-19.53324237 -1.28734512 -11.46468854 -5.97736165 0 0 Z " fill="#3D332C" transform="translate(265.861572265625,31.669189453125)"/>
<path d="M0 0 C3.39344442 1.48848812 5.78229967 3.4326862 8.5 5.9375 C9.3765625 6.74058594 10.253125 7.54367188 11.15625 8.37109375 C12.0946875 9.23863281 13.033125 10.10617188 14 11 C15.49184018 12.36966361 16.98516643 13.73769491 18.47851562 15.10571289 C19.49858821 16.04050663 20.51811373 16.97589767 21.53710938 17.91186523 C24.67502382 20.79314167 27.8294832 23.65466441 31 26.5 C35.20684327 30.27537217 39.37674853 34.08980448 43.5390625 37.9140625 C46.67667086 40.79422607 49.83020941 43.65531614 53 46.5 C57.20761261 50.2760626 61.37842372 54.09104007 65.54125977 57.91625977 C68.65633125 60.77602204 71.78851675 63.61515359 74.9375 66.4375 C79.3920991 70.43448378 83.78918479 74.49074409 88.18115234 78.55615234 C92.24611811 82.3147798 96.34984906 86.02749843 100.47265625 89.72265625 C103.33082203 92.29809775 106.16710261 94.89685764 109 97.5 C112.64927171 100.85293117 116.31169598 104.18998357 120 107.5 C124.20761261 111.2760626 128.37842372 115.09104007 132.54125977 118.91625977 C135.65633125 121.77602204 138.78851675 124.61515359 141.9375 127.4375 C146.3920991 131.43448378 150.78918479 135.49074409 155.18115234 139.55615234 C159.23802441 143.30729605 163.3325255 147.01373396 167.44921875 150.69921875 C169.35793265 152.42086115 171.25539607 154.15163696 173.14453125 155.89453125 C173.68134521 156.38945068 174.21815918 156.88437012 174.77124023 157.39428711 C175.81259334 158.35574343 176.85255336 159.31871161 177.89086914 160.28344727 C180.79994189 162.99126222 180.79994189 162.99126222 184.13644028 165.11623859 C186.59314961 167.59957957 186.48053726 169.62222362 186.51632524 173.0144636 C186.50467387 173.84227896 186.4930225 174.67009432 186.48101807 175.522995 C186.48443577 176.40352203 186.48785347 177.28404906 186.49137473 178.19125873 C186.49798417 181.15346764 186.47592705 184.11477833 186.45410156 187.0769043 C186.45297375 189.19554625 186.45360565 191.31418977 186.45587158 193.43283081 C186.45702223 199.19500217 186.43345609 204.95684246 186.40557575 210.71893668 C186.38062049 216.7367459 186.37822474 222.75456218 186.37347412 228.77241516 C186.36102706 240.17278856 186.32818198 251.57300907 186.28807616 262.97331506 C186.24341231 275.95014158 186.22138496 288.92697529 186.20129442 301.9038595 C186.15945088 328.60267737 186.08607683 355.30128557 186 382 C158.28 382 130.56 382 102 382 C102.99 379.03 103.98 376.06 105 373 C105.57784172 369.9618166 106.08384059 366.9832975 106.5 363.92578125 C106.62086472 363.08786041 106.74172943 362.24993958 106.86625671 361.3866272 C107.25225823 358.69633057 107.62639046 356.00454285 108 353.3125 C108.26472756 351.44790518 108.53011154 349.58340344 108.79614258 347.71899414 C109.43200691 343.24779963 110.05826957 338.77533865 110.67974854 334.30212402 C111.09920971 331.28683212 111.5245315 328.27237217 111.94921875 325.2578125 C113.77301561 312.19014136 115.3910738 299.09559011 117 286 C118.02951782 285.72736328 118.02951782 285.72736328 119.07983398 285.44921875 C119.98032471 285.19785156 120.88081543 284.94648438 121.80859375 284.6875 C122.70118896 284.44386719 123.59378418 284.20023437 124.51342773 283.94921875 C128.39538086 282.46733031 129.76832485 280.45549701 132 277 C133.56840852 272.29477445 133.54895539 268.47351184 131.8125 263.8125 C128.16854985 258.1580946 124.34187301 256.69712095 118 255 C117.97812622 253.51173706 117.97812622 253.51173706 117.95581055 251.9934082 C117.8970479 248.24877057 117.81983455 244.5046864 117.73754883 240.76049805 C117.70466068 239.15186669 117.67652141 237.54312991 117.65356445 235.93432617 C117.35729372 215.70596917 113.5343374 198.30944977 98.80859375 183.62109375 C85.40080029 171.10839638 70.09579296 166.40623447 51.98779297 166.92431641 C36.39368682 167.51804926 21.95197978 174.97464012 11 186 C5.9871724 191.9676519 1.92999155 198.7753633 -1 206 C-1.387323 206.8979126 -1.387323 206.8979126 -1.7824707 207.81396484 C-5.17550262 217.01041253 -4.56954484 226.95946528 -4.6875 236.625 C-4.7207226 238.5065335 -4.75521671 240.388045 -4.79101562 242.26953125 C-4.87535375 246.84623188 -4.94242826 251.42288762 -5 256 C-5.92341187 256.17523193 -5.92341187 256.17523193 -6.86547852 256.35400391 C-7.67428467 256.51819824 -8.48309082 256.68239258 -9.31640625 256.8515625 C-10.51825562 257.08866943 -10.51825562 257.08866943 -11.74438477 257.33056641 C-15.82171434 258.54065816 -18.00943325 261.35245943 -20.13671875 264.890625 C-21.66459742 268.62390319 -20.91392005 272.15753324 -20 276 C-17.53589919 280.92820162 -15.11581914 283.01631503 -10 285 C-8.33773838 285.35464798 -6.67148266 285.69172316 -5 286 C-3.58524303 292.69083178 -2.45427379 299.36862084 -1.56640625 306.1484375 C-1.37722374 307.56375259 -1.37722374 307.56375259 -1.18421936 309.00765991 C-0.7851731 312.00455672 -0.3916306 315.00212561 0 318 C0.12755676 318.97553833 0.25511353 319.95107666 0.38653564 320.95617676 C1.41679564 328.85292369 2.43740704 336.75092715 3.45043945 344.64990234 C4.79275122 364.06566311 4.79275122 364.06566311 11 382 C8.03 382 5.06 382 2 382 C-2.21699573 369.20801902 -6.08530998 356.37683871 -9.50073242 343.34643555 C-10.75048283 338.58942426 -12.00782309 333.8544155 -13.515625 329.171875 C-16.07058447 321.23481266 -17.6047365 314.09918471 -17.54833984 305.70483398 C-17.59428251 300.62444454 -18.66285466 297.82392505 -22 294 C-28.12016902 289.52086142 -33.49399149 289.3516494 -40.9375 289.25 C-42.00291016 289.22035156 -43.06832031 289.19070313 -44.16601562 289.16015625 C-46.77741787 289.08989431 -49.38795004 289.03698252 -52 289 C-52.00054477 287.96963057 -52.00108953 286.93926113 -52.00165081 285.87766838 C-52.01604162 260.81483283 -52.05903917 235.75217105 -52.13209057 210.68943596 C-52.16675427 198.56930399 -52.19209791 186.44928592 -52.19555664 174.32910156 C-52.1985946 163.76602566 -52.21906258 153.20315253 -52.26052457 142.64015496 C-52.28187135 137.04627449 -52.29444645 131.45268242 -52.28615379 125.85876083 C-52.27862445 120.59405526 -52.29439143 115.32993458 -52.32806015 110.06533623 C-52.33630683 108.13280524 -52.33602763 106.20021623 -52.32659721 104.26769066 C-52.31499311 101.62852454 -52.33406514 98.99128102 -52.36076355 96.3522644 C-52.35009029 95.58766085 -52.33941703 94.82305729 -52.32842034 94.03528392 C-52.43746669 88.25695525 -54.03068858 85.90088353 -58 82 C-61.44640377 80.27679812 -65.2242282 80.6276488 -69 81 C-72.63467079 82.62400184 -73.77408696 83.66113044 -76 87 C-76.2012753 89.71008462 -76.28522121 92.31849318 -76.2784729 95.02946472 C-76.2842653 95.85690557 -76.2900577 96.68434642 -76.29602563 97.53686124 C-76.31307808 100.31912822 -76.31590663 103.10122985 -76.31884766 105.88354492 C-76.32814222 107.87411407 -76.33831017 109.8646793 -76.34928894 111.85523987 C-76.37665625 117.26810441 -76.39175826 122.68094284 -76.40471697 128.09385848 C-76.42031811 133.74736141 -76.4471179 139.40081076 -76.4727478 145.05427551 C-76.51958912 155.76394402 -76.55630729 166.47362254 -76.58942068 177.18334132 C-76.62760429 189.37426402 -76.67702427 201.56513297 -76.72740483 213.75601041 C-76.83080429 238.83730048 -76.92003858 263.91862504 -77 289 C-77.69561035 289.0093457 -78.3912207 289.01869141 -79.10791016 289.02832031 C-82.280975 289.08223546 -85.4525991 289.16584173 -88.625 289.25 C-89.71941406 289.26417969 -90.81382812 289.27835937 -91.94140625 289.29296875 C-99.99098969 289.53689552 -103.54964278 290.67020435 -109.34765625 296.265625 C-111.4727349 299.78230362 -111.46300776 302.76805658 -111.4375 306.75 C-111.68571524 315.05279967 -113.56229161 322.34220578 -116.12109375 330.21630859 C-117.81668786 335.58663192 -119.35396384 341.00495825 -120.91552734 346.41546631 C-121.4787167 348.36386858 -122.0459206 350.31110907 -122.61328125 352.25830078 C-125.4911891 362.15174461 -128.24175557 372.07032006 -131 382 C-148.49 382 -165.98 382 -184 382 C-184.18055671 354.08836374 -184.3279376 326.17719996 -184.41449738 298.26512814 C-184.45575603 285.30520159 -184.51201047 272.34566353 -184.60351562 259.38598633 C-184.68322959 248.09088988 -184.73486027 236.79607475 -184.75270796 225.50070482 C-184.76314167 219.51919359 -184.78767752 213.53848719 -184.84584045 207.55723381 C-184.90014436 201.92721084 -184.91689193 196.29832411 -184.90486145 190.66806412 C-184.90706224 188.60203056 -184.92297534 186.535959 -184.9536438 184.4701519 C-185.17425845 168.84307577 -185.17425845 168.84307577 -182.27302551 164.2894001 C-180.25605387 162.49984771 -178.36205192 161.27699364 -176 160 C-174.88201808 159.03278022 -173.78565478 158.03918112 -172.7265625 157.0078125 C-172.21730225 156.53529053 -171.70804199 156.06276855 -171.18334961 155.57592773 C-170.66909424 155.09712158 -170.15483887 154.61831543 -169.625 154.125 C-164.9589728 149.79885974 -160.25716759 145.5173312 -155.51953125 141.26953125 C-150.64789755 136.88128446 -145.82787676 132.43626191 -141 128 C-134.54903192 122.07230436 -128.08281284 116.1640628 -121.5625 110.3125 C-118.69399591 107.72384997 -115.8452335 105.11414854 -113 102.5 C-108.54664513 98.40833893 -104.06340146 94.35177054 -99.5625 90.3125 C-96.69399591 87.72384997 -93.8452335 85.11414854 -91 82.5 C-87.35070475 79.14709421 -83.68830432 75.81001669 -80 72.5 C-74.29338306 67.37680716 -68.64684646 62.18880061 -63 57 C-56.54903192 51.07230436 -50.08281284 45.1640628 -43.5625 39.3125 C-40.69399591 36.72384997 -37.8452335 34.11414854 -35 31.5 C-30.55070476 27.41206884 -26.0721295 23.3585767 -21.57421875 19.32421875 C-18.63660966 16.67190099 -15.72427718 13.9930904 -12.8125 11.3125 C-8.61510789 7.4506591 -4.36560782 3.6710793 0 0 Z " fill="#FBE7CA" transform="translate(255,70)"/>
<path d="M0 0 C4.51099701 2.2554985 7.69911542 5.58561023 11.171875 9.1640625 C12.92861228 10.9283072 14.73906855 12.56306325 16.625 14.1875 C20.28143897 17.34082431 23.83484201 20.59272752 27.375 23.875 C32.03926296 28.19764932 36.73694285 32.47816757 41.47265625 36.72265625 C44.33082203 39.29809775 47.16710261 41.89685764 50 44.5 C53.64927171 47.85293117 57.31169598 51.18998357 61 54.5 C67.22569011 60.08919783 73.38053078 65.75524058 79.54101562 71.41601562 C85.47889501 76.87101791 91.43642391 82.30191889 97.4375 87.6875 C100.82321544 90.74290174 104.1808191 93.82856984 107.5390625 96.9140625 C110.67667086 99.79422607 113.83020941 102.65531614 117 105.5 C121.20684327 109.27537217 125.37674853 113.08980448 129.5390625 116.9140625 C132.67667086 119.79422607 135.83020941 122.65531614 139 125.5 C145.22569011 131.08919783 151.38053078 136.75524058 157.54101562 142.41601562 C163.47889501 147.87101791 169.43642391 153.30191889 175.4375 158.6875 C178.82321544 161.74290174 182.1808191 164.82856984 185.5390625 167.9140625 C188.67667086 170.79422607 191.83020941 173.65531614 195 176.5 C196.66693488 177.99970193 198.33358369 179.49972187 200 181 C200.5062793 181.45439453 201.01255859 181.90878906 201.53417969 182.37695312 C203.15134776 183.83074124 204.76355474 185.28987338 206.375 186.75 C207.84066406 188.07257813 207.84066406 188.07257813 209.3359375 189.421875 C215.76992605 195.64831553 215.76992605 195.64831553 216.5 199.9375 C215.86891522 203.80289428 214.42365412 205.95312053 212 209 C208.46574469 211.35617021 206.54427397 211.60719094 202.390625 211.5 C197.82571006 210.54524655 195.17492822 207.22258193 192 204 C190.42466615 202.57444322 188.84087576 201.15819146 187.25 199.75 C180.95056685 194.06702514 174.70605957 188.32432597 168.45898438 182.58398438 C162.52110499 177.12898209 156.56357609 171.69808111 150.5625 166.3125 C147.17678456 163.25709826 143.8191809 160.17143016 140.4609375 157.0859375 C137.32332914 154.20577393 134.16979059 151.34468386 131 148.5 C124.77430989 142.91080217 118.61946922 137.24475942 112.45898438 131.58398438 C106.52110499 126.12898209 100.56357609 120.69808111 94.5625 115.3125 C91.17678456 112.25709826 87.8191809 109.17143016 84.4609375 106.0859375 C81.32332914 103.20577393 78.16979059 100.34468386 75 97.5 C70.79315673 93.72462783 66.62325147 89.91019552 62.4609375 86.0859375 C59.32332914 83.20577393 56.16979059 80.34468386 53 77.5 C46.77430989 71.91080217 40.61946922 66.24475942 34.45898438 60.58398438 C28.52923555 55.13645146 22.58177845 49.71084994 16.5859375 44.3359375 C14.66490315 42.60062249 12.75418359 40.85685419 10.8515625 39.1015625 C10.0471875 38.3600293 10.0471875 38.3600293 9.2265625 37.60351562 C8.18599978 36.64289858 7.14685417 35.68074338 6.109375 34.71679688 C4.7521479 33.46411294 3.37664632 32.23131123 2 31 C1.32710937 30.37867187 0.65421875 29.75734375 -0.0390625 29.1171875 C-1.9810989 27.78583387 -1.9810989 27.78583387 -4.46484375 28.0703125 C-7.52640984 29.19304398 -9.20034432 30.62875382 -11.5625 32.875 C-12.43003906 33.68710938 -13.29757813 34.49921875 -14.19140625 35.3359375 C-15.11824219 36.21507812 -16.04507813 37.09421875 -17 38 C-18.99289221 39.84112223 -20.99695038 41.66994249 -23 43.5 C-24.0209108 44.43741564 -25.04174475 45.37491498 -26.0625 46.3125 C-29.50174774 49.45904581 -32.9682804 52.5740978 -36.4375 55.6875 C-39.30600409 58.27615003 -42.1547665 60.88585146 -45 63.5 C-48.64929525 66.85290579 -52.31169568 70.18998331 -56 73.5 C-61.70661694 78.62319284 -67.35315354 83.81119939 -73 89 C-79.45096808 94.92769564 -85.91718716 100.8359372 -92.4375 106.6875 C-95.30600409 109.27615003 -98.1547665 111.88585146 -101 114.5 C-105.45335487 118.59166107 -109.93659854 122.64822946 -114.4375 126.6875 C-117.30600409 129.27615003 -120.1547665 131.88585146 -123 134.5 C-126.64929525 137.85290579 -130.31169568 141.18998331 -134 144.5 C-139.70661694 149.62319284 -145.35315354 154.81119939 -151 160 C-157.45096808 165.92769564 -163.91718716 171.8359372 -170.4375 177.6875 C-173.30600427 180.27615019 -176.15474816 182.88587127 -179 185.5 C-183.46576223 189.60254218 -187.95684182 193.67525693 -192.47265625 197.72265625 C-194.3219339 199.3890069 -196.16257462 201.0625845 -197.99609375 202.74609375 C-198.74717407 203.43433228 -198.74717407 203.43433228 -199.51342773 204.13647461 C-200.92709283 205.43312752 -202.33860571 206.73212571 -203.75 208.03125 C-207.41877604 211.24142904 -210.00230661 211.33849896 -214.7421875 211.28515625 C-218.11376856 210.85933373 -219.74020743 209.46522826 -222 207 C-224.30427452 203.70817926 -224.68314841 200.94707969 -224 197 C-217.50487377 186.54919538 -205.33485435 177.80145461 -196.0703125 169.8203125 C-191.52189588 165.82113865 -187.11405609 161.66233292 -182.67138672 157.54638672 C-175.68364164 151.0812425 -168.64755401 144.6708818 -161.5625 138.3125 C-158.69399591 135.72384997 -155.8452335 133.11414854 -153 130.5 C-148.54664513 126.40833893 -144.06340146 122.35177054 -139.5625 118.3125 C-136.69399591 115.72384997 -133.8452335 113.11414854 -131 110.5 C-127.35070475 107.14709421 -123.68830432 103.81001669 -120 100.5 C-114.82403471 95.85320688 -109.6981596 91.15280746 -104.57617188 86.44677734 C-102.93253979 84.93807788 -101.28685094 83.43164977 -99.640625 81.92578125 C-98.82053955 81.17530518 -98.82053955 81.17530518 -97.98388672 80.40966797 C-96.93371927 79.44874085 -95.88327602 78.48811502 -94.83251953 77.52783203 C-90.63963493 74.06267993 -90.63963493 74.06267993 -88.375 69.375 C-85.48509706 62.28160187 -78.48349118 57.42910707 -72.76171875 52.54296875 C-70.98043569 51.07723273 -70.98043569 51.07723273 -69.70703125 49.36328125 C-68 48 -68 48 -64.77734375 47.7265625 C-59.5617621 46.72335858 -57.21442912 44.06454878 -53.5625 40.375 C-52.23382553 39.08255917 -50.90440738 37.79088239 -49.57421875 36.5 C-48.94950684 35.88511719 -48.32479492 35.27023438 -47.68115234 34.63671875 C-45.80438992 32.80955998 -43.86776888 31.07458966 -41.875 29.375 C-38.4306782 26.40781369 -35.08612497 23.33760235 -31.75 20.25 C-31.19820068 19.73945068 -30.64640137 19.22890137 -30.07788086 18.70288086 C-28.3849102 17.13562463 -26.692439 15.56783032 -25 14 C-22.81509598 11.97633422 -20.62743035 9.95572455 -18.4375 7.9375 C-17.48746094 7.05964844 -16.53742188 6.18179688 -15.55859375 5.27734375 C-10.21084975 0.51744337 -7.22202984 -1.11108151 0 0 Z " fill="#EA6D79" transform="translate(260,36)"/>
<path d="M0 0 C3.39344442 1.48848812 5.78229967 3.4326862 8.5 5.9375 C9.3765625 6.74058594 10.253125 7.54367188 11.15625 8.37109375 C12.0946875 9.23863281 13.033125 10.10617188 14 11 C15.49184018 12.36966361 16.98516643 13.73769491 18.47851562 15.10571289 C19.49858821 16.04050663 20.51811373 16.97589767 21.53710938 17.91186523 C24.67502382 20.79314167 27.8294832 23.65466441 31 26.5 C35.20684327 30.27537217 39.37674853 34.08980448 43.5390625 37.9140625 C46.67667086 40.79422607 49.83020941 43.65531614 53 46.5 C57.20761261 50.2760626 61.37842372 54.09104007 65.54125977 57.91625977 C68.65633125 60.77602204 71.78851675 63.61515359 74.9375 66.4375 C79.3920991 70.43448378 83.78918479 74.49074409 88.18115234 78.55615234 C92.24611811 82.3147798 96.34984906 86.02749843 100.47265625 89.72265625 C103.33082203 92.29809775 106.16710261 94.89685764 109 97.5 C112.64927171 100.85293117 116.31169598 104.18998357 120 107.5 C124.20761261 111.2760626 128.37842372 115.09104007 132.54125977 118.91625977 C135.65633125 121.77602204 138.78851675 124.61515359 141.9375 127.4375 C146.3920991 131.43448378 150.78918479 135.49074409 155.18115234 139.55615234 C159.23802441 143.30729605 163.3325255 147.01373396 167.44921875 150.69921875 C169.35793265 152.42086115 171.25539607 154.15163696 173.14453125 155.89453125 C173.68134521 156.38945068 174.21815918 156.88437012 174.77124023 157.39428711 C175.81259334 158.35574343 176.85255336 159.31871161 177.89086914 160.28344727 C180.79994189 162.99126222 180.79994189 162.99126222 184.13644028 165.11623859 C186.59314961 167.59957957 186.48053726 169.62222362 186.51632524 173.0144636 C186.49884819 174.25618664 186.49884819 174.25618664 186.48101807 175.522995 C186.48443577 176.40352203 186.48785347 177.28404906 186.49137473 178.19125873 C186.49798417 181.15346764 186.47592705 184.11477833 186.45410156 187.0769043 C186.45297375 189.19554625 186.45360565 191.31418977 186.45587158 193.43283081 C186.45702223 199.19500217 186.43345609 204.95684246 186.40557575 210.71893668 C186.38062049 216.7367459 186.37822474 222.75456218 186.37347412 228.77241516 C186.36102706 240.17278856 186.32818198 251.57300907 186.28807616 262.97331506 C186.24341231 275.95014158 186.22138496 288.92697529 186.20129442 301.9038595 C186.15945088 328.60267737 186.08607683 355.30128557 186 382 C158.28 382 130.56 382 102 382 C102 381.67 102 381.34 102 381 C119.82 381 137.64 381 156 381 C156.05000098 353.2185503 156.06696133 325.43772586 156.02334595 297.65627956 C156.00415824 284.75698913 155.99990594 271.85801604 156.03076172 258.95874023 C156.05761656 247.71624196 156.0565016 236.47415474 156.02174091 225.23167187 C156.00431171 219.27820346 156.00092874 213.32547146 156.03103638 207.37203789 C156.05893464 201.76811963 156.04942979 196.16550843 156.01126289 190.56166267 C156.00384571 188.50537011 156.0100827 186.44897584 156.03101921 184.39277649 C156.55335224 173.90274665 156.55335224 173.90274665 153.26742554 164.29500008 C151.25255066 162.50755374 149.35716363 161.28011134 147 160 C145.8822237 159.03254259 144.78590894 158.03892006 143.7265625 157.0078125 C143.21730225 156.53529053 142.70804199 156.06276855 142.18334961 155.57592773 C141.66909424 155.09712158 141.15483887 154.61831543 140.625 154.125 C135.96166777 149.8013584 131.26303824 145.52181547 126.52734375 141.27734375 C123.66917797 138.70190225 120.83289739 136.10314236 118 133.5 C114.35072829 130.14706883 110.68830402 126.81001643 107 123.5 C100.77430989 117.91080217 94.61946922 112.24475942 88.45898438 106.58398438 C82.52110499 101.12898209 76.56357609 95.69808111 70.5625 90.3125 C67.17678456 87.25709826 63.8191809 84.17143016 60.4609375 81.0859375 C57.32332914 78.20577393 54.16979059 75.34468386 51 72.5 C46.79315673 68.72462783 42.62325147 64.91019552 38.4609375 61.0859375 C35.32332914 58.20577393 32.16979059 55.34468386 29 52.5 C22.77430989 46.91080217 16.61946922 41.24475942 10.45898438 35.58398438 C8.9313584 34.1805872 7.40332034 32.77764095 5.875 31.375 C5.38080566 30.92133057 4.88661133 30.46766113 4.37744141 30.00024414 C0.33225833 26.29227095 -3.74803767 22.62466641 -7.84375 18.97265625 C-9.95839813 17.03805968 -11.9896765 15.04230592 -14 13 C-4.58997722 3.40546697 -4.58997722 3.40546697 0 0 Z " fill="#DDC9AC" transform="translate(255,70)"/>
<path d="M0 0 C0.70625031 -0.00235223 1.41250062 -0.00470446 2.14015245 -0.00712797 C4.53066147 -0.01383847 6.92111639 -0.01335913 9.31163406 -0.01294994 C11.03325142 -0.01624729 12.754868 -0.01997258 14.47648358 -0.02409142 C19.22624022 -0.0341342 23.97598422 -0.03783187 28.72574997 -0.04048073 C33.84108393 -0.04437704 38.95640783 -0.05395581 44.07173538 -0.0626936 C56.43440264 -0.08247687 68.79707073 -0.09252647 81.15974987 -0.10142139 C86.97676896 -0.10580115 92.79378714 -0.11116875 98.61080551 -0.11641026 C117.93963177 -0.13342423 137.26845744 -0.14791946 156.59729004 -0.155159 C161.61577988 -0.157069 166.63426972 -0.15898931 171.65275955 -0.16094494 C172.90013166 -0.16142868 174.14750377 -0.16191242 175.43267503 -0.16241082 C195.64935102 -0.17071506 215.86596792 -0.19605788 236.08261809 -0.22852562 C256.82295917 -0.26156375 277.5632702 -0.27960481 298.30363774 -0.28280324 C309.95494833 -0.28497132 321.60617274 -0.29376356 333.25745773 -0.31926441 C343.17819859 -0.34092708 353.09883234 -0.34904372 363.01959416 -0.33929763 C368.08360144 -0.33474007 373.14738753 -0.33672344 378.21136475 -0.35605907 C382.84518468 -0.37359986 387.47862058 -0.37276733 392.11244407 -0.35716178 C393.79081566 -0.35477183 395.46921321 -0.3591806 397.14754495 -0.37099043 C399.42611356 -0.38603366 401.70330808 -0.37649097 403.98184204 -0.36076355 C405.88147552 -0.36222876 405.88147552 -0.36222876 407.81948543 -0.36372358 C412.5491777 0.32428223 415.54549678 2.47658215 418.9222908 5.77484608 C419.31674393 6.30593983 419.71119705 6.83703358 420.1176033 7.38422108 C420.52752518 7.90500233 420.93744705 8.42578358 421.3597908 8.96234608 C422.2426033 11.13422108 422.2426033 11.13422108 422.2426033 19.13422108 C363.8326033 19.46422108 305.4226033 19.79422108 245.2426033 20.13422108 C244.9126033 20.79422108 244.5826033 21.45422108 244.2426033 22.13422108 C234.3426033 22.13422108 224.4426033 22.13422108 214.2426033 22.13422108 C213.9126033 21.47422108 213.5826033 20.81422108 213.2426033 20.13422108 C137.0126033 19.80422108 60.7826033 19.47422108 -17.7573967 19.13422108 C-17.7573967 9.89097783 -17.7573967 9.89097783 -13.7573967 5.13422108 C-8.87794847 0.83565954 -6.47326281 0.00914689 0 0 Z " fill="#85776D" transform="translate(53.75739669799805,457.86577892303467)"/>
<path d="M0 0 C7.59 0 15.18 0 23 0 C23.02578125 2.2171875 23.0515625 4.434375 23.078125 6.71875 C23.11664891 8.89009754 23.16177518 11.06121583 23.20751953 13.23242188 C23.2355694 14.72970447 23.25686274 16.22713075 23.27099609 17.72460938 C23.16574568 30.6108984 23.16574568 30.6108984 29.44628906 41.50146484 C36.47487448 47.71498174 42.94980888 47.37253725 51.90649414 47.37060547 C54.16305493 47.3749529 56.41761645 47.41121628 58.67382812 47.44921875 C66.33630556 47.5092498 73.42509808 47.47566231 80 43 C85.22513204 37.77486796 86.29478571 32.48009712 86.4140625 25.29296875 C86.43342865 24.56757401 86.4527948 23.84217926 86.4727478 23.09480286 C86.53222108 20.79248578 86.57879845 18.49011781 86.625 16.1875 C86.66320958 14.62042168 86.70226303 13.05336369 86.7421875 11.48632812 C86.83947495 7.65766175 86.91929594 3.8291951 87 0 C94.59 0 102.18 0 110 0 C110 6.19414011 109.78212993 11.69633396 108.828125 17.72265625 C108.70574966 18.53386932 108.58337433 19.3450824 108.45729065 20.18087769 C108.19564791 21.91314227 107.93122376 23.64498872 107.66421509 25.37643433 C106.95902055 29.949418 106.27290333 34.52522653 105.58984375 39.1015625 C105.45241257 40.02116257 105.31498138 40.94076263 105.17338562 41.88822937 C104.30859184 47.73724777 103.52121683 53.59054562 102.81640625 59.4609375 C102.7286795 60.18971603 102.64095276 60.91849457 102.55056763 61.6693573 C102.14690552 65.05238558 101.75721981 68.43618125 101.38183594 71.82250977 C99.58188159 87.25556658 99.58188159 87.25556658 97 92 C92.90936757 95.09609607 89.78150668 95.38282205 84.71875 95.40405273 C83.64705566 95.41434761 83.64705566 95.41434761 82.55371094 95.42485046 C80.20226934 95.44308701 77.85149684 95.43928617 75.5 95.43359375 C73.86002384 95.43815667 72.2200496 95.44346258 70.58007812 95.44947815 C67.14705627 95.45840273 63.71426713 95.45599317 60.28125 95.44604492 C55.88613124 95.43454843 51.4918151 95.45477986 47.09680176 95.48396206 C43.71153683 95.50232343 40.32646434 95.5020319 36.94116211 95.49632454 C35.3208707 95.49617136 33.70056622 95.50221329 32.08032227 95.51461601 C29.81345481 95.52952605 27.54807159 95.51885138 25.28125 95.50170898 C23.99283203 95.50154282 22.70441406 95.50137665 21.37695312 95.50120544 C17.42451583 94.91458697 15.79077035 93.80765065 13 91 C10.73026743 86.09188404 10.2899592 80.75669068 9.625 75.4375 C9.36635936 73.45827134 9.10721918 71.47910792 8.84765625 69.5 C8.71117676 68.44683594 8.57469727 67.39367187 8.43408203 66.30859375 C7.67385007 60.51406985 6.86522695 54.72626123 6.0625 48.9375 C5.72523109 46.48828529 5.3879919 44.03906648 5.05078125 41.58984375 C4.42154842 37.03072808 3.78627485 32.4725431 3.14280701 27.91542053 C2.85902768 25.90413022 2.57663811 23.89264957 2.29467773 21.88110352 C1.9389049 19.34604266 1.58046081 16.81135486 1.21899414 14.27709961 C1.05906982 13.13378174 0.89914551 11.99046387 0.734375 10.8125 C0.52119629 9.30623047 0.52119629 9.30623047 0.30371094 7.76953125 C0 5 0 5 0 0 Z " fill="#89C3DA" transform="translate(256,356)"/>
<path d="M0 0 C28.38 0 56.76 0 86 0 C89.37270502 8.99388005 89.37270502 8.99388005 90.359375 12.53125 C90.69727051 13.72959473 90.69727051 13.72959473 91.04199219 14.95214844 C91.27563477 15.79293945 91.50927734 16.63373047 91.75 17.5 C92.27005995 19.34917601 92.7909271 21.19812515 93.3125 23.046875 C93.58449219 24.01173828 93.85648437 24.97660156 94.13671875 25.97070312 C95.03297621 29.11571516 95.95050305 32.25380303 96.875 35.390625 C97.18727539 36.45087891 97.49955078 37.51113281 97.82128906 38.60351562 C98.42524568 40.64972826 99.03125463 42.69533664 99.63964844 44.74023438 C100.05778809 46.16045898 100.05778809 46.16045898 100.484375 47.609375 C100.72897461 48.43405273 100.97357422 49.25873047 101.22558594 50.10839844 C102.27856979 54.04015781 103.11702357 58.02660606 104 62 C93.44 62 82.88 62 72 62 C71.67 49.79 71.34 37.58 71 25 C69.68 25 68.36 25 67 25 C66.67 37.21 66.34 49.42 66 62 C59.4 62 52.8 62 46 62 C45.67 49.79 45.34 37.58 45 25 C43.68 25.33 42.36 25.66 41 26 C40.67 37.88 40.34 49.76 40 62 C33.73 62 27.46 62 21 62 C20.67 50.12 20.34 38.24 20 26 C18.68 25.67 17.36 25.34 16 25 C15.67 37.21 15.34 49.42 15 62 C4.44 62 -6.12 62 -17 62 C-14.75146689 50.75733445 -14.75146689 50.75733445 -13.5546875 46.7578125 C-8.91610629 31.20238434 -4.46021084 15.61073795 0 0 Z " fill="#EB6D79" transform="translate(147,390)"/>
<path d="M0 0 C11.57540342 8.55162457 17.54178907 18.16715629 21 32 C21 43.22 21 54.44 21 66 C-8.37 66 -37.74 66 -68 66 C-68 19.58708415 -68 19.58708415 -56 7 C-40.68424035 -7.91058082 -18.40470749 -11.33134329 0 0 Z " fill="#FBE7CA" transform="translate(335,259)"/>
<path d="M0 0 C18.15 0 36.3 0 55 0 C55 31.02 55 62.04 55 94 C46.00620732 87.25465549 46.00620732 87.25465549 42.78125 84.16015625 C42.07613281 83.48919922 41.37101562 82.81824219 40.64453125 82.12695312 C39.93683594 81.44568359 39.22914063 80.76441406 38.5 80.0625 C33.7142596 75.4816137 28.89154897 70.98419779 23.88427734 66.64575195 C21.05631527 64.17577367 18.30892589 61.6223762 15.5625 59.0625 C14.52298937 58.09413458 13.48260424 57.12670717 12.44140625 56.16015625 C11.90974854 55.63953613 11.37809082 55.11891602 10.83032227 54.58251953 C9.0044428 52.898482 9.0044428 52.898482 6.60522461 51.64794922 C3.49862772 49.65720744 1.91980347 48.1872616 0 45 C-1.53414292 37.50674261 -0.83537824 29.58156105 -0.5625 22 C-0.376875 14.74 -0.19125 7.48 0 0 Z " fill="#86786E" transform="translate(386,97)"/>
<path d="M0 0 C17.49 0 34.98 0 53 0 C53.0825 8.724375 53.165 17.44875 53.25 26.4375 C53.28641602 29.17474365 53.32283203 31.9119873 53.36035156 34.73217773 C53.37204419 36.92430845 53.38223465 39.11644791 53.390625 41.30859375 C53.41108887 42.42850708 53.43155273 43.54842041 53.45263672 44.70227051 C53.4556588 51.54955662 52.74277572 57.13531179 49 63 C43.16256559 68.38073613 35.6499737 67.60935257 28.12963867 67.52148438 C25.9388198 67.50001293 23.75126653 67.52135301 21.56054688 67.546875 C20.15363868 67.54423207 18.74673249 67.53910781 17.33984375 67.53125 C16.07519287 67.52673828 14.81054199 67.52222656 13.50756836 67.51757812 C8.58071157 66.79056926 5.44765241 64.6473286 2.1875 60.9375 C0.03214346 57.42086565 -0.12257511 54.54592243 -0.11352539 50.51879883 C-0.11344986 49.39786331 -0.11337433 48.2769278 -0.11329651 47.12202454 C-0.10813522 45.91257675 -0.10297394 44.70312897 -0.09765625 43.45703125 C-0.0962413 42.21829758 -0.09482635 40.9795639 -0.09336853 39.70329285 C-0.08871602 36.41368463 -0.0797339 33.1241254 -0.06866455 29.83453369 C-0.05842629 26.47628388 -0.05381092 23.11802667 -0.04882812 19.75976562 C-0.03864157 13.17313798 -0.01906712 6.58663193 0 0 Z " fill="#E76C78" transform="translate(285,331)"/>
<path d="M0 0 C2.16134262 1.52510452 2.16134262 1.52510452 4 4 C4.38434033 6.81119071 4.52392572 9.22728035 4.48101807 12.03582764 C4.48443577 12.85187226 4.48785347 13.66791687 4.49137473 14.50869012 C4.49797028 17.24670918 4.47595031 19.98375075 4.45410156 22.72167969 C4.45297345 24.68283566 4.45360625 26.64399333 4.45587158 28.60514832 C4.45702105 33.9334014 4.43347394 39.2612956 4.40557575 44.58946514 C4.38060094 50.15616228 4.37822319 55.7228673 4.37347412 61.28961182 C4.36103283 71.83289157 4.32819553 82.37600578 4.28807616 92.91921258 C4.24339441 104.92147201 4.22138045 116.92373928 4.20129442 128.92606115 C4.15946397 153.61746595 4.08908943 178.30872371 4 203 C-0.29 203 -4.58 203 -9 203 C-9.07000984 176.97507064 -9.12294877 150.95015535 -9.15543652 124.92515087 C-9.17092053 112.84191431 -9.19203933 100.75873617 -9.22631836 88.67553711 C-9.25617377 78.14664319 -9.27556383 67.61779158 -9.28226548 57.08885652 C-9.28618429 51.51130934 -9.29542581 45.93388321 -9.31719017 40.35637474 C-9.33749439 35.11074181 -9.34384611 29.86528024 -9.33932304 24.61961174 C-9.34015097 22.69063131 -9.34615258 20.76164537 -9.35761642 18.83269882 C-9.37246575 16.20609841 -9.36898148 13.58015142 -9.36076355 10.95353699 C-9.36950207 10.18408585 -9.3782406 9.41463472 -9.38724393 8.62186688 C-9.34375212 3.50569813 -9.34375212 3.50569813 -7.66104603 1.03024769 C-4.99262358 -0.62481545 -3.05859992 -0.43694285 0 0 Z " fill="#86786E" transform="translate(193,156)"/>
<path d="M0 0 C1.09256355 0.00607269 1.09256355 0.00607269 2.2071991 0.01226807 C2.97481064 0.00876343 3.74242218 0.00525879 4.53329468 0.00164795 C7.07768219 -0.00717455 9.621793 -0.00131847 12.16618347 0.00543213 C13.92973382 0.00408563 15.69328381 0.00214522 17.45683289 -0.00036621 C21.15572132 -0.00331817 24.85451327 0.00098247 28.5533905 0.01031494 C33.30178253 0.02170954 38.04994849 0.01515045 42.79833221 0.00317001 C46.44079806 -0.00404665 50.08321005 -0.00176156 53.72567749 0.0034256 C55.47682726 0.00476263 57.22798186 0.0031125 58.97912598 -0.00153351 C61.42377228 -0.0065956 63.86804916 0.00110682 66.31266785 0.01226807 C67.04104355 0.0082196 67.76941925 0.00417114 68.51986694 0 C73.5314046 0.04252826 73.5314046 0.04252826 75.75993347 2.27105713 C76.00285339 4.77716064 76.00285339 4.77716064 75.99040222 7.89996338 C75.98846863 9.01693604 75.98653503 10.13390869 75.98454285 11.284729 C75.97229675 12.45584229 75.96005066 13.62695557 75.94743347 14.83355713 C75.94646667 16.59602783 75.94646667 16.59602783 75.94548035 18.394104 C75.90005488 27.13093572 75.90005488 27.13093572 74.75993347 28.27105713 C72.23990896 28.37141529 69.74727147 28.40723425 67.22673035 28.40045166 C66.4381514 28.40220398 65.64957245 28.4039563 64.83709717 28.40576172 C62.21760387 28.41018071 59.59817751 28.40724209 56.97868347 28.40386963 C55.16646817 28.40454265 53.35425296 28.40551267 51.54203796 28.4067688 C47.73884728 28.40824584 43.93568003 28.40609103 40.13249207 28.40142822 C35.24614852 28.39573093 30.3598599 28.3990099 25.47351837 28.40500069 C21.72987958 28.40860614 17.98625392 28.40746779 14.24261475 28.40487289 C12.4403991 28.40420358 10.63818229 28.40503219 8.83596802 28.40735245 C6.32165856 28.40987872 3.8074393 28.40603875 1.2931366 28.40045166 C0.16477135 28.40348801 0.16477135 28.40348801 -0.98638916 28.40658569 C-6.12580393 28.38531973 -6.12580393 28.38531973 -7.24006653 27.27105713 C-7.49307891 23.1314343 -7.42529201 18.97999717 -7.42756653 14.83355713 C-7.43981262 13.66244385 -7.45205872 12.49133057 -7.4646759 11.284729 C-7.4666095 10.16775635 -7.46854309 9.05078369 -7.47053528 7.89996338 C-7.47464417 6.86943848 -7.47875305 5.83891357 -7.48298645 4.77716064 C-7.00745523 -0.12869665 -4.2977647 0.03647113 0 0 Z " fill="#86786E" transform="translate(379.2400665283203,61.72894287109375)"/>
<path d="M0 0 C0.99525696 -0.00744736 0.99525696 -0.00744736 2.01062012 -0.01504517 C4.21648176 -0.02970691 6.42227136 -0.03647731 8.62817383 -0.04199219 C10.15936791 -0.04774276 11.69056196 -0.0535005 13.22175598 -0.05926514 C16.43901913 -0.06978818 19.65625721 -0.0756215 22.87353516 -0.07910156 C26.98826272 -0.08457247 31.10265704 -0.10856454 35.21728039 -0.13707352 C38.38380381 -0.15574129 41.55024788 -0.16090781 44.71682167 -0.16243744 C46.23302331 -0.16545793 47.74922376 -0.17346611 49.26537132 -0.18662262 C51.39331322 -0.20376143 53.52045375 -0.20178373 55.6484375 -0.1953125 C56.85787521 -0.19895813 58.06731293 -0.20260376 59.31340027 -0.20635986 C63.06619306 0.20725675 65.44881613 1.17907883 68.64770508 3.16113281 C70.64770508 6.16113281 70.64770508 6.16113281 70.64770508 18.16113281 C43.25770508 18.16113281 15.86770508 18.16113281 -12.35229492 18.16113281 C-12.35229492 6.16113281 -12.35229492 6.16113281 -9.91479492 2.97363281 C-9.06916992 2.37550781 -8.22354492 1.77738281 -7.35229492 1.16113281 C-5.50288558 -0.68827653 -2.47491696 0.0140185 0 0 Z " fill="#D5DD56" transform="translate(161.352294921875,364.8388671875)"/>
<path d="M0 0 C1.9921875 0.84765625 1.9921875 0.84765625 3.046875 2.8515625 C3.31757812 3.69589844 3.58828125 4.54023437 3.8671875 5.41015625 C5.53511107 10.06032716 7.68210296 13.4631977 10.8203125 17.25390625 C11.9921875 18.84765625 11.9921875 18.84765625 11.9921875 20.84765625 C17.12796942 23.51826285 22.22971344 25.97455412 27.9921875 26.84765625 C28.4871875 29.32265625 28.4871875 29.32265625 28.9921875 31.84765625 C26.1853548 34.08666992 23.43846407 35.66676415 20.1796875 37.16015625 C9.80891424 42.31504061 5.58959215 48.67387199 1.6796875 59.47265625 C1.4528125 60.25640625 1.2259375 61.04015625 0.9921875 61.84765625 C-0.6578125 61.84765625 -2.3078125 61.84765625 -4.0078125 61.84765625 C-4.3996875 60.73390625 -4.7915625 59.62015625 -5.1953125 58.47265625 C-9.05932537 48.25932647 -12.88207419 40.51565779 -23.07421875 35.6796875 C-24.66769527 34.99400973 -26.30312144 34.40670002 -27.9453125 33.84765625 C-30.0078125 32.84765625 -30.0078125 32.84765625 -30.9453125 30.84765625 C-30.9659375 30.18765625 -30.9865625 29.52765625 -31.0078125 28.84765625 C-28.66135299 26.50119674 -26.95829249 26.05229459 -23.8203125 25.03515625 C-16.45091725 22.38602724 -11.90216185 20.06402023 -8.1953125 12.97265625 C-6.81375638 9.95219531 -5.67982877 6.99181312 -4.8203125 3.78515625 C-4.5521875 2.81578125 -4.2840625 1.84640625 -4.0078125 0.84765625 C-2.0078125 -0.15234375 -2.0078125 -0.15234375 0 0 Z " fill="#3B3229" transform="translate(96.0078125,48.15234375)"/>
<path d="M0 0 C8.81674514 6.15599901 14.45233446 12.55870033 19.34765625 22.05078125 C19.68563232 22.69853516 20.0236084 23.34628906 20.37182617 24.01367188 C25.67959854 34.84158127 25.29019306 46.02140868 25.16015625 57.80078125 C25.15010418 59.39322352 25.14098228 60.98567196 25.1328125 62.578125 C25.11098033 66.4441649 25.07657409 70.30990361 25.03515625 74.17578125 C23.38515625 74.17578125 21.73515625 74.17578125 20.03515625 74.17578125 C20.02581055 73.14807617 20.01646484 72.12037109 20.00683594 71.06152344 C19.96649591 67.19196661 19.90062379 63.32316871 19.82763672 59.45410156 C19.79967907 57.7901394 19.77834126 56.12605065 19.76416016 54.46191406 C19.61047385 37.43347129 16.22925424 23.14799644 4.33984375 10.31640625 C-6.95429135 -0.17373957 -19.69944142 -3.37966473 -34.7890625 -3.1015625 C-47.91974883 -2.49664204 -59.79523047 3.97809661 -68.78515625 13.3359375 C-76.02461056 22.76798639 -80.03731607 33.04807371 -80.28125 44.87890625 C-80.3020311 45.71669617 -80.32281219 46.55448608 -80.34422302 47.41766357 C-80.40946925 50.08695481 -80.46848733 52.75634223 -80.52734375 55.42578125 C-80.57055269 57.23829109 -80.61416774 59.0507913 -80.65820312 60.86328125 C-80.76512504 65.30068334 -80.86646241 69.73818193 -80.96484375 74.17578125 C-82.61484375 74.17578125 -84.26484375 74.17578125 -85.96484375 74.17578125 C-86.06477864 68.9837791 -86.13680776 63.79235406 -86.18457031 58.59960938 C-86.20451048 56.83844228 -86.23167286 55.07733985 -86.26660156 53.31640625 C-86.61637139 35.21067383 -83.12295144 20.49240916 -70.27734375 6.86328125 C-50.55559009 -11.69661683 -22.91599502 -14.09982829 0 0 Z " fill="#82746B" transform="translate(341.96484375,250.82421875)"/>
<path d="M0 0 C1.87890625 0.109375 1.87890625 0.109375 4 1 C5.52734375 3.328125 5.52734375 3.328125 6.9375 6.25 C10.07297777 12.28638115 12.64203894 16.31673388 19.25 18.5625 C19.93578125 18.74941406 20.6215625 18.93632813 21.328125 19.12890625 C23 20 23 20 23.734375 22.08984375 C23.82203125 22.72019531 23.9096875 23.35054687 24 24 C23.50371094 24.30292969 23.00742188 24.60585937 22.49609375 24.91796875 C10.27413416 32.37793363 10.27413416 32.37793363 4 45 C1.525 45.495 1.525 45.495 -1 46 C-1.44730469 45.03578125 -1.89460938 44.0715625 -2.35546875 43.078125 C-2.96549123 41.80177027 -3.57620513 40.52574583 -4.1875 39.25 C-4.47947266 38.61578125 -4.77144531 37.9815625 -5.07226562 37.328125 C-7.71739298 31.86721692 -11.06335471 28.50456678 -16.8125 26.25 C-17.864375 25.8375 -18.91625 25.425 -20 25 C-20 23.35 -20 21.7 -20 20 C-19.41992188 19.76925781 -18.83984375 19.53851563 -18.2421875 19.30078125 C-9.53162629 15.69459336 -9.53162629 15.69459336 -3.78125 8.4921875 C-3.07126731 6.71215947 -2.39575435 4.91784785 -1.76171875 3.109375 C-1 1 -1 1 0 0 Z " fill="#3B332A" transform="translate(50,82)"/>
<path d="M0 0 C2.31640625 0.171875 2.31640625 0.171875 5 1 C6.58984375 3.328125 6.58984375 3.328125 7.9375 6.25 C10.69999369 11.68337408 12.99562649 15.47914703 18.93359375 17.734375 C20.60189327 18.23117244 22.29995652 18.62599043 24 19 C24.625 20.8125 24.625 20.8125 25 23 C22.78680741 26.31978889 21.73200709 26.76609586 18.1875 28.3125 C12.81901902 30.91164929 9.41002707 33.34735844 7.1796875 39.125 C6.93476562 39.846875 6.68984375 40.56875 6.4375 41.3125 C5.963125 42.529375 5.48875 43.74625 5 45 C3.03515625 45.79296875 3.03515625 45.79296875 1 46 C-1.98394406 44.50802797 -2.16084588 42.32607941 -3.3125 39.25 C-5.56225051 33.73680325 -7.42958041 29.62534026 -13.09375 27.046875 C-15.03672477 26.29431435 -17.01667833 25.63869681 -19 25 C-19 23.35 -19 21.7 -19 20 C-18.18015625 19.62488281 -17.3603125 19.24976562 -16.515625 18.86328125 C-15.43796875 18.35152344 -14.3603125 17.83976562 -13.25 17.3125 C-12.18265625 16.81363281 -11.1153125 16.31476562 -10.015625 15.80078125 C-5.20067008 12.92552967 -2.83797753 9.50722471 -1.25 4.1875 C-1.00765625 3.39730469 -0.7653125 2.60710938 -0.515625 1.79296875 C-0.34546875 1.20128906 -0.1753125 0.60960938 0 0 Z " fill="#3B322A" transform="translate(49,29)"/>
<path d="M0 0 C4.5908602 -0.09212428 9.17848115 -0.17166281 13.76953125 -0.21972656 C15.32921244 -0.23977222 16.88881913 -0.26701657 18.44824219 -0.30175781 C20.69745314 -0.35059126 22.9456659 -0.37303815 25.1953125 -0.390625 C26.23161301 -0.42159271 26.23161301 -0.42159271 27.28884888 -0.45318604 C32.31564925 -0.45548631 35.13424138 0.846104 39 4 C40.56935594 7.13871188 40.35201103 9.53855822 40 13 C37.8272578 15.63016161 36.05326212 17.47336894 33 19 C30.51900266 19.08649451 28.06655072 19.11565054 25.5859375 19.09765625 C24.85629791 19.0962413 24.12665833 19.09482635 23.37490845 19.09336853 C21.04156415 19.08776531 18.70831536 19.07521235 16.375 19.0625 C14.79427222 19.05748541 13.21354293 19.05292243 11.6328125 19.04882812 C7.75514182 19.03864517 3.87767798 19.01907055 0 19 C0 12.73 0 6.46 0 0 Z " fill="#86BED4" transform="translate(343,331)"/>
<path d="M0 0 C1.0859697 0.01061211 1.0859697 0.01061211 2.19387817 0.0214386 C4.48711226 0.04924016 6.77782737 0.1119405 9.0703125 0.17578125 C10.63277702 0.20088303 12.19528014 0.22369291 13.7578125 0.24414062 C17.57204334 0.29475409 21.38088808 0.39260171 25.1953125 0.48828125 C25.1953125 6.75828125 25.1953125 13.02828125 25.1953125 19.48828125 C20.60388135 19.60345093 16.01750935 19.70285088 11.42578125 19.76293945 C9.86603771 19.78799752 8.3064106 19.82205426 6.74707031 19.86547852 C4.49775407 19.92652318 2.2499969 19.95457551 0 19.9765625 C-0.690867 20.00236893 -1.38173401 20.02817535 -2.09353638 20.05476379 C-5.93052537 20.05695857 -8.30035878 19.46129281 -11.24267578 17.1003418 C-13.8046875 14.48828125 -13.8046875 14.48828125 -14.6015625 12.20703125 C-14.58609375 11.47484375 -14.570625 10.74265625 -14.5546875 9.98828125 C-14.57015625 9.25609375 -14.585625 8.52390625 -14.6015625 7.76953125 C-12.2508584 1.04006462 -6.38986033 -0.23868482 0 0 Z " fill="#87C0D6" transform="translate(253.8046875,330.51171875)"/>
<path d="M0 0 C2.22656341 2.10903221 3.95132873 4.29032569 5.6875 6.8125 C8.85265949 11.12572742 12.58208476 14.03977253 17 17 C16.01 17.7734375 16.01 17.7734375 15 18.5625 C6.50403283 25.37867803 6.50403283 25.37867803 0 34 C-2.39361974 31.05400648 -4.69416934 28.06066819 -6.9375 25 C-9.40062787 21.6907595 -11.99854697 18.82489697 -15 16 C-14.33613281 15.5153125 -13.67226562 15.030625 -12.98828125 14.53125 C-7.24048754 10.16796134 -3.41108838 6.36736498 0 0 Z " fill="#D3DB55" transform="translate(95,62)"/>
<path d="M0 0 C0.66 0 1.32 0 2 0 C3.18359375 1.4609375 3.18359375 1.4609375 4.4375 3.375 C6.21688245 6.08590869 7.19194031 7.12796021 10 9 C10 11 10 11 8.35546875 12.69140625 C7.64003906 13.30886719 6.92460938 13.92632812 6.1875 14.5625 C5.12595703 15.49255859 5.12595703 15.49255859 4.04296875 16.44140625 C2 18 2 18 -1 19 C-1.598125 18.071875 -2.19625 17.14375 -2.8125 16.1875 C-4.77779546 13.11550825 -4.77779546 13.11550825 -6.75 11.25 C-7.1625 10.8375 -7.575 10.425 -8 10 C-8 9.34 -8 8.68 -8 8 C-6.50390625 6.5625 -6.50390625 6.5625 -4.5625 5 C-1.84811762 2.85474956 -1.84811762 2.85474956 0 0 Z " fill="#D0D855" transform="translate(51,42)"/>
<path d="M0 0 C4.00754167 1.33584722 5.37476236 3.76893828 8 7 C8.66 7.33 9.32 7.66 10 8 C8.91108001 11.26675996 8.15148744 11.95793848 5.5625 14.0625 C3.61446095 15.66078674 1.78426056 17.21573944 0 19 C-1.17544805 17.56967163 -2.34010262 16.13046758 -3.5 14.6875 C-4.1496875 13.88699219 -4.799375 13.08648437 -5.46875 12.26171875 C-7 10 -7 10 -7 7 C-4.625 4.4375 -4.625 4.4375 -2 2 C-1.34 1.34 -0.68 0.68 0 0 Z " fill="#D2DB55" transform="translate(51,96)"/>
</svg>
