<?xml version="1.0" encoding="UTF-8"?>
<svg version="1.1" xmlns="http://www.w3.org/2000/svg" width="512" height="512">
<path d="M0 0 C14.66038622 12.88536188 24.97413356 29.7893573 27.1171875 49.4453125 C27.24247833 50.59324783 27.24247833 50.59324783 27.37030029 51.76437378 C28.3347458 61.62782159 28.29948963 71.514553 28.26074219 81.41601562 C28.24990107 84.71762975 28.26076529 88.01871349 28.2734375 91.3203125 C28.27211766 93.44531369 28.26955892 95.57031455 28.265625 97.6953125 C28.26967346 98.66937042 28.27372192 99.64342834 28.27789307 100.64700317 C28.2220215 108.82094241 27.46232308 116.06676445 22 122.5625 C15.97105762 127.33541272 10.48744064 127.00510733 3 126.5625 C2.86464844 127.10777344 2.72929687 127.65304688 2.58984375 128.21484375 C-0.80604188 140.11061077 -10.50572495 150.26593497 -21 156.5625 C-20.44502769 163.0001788 -19.65424051 167.98409493 -14.8125 172.6875 C-4.44248938 179.60084041 7.27925227 181.62765392 19.39501953 183.65356445 C29.9132791 185.43762019 40.09672163 188.70754818 46.58984375 197.78515625 C52.89840111 207.76470786 55.14003378 218.88816135 57.7578125 230.25390625 C58.10959251 231.76893566 58.4616379 233.28390346 58.81393433 234.79881287 C59.54786334 237.95922885 60.27871395 241.12033614 61.00732422 244.28198242 C61.93739754 248.31678143 62.87499376 252.3497875 63.81488228 256.38230991 C64.54193071 259.50530473 65.2650596 262.62919714 65.98702621 265.75337029 C66.331102 267.24026605 66.67634869 268.72689139 67.02283096 270.21322823 C72.23824562 292.61578947 72.23824562 292.61578947 68 300.5625 C65.68595665 303.15349003 63.11948255 305.00275873 60 306.5625 C58.47851674 306.64622659 56.95344222 306.66980027 55.4296875 306.66015625 C54.08583984 306.65532227 54.08583984 306.65532227 52.71484375 306.65039062 C51.77769531 306.64201172 50.84054687 306.63363281 49.875 306.625 C48.93011719 306.62048828 47.98523438 306.61597656 47.01171875 306.61132812 C44.67441613 306.59952357 42.33723939 306.58305759 40 306.5625 C39.91452408 307.49100266 39.82904816 308.41950531 39.74098206 309.37614441 C38.93468319 318.13095302 38.1255847 326.88549899 37.31375217 335.63979626 C36.89648236 340.14035095 36.48019571 344.64099205 36.06616211 349.1418457 C35.66648196 353.48626895 35.26421118 357.83044526 34.86015129 362.17446327 C34.70653133 363.83094075 34.55384138 365.48750474 34.40210152 367.1441555 C34.18923824 369.46637612 33.97305569 371.78826574 33.75610352 374.11010742 C33.69424362 374.79343643 33.63238373 375.47676544 33.56864929 376.18080139 C33.23650471 379.69620635 32.76728925 383.11498671 32 386.5625 C32.59683594 386.66046875 33.19367188 386.7584375 33.80859375 386.859375 C38.32513548 387.63785768 42.79299694 388.4868065 47.234375 389.62109375 C47.96986572 389.80639648 48.70535645 389.99169922 49.46313477 390.18261719 C50.91463217 390.55285975 52.36327815 390.93452236 53.80834961 391.32910156 C58.90199214 392.61911604 62.8596975 392.85163803 68 391.5625 C70.19969728 389.49293548 70.19969728 389.49293548 71.625 386.5 C72.29529024 385.30062323 72.96588903 384.10141887 73.63671875 382.90234375 C74.19045166 381.87729736 74.19045166 381.87729736 74.75537109 380.83154297 C76.66122917 377.35703435 78.68263158 373.95205404 80.69067383 370.53588867 C82.48951215 367.47396667 84.27747655 364.40593217 86.0625 361.3359375 C86.69542969 360.24764648 87.32835937 359.15935547 87.98046875 358.03808594 C89.38285406 355.62545231 90.78359071 353.21186827 92.18359375 350.79785156 C94.06223115 347.55910532 95.94543837 344.32304863 97.83108521 341.08837891 C98.55771984 339.83998232 99.28276734 338.59066032 100.006073 337.34033203 C111.94373628 316.70814333 111.94373628 316.70814333 118.5 312.3125 C120.62156556 310.74447373 120.62156556 310.74447373 122 308.5625 C122.20080115 304.9971641 121.7935649 301.72983094 121.33203125 298.19140625 C120.51335461 289.24375212 123.6820106 281.81665007 129.05859375 274.8125 C138.87997394 263.42997487 151.93616232 258.39086939 166.80859375 257.27734375 C177.21363334 257.03634082 186.02985255 258.07157543 194.24609375 264.84375 C200.78483873 271.25142882 202.92609622 278.66743496 203.02294922 287.70361328 C202.92685022 296.04675326 202.45194751 303.65952449 199.8125 311.625 C198.89058441 314.6500338 198.89058441 314.6500338 199 317.5625 C201.0031417 320.57187102 203.28781268 322.58533448 206.0390625 324.92578125 C225.08716618 341.88814271 234.62006735 370.2675611 239 394.5625 C239.19335938 395.61179687 239.38671875 396.66109375 239.5859375 397.7421875 C240.20701848 403.4725384 240.22501107 409.17755059 240.25 414.9375 C240.2809375 416.70867187 240.2809375 416.70867187 240.3125 418.515625 C240.3438314 425.5495252 239.65563483 431.03522914 237 437.5625 C237.63010986 437.85455322 238.26021973 438.14660645 238.90942383 438.44750977 C241.42552875 439.78945198 242.24913405 441.06339901 243.6875 443.5 C244.31205078 444.53447266 244.31205078 444.53447266 244.94921875 445.58984375 C246.58061838 448.65250848 247.12962916 451.18833515 247.17700195 454.60327148 C247.18983719 455.41098495 247.20267242 456.21869843 247.21589661 457.05088806 C247.22697701 458.35407738 247.22697701 458.35407738 247.23828125 459.68359375 C247.246353 460.57990005 247.25442474 461.47620636 247.26274109 462.39967346 C247.27656635 464.29515658 247.28729547 466.19066444 247.29516602 468.08618164 C247.31241473 470.98566575 247.35631812 473.8840199 247.40039062 476.78320312 C247.4105148 478.62499162 247.41903176 480.4667898 247.42578125 482.30859375 C247.44328934 483.1753624 247.46079742 484.04213104 247.47883606 484.93516541 C247.47591049 485.74603104 247.47298492 486.55689667 247.4699707 487.39233398 C247.47583694 488.10276352 247.48170319 488.81319305 247.48774719 489.54515076 C246.76703353 492.52606215 245.36721972 493.64983661 243 495.5625 C240.1451416 496.06586456 240.1451416 496.06586456 236.77539062 496.07043457 C235.49672119 496.08171387 234.21805176 496.09299316 232.90063477 496.10461426 C231.48583758 496.09683723 230.07104263 496.08864457 228.65625 496.08007812 C227.16462521 496.08549892 225.67300577 496.09262134 224.18139648 496.10131836 C220.13177372 496.11956004 216.08255839 496.1124809 212.03292847 496.09980202 C207.79602964 496.08967864 203.55916582 496.09906585 199.32226562 496.10534668 C192.2069675 496.11262503 185.09183542 496.10303052 177.9765625 496.08398438 C169.748972 496.06221519 161.52177797 496.06926643 153.29419708 496.09129 C146.23165746 496.1094387 139.16923723 496.11200494 132.10668182 496.10153532 C127.88786825 496.09529744 123.66924107 496.09447274 119.45043945 496.10768127 C115.48419627 496.11923156 111.51846451 496.11122962 107.55227661 496.08810425 C106.09621022 496.08281268 104.64010083 496.08433866 103.18405151 496.09315491 C101.19758638 496.10407434 99.21102724 496.087957 97.22460938 496.07043457 C96.11259155 496.06892647 95.00057373 496.06741837 93.8548584 496.06586456 C90.33711239 495.4456206 89.1555832 494.35967517 87 491.5625 C86.49829102 488.95629883 86.49829102 488.95629883 86.50390625 486.01953125 C86.50326172 484.94509766 86.50261719 483.87066406 86.50195312 482.76367188 C86.52193359 481.64541016 86.54191406 480.52714844 86.5625 479.375 C86.55541016 478.27607422 86.54832031 477.17714844 86.54101562 476.04492188 C86.59365578 469.2543418 87.48707253 463.87481384 90 457.5625 C84.06 459.2125 78.12 460.8625 72 462.5625 C71.97421875 464.60953125 71.9484375 466.6565625 71.921875 468.765625 C71.88014511 470.75474995 71.83827597 472.74387465 71.79248047 474.73291016 C71.76430901 476.11201651 71.74307528 477.49128318 71.72900391 478.87060547 C71.70752455 480.85672949 71.65876868 482.84249909 71.609375 484.828125 C71.5779541 486.61911621 71.5779541 486.61911621 71.54589844 488.44628906 C70.882845 492.23126853 69.97605994 493.20244727 67 495.5625 C64.40466309 496.06389666 64.40466309 496.06389666 61.39648438 496.06586456 C60.24843323 496.07629555 59.10038208 496.08672654 57.9175415 496.09747362 C56.65569031 496.08855073 55.39383911 496.07962785 54.09375 496.07043457 C52.7402072 496.07504247 51.38666939 496.08139464 50.03314209 496.08934355 C46.31004999 496.10607566 42.58736684 496.09777318 38.86427307 496.08539867 C34.8505676 496.07636625 30.83693357 496.09030889 26.82324219 496.10131836 C18.95899278 496.11912757 11.09489586 496.11525295 3.23064041 496.1036678 C-3.15940352 496.09464317 -9.54940465 496.09340526 -15.93945312 496.09776306 C-16.84807476 496.09837599 -17.7566964 496.09898893 -18.69285202 496.09962043 C-20.53855897 496.1008993 -22.38426591 496.10219615 -24.22997284 496.1035108 C-41.54708331 496.11492363 -58.86410916 496.10179187 -76.18120575 496.08030933 C-91.04792956 496.06243771 -105.91452845 496.06554162 -120.78125 496.08398438 C-138.03536029 496.10537868 -155.28939637 496.11382493 -172.54351807 496.10153532 C-174.38252766 496.10026109 -176.22153726 496.09900361 -178.06054688 496.09776306 C-178.96543224 496.09714596 -179.87031761 496.09652886 -180.80262375 496.09589306 C-187.18679329 496.09243583 -193.57091586 496.09827651 -199.95507812 496.10768127 C-207.73269171 496.11888666 -215.51014378 496.11589207 -223.2877388 496.0945583 C-227.25787499 496.0840281 -231.22774163 496.07995931 -235.19787598 496.09315491 C-238.82987825 496.1050443 -242.46136028 496.0985742 -246.09331512 496.0772447 C-248.03472438 496.07063551 -249.97616954 496.08374566 -251.9175415 496.09747362 C-253.06559265 496.08704263 -254.2136438 496.07661164 -255.39648438 496.06586456 C-256.38918335 496.06521515 -257.38188232 496.06456574 -258.40466309 496.06389666 C-261.72067622 495.42327158 -262.91264495 494.16012929 -265 491.5625 C-265.50336456 489.58335686 -265.50336456 489.58335686 -265.50793457 487.46627808 C-265.51921387 486.65905807 -265.53049316 485.85183807 -265.54211426 485.02015686 C-265.52996887 483.70476173 -265.52996887 483.70476173 -265.51757812 482.36279297 C-265.5245874 481.43217545 -265.53159668 480.50155792 -265.53881836 479.54273987 C-265.55643566 476.46308621 -265.5447564 473.38435072 -265.53125 470.3046875 C-265.5339452 468.15959497 -265.53782786 466.01450363 -265.54284668 463.86941528 C-265.54874794 459.36855463 -265.54016344 454.86801128 -265.52148438 450.3671875 C-265.49877711 444.6172835 -265.51176194 438.86812973 -265.53577423 433.11825371 C-265.55028559 428.68450355 -265.54560035 424.25092868 -265.53526306 419.817173 C-265.53260622 417.6986291 -265.53582859 415.58006896 -265.54518127 413.46154404 C-265.55542541 410.48679794 -265.53973253 407.51323317 -265.51757812 404.53857422 C-265.52972351 403.24139717 -265.52972351 403.24139717 -265.54211426 401.91801453 C-265.4471367 394.97833514 -264.00290984 387.91425376 -259.25006866 382.60928154 C-254.29543884 378.06799673 -249.51943514 376.37502819 -242.81396484 375.98461914 C-241.57346375 375.91107208 -240.33296265 375.83752502 -239.05487061 375.76174927 C-237.70334183 375.69343178 -236.35171334 375.62706282 -235 375.5625 C-233.97734417 375.51322924 -233.97734417 375.51322924 -232.93402863 375.4629631 C-227.6160134 375.21432245 -222.29658922 375.00873639 -216.9765625 374.80859375 C-215.26044443 374.74283398 -213.54432918 374.67700087 -211.82821655 374.61109924 C-208.24637829 374.47417963 -204.66447434 374.33915663 -201.08251953 374.20532227 C-197.46194774 374.06981189 -193.84152188 373.93111644 -190.22119141 373.78930664 C-170.47370508 373.01618378 -150.76674241 372.30111533 -131 372.5625 C-131.05681946 371.87955368 -131.11363892 371.19660736 -131.17218018 370.4929657 C-132.2038451 358.07028437 -133.16937581 345.64469167 -133.99127197 333.20632935 C-134.12198442 331.23302482 -134.25602138 329.2599414 -134.39013672 327.28686523 C-134.85985258 320.03273226 -135.11818327 312.83170929 -135 305.5625 C-135.87615967 305.80262817 -135.87615967 305.80262817 -136.77001953 306.04760742 C-140.11650272 306.82029551 -143.45799663 306.82797702 -146.875 306.875 C-147.56980469 306.90400391 -148.26460938 306.93300781 -148.98046875 306.96289062 C-154.17918116 307.02652835 -156.99897664 305.81073823 -161 302.5625 C-165.10663324 298.01190641 -166.21548116 294.87318089 -166.13008499 288.71854401 C-165.92544334 285.32678919 -165.22171486 282.07234691 -164.44287109 278.77636719 C-164.27694458 278.04344955 -164.11101807 277.31053192 -163.94006348 276.55540466 C-163.39368981 274.15451903 -162.83432021 271.75690945 -162.2734375 269.359375 C-161.8839162 267.67327377 -161.49473135 265.98709479 -161.10586548 264.30084229 C-160.28977207 260.77250593 -159.46668571 257.24588657 -158.63916016 253.72021484 C-157.58734625 249.23460344 -156.55748592 244.74427628 -155.53351402 240.25223923 C-154.7358766 236.76815078 -153.92413186 233.28745797 -153.10853958 229.80753326 C-152.72344326 228.15509466 -152.34310118 226.50153967 -151.96790695 224.84682465 C-148.83090007 211.05767459 -145.36171259 197.93042852 -133 189.5625 C-126.49389512 185.48346192 -119.74280807 184.31417877 -112.25 183.0625 C-93.77991204 180.04766552 -93.77991204 180.04766552 -78 170.5625 C-75.5427888 166.89695722 -74.81916512 162.84117493 -74 158.5625 C-74.68964844 158.08941406 -75.37929687 157.61632812 -76.08984375 157.12890625 C-86.11782851 150.07217623 -97.69418924 141.38964587 -100.65625 128.765625 C-100.82640625 127.67507812 -100.82640625 127.67507812 -101 126.5625 C-102.16015625 126.64951172 -102.16015625 126.64951172 -103.34375 126.73828125 C-109.61785725 127.0100557 -114.22152235 126.9128505 -119.37890625 123.1171875 C-124.7598771 117.95664196 -125.90227068 111.91472065 -126.11352539 104.66845703 C-126.11336906 103.21906588 -126.10783919 101.76966789 -126.09765625 100.3203125 C-126.09553383 99.16775467 -126.09553383 99.16775467 -126.09336853 97.99191284 C-126.08780683 95.55706761 -126.0752616 93.12231706 -126.0625 90.6875 C-126.05748004 89.02864717 -126.05291801 87.36979288 -126.04882812 85.7109375 C-126.03784998 81.6614223 -126.02061206 77.61197716 -126 73.5625 C-127.2593335 73.57619629 -128.51866699 73.58989258 -129.81616211 73.60400391 C-137.50821061 73.68766127 -144.94661312 70.65229508 -150.5 65.3125 C-156.14429052 58.72749439 -158.20100567 52.20574399 -158 43.5625 C-156.86160365 29.52227834 -146.34613381 17.10035446 -136.1953125 8.06640625 C-127.71411985 1.51930994 -120.32322822 -1.15642532 -109.640625 0.04296875 C-107 0.5625 -107 0.5625 -104.01171875 1.859375 C-100.94682231 2.93446377 -100.94682231 2.93446377 -98.31640625 1.03515625 C-97.40761719 0.23980469 -96.49882812 -0.55554688 -95.5625 -1.375 C-68.16818114 -23.83164189 -27.20277411 -21.52142018 0 0 Z " fill="#472B3C" transform="translate(265,16.4375)"/>
<path d="M0 0 C4.73395438 2.61482973 6.24372003 5.51911939 7.79663086 10.64282227 C9.3561754 16.9571175 10.51615003 23.34801815 11.72680664 29.73657227 C12.95663129 35.37369585 14.85167156 40.68067049 16.92163086 46.05688477 C17.44164673 47.41052124 17.44164673 47.41052124 17.97216797 48.79150391 C18.57698805 50.3576616 19.18834956 51.92132931 19.80981445 53.48095703 C20.53661671 55.46702006 21.07286279 57.43473739 21.54663086 59.49438477 C22.95817184 59.77186718 24.37642885 60.01531993 25.79663086 60.24438477 C26.58553711 60.38360352 27.37444336 60.52282227 28.18725586 60.66625977 C30.65655512 60.69258479 30.65655512 60.69258479 32.65209961 58.98657227 C35.03903296 55.84664757 36.32392537 52.55478672 37.60913086 48.86938477 C37.9975415 47.79261475 37.9975415 47.79261475 38.39379883 46.6940918 C40.30263112 41.34574844 42.01763754 35.96347624 43.54663086 30.49438477 C44.02229492 28.87983398 44.02229492 28.87983398 44.50756836 27.23266602 C44.85045898 26.0609082 45.19334961 24.88915039 45.54663086 23.68188477 C46.07450195 21.91071289 46.07450195 21.91071289 46.61303711 20.10375977 C47.61914815 16.5234495 47.61914815 16.5234495 48.01147461 12.88500977 C48.49323244 9.36539054 48.93494675 6.66781348 50.54663086 3.49438477 C54.6816178 0.9305867 58.86482445 -0.29324663 63.54663086 -1.50561523 C63.87663086 -1.83561523 64.20663086 -2.16561523 64.54663086 -2.50561523 C71.4059798 -2.03255669 78.0266628 -0.65963467 84.74975586 0.74438477 C88.19757026 1.42543452 91.62958001 1.94717121 95.10913086 2.43188477 C101.02389003 3.4004762 104.49359514 5.44134905 108.73413086 9.68188477 C113.38207174 16.89420682 114.77517747 26.06527987 116.73413086 34.30688477 C117.0294873 35.53995361 117.32484375 36.77302246 117.62915039 38.04345703 C120.15687873 48.65088844 122.55271122 59.28802181 124.92163086 69.93188477 C125.09657074 70.71673248 125.27151062 71.5015802 125.45175171 72.31021118 C125.95168439 74.55732855 126.44896778 76.80501232 126.94506836 79.05297852 C127.09268112 79.71746002 127.24029388 80.38194153 127.39237976 81.06655884 C128.22509625 84.86113071 128.94126268 88.65706011 129.54663086 92.49438477 C124.20036171 92.57098847 119.01847598 92.33268552 113.70678711 91.68969727 C112.6189518 91.56363602 112.6189518 91.56363602 111.50914001 91.43502808 C109.20861256 91.16742485 106.90888562 90.89354057 104.60913086 90.61938477 C103.1033204 90.44318499 101.59746122 90.26740106 100.09155273 90.09204102 C96.34441575 89.65463439 92.59792831 89.21192773 88.85162354 88.76745605 C84.87396373 88.29622476 80.89581653 87.82913902 76.91772461 87.36157227 C75.48860465 87.19345879 74.0594866 87.02532907 72.63037109 86.85717773 C71.10391968 86.67759521 71.10391968 86.67759521 69.54663086 86.49438477 C70.56112417 79.52597986 71.70188416 72.63338709 73.17163086 65.74438477 C74.29794495 60.1532461 75.20977744 55.1784983 74.54663086 49.49438477 C72.3801759 46.74465347 70.97630809 46.56599764 67.54663086 45.99438477 C64.44204328 46.22027709 64.44204328 46.22027709 62.49511719 48.47729492 C60.0132273 52.32032151 59.24051926 55.82061947 58.37084961 60.26782227 C58.19656937 61.10979156 58.02228912 61.95176086 57.84272766 62.81924438 C57.47887782 64.59464254 57.12209355 66.37150167 56.77197266 68.1496582 C56.23648712 70.85746978 55.67359544 73.5585195 55.10717773 76.26000977 C54.75591327 77.99144565 54.40625055 79.72320741 54.05834961 81.45532227 C53.89074631 82.25658539 53.72314301 83.05784851 53.55046082 83.88339233 C52.62487487 88.68401335 52.35966889 92.65982159 53.54663086 97.49438477 C54.36281136 98.41513039 54.36281136 98.41513039 55.19548035 99.35447693 C56.54663086 101.49438477 56.54663086 101.49438477 56.10583496 104.0297699 C55.72342651 104.98287552 55.34101807 105.93598114 54.94702148 106.91796875 C54.52247681 108.00266953 54.09793213 109.0873703 53.66052246 110.2049408 C52.93898987 111.95503197 52.93898987 111.95503197 52.20288086 113.74047852 C51.48183167 115.54537498 51.48183167 115.54537498 50.74621582 117.38673401 C49.72592155 119.93637303 48.69220913 122.4800045 47.64819336 125.02001953 C46.31564363 128.26382745 45.01215527 131.51833903 43.71805573 134.77764797 C42.47656121 137.89578839 41.21416972 141.00529031 39.95288086 144.11547852 C39.48805298 145.28018173 39.0232251 146.44488495 38.54431152 147.6448822 C36.21268667 153.28445413 34.34422409 157.64233564 29.54663086 161.49438477 C28.21631836 162.63907227 28.21631836 162.63907227 26.85913086 163.80688477 C24.54663086 165.49438477 24.54663086 165.49438477 22.54663086 165.49438477 C17.59383497 152.90243102 12.78776399 140.26067015 8.12768555 127.55737305 C7.3971495 125.57199119 6.66200055 123.58830153 5.92260742 121.60620117 C4.83896816 118.70024977 3.76940212 115.78946761 2.70288086 112.87719727 C2.36969849 111.9918631 2.03651611 111.10652893 1.6932373 110.19436646 C1.39542358 109.37185394 1.09760986 108.54934143 0.79077148 107.7019043 C0.52542603 106.98342316 0.26008057 106.26494202 -0.01330566 105.52468872 C-0.53570017 103.11453726 -0.29495957 101.7991102 0.54663086 99.49438477 C1.53663086 98.00938477 1.53663086 98.00938477 2.54663086 96.49438477 C2.95503812 90.87392292 2.01157435 85.65161141 0.93725586 80.16625977 C0.76917419 79.29543762 0.60109253 78.42461548 0.42791748 77.52740479 C0.07170227 75.69797967 -0.28820397 73.86926978 -0.65161133 72.04125977 C-1.20381409 69.24212931 -1.7312034 66.4390071 -2.25805664 63.63500977 C-2.60810579 61.85346175 -2.95961769 60.07220038 -3.31274414 58.29125977 C-3.46708923 57.45375183 -3.62143433 56.6162439 -3.78045654 55.75335693 C-4.69019468 51.17046161 -4.69019468 51.17046161 -7.3996582 47.47583008 C-10.34763832 46.0670236 -12.23147934 45.95740313 -15.45336914 46.49438477 C-18.10358612 48.32617244 -18.10358612 48.32617244 -19.45336914 51.49438477 C-19.47761061 58.78733763 -17.35654249 66.20770965 -15.82641602 73.29711914 C-15.65045898 74.13952148 -15.47450195 74.98192383 -15.29321289 75.84985352 C-15.13199951 76.59904053 -14.97078613 77.34822754 -14.8046875 78.12011719 C-14.38831842 80.93400826 -14.39834787 83.65400783 -14.45336914 86.49438477 C-23.77141762 87.92155532 -33.07933365 89.02514674 -42.46728516 89.87207031 C-44.51832455 90.05710628 -46.56887078 90.24698161 -48.61938477 90.43774414 C-56.89165515 91.20172116 -65.16835271 91.88405906 -73.45336914 92.49438477 C-71.94069759 82.14924966 -69.59272062 72.03763275 -67.20336914 61.86938477 C-66.39129132 58.39953816 -65.58054463 54.92938108 -64.76977539 51.45922852 C-64.56991531 50.60581375 -64.37005524 49.75239899 -64.16413879 48.87312317 C-62.95930274 43.71451293 -61.79560696 38.54938108 -60.66821289 33.37329102 C-60.40621094 32.18493652 -60.14420898 30.99658203 -59.87426758 29.7722168 C-59.40010479 27.61259786 -58.9352604 25.4509026 -58.48168945 23.28686523 C-56.57167749 14.68308988 -53.5298905 9.80177578 -46.45336914 4.49438477 C-43.32484649 2.66654447 -40.48776639 2.01657097 -36.91821289 1.45922852 C-35.86182617 1.2897168 -34.80543945 1.12020508 -33.71704102 0.94555664 C-32.07058594 0.69128906 -32.07058594 0.69128906 -30.39086914 0.43188477 C-28.21214941 0.08894995 -26.0337472 -0.25601006 -23.85571289 -0.60327148 C-22.89141357 -0.7528833 -21.92711426 -0.90249512 -20.93359375 -1.05664062 C-13.19205071 -2.45802833 -7.65587468 -3.10704082 0 0 Z " fill="#7C8AC9" transform="translate(189.453369140625,214.505615234375)"/>
<path d="M0 0 C1.19426605 -0.00776459 2.3885321 -0.01552917 3.61898804 -0.02352905 C6.96632806 -0.04088122 10.31281283 -0.03652677 13.66015625 -0.0234375 C15.12562393 -0.03234261 15.12562393 -0.03234261 16.62069702 -0.04142761 C21.51979947 0.00945523 24.99357832 0.11691249 28.9375 3.375 C35.2928004 14.25989632 34.28267329 29.73936148 34.25317383 41.90625 C34.25005422 44.57855671 34.27340007 47.24970761 34.29882812 49.921875 C34.30391808 63.84799606 32.69682701 76.3003839 30.9375 90.375 C-14.2725 90.375 -59.4825 90.375 -106.0625 90.375 C-106.0625 52.3077911 -106.0625 52.3077911 -105.80004883 35.20532227 C-105.76599632 32.8118461 -105.73824086 30.41827387 -105.71606445 28.0246582 C-105.6827915 24.49135327 -105.63068429 20.95878194 -105.57421875 17.42578125 C-105.56782883 16.35419266 -105.5614389 15.28260406 -105.55485535 14.17854309 C-105.53506119 13.19447983 -105.51526703 12.21041656 -105.49487305 11.1965332 C-105.48376999 10.33437698 -105.47266693 9.47222076 -105.46122742 8.5839386 C-105.0625 6.375 -105.0625 6.375 -103.90283203 4.6121521 C-101.30960666 2.868872 -99.29819553 2.89497839 -96.18481445 2.7590332 C-94.96241058 2.69922775 -93.74000671 2.6394223 -92.4805603 2.57780457 C-91.12898575 2.52664004 -89.77739196 2.47598152 -88.42578125 2.42578125 C-87.01229585 2.3635116 -85.5988542 2.30024178 -84.18545532 2.23603821 C-80.37374949 2.0676609 -76.56151671 1.91948766 -72.74876022 1.77710724 C-70.38029181 1.68769976 -68.01205753 1.59353083 -65.64382935 1.49798584 C-43.76524338 0.62094385 -21.89665432 0.06661766 0 0 Z " fill="#E5E4EC" transform="translate(122.0625,405.625)"/>
<path d="M0 0 C3.1825273 0.26521061 4.66299056 0.66634722 6.9609375 2.94140625 C9.65868817 6.98803226 10.91583007 11.13932825 12.375 15.75 C18.20650932 33.12932996 28.23873072 41.26251367 42.96777344 51.60839844 C43.7312207 52.14754883 44.49466797 52.68669922 45.28125 53.2421875 C46.31862305 53.96704346 46.31862305 53.96704346 47.37695312 54.70654297 C49 56 49 56 50 58 C49.12542145 58.00142502 48.2508429 58.00285004 47.34976196 58.00431824 C39.02577231 58.02229786 30.70230384 58.06434739 22.37856483 58.13209057 C18.10126641 58.16608875 13.82431482 58.19142754 9.546875 58.19555664 C5.40326774 58.1998989 1.26043926 58.22883973 -2.88292313 58.27343178 C-4.44775444 58.28622068 -6.01267988 58.29078227 -7.57755661 58.28615379 C-18.7489164 58.2608562 -28.41468391 60.06317865 -39.06505966 63.40397835 C-41.60478837 64.18629358 -44.16634742 64.85491148 -46.74365234 65.50146484 C-47.55023285 65.7045224 -48.35681335 65.90757996 -49.18783569 66.11679077 C-49.97920929 66.31285919 -50.77058289 66.50892761 -51.5859375 66.7109375 C-52.46101959 66.92819489 -53.33610168 67.14545227 -54.23770142 67.36929321 C-56.04317826 67.815933 -57.8490327 68.26104939 -59.65527344 68.70458984 C-62.42342632 69.38693705 -65.18815626 70.08222091 -67.953125 70.77734375 C-69.72636667 71.21433707 -71.49979716 71.65056511 -73.2734375 72.0859375 C-74.09315033 72.29415131 -74.91286316 72.50236511 -75.75741577 72.71688843 C-79.55727542 73.6346186 -82.26097372 74.16230295 -86 73 C-85.67 72.236875 -85.34 71.47375 -85 70.6875 C-82.94699575 63.11704683 -83.14168043 56.10376097 -86.7421875 49.06640625 C-91.01531684 42.04626519 -96.01713735 37.50462033 -104.1247406 35.46565247 C-107.76622798 34.87590826 -111.35313382 34.83631893 -115.03149414 34.82299805 C-116.22264076 34.81314125 -116.22264076 34.81314125 -117.43785095 34.80308533 C-120.05362045 34.78344614 -122.66933299 34.77171511 -125.28515625 34.76171875 C-126.18024839 34.75764322 -127.07534054 34.7535677 -127.99755669 34.74936867 C-132.72891887 34.72855504 -137.4602524 34.71422906 -142.19165039 34.70483398 C-147.08001004 34.6937368 -151.9679186 34.65928576 -156.8561182 34.61966228 C-160.61617392 34.59355443 -164.37612069 34.58514771 -168.13625908 34.58155251 C-169.93881743 34.57667697 -171.74137061 34.56503552 -173.54384041 34.54651451 C-176.06222952 34.52223077 -178.57943067 34.52306711 -181.09790039 34.5300293 C-181.84242462 34.51721924 -182.58694885 34.50440918 -183.35403442 34.49121094 C-186.79537433 34.52593176 -188.67192837 34.75462574 -191.46263123 36.84187317 C-193.5613044 39.78794763 -193.59016376 41.45901743 -193 45 C-191.51244572 47.30743644 -191.51244572 47.30743644 -189 49 C-186.26199307 49.38771441 -183.92492837 49.53454195 -181.18969727 49.49829102 C-180.40710541 49.50380981 -179.62451355 49.50932861 -178.81820679 49.51501465 C-177.12184214 49.52432854 -175.42540757 49.52444481 -173.72903633 49.51642036 C-171.04279279 49.50379527 -168.35757755 49.51507511 -165.67137146 49.53245544 C-160.93694005 49.55917159 -156.20276035 49.56475063 -151.46826172 49.56335449 C-143.89382144 49.56112709 -136.31969297 49.57524852 -128.74537468 49.61894035 C-126.10128775 49.62877649 -123.45769073 49.62006221 -120.81361389 49.61024475 C-119.18897176 49.61638986 -117.56433229 49.6233019 -115.93969727 49.63110352 C-114.83997337 49.61952461 -114.83997337 49.61952461 -113.71803284 49.60771179 C-107.87628657 49.66553977 -104.80526264 51.24352824 -100.6875 55.25 C-98.50618816 58.80473041 -98.48620977 60.88967819 -99 65 C-100.51992104 68.18459646 -102.28295959 70.73579966 -105 73 C-108.06353199 74.02117733 -110.12697668 74.12332347 -113.33403015 74.12025452 C-114.99359741 74.12231651 -114.99359741 74.12231651 -116.68669128 74.12442017 C-117.9008522 74.12082489 -119.11501312 74.11722961 -120.3659668 74.11352539 C-121.64412262 74.11367142 -122.92227844 74.11381744 -124.23916626 74.1139679 C-127.74508917 74.11425512 -131.25097795 74.10837044 -134.75689292 74.10139394 C-138.42043113 74.09514799 -142.0839701 74.09455562 -145.74751282 74.09336853 C-152.68540846 74.09025889 -159.62328837 74.08205042 -166.56117707 74.07201904 C-174.45952225 74.06084654 -182.35786816 74.05534458 -190.25621927 74.05032361 C-206.50415684 74.03986752 -222.75207275 74.02152657 -239 74 C-239 66.08 -239 58.16 -239 50 C-237.24171875 49.93941406 -235.4834375 49.87882812 -233.671875 49.81640625 C-231.3645752 49.73199284 -229.05728396 49.64734524 -226.75 49.5625 C-225.59113281 49.52318359 -224.43226563 49.48386719 -223.23828125 49.44335938 C-222.12324219 49.40146484 -221.00820312 49.35957031 -219.859375 49.31640625 C-218.31975098 49.26141968 -218.31975098 49.26141968 -216.74902344 49.20532227 C-214.36389113 49.02717872 -212.28700501 48.67222637 -210 48 C-209.80426392 46.56359829 -209.61872184 45.12580496 -209.4375 43.6875 C-209.33308594 42.88699219 -209.22867188 42.08648437 -209.12109375 41.26171875 C-208.85244822 38.83182884 -208.85244822 38.83182884 -210 36 C-213.2235982 34.72075724 -216.64551732 34.80137931 -220.078125 34.68359375 C-221.23828125 34.64169922 -222.3984375 34.59980469 -223.59375 34.55664062 C-225.40359375 34.49766602 -225.40359375 34.49766602 -227.25 34.4375 C-228.47203125 34.39431641 -229.6940625 34.35113281 -230.953125 34.30664062 C-233.9686392 34.20062645 -236.98423448 34.09856064 -240 34 C-240 33.34 -240 32.68 -240 32 C-234.49710731 29.94024834 -228.9126182 28.94457103 -223.15234375 27.90625 C-222.10405899 27.71405884 -221.05577423 27.52186768 -219.97572327 27.32385254 C-217.75966146 26.91844213 -215.54321546 26.5151269 -213.32641602 26.11376953 C-209.97258874 25.50635495 -206.62000483 24.89243624 -203.26757812 24.27734375 C-197.18198034 23.16430915 -191.09282918 22.07272356 -185 21 C-184.28290863 20.8730777 -183.56581726 20.7461554 -182.82699585 20.61538696 C-175.49824363 19.3351602 -168.37888509 18.64119686 -160.9375 18.6875 C-159.98286865 18.69241455 -159.0282373 18.6973291 -158.04467773 18.70239258 C-149.67169512 18.84152608 -142.62420255 20.42199475 -134.72045898 23.11914062 C-126.36562539 25.96169949 -117.98489548 28.55007122 -109.44775391 30.79516602 C-108.14700345 31.14065238 -106.84845531 31.49453724 -105.55224609 31.85668945 C-94.36057393 34.98232952 -80.82618523 38.09833634 -69.9765625 32.328125 C-65.66916554 29.43382665 -61.93473385 25.94795526 -58.28515625 22.2734375 C-49.41940665 13.77628581 -35.88368661 7.19224577 -23.625 6.375 C-22.03558594 6.26285156 -22.03558594 6.26285156 -20.4140625 6.1484375 C-19.61742187 6.09945313 -18.82078125 6.05046875 -18 6 C-18.4979837 9.73487777 -18.87491756 11.81237635 -21 15 C-21.845625 15.4125 -22.69125 15.825 -23.5625 16.25 C-26.34499154 17.86777831 -26.34499154 17.86777831 -27 21.4375 C-27.2006072 24.87279794 -27.2006072 24.87279794 -26.125 27.4375 C-23.1741756 29.60722382 -20.87676982 29.56553513 -17.27734375 29.3671875 C-13.53741717 28.76418047 -11.7454853 27.62069052 -9 25 C-4.86496881 18.91231519 -3.31618607 12.80785402 -2.45703125 5.56640625 C-2 3 -2 3 0 0 Z " fill="#FDD3C0" transform="translate(411,390)"/>
<path d="M0 0 C3.45693958 1.51092783 5.87947684 3.56305081 8.6875 6.0625 C21.03155374 16.30508615 34.96168598 22.28352184 50.8125 24.06640625 C51.60076172 24.15700317 52.38902344 24.2476001 53.20117188 24.34094238 C55.13387071 24.5627635 57.06690321 24.78167409 59 25 C59.10002085 30.31610837 59.17200342 35.63165079 59.21972656 40.94848633 C59.23965268 42.75131795 59.26680384 44.55408658 59.30175781 46.35668945 C59.61182767 62.77671242 58.18462389 76.33149127 46.2734375 88.80859375 C37.06827855 97.23614795 26.20394136 99.62639436 13.9453125 99.30859375 C3.72100849 98.50887096 -4.05862268 93.25387549 -10.9765625 85.8984375 C-20.95679042 73.87969494 -21.45173086 60.78858879 -21.78955078 45.85546875 C-21.84623445 43.87834238 -21.92802976 41.90176687 -22.03564453 39.92675781 C-22.88908208 23.93349864 -22.88908208 23.93349864 -19.75637817 19.06881714 C-17.22436233 16.29896636 -14.43047861 14.21299692 -11.28295898 12.19262695 C-6.42055782 8.94512008 -3.39733772 4.73163954 0 0 Z " fill="#FBD1BF" transform="translate(197,64)"/>
<path d="M0 0 C2.11398908 0.02123157 4.22450093 0.00026204 6.33837891 -0.02539062 C18.67639255 -0.05087025 30.21812212 1.89209448 39.51416016 10.52148438 C40.32626953 11.2665625 41.13837891 12.01164062 41.97509766 12.77929688 C47.65615003 18.2215062 52.34128345 23.86203045 56.51416016 30.52148438 C57.48482422 32.04322266 57.48482422 32.04322266 58.47509766 33.59570312 C66.88870603 47.47332154 72.06774885 62.49259751 74.51416016 78.52148438 C74.64435547 79.27816406 74.77455078 80.03484375 74.90869141 80.81445312 C75.68072426 86.13633291 75.6451994 91.52849162 75.70166016 96.89648438 C75.71479248 97.69481689 75.7279248 98.49314941 75.74145508 99.31567383 C75.74688574 103.23702696 75.73774002 105.18611457 73.51416016 108.52148438 C70.2392698 107.90641503 68.1850742 106.77466991 65.52978516 104.78320312 C64.76706299 104.21625732 64.00434082 103.64931152 63.21850586 103.06518555 C62.40857178 102.45263916 61.5986377 101.84009277 60.76416016 101.20898438 C59.92522217 100.58032471 59.08628418 99.95166504 58.22192383 99.30395508 C56.49209775 98.00744267 54.76383344 96.708844 53.03710938 95.40820312 C50.7027321 93.66250276 48.35067842 91.94569298 45.98681641 90.24023438 C42.09190776 87.42038695 38.27315635 84.52002949 34.51416016 81.52148438 C33.68142578 80.85890625 32.84869141 80.19632812 31.99072266 79.51367188 C26.08221991 73.92210031 24.40232598 66.76833277 22.09057617 59.20385742 C19.61502645 51.26751542 16.58922393 45.55408997 9.82666016 40.52148438 C4.15829479 38.07029935 -2.79934939 37.0628011 -8.65771484 39.38085938 C-10.75599892 40.57740154 -12.76753283 41.80317736 -14.48583984 43.52148438 C-16.46296948 43.65899726 -18.44302473 43.7545903 -20.42333984 43.83398438 C-29.34396339 44.38634497 -37.82226801 46.40961596 -46.48583984 48.52148438 C-42.79888882 40.54150818 -38.50463201 32.96612891 -34.04833984 25.39648438 C-33.51120361 24.47915527 -32.97406738 23.56182617 -32.4206543 22.61669922 C-30.80732498 19.89723297 -29.16037408 17.20367264 -27.48583984 14.52148438 C-26.91720215 13.60915039 -26.34856445 12.69681641 -25.76269531 11.75683594 C-18.6465322 0.9167527 -12.48790221 -0.14883587 0 0 Z " fill="#656565" transform="translate(413.48583984375,336.478515625)"/>
<path d="M0 0 C1.47861127 1.45889645 2.93970868 2.93596446 4.375 4.4375 C4.9215625 4.953125 5.468125 5.46875 6.03125 6 C18.79669148 19.03704662 20.6066504 36.32484215 20.47851562 53.58081055 C20.45024802 55.86653754 20.41675339 58.15198366 20.375 60.4375 C19.055 60.4375 17.735 60.4375 16.375 60.4375 C16.34921875 59.54546875 16.3234375 58.6534375 16.296875 57.734375 C16.24015625 56.56390625 16.1834375 55.3934375 16.125 54.1875 C16.07859375 53.02734375 16.0321875 51.8671875 15.984375 50.671875 C15.56658291 47.45635066 15.56658291 47.45635066 13.97265625 45.04296875 C9.86988045 42.50726822 5.78742227 42.97772764 1.0625 43 C-17.58295208 42.57374865 -33.24364116 35.51899645 -46.625 22.4375 C-47.57375 21.6125 -48.5225 20.7875 -49.5 19.9375 C-52.16359604 16.71540801 -51.96394072 13.43962756 -52.125 9.375 C-52.16465768 3.74946397 -52.16465768 3.74946397 -54.75 -1 C-57.61962798 -2.85597173 -57.61962798 -2.85597173 -61.3125 -2.5625 C-64.88039113 -1.86866669 -64.88039113 -1.86866669 -66.625 1.4375 C-66.71368577 3.21740276 -66.79353409 4.99890289 -66.79882812 6.78100586 C-66.87398115 18.29149724 -71.0115763 25.88765776 -78.9375 34.25 C-82.87516146 37.97756248 -87.12075287 41.06667201 -91.65625 44.02734375 C-93.74747486 45.29351033 -93.74747486 45.29351033 -94.625 47.4375 C-94.85450319 49.641864 -95.03575933 51.85142173 -95.1875 54.0625 C-95.27128906 55.25101562 -95.35507813 56.43953125 -95.44140625 57.6640625 C-95.50199219 58.57929687 -95.56257812 59.49453125 -95.625 60.4375 C-96.945 60.4375 -98.265 60.4375 -99.625 60.4375 C-100.00172359 39.81623027 -99.32141343 22.02468925 -85.0625 5.8125 C-83.60360355 4.33388873 -82.12653554 2.87279132 -80.625 1.4375 C-80.109375 0.8909375 -79.59375 0.344375 -79.0625 -0.21875 C-57.83548691 -21.00353365 -21.42472608 -18.84343378 0 0 Z " fill="#656565" transform="translate(255.625,30.5625)"/>
<path d="M0 0 C1.42085152 -0.01029488 1.42085152 -0.01029488 2.8704071 -0.02079773 C5.98529261 -0.0390221 9.0996725 -0.03523522 12.21459961 -0.02954102 C14.38740706 -0.03410409 16.56021306 -0.03941004 18.73301697 -0.04542542 C23.27975338 -0.05434734 27.82631405 -0.05194281 32.37304688 -0.04199219 C38.19609291 -0.03048922 44.01853373 -0.0507394 49.84150028 -0.07990932 C54.32567691 -0.09826166 58.80970813 -0.09798101 63.29391289 -0.0922718 C65.44089038 -0.09211855 67.5878777 -0.09816624 69.73481941 -0.11056328 C72.73635942 -0.12545714 75.73677617 -0.11480844 78.73828125 -0.09765625 C79.62208466 -0.10732422 80.50588806 -0.11699219 81.41647339 -0.12695312 C86.85372664 -0.06196047 90.01547177 0.74468727 94.30444336 4.40405273 C99.49483554 12.189641 96.30444336 23.04694017 96.30444336 32.40405273 C54.06444336 32.40405273 11.82444336 32.40405273 -31.69555664 32.40405273 C-31.69555664 22.18694987 -30.75288204 15.58964364 -23.53930664 8.19311523 C-16.00944202 2.08154703 -9.54121326 -0.04870968 0 0 Z " fill="#7C8AC9" transform="translate(399.695556640625,463.595947265625)"/>
<path d="M0 0 C49.17 0 98.34 0 149 0 C149 5.28 149 10.56 149 16 C99.17 16 49.34 16 -2 16 C-1.34 10.72 -0.68 5.44 0 0 Z " fill="#7C8AC9" transform="translate(171,480)"/>
<path d="M0 0 C1.32863571 0.00592163 1.32863571 0.00592163 2.68411255 0.01196289 C3.68521561 0.01957642 3.68521561 0.01957642 4.70654297 0.02734375 C7.45025561 7.53574172 10.18879318 15.0459979 12.92072296 22.55869007 C14.18939534 26.04697885 15.45984827 29.5345975 16.734375 33.02075195 C17.96402752 36.38436695 19.18899649 39.74965323 20.41072083 43.11615562 C20.87792657 44.4009854 21.34682386 45.68520136 21.81742859 46.96879005 C22.47568111 48.76508184 23.12739758 50.56376472 23.77880859 52.36254883 C24.15187134 53.38625076 24.52493408 54.4099527 24.90930176 55.4646759 C25.70654297 58.02734375 25.70654297 58.02734375 25.70654297 61.02734375 C23.00471241 62.37825903 20.58846091 62.36592433 17.58154297 62.58984375 C16.48583984 62.67363281 15.39013672 62.75742187 14.26123047 62.84375 C13.41818359 62.90433594 12.57513672 62.96492188 11.70654297 63.02734375 C10.8765625 61.36738281 10.04661294 59.70740641 9.21679688 58.04736328 C8.49693918 56.60797555 7.77655476 55.16885112 7.05566406 53.72998047 C5.25384412 50.13188465 3.45918134 46.53077219 1.68701172 42.91796875 C1.3738501 42.28262207 1.06068848 41.64727539 0.73803711 40.99267578 C-0.12662023 39.23727932 -0.98747973 37.48001368 -1.84814453 35.72265625 C-3.15579884 32.97233222 -3.15579884 32.97233222 -5.29345703 31.02734375 C-9.62989304 30.71196659 -11.61998932 30.57836528 -15.29345703 33.02734375 C-17.07686029 42.86244339 -11.07492189 51.44281116 -6.62670898 59.86914062 C-1.6826407 69.31174581 1.0097806 76.12824062 -1.29345703 87.02734375 C-3.03733455 84.71546041 -4.74421619 82.39097787 -6.41845703 80.02734375 C-8.62652882 77.3476204 -10.78351306 76.17798932 -13.97314453 74.83984375 C-15.18719971 74.32357422 -15.18719971 74.32357422 -16.42578125 73.796875 C-17.04211426 73.54292969 -17.65844727 73.28898437 -18.29345703 73.02734375 C-18.70253132 65.80892713 -19.11144821 58.5905016 -19.52026367 51.37207031 C-19.65890064 48.92447719 -19.79757158 46.47688599 -19.9362793 44.02929688 C-20.7296639 30.02906606 -21.52021325 16.02870286 -22.29345703 2.02734375 C-20.3448948 1.77990728 -18.39632413 1.53253684 -16.44769287 1.28564453 C-14.96636969 1.09708738 -13.48548997 0.90503692 -12.00488281 0.7109375 C-7.98434188 0.22017639 -4.05249657 -0.02354392 0 0 Z " fill="#FBD1BF" transform="translate(168.29345703125,317.97265625)"/>
<path d="M0 0 C0.70318359 -0.020625 1.40636719 -0.04125 2.13085938 -0.0625 C6.66356432 -0.09648467 9.44430986 0.50470656 13.0625 3.25 C17.1686755 7.3561755 16.24657966 12.86872314 16.25195312 18.37719727 C16.1933841 23.85539813 15.45558083 28.96375578 14.0625 34.25 C10.93011229 33.8323483 7.82564569 33.40582222 4.72851562 32.7734375 C-2.72793349 31.25610389 -10.03040186 30.82968316 -17.625 30.625 C-18.81544922 30.58632813 -20.00589844 30.54765625 -21.23242188 30.5078125 C-24.13397053 30.41459005 -27.03552966 30.32878652 -29.9375 30.25 C-32.14585798 26.26612221 -32.59618865 22.7425944 -31.9375 18.25 C-29.14476485 11.61725402 -24.281836 6.40642765 -17.78125 3.1796875 C-15.86642778 2.44376702 -13.90235709 1.83945713 -11.9375 1.25 C-11.36386719 1.06695312 -10.79023438 0.88390625 -10.19921875 0.6953125 C-6.81310305 0.02861614 -3.4376229 0.02506926 0 0 Z " fill="#656565" transform="translate(434.9375,290.75)"/>
<path d="M0 0 C0.43699219 1.46759766 0.43699219 1.46759766 0.8828125 2.96484375 C3.2988369 10.78773316 5.85991739 17.48216329 11 24 C8 26 8 26 5 26.875 C1.56644332 28.16258376 0.87260175 28.92866047 -1 32 C-1.91935854 34.88287508 -1.91935854 34.88287508 -2.53515625 38.0859375 C-2.78716797 39.26414063 -3.03917969 40.44234375 -3.29882812 41.65625 C-3.55083984 42.8834375 -3.80285156 44.110625 -4.0625 45.375 C-4.57135694 47.80008143 -5.0829842 50.22458355 -5.59765625 52.6484375 C-5.81945557 53.72270996 -6.04125488 54.79698242 -6.26977539 55.90380859 C-7.00339513 59.01439555 -7.94339116 61.98539913 -9 65 C-9.66 64.67 -10.32 64.34 -11 64 C-11.68686474 61.51831377 -12.25495987 59.08868088 -12.76953125 56.5703125 C-13.10411808 55.03760752 -13.43942738 53.50506011 -13.77539062 51.97265625 C-14.29712408 49.5493578 -14.81246425 47.12517281 -15.31469727 44.69775391 C-15.80226091 42.35925862 -16.31527183 40.02750395 -16.83203125 37.6953125 C-16.97494095 36.97022491 -17.11785065 36.24513733 -17.26509094 35.49807739 C-18.0582803 31.99466596 -18.61257959 30.2966906 -21.50927734 28.07836914 C-22.33121582 27.72250732 -23.1531543 27.36664551 -24 27 C-24.66644531 26.68675781 -25.33289063 26.37351563 -26.01953125 26.05078125 C-26.61121094 25.80714844 -27.20289063 25.56351563 -27.8125 25.3125 C-29.3903125 24.6628125 -29.3903125 24.6628125 -31 24 C-30.63648438 23.59652344 -30.27296875 23.19304687 -29.8984375 22.77734375 C-24.50016727 16.25789432 -21.88241139 8.84997144 -19 1 C-16.39590255 0.83218705 -13.7917318 0.66570349 -11.1875 0.5 C-10.08051758 0.42845703 -10.08051758 0.42845703 -8.95117188 0.35546875 C-5.96175412 0.16609387 -2.99625426 0 0 0 Z " fill="#FAD1BF" transform="translate(227,178)"/>
<path d="M0 0 C6.7685324 -0.10152799 13.30324864 -0.03026944 20 1 C19.38296906 5.03698716 18.08098343 8.17591361 16.2265625 11.8046875 C15.65405762 12.93543701 15.08155273 14.06618652 14.49169922 15.23120117 C13.86968804 16.44591443 13.24745019 17.66051164 12.625 18.875 C11.34535185 21.38750203 10.07002172 23.90216659 8.796875 26.41796875 C8.47617035 27.05090347 8.1554657 27.6838382 7.82504272 28.33595276 C5.72681642 32.4979543 3.71948345 36.69344019 1.765625 40.92578125 C1.27497559 41.98490723 0.78432617 43.0440332 0.27880859 44.13525391 C-0.64143069 46.13609418 -1.55039633 48.14216667 -2.44677734 50.15380859 C-2.85879395 51.04535645 -3.27081055 51.9369043 -3.6953125 52.85546875 C-4.2214917 54.02565552 -4.2214917 54.02565552 -4.75830078 55.21948242 C-6 57 -6 57 -8.01904297 57.8215332 C-10 58 -10 58 -12 57 C-13.70363822 56.77377919 -15.41328701 56.59111527 -17.125 56.4375 C-18.75 56.29166667 -20.375 56.14583333 -22 56 C-20.10692728 49.33892041 -17.90620466 42.90323158 -15.3125 36.484375 C-14.96872314 35.62491272 -14.62494629 34.76545044 -14.27075195 33.87994385 C-13.55007829 32.08091824 -12.82731855 30.28272697 -12.10253906 28.48535156 C-10.99795749 25.74493263 -9.90083659 23.00161376 -8.8046875 20.2578125 C-8.09939494 18.49982477 -7.39368042 16.74200626 -6.6875 14.984375 C-6.36241455 14.17176208 -6.0373291 13.35914917 -5.70239258 12.52191162 C-3.97408162 8.24542977 -2.13256552 4.09616622 0 0 Z " fill="#FBD1BF" transform="translate(262,318)"/>
<path d="M0 0 C0.68191406 0.13535156 1.36382812 0.27070313 2.06640625 0.41015625 C8.76158674 1.5170641 15.84001853 1.16744249 22.5 0 C26.05457967 -0.45823311 26.34042243 -0.29497061 29.5625 1.875 C31.5 4.8125 31.5 4.8125 32.125 7.8125 C31.28466773 11.8460949 29.68604761 13.26366191 26.5 15.8125 C21.98893542 18.18805144 17.72951119 18.15994754 12.75 18.125 C11.54718384 18.11871582 11.54718384 18.11871582 10.32006836 18.11230469 C3.68683863 17.98555937 -2.34353542 17.58636281 -7.5625 13 C-8.86450609 9.96198579 -9.03487984 8.08863904 -8.5 4.8125 C-5.87986526 0.9641771 -4.73501371 -0.25366145 0 0 Z " fill="#4B2F3F" transform="translate(204.5,132.1875)"/>
<path d="M0 0 C-0.54269531 1.11117187 -1.08539063 2.22234375 -1.64453125 3.3671875 C-7.55414334 15.5937813 -11.19658733 26.4637967 -13 40 C-20.61406844 40.76140684 -20.61406844 40.76140684 -23.8984375 38.95703125 C-27.512655 35.95106011 -28.85787799 34.13697607 -29.4375 29.5 C-29.2614443 19.74651434 -20.50820376 11.43981633 -14 5 C-9.42417111 0.78417421 -6.25195306 -0.22275367 0 0 Z " fill="#656465" transform="translate(153,33)"/>
<path d="M0 0 C2.24767593 3.3715139 3.92054736 6.90069828 5.625 10.5625 C5.94984375 11.24763672 6.2746875 11.93277344 6.609375 12.63867188 C9 17.75641741 9 17.75641741 9 20 C8.01 20.66 7.02 21.32 6 22 C4.21659674 31.83509964 10.21853514 40.41546741 14.66674805 48.84179688 C19.61081633 58.28440206 22.30323763 65.10089687 20 76 C18.25612248 73.68811666 16.54924084 71.36363412 14.875 69 C12.66692821 66.32027665 10.50994397 65.15064557 7.3203125 63.8125 C6.51094238 63.46832031 5.70157227 63.12414062 4.86767578 62.76953125 C3.94317627 62.38861328 3.94317627 62.38861328 3 62 C2.56912466 54.61698798 2.14231362 47.23374885 1.71826172 39.8503418 C1.5736793 37.34117372 1.42818339 34.8320581 1.28173828 32.32299805 C1.07080919 28.70635328 0.86321914 25.08952954 0.65625 21.47265625 C0.55781799 19.80336815 0.55781799 19.80336815 0.45739746 18.10035706 C0.11496419 12.05457827 -0.06675732 6.05544544 0 0 Z " fill="#7B87C3" transform="translate(147,329)"/>
<path d="M0 0 C2.80266027 1.74330611 5.04759143 3.61790393 7.37890625 5.94921875 C8.0031477 9.96219948 7.70822117 11.4901737 5.31640625 14.82421875 C1.69845869 17.44145741 -0.24747361 17.44434556 -4.62109375 16.94921875 C-5.28109375 16.61921875 -5.94109375 16.28921875 -6.62109375 15.94921875 C-11.27385351 15.64395655 -11.27385351 15.64395655 -15.62109375 16.94921875 C-19.45724332 17.30441778 -21.76739009 17.49646469 -25.05859375 15.38671875 C-27.25131262 11.96607732 -27.25117068 9.93970596 -26.62109375 5.94921875 C-20.44581181 -1.99042946 -9.22895203 -3.69983323 0 0 Z " fill="#4B2E3F" transform="translate(204.62109375,92.05078125)"/>
<path d="M0 0 C1.7421875 1.16796875 1.7421875 1.16796875 3.7421875 4.16796875 C4.16473887 8.04135629 4.30886308 10.28395484 2.1796875 13.60546875 C-1.11151616 15.71521469 -3.42166293 15.52316778 -7.2578125 15.16796875 C-7.9178125 14.83796875 -8.5778125 14.50796875 -9.2578125 14.16796875 C-11.94794589 13.98092471 -14.55467427 14.08215484 -17.2578125 14.16796875 C-17.5878125 14.49796875 -17.9178125 14.82796875 -18.2578125 15.16796875 C-22.6122706 15.67040622 -24.59194779 15.64965811 -28.1953125 13.04296875 C-30.2578125 10.16796875 -30.2578125 10.16796875 -30.9453125 7.16796875 C-30.15569901 3.72238261 -28.82848816 2.39329872 -26.05859375 0.24609375 C-17.79226141 -4.70294687 -8.49293449 -4.05980934 0 0 Z " fill="#4A2E3E" transform="translate(250.2578125,93.83203125)"/>
<path d="M0 0 C0.33 0 0.66 0 1 0 C0.57129058 10.50338089 -0.0035441 20.97101558 -1 31.4375 C-1.0829834 32.31817139 -1.1659668 33.19884277 -1.25146484 34.10620117 C-1.64851424 38.12388859 -2.09341412 42.05797034 -3 46 C-13.55808656 44.07289294 -13.55808656 44.07289294 -18 42 C-17.48986442 36.18845542 -15.79033429 31.845681 -13.18359375 26.66015625 C-12.61971703 25.50972084 -12.61971703 25.50972084 -12.04444885 24.33604431 C-10.85123904 21.90691545 -9.64464199 19.48473046 -8.4375 17.0625 C-7.62215075 15.40864461 -6.80768822 13.75435176 -5.99414062 12.09960938 C-4.00631664 8.06127284 -2.00646559 4.02910468 0 0 Z " fill="#7A86C3" transform="translate(284,352)"/>
<path d="M0 0 C0.33 1.65 0.66 3.3 1 5 C-6.65541695 6.9078547 -14.1177798 8.48400816 -22 9 C-22.04254356 7.00045254 -22.04080783 4.99958364 -22 3 C-19.95827153 0.95827153 -16.0606188 1.2715084 -13.25 0.9375 C-12.53328125 0.84662109 -11.8165625 0.75574219 -11.078125 0.66210938 C-7.36548356 0.20826626 -3.74069516 -0.1104536 0 0 Z " fill="#F8CFBD" transform="translate(205,394)"/>
<path d="M0 0 C12.92111179 1.04357545 12.92111179 1.04357545 17.98828125 3.046875 C18.31828125 3.706875 18.64828125 4.366875 18.98828125 5.046875 C7.10828125 6.036875 7.10828125 6.036875 -5.01171875 7.046875 C-5.01171875 0.0780034 -5.01171875 0.0780034 0 0 Z " fill="#ECC3B4" transform="translate(231.01171875,387.953125)"/>
<path d="M0 0 C0.99 0 1.98 0 3 0 C3 6.6 3 13.2 3 20 C1.68 19.67 0.36 19.34 -1 19 C-1.02683987 16.02077407 -1.04676037 13.04178705 -1.0625 10.0625 C-1.07087891 9.21236328 -1.07925781 8.36222656 -1.08789062 7.48632812 C-1.09111328 6.67744141 -1.09433594 5.86855469 -1.09765625 5.03515625 C-1.10289307 4.2862915 -1.10812988 3.53742676 -1.11352539 2.76586914 C-1 1 -1 1 0 0 Z " fill="#FBD2BF" transform="translate(157,107)"/>
<path d="M0 0 C1.32 0.33 2.64 0.66 4 1 C4 6.94 4 12.88 4 19 C2.68 19 1.36 19 0 19 C0 12.73 0 6.46 0 0 Z " fill="#FDD3C0" transform="translate(272,107)"/>
</svg>
