<?xml version="1.0" encoding="UTF-8"?>
<svg version="1.1" xmlns="http://www.w3.org/2000/svg" width="512" height="512">
<path d="M0 0 C1.65246735 -0.01441132 1.65246735 -0.01441132 3.33831787 -0.02911377 C4.53410461 -0.03336365 5.72989136 -0.03761353 6.96191406 -0.04199219 C8.18783264 -0.04769226 9.41375122 -0.05339233 10.67681885 -0.05926514 C13.27607355 -0.06872659 15.8753403 -0.07525364 18.47460938 -0.07910156 C22.44710342 -0.08564803 26.41922869 -0.11980127 30.39160156 -0.15136719 C32.91503599 -0.15789846 35.43847411 -0.16314844 37.96191406 -0.16699219 C39.14960388 -0.17933899 40.3372937 -0.19168579 41.56097412 -0.20440674 C48.19381819 -0.18654203 53.19766705 0.01694752 58.37207031 4.62597656 C62.14148406 9.37871564 62.86844852 12.45201391 62.79003906 18.41113281 C62.78101563 19.30316406 62.77199219 20.19519531 62.76269531 21.11425781 C62.74529297 22.12746094 62.74529297 22.12746094 62.72753906 23.16113281 C63.67628906 23.11988281 64.62503906 23.07863281 65.60253906 23.03613281 C68.72753906 23.16113281 68.72753906 23.16113281 70.72753906 25.16113281 C70.35253906 27.28613281 70.35253906 27.28613281 69.72753906 29.16113281 C66.71722163 30.09536926 65.86103639 30.20563192 62.72753906 29.16113281 C62.72753906 31.47113281 62.72753906 33.78113281 62.72753906 36.16113281 C65.03753906 36.49113281 67.34753906 36.82113281 69.72753906 37.16113281 C70.10972673 38.81727939 70.44149008 40.48570306 70.72753906 42.16113281 C69.72753906 43.16113281 69.72753906 43.16113281 66.16503906 43.22363281 C65.03066406 43.20300781 63.89628906 43.18238281 62.72753906 43.16113281 C62.72753906 45.14113281 62.72753906 47.12113281 62.72753906 49.16113281 C65.03753906 49.82113281 67.34753906 50.48113281 69.72753906 51.16113281 C70.29003906 53.09863281 70.29003906 53.09863281 70.72753906 55.16113281 C69.72753906 56.16113281 69.72753906 56.16113281 66.16503906 56.22363281 C65.03066406 56.20300781 63.89628906 56.18238281 62.72753906 56.16113281 C62.72753906 57.48113281 62.72753906 58.80113281 62.72753906 60.16113281 C63.6946582 60.14542236 64.66177734 60.12971191 65.65820312 60.11352539 C69.3036236 60.05854042 72.94900879 60.02453806 76.59472656 59.99633789 C78.1618469 59.98140529 79.7289266 59.96105166 81.29589844 59.93481445 C99.99489466 59.62993951 115.51391567 63.33045233 129.50878906 76.71191406 C138.66644227 86.82080237 145.01581193 100.48331975 144.64278984 114.30029869 C144.01825099 122.57661474 143.05490336 130.74554259 141.82568359 138.95263672 C141.63528503 140.2521376 141.44488647 141.55163849 141.24871826 142.89051819 C140.73281859 146.40971199 140.21040335 149.92790772 139.68635798 153.44589663 C139.24693807 156.40019422 138.81087726 159.35498376 138.37480247 162.30977666 C137.34520979 169.28599329 136.31036528 176.2614163 135.27197266 183.23632812 C134.20580434 190.39833452 133.14779886 197.56151232 132.09392083 204.72533667 C131.18360924 210.91154783 130.2685921 217.09705031 129.34979331 223.28200662 C128.80334856 226.96058096 128.25851948 230.63937401 127.71808243 234.31883621 C127.11496853 238.42306844 126.50200926 242.52577411 125.88818359 246.62841797 C125.7135257 247.82562973 125.5388678 249.02284149 125.35891724 250.2563324 C121.84944313 273.49739881 121.84944313 273.49739881 113.74316406 279.67285156 C108.70681616 283.02760008 103.45297379 285.1393095 97.72753906 286.97363281 C97.08776123 287.18060791 96.4479834 287.38758301 95.78881836 287.60083008 C86.8177324 290.28729196 77.55186772 290.31053644 68.2578125 290.30639648 C66.60686333 290.3114344 66.60686333 290.3114344 64.92256165 290.3165741 C61.3106674 290.32601544 57.69881985 290.32802377 54.08691406 290.32910156 C51.55641664 290.33231888 49.0259194 290.33568331 46.49542236 290.33918762 C41.19990534 290.34516186 35.90440546 290.34707236 30.60888672 290.34643555 C24.5229686 290.34583572 18.43713939 290.35637662 12.35124373 290.37217921 C6.45661181 290.38692932 0.56201452 290.39042094 -5.33263397 290.38982582 C-7.82188022 290.39099894 -10.31112726 290.39538281 -12.80036163 290.40315819 C-54.7580697 290.52195127 -54.7580697 290.52195127 -70.30761719 278.29785156 C-76.87375569 271.15733912 -78.42349013 264.11325457 -79.76782227 254.64282227 C-79.97390588 253.28633418 -80.18158216 251.93008725 -80.39071655 250.57406616 C-80.9510662 246.90832134 -81.48805165 243.23951067 -82.01994157 239.56954217 C-82.58351369 235.70325068 -83.16596287 231.83979574 -83.74552917 227.97587585 C-84.71745865 221.47563917 -85.67415889 214.97329763 -86.62182617 208.46948242 C-87.70984626 201.00373678 -88.82174113 193.54185361 -89.94686109 186.08161575 C-91.03593572 178.85639843 -92.10740238 171.62866909 -93.17133141 164.3997097 C-93.62065983 161.34879305 -94.07585739 158.2988447 -94.53617287 155.24956703 C-102.44992376 102.68435864 -102.44992376 102.68435864 -89.27246094 83.16113281 C-86.46091692 79.62237704 -83.46433988 76.35865112 -80.27246094 73.16113281 C-79.70785156 72.58492188 -79.14324219 72.00871094 -78.56152344 71.41503906 C-61.56399847 55.45394855 -37.76242716 57.78558 -16.27246094 58.16113281 C-16.27246094 53.21113281 -16.27246094 48.26113281 -16.27246094 43.16113281 C-18.58246094 43.16113281 -20.89246094 43.16113281 -23.27246094 43.16113281 C-25.20996094 41.66113281 -25.20996094 41.66113281 -26.27246094 40.16113281 C-25.61246094 38.84113281 -24.95246094 37.52113281 -24.27246094 36.16113281 C-21.63246094 36.49113281 -18.99246094 36.82113281 -16.27246094 37.16113281 C-16.76746094 34.19113281 -16.76746094 34.19113281 -17.27246094 31.16113281 C-18.38621094 31.03738281 -19.49996094 30.91363281 -20.64746094 30.78613281 C-24.27246094 30.16113281 -24.27246094 30.16113281 -26.27246094 28.16113281 C-26.08496094 26.09863281 -26.08496094 26.09863281 -25.27246094 24.16113281 C-21.79422978 23.00172243 -19.81350515 23.45292397 -16.27246094 24.16113281 C-16.27246094 22.18113281 -16.27246094 20.20113281 -16.27246094 18.16113281 C-17.55121094 18.03738281 -18.82996094 17.91363281 -20.14746094 17.78613281 C-24.02246094 17.41113281 -24.02246094 17.41113281 -26.27246094 15.16113281 C-25.89746094 13.03613281 -25.89746094 13.03613281 -25.27246094 11.16113281 C-24.66917969 11.23074219 -24.06589844 11.30035156 -23.44433594 11.37207031 C-20.94324124 11.54149931 -18.74701685 11.58215101 -16.27246094 11.16113281 C-13.9136518 8.45640377 -13.9136518 8.45640377 -12.27246094 5.16113281 C-7.97980645 1.37950862 -5.67260679 0.03983622 0 0 Z " fill="#3A4169" transform="translate(312.2724609375,208.8388671875)"/>
<path d="M0 0 C1.37571012 0.40649581 2.75190517 0.81135347 4.12854004 1.21470642 C7.04928342 2.0739382 9.9665739 2.94371738 12.88150024 3.82247925 C17.46899058 5.20540514 22.06320216 6.56492286 26.65893555 7.92016602 C31.36262916 9.30819729 36.06596491 10.69734394 40.766922 12.09461975 C50.84278352 15.08834841 60.93281424 18.02656743 71.04296875 20.90234375 C71.68400732 21.08474232 72.32504589 21.26714088 72.98550987 21.45506668 C77.2956253 22.68086437 81.60668589 23.90331581 85.91796875 25.125 C110.21268959 32.00987653 110.21268959 32.00987653 120.0234375 35.00390625 C121.26246826 35.3810376 122.50149902 35.75816895 123.77807617 36.14672852 C126.60546875 37.1875 126.60546875 37.1875 128.60546875 39.1875 C128.61505604 48.09408895 124.83066141 56.00702146 121.54296875 64.125 C120.69049346 66.25390372 119.84117219 68.38400044 118.99525452 70.51551819 C118.47104784 71.83387923 117.9425818 73.15055642 117.40940857 74.46531677 C116.04620054 77.7237137 116.04620054 77.7237137 115.60546875 81.1875 C116.3985141 81.48792458 116.3985141 81.48792458 117.20758057 81.79441833 C121.85594341 83.55560025 126.50377789 85.31816556 131.15112305 87.08203125 C135.65898204 88.79283594 140.16848574 90.49921543 144.67895508 92.203125 C155.79948425 96.41146455 166.89027637 100.67275362 177.9140625 105.12890625 C180.79361491 106.28170534 183.6738749 107.4327192 186.55432129 108.58328247 C188.34543632 109.3054567 190.13283697 110.03693044 191.91589355 110.77877808 C205.37702571 116.37633177 218.11922234 118.82517435 232.60546875 120.1875 C234.98881302 120.44207036 237.3710144 120.70561053 239.7532196 120.97058105 C241.64300142 121.17790418 243.53437507 121.37056026 245.42578125 121.5625 C248.79845158 122.22543274 250.85403869 123.15085426 253.60546875 125.1875 C255.94266949 128.6933011 255.73379655 130.46829887 255.17089844 134.54394531 C254.09190012 139.58858855 252.1584419 144.29137658 250.23046875 149.0625 C249.63105469 150.609375 249.63105469 150.609375 249.01953125 152.1875 C245.62811869 160.73296717 245.62811869 160.73296717 242.60546875 163.1875 C239.71211362 164.27250817 238.56804372 164.61615096 235.60546875 164.1875 C228.0893519 160.64555995 221.53326775 154.9470602 215.0390625 149.8125 C213.89817045 148.9327602 212.75325024 148.05823212 211.60546875 147.1875 C210.8932164 146.64680878 210.18096405 146.10611755 209.4471283 145.54904175 C203.623081 141.29168018 198.00623283 138.38660986 191.23828125 135.9453125 C189.77186188 135.39601326 189.77186188 135.39601326 188.27581787 134.83561707 C185.09866041 133.64836563 181.91471846 132.48057916 178.73046875 131.3125 C176.51778486 130.48885233 174.30571493 129.66355354 172.09423828 128.83666992 C168.6886401 127.56343567 165.28272248 126.2911617 161.87484741 125.02403259 C150.03627731 120.62013998 138.25619863 116.06869892 126.48046875 111.5 C124.55882103 110.75585551 122.63711062 110.01187285 120.71533203 109.26806641 C116.34474107 107.5761824 111.97486281 105.88247256 107.60546875 104.1875 C104.87877488 106.91419387 103.99678147 110.1242686 102.70703125 113.6796875 C102.1396256 115.20453975 101.57190742 116.72927573 101.00390625 118.25390625 C100.11551065 120.65748264 99.23057348 123.06221321 98.3515625 125.46923828 C97.50046418 127.79306111 96.63587808 130.11151415 95.76953125 132.4296875 C95.38337143 133.50487137 95.38337143 133.50487137 94.9894104 134.60177612 C93.49333782 138.57900064 92.20410114 141.78652863 88.60546875 144.1875 C83.08340296 144.22679579 78.25305407 141.30402871 73.421875 138.8828125 C72.09634361 138.23039833 72.09634361 138.23039833 70.74403381 137.56480408 C67.88183611 136.1543547 65.02500015 134.73338056 62.16796875 133.3125 C60.19429197 132.33821074 58.22016929 131.36482424 56.24560547 130.39233398 C52.39283305 128.49462564 48.54142628 126.59419199 44.69091797 124.69189453 C38.89257141 121.83149039 33.07106944 119.02320738 27.23046875 116.25 C25.49600664 115.4246622 23.76163155 114.59914151 22.02734375 113.7734375 C21.16560547 113.36319336 20.30386719 112.95294922 19.41601562 112.53027344 C10.69023218 108.36142277 1.99006215 104.13875475 -6.71672058 99.9303894 C-11.25505119 97.73712488 -15.79518858 95.54762775 -20.3359375 93.359375 C-22.28914783 92.41774447 -24.24232753 91.47605045 -26.19549561 90.53433228 C-28.0228475 89.65352726 -29.8505296 88.77340741 -31.67822266 87.89331055 C-33.8978513 86.82284347 -36.11580683 85.74889774 -38.33178711 84.67089844 C-40.32089687 83.7075002 -42.31624863 82.75684704 -44.31860352 81.82128906 C-45.64782837 81.18852051 -45.64782837 81.18852051 -47.00390625 80.54296875 C-47.77057617 80.18485107 -48.53724609 79.8267334 -49.32714844 79.45776367 C-53.8718184 76.66537848 -56.73529098 72.1652208 -58.39453125 67.1875 C-60.25803645 54.86523416 -55.852481 44.55060957 -51.40600586 33.28979492 C-50.20349616 30.24103737 -49.03774516 27.18008756 -47.87695312 24.11523438 C-47.12058889 22.15023232 -46.36219537 20.18600991 -45.6015625 18.22265625 C-45.25551468 17.31838394 -44.90946686 16.41411163 -44.55293274 15.48243713 C-41.42460222 7.61302967 -38.01548712 1.4949968 -30.39453125 -2.8125 C-20.31356293 -6.17282277 -9.76532419 -2.98863483 0 0 Z " fill="#384169" transform="translate(81.39453125,15.8125)"/>
<path d="M0 0 C72.27 0 144.54 0 219 0 C218.34340819 9.84887715 217.49221059 18.96425887 215.6875 28.5625 C213.63892978 39.90700358 211.9313246 51.25432122 210.52026367 62.69555664 C209.02732841 74.55012316 206.97173505 86.16958972 205 98 C141.97 98 78.94 98 14 98 C8.44444444 64.66666667 8.44444444 64.66666667 6.67578125 49.171875 C6.26701528 45.77327797 5.71955385 42.45507219 5.015625 39.10546875 C3.80021447 33.29920706 3.12240654 27.4512467 2.4375 21.5625 C2.18903794 19.43846794 1.93786262 17.314751 1.68359375 15.19140625 C1.57587646 14.26529541 1.46815918 13.33918457 1.35717773 12.38500977 C1.04904319 9.86007492 1.04904319 9.86007492 0 7 C0 4.69 0 2.38 0 0 Z " fill="#FEBCBC" transform="translate(226,336)"/>
<path d="M0 0 C1.2517955 -0.0071553 2.503591 -0.01431061 3.7933197 -0.02168274 C5.1833341 -0.02452302 6.57334877 -0.02723475 7.96336365 -0.02983093 C9.42539633 -0.0360967 10.88742743 -0.0427436 12.34945679 -0.04974365 C17.15491122 -0.07078042 21.96036594 -0.08114855 26.76585388 -0.09111023 C28.42206781 -0.09515852 30.07828157 -0.09927546 31.73449516 -0.10346031 C39.51928894 -0.12251445 47.30407323 -0.13674265 55.08888584 -0.14507228 C64.06257772 -0.15483326 73.03602218 -0.18112191 82.00962692 -0.22157317 C88.95246349 -0.25179093 95.89522939 -0.26654668 102.83813041 -0.26985329 C106.98118343 -0.27219816 111.12397221 -0.28108417 115.26695442 -0.30631447 C119.16994249 -0.3296983 123.07249432 -0.33378743 126.97553444 -0.32355309 C128.40168972 -0.32306004 129.82786722 -0.32931184 131.25395584 -0.34310913 C139.72299296 -0.4204064 146.42079412 0.27146611 154.01194763 4.14717102 C155.43893982 4.8335968 155.43893982 4.8335968 156.89476013 5.53388977 C168.43879493 12.23103888 175.79621039 22.59286256 179.38694763 35.45967102 C180.01194763 39.14717102 180.01194763 39.14717102 180.01194763 46.14717102 C107.08194763 46.14717102 34.15194763 46.14717102 -40.98805237 46.14717102 C-40.98805237 31.7709848 -36.96720093 22.52354993 -27.18336487 12.25263977 C-19.86116016 5.27983487 -10.18393519 0.03991282 0 0 Z " fill="#E6596B" transform="translate(265.98805236816406,279.8528289794922)"/>
<path d="M0 0 C2.14954633 0.65428108 4.29928914 1.30791697 6.44921875 1.9609375 C7.51060059 2.28803711 8.57198242 2.61513672 9.66552734 2.95214844 C13.86517748 4.23463975 18.08628881 5.43362581 22.3125 6.625 C32.44771093 9.50637201 42.56712 12.442085 52.6875 15.375 C65.08919503 18.96847622 77.49387615 22.55020206 89.91259766 26.08447266 C95.29448076 27.61768905 100.6747771 29.15646858 106.05535889 30.69424438 C109.13711878 31.57497521 112.218953 32.45544588 115.30078125 33.3359375 C117.09635417 33.84895833 118.89192708 34.36197917 120.6875 34.875 C122.43989207 38.99870013 120.73872751 42.39441116 119.2578125 46.33203125 C118.99200378 47.06412811 118.72619507 47.79622498 118.45233154 48.55050659 C117.58346778 50.93373596 116.69874394 53.31068445 115.8125 55.6875 C115.21187158 57.31791981 114.61177573 58.9485359 114.01220703 60.5793457 C112.52633268 64.6093265 111.02515157 68.63339668 109.51782227 72.65539551 C108.75173884 74.70327773 107.99085679 76.75298616 107.23242188 78.80371094 C106.0234098 82.06227777 104.7980123 85.31390437 103.5625 88.5625 C103.20945801 89.51036377 102.85641602 90.45822754 102.49267578 91.43481445 C102.16251465 92.28519287 101.83235352 93.13557129 101.4921875 94.01171875 C101.07428955 95.10552856 101.07428955 95.10552856 100.64794922 96.22143555 C99.6875 97.875 99.6875 97.875 96.6875 98.875 C93.84814453 97.77709961 93.84814453 97.77709961 90.3203125 96.02734375 C89.67046387 95.70861298 89.02061523 95.3898822 88.35107422 95.06149292 C86.16692532 93.98760905 83.98993435 92.89992587 81.8125 91.8125 C80.26205539 91.04740836 78.71109896 90.28335316 77.15966797 89.52026367 C73.79686003 87.86478709 70.43668456 86.20411695 67.078125 84.54003906 C58.63779614 80.36195274 50.17202656 76.23575991 41.70950317 72.10287476 C38.81219016 70.68734863 35.91563141 69.27029026 33.01928711 67.8527832 C22.75271855 62.82925182 12.47684691 57.82624717 2.17837524 52.86843872 C-1.69973494 51.0008845 -5.57537683 49.12821218 -9.45117188 47.25585938 C-11.29791134 46.36463425 -13.14550732 45.47518075 -14.99414062 44.58789062 C-17.29174631 43.48323785 -19.58415687 42.36859139 -21.875 41.25 C-23.05191406 40.68023437 -24.22882812 40.11046875 -25.44140625 39.5234375 C-28.92065998 37.52582516 -31.50277596 35.49444809 -33.3125 31.875 C-33.87564673 25.60693201 -32.16510198 20.71249829 -30 14.875 C-29.69126953 14.01132812 -29.38253906 13.14765625 -29.06445312 12.2578125 C-22.97227703 -4.6207217 -17.2545008 -5.47087014 0 0 Z " fill="#7F869F" transform="translate(66.3125,48.125)"/>
<path d="M0 0 C61.71 0 123.42 0 187 0 C186.34 5.28 185.68 10.56 185 16 C184.86078125 17.51722656 184.7215625 19.03445313 184.578125 20.59765625 C183.47212389 32.27650135 183.47212389 32.27650135 178.75 36.71484375 C168.59963018 44.16902159 156.34210595 45.45380654 144.078125 45.38818359 C142.84719116 45.39344055 141.61625732 45.39869751 140.34802246 45.40411377 C137.00899103 45.41496627 133.67052598 45.41254839 130.33152771 45.40297651 C126.81378498 45.39530567 123.29606413 45.4024459 119.77832031 45.40713501 C113.87430551 45.41257119 107.97040382 45.40545749 102.06640625 45.39111328 C95.27030496 45.37479083 88.47447381 45.38008087 81.67837906 45.3965925 C75.81130815 45.41026872 69.94431789 45.41209725 64.07723618 45.40427649 C60.58713106 45.39963347 57.09715232 45.39888093 53.60705566 45.40888596 C49.71189117 45.41927509 45.81702185 45.40481863 41.921875 45.38818359 C40.21952698 45.39729263 40.21952698 45.39729263 38.48278809 45.40658569 C29.14263374 45.33316505 19.47461588 44.18939118 11.4375 39.0625 C10.65246094 38.57910156 9.86742187 38.09570312 9.05859375 37.59765625 C4.75477473 34.25750069 3.58434112 31.22090501 2.83203125 25.87890625 C2.66123047 24.69619141 2.49042969 23.51347656 2.31445312 22.29492188 C2.14880859 21.06322266 1.98316406 19.83152344 1.8125 18.5625 C1.63525391 17.33466797 1.45800781 16.10683594 1.27539062 14.84179688 C0.56679614 9.81597418 0 5.08772088 0 0 Z " fill="#E8596A" transform="translate(242,444)"/>
<path d="M0 0 C72.27 0 144.54 0 219 0 C218.34340819 9.84887715 217.49221059 18.96425887 215.6875 28.5625 C213.63892978 39.90700358 211.9313246 51.25432122 210.52026367 62.69555664 C209.02732841 74.55012316 206.97173505 86.16958972 205 98 C141.97 98 78.94 98 14 98 C14 97.67 14 97.34 14 97 C64.49 97 114.98 97 167 97 C167.33 93.04 167.66 89.08 168 85 C168.33356324 82.36634805 168.69441577 79.73590193 169.09155273 77.11108398 C169.19577545 76.41499023 169.29999817 75.71889648 169.40737915 75.00170898 C169.74562967 72.74924153 170.08947049 70.49767078 170.43359375 68.24609375 C170.67429475 66.65296361 170.91469101 65.0597874 171.15480042 63.46656799 C171.65586189 60.14734125 172.15951839 56.82852304 172.6652832 53.51000977 C173.30901713 49.28583668 173.94782787 45.06093827 174.58488369 40.83575344 C175.08024453 37.55218024 175.57740971 34.26888234 176.07518196 30.9856739 C176.31113206 29.42902053 176.54673068 27.87231382 176.78195 26.31554985 C177.11263099 24.1299468 177.44553714 21.94469357 177.77905273 19.75952148 C178.06098732 17.90519753 178.06098732 17.90519753 178.34861755 16.01341248 C179.16276548 10.9971406 180.09092011 5.99993941 181 1 C121.27 1 61.54 1 0 1 C0 0.67 0 0.34 0 0 Z " fill="#E8ABAD" transform="translate(226,336)"/>
<path d="M0 0 C1.65300619 0.53692039 3.30251976 1.08466152 4.94921875 1.640625 C16.74805299 5.43109123 28.67310409 8.66775844 40.63671875 11.890625 C52.70690374 15.15150918 64.75971695 18.41104622 76.69165039 22.15258789 C87.09839971 25.39516368 97.59154911 28.34257241 108.07421875 31.328125 C109.04200256 31.60382324 110.00978638 31.87952148 111.00689697 32.16357422 C116.54941418 33.74192802 122.09273467 35.31743178 127.63671875 36.890625 C125.61879805 46.41524594 125.61879805 46.41524594 124.12890625 50.26953125 C123.73251953 51.30883789 123.73251953 51.30883789 123.328125 52.36914062 C122.92400391 53.40071289 122.92400391 53.40071289 122.51171875 54.453125 C122.23457031 55.17564453 121.95742187 55.89816406 121.671875 56.64257812 C120.9991069 58.39409508 120.31873564 60.14268864 119.63671875 61.890625 C118.97671875 61.230625 118.31671875 60.570625 117.63671875 59.890625 C114.79641044 58.95640672 111.97698639 58.11199161 109.09765625 57.31640625 C108.23292191 57.07175125 107.36818756 56.82709625 106.47724915 56.57502747 C103.65705173 55.77841607 100.83441301 54.99083841 98.01171875 54.203125 C96.07506849 53.65747671 94.13862655 53.11108849 92.20239258 52.56396484 C88.39252804 51.48759786 84.58198953 50.41367102 80.77099609 49.34130859 C74.61064894 47.60459776 68.46488205 45.82074193 62.32421875 44.015625 C54.41386114 41.6964551 46.49359052 39.41534745 38.56518555 37.15869141 C32.9348924 35.55368293 27.31142992 33.92656505 21.69213867 32.28344727 C19.66421579 31.69086924 17.63573588 31.10019399 15.60668945 30.51147461 C10.67221394 29.07883335 5.74726923 27.62349697 0.8359375 26.11328125 C-12.00297522 22.08901084 -12.00297522 22.08901084 -25.36328125 21.890625 C-24.34512346 14.5445618 -22.09926789 5.97379864 -16.61328125 0.640625 C-11.23054966 -2.25776893 -5.78311468 -1.69217785 0 0 Z " fill="#585C77" transform="translate(69.36328125,24.109375)"/>
<path d="M0 0 C4.90121209 0.51716647 9.45147685 1.93777029 14.13525391 3.42285156 C16.28480023 4.07713265 18.43454304 4.73076853 20.58447266 5.38378906 C21.64585449 5.71088867 22.70723633 6.03798828 23.80078125 6.375 C28.00043138 7.65749132 32.22154271 8.85647738 36.44775391 10.04785156 C46.58296484 12.92922358 56.70237391 15.86493656 66.82275391 18.79785156 C79.22444893 22.39132778 91.62913006 25.97305363 104.04785156 29.50732422 C109.42973467 31.04054061 114.81003101 32.57932014 120.19061279 34.11709595 C123.27237269 34.99782677 126.35420691 35.87829744 129.43603516 36.75878906 C131.23160807 37.2718099 133.02718099 37.78483073 134.82275391 38.29785156 C136.65060046 42.49477715 134.78280921 46.1076793 133.29541016 50.12597656 C133.02764267 50.8749823 132.75987518 51.62398804 132.48399353 52.39569092 C131.62775803 54.78348899 130.75674994 57.16558629 129.88525391 59.54785156 C129.30158953 61.16728961 128.71889547 62.78707773 128.13720703 64.40722656 C126.71027702 68.37491576 125.27007618 72.33755787 123.82275391 76.29785156 C123.0972937 75.44332397 123.0972937 75.44332397 122.35717773 74.5715332 C118.98693455 71.54802152 115.33986542 69.85325958 111.27197266 67.91894531 C110.43011917 67.51057938 109.58826569 67.10221344 108.72090149 66.68147278 C105.98779105 65.35812132 103.24916514 64.04664911 100.51025391 62.73535156 C98.61863818 61.82231801 96.72736311 60.90857835 94.83642578 59.99414062 C89.50356693 57.41817333 84.16404121 54.85628564 78.82275391 52.29785156 C77.6060658 51.71414247 76.38942422 51.13033638 75.17285156 50.54638672 C71.52969432 48.79877934 67.88536896 47.05372496 64.23706055 45.31689453 C54.53241398 40.6964887 44.86726616 35.99476967 35.20043945 31.29589844 C28.60004887 28.08907807 21.99479673 24.89423663 15.36572266 21.74707031 C14.22345215 21.2036499 13.08118164 20.66022949 11.90429688 20.1003418 C9.79192979 19.09716463 7.67778753 18.09771308 5.56152344 17.1027832 C-7.50195898 10.89398473 -7.50195898 10.89398473 -9.55224609 6.04785156 C-9.75849609 5.14035156 -9.96474609 4.23285156 -10.17724609 3.29785156 C-7.09373016 -0.4329744 -4.60872788 -0.14519621 0 0 Z " fill="#737993" transform="translate(52.17724609375,44.7021484375)"/>
<path d="M0 0 C2.29760157 2.22797728 3.73688604 4.21472688 4.7578125 7.26171875 C5.87484268 10.1763227 6.70026132 11.85099325 9 14 C13.25081837 15.28754033 17.65804916 15.38093161 22.06640625 15.5859375 C25.90011961 15.98948627 27.41467913 16.23001335 30 19 C30.9375 21.875 30.9375 21.875 31 25 C29.06595326 28.78802149 26.56838728 31.5916975 23.6875 34.6875 C20.74859809 38.19037979 20.74859809 38.19037979 19.92578125 42.51953125 C20.47232523 45.01457275 20.47232523 45.01457275 21.26171875 47.47265625 C22.06191298 50.21194548 22.26701827 52.58868995 22.3125 55.4375 C22.32925781 56.24058594 22.34601563 57.04367187 22.36328125 57.87109375 C21.90939373 60.5309722 21.13984466 61.39762806 19 63 C12.82873308 64.05042841 8.45131525 61.62364936 2.96484375 58.8984375 C-0.8084416 57.7550177 -2.45741083 58.38273103 -6 60 C-8.08163988 61.24877564 -8.08163988 61.24877564 -9.9375 62.625 C-13.75347461 65.07656304 -16.40644018 65.88337689 -21 65 C-23.26171875 63.0078125 -23.26171875 63.0078125 -25 60 C-25.07055485 57.03001228 -24.52565145 54.17755223 -24.0625 51.25 C-23.30132116 44.66518044 -23.30132116 44.66518044 -26.296875 38.9609375 C-29.24616934 36.59415496 -29.24616934 36.59415496 -32.36328125 34.7265625 C-35.08198618 32.94631423 -36.00301964 32.03927951 -37 29 C-37 25.9375 -37 25.9375 -36 23 C-33.07555333 20.806665 -30.58036118 20.05364057 -26.95703125 19.71875 C-23.15122769 19.26327984 -20.42222577 18.76658537 -17 17 C-14.28098883 13.25999027 -12.92659483 8.9321777 -11.46484375 4.58984375 C-10 1 -10 1 -8.00390625 -0.5 C-4.96204263 -1.25898352 -2.98656415 -0.9333013 0 0 Z " fill="#FBC9A0" transform="translate(101,396)"/>
<path d="M0 0 C0.825 0.825 1.65 1.65 2.5 2.5 C6.04052907 5.52551107 9.8617289 7.58467555 14.02734375 9.60546875 C15.06936195 10.11855843 15.06936195 10.11855843 16.13243103 10.64201355 C18.41919817 11.7663561 20.70953223 12.88321821 23 14 C24.59215806 14.78100838 26.18411474 15.56242742 27.77587891 16.34423828 C32.86725764 18.8422124 37.96440634 21.32826541 43.0625 23.8125 C43.96718018 24.25364136 44.87186035 24.69478271 45.80395508 25.14929199 C56.70531454 30.46441377 67.61451282 35.76105095 78.56665039 40.97094727 C84.11814803 43.61404968 89.6565434 46.28300028 95.1875 48.96875 C95.91267822 49.32084534 96.63785645 49.67294067 97.38500977 50.03570557 C100.9645977 51.77425254 104.54334095 53.51451581 108.12109375 55.25683594 C117.03962325 59.59479875 126.00028469 63.83310595 135 68 C132.05357143 77.10714286 132.05357143 77.10714286 130 81 C126.08591218 79.75852879 122.41489612 78.34459698 118.72265625 76.55078125 C117.6759375 76.04417969 116.62921875 75.53757812 115.55078125 75.015625 C114.39964844 74.45359375 113.24851562 73.8915625 112.0625 73.3125 C110.81522396 72.70678452 109.56782356 72.10132505 108.3203125 71.49609375 C93.97936946 64.5303045 79.66827054 57.50271942 65.3515625 50.48730469 C54.69897974 45.26866323 44.03877642 40.06730675 33.35006714 34.92303467 C29.5081675 33.07354451 25.66878345 31.21883481 21.82910156 29.36474609 C19.99598466 28.4804586 18.16204996 27.59786358 16.32714844 26.71728516 C14.02659726 25.61119891 11.73126454 24.49507411 9.4375 23.375 C8.26058594 22.80523437 7.08367188 22.23546875 5.87109375 21.6484375 C2.39184002 19.65082516 -0.19027596 17.61944809 -2 14 C-2.30452955 8.82299767 -1.58586588 4.85671426 0 0 Z " fill="#737993" transform="translate(35,66)"/>
<path d="M0 0 C1.99954746 -0.04254356 4.00041636 -0.04080783 6 0 C7.62667089 1.62667089 7.43610745 3.6994461 7.75 5.9375 C8.78442825 11.95599161 11.05509203 16.70482894 14 22 C14.2990625 22.71285156 14.598125 23.42570312 14.90625 24.16015625 C16.29151648 26.49037236 17.53296683 26.95048865 20 28 C20.62777344 28.39058594 21.25554687 28.78117187 21.90234375 29.18359375 C28.26026575 33.10085472 34.70988047 34.61408856 42 36 C42.495 38.475 42.495 38.475 43 41 C39.8963424 43.06910506 38.41350723 43.37725852 34.8125 43.875 C26.83858797 45.22329688 19.54180589 48.38548005 14.50390625 54.94921875 C9.75186277 62.11876066 7.875952 69.72374119 6 78 C4.00045254 78.04254356 1.99958364 78.04080783 0 78 C-1.68991647 76.31008353 -1.41075739 73.94011564 -1.6875 71.625 C-3.11252683 62.82336367 -6.79987648 54.71896783 -14.02734375 49.20703125 C-20.81851905 45.05163884 -28.2129017 43.25919036 -36 42 C-36 40.02 -36 38.04 -36 36 C-35.09121094 35.85304688 -35.09121094 35.85304688 -34.1640625 35.703125 C-22.15364091 33.55972668 -13.62069991 29.68407557 -5.6875 20.25 C-2.43501041 13.98594598 -0.94190482 6.97009564 0 0 Z " fill="#3A4369" transform="translate(54,217)"/>
<path d="M0 0 C1.98 0 3.96 0 6 0 C6.14695312 0.90878906 6.14695312 0.90878906 6.296875 1.8359375 C7.98609395 11.3013885 10.4900936 20.50136135 18 27 C25.45008645 32.02914274 33.30351828 34.1834016 42 36 C42 37.98 42 39.96 42 42 C40.94941406 42.21914062 39.89882813 42.43828125 38.81640625 42.6640625 C27.64664305 45.12848964 18.95645518 48.09873388 12.2109375 57.9375 C8.53781232 64.19366159 7.23390809 70.91591592 6 78 C4.02 78 2.04 78 0 78 C-0.21914063 76.94941406 -0.43828125 75.89882812 -0.6640625 74.81640625 C-3.12848964 63.64664305 -6.09873388 54.95645518 -15.9375 48.2109375 C-22.19366159 44.53781232 -28.91591592 43.23390809 -36 42 C-36 40.02 -36 38.04 -36 36 C-34.96101563 35.79246094 -33.92203125 35.58492187 -32.8515625 35.37109375 C-21.90844506 33.02351261 -13.21797842 29.98410091 -6.5 20.4375 C-2.63147281 13.98271026 -1.3591378 7.31620987 0 0 Z " fill="#3A4269" transform="translate(443,108)"/>
<path d="M0 0 C0.70346558 0.00719055 1.40693115 0.0143811 2.13171387 0.02178955 C3.24405899 0.02135147 3.24405899 0.02135147 4.37887573 0.02090454 C6.83550629 0.02230039 9.29183536 0.03787335 11.74841309 0.05352783 C13.44949172 0.05725706 15.1505725 0.06010446 16.85165405 0.06210327 C21.33321035 0.06974684 25.81463741 0.08940149 30.29614258 0.11151123 C34.86745455 0.13195411 39.43878735 0.14110165 44.01013184 0.15118408 C52.98284493 0.17264674 61.95546202 0.20679137 70.92810059 0.24884033 C64.04185082 14.68192298 45.36975511 24.54261833 30.92419434 29.72540283 C19.93776409 33.41732659 8.17270686 36.12223139 -2.82189941 30.99884033 C-6.56880733 28.9342176 -9.17082681 26.5424797 -10.75939941 22.49884033 C-11.83180972 14.7774861 -10.60659366 9.18922539 -7.07189941 2.24884033 C-4.63056704 -0.19249204 -3.33081131 0.01425901 0 0 Z " fill="#FFD0D0" transform="translate(261.0718994140625,336.75115966796875)"/>
<path d="M0 0 C12.54 0 25.08 0 38 0 C37.34 5.28 36.68 10.56 36 16 C35.86078125 17.51722656 35.7215625 19.03445313 35.578125 20.59765625 C34.47212389 32.27650135 34.47212389 32.27650135 29.75 36.71484375 C19.30167073 44.38783556 6.84922659 45.46542412 -5.75 45.1875 C-7.52890625 45.16719727 -7.52890625 45.16719727 -9.34375 45.14648438 C-12.22966693 45.11157409 -15.11457264 45.06254539 -18 45 C-15.50887992 42.97960997 -13.07499077 41.04820835 -10.375 39.3125 C-4.1758563 33.27649166 -4.00977334 22.7010944 -2.875 14.5625 C-2.5419746 12.23005111 -2.2061821 9.89799507 -1.8671875 7.56640625 C-1.72394043 6.54490479 -1.58069336 5.52340332 -1.43310547 4.47094727 C-1 2 -1 2 0 0 Z " fill="#DB4963" transform="translate(391,444)"/>
<path d="M0 0 C4.08920079 -0.10001808 8.17791311 -0.17200015 12.26806641 -0.21972656 C13.65491156 -0.23965342 15.04167482 -0.2668056 16.42822266 -0.30175781 C25.0632471 -0.51373675 32.22847116 -0.07278997 40 4 C40.95132813 4.45761719 41.90265625 4.91523438 42.8828125 5.38671875 C54.43935331 12.09112309 61.82405071 22.47814945 65.375 35.375 C66 39 66 39 66 45 C53.46 45 40.92 45 28 45 C26.68 39.39 25.36 33.78 24 28 C18.75178065 16.34895305 11.77418795 6.63113337 0 1 C0 0.67 0 0.34 0 0 Z " fill="#DC4A63" transform="translate(380,280)"/>
<path d="M0 0 C1.875 1.625 1.875 1.625 3 4 C3.20760687 8.46354773 1.53604241 10.76526241 -1.1875 14.0625 C-12.22436478 27.54696518 -16.31261291 45.91778487 -14.68969727 63.0637207 C-14.20125241 67.22739948 -13.5421502 71.36191464 -12.875 75.5 C-12.64541712 77.00920429 -12.41742078 78.51865069 -12.19091797 80.02832031 C-11.13741435 86.99086866 -10.01294894 93.941897 -8.88119507 100.89208984 C-8.52155802 103.10413242 -8.16509542 105.31666857 -7.80908203 107.52929688 C-7.36588968 110.28318996 -6.90692984 113.03375586 -6.43701172 115.78320312 C-6.23350098 117.02521484 -6.02999023 118.26722656 -5.8203125 119.546875 C-5.63742676 120.62807617 -5.45454102 121.70927734 -5.26611328 122.82324219 C-4.96323911 126.43883736 -5.18896826 129.46319405 -6 133 C-9.8503105 135.56687367 -11.58569763 134.83288724 -16 134 C-17.94161471 126.91217441 -19.06859835 119.76940976 -20.1640625 112.5078125 C-20.36099701 111.20786346 -20.55793152 109.90791443 -20.76083374 108.568573 C-21.17572971 105.82059129 -21.5868508 103.07207101 -21.99609375 100.32324219 C-22.411034 97.54104882 -22.83401122 94.76027512 -23.26464844 91.98046875 C-28.1083409 60.68240554 -30.21629844 32.05338683 -10.51171875 4.953125 C-7.27914933 0.94817174 -5.22490815 -0.63718392 0 0 Z " fill="#374068" transform="translate(215,270)"/>
<path d="M0 0 C1.11157471 -0.02803711 1.11157471 -0.02803711 2.24560547 -0.05664062 C9.27545704 0.02522999 14.33653075 2.54085896 19.6875 7 C23.0581232 11.39990747 22.21617944 17.26607356 21.6875 22.5 C21.1925 23.985 21.1925 23.985 20.6875 25.5 C-3.7325 25.5 -28.1525 25.5 -53.3125 25.5 C-38.87808056 11.06558056 -20.88243721 0.35893692 0 0 Z " fill="#EC7987" transform="translate(319.3125,299.5)"/>
<path d="M0 0 C3.0625 0.3125 3.0625 0.3125 4.76150513 1.52781677 C6.53714149 3.96360533 6.2764392 5.20088472 5.94091797 8.17993164 C5.82133728 9.2565506 5.70175659 10.33316956 5.57855225 11.44241333 C4.46609868 19.7851572 3.26412038 28.11131505 2.0078125 36.43359375 C1.70251444 38.46712287 1.39724764 40.50065668 1.0920105 42.53419495 C0.45450264 46.77317796 -0.18656853 51.01160593 -0.82958984 55.24975586 C-1.65234381 60.67754162 -2.46117232 66.10730711 -3.26679802 71.53765774 C-3.89084546 75.72778583 -4.52469075 79.91638893 -5.1612587 84.10463142 C-5.46387131 86.10674127 -5.76286264 88.10940199 -6.05813217 90.11260796 C-6.47097682 92.90674745 -6.89758407 95.69845491 -7.32763672 98.48999023 C-7.44619019 99.31342926 -7.56474365 100.13686829 -7.68688965 100.98526001 C-8.371092 105.32202084 -9.1073899 108.79719021 -11.9375 112.3125 C-15 112.75 -15 112.75 -17.9375 112.3125 C-19.9375 110.3125 -19.9375 110.3125 -20.18010521 108.28475189 C-20.09683932 102.16067555 -19.53761258 96.2610282 -18.59228516 90.21289062 C-18.44919418 89.25879303 -18.30610321 88.30469543 -18.15867615 87.32168579 C-17.68880595 84.20284998 -17.20812678 81.0857999 -16.7265625 77.96875 C-16.39463636 75.79071242 -16.06313045 73.61261076 -15.73202515 71.43444824 C-15.03914565 66.88814894 -14.34082204 62.34272798 -13.63867188 57.79785156 C-12.7378972 51.96401986 -11.85143339 46.1281168 -10.96903419 40.29148102 C-10.28865456 35.80230011 -9.60050233 31.31433756 -8.90998459 26.82670593 C-8.57977216 24.67402456 -8.25207036 22.52095654 -7.92689896 20.36750793 C-7.47304873 17.36936676 -7.0087123 14.37303749 -6.54150391 11.37695312 C-6.40843338 10.48348175 -6.27536285 9.59001038 -6.13825989 8.66946411 C-4.84464107 0.51538735 -4.84464107 0.51538735 0 0 Z " fill="#374168" transform="translate(475.9375,331.6875)"/>
<path d="M0 0 C2.29760157 2.22797728 3.73688604 4.21472688 4.7578125 7.26171875 C5.87484268 10.1763227 6.70026132 11.85099325 9 14 C13.25081837 15.28754033 17.65804916 15.38093161 22.06640625 15.5859375 C25.90011961 15.98948627 27.41467913 16.23001335 30 19 C30.9375 21.875 30.9375 21.875 31 25 C29.06595326 28.78802149 26.56838728 31.5916975 23.6875 34.6875 C20.74859809 38.19037979 20.74859809 38.19037979 19.92578125 42.51953125 C20.47232523 45.01457275 20.47232523 45.01457275 21.26171875 47.47265625 C22.06191298 50.21194548 22.26701827 52.58868995 22.3125 55.4375 C22.32925781 56.24058594 22.34601563 57.04367187 22.36328125 57.87109375 C21.90939373 60.5309722 21.13984466 61.39762806 19 63 C12.82873308 64.05042841 8.45131525 61.62364936 2.96484375 58.8984375 C-0.8084416 57.7550177 -2.45741083 58.38273103 -6 60 C-8.08163988 61.24877564 -8.08163988 61.24877564 -9.9375 62.625 C-13.75347461 65.07656304 -16.40644018 65.88337689 -21 65 C-23.26171875 63.0078125 -23.26171875 63.0078125 -25 60 C-25.07055485 57.03001228 -24.52565145 54.17755223 -24.0625 51.25 C-23.30132116 44.66518044 -23.30132116 44.66518044 -26.296875 38.9609375 C-29.24616934 36.59415496 -29.24616934 36.59415496 -32.36328125 34.7265625 C-35.08198618 32.94631423 -36.00301964 32.03927951 -37 29 C-37 25.9375 -37 25.9375 -36 23 C-33.07555333 20.806665 -30.58036118 20.05364057 -26.95703125 19.71875 C-23.15122769 19.26327984 -20.42222577 18.76658537 -17 17 C-14.28098883 13.25999027 -12.92659483 8.9321777 -11.46484375 4.58984375 C-10 1 -10 1 -8.00390625 -0.5 C-4.96204263 -1.25898352 -2.98656415 -0.9333013 0 0 Z M-5 5 C-6.80921188 7.57848307 -7.99935197 9.998153 -9.04296875 12.97265625 C-12.01117953 20.98581231 -12.01117953 20.98581231 -15.84130859 22.93896484 C-20.45295857 24.53386719 -25.1772064 25.33557713 -30 26 C-30 27.32 -30 28.64 -30 30 C-27.83246069 32.17471333 -27.83246069 32.17471333 -25.0625 34.125 C-20.08071749 37.83856502 -20.08071749 37.83856502 -19 40 C-18.91627341 41.52148326 -18.89269973 43.04655778 -18.90234375 44.5703125 C-18.90556641 45.46621094 -18.90878906 46.36210937 -18.91210938 47.28515625 C-18.92048828 48.22230469 -18.92886719 49.15945313 -18.9375 50.125 C-18.94201172 51.06988281 -18.94652344 52.01476562 -18.95117188 52.98828125 C-18.96297643 55.32558387 -18.97944241 57.66276061 -19 60 C-15.34674973 58.66977566 -12.39470122 56.99381133 -9.1875 54.8125 C-5.1554997 52.37302053 -2.64520991 51.27633797 1.98828125 52.30078125 C5.07316888 53.37300433 8.00817521 54.68758495 10.921875 56.16015625 C13.24452998 57.24979571 13.24452998 57.24979571 17 57 C16.855625 55.741875 16.71125 54.48375 16.5625 53.1875 C16.48128906 52.47980469 16.40007812 51.77210938 16.31640625 51.04296875 C16.02829265 48.80603607 16.02829265 48.80603607 15 46 C14.27543945 41.82554317 14.07794559 38.40903758 16.45703125 34.7734375 C18.23861002 32.77056789 20.10514543 30.89485457 22 29 C24.63963407 25.9577039 24.63963407 25.9577039 25 22 C23.90300781 21.98582031 22.80601563 21.97164063 21.67578125 21.95703125 C20.22131302 21.91011292 18.76688723 21.86186562 17.3125 21.8125 C16.59126953 21.80669922 15.87003906 21.80089844 15.12695312 21.79492188 C11.15854349 21.63183655 9.42692899 21.33484626 6.2109375 18.8125 C4.02083249 16.02650069 2.12562697 13.23110864 0.3125 10.1875 C-0.73757338 8.42495999 -1.82881699 6.68449748 -3 5 C-3.66 5 -4.32 5 -5 5 Z " fill="#3B4369" transform="translate(101,396)"/>
<path d="M0 0 C8.36878927 2.30896747 16.41637287 5.36223626 24.5 8.5 C27.48753064 9.65559527 30.47599485 10.8087564 33.46484375 11.9609375 C34.67375526 12.42740189 34.67375526 12.42740189 35.90708923 12.90328979 C41.8781637 15.20077093 47.86549846 17.45245578 53.86013794 19.68768311 C58.45508164 21.40118672 63.04687771 23.12304789 67.63867188 24.8449707 C69.92219485 25.69868655 72.2071964 26.54845785 74.49365234 27.39428711 C77.71979668 28.58845252 80.94037752 29.79660817 84.16015625 31.0078125 C85.63120567 31.54615219 85.63120567 31.54615219 87.13197327 32.09536743 C88.02436203 32.43401825 88.91675079 32.77266907 89.83618164 33.12158203 C90.61965469 33.41324249 91.40312775 33.70490295 92.21034241 34.00540161 C94 35 94 35 95 38 C93.5625 41.1875 93.5625 41.1875 92 44 C87.59801752 43.28649477 83.56484526 41.83016761 79.4140625 40.25390625 C78.66012711 39.97096207 77.90619171 39.68801788 77.12940979 39.39649963 C74.62644409 38.45575398 72.12570306 37.50924222 69.625 36.5625 C67.87027198 35.90133507 66.11546906 35.2403689 64.3605957 34.57958984 C47.86604199 28.35984639 31.40495861 22.05162691 14.94970703 15.72875977 C13.48500221 15.16619728 13.48500221 15.16619728 11.9907074 14.5922699 C10.15490343 13.88697924 8.31932959 13.1810892 6.48402405 12.47450256 C5.26446266 12.00590065 5.26446266 12.00590065 4.02026367 11.52783203 C3.31262375 11.25552765 2.60498383 10.98322327 1.87590027 10.70266724 C0.2637421 10.09879146 -1.36679826 9.54440058 -3 9 C-2.43945339 5.63672037 -1.58158962 3.00887781 0 0 Z " fill="#7C839D" transform="translate(192,106)"/>
<path d="M0 0 C3.91736887 0.28266861 7.83370583 0.57784065 11.75 0.875 C13.38775391 0.99294922 13.38775391 0.99294922 15.05859375 1.11328125 C20.62409995 1.54139711 26.17146566 2.06809941 31.703125 2.8203125 C32.67411133 2.94937988 33.64509766 3.07844727 34.64550781 3.21142578 C37 4 37 4 38.4375 5.72558594 C39.21488109 8.86885081 38.45654613 10.56344382 37.296875 13.5703125 C36.89339844 14.63121094 36.48992187 15.69210938 36.07421875 16.78515625 C35.63722656 17.88730469 35.20023437 18.98945313 34.75 20.125 C34.32847656 21.23488281 33.90695312 22.34476563 33.47265625 23.48828125 C30.30324591 31.69675409 30.30324591 31.69675409 28 34 C24.05380687 33.68166551 21.56050745 32.29160479 18.3828125 30.015625 C17.52816406 29.40976563 16.67351562 28.80390625 15.79296875 28.1796875 C14.91253906 27.54289062 14.03210938 26.90609375 13.125 26.25 C12.25230469 25.62867188 11.37960937 25.00734375 10.48046875 24.3671875 C7.98133414 22.58584944 5.49005993 20.79399131 3 19 C1.62292478 18.01488517 0.24538931 17.03041308 -1.1328125 16.046875 C-2.07898438 15.37140625 -3.02515625 14.6959375 -4 14 C-3.45861974 8.69447349 -2.14745884 4.79579951 0 0 Z " fill="#E5596A" transform="translate(293,140)"/>
<path d="M0 0 C4.89141514 4.42556608 7.33097698 8.49742312 7.78515625 15.06640625 C7.41002725 20.47375355 4.87180301 24.12819699 1.125 27.875 C-4.05168537 30.09357944 -8.82714387 30.13602279 -14.375 29.375 C-18.41154111 27.3921377 -21.0250056 25.20920139 -23.375 21.375 C-24.91252988 16.76241035 -25.24204551 12.05448401 -23.7265625 7.37109375 C-21.79479663 3.54883907 -19.3497635 0.98060832 -15.43359375 -0.96484375 C-10.00760862 -2.70486555 -5.10296073 -2.45698109 0 0 Z " fill="#3A4269" transform="translate(126.375,310.625)"/>
<path d="M0 0 C4.07047084 2.35149687 7.05222303 4.56476819 8.82421875 9.046875 C10.19486784 15.11689241 9.98164864 18.46874886 6.82421875 24.046875 C3.85230471 27.56624689 1.36618528 30.0375491 -3.17578125 31.046875 C-8.60123749 31.28718482 -12.87767156 30.78571717 -17.17578125 27.296875 C-21.08444892 23.40660106 -22.24602096 20.12985473 -22.55078125 14.671875 C-22.41023925 9.97933382 -21.39181666 6.53392463 -18.17578125 3.046875 C-12.71925525 -1.03344754 -6.4047335 -2.80566423 0 0 Z " fill="#3A4269" transform="translate(230.17578125,192.953125)"/>
<path d="M0 0 C5.07826209 2.77867171 8.16314023 5.48942069 10 11 C10.63773912 16.39464563 10.37704736 20.89639733 7.3203125 25.4921875 C4.36704943 28.86484887 1.19663768 30.66323325 -3.2421875 31.34375 C-8.20030084 31.54407781 -11.80519867 30.82905206 -16 28 C-20.18374716 24.04868323 -21.52737934 19.61357603 -22 14 C-21.16393888 8.42625922 -19.38899462 5.5111957 -15 2 C-9.73988199 -0.97742529 -5.72378418 -1.72178874 0 0 Z " fill="#3A4269" transform="translate(274,36)"/>
<path d="M0 0 C4.85901474 2.29698879 7.66907123 5.15884024 10 10 C10.80804651 14.98845037 10.65687814 19.42937903 8.25 23.9375 C5.43244451 27.77250608 3.48461891 29.50512703 -1 31 C-6.69734689 31.56430864 -11.12785716 31.28586378 -16 28 C-20.67054337 22.82453302 -21.35784069 19.60395902 -21.27734375 12.76171875 C-20.75530128 7.56335214 -18.124202 5.04194332 -14.4375 1.625 C-9.56643525 -0.67768515 -5.29813119 -0.77379561 0 0 Z " fill="#3A4369" transform="translate(451,212)"/>
<path d="M0 0 C1.10271149 1.65406724 2.19314725 3.31740122 3.2265625 5.015625 C7.99889674 12.64069535 13.64779491 18.45031284 22 22 C22 22.66 22 23.32 22 24 C20.516662 24.93715922 18.9855331 25.79907474 17.4375 26.625 C9.27596323 31.38108649 4.8047807 37.47729123 1 46 C-0.59763932 43.92402555 -2.0998069 41.84330834 -3.5078125 39.6328125 C-8.4261786 32.00578101 -13.93549758 27.93212759 -22 24 C-22 23.34 -22 22.68 -22 22 C-21.40832031 21.69707031 -20.81664062 21.39414063 -20.20703125 21.08203125 C-10.745785 16.06587296 -5.09731076 9.28438746 0 0 Z " fill="#FBCAA0" transform="translate(57,233)"/>
<path d="M0 0 C1.11169695 1.66754542 2.21153546 3.34382698 3.26171875 5.05078125 C8.50921474 13.37489133 14.08905561 17.9353587 23 22 C23 22.66 23 23.32 23 24 C21.2675 24.7734375 21.2675 24.7734375 19.5 25.5625 C10.17856976 30.30555991 5.45984744 36.65797109 1 46 C-1.0696526 43.3191342 -2.86815249 40.57962032 -4.625 37.6875 C-7.45784212 33.38157997 -10.67114346 30.57576649 -14.8515625 27.60546875 C-17.12153541 25.9091799 -19.04114576 24.04305838 -21 22 C-20.03900391 21.48953125 -20.03900391 21.48953125 -19.05859375 20.96875 C-9.72223122 15.7370476 -4.34562138 9.7341919 0 0 Z " fill="#FBC9A0" transform="translate(445,124)"/>
<path d="M0 0 C10.25804395 0.61355236 20.35765316 1.71052111 30.53466797 3.10180664 C33.02345897 3.4406943 35.51355352 3.76851239 38.00390625 4.09570312 C39.60685997 4.31183992 41.209728 4.52861344 42.8125 4.74609375 C43.91416504 4.88995766 43.91416504 4.88995766 45.03808594 5.03672791 C49.21930715 5.61853335 53.04139349 6.53377752 57 8 C57 9.98 57 11.96 57 14 C38.19 14 19.38 14 0 14 C0 9.38 0 4.76 0 0 Z " fill="#E5596A" transform="translate(307,255)"/>
<path d="M0 0 C3.05220074 2.68223701 4.79994042 4.83431139 5.34765625 8.9609375 C5.57130956 14.81481984 4.39933463 18.08619294 0.5625 22.5625 C-2.53274422 25.14187018 -5.9897924 25.09162108 -9.875 25.02734375 C-14.14419895 24.58263553 -16.96761768 22.87937055 -19.8125 19.75 C-21.47860834 15.39960601 -21.60687723 11.40987108 -20.9375 6.8125 C-16.67425325 -1.7139935 -8.67026969 -3.50500264 0 0 Z " fill="#423F4F" transform="translate(387.9375,45.1875)"/>
<path d="M0 0 C2 1 2 1 3.10546875 3.6015625 C5.04822326 10.9823329 5.4513489 21.05207096 2.1796875 28.15625 C-1.49679618 33.90227747 -5.39854788 38.81485034 -12 41 C-12.01417969 40.33613281 -12.02835938 39.67226563 -12.04296875 38.98828125 C-12.32764495 33.19628627 -12.32764495 33.19628627 -15.125 28.25 C-16.07375 27.5075 -17.0225 26.765 -18 26 C-19.27429603 24.89983137 -20.54505296 23.79555207 -21.8125 22.6875 C-22.87324959 21.7895947 -23.93513145 20.89301656 -25 20 C-24.505 18.515 -24.505 18.515 -24 17 C-22.18386709 16.59990613 -20.36263727 16.21418431 -18.52587891 15.9230957 C-11.17384561 14.76480808 -11.17384561 14.76480808 -5.67578125 10.109375 C-4.08931959 6.86421746 -4.08931959 6.86421746 -2.9453125 3.58203125 C-2 1 -2 1 0 0 Z " fill="#F9DDC0" transform="translate(95,405)"/>
<path d="M0 0 C3.13796752 1.09828863 3.79295426 2.04216065 5.5 4.875 C6.29956055 8.03198242 6.29956055 8.03198242 6.88671875 11.73046875 C6.99345413 12.39154129 7.10018951 13.05261383 7.2101593 13.73371887 C7.43311593 15.13061417 7.65046596 16.52841446 7.86254883 17.92700195 C8.18413524 20.04038761 8.52510571 22.14993145 8.86914062 24.25976562 C9.96720348 31.15004129 11.01759859 37.89116978 10.5 44.875 C8.5 46.875 8.5 46.875 4.875 47 C3.76125 46.95875 2.6475 46.9175 1.5 46.875 C-0.7548725 42.02858459 -2.08030851 37.72515014 -2.921875 32.40234375 C-3.03098206 31.71620499 -3.14008911 31.03006622 -3.25250244 30.32313538 C-3.47873628 28.88434832 -3.70034392 27.44482674 -3.91748047 26.00463867 C-4.24999992 23.81250054 -4.60250858 21.62422176 -4.95703125 19.43554688 C-5.17568333 18.02883247 -5.39317123 16.62193652 -5.609375 15.21484375 C-5.80499023 13.95019287 -6.00060547 12.68554199 -6.20214844 11.38256836 C-6.49719609 7.90801945 -6.43550237 5.23131451 -5.5 1.875 C-2.5 -0.125 -2.5 -0.125 0 0 Z " fill="#374068" transform="translate(211.5,437.125)"/>
<path d="M0 0 C13.1519029 1.53232909 26.29461355 3.13247662 39.42230225 4.86022949 C40.76527982 5.0366791 42.10842049 5.21189174 43.45172119 5.38586426 C45.34199265 5.63117158 47.23156178 5.88187268 49.12109375 6.1328125 C50.2083374 6.27605957 51.29558105 6.41930664 52.41577148 6.56689453 C55 7 55 7 57 8 C57 10.64 57 13.28 57 16 C49.84651158 15.0226295 42.69321129 14.04389095 35.54003906 13.06420898 C33.10746484 12.73121271 30.67484799 12.39852762 28.2421875 12.06616211 C24.74207441 11.58789911 21.24211698 11.10851088 17.7421875 10.62890625 C16.65759247 10.48095108 15.57299744 10.33299591 14.45553589 10.18055725 C9.62465889 9.51755879 4.80341774 8.84403947 0 8 C0 5.36 0 2.72 0 0 Z " fill="#E1596B" transform="translate(307,229)"/>
<path d="M0 0 C11.25762722 0.36082139 22.11621756 2.08795527 33.19921875 4.015625 C39.20495699 5.05532491 45.21961853 5.87401038 51.26953125 6.60546875 C54 7 54 7 57 8 C57 10.31 57 12.62 57 15 C45.26671928 14.26824701 33.6427077 12.57591123 22 11 C20.94538574 10.85739746 19.89077148 10.71479492 18.80419922 10.56787109 C12.53519313 9.71873282 6.26713916 8.86280668 0 8 C0 5.36 0 2.72 0 0 Z " fill="#E2596B" transform="translate(307,242)"/>
<path d="M0 0 C3.53398354 0.62386069 6.72894269 1.54903315 10.0769043 2.83496094 C11.0690242 3.21379929 12.0611441 3.59263763 13.08332825 3.98295593 C14.15282211 4.39592422 15.22231598 4.80889252 16.32421875 5.234375 C17.44741013 5.66430252 18.5706015 6.09423004 19.72782898 6.53718567 C22.75751776 7.69778329 25.78584759 8.86183062 28.81334686 10.02812576 C33.81007799 11.95273448 38.80856249 13.87279165 43.80683899 15.79338264 C45.0541254 16.27278261 46.30132781 16.75240116 47.54844666 17.23223686 C55.40327542 20.25413447 63.27188454 23.23222882 71.16796875 26.14453125 C73.51448145 27.01616107 75.86063199 27.88875882 78.20669556 28.76159668 C79.6465337 29.29342751 81.08841335 29.81976518 82.53231812 30.3404541 C84.49308507 31.04789424 86.446107 31.77357418 88.3984375 32.50390625 C89.46755371 32.89392822 90.53666992 33.2839502 91.63818359 33.68579102 C94 35 94 35 94.85009766 37.15600586 C94.92429932 38.06878296 94.92429932 38.06878296 95 39 C93 40 93 40 91.2462616 39.54888916 C90.53875259 39.27784363 89.83124359 39.0067981 89.10229492 38.72753906 C88.29407288 38.42221756 87.48585083 38.11689606 86.65313721 37.80232239 C85.77115662 37.46021225 84.88917603 37.11810211 83.98046875 36.765625 C83.06263611 36.41654587 82.14480347 36.06746674 81.19915771 35.70780945 C78.19247606 34.5623836 75.19002285 33.40627852 72.1875 32.25 C70.1227496 31.46095677 68.05772567 30.67262895 65.99243164 29.88500977 C61.88354414 28.31706581 57.77614593 26.74531552 53.66992188 25.17041016 C48.87387352 23.33224493 44.07237513 21.5091938 39.265625 19.69921875 C25.78040768 14.619006 12.35080987 9.42425221 -1 4 C-0.67 2.68 -0.34 1.36 0 0 Z " fill="#575B77" transform="translate(193,102)"/>
<path d="M0 0 C8.36878927 2.30896747 16.41637287 5.36223626 24.5 8.5 C27.48753064 9.65559527 30.47599485 10.8087564 33.46484375 11.9609375 C34.67375526 12.42740189 34.67375526 12.42740189 35.90708923 12.90328979 C41.8781637 15.20077093 47.86549846 17.45245578 53.86013794 19.68768311 C58.45508164 21.40118672 63.04687771 23.12304789 67.63867188 24.8449707 C69.92219485 25.69868655 72.2071964 26.54845785 74.49365234 27.39428711 C77.71979668 28.58845252 80.94037752 29.79660817 84.16015625 31.0078125 C85.63120567 31.54615219 85.63120567 31.54615219 87.13197327 32.09536743 C88.02436203 32.43401825 88.91675079 32.77266907 89.83618164 33.12158203 C90.61965469 33.41324249 91.40312775 33.70490295 92.21034241 34.00540161 C94 35 94 35 95 38 C94.34 38.99 93.68 39.98 93 41 C93 40.34 93 39.68 93 39 C92.18869629 38.90138672 91.37739258 38.80277344 90.54150391 38.70117188 C86.24174804 37.84987594 82.40289469 36.38751526 78.3359375 34.78125 C77.48611298 34.45104355 76.63628845 34.1208371 75.76071167 33.78062439 C72.9633815 32.69237052 70.16923715 31.59616833 67.375 30.5 C65.42959667 29.74166655 63.48395503 28.98394417 61.53808594 28.22680664 C57.45969427 26.63938589 53.38236391 25.04927971 49.30566406 23.45751953 C39.94579079 19.80597256 30.57147011 16.19181239 21.19805908 12.57519531 C16.49085052 10.75862076 11.78451108 8.93979786 7.078125 7.12109375 C5.49902772 6.51097524 3.91992663 5.90086659 2.34082031 5.29077148 C1.23834961 4.86481689 0.13587891 4.4388623 -1 4 C-0.67 2.68 -0.34 1.36 0 0 Z " fill="#737993" transform="translate(192,106)"/>
<path d="M0 0 C3.85588615 0.66736491 5.23942605 2.04421935 7.6015625 5.09375 C20.24187331 24.02426287 20.24187331 24.02426287 19.25 31.5625 C18.1875 33.4375 18.1875 33.4375 16.25 34.5625 C12.9140625 34.6328125 12.9140625 34.6328125 9.25 33.5625 C7.18743875 31.1577715 5.98611496 28.43502904 4.6875 25.5625 C3.93251023 24.00320441 3.17341762 22.44588844 2.41015625 20.890625 C2.04680176 20.14103516 1.68344727 19.39144531 1.30908203 18.61914062 C-0.40062651 15.29904271 -2.5586439 12.35778136 -4.8515625 9.421875 C-6.1166757 6.80364072 -5.62840477 5.27756929 -4.75 2.5625 C-2.75 0.5625 -2.75 0.5625 0 0 Z " fill="#374169" transform="translate(458.75,269.4375)"/>
<path d="M0 0 C1.03124496 -0.00953201 2.06248993 -0.01906403 3.12498474 -0.02888489 C4.80153893 -0.02751778 4.80153893 -0.02751778 6.51196289 -0.02612305 C8.22833702 -0.03255074 8.22833702 -0.03255074 9.97938538 -0.03910828 C12.40291684 -0.04485963 14.82646558 -0.04534594 17.25 -0.04101562 C20.96587481 -0.03785773 24.68095237 -0.0612987 28.39672852 -0.08666992 C30.74763897 -0.08894296 33.09855156 -0.08964639 35.44946289 -0.08862305 C37.12298073 -0.10243767 37.12298073 -0.10243767 38.83030701 -0.11653137 C40.38190269 -0.10718819 40.38190269 -0.10718819 41.96484375 -0.09765625 C42.87592392 -0.09828568 43.78700409 -0.0989151 44.72569275 -0.0995636 C47.4944442 0.34676852 48.38507051 1.05371411 50.04711914 3.2746582 C50.4379047 5.99973618 50.18328867 8.50587777 50.04711914 11.2746582 C38.45687311 10.25019055 26.93990505 8.77049729 15.42596436 7.10848999 C13.88402496 6.88626561 12.34174533 6.66638911 10.7991333 6.44888306 C8.60071198 6.13772216 6.40389919 5.81698735 4.20727539 5.4934082 C2.92473877 5.30713867 1.64220215 5.12086914 0.32080078 4.92895508 C-2.50131141 4.36491148 -4.50279237 3.73261304 -6.95288086 2.2746582 C-4.41526405 -0.26295861 -3.51695283 0.017801 0 0 Z " fill="#E4596A" transform="translate(314.952880859375,220.725341796875)"/>
<path d="M0 0 C1.65 0 3.3 0 5 0 C6.10644531 1.65185547 6.10644531 1.65185547 7 4 C6.43261719 6.62548828 6.43261719 6.62548828 5.296875 9.5703125 C4.89339844 10.63121094 4.48992187 11.69210938 4.07421875 12.78515625 C3.63722656 13.88730469 3.20023437 14.98945313 2.75 16.125 C2.32847656 17.23488281 1.90695312 18.34476563 1.47265625 19.48828125 C-1.69675409 27.69675409 -1.69675409 27.69675409 -4 30 C-7.29714793 29.67028521 -8.6226839 29.3773161 -11 27 C-11 26.01 -11 25.02 -11 24 C-13.20359121 22.40768917 -15.35579802 21.00398858 -17.6875 19.625 C-22.34930689 16.84039856 -26.40503467 14.16877711 -30 10 C-29.8125 7.6875 -29.8125 7.6875 -29 6 C-25.92327538 6.66498928 -23.28832547 7.70627629 -20.453125 9.06640625 C-19.18662109 9.6706543 -19.18662109 9.6706543 -17.89453125 10.28710938 C-16.58548828 10.91842773 -16.58548828 10.91842773 -15.25 11.5625 C-14.36183594 11.98724609 -13.47367187 12.41199219 -12.55859375 12.84960938 C-10.37081794 13.89644834 -8.18519731 14.94778923 -6 16 C-4.02 10.72 -2.04 5.44 0 0 Z " fill="#D94A63" transform="translate(325,144)"/>
<path d="M0 0 C0.66 0.99 1.32 1.98 2 3 C2.53625 3.7425 3.0725 4.485 3.625 5.25 C5.40958508 8.81917016 5.48542518 11.04725209 5 15 C2.0789673 20.61737058 -1.97488975 24.33618936 -7.5 27.375 C-10.79239004 28.19809751 -12.75425823 28.0142943 -16 27 C-18.875 24.4375 -18.875 24.4375 -21 22 C-20.03900391 21.48953125 -20.03900391 21.48953125 -19.05859375 20.96875 C-9.72223122 15.7370476 -4.34562138 9.7341919 0 0 Z " fill="#F9DDC0" transform="translate(445,124)"/>
<path d="M0 0 C0.66 0.99 1.32 1.98 2 3 C2.556875 3.721875 3.11375 4.44375 3.6875 5.1875 C5.48967664 9.04930708 5.41568027 12.07076496 4 16 C0.41831954 21.63410409 -3.60231011 25.13885385 -10 27 C-14.87496654 27.59693468 -17.77337887 26.41521207 -22 24 C-22 23.34 -22 22.68 -22 22 C-21.40832031 21.69707031 -20.81664062 21.39414063 -20.20703125 21.08203125 C-10.745785 16.06587296 -5.09731076 9.28438746 0 0 Z " fill="#F7DBBF" transform="translate(57,233)"/>
<path d="M0 0 C4.20954759 0.44759519 8.41734596 0.90996704 12.625 1.375 C13.81480469 1.50132812 15.00460937 1.62765625 16.23046875 1.7578125 C17.38417969 1.88671875 18.53789062 2.015625 19.7265625 2.1484375 C20.78439941 2.26364746 21.84223633 2.37885742 22.93212891 2.49755859 C26.11374306 3.0186283 28.97378971 3.90136271 32 5 C32 6.98 32 8.96 32 11 C21.44 11 10.88 11 0 11 C0 7.37 0 3.74 0 0 Z " fill="#E5596A" transform="translate(332,258)"/>
<path d="M0 0 C2.4375 1.6875 2.4375 1.6875 4 4 C4.63656938 7.73984509 4.25584708 9.50962644 2.5 12.875 C-0.54107505 15.4599138 -2.20036045 15.69344392 -6.09375 15.41015625 C-8 15 -8 15 -10.5 13.5 C-12.61452102 9.9757983 -12.93350908 7.00426261 -12 3 C-8.37297107 -1.50630867 -5.38985745 -1.56795853 0 0 Z " fill="#F9C8A0" transform="translate(228,200)"/>
<path d="M0 0 C2.5 1.625 2.5 1.625 4 4 C4.63924557 7.7555677 4.29008409 9.47784863 2.4375 12.8125 C-0.78533156 15.70478473 -2.68807302 16.15129568 -7 16 C-9.9375 14 -9.9375 14 -12 11 C-12.62491523 7.04220351 -12.61006839 4.99136114 -10.5 1.5625 C-6.98305319 -0.63559176 -4.04133533 -0.81157964 0 0 Z " fill="#F7C79F" transform="translate(122,317)"/>
<path d="M0 0 C2.4375 1.5 2.4375 1.5 4 4 C4.60984064 6.80756825 4.66017005 9.19858274 4 12 C1.46528234 14.98202078 -0.18712339 15.83065071 -4 16.625 C-7.46122187 15.90391211 -9.05420345 14.63992305 -11.1484375 11.7890625 C-12.67373104 8.58454672 -12.04902601 6.27049287 -11 3 C-7.92160879 -0.67038952 -4.56677188 -0.57084649 0 0 Z " fill="#FAC9A0" transform="translate(449,219)"/>
<path d="M0 0 C1.90625 0.41015625 1.90625 0.41015625 4.40625 1.91015625 C6.51761591 5.42909943 6.84862143 8.41122356 5.90625 12.41015625 C3.33252616 15.43806666 1.75378406 16.27178334 -2.15625 16.91015625 C-5.09375 16.41015625 -5.09375 16.41015625 -7.40625 14.84765625 C-9.66206266 11.58926019 -10.09375 9.36539846 -10.09375 5.41015625 C-7.71389134 0.54696681 -5.12937433 -0.3732194 0 0 Z " fill="#F8C79F" transform="translate(270.09375,42.58984375)"/>
<path d="M0 0 C2.77141717 -0.08089542 5.54047819 -0.14044062 8.3125 -0.1875 C9.09818359 -0.21263672 9.88386719 -0.23777344 10.69335938 -0.26367188 C11.45068359 -0.27333984 12.20800781 -0.28300781 12.98828125 -0.29296875 C14.03302612 -0.31653442 14.03302612 -0.31653442 15.09887695 -0.34057617 C17 0 17 0 18.75073242 1.01831055 C20 3 20 3 20 11 C13.73 10.34 7.46 9.68 1 9 C1 7.02 1 5.04 1 3 C0.67 2.01 0.34 1.02 0 0 Z " fill="#D44963" transform="translate(345,221)"/>
<path d="M0 0 C2.4375 1.625 2.4375 1.625 4 4 C4.5625 7 4.5625 7 4 10 C1.9375 12.4375 1.9375 12.4375 -1 14 C-4.6875 13.9375 -4.6875 13.9375 -8 13 C-10.46324069 9.30513897 -10.38991688 7.36706908 -10 3 C-7.7773391 -1.05308751 -4.20075589 -0.5158823 0 0 Z " fill="#F7C69E" transform="translate(383,50)"/>
<path d="M0 0 C2.45873768 0.14058476 4.91685175 0.28722999 7.375 0.4375 C8.07367188 0.47681641 8.77234375 0.51613281 9.4921875 0.55664062 C14.7734375 0.88671875 14.7734375 0.88671875 17 2 C17 4.64 17 7.28 17 10 C14.35346869 9.69268013 11.707885 9.37940678 9.0625 9.0625 C7.93038086 8.93198242 7.93038086 8.93198242 6.77539062 8.79882812 C1.11328125 8.11328125 1.11328125 8.11328125 0 7 C-0.04092937 4.66702567 -0.04241723 2.33294775 0 0 Z " fill="#D54963" transform="translate(347,235)"/>
<path d="M0 0 C4.97467728 1.05969039 9.20324885 3.48548326 13.6875 5.8125 C15.00717773 6.47088867 15.00717773 6.47088867 16.35351562 7.14257812 C17.18947266 7.57634766 18.02542969 8.01011719 18.88671875 8.45703125 C19.65201904 8.84866455 20.41731934 9.24029785 21.20581055 9.64379883 C23 11 23 11 23.75708008 13.15893555 C23.83724365 13.76648682 23.91740723 14.37403809 24 15 C21 16 21 16 18.85522461 15.22729492 C18.04577393 14.81584229 17.23632324 14.40438965 16.40234375 13.98046875 C15.51869141 13.53509766 14.63503906 13.08972656 13.72460938 12.63085938 C12.80486328 12.15455078 11.88511719 11.67824219 10.9375 11.1875 C10.01388672 10.72279297 9.09027344 10.25808594 8.13867188 9.77929688 C1.29494513 6.29494513 1.29494513 6.29494513 -1 4 C-0.625 1.875 -0.625 1.875 0 0 Z " fill="#424269" transform="translate(296,150)"/>
<path d="M0 0 C11.52164009 0.77904328 11.52164009 0.77904328 17 3 C17 4.98 17 6.96 17 9 C11.39 9 5.78 9 0 9 C0 6.03 0 3.06 0 0 Z " fill="#D74963" transform="translate(347,260)"/>
<path d="M0 0 C2.2578125 0.13671875 2.2578125 0.13671875 5 1 C7.0546875 3.58203125 7.0546875 3.58203125 8.875 6.8125 C9.49117188 7.87082031 10.10734375 8.92914063 10.7421875 10.01953125 C12 13 12 13 11.6953125 15.38671875 C11.46585937 15.91910156 11.23640625 16.45148437 11 17 C8.734375 17.296875 8.734375 17.296875 6 17 C4.015625 14.953125 4.015625 14.953125 2.25 12.25 C1.65703125 11.36828125 1.0640625 10.4865625 0.453125 9.578125 C-0.84831639 7.26911608 -1.75705925 5.62817724 -2 3 C-1.34 2.01 -0.68 1.02 0 0 Z " fill="#E88AAC" transform="translate(361,24)"/>
<path d="M0 0 C0.33 1.32 0.66 2.64 1 4 C-0.53158108 5.15927975 -2.07579793 6.30187547 -3.625 7.4375 C-4.48351562 8.07558594 -5.34203125 8.71367188 -6.2265625 9.37109375 C-9.26623474 11.15636604 -11.48939854 11.80824446 -15 12 C-15.66 11.34 -16.32 10.68 -17 10 C-16.953125 8.11328125 -16.953125 8.11328125 -16 6 C-13.671875 4.04296875 -13.671875 4.04296875 -10.75 2.1875 C-9.79609375 1.56230469 -8.8421875 0.93710937 -7.859375 0.29296875 C-4.64124438 -1.16222419 -3.30019287 -1.07798271 0 0 Z " fill="#E888AA" transform="translate(412,37)"/>
<path d="M0 0 C2.67578125 0.38671875 2.67578125 0.38671875 4.6953125 2.6171875 C5.28699219 3.59300781 5.87867188 4.56882812 6.48828125 5.57421875 C7.09285156 6.53714844 7.69742187 7.50007813 8.3203125 8.4921875 C9.70324695 11.4453703 9.97486373 13.17891255 9.67578125 16.38671875 C8.02578125 16.71671875 6.37578125 17.04671875 4.67578125 17.38671875 C3.5165015 15.85513767 2.37390578 14.31092082 1.23828125 12.76171875 C0.28115234 11.47394531 0.28115234 11.47394531 -0.6953125 10.16015625 C-2.46645111 7.14454855 -3.05082326 4.85635603 -3.32421875 1.38671875 C-2.32421875 0.38671875 -2.32421875 0.38671875 0 0 Z " fill="#E789AB" transform="translate(390.32421875,71.61328125)"/>
<path d="M0 0 C5.72077535 0.14301938 10.9981273 2.9803412 15 7 C15.2578125 9.703125 15.2578125 9.703125 15 12 C11.8686508 12.97257345 10.44605808 13.19594455 7.39453125 11.85546875 C6.54246094 11.30503906 5.69039063 10.75460938 4.8125 10.1875 C3.95269531 9.64480469 3.09289062 9.10210937 2.20703125 8.54296875 C0 7 0 7 -2 5 C-1.46428571 1.46428571 -1.46428571 1.46428571 0 0 Z " fill="#E88AAB" transform="translate(349,36)"/>
<path d="M0 0 C2.375 -0.1875 2.375 -0.1875 5 0 C7.15942819 3.23914229 7.27232978 4.24859733 7.25 8 C7.25515625 8.86625 7.2603125 9.7325 7.265625 10.625 C7 13 7 13 5 16 C2.375 16.1875 2.375 16.1875 0 16 C-2.52055505 12.21916742 -2.46702178 8.38281981 -2 4 C-1 1.5 -1 1.5 0 0 Z " fill="#FFCF9F" transform="translate(470,484)"/>
<path d="M0 0 C2.375 -0.1875 2.375 -0.1875 5 0 C7.15942819 3.23914229 7.27232978 4.24859733 7.25 8 C7.25515625 8.86625 7.2603125 9.7325 7.265625 10.625 C7 13 7 13 5 16 C2.375 16.1875 2.375 16.1875 0 16 C-2.52055505 12.21916742 -2.46702178 8.38281981 -2 4 C-1 1.5 -1 1.5 0 0 Z " fill="#FFCF9E" transform="translate(470,457)"/>
<path d="M0 0 C1.67542976 0.28604898 3.34385343 0.61781233 5 1 C5.6953125 2.64453125 5.6953125 2.64453125 6 5 C4.7421875 7.76171875 4.7421875 7.76171875 2.875 10.6875 C2.27429688 11.66074219 1.67359375 12.63398437 1.0546875 13.63671875 C-1.29098663 16.33468994 -2.49949695 16.73958195 -6 17 C-7.20703125 15.38671875 -7.20703125 15.38671875 -8 13 C-6.69921875 10.01953125 -6.69921875 10.01953125 -4.6875 6.8125 C-4.03136719 5.74644531 -3.37523437 4.68039063 -2.69921875 3.58203125 C-1 1 -1 1 0 0 Z " fill="#E788AB" transform="translate(367,72)"/>
<path d="M0 0 C4.92687484 -0.38231972 7.34337133 0.40341177 11.3125 3.3125 C12.17488281 3.92738281 13.03726562 4.54226562 13.92578125 5.17578125 C16 7 16 7 17 10 C16.01 11.485 16.01 11.485 15 13 C11.05611828 12.41125507 8.17649717 11.21364728 4.75 9.1875 C3.87859375 8.68605469 3.0071875 8.18460938 2.109375 7.66796875 C0 6 0 6 -0.859375 3.92578125 C-1 2 -1 2 0 0 Z " fill="#E888AA" transform="translate(396,64)"/>
<path d="M0 0 C4.24901173 1.60518221 7.18378361 4.37607524 9.8125 8.0625 C9.8125 10.9375 9.8125 10.9375 8.8125 13.0625 C7.8125 14.0625 7.8125 14.0625 5.6875 14.5625 C1.11066416 13.76652855 -1.48658519 10.71935657 -4.1875 7.0625 C-4.75 4.25 -4.75 4.25 -4.1875 2.0625 C-2.1875 0.0625 -2.1875 0.0625 0 0 Z " fill="#ED7988" transform="translate(145.1875,196.9375)"/>
<path d="M0 0 C2.125 1 2.125 1 3.125 2 C3.625 4.125 3.625 4.125 3.125 7 C0.45332849 10.63497842 -2.20650317 13.62922293 -6.6875 14.625 C-8.875 14 -8.875 14 -10.875 11 C-10.48961077 6.62933582 -7.74803965 4.27125637 -4.7265625 1.35546875 C-2.875 0 -2.875 0 0 0 Z " fill="#ED7988" transform="translate(131.875,197)"/>
<path d="M0 0 C1 1 1 1 1.421875 3.3203125 C1 6 1 6 -1.484375 8.0546875 C-2.56203125 8.65539062 -3.6396875 9.25609375 -4.75 9.875 C-6.35101563 10.79925781 -6.35101563 10.79925781 -7.984375 11.7421875 C-11 13 -11 13 -13.390625 12.6953125 C-13.92171875 12.46585938 -14.4528125 12.23640625 -15 12 C-15.6875 10.1875 -15.6875 10.1875 -16 8 C-12.21272997 3.50784375 -6.08173582 -1.10577015 0 0 Z " fill="#E887AB" transform="translate(363,64)"/>
<path d="M0 0 C1.67542976 0.28604898 3.34385343 0.61781233 5 1 C5.42231316 5.52951569 4.20535715 8.00127551 1.8125 11.8125 C1.22082031 12.78832031 0.62914062 13.76414062 0.01953125 14.76953125 C-2 17 -2 17 -4.73828125 17.32421875 C-5.48464844 17.21722656 -6.23101562 17.11023438 -7 17 C-8.11409257 13.64547952 -8.18356864 12.37534148 -6.6015625 9.140625 C-5.94929688 8.18671875 -5.29703125 7.2328125 -4.625 6.25 C-3.65433594 4.80367187 -3.65433594 4.80367187 -2.6640625 3.328125 C-1 1 -1 1 0 0 Z " fill="#E889AA" transform="translate(395,24)"/>
<path d="M0 0 C2.27113803 0.14100857 4.54190725 0.28796755 6.8125 0.4375 C8.07707031 0.51871094 9.34164063 0.59992188 10.64453125 0.68359375 C14 1 14 1 17 2 C17 4.31 17 6.62 17 9 C15.10388566 8.85786703 13.20811606 8.71113093 11.3125 8.5625 C10.25675781 8.48128906 9.20101563 8.40007812 8.11328125 8.31640625 C5.34913703 8.03548319 2.71054259 7.59843148 0 7 C0 4.69 0 2.38 0 0 Z " fill="#DB4963" transform="translate(347,248)"/>
<path d="M0 0 C2.1875 0.5625 2.1875 0.5625 4.1875 2.5625 C4.02543144 5.75681904 3.51173905 7.20809917 1.33984375 9.58203125 C0.60894531 10.17371094 -0.12195313 10.76539063 -0.875 11.375 C-1.60847656 11.97957031 -2.34195313 12.58414063 -3.09765625 13.20703125 C-3.66355469 13.65433594 -4.22945312 14.10164062 -4.8125 14.5625 C-7.2875 13.5725 -7.2875 13.5725 -9.8125 12.5625 C-10.25 10.5 -10.25 10.5 -9.8125 7.5625 C-7.1553709 3.92958902 -4.49776413 0.89955283 0 0 Z " fill="#ED7988" transform="translate(150.8125,177.4375)"/>
<path d="M0 0 C1.46751239 0.00399142 2.93502584 0.01874717 4.40234375 0.04296875 C5.14806641 0.04361328 5.89378906 0.04425781 6.66210938 0.04492188 C12.19956216 0.09018716 12.19956216 0.09018716 13.33984375 1.23046875 C13.38048207 2.8966399 13.38256475 4.5643497 13.33984375 6.23046875 C10.27451211 7.76313457 7.07230103 7.33323346 3.71484375 7.29296875 C3.0084375 7.28845703 2.30203125 7.28394531 1.57421875 7.27929688 C-0.170609 7.2675075 -1.91539325 7.24957199 -3.66015625 7.23046875 C-4.32015625 5.58046875 -4.98015625 3.93046875 -5.66015625 2.23046875 C-3.66015625 0.23046875 -3.66015625 0.23046875 0 0 Z " fill="#E888AA" transform="translate(403.66015625,52.76953125)"/>
<path d="M0 0 C1.65 0.33 3.3 0.66 5 1 C5 6.61 5 12.22 5 18 C1 19 1 19 -0.73046875 18.00390625 C-2.63488773 14.99785414 -2.35982053 12.45741929 -2.3125 8.9375 C-2.30863281 7.68839844 -2.30476563 6.43929687 -2.30078125 5.15234375 C-2 2 -2 2 0 0 Z " fill="#E887AB" transform="translate(378,75)"/>
<path d="M0 0 C1.12535156 0.00580078 1.12535156 0.00580078 2.2734375 0.01171875 C3.02367187 0.00785156 3.77390625 0.00398438 4.546875 0 C10.14682697 0.01010822 10.14682697 0.01010822 11.2734375 1.13671875 C11.3984375 3.63671875 11.3984375 3.63671875 11.2734375 6.13671875 C9.45227747 7.95787878 6.96671986 7.26906955 4.546875 7.2734375 C3.79664063 7.26957031 3.04640625 7.26570313 2.2734375 7.26171875 C1.14808594 7.26751953 1.14808594 7.26751953 0 7.2734375 C-5.59995197 7.26332928 -5.59995197 7.26332928 -6.7265625 6.13671875 C-6.8515625 3.63671875 -6.8515625 3.63671875 -6.7265625 1.13671875 C-4.90540247 -0.68444128 -2.41984486 0.00436795 0 0 Z " fill="#E888AA" transform="translate(349.7265625,52.86328125)"/>
<path d="M0 0 C1.98 0 3.96 0 6 0 C6.02684312 2.81256281 6.04676188 5.62487241 6.0625 8.4375 C6.07087891 9.23994141 6.07925781 10.04238281 6.08789062 10.86914062 C6.0965143 12.91295221 6.0522815 14.95683902 6 17 C5 18 5 18 2.4375 18.0625 C1.633125 18.041875 0.82875 18.02125 0 18 C-1.48619895 15.02760209 -1.13177009 12.30380422 -1.125 9 C-1.12757813 7.741875 -1.13015625 6.48375 -1.1328125 5.1875 C-1 2 -1 2 0 0 Z " fill="#E889AC" transform="translate(377,20)"/>
<path d="M0 0 C4.56451894 0.79382938 7.19549661 3.83649819 9.875 7.5 C10.3125 10.4375 10.3125 10.4375 9.875 12.5 C8.225 13.16 6.575 13.82 4.875 14.5 C-2.94117021 8.60297872 -2.94117021 8.60297872 -3.6875 4.125 C-2.95243363 0.69469027 -2.95243363 0.69469027 0 0 Z " fill="#ED7A88" transform="translate(125.125,177.5)"/>
<path d="M0 0 C1.0725 0.00515625 2.145 0.0103125 3.25 0.015625 C4.85875 0.00789063 4.85875 0.00789063 6.5 0 C9.25 0.265625 9.25 0.265625 11.25 2.265625 C10.875 5.390625 10.875 5.390625 10.25 8.265625 C7.93756208 8.29247912 5.6250373 8.31195341 3.3125 8.328125 C2.02472656 8.33972656 0.73695313 8.35132813 -0.58984375 8.36328125 C-3.75 8.265625 -3.75 8.265625 -4.75 7.265625 C-4.9375 4.828125 -4.9375 4.828125 -4.75 2.265625 C-2.75 0.265625 -2.75 0.265625 0 0 Z " fill="#FFCBA0" transform="translate(482.75,473.734375)"/>
<path d="M0 0 C1.0725 -0.01417969 2.145 -0.02835937 3.25 -0.04296875 C6 0.1875 6 0.1875 8 2.1875 C7.44444444 6.74305556 7.44444444 6.74305556 6 8.1875 C3.83519203 8.2864294 1.66706215 8.317211 -0.5 8.3125 C-1.6859375 8.31507813 -2.871875 8.31765625 -4.09375 8.3203125 C-7 8.1875 -7 8.1875 -8 7.1875 C-8.04080783 5.18791636 -8.04254356 3.18704746 -8 1.1875 C-5.27457733 -0.17521133 -3.03912726 0.01826399 0 0 Z " fill="#FFCBA1" transform="translate(459,473.8125)"/>
<path d="M0 0 C1.0725 -0.01417969 2.145 -0.02835938 3.25 -0.04296875 C6 0.1875 6 0.1875 8 2.1875 C7.44444444 6.74305556 7.44444444 6.74305556 6 8.1875 C3.83519203 8.2864294 1.66706215 8.317211 -0.5 8.3125 C-1.6859375 8.31507813 -2.871875 8.31765625 -4.09375 8.3203125 C-7 8.1875 -7 8.1875 -8 7.1875 C-8.04080783 5.18791636 -8.04254356 3.18704746 -8 1.1875 C-5.27457733 -0.17521133 -3.03912726 0.01826399 0 0 Z " fill="#FFCCA1" transform="translate(60,149.8125)"/>
<path d="M0 0 C1.0725 -0.01417969 2.145 -0.02835938 3.25 -0.04296875 C6 0.1875 6 0.1875 8 2.1875 C7.44444444 6.74305556 7.44444444 6.74305556 6 8.1875 C3.83519203 8.2864294 1.66706215 8.317211 -0.5 8.3125 C-1.6859375 8.31507813 -2.871875 8.31765625 -4.09375 8.3203125 C-7 8.1875 -7 8.1875 -8 7.1875 C-8.04080783 5.18791636 -8.04254356 3.18704746 -8 1.1875 C-5.27457733 -0.17521133 -3.03912726 0.01826399 0 0 Z " fill="#FFCCA0" transform="translate(33,149.8125)"/>
<path d="M0 0 C5.4389165 -0.21755666 9.87080814 -0.10428384 15 2 C15 4.31 15 6.62 15 9 C12.68715544 8.85973717 10.37472409 8.71264442 8.0625 8.5625 C6.13083984 8.44068359 6.13083984 8.44068359 4.16015625 8.31640625 C1 8 1 8 0 7 C-0.04092937 4.66702567 -0.04241723 2.33294775 0 0 Z " fill="#DF586A" transform="translate(332,233)"/>
<path d="M0 0 C2.4375 0.1875 2.4375 0.1875 3.4375 1.1875 C3.56287741 3.33057896 3.61324364 5.47828886 3.625 7.625 C3.63917969 8.79933594 3.65335938 9.97367188 3.66796875 11.18359375 C3.4375 14.1875 3.4375 14.1875 1.4375 16.1875 C-3.11805556 15.63194444 -3.11805556 15.63194444 -4.5625 14.1875 C-4.68764928 12.21130553 -4.7382276 10.23011827 -4.75 8.25 C-4.76417969 7.16847656 -4.77835938 6.08695313 -4.79296875 4.97265625 C-4.48701863 1.27532678 -3.74585114 0.27408667 0 0 Z " fill="#FFCCA1" transform="translate(46.5625,159.8125)"/>
<path d="M0 0 C1.32 0 2.64 0 4 0 C4.7265625 1.578125 4.7265625 1.578125 5 4 C3.89106192 6.42910245 2.77952515 8.50768793 1.375 10.75 C0.85873047 11.65298828 0.85873047 11.65298828 0.33203125 12.57421875 C-0.7265625 14.296875 -0.7265625 14.296875 -3 17 C-5.7734375 17.390625 -5.7734375 17.390625 -8 17 C-8.40167086 12.01197828 -7.55854809 9.66012715 -4.5625 5.6875 C-3.92441406 4.82511719 -3.28632812 3.96273438 -2.62890625 3.07421875 C-1 1 -1 1 0 0 Z " fill="#374169" transform="translate(123,388)"/>
<path d="M0 0 C3 0.125 3 0.125 4 1.125 C4.0989294 3.28980797 4.129711 5.45793785 4.125 7.625 C4.12757812 8.8109375 4.13015625 9.996875 4.1328125 11.21875 C4 14.125 4 14.125 3 15.125 C0 15.25 0 15.25 -3 15.125 C-4 14.125 -4 14.125 -4.1328125 11.21875 C-4.13023438 10.0328125 -4.12765625 8.846875 -4.125 7.625 C-4.12757812 6.4390625 -4.13015625 5.253125 -4.1328125 4.03125 C-3.95612165 0.1648384 -3.95612165 0.1648384 0 0 Z " fill="#FFCCA0" transform="translate(46,132.875)"/>
<path d="M0 0 C4.15599318 0.33100831 6.05796761 2.77644789 8.75 5.75 C9.94882813 7.04164063 9.94882813 7.04164063 11.171875 8.359375 C13.17732124 11.25613068 13.42042001 12.56244812 13 16 C10.80078125 16.29296875 10.80078125 16.29296875 8 16 C5.54296875 13.98828125 5.54296875 13.98828125 3.1875 11.3125 C2.39730469 10.44238281 1.60710937 9.57226562 0.79296875 8.67578125 C-1.16370153 5.75569598 -1.49918428 4.4341473 -1 1 C-0.67 0.67 -0.34 0.34 0 0 Z " fill="#374169" transform="translate(68,390)"/>
<path d="M0 0 C2.0625 0.1875 2.0625 0.1875 4 1 C5.2062252 4.61867559 5.10816918 7.92506251 5.0625 11.6875 C5.05798828 12.38939453 5.05347656 13.09128906 5.04882812 13.81445312 C5.03706927 15.54300538 5.01913454 17.27151365 5 19 C3.125 19.625 3.125 19.625 1 20 C-1.91015782 17.08984218 -1.53796608 13.91236783 -1.75 10 C-1.83314453 8.89398438 -1.83314453 8.89398438 -1.91796875 7.765625 C-2.03350452 5.84703107 -2.02485227 3.92190883 -2 2 C-1.34 1.34 -0.68 0.68 0 0 Z " fill="#374169" transform="translate(99,461)"/>
<path d="M0 0 C6.16618181 -0.40214229 11.17745757 1.03181664 17 3 C17.33 4.65 17.66 6.3 18 8 C13.80162995 9.1662139 10.93119937 8.74753875 6.75 7.625 C5.69296875 7.34914063 4.6359375 7.07328125 3.546875 6.7890625 C1 6 1 6 0 5 C-0.04063832 3.33382885 -0.042721 1.66611905 0 0 Z " fill="#384169" transform="translate(129,437)"/>
<path d="M0 0 C0.33 1.65 0.66 3.3 1 5 C-11.72820285 11.50622776 -11.72820285 11.50622776 -17 10 C-16.86328125 7.67578125 -16.86328125 7.67578125 -16 5 C-13.41796875 3.41796875 -13.41796875 3.41796875 -10.1875 2.1875 C-9.12917969 1.76855469 -8.07085937 1.34960938 -6.98046875 0.91796875 C-4 0 -4 0 0 0 Z " fill="#374269" transform="translate(69,439)"/>
<path d="M0 0 C6.75 -0.125 6.75 -0.125 9 1 C9 4.63 9 8.26 9 12 C6.03 12 3.06 12 0 12 C0 8.04 0 4.08 0 0 Z " fill="#E97684" transform="translate(323,257)"/>
<path d="M0 0 C4.10839064 1.45002023 7.50344613 3.3979134 11 6 C11 6.66 11 7.32 11 8 C11.70511719 8.24492187 12.41023438 8.48984375 13.13671875 8.7421875 C16.39763037 10.17467528 18.96134115 11.99521869 21.8125 14.125 C22.78832031 14.84945312 23.76414062 15.57390625 24.76953125 16.3203125 C25.50558594 16.87460938 26.24164063 17.42890625 27 18 C26.67 18.66 26.34 19.32 26 20 C22.50061929 18.72192533 19.67743869 17.23646092 16.6796875 15.03125 C15.89722656 14.46019531 15.11476563 13.88914063 14.30859375 13.30078125 C13.50550781 12.70652344 12.70242188 12.11226562 11.875 11.5 C10.26848378 10.32256919 8.66172305 9.1454719 7.0546875 7.96875 C6.34812012 7.44732422 5.64155273 6.92589844 4.91357422 6.38867188 C3.30331151 5.22011175 1.65544111 4.10362741 0 3 C0 2.01 0 1.02 0 0 Z " fill="#E47484" transform="translate(289,151)"/>
<path d="M0 0 C1 3 1 3 0.21484375 4.7890625 C-3.26613347 9.79230192 -3.26613347 9.79230192 -7.3125 10.9375 C-8.199375 10.958125 -9.08625 10.97875 -10 11 C-10.3125 7.75 -10.3125 7.75 -10 4 C-6.88228157 0.52597089 -4.64040092 -0.53033153 0 0 Z " fill="#F6D9BD" transform="translate(226,199)"/>
<path d="M0 0 C-0.30441479 3.55150592 -0.97593993 4.97138802 -3.3125 7.75 C-6.93275488 10.78091106 -6.93275488 10.78091106 -10 11 C-10.33 10.67 -10.66 10.34 -11 10 C-10.55188679 3.9504717 -10.55188679 3.9504717 -8.875 1.0625 C-5.96905769 -0.58420065 -3.26178195 -0.18462917 0 0 Z " fill="#F7DBBE" transform="translate(271,43)"/>
<path d="M0 0 C-0.08398271 2.85541213 -0.60956385 4.56239033 -2.51953125 6.703125 C-5.99755648 9.83700878 -5.99755648 9.83700878 -8 11 C-8.99 10.67 -9.98 10.34 -11 10 C-10.51644989 3.59296098 -10.51644989 3.59296098 -8.3125 1.0625 C-5.40913094 -0.27148038 -3.15869424 -0.21536552 0 0 Z " fill="#F5D9BD" transform="translate(448,219)"/>
<path d="M0 0 C-1.39176612 4.42834676 -3.43721744 7.03101453 -7 10 C-8.32 10 -9.64 10 -11 10 C-11.31785906 6.50355037 -11.39644605 4.602598 -9.4375 1.625 C-6.18317497 -0.54455002 -3.82869586 -0.29451507 0 0 Z " fill="#FADDBF" transform="translate(121,317)"/>
<path d="M0 0 C1.65 0.33 3.3 0.66 5 1 C4.5205537 5.21912747 3.83374881 7.79663178 1 11 C-0.65 10.67 -2.3 10.34 -4 10 C-4.41176754 6.39703406 -4.1535853 5.21597933 -2 2.1875 C-1.34 1.465625 -0.68 0.74375 0 0 Z " fill="#354168" transform="translate(131,375)"/>
<path d="M0 0 C0.515625 0.391875 1.03125 0.78375 1.5625 1.1875 C1.4375 3 1.4375 3 0.5625 5.1875 C-4.32069518 8.334448 -4.32069518 8.334448 -7.8125 7.875 C-8.34875 7.648125 -8.885 7.42125 -9.4375 7.1875 C-9.4375 5.5375 -9.4375 3.8875 -9.4375 2.1875 C-3.0375 -1.0125 -3.0375 -1.0125 0 0 Z " fill="#384069" transform="translate(47.4375,447.8125)"/>
<path d="M0 0 C1.65 0 3.3 0 5 0 C6.1577506 3.47325181 6.06866652 6.36067448 6 10 C4.35 10.33 2.7 10.66 1 11 C-0.62950412 6.87831311 -1.26264601 4.29299643 0 0 Z " fill="#364167" transform="translate(99,484)"/>
<path d="M0 0 C3.84280285 1.24631444 6.07319896 2.36048692 8 6 C7.6875 8.25 7.6875 8.25 7 10 C1.55122777 9.51566469 1.55122777 9.51566469 -0.9375 7.1875 C-2 5 -2 5 -1.75 2.8125 C-1 1 -1 1 0 0 Z " fill="#363F65" transform="translate(59,379)"/>
<path d="M0 0 C7.75 0.75 7.75 0.75 10 3 C9.625 5.125 9.625 5.125 9 7 C2.375 7.25 2.375 7.25 -1 5 C-0.67 3.35 -0.34 1.7 0 0 Z " fill="#364369" transform="translate(152,442)"/>
<path d="M0 0 C2.64 0 5.28 0 8 0 C8 2.64 8 5.28 8 8 C5.36 7.67 2.72 7.34 0 7 C0 4.69 0 2.38 0 0 Z " fill="#E77786" transform="translate(324,232)"/>
<path d="M0 0 C2.64 0 5.28 0 8 0 C8 2.64 8 5.28 8 8 C1.125 7.125 1.125 7.125 0 6 C-0.04080783 4.00041636 -0.04254356 1.99954746 0 0 Z " fill="#E97786" transform="translate(324,245)"/>
<path d="M0 0 C1.77503906 0.03480469 1.77503906 0.03480469 3.5859375 0.0703125 C5.36871094 0.09738281 5.36871094 0.09738281 7.1875 0.125 C8.10273438 0.14820313 9.01796875 0.17140625 9.9609375 0.1953125 C9.9609375 1.8453125 9.9609375 3.4953125 9.9609375 5.1953125 C8.21023233 5.08061113 6.46036214 4.95312222 4.7109375 4.8203125 C3.73640625 4.75070313 2.761875 4.68109375 1.7578125 4.609375 C-0.93539439 4.21066001 -2.70869529 3.56024187 -5.0390625 2.1953125 C-3.0390625 0.1953125 -3.0390625 0.1953125 0 0 Z " fill="#DF586A" transform="translate(313.0390625,220.8046875)"/>
<path d="M0 0 C-0.47241991 4.25177923 -2.84964071 6.29969203 -6 9 C-6.99 9 -7.98 9 -9 9 C-9.36 3.6 -9.36 3.6 -7.875 1.125 C-5.21965017 -0.4682099 -3.03210482 -0.20214032 0 0 Z " fill="#F7DABD" transform="translate(382,50)"/>
<path d="M0 0 C2.97 0 5.94 0 9 0 C9 1.98 9 3.96 9 6 C6.03 5.67 3.06 5.34 0 5 C0 3.35 0 1.7 0 0 Z " fill="#E77584" transform="translate(323,221)"/>
<path d="M0 0 C8.415 3.96 8.415 3.96 17 8 C16.67 9.32 16.34 10.64 16 12 C15.26394531 11.52949219 14.52789062 11.05898437 13.76953125 10.57421875 C12.79371094 9.95160156 11.81789063 9.32898438 10.8125 8.6875 C9.84957031 8.07261719 8.88664062 7.45773438 7.89453125 6.82421875 C6.00459294 5.63312403 4.08527196 4.48710338 2.13671875 3.39453125 C1.43160156 2.93433594 0.72648437 2.47414062 0 2 C0 1.34 0 0.68 0 0 Z " fill="#DE5A6C" transform="translate(300,157)"/>
<path d="M0 0 C1.2065625 0.0309375 1.2065625 0.0309375 2.4375 0.0625 C3.0625 2.4375 3.0625 2.4375 3.4375 5.0625 C2.7775 5.7225 2.1175 6.3825 1.4375 7.0625 C-0.6875 6.6875 -0.6875 6.6875 -2.5625 6.0625 C-2.94468767 4.40635343 -3.27645102 2.73792976 -3.5625 1.0625 C-2.5625 0.0625 -2.5625 0.0625 0 0 Z " fill="#FFCCA1" transform="translate(472.5625,474.9375)"/>
<path d="M0 0 C1.67542976 0.28604898 3.34385343 0.61781233 5 1 C5.625 2.875 5.625 2.875 6 5 C5.34 5.66 4.68 6.32 4 7 C1.375 6.625 1.375 6.625 -1 6 C-1.042721 4.33388095 -1.04063832 2.66617115 -1 1 C-0.67 0.67 -0.34 0.34 0 0 Z " fill="#EC7987" transform="translate(136,191)"/>
<path d="M0 0 C1.98 0 3.96 0 6 0 C6.6875 1.8125 6.6875 1.8125 7 4 C5.8125 5.8125 5.8125 5.8125 4 7 C1.8125 6.6875 1.8125 6.6875 0 6 C0 4.02 0 2.04 0 0 Z " fill="#FFCBA1" transform="translate(43,151)"/>
</svg>
