<?xml version="1.0" encoding="UTF-8"?>
<svg version="1.1" xmlns="http://www.w3.org/2000/svg" width="512" height="512">
<path d="M0 0 C94.38 0 188.76 0 286 0 C286 11.22 286 22.44 286 34 C280.72 34 275.44 34 270 34 C269.60768503 41.30393002 269.31849068 48.59575282 269.19947147 55.90960026 C269.14026442 59.30843338 269.0399481 62.69457171 268.83764648 66.08813477 C267.59552159 81.19275069 267.59552159 81.19275069 273.15380859 94.6388855 C278.61105926 99.3501644 284.75439562 102.59799402 291.24325562 105.66970825 C294.67229735 107.32442312 297.68781246 109.26565012 300.8359375 111.40234375 C302.68162864 112.58176738 304.52796587 113.76018066 306.375 114.9375 C308.46615471 116.2734236 310.55730026 117.60936154 312.6484375 118.9453125 C314.21223145 119.94353027 314.21223145 119.94353027 315.80761719 120.96191406 C321.20704926 124.40902777 326.60381655 127.86030363 332 131.3125 C333.04953857 131.98385986 334.09907715 132.65521973 335.18041992 133.34692383 C341.69465264 137.51658879 348.19380567 141.70860998 354.68164062 145.91918945 C360.43326604 149.64619261 366.21489794 153.32523032 372 157 C379.91227241 162.02693177 387.80782927 167.07730058 395.6640625 172.19140625 C398.91528353 174.30569254 402.18502437 176.38903454 405.4609375 178.46484375 C406.38181152 179.05257568 407.30268555 179.64030762 408.25146484 180.24584961 C410.05229881 181.39516495 411.85718828 182.53815602 413.66650391 183.67407227 C414.47780762 184.19412842 415.28911133 184.71418457 416.125 185.25 C416.84945313 185.70890625 417.57390625 186.1678125 418.3203125 186.640625 C420 188 420 188 421 191 C419.73657227 193.40429688 419.73657227 193.40429688 417.81640625 196.21875 C417.13642578 197.23324219 416.45644531 198.24773437 415.75585938 199.29296875 C415.03205078 200.35128906 414.30824219 201.40960938 413.5625 202.5 C412.14101319 204.58959834 410.72534519 206.68317063 409.31640625 208.78125 C408.68162354 209.71001953 408.04684082 210.63878906 407.39282227 211.59570312 C405.74936584 213.96954657 405.74936584 213.96954657 406 217 C408.44496043 218.71711243 408.44496043 218.71711243 411 220 C409.72513233 223.40064408 408.26061319 226.40123976 406.3203125 229.46875 C405.80339844 230.28730469 405.28648437 231.10585938 404.75390625 231.94921875 C404.21636719 232.79097656 403.67882812 233.63273438 403.125 234.5 C402.59519531 235.34175781 402.06539063 236.18351563 401.51953125 237.05078125 C397.35188353 243.61767033 397.35188353 243.61767033 394.93719101 246.24129009 C392.59557355 249.57593456 392.49436469 251.33109077 392.48101807 255.3717804 C392.46710526 256.65760513 392.45319244 257.94342987 392.43885803 259.26821899 C392.44357069 260.68573125 392.44866461 262.10324229 392.45410156 263.52075195 C392.44536402 265.01901828 392.4348776 266.51727527 392.42277527 268.01551819 C392.39491644 272.07715031 392.39151055 276.13847794 392.39249516 280.20019174 C392.38936594 284.44702234 392.36374756 288.69371583 392.34051514 292.94047546 C392.29995223 300.97973171 392.27961376 309.01890683 392.26654124 317.05824965 C392.25067217 326.21183133 392.21225695 335.36527494 392.17194796 344.51877654 C392.08954504 363.34581074 392.03625512 382.17282426 392 401 C397.28 401 402.56 401 408 401 C408 403.97 408 406.94 408 410 C274.68 410 141.36 410 4 410 C4 407.03 4 404.06 4 401 C7.96 401 11.92 401 16 401 C16 279.89 16 158.78 16 34 C10.72 34 5.44 34 0 34 C0 22.78 0 11.56 0 0 Z M295 201 C293.32972219 203.64357001 291.6643902 206.29021992 290 208.9375 C289.52304687 209.69224609 289.04609375 210.44699219 288.5546875 211.22460938 C287.87792969 212.30258789 287.87792969 212.30258789 287.1875 213.40234375 C286.76855469 214.06741943 286.34960938 214.73249512 285.91796875 215.41772461 C284.91636334 216.83928217 284.91636334 216.83928217 285 218 C296.55 218 308.1 218 320 218 C317.03897389 215.03897389 314.94645167 213.15430261 311.5234375 211.01953125 C310.688125 210.49552734 309.8528125 209.97152344 308.9921875 209.43164062 C308.12851562 208.89732422 307.26484375 208.36300781 306.375 207.8125 C305.50359375 207.26658203 304.6321875 206.72066406 303.734375 206.15820312 C299.44638538 203.4395125 299.44638538 203.4395125 295 201 Z " fill="#304B62" transform="translate(46,51)"/>
<path d="M0 0 C8.81093773 4.9295588 17.23573072 10.36121064 25.67456055 15.89697266 C32.87967705 20.62229809 40.11378577 25.29885007 47.375 29.9375 C48.40713623 30.5970166 49.43927246 31.2565332 50.50268555 31.93603516 C52.60414006 33.27829132 54.70578475 34.62024977 56.80761719 35.96191406 C62.20704926 39.40902777 67.60381655 42.86030363 73 46.3125 C74.04953857 46.98385986 75.09907715 47.65521973 76.18041992 48.34692383 C82.69465264 52.51658879 89.19380567 56.70860998 95.68164062 60.91918945 C101.43326541 64.6461922 107.21485894 68.32529264 113 72 C119.45416962 76.09967265 125.89868137 80.21245684 132.3125 84.375 C143.50612341 91.63868824 154.75708772 98.8129483 166 106 C190.59530395 121.72259187 190.59530395 121.72259187 200.6875 128.25 C201.35201172 128.67966064 202.01652344 129.10932129 202.70117188 129.55200195 C206.48751619 132.00532802 210.25137688 134.48940141 214 137 C203.83697047 156.58151476 203.83697047 156.58151476 199 159 C191.34100712 160.3802792 186.24718577 155.81823154 180.125 151.6875 C178.99996893 150.94521862 177.87389952 150.20450874 176.74682617 149.46533203 C174.50884954 147.99465304 172.27783735 146.51491853 170.04931641 145.02978516 C166.1605155 142.44119503 162.23981034 139.90456884 158.3125 137.375 C156.96871584 136.50395894 155.62496634 135.63286442 154.28125 134.76171875 C146.52615078 129.74833975 138.72227141 124.81081218 130.92724609 119.85986328 C125.82462687 116.61784883 120.72499914 113.37113387 115.625 110.125 C113.76303365 108.94008402 111.90105571 107.75518626 110.0390625 106.5703125 C108.69270833 105.71354167 107.34635417 104.85677083 106 104 C105.73823975 104.71446289 105.47647949 105.42892578 105.20678711 106.16503906 C103.94464426 109.13004063 102.4394052 111.65368942 100.69140625 114.359375 C100.03253418 115.38377686 99.37366211 116.40817871 98.69482422 117.46362305 C97.99115723 118.54812744 97.28749023 119.63263184 96.5625 120.75 C95.83051162 121.88492733 95.09890676 123.02010211 94.36767578 124.15551758 C92.25041033 127.44044701 90.12581754 130.72059777 88 134 C86.9960373 135.5507447 85.99212327 137.10152092 84.98828125 138.65234375 C83.68771272 140.66099165 82.38675727 142.66938041 81.08422852 144.67675781 C76.74390807 151.37357558 72.46939117 158.1119586 68.19091797 164.84838867 C64.22018575 171.09563782 60.21481961 177.31901668 56.18359375 183.52734375 C52.42132253 189.32979703 48.70755945 195.16247017 45 201 C40.47558229 208.12294203 35.92661489 215.22834939 31.33081055 222.30541992 C26.45744904 229.81796502 21.64313315 237.36830125 16.83251953 244.92114258 C14.89703782 247.95310466 12.94952305 250.97705142 11 254 C9.96431885 255.62881104 9.96431885 255.62881104 8.90771484 257.29052734 C8.22016113 258.35352051 7.53260742 259.41651367 6.82421875 260.51171875 C6.21022217 261.46908936 5.59622559 262.42645996 4.96362305 263.4128418 C1.1203755 268.47648649 -2.75915256 270.83645217 -9 272 C-14.9612185 272.10582045 -19.1410759 270.36387053 -24 267 C-28.16433019 262.72312035 -29.64919299 258.60599495 -30.4375 252.75 C-29.30267506 243.02292907 -22.29056759 234.6365316 -17.02734375 226.62890625 C-13.95837839 221.95640897 -10.97378572 217.23345649 -8 212.5 C-3.85082264 205.9089591 0.34430846 199.35068944 4.58520508 192.81835938 C8.64429646 186.56151607 12.6689214 180.28292748 16.6875 174 C17.36288818 172.94409668 18.03827637 171.88819336 18.73413086 170.80029297 C20.82308094 167.53373761 22.91161692 164.26691788 25 161 C40.77744122 136.31889363 40.77744122 136.31889363 47.91259766 125.3293457 C52.31912372 118.53120117 56.65313917 111.68718843 60.98925781 104.84399414 C64.80396953 98.8370479 68.69761527 92.90219713 72.7421875 87.046875 C74.17451767 85.11641145 74.17451767 85.11641145 74 83 C71.50958931 81.34905359 69.01426088 79.81909238 66.4375 78.3125 C59.1642985 73.96664735 52.01852209 69.46478631 44.9375 64.8125 C36.76154377 59.44818793 28.55508526 54.13639978 20.3125 48.875 C17.21667321 46.89562972 14.12121174 44.9156895 11.02587891 42.93554688 C9.00770221 41.64459118 6.989147 40.35422703 4.97021484 39.06445312 C2.14360099 37.25624133 -0.67876888 35.4415951 -3.5 33.625 C-4.34908936 33.08343262 -5.19817871 32.54186523 -6.07299805 31.98388672 C-6.84297119 31.48646973 -7.61294434 30.98905273 -8.40625 30.4765625 C-9.07978516 30.04424316 -9.75332031 29.61192383 -10.44726562 29.16650391 C-12 28 -12 28 -13 26 C-13.39651231 21.35387506 -12.75191515 18.88264359 -10.15625 15.0390625 C-9.56972656 14.15605469 -8.98320312 13.27304688 -8.37890625 12.36328125 C-7.75886719 11.45964844 -7.13882813 10.55601562 -6.5 9.625 C-5.87996094 8.69816406 -5.25992188 7.77132812 -4.62109375 6.81640625 C-3.09280057 4.53572259 -1.55233798 2.26435553 0 0 Z " fill="#FDDC76" transform="translate(232,137)"/>
<path d="M0 0 C37.95 0 75.9 0 115 0 C115 28.38 115 56.76 115 86 C77.05 86 39.1 86 0 86 C0 57.62 0 29.24 0 0 Z " fill="#7FD6FC" transform="translate(70,271)"/>
<path d="M0 0 C37.95 0 75.9 0 115 0 C115 28.05 115 56.1 115 85 C77.05 85 39.1 85 0 85 C0 56.95 0 28.9 0 0 Z " fill="#80D7FC" transform="translate(70,178)"/>
<path d="M0 0 C37.95 0 75.9 0 115 0 C115 28.05 115 56.1 115 85 C77.05 85 39.1 85 0 85 C0 56.95 0 28.9 0 0 Z " fill="#80D7FC" transform="translate(70,85)"/>
<path d="M0 0 C1.59448219 -0.05314362 1.59448219 -0.05314362 3.22117615 -0.10736084 C8.16177656 -0.23199592 13.10226763 -0.32225772 18.04394531 -0.39160156 C20.63069659 -0.43794008 23.21716508 -0.50579041 25.80273438 -0.59667969 C42.1499388 -1.16121171 54.0598372 -0.54148609 67.16127014 9.8349762 C70.3400183 12.30477121 73.72856177 14.45890905 77.09399414 16.66308594 C78.31453606 17.48136619 79.53460529 18.30035204 80.75415039 19.12011719 C87.57038039 23.62906552 91.79384057 26.11127828 100.03149414 27.28808594 C100.03149414 76.12808594 100.03149414 124.96808594 100.03149414 175.28808594 C92.77149414 175.28808594 85.51149414 175.28808594 78.03149414 175.28808594 C78.03149414 124.79808594 78.03149414 74.30808594 78.03149414 22.28808594 C54.93149414 22.28808594 31.83149414 22.28808594 8.03149414 22.28808594 C8.03149414 72.77808594 8.03149414 123.26808594 8.03149414 175.28808594 C0.77149414 175.28808594 -6.48850586 175.28808594 -13.96850586 175.28808594 C-14.15401115 154.37331045 -14.29662195 133.45873438 -14.38300323 112.54330063 C-14.4241849 102.83099033 -14.48029023 93.11920184 -14.57202148 83.40722656 C-14.65197344 74.93830954 -14.70342209 66.46977057 -14.72121382 58.00048661 C-14.73160783 53.51937677 -14.75588519 49.03934806 -14.81434631 44.55858612 C-14.8690292 40.33279597 -14.88532328 36.10852234 -14.87336731 31.88241196 C-14.87555142 30.3393133 -14.89124055 28.79615899 -14.92214966 27.25336838 C-15.13097173 16.28350715 -13.11200803 9.75437161 -5.96850586 1.28808594 C-4.30586308 -0.37455684 -2.28944635 0.07553471 0 0 Z " fill="#EBE9EF" transform="translate(329.968505859375,276.7119140625)"/>
<path d="M0 0 C38.61529716 0 38.61529716 0 53.68017578 12.16650391 C57.11956836 14.88486197 60.78791494 17.17687101 64.5 19.5 C65.85423562 20.37548703 67.20707716 21.25313382 68.55859375 22.1328125 C73.87627173 25.57344688 79.21888374 28.97483992 84.5625 32.375 C85.47902344 32.95830078 86.39554687 33.54160156 87.33984375 34.14257812 C92.54565612 37.45155123 97.76470656 40.7378685 103 44 C101.31058054 48.85708096 98.69043102 53.02571657 96 57.375 C95.27393555 58.55570068 95.27393555 58.55570068 94.53320312 59.76025391 C89.87099722 67.29465754 85.02666825 74.70382854 80 82 C79.6146257 82.71331482 79.2292514 83.42662964 78.8321991 84.16156006 C76.54553769 86.4560103 74.90904248 86.47091526 71.74430561 86.497715 C71.03373603 86.48332256 70.32316645 86.46893013 69.59106445 86.45410156 C68.82746455 86.4545837 68.06386465 86.45506584 67.27712536 86.45556259 C64.80536977 86.45257694 62.33482093 86.42211944 59.86328125 86.390625 C58.33736756 86.38474382 56.81144583 86.38066313 55.28552246 86.37841797 C49.62772524 86.3574469 43.97010077 86.3016019 38.3125 86.25 C19.3478125 86.12625 19.3478125 86.12625 0 86 C0 57.62 0 29.24 0 0 Z " fill="#7FD6FB" transform="translate(193,178)"/>
<path d="M0 0 C22.11 0 44.22 0 67 0 C67 7.26 67 14.52 67 22 C70.96 22 74.92 22 79 22 C79 44.11 79 66.22 79 89 C52.93 89 26.86 89 0 89 C0 59.63 0 30.26 0 0 Z " fill="#7FD5FB" transform="translate(70,364)"/>
<path d="M0 0 C12.87 0 25.74 0 39 0 C39 29.37 39 58.74 39 89 C12.93 89 -13.14 89 -40 89 C-40 76.46 -40 63.92 -40 51 C-36.7 49.02 -33.4 47.04 -30 45 C-27.59636474 42.69201625 -27.59636474 42.69201625 -26 40.125 C-25.35546875 39.16980469 -24.7109375 38.21460938 -24.046875 37.23046875 C-21.26063942 32.83666413 -21.26063942 32.83666413 -18.49926758 28.42724609 C-17.657214 27.08608201 -16.79985395 25.75442228 -15.9284668 24.43212891 C-13.50264944 20.69717538 -11.61665064 17.15439449 -10.06640625 12.97265625 C-7.8125 8 -7.8125 8 0 0 Z " fill="#7ED5FB" transform="translate(269,364)"/>
<path d="M0 0 C5.11009526 1.69655163 9.30167965 4.67132232 13.75 7.625 C15.545005 8.80425033 17.34060618 9.98259354 19.13671875 11.16015625 C20.56250244 12.09625732 20.56250244 12.09625732 22.01708984 13.05126953 C27.17711623 16.42230658 32.3694107 19.742706 37.5625 23.0625 C38.62694336 23.74328613 39.69138672 24.42407227 40.78808594 25.12548828 C47.76742034 29.58468583 54.76376323 34.01611483 61.77124023 38.4309082 C71.46071308 44.54137737 81.0989559 50.73202395 90.74316406 56.91357422 C94.01250669 59.00801216 97.28333838 61.10010388 100.5546875 63.19140625 C110.21457059 69.36732548 119.86892824 75.55067276 129.48828125 81.78955078 C138.86434652 87.86472118 148.28479942 93.87089885 157.69775391 99.88867188 C163.1952326 103.40354662 168.69145676 106.92038125 174.1875 110.4375 C175.2283374 111.10354248 176.2691748 111.76958496 177.34155273 112.45581055 C184.90073438 117.29400235 192.45443281 122.14060074 200 127 C198.32508169 131.88036541 195.63208039 135.99152948 192.875 140.3125 C192.17310547 141.42334961 192.17310547 141.42334961 191.45703125 142.55664062 C190.30835804 144.37341968 189.15467631 146.18703037 188 148 C184.33101109 146.64813764 181.20162101 144.99013337 177.921875 142.8671875 C176.93832031 142.23385498 175.95476562 141.60052246 174.94140625 140.94799805 C173.36166016 139.92186401 173.36166016 139.92186401 171.75 138.875 C170.0706915 137.79184109 168.39137855 136.70868899 166.71179199 135.6259613 C164.96786368 134.50106839 163.22509867 133.37438913 161.48242188 132.24755859 C156.00168452 128.70662633 150.49906666 125.1998644 145 121.6875 C137.42397563 116.84219884 129.86188036 111.97652612 122.31835938 107.08081055 C116.56673459 103.3538078 110.78514106 99.67470736 105 96 C98.54583038 91.90032735 92.10131863 87.78754316 85.6875 83.625 C74.49387659 76.36131176 63.24291228 69.1870517 52 62 C27.53476922 46.36055764 27.53476922 46.36055764 16.35571289 39.10498047 C6.94456086 33.00650774 -2.53191794 27.00953053 -12 21 C-10.54488901 15.63114222 -7.99676879 11.63713641 -4.875 7.125 C-4.40707031 6.43664062 -3.93914062 5.74828125 -3.45703125 5.0390625 C-2.31098303 3.35507328 -1.15635521 1.6769284 0 0 Z " fill="#C3C0D5" transform="translate(256,115)"/>
<path d="M0 0 C37.95 0 75.9 0 115 0 C115 17.49 115 34.98 115 53 C111.49019217 51.59607687 109.04723513 50.53178564 106.015625 48.5234375 C105.25701172 48.02489258 104.49839844 47.52634766 103.71679688 47.01269531 C102.90275391 46.47225586 102.08871094 45.93181641 101.25 45.375 C99.47441901 44.21023493 97.69835298 43.04620903 95.921875 41.8828125 C94.97376953 41.26051758 94.02566406 40.63822266 93.04882812 39.99707031 C87.54649263 36.39288194 82.02732114 32.81567664 76.5 29.25 C75.42008789 28.54665527 74.34017578 27.84331055 73.22753906 27.11865234 C72.21401367 26.46590332 71.20048828 25.8131543 70.15625 25.140625 C69.25712891 24.55829102 68.35800781 23.97595703 67.43164062 23.37597656 C65.22873858 22.1294348 63.47286382 21.44764881 61 21 C54.93340324 29.09981584 49.39539949 37.4447948 44 46 C43.236875 45.505 42.47375 45.01 41.6875 44.5 C39.07636249 42.75631692 39.07636249 42.75631692 36 43 C34.26724954 45.38707581 32.74762253 47.72037836 31.25 50.25 C30.81187988 50.97638672 30.37375977 51.70277344 29.92236328 52.45117188 C29.03217527 53.93037358 28.14625558 55.41215246 27.26464844 56.89648438 C26.13740467 58.771452 24.97593927 60.61559128 23.7890625 62.453125 C20.12662478 68.2831279 17.92672925 72.08336629 19 79 C19.66 80.98 20.32 82.96 21 85 C14.07 85 7.14 85 0 85 C0 56.95 0 28.9 0 0 Z " fill="#7FD6FC" transform="translate(193,85)"/>
<path d="M0 0 C89.1 0 178.2 0 270 0 C270 5.94 270 11.88 270 18 C180.9 18 91.8 18 0 18 C0 12.06 0 6.12 0 0 Z " fill="#596E81" transform="translate(54,59)"/>
<path d="M0 0 C23.76 0 47.52 0 72 0 C70.59607687 3.50980783 69.53178564 5.95276487 67.5234375 8.984375 C66.77682861 10.12072388 66.77682861 10.12072388 66.01513672 11.2800293 C65.20326904 12.50266479 65.20326904 12.50266479 64.375 13.75 C63.1970078 15.54237175 62.01996915 17.33537046 60.84375 19.12890625 C60.21984375 20.07910645 59.5959375 21.02930664 58.953125 22.00830078 C55.55661519 27.21090469 52.21774477 32.45025454 48.875 37.6875 C43.05930492 46.78912829 37.21750987 55.87284192 31.33837891 64.93359375 C29.86144486 67.21392388 28.38939147 69.49735999 26.91796875 71.78125 C26.15480347 72.96460938 26.15480347 72.96460938 25.3762207 74.171875 C24.39594903 75.69210117 23.41657886 77.21290913 22.43823242 78.734375 C19.11229188 83.88770812 19.11229188 83.88770812 18 85 C12.06 85 6.12 85 0 85 C0 56.95 0 28.9 0 0 Z " fill="#7FD6FC" transform="translate(193,271)"/>
<path d="M0 0 C9.57 0 19.14 0 29 0 C29 22.11 29 44.22 29 67 C19.43 67 9.86 67 0 67 C0 44.89 0 22.78 0 0 Z " fill="#EF869D" transform="translate(156,386)"/>
<path d="M0 0 C18.15 0 36.3 0 55 0 C55 10.23 55 20.46 55 31 C36.85 31 18.7 31 0 31 C0 20.77 0 10.54 0 0 Z " fill="#EE869D" transform="translate(345,383)"/>
<path d="M0 0 C17.82 0 35.64 0 54 0 C54 10.23 54 20.46 54 31 C36.18 31 18.36 31 0 31 C0 20.77 0 10.54 0 0 Z " fill="#F1879E" transform="translate(346,345)"/>
<path d="M0 0 C17.82 0 35.64 0 54 0 C54 9.9 54 19.8 54 30 C36.18 30 18.36 30 0 30 C0 20.1 0 10.2 0 0 Z " fill="#F3889F" transform="translate(346,422)"/>
<path d="M0 0 C17.82 0 35.64 0 54 0 C54 9.9 54 19.8 54 30 C36.18 30 18.36 30 0 30 C0 20.1 0 10.2 0 0 Z " fill="#F3889F" transform="translate(346,307)"/>
<path d="M0 0 C2.31 0 4.62 0 7 0 C7.30292969 0.80824219 7.60585938 1.61648437 7.91796875 2.44921875 C11.09596978 10.63641747 11.09596978 10.63641747 17 17 C17.721875 17.680625 18.44375 18.36125 19.1875 19.0625 C23.16397686 21.80185073 27.4820056 23.35071272 32 25 C32 27.31 32 29.62 32 32 C31.29875 32.20753906 30.5975 32.41507813 29.875 32.62890625 C21.38214329 35.38677684 14.84241692 39.02372868 10.5625 47.125 C9.27836729 50.03268375 8.39644778 52.82841772 8 56 C5.36 56 2.72 56 0 56 C-0.21914063 55.28714844 -0.43828125 54.57429688 -0.6640625 53.83984375 C-3.26836619 45.97399968 -6.23864736 40.11011351 -13.4375 35.6875 C-16.99309102 34.00327267 -20.1950133 32.93183348 -24 32 C-24 29.36 -24 26.72 -24 24 C-23.29875 23.79246094 -22.5975 23.58492187 -21.875 23.37109375 C-14.15598349 20.86451094 -7.56109054 17.89883017 -3.65625 10.4296875 C-2.65401164 7.97420353 -1.78369449 5.53261723 -1 3 C-0.67 2.01 -0.34 1.02 0 0 Z " fill="#2E4A60" transform="translate(395,51)"/>
<path d="M0 0 C0.33 0 0.66 0 1 0 C1.09796875 0.7734375 1.1959375 1.546875 1.296875 2.34375 C2.72895831 12.31895099 4.83341275 19.01782779 12.78125 25.52734375 C17.77191437 28.83980936 23.19972777 29.83994555 29 31 C29 42.55 29 54.1 29 66 C19.43 66 9.86 66 0 66 C0 44.22 0 22.44 0 0 Z " fill="#F2879E" transform="translate(193,386)"/>
<path d="M0 0 C0.33 0 0.66 0 1 0 C1 17.49 1 34.98 1 53 C-10.22 53 -21.44 53 -33 53 C-30.95811537 48.91623073 -28.69118736 45.07919968 -26.3125 41.1875 C-25.83989746 40.4135791 -25.36729492 39.6396582 -24.88037109 38.84228516 C-18.99622905 29.27655056 -12.80843779 19.90852014 -6.63769531 10.52636719 C-5.09410147 8.14516428 -3.59956609 5.73993691 -2.1171875 3.3203125 C-1.41851562 2.22460938 -0.71984375 1.12890625 0 0 Z " fill="#7ED4FA" transform="translate(307,304)"/>
<path d="M0 0 C20.13 0 40.26 0 61 0 C56.83605796 10.40985509 56.83605796 10.40985509 53 14 C48.92569089 15.23675626 45.04627907 15.0528807 40.8203125 14.87890625 C39.6524118 14.86617172 38.48451111 14.85343719 37.28121948 14.84031677 C33.56034454 14.79003636 29.84439377 14.67713885 26.125 14.5625 C23.5990289 14.51734713 21.07298115 14.47628399 18.546875 14.43945312 C12.3626935 14.34035845 6.18218072 14.1851047 0 14 C0 9.38 0 4.76 0 0 Z " fill="#D2D1DF" transform="translate(144,364)"/>
<path d="M0 0 C2.31 0 4.62 0 7 0 C7.25652344 0.67546875 7.51304687 1.3509375 7.77734375 2.046875 C9.97548027 7.16845907 11.5524964 10.35174923 16.8125 12.625 C18.19672894 13.11727065 19.58971326 13.5882823 21 14 C21 16.31 21 18.62 21 21 C20.38511719 21.24234375 19.77023437 21.4846875 19.13671875 21.734375 C13.26549561 24.16901299 10.38182674 25.79998018 7.8125 31.75 C7.544375 32.4925 7.27625 33.235 7 34 C4.69 34 2.38 34 0 34 C-0.36351562 33.18595703 -0.36351562 33.18595703 -0.734375 32.35546875 C-3.26579129 26.95186859 -5.16034351 24.2262153 -10.75 21.8125 C-11.4925 21.544375 -12.235 21.27625 -13 21 C-13 18.69 -13 16.38 -13 14 C-12.39671875 13.74347656 -11.7934375 13.48695313 -11.171875 13.22265625 C-5.27840062 10.39949191 -2.81599242 7.94312603 -0.55859375 1.79296875 C-0.37425781 1.20128906 -0.18992187 0.60960937 0 0 Z " fill="#2D495F" transform="translate(445,137)"/>
<path d="M0 0 C0.680625 0.70125 1.36125 1.4025 2.0625 2.125 C7.54314189 7.71381453 7.54314189 7.71381453 14 12 C14 12.66 14 13.32 14 14 C12.390625 15.296875 12.390625 15.296875 10.25 16.75 C6.46571046 19.47415169 4.30167638 21.97206634 2 26 C-1.41056269 24.86314577 -2.19934165 23.84668031 -4.4375 21.125 C-6.27778615 18.89360158 -7.8860263 17.0837276 -10.22265625 15.3671875 C-10.80917969 14.91601562 -11.39570313 14.46484375 -12 14 C-12 13.34 -12 12.68 -12 12 C-10.390625 10.703125 -10.390625 10.703125 -8.25 9.25 C-4.46571046 6.52584831 -2.30167638 4.02793366 0 0 Z " fill="#F8D876" transform="translate(398,66)"/>
<path d="M0 0 C1.32 1.98 2.64 3.96 4 6 C-2.27 12.27 -8.54 18.54 -15 25 C-16.98 23.35 -18.96 21.7 -21 20 C-17.0060348 15.09312847 -12.6959047 10.55729437 -8.25 6.0625 C-7.67096924 5.47057861 -7.09193848 4.87865723 -6.49536133 4.26879883 C-2.2365407 0 -2.2365407 0 0 0 Z " fill="#F7FCFE" transform="translate(139,125)"/>
<path d="M0 0 C4 2 4 2 6 6 C0.06 11.94 -5.88 17.88 -12 24 C-16 22 -16 22 -18 18 C-12.06 12.06 -6.12 6.12 0 0 Z " fill="#F7FCFE" transform="translate(131,292)"/>
<path d="M0 0 C1.8203125 1.09375 1.8203125 1.09375 4.8203125 5.09375 C-1.4496875 11.36375 -7.7196875 17.63375 -14.1796875 24.09375 C-16.1596875 22.44375 -18.1396875 20.79375 -20.1796875 19.09375 C-16.33995188 14.4007398 -12.26071854 9.95830623 -8.0546875 5.59375 C-7.2827002 4.76472168 -7.2827002 4.76472168 -6.49511719 3.91894531 C-2.77733668 0.11945534 -2.77733668 0.11945534 0 0 Z " fill="#F8FCFE" transform="translate(261.1796875,218.90625)"/>
<path d="M0 0 C3.16115776 1.36983503 3.9927092 1.9890638 6 5 C-0.27 11.27 -6.54 17.54 -13 24 C-14.65 22.68 -16.3 21.36 -18 20 C-16.5735422 16.7413364 -14.83295838 14.5975146 -12.3046875 12.109375 C-11.23154297 11.04589844 -11.23154297 11.04589844 -10.13671875 9.9609375 C-9.39035156 9.23132813 -8.64398438 8.50171875 -7.875 7.75 C-7.12089844 7.00492187 -6.36679688 6.25984375 -5.58984375 5.4921875 C-3.73099228 3.6568658 -1.86762995 1.8263809 0 0 Z " fill="#FDFEFF" transform="translate(137,312)"/>
<path d="M0 0 C3.16115776 1.36983503 3.9927092 1.9890638 6 5 C-0.27 11.27 -6.54 17.54 -13 24 C-14.65 22.68 -16.3 21.36 -18 20 C-16.5735422 16.7413364 -14.83295838 14.5975146 -12.3046875 12.109375 C-11.23154297 11.04589844 -11.23154297 11.04589844 -10.13671875 9.9609375 C-9.39035156 9.23132813 -8.64398438 8.50171875 -7.875 7.75 C-7.12089844 7.00492188 -6.36679688 6.25984375 -5.58984375 5.4921875 C-3.73099228 3.6568658 -1.86762995 1.8263809 0 0 Z " fill="#FDFEFF" transform="translate(137,219)"/>
<path d="M0 0 C3.16115776 1.36983503 3.9927092 1.9890638 6 5 C-0.27 11.27 -6.54 17.54 -13 24 C-14.65 22.68 -16.3 21.36 -18 20 C-16.5735422 16.7413364 -14.83295838 14.5975146 -12.3046875 12.109375 C-11.23154297 11.04589844 -11.23154297 11.04589844 -10.13671875 9.9609375 C-9.39035156 9.23132813 -8.64398438 8.50171875 -7.875 7.75 C-7.12089844 7.00492188 -6.36679688 6.25984375 -5.58984375 5.4921875 C-3.73099228 3.6568658 -1.86762995 1.8263809 0 0 Z " fill="#FDFEFE" transform="translate(254,199)"/>
<path d="M0 0 C3.16115776 1.36983503 3.9927092 1.9890638 6 5 C-0.27 11.27 -6.54 17.54 -13 24 C-14.65 22.68 -16.3 21.36 -18 20 C-16.5735422 16.7413364 -14.83295838 14.5975146 -12.3046875 12.109375 C-11.23154297 11.04589844 -11.23154297 11.04589844 -10.13671875 9.9609375 C-9.39035156 9.23132813 -8.64398438 8.50171875 -7.875 7.75 C-7.12089844 7.00492188 -6.36679688 6.25984375 -5.58984375 5.4921875 C-3.73099228 3.6568658 -1.86762995 1.8263809 0 0 Z " fill="#FDFEFF" transform="translate(131,199)"/>
<path d="M0 0 C3.16115776 1.36983503 3.9927092 1.9890638 6 5 C-0.27 11.27 -6.54 17.54 -13 24 C-14.65 22.68 -16.3 21.36 -18 20 C-16.5735422 16.7413364 -14.83295838 14.5975146 -12.3046875 12.109375 C-11.23154297 11.04589844 -11.23154297 11.04589844 -10.13671875 9.9609375 C-9.39035156 9.23132813 -8.64398438 8.50171875 -7.875 7.75 C-7.12089844 7.00492187 -6.36679688 6.25984375 -5.58984375 5.4921875 C-3.73099228 3.6568658 -1.86762995 1.8263809 0 0 Z " fill="#FDFEFF" transform="translate(131,106)"/>
<path d="M0 0 C1.65 1.65 3.3 3.3 5 5 C4.01 5.99 3.02 6.98 2 8 C0.68 7.34 -0.64 6.68 -2 6 C-2 2 -2 2 0 0 Z " fill="#E8CD74" transform="translate(448,150)"/>
</svg>
