<?xml version="1.0" encoding="UTF-8"?>
<svg xmlns="http://www.w3.org/2000/svg" xmlns:xlink="http://www.w3.org/1999/xlink" width="24pt" height="24pt" viewBox="0 0 24 24" version="1.1">
<g id="surface1">
<path style=" stroke:none;fill-rule:nonzero;fill:#6200EE;fill-opacity:1;" d="M 6 16 L 4 16 L 4 3 L 21 3 L 21 9 L 19 9 L 19 5 L 6 5 Z "/>
<path style=" stroke:none;fill-rule:nonzero;fill:#6200EE;fill-opacity:1;" d="M 8 7 L 10 7 L 10 9 L 8 9 Z "/>
<path style=" stroke:none;fill-rule:nonzero;fill:#6200EE;fill-opacity:1;" d="M 12 7 L 17 7 L 17 9 L 12 9 Z "/>
<path style=" stroke:none;fill-rule:nonzero;fill:#6200EE;fill-opacity:1;" d="M 8 11 L 10 11 L 10 13 L 8 13 Z "/>
<path style=" stroke:none;fill-rule:nonzero;fill:#6200EE;fill-opacity:1;" d="M 15 11 L 24 11 L 24 13 L 15 13 Z "/>
<path style=" stroke:none;fill-rule:nonzero;fill:#6200EE;fill-opacity:1;" d="M 15 21 L 24 21 L 24 23 L 15 23 Z "/>
<path style=" stroke:none;fill-rule:nonzero;fill:#6200EE;fill-opacity:1;" d="M 19.5 18.398438 L 16 14.898438 L 16 12 L 18 12 L 18 14.101563 L 19.5 15.601563 L 21 14.101563 L 21 12 L 23 12 L 23 14.898438 Z "/>
<path style=" stroke:none;fill-rule:nonzero;fill:#6200EE;fill-opacity:1;" d="M 23 22 L 21 22 L 21 19.898438 L 19.5 18.398438 L 18 19.898438 L 18 22 L 16 22 L 16 19.101563 L 19.5 15.601563 L 23 19.101563 Z "/>
<path style=" stroke:none;fill-rule:nonzero;fill:#6200EE;fill-opacity:0.301961;" d="M 17 12 L 17 14.5 L 19.5 17 L 22 14.5 L 22 12 Z "/>
<path style=" stroke:none;fill-rule:nonzero;fill:#6200EE;fill-opacity:0.301961;" d="M 17 22 L 17 19.5 L 19.5 17 L 22 19.5 L 22 22 Z "/>
<path style=" stroke:none;fill-rule:nonzero;fill:#6200EE;fill-opacity:1;" d="M 4 18 L 4 17 L 15 17 L 13 15 L 2 15 L 2 18 C 2 19.699219 3.300781 21 5 21 L 13 21 L 13 19 L 5 19 C 4.398438 19 4 18.601563 4 18 Z "/>
<path style=" stroke:none;fill-rule:nonzero;fill:#6200EE;fill-opacity:0.301961;" d="M 13 20 L 3 20 L 3 16 L 13 16 L 15 17 L 13 19 Z "/>
</g>
</svg>
