<?xml version="1.0" encoding="UTF-8"?>
<svg version="1.1" xmlns="http://www.w3.org/2000/svg" width="512" height="512">
<path d="M0 0 C1.21562261 -0.00525911 1.21562261 -0.00525911 2.45580325 -0.01062447 C5.18266079 -0.01995904 7.90930574 -0.01500985 10.63617229 -0.01015663 C12.60644238 -0.01389185 14.57671098 -0.01849286 16.54697722 -0.02388728 C21.97020477 -0.0361485 27.39337077 -0.03585314 32.81660903 -0.03349853 C38.66200093 -0.03309115 44.50737289 -0.04412193 50.35275555 -0.05361366 C61.80830026 -0.07024166 73.2638244 -0.07572402 84.71938018 -0.07683842 C94.02888347 -0.07778802 103.33837996 -0.08189393 112.64788151 -0.08823967 C115.32686652 -0.09003474 118.00585154 -0.09181436 120.68483657 -0.09358943 C121.35082624 -0.09403152 122.01681592 -0.09447362 122.7029871 -0.09492911 C141.43817291 -0.10723892 160.17335641 -0.1151301 178.90854645 -0.11424255 C179.61502182 -0.1142114 180.3214972 -0.11418024 181.04938092 -0.11414814 C184.63015365 -0.11398192 188.21092637 -0.11378384 191.79169909 -0.11357872 C192.50286297 -0.11353883 193.21402685 -0.11349894 193.94674116 -0.11345784 C195.38488813 -0.11337697 196.8230351 -0.11329337 198.26118208 -0.11320706 C220.63731869 -0.1119815 243.0133947 -0.12699505 265.38951397 -0.15435219 C290.52464772 -0.18506979 315.65974164 -0.20228488 340.79489535 -0.20042574 C354.10506989 -0.19968441 367.41518031 -0.20528478 380.72533894 -0.22678185 C392.05716278 -0.24496611 403.38888728 -0.24936363 414.72071937 -0.235763 C420.50395073 -0.22921951 426.28699136 -0.22916605 432.07020473 -0.2464695 C437.36336733 -0.26214404 442.65618708 -0.25939406 447.94934102 -0.24190123 C449.8652043 -0.23881894 451.7810928 -0.24250973 453.69692633 -0.25362138 C456.30052816 -0.26772306 458.9029242 -0.25717185 461.50648499 -0.24050903 C462.25091676 -0.25044539 462.99534853 -0.26038175 463.76233885 -0.27061921 C470.20254594 -0.18343445 475.33607725 1.97367787 480.1841917 6.22211266 C480.72301983 6.87308922 481.26184795 7.52406578 481.8170042 8.19476891 C482.37130108 8.84316734 482.92559795 9.49156578 483.4966917 10.15961266 C486.32465953 14.26398758 487.19201173 17.86969697 487.19927311 22.8164854 C487.205722 23.92922685 487.21217089 25.04196829 487.21881521 26.18842918 C487.215718 27.40572957 487.2126208 28.62302996 487.20942974 29.87721825 C487.21396085 31.17441549 487.21849197 32.47161274 487.22316039 33.808119 C487.23539618 37.40710341 487.23512925 41.0059949 487.23277164 44.60499537 C487.23236361 48.48718361 487.24340122 52.369342 487.25288677 56.25151634 C487.26950097 63.8569078 487.27499651 71.46226826 487.27611153 79.06767634 C487.27706181 85.24979709 487.28117114 91.43190761 487.28751278 97.61402512 C487.30512642 115.14129829 487.31435147 132.66854698 487.31285183 150.19582907 C487.31273196 151.61323276 487.31273196 151.61323276 487.31260967 153.05927086 C487.31252791 154.00536037 487.31244615 154.95144987 487.31236191 155.92620876 C487.311549 171.25912933 487.33068761 186.59195167 487.35888641 201.92484383 C487.38761195 217.66838052 487.40142688 233.41186931 487.39969885 249.15543288 C487.39903483 257.99431454 487.4045324 266.83309323 487.42605495 275.67195129 C487.44426243 283.19761908 487.44861769 290.72313721 487.43503611 298.24881748 C487.42850419 302.08782825 487.42839705 305.92655187 487.44574261 309.76553535 C487.46436225 313.92936396 487.45192475 318.0925272 487.43648052 322.25636864 C487.44676765 323.46697686 487.45705477 324.67758509 487.46765363 325.92487842 C487.40235584 333.88026493 486.36771304 339.34801071 480.97716045 345.49945641 C480.32618389 346.03828453 479.67520733 346.57711266 479.0045042 347.13226891 C478.35610577 347.68656578 477.70770733 348.24086266 477.03966045 348.81195641 C472.18380849 352.1577017 467.91109659 352.52611714 462.1295042 352.38226891 C461.43663311 352.37324547 460.74376202 352.36422203 460.02989483 352.35492516 C458.33378025 352.33153047 456.6378455 352.29566531 454.9420042 352.25726891 C454.98841045 353.24726891 455.0348167 354.23726891 455.0826292 355.25726891 C455.5628289 369.61960535 455.5628289 369.61960535 450.9420042 375.25726891 C446.1878799 380.23967057 441.80913779 383.90557697 434.74742413 384.54779625 C431.56052479 384.58827725 428.37407256 384.62863641 425.18687725 384.62787437 C423.14541134 384.63223493 421.1061334 384.66855756 419.06505108 384.70648766 C410.27935181 384.73251936 404.47797298 384.23216837 397.6998167 378.29242516 C397.16098858 377.64144859 396.62216045 376.99047203 396.0670042 376.31976891 C395.51270733 375.67137047 394.95841045 375.02297203 394.3873167 374.35492516 C389.24328063 366.88912145 390.9420042 362.31387957 390.9420042 352.25726891 C285.3420042 352.25726891 179.7420042 352.25726891 70.9420042 352.25726891 C70.9420042 357.20726891 70.9420042 362.15726891 70.9420042 367.25726891 C68.69070469 374.01116746 64.79991661 378.2210909 58.9420042 382.25726891 C53.20287012 385.03672571 47.44753628 384.62937124 41.18687725 384.62787437 C39.14541134 384.63223493 37.1061334 384.66855756 35.06505108 384.70648766 C26.27935181 384.73251936 20.47797298 384.23216837 13.6998167 378.29242516 C13.16098858 377.64144859 12.62216045 376.99047203 12.0670042 376.31976891 C11.51270733 375.67137047 10.95841045 375.02297203 10.3873167 374.35492516 C7.04157141 369.4990732 6.67315597 365.22636129 6.8170042 359.44476891 C6.82602764 358.75189781 6.83505108 358.05902672 6.84434795 357.34515953 C6.86774264 355.64904495 6.9036078 353.9531102 6.9420042 352.25726891 C5.9520042 352.30367516 4.9620042 352.35008141 3.9420042 352.39789391 C-10.42033224 352.8780936 -10.42033224 352.8780936 -16.0579958 348.25726891 C-20.79077205 343.741333 -24.66765373 339.34709093 -25.31099546 332.60645646 C-25.31240431 331.64668312 -25.31381316 330.68690978 -25.3152647 329.69805241 C-25.32171359 328.58531096 -25.32816249 327.47256952 -25.3348068 326.32610863 C-25.3317096 325.10880824 -25.32861239 323.89150785 -25.32542133 322.63731956 C-25.32995245 321.34012232 -25.33448356 320.04292507 -25.33915198 318.70641881 C-25.35138777 315.1074344 -25.35112084 311.50854291 -25.34876323 307.90954244 C-25.34835521 304.0273542 -25.35939281 300.14519581 -25.36887836 296.26302147 C-25.38549256 288.65763001 -25.3909881 281.05226955 -25.39210312 273.44686147 C-25.39305341 267.26474072 -25.39716273 261.08263021 -25.40350437 254.9005127 C-25.42111801 237.37323952 -25.43034306 219.84599083 -25.42884342 202.31870874 C-25.42876351 201.37377295 -25.4286836 200.42883716 -25.42860126 199.45526695 C-25.4285195 198.50917745 -25.42843774 197.56308794 -25.4283535 196.58832905 C-25.42754059 181.25540848 -25.44667921 165.92258614 -25.474878 150.58969399 C-25.50360354 134.84615729 -25.51741847 119.1026685 -25.51569045 103.35910493 C-25.51502642 94.52022327 -25.52052399 85.68144458 -25.54204655 76.84258652 C-25.56025403 69.31691873 -25.56460928 61.7914006 -25.5510277 54.26572033 C-25.54449578 50.42670956 -25.54438864 46.58798594 -25.5617342 42.74900246 C-25.58035384 38.58517385 -25.56791634 34.42201061 -25.55247211 30.25816917 C-25.56275924 29.04756095 -25.57304637 27.83695272 -25.58364522 26.58965939 C-25.51834744 18.63427288 -24.48370464 13.16652711 -19.09315205 7.01508141 C-18.44217548 6.47625328 -17.79119892 5.93742516 -17.1204958 5.38226891 C-16.47209736 4.82797203 -15.82369892 4.27367516 -15.15565205 3.70258141 C-10.27781394 0.34168737 -5.79544112 -0.03170243 0 0 Z " fill="#15181A" transform="translate(25.057995796203613,63.74273109436035)"/>
<path d="M0 0 C43.99323386 -0.06862987 87.98646206 -0.12151035 131.97973887 -0.15319599 C137.17065608 -0.15694822 142.36157318 -0.16083117 147.55249023 -0.16479492 C149.10265197 -0.16597532 149.10265197 -0.16597532 150.68413011 -0.16717956 C167.42907218 -0.18024221 184.17398342 -0.20390078 200.91890719 -0.23145839 C218.09398788 -0.2594887 235.26905241 -0.27617123 252.44415504 -0.28226548 C263.0466214 -0.28638686 273.64900065 -0.29941533 284.2514402 -0.3237494 C291.51671683 -0.33957729 298.78194825 -0.34440706 306.04724088 -0.34050413 C310.24224708 -0.33857798 314.43710081 -0.34158139 318.63208008 -0.35761642 C322.47081691 -0.37218295 326.30929828 -0.37297365 330.14804671 -0.36269668 C331.53844116 -0.36142596 332.92885135 -0.36525912 334.31921466 -0.37464955 C336.20648935 -0.38665727 338.09386055 -0.37842012 339.98115063 -0.36914349 C341.0303179 -0.37028265 342.07948517 -0.37142181 343.16044539 -0.37259549 C346.45112759 0.05919524 348.33738274 1.04908759 351 3 C352.24300921 5.48601842 352.12421189 7.13358436 352.12304783 9.91568947 C352.12503888 10.96120684 352.12702993 12.00672422 352.12908131 13.08392394 C352.12616847 14.24149179 352.12325563 15.39905965 352.12025452 16.59170532 C352.12153615 18.42574183 352.12153615 18.42574183 352.12284368 20.29682958 C352.12421046 23.70140272 352.12106829 27.1059189 352.11606562 30.51048517 C352.11176034 34.17783262 352.1132076 37.8451782 352.1139679 41.51252747 C352.11449308 47.87003626 352.11134684 54.22753482 352.10573006 60.58504105 C352.09761433 69.77700751 352.09499976 78.96896901 352.09374207 88.16093867 C352.09155166 103.07311556 352.08489189 117.985287 352.07543945 132.89746094 C352.06626504 147.38606743 352.05918435 161.87467244 352.05493164 176.36328125 C352.05453756 177.7021606 352.05453756 177.7021606 352.05413551 179.06808801 C352.0528305 183.54578404 352.05156679 188.02348007 352.05032361 192.50117612 C352.03995135 229.66745476 352.02205877 266.8337266 352 304 C340.78 304 329.56 304 318 304 C320 302 320 302 323.25 300.3125 C328.22762159 297.51713422 331.89702334 293.7031656 334.06298447 288.39484692 C335.1536438 284.44334202 335.27785805 280.76849919 335.25396729 276.70588684 C335.25708727 275.88616652 335.26020725 275.06644619 335.26342177 274.22188586 C335.27137971 271.48354346 335.26508681 268.74542401 335.25878906 266.00708008 C335.26149984 264.04064301 335.26506126 262.07420696 335.26940918 260.10777283 C335.27852332 254.77336073 335.27499339 249.43902603 335.26865101 244.10461259 C335.26358814 238.52462953 335.26828306 232.94465311 335.27142334 227.3646698 C335.27506123 217.99741424 335.27026755 208.63019022 335.26074219 199.26293945 C335.24984846 188.4246979 335.2533906 177.58653154 335.264395 166.74829179 C335.27346154 157.4471328 335.27475654 148.14599648 335.26951766 138.84483451 C335.2663957 133.28753818 335.26599502 127.73027724 335.27259064 122.17298317 C335.27835459 116.95190331 335.27438468 111.73092077 335.26280212 106.50985146 C335.26015085 104.59055239 335.26092856 102.67124517 335.26532745 100.75194931 C335.27076568 98.13890855 335.26396995 95.52618274 335.25396729 92.91316223 C335.25842873 92.14780382 335.26289017 91.3824454 335.26748681 90.5938943 C335.23952741 86.84692862 335.13347069 85.20020604 333 82 C328.9906885 80.93551399 328.9906885 80.93551399 325 81 C322.51018943 83.01576816 321.16259792 84.24269488 320.48101807 87.41717529 C320.47213562 88.31430237 320.46325317 89.21142944 320.45410156 90.13574219 C320.43428223 91.17069824 320.41446289 92.2056543 320.39404297 93.27197266 C320.39291504 94.35269043 320.39178711 95.4334082 320.390625 96.546875 C320.36718018 98.04468506 320.36718018 98.04468506 320.34326172 99.57275391 C320.29071019 103.29826167 320.27240333 107.02418897 320.25 110.75 C320.1675 119.0825 320.085 127.415 320 136 C301.19 136 282.38 136 263 136 C263.03480469 126.19861328 263.03480469 126.19861328 263.0703125 116.19921875 C263.08052857 112.06575125 263.09015629 107.93229926 263.09765625 103.79882812 C263.10962332 97.2344236 263.1237978 90.67007473 263.15087891 84.10571289 C263.17257017 78.81486716 263.18456079 73.5240811 263.18975449 68.23319435 C263.19345693 66.21212639 263.20068664 64.19106179 263.21146011 62.17001915 C263.2259256 59.34463759 263.22798001 56.51950428 263.22705078 53.6940918 C263.23424133 52.85396042 263.24143188 52.01382904 263.24884033 51.14823914 C263.23489311 47.24301568 263.21654725 45.32482088 261 42 C258.26621127 41.08873709 256.6462035 40.8691516 253.83180237 40.85282898 C252.98362946 40.84567368 252.13545654 40.83851837 251.26158142 40.83114624 C249.87054955 40.82711288 249.87054955 40.82711288 248.45141602 40.82299805 C247.47229248 40.81642685 246.49316895 40.80985565 245.484375 40.80308533 C242.24088467 40.78335659 238.99744055 40.77169266 235.75390625 40.76171875 C234.64736128 40.75764322 233.54081631 40.7535677 232.40073967 40.74936867 C226.54767925 40.72851302 220.69464227 40.71420724 214.84155273 40.70483398 C208.78733118 40.69375088 202.73347528 40.65932743 196.67938328 40.61966228 C192.0306071 40.59356416 187.3819191 40.58514836 182.7330761 40.58155251 C180.5006964 40.5766715 178.26832102 40.56501477 176.03601265 40.54651451 C172.91636929 40.52226081 169.79768657 40.52306266 166.67797852 40.5300293 C165.75264816 40.51721924 164.82731781 40.50440918 163.87394714 40.49121094 C158.81886033 40.51524442 158.81886033 40.51524442 154.40489197 42.79060364 C152.62627737 45.58773303 152.63756369 47.69722189 153.23046875 50.92675781 C154.66049632 54.77948437 157.49514584 57.18275275 160.5 59.875 C161.69957561 60.99562265 162.89757143 62.11793949 164.09375 63.2421875 C164.62677734 63.7254248 165.15980469 64.20866211 165.70898438 64.70654297 C168.61195678 67.61500511 168.15443246 70.52891324 168.20532227 74.46923828 C168.22037135 75.48064282 168.22037135 75.48064282 168.23572445 76.51247978 C168.26714486 78.69838889 168.29189508 80.88431612 168.31640625 83.0703125 C168.33480644 84.41854448 168.35364294 85.76677058 168.3729248 87.11499023 C168.44141026 92.11825716 168.50143884 97.12163696 168.5625 102.125 C168.7790625 118.893125 168.7790625 118.893125 169 136 C144.91 136 120.82 136 96 136 C95.79945595 111.4935175 95.79945595 111.4935175 95.75585938 101.05273438 C95.72596209 93.92648726 95.69058217 86.80056115 95.62280273 79.67456055 C95.56850265 73.9298062 95.53858332 68.18539605 95.52561378 62.44040489 C95.51637042 60.24789701 95.49832029 58.05540812 95.47134972 55.86304665 C95.43508696 52.79345521 95.43005362 49.72528852 95.43237305 46.65551758 C95.41439667 45.74777084 95.39642029 44.84002411 95.37789917 43.9047699 C95.38820915 42.64495804 95.38820915 42.64495804 95.39872742 41.35969543 C95.39411845 40.63424436 95.38950949 39.90879328 95.38476086 39.16135883 C96.39002302 35.6298341 98.09468394 34.1915081 101 32 C104.08363834 31.50797591 106.61223356 31.32291923 109.69189453 31.36508179 C110.56651903 31.35728183 111.44114353 31.34948188 112.3422718 31.34144557 C115.27288057 31.32150244 118.20219411 31.3372992 121.1328125 31.35302734 C123.23379271 31.34625227 125.33476698 31.33734975 127.43572998 31.32647705 C133.14234703 31.30366433 138.84851259 31.31252843 144.55513763 31.32837248 C150.52391283 31.34102112 156.49264908 31.32929424 162.46142578 31.32144165 C172.48542225 31.3123421 182.5092346 31.32434115 192.53320312 31.34814453 C204.12642993 31.37535623 215.71921709 31.3665423 227.31243324 31.3390125 C237.26161274 31.31633127 247.2106598 31.31311658 257.1598568 31.32620585 C263.1040607 31.33400572 269.04805787 31.33502704 274.99224854 31.31852341 C280.58038183 31.30409242 286.16794767 31.31407583 291.75601959 31.34299469 C293.80831204 31.34961276 295.86065215 31.34769558 297.91292572 31.33668137 C300.71196621 31.32304301 303.5091817 31.34012082 306.30810547 31.36508179 C307.1227936 31.35392818 307.93748173 31.34277457 308.77685738 31.33128297 C312.86816789 31.40219114 314.75950158 31.80884385 318.00401306 34.38768959 C320.17145239 37.22439368 320.62408433 38.43142775 320.63671875 41.94140625 C320.65669922 42.85470703 320.67667969 43.76800781 320.69726562 44.70898438 C320.69404297 45.65064453 320.69082031 46.59230469 320.6875 47.5625 C320.70412787 49.4388915 320.72857083 51.31523388 320.76171875 53.19140625 C320.76131592 54.01842041 320.76091309 54.84543457 320.76049805 55.69750977 C321.0290827 58.27959122 321.53755236 59.85513649 323 62 C326.46821241 62.89916618 328.92654257 63.33898656 332.375 62.25 C334.309697 61.00281178 334.309697 61.00281178 335 58 C335.28497103 54.10906445 335.27769747 50.21270363 335.3125 46.3125 C335.35600586 44.71631836 335.35600586 44.71631836 335.40039062 43.08789062 C335.46399088 35.16721211 334.2478597 29.84385869 329.10546875 23.7578125 C328.15607422 22.94957031 328.15607422 22.94957031 327.1875 22.125 C326.56230469 21.57070312 325.93710937 21.01640625 325.29296875 20.4453125 C319.55586489 16.82908009 313.50956073 16.70781719 306.93592834 16.73257446 C306.04537748 16.72804335 305.15482662 16.72351224 304.23728937 16.71884382 C301.26499178 16.70622348 298.29287799 16.70781865 295.32055664 16.70947266 C293.18474594 16.70348603 291.04893741 16.69668018 288.91313171 16.68911743 C283.11979381 16.67146636 277.32651501 16.66676249 271.53315282 16.66548586 C267.91265897 16.66406348 264.29218011 16.65979229 260.67168999 16.65449142 C248.0383598 16.63599586 235.40507179 16.62782044 222.77172852 16.62939453 C210.99909351 16.6305966 199.22664164 16.60948006 187.45405298 16.5779072 C177.34175983 16.55175428 167.22952655 16.54102679 157.11719984 16.54230535 C151.0795993 16.54281516 145.04216163 16.53712076 139.0045948 16.51594925 C133.32706825 16.49658298 127.64986026 16.49643159 121.97232246 16.51098251 C119.89063553 16.51307352 117.80892872 16.50835241 115.72727585 16.4962616 C112.88149523 16.48080498 110.03681259 16.49012012 107.1910553 16.50552368 C106.37090614 16.49523656 105.55075698 16.48494943 104.70575482 16.47435057 C98.00374264 16.55430262 92.81991649 18.52888851 87.7578125 22.96484375 C87.21898437 23.61582031 86.68015625 24.26679687 86.125 24.9375 C85.57070312 25.58589844 85.01640625 26.23429687 84.4453125 26.90234375 C80.62510506 32.44680698 80.70831226 37.53623181 80.7215271 44.05427551 C80.7157347 45.07535217 80.7099423 46.09642884 80.70397437 47.14844722 C80.68695278 50.57401297 80.68409597 53.99944418 80.68115234 57.42504883 C80.67185567 59.87896048 80.66168739 62.33286897 80.65071106 64.78677368 C80.62903423 70.0719956 80.61342885 75.35718217 80.60334396 80.64243507 C80.58875248 88.2839941 80.56321435 95.92548576 80.53501268 103.56700524 C80.48955322 115.96514386 80.45293491 128.36329217 80.421875 140.76147461 C80.39168599 152.80446069 80.35733411 164.84742304 80.31738281 176.89038086 C80.31492126 177.63282914 80.31245972 178.37527742 80.30992357 179.14022414 C80.2975489 182.86490494 80.28509238 186.58958546 80.27259517 190.31426585 C80.16904003 221.20947836 80.07997988 252.10471703 80 283 C76.62369826 281.56554407 73.24920041 280.12689105 69.875 278.6875 C68.44800781 278.08131836 68.44800781 278.08131836 66.9921875 277.46289062 C62.25193377 275.43840726 57.57339238 273.37908796 53 271 C54.30264453 266.70127306 56.51151482 264.10680337 59.5625 260.94140625 C63.91401825 255.06449166 63.29618424 248.12003295 63.29052734 241.15478516 C63.29724457 239.96707016 63.30396179 238.77935516 63.31088257 237.5556488 C63.32659168 234.30966257 63.33323559 231.06383018 63.33451414 227.81781054 C63.33593931 225.78648193 63.34021579 223.75517987 63.34550858 221.72385788 C63.36399009 214.62773699 63.37218147 207.53169104 63.37060547 200.43554688 C63.36940428 193.83598767 63.39050669 187.2367556 63.4220928 180.63727915 C63.44829919 174.9580837 63.45897096 169.27899484 63.45769465 163.59973943 C63.45718633 160.21355821 63.46279686 156.82766802 63.48405075 153.44154739 C63.50367442 149.66209095 63.49788589 145.88347424 63.48583984 142.10400391 C63.49707886 140.99205154 63.50831787 139.88009918 63.51989746 138.73445129 C63.45760665 131.03241253 62.1969002 125.78354787 57.10546875 119.7578125 C50.68766886 114.29418652 44.91901929 112.46527675 36.484375 112.6953125 C29.29420031 113.57712638 24.84647776 117.57894904 20.40625 123.05859375 C17.73381015 126.74804543 17.04392365 129.31918342 16.75 133.875 C16.32474044 138.20937633 14.40550973 140.35800478 11.375 143.359375 C8.99078776 146.2041737 8.87590706 149.40411075 8.84178162 153.01165771 C8.82709839 154.19368019 8.82709839 154.19368019 8.81211853 155.39958191 C8.80636307 156.25481949 8.8006076 157.11005707 8.79467773 157.99121094 C8.77982834 159.35271019 8.77982834 159.35271019 8.76467896 160.74171448 C8.73311371 163.73924153 8.70832614 166.73678443 8.68359375 169.734375 C8.66301993 171.81374522 8.64202334 173.89311129 8.62062073 175.97247314 C8.56544428 181.44358972 8.51601544 186.91474376 8.46777344 192.38592529 C8.41752612 197.96955701 8.36185691 203.55313435 8.30664062 209.13671875 C8.19911318 220.09109938 8.09765615 231.04552723 8 242 C4 239 -0 236 -4 233 C-3.690625 232.401875 -3.38125 231.80375 -3.0625 231.1875 C-0.77416991 226.47623218 -0.84754095 222.18580038 -0.84178162 217.05940247 C-0.83684364 216.13395636 -0.83190566 215.20851025 -0.82681805 214.25502032 C-0.81140912 211.14112543 -0.80307323 208.02725121 -0.79467773 204.91333008 C-0.78510188 202.68631304 -0.77509197 200.45929783 -0.76467896 198.23228455 C-0.73759213 192.17481581 -0.71660302 186.11733926 -0.69667697 180.0598433 C-0.6748407 173.73370318 -0.64744049 167.40758728 -0.62062073 161.08146667 C-0.57634307 150.4596762 -0.53551322 139.83787807 -0.49731445 129.21606445 C-0.45795807 118.27497386 -0.4165315 107.33389434 -0.37231445 96.39282227 C-0.36959018 95.71854944 -0.36686591 95.04427661 -0.36405908 94.34957127 C-0.35037958 90.96698293 -0.33665931 87.58439476 -0.32291877 84.20180666 C-0.2089585 56.13456084 -0.10222144 28.06729085 0 0 Z " fill="#79828A" transform="translate(144,80)"/>
<path d="M0 0 C1.04436218 -0.00073013 2.08872437 -0.00146027 3.16473389 -0.00221252 C6.61189968 0.00126702 10.05770932 0.04014783 13.50463867 0.0793457 C15.89645143 0.08867246 18.28827376 0.09578922 20.68009949 0.1007843 C26.97185694 0.11986456 33.26303623 0.16897543 39.55456543 0.2243042 C45.97599466 0.27547379 52.39751741 0.29829353 58.8190918 0.32348633 C71.41634351 0.37709215 84.0131947 0.4614557 96.61010742 0.56762695 C96.61507264 2.30921144 96.61507264 2.30921144 96.62013817 4.08597946 C96.69912581 31.63621358 96.78833427 59.18639914 96.89015903 86.73655872 C96.90267817 90.1262114 96.9151109 93.51586439 96.92749023 96.90551758 C96.92995623 97.58034727 96.93242222 98.25517697 96.93496294 98.95045605 C96.97470569 109.88263652 97.00744631 120.81482735 97.03760724 131.74703798 C97.06870196 142.96133089 97.10745126 154.17557962 97.15289748 165.38982511 C97.17818572 171.69002414 97.19996014 177.9901919 97.21345139 184.29042816 C97.22625061 190.21649742 97.2482819 196.14245959 97.27749062 202.06847 C97.28658314 204.24695556 97.29226051 206.42545838 97.29432106 208.60396194 C97.29763175 211.57168886 97.31307693 214.53910996 97.33163452 217.5067749 C97.32873242 218.80832933 97.32873242 218.80832933 97.32577169 220.13617778 C97.33323718 220.93138937 97.34070267 221.72660097 97.34839439 222.54590988 C97.35067272 223.23092536 97.35295104 223.91594083 97.3552984 224.62171435 C97.67519356 227.06467345 98.20233266 228.5326146 99.61010742 230.56762695 C101.26010742 231.22762695 102.91010742 231.88762695 104.61010742 232.56762695 C104.61010742 237.84762695 104.61010742 243.12762695 104.61010742 248.56762695 C102.63010742 249.55762695 100.65010742 250.54762695 98.61010742 251.56762695 C97.19880239 254.39023702 97.44616416 256.78844179 97.40478516 259.94506836 C97.39488556 260.59884964 97.38498596 261.25263092 97.37478638 261.92622375 C97.34316031 264.09050862 97.3184097 266.25481546 97.29370117 268.41918945 C97.27313259 269.9184934 97.25213614 271.41779154 97.23072815 272.91708374 C97.17549754 276.86587827 97.12609267 280.81472521 97.07788086 284.76361084 C97.02767303 288.79208041 96.97198323 292.82047373 96.91674805 296.84887695 C96.80915439 304.75506251 96.70771213 312.6613118 96.61010742 320.56762695 C82.72816043 320.63771 68.84624088 320.69041218 54.96415329 320.72306347 C48.51843895 320.73873284 42.07284329 320.75999457 35.62719727 320.79394531 C29.40914999 320.82649303 23.191217 320.84447039 16.97309113 320.85225868 C14.59837291 320.85781041 12.22366108 320.86865129 9.84899139 320.88481712 C6.52801392 320.90653003 3.20751141 320.9095964 -0.11352539 320.90820312 C-1.59274727 320.92438187 -1.59274727 320.92438187 -3.10185242 320.94088745 C-4.00766556 320.93676346 -4.9134787 320.93263947 -5.84674072 320.9283905 C-6.63210835 320.93115588 -7.41747597 320.93392126 -8.22664261 320.93677044 C-10.9922858 320.46483276 -12.35456092 319.47295678 -14.38989258 317.56762695 C-15.39542252 314.55103712 -15.51904466 312.5402483 -15.52690697 309.38668251 C-15.53198151 308.30742363 -15.53705605 307.22816474 -15.54228437 306.11620104 C-15.54278213 304.92604714 -15.54327988 303.73589324 -15.54379272 302.50967407 C-15.54817498 301.24882095 -15.55255723 299.98796782 -15.55707228 298.68890703 C-15.56904088 295.18225274 -15.57468686 291.67561221 -15.57925344 288.1689415 C-15.58520824 284.389713 -15.59681818 280.61050097 -15.60754395 276.83128357 C-15.63206756 267.70229488 -15.64669339 258.57330075 -15.65960401 249.44428927 C-15.66331545 246.86685069 -15.6672887 244.28941266 -15.67135668 241.71197462 C-15.69658854 225.71282264 -15.71864562 209.71366982 -15.73108482 193.71450233 C-15.7340146 190.0086428 -15.73697625 186.30278329 -15.73999023 182.59692383 C-15.74073629 181.67583192 -15.74148234 180.75474001 -15.74225099 179.80573623 C-15.75491263 164.87480377 -15.78814694 149.94399018 -15.82979207 135.01311333 C-15.87217856 119.69115527 -15.89577589 104.36925813 -15.90100539 89.04724157 C-15.90442283 80.44145374 -15.91621744 71.83585182 -15.94910812 63.23012161 C-15.97706448 55.90339906 -15.9881274 48.57690052 -15.97691266 41.25012876 C-15.97171494 37.5106674 -15.97468406 33.77167548 -15.9993782 30.03228188 C-16.02590901 25.98104205 -16.01384881 21.93084196 -15.99789429 17.87954712 C-16.01177637 16.69385466 -16.02565846 15.50816221 -16.03996122 14.28653967 C-15.99376734 9.54795104 -15.91767308 6.47137738 -13.50126076 2.33360863 C-8.97660015 -0.23454379 -5.12226966 -0.09371494 0 0 Z " fill="#CDCDCD" transform="translate(31.389892578125,79.432373046875)"/>
<path d="M0 0 C1.21562261 -0.00525911 1.21562261 -0.00525911 2.45580325 -0.01062447 C5.18266079 -0.01995904 7.90930574 -0.01500985 10.63617229 -0.01015663 C12.60644238 -0.01389185 14.57671098 -0.01849286 16.54697722 -0.02388728 C21.97020477 -0.0361485 27.39337077 -0.03585314 32.81660903 -0.03349853 C38.66200093 -0.03309115 44.50737289 -0.04412193 50.35275555 -0.05361366 C61.80830026 -0.07024166 73.2638244 -0.07572402 84.71938018 -0.07683842 C94.02888347 -0.07778802 103.33837996 -0.08189393 112.64788151 -0.08823967 C115.32686652 -0.09003474 118.00585154 -0.09181436 120.68483657 -0.09358943 C121.35082624 -0.09403152 122.01681592 -0.09447362 122.7029871 -0.09492911 C141.43817291 -0.10723892 160.17335641 -0.1151301 178.90854645 -0.11424255 C179.61502182 -0.1142114 180.3214972 -0.11418024 181.04938092 -0.11414814 C184.63015365 -0.11398192 188.21092637 -0.11378384 191.79169909 -0.11357872 C192.50286297 -0.11353883 193.21402685 -0.11349894 193.94674116 -0.11345784 C195.38488813 -0.11337697 196.8230351 -0.11329337 198.26118208 -0.11320706 C220.63731869 -0.1119815 243.0133947 -0.12699505 265.38951397 -0.15435219 C290.52464772 -0.18506979 315.65974164 -0.20228488 340.79489535 -0.20042574 C354.10506989 -0.19968441 367.41518031 -0.20528478 380.72533894 -0.22678185 C392.05716278 -0.24496611 403.38888728 -0.24936363 414.72071937 -0.235763 C420.50395073 -0.22921951 426.28699136 -0.22916605 432.07020473 -0.2464695 C437.36336733 -0.26214404 442.65618708 -0.25939406 447.94934102 -0.24190123 C449.8652043 -0.23881894 451.7810928 -0.24250973 453.69692633 -0.25362138 C456.30052816 -0.26772306 458.9029242 -0.25717185 461.50648499 -0.24050903 C462.25091676 -0.25044539 462.99534853 -0.26038175 463.76233885 -0.27061921 C470.20254594 -0.18343445 475.33607725 1.97367787 480.1841917 6.22211266 C480.72301983 6.87308922 481.26184795 7.52406578 481.8170042 8.19476891 C482.37130108 8.84316734 482.92559795 9.49156578 483.4966917 10.15961266 C486.32465953 14.26398758 487.19201173 17.86969697 487.19927311 22.8164854 C487.205722 23.92922685 487.21217089 25.04196829 487.21881521 26.18842918 C487.215718 27.40572957 487.2126208 28.62302996 487.20942974 29.87721825 C487.21396085 31.17441549 487.21849197 32.47161274 487.22316039 33.808119 C487.23539618 37.40710341 487.23512925 41.0059949 487.23277164 44.60499537 C487.23236361 48.48718361 487.24340122 52.369342 487.25288677 56.25151634 C487.26950097 63.8569078 487.27499651 71.46226826 487.27611153 79.06767634 C487.27706181 85.24979709 487.28117114 91.43190761 487.28751278 97.61402512 C487.30512642 115.14129829 487.31435147 132.66854698 487.31285183 150.19582907 C487.31273196 151.61323276 487.31273196 151.61323276 487.31260967 153.05927086 C487.31252791 154.00536037 487.31244615 154.95144987 487.31236191 155.92620876 C487.311549 171.25912933 487.33068761 186.59195167 487.35888641 201.92484383 C487.38761195 217.66838052 487.40142688 233.41186931 487.39969885 249.15543288 C487.39903483 257.99431454 487.4045324 266.83309323 487.42605495 275.67195129 C487.44426243 283.19761908 487.44861769 290.72313721 487.43503611 298.24881748 C487.42850419 302.08782825 487.42839705 305.92655187 487.44574261 309.76553535 C487.46436225 313.92936396 487.45192475 318.0925272 487.43648052 322.25636864 C487.44676765 323.46697686 487.45705477 324.67758509 487.46765363 325.92487842 C487.40235584 333.88026493 486.36771304 339.34801071 480.97716045 345.49945641 C480.32618389 346.03828453 479.67520733 346.57711266 479.0045042 347.13226891 C478.35610577 347.68656578 477.70770733 348.24086266 477.03966045 348.81195641 C472.18380849 352.1577017 467.91109659 352.52611714 462.1295042 352.38226891 C461.43663311 352.37324547 460.74376202 352.36422203 460.02989483 352.35492516 C458.33378025 352.33153047 456.6378455 352.29566531 454.9420042 352.25726891 C454.98841045 353.24726891 455.0348167 354.23726891 455.0826292 355.25726891 C455.5628289 369.61960535 455.5628289 369.61960535 450.9420042 375.25726891 C446.1878799 380.23967057 441.80913779 383.90557697 434.74742413 384.54779625 C431.56052479 384.58827725 428.37407256 384.62863641 425.18687725 384.62787437 C423.14541134 384.63223493 421.1061334 384.66855756 419.06505108 384.70648766 C410.27935181 384.73251936 404.47797298 384.23216837 397.6998167 378.29242516 C397.16098858 377.64144859 396.62216045 376.99047203 396.0670042 376.31976891 C395.51270733 375.67137047 394.95841045 375.02297203 394.3873167 374.35492516 C389.24328063 366.88912145 390.9420042 362.31387957 390.9420042 352.25726891 C285.3420042 352.25726891 179.7420042 352.25726891 70.9420042 352.25726891 C70.9420042 357.20726891 70.9420042 362.15726891 70.9420042 367.25726891 C68.69070469 374.01116746 64.79991661 378.2210909 58.9420042 382.25726891 C53.20287012 385.03672571 47.44753628 384.62937124 41.18687725 384.62787437 C39.14541134 384.63223493 37.1061334 384.66855756 35.06505108 384.70648766 C26.27935181 384.73251936 20.47797298 384.23216837 13.6998167 378.29242516 C13.16098858 377.64144859 12.62216045 376.99047203 12.0670042 376.31976891 C11.51270733 375.67137047 10.95841045 375.02297203 10.3873167 374.35492516 C7.04157141 369.4990732 6.67315597 365.22636129 6.8170042 359.44476891 C6.82602764 358.75189781 6.83505108 358.05902672 6.84434795 357.34515953 C6.86774264 355.64904495 6.9036078 353.9531102 6.9420042 352.25726891 C5.9520042 352.30367516 4.9620042 352.35008141 3.9420042 352.39789391 C-10.42033224 352.8780936 -10.42033224 352.8780936 -16.0579958 348.25726891 C-20.79077205 343.741333 -24.66765373 339.34709093 -25.31099546 332.60645646 C-25.31240431 331.64668312 -25.31381316 330.68690978 -25.3152647 329.69805241 C-25.32171359 328.58531096 -25.32816249 327.47256952 -25.3348068 326.32610863 C-25.3317096 325.10880824 -25.32861239 323.89150785 -25.32542133 322.63731956 C-25.32995245 321.34012232 -25.33448356 320.04292507 -25.33915198 318.70641881 C-25.35138777 315.1074344 -25.35112084 311.50854291 -25.34876323 307.90954244 C-25.34835521 304.0273542 -25.35939281 300.14519581 -25.36887836 296.26302147 C-25.38549256 288.65763001 -25.3909881 281.05226955 -25.39210312 273.44686147 C-25.39305341 267.26474072 -25.39716273 261.08263021 -25.40350437 254.9005127 C-25.42111801 237.37323952 -25.43034306 219.84599083 -25.42884342 202.31870874 C-25.42876351 201.37377295 -25.4286836 200.42883716 -25.42860126 199.45526695 C-25.4285195 198.50917745 -25.42843774 197.56308794 -25.4283535 196.58832905 C-25.42754059 181.25540848 -25.44667921 165.92258614 -25.474878 150.58969399 C-25.50360354 134.84615729 -25.51741847 119.1026685 -25.51569045 103.35910493 C-25.51502642 94.52022327 -25.52052399 85.68144458 -25.54204655 76.84258652 C-25.56025403 69.31691873 -25.56460928 61.7914006 -25.5510277 54.26572033 C-25.54449578 50.42670956 -25.54438864 46.58798594 -25.5617342 42.74900246 C-25.58035384 38.58517385 -25.56791634 34.42201061 -25.55247211 30.25816917 C-25.56275924 29.04756095 -25.57304637 27.83695272 -25.58364522 26.58965939 C-25.51834744 18.63427288 -24.48370464 13.16652711 -19.09315205 7.01508141 C-18.44217548 6.47625328 -17.79119892 5.93742516 -17.1204958 5.38226891 C-16.47209736 4.82797203 -15.82369892 4.27367516 -15.15565205 3.70258141 C-10.27781394 0.34168737 -5.79544112 -0.03170243 0 0 Z M-7.16852283 18.02409172 C-10.11275363 23.06212086 -9.74008071 27.81993301 -9.67945576 33.55573082 C-9.68584458 34.81829279 -9.6922334 36.08085477 -9.69881582 37.3816762 C-9.71581766 40.88406326 -9.70161978 44.38573607 -9.68230104 47.8880856 C-9.66688358 51.66593461 -9.68027342 55.44369555 -9.69004536 59.22154808 C-9.70457956 66.62148859 -9.69233031 74.02115495 -9.67093211 81.4210695 C-9.64693295 90.03636283 -9.64863582 98.65159319 -9.65123802 107.26691252 C-9.65492916 122.63761564 -9.63409443 138.00818951 -9.59998798 153.37885094 C-9.56689602 168.29782948 -9.55272958 183.21667237 -9.55897236 198.13568687 C-9.56573493 214.37681132 -9.56327993 230.61787891 -9.54361296 246.85899496 C-9.54257347 247.71766168 -9.54153399 248.57632839 -9.540463 249.46101531 C-9.53837209 251.18565891 -9.53626111 252.91030248 -9.53412983 254.63494602 C-9.52723141 260.64193706 -9.52656539 266.6489106 -9.52801228 272.65590477 C-9.52945133 279.97525015 -9.51977302 287.29448484 -9.49606591 294.61379349 C-9.48419804 298.34908462 -9.47708597 302.08422138 -9.48290348 305.81953049 C-9.48901962 309.86611512 -9.47192711 313.91226493 -9.45240498 317.95880699 C-9.4577329 319.14313521 -9.46306083 320.32746343 -9.46855021 321.54768038 C-9.45949357 322.63092136 -9.45043693 323.71416234 -9.44110584 324.83022881 C-9.43953464 325.7642885 -9.43796344 326.69834819 -9.43634462 327.66071272 C-8.97884602 330.80046301 -7.90215046 332.6963788 -6.0579958 335.25726891 C-3.71872523 336.42690419 -2.36122932 336.3805748 0.24464703 336.37752342 C1.59924274 336.37958542 1.59924274 336.37958542 2.98120403 336.38168907 C3.9745425 336.3780938 4.96788097 336.37449852 5.99132061 336.3707943 C7.55720676 336.37101334 7.55720676 336.37101334 9.15472698 336.3712368 C12.61769443 336.37053813 16.08060861 336.36274781 19.5435667 336.35492516 C21.9396744 336.35306082 24.33578247 336.35163699 26.73189068 336.35063744 C33.04809395 336.34681352 39.36427435 336.33698428 45.68046856 336.32593346 C52.12181063 336.31571665 58.56315638 336.31113924 65.0045042 336.30609703 C77.65034732 336.29536192 90.29617455 336.27847836 102.9420042 336.25726891 C102.94747265 335.01152092 102.94747265 335.01152092 102.95305157 333.74060631 C102.9909235 325.91262442 103.04776677 318.08505951 103.12590694 310.2573719 C103.16541087 306.23306971 103.19758478 302.20898728 103.2130003 298.184515 C103.2281481 294.3003765 103.26255906 290.41684203 103.31031322 286.53297234 C103.32514662 285.05147363 103.33304635 283.56988869 103.33388805 282.08831596 C103.33625381 280.0121432 103.36329627 277.93764514 103.39610577 275.86176109 C103.40942944 274.08971306 103.40942944 274.08971306 103.42302227 272.28186607 C104.04410791 268.6622143 105.06048717 267.46392221 107.9420042 265.25726891 C110.93341998 264.85653207 112.93196543 265.52903372 115.9420042 266.25726891 C118.33112785 269.84095437 118.21288554 271.48722789 118.26085186 275.7482357 C118.27089748 276.40216301 118.28094311 277.05609032 118.29129314 277.7298336 C118.32215434 279.88870944 118.33916802 282.04746111 118.3560667 284.20648766 C118.37477604 285.7043674 118.39434928 287.20223659 118.41475201 288.70009422 C118.46610421 292.64063861 118.50571326 296.58121717 118.54289532 300.52191734 C118.5829157 304.54381347 118.63401698 308.56556703 118.6841917 312.58734703 C118.78098752 320.47722364 118.86538046 328.36717074 118.9420042 336.25726891 C162.93523806 336.32589877 206.92846626 336.37877925 250.92174308 336.41046489 C256.11266028 336.41421712 261.30357739 336.41810008 266.49449444 336.42206383 C267.5279356 336.42285076 268.56137676 336.42363769 269.62613431 336.42444847 C286.37107638 336.43751111 303.11598762 336.46116968 319.86091139 336.48872729 C337.03599209 336.5167576 354.21105661 336.53344013 371.38615924 336.53953439 C381.9886256 336.54365576 392.59100485 336.55668424 403.19344441 336.58101831 C410.45872103 336.59684619 417.72395246 336.60167596 424.98924508 336.59777304 C429.18425129 336.59584689 433.37910502 336.59885029 437.57408428 336.61488533 C441.41282111 336.62945186 445.25130248 336.63024256 449.09005091 336.61996559 C450.48044536 336.61869486 451.87085555 336.62252803 453.26121887 336.63191845 C455.14849355 336.64392617 457.03586475 336.63568902 458.92315483 336.62641239 C459.9723221 336.62755155 461.02148938 336.62869071 462.1024496 336.62986439 C465.41579875 336.1950994 467.29277001 335.27410867 469.9420042 333.25726891 C470.94848691 330.23782079 471.06922549 328.2300405 471.07343197 325.07353115 C471.07727311 323.99365557 471.08111426 322.91377998 471.0850718 321.8011809 C471.08377208 320.01492687 471.08377208 320.01492687 471.0824461 318.1925869 C471.08541722 316.93102821 471.08838834 315.66946952 471.0914495 314.36968178 C471.09952729 310.8610919 471.1013095 307.35252248 471.10204697 303.8439244 C471.10389612 300.06267361 471.11144267 296.28143347 471.11818218 292.50018883 C471.13177064 284.22970197 471.13779076 275.95921996 471.14219284 267.6887238 C471.14495388 262.52719854 471.14919093 257.36567515 471.15369701 252.20415115 C471.16588938 237.92021267 471.17618939 223.63627569 471.17957211 209.35233212 C471.17979167 208.43795185 471.18001124 207.52357158 471.18023746 206.58148282 C471.18045573 205.66489003 471.18067401 204.74829724 471.1808989 203.80392891 C471.18134237 201.94649732 471.18178894 200.08906573 471.18223858 198.23163414 C471.18246001 197.31027992 471.18268144 196.3889257 471.18290958 195.43965166 C471.18685983 180.50161276 471.20432089 165.56362257 471.2275981 150.62560249 C471.25129015 135.29799805 471.26377294 119.97041808 471.26494002 104.64279503 C471.26585789 96.03318087 471.27163839 87.42363021 471.28975964 78.81403351 C471.30513156 71.48475542 471.31029828 64.15556047 471.30202153 56.82626934 C471.29810492 53.08502301 471.29909363 49.34394424 471.31307888 45.60271835 C471.32808549 41.55133497 471.31998154 37.50033199 471.30949688 33.44893456 C471.31755328 32.26032926 471.32560969 31.07172396 471.33391023 29.84710032 C471.32402546 28.22337532 471.32402546 28.22337532 471.313941 26.5668478 C471.31453809 25.63132424 471.31513518 24.69580069 471.31575036 23.73192793 C470.86729927 20.76263037 470.01140259 19.40922838 467.9420042 17.25726891 C464.75874341 16.19618198 462.51383128 16.13301146 459.16925049 16.13422108 C457.95802247 16.13223003 456.74679446 16.13023898 455.49886256 16.1281876 C454.14782239 16.13104081 452.7967824 16.13398641 451.44574261 16.13701439 C450.01597232 16.13657855 448.58620211 16.13570341 447.15643233 16.13442522 C443.21825569 16.13218272 439.28010609 16.13619823 435.34193289 16.14120328 C431.09859219 16.14551108 426.85525309 16.14406113 422.61191082 16.14330101 C415.2569451 16.14277598 407.90198822 16.14592056 400.54702473 16.15153885 C389.91290712 16.15965674 379.2787938 16.16226937 368.64467343 16.16352684 C351.39262566 16.1657169 334.14058261 16.17237576 316.88853741 16.18182945 C300.12714442 16.19100475 283.36575271 16.19808501 266.60435772 16.20233727 C265.05528927 16.20273135 265.05528927 16.20273135 263.47492651 16.2031334 C258.29424977 16.20443841 253.11357301 16.20570212 247.93289626 16.2069453 C204.93592897 16.21731649 161.93896683 16.23493358 118.9420042 16.25726891 C118.93869406 17.41832523 118.93538391 18.57938156 118.93197346 19.77562141 C118.85298582 47.32585554 118.76377735 74.87604109 118.66195259 102.42620067 C118.64943346 105.81585335 118.63700073 109.20550634 118.62462139 112.59515953 C118.6209224 113.60740408 118.6209224 113.60740408 118.61714868 114.64009801 C118.57740593 125.57227848 118.54466531 136.5044693 118.51450439 147.43667993 C118.48340966 158.65097285 118.44466037 169.86522158 118.39921415 181.07946706 C118.37392591 187.37966609 118.35215148 193.67983386 118.33866024 199.98007011 C118.32586102 205.90613937 118.30382972 211.83210154 118.27462101 217.75811195 C118.26552848 219.93659752 118.25985112 222.11510033 118.25779057 224.2936039 C118.25447987 227.26133082 118.2390347 230.22875191 118.2204771 233.19641685 C118.22241184 234.0641198 118.22434657 234.93182275 118.22633994 235.82581973 C118.21887444 236.62103132 118.21140895 237.41624292 118.20371723 238.23555183 C118.20143891 238.92056731 118.19916059 239.60558279 118.19681323 240.31135631 C117.89014073 242.65333721 117.17177291 244.24824822 115.9420042 246.25726891 C113.17100027 247.64277087 111.00853361 247.4450156 107.9420042 247.25726891 C104.9420042 245.25726891 104.9420042 245.25726891 103.9420042 242.25726891 C103.83574256 239.26964819 103.78714283 236.3047572 103.78378582 233.31667137 C103.77637885 231.92850221 103.77637885 231.92850221 103.76882225 230.51228923 C103.75341333 227.39839433 103.74507743 224.28452011 103.73668194 221.17059898 C103.72710608 218.94358194 103.71709618 216.71656673 103.70668316 214.48955345 C103.67959633 208.43208472 103.65860723 202.37460816 103.63868117 196.31711221 C103.6168449 189.99097209 103.58944469 183.66485618 103.56262493 177.33873558 C103.51834727 166.71694511 103.47751742 156.09514697 103.43931866 145.47333336 C103.39996227 134.53224277 103.3585357 123.59116325 103.31431866 112.65009117 C103.31159438 111.97581834 103.30887011 111.30154551 103.30606329 110.60684017 C103.29238378 107.22425183 103.27866352 103.84166366 103.26492298 100.45907557 C103.15096271 72.39182974 103.04422564 44.32455975 102.9420042 16.25726891 C89.07739524 16.14041306 75.21286275 16.05260252 61.34786224 15.99820805 C54.90991238 15.97210273 48.47229309 15.93668639 42.0345335 15.88007164 C35.82294428 15.82578707 29.61167325 15.79585541 23.39986515 15.78288269 C21.02873188 15.77363657 18.65761623 15.75558119 16.28661823 15.72861862 C12.96799348 15.69237711 9.65068725 15.68732172 6.33189678 15.68964195 C5.34934414 15.67166557 4.3667915 15.65368919 3.35446453 15.63516808 C-0.8830065 15.66727334 -3.43817195 15.9052003 -7.16852283 18.02409172 Z " fill="#000000" transform="translate(25.057995796203613,63.74273109436035)"/>
<path d="M0 0 C0.8746245 -0.00779995 1.749249 -0.01559991 2.65037727 -0.02363622 C5.58098604 -0.04357935 8.51029958 -0.02778259 11.44091797 -0.01205444 C13.54189818 -0.01882952 15.64287245 -0.02773203 17.74383545 -0.03860474 C23.4504525 -0.06141746 29.15661806 -0.05255336 34.8632431 -0.03670931 C40.8320183 -0.02406067 46.80075455 -0.03578755 52.76953125 -0.04364014 C62.79352772 -0.05273969 72.81734007 -0.04074064 82.84130859 -0.01693726 C94.4345354 0.01027444 106.02732256 0.00146051 117.62053871 -0.02606928 C127.56971821 -0.04875051 137.51876527 -0.05196521 147.46796227 -0.03887594 C153.41216616 -0.03107606 159.35616334 -0.03005475 165.300354 -0.04655838 C170.8884873 -0.06098936 176.47605314 -0.05100596 182.06412506 -0.0220871 C184.11641751 -0.01546902 186.16875762 -0.01738621 188.22103119 -0.02840042 C191.02007168 -0.04203877 193.81728717 -0.02496097 196.61621094 0 C197.43089907 -0.01115361 198.2455872 -0.02230722 199.08496284 -0.03379881 C203.17627336 0.03710935 205.06760705 0.44376206 208.31211853 3.0226078 C210.47955786 5.8593119 210.9321898 7.06634596 210.94482422 10.57632446 C210.96480469 11.48962524 210.98478516 12.40292603 211.00537109 13.34390259 C211.00214844 14.28556274 210.99892578 15.2272229 210.99560547 16.19741821 C211.01223334 18.07380971 211.0366763 19.95015209 211.06982422 21.82632446 C211.06921997 23.0668457 211.06921997 23.0668457 211.06860352 24.33242798 C211.34335824 26.97382634 211.76522289 28.46559337 213.30810547 30.63491821 C214.95810547 31.29491821 216.60810547 31.95491821 218.30810547 32.63491821 C218.30810547 37.91491821 218.30810547 43.19491821 218.30810547 48.63491821 C216.32810547 49.62491821 214.34810547 50.61491821 212.30810547 51.63491821 C211.07598599 54.09915717 211.15030639 55.78726484 211.1027832 58.54360962 C211.08260132 59.57880737 211.06241943 60.61400513 211.04162598 61.68057251 C211.02515015 62.77152222 211.00867432 63.86247192 210.99169922 64.98648071 C210.96372253 66.48731201 210.96372253 66.48731201 210.93518066 68.01846313 C210.86674575 71.76552274 210.80668477 75.51273149 210.74560547 79.25991821 C210.60123047 87.63366821 210.45685547 96.00741821 210.30810547 104.63491821 C191.49810547 104.63491821 172.68810547 104.63491821 153.30810547 104.63491821 C153.33130859 98.1006604 153.35451172 91.56640259 153.37841797 84.83413696 C153.38863404 80.70066946 153.39826176 76.56721747 153.40576172 72.43374634 C153.41772879 65.86934181 153.43190327 59.30499294 153.45898438 52.7406311 C153.48067564 47.44978538 153.49266625 42.15899932 153.49785995 36.86811256 C153.5015624 34.8470446 153.5087921 32.82598 153.51956558 30.80493736 C153.53403107 27.9795558 153.53608548 25.1544225 153.53515625 22.32901001 C153.54594208 21.06881294 153.54594208 21.06881294 153.5569458 19.78315735 C153.54299857 15.87793389 153.52465272 13.95973909 151.30810547 10.63491821 C148.57431673 9.7236553 146.95430897 9.50406981 144.13990784 9.48774719 C143.29173492 9.48059189 142.44356201 9.47343658 141.56968689 9.46606445 C140.17865501 9.4620311 140.17865501 9.4620311 138.75952148 9.45791626 C137.78039795 9.45134506 136.80127441 9.44477386 135.79248047 9.43800354 C132.54899014 9.4182748 129.30554602 9.40661087 126.06201172 9.39663696 C124.95546675 9.39256144 123.84892178 9.38848591 122.70884514 9.38428688 C116.85578472 9.36343123 111.00274774 9.34912545 105.1496582 9.3397522 C99.09543665 9.32866909 93.04158074 9.29424564 86.98748875 9.2545805 C82.33871256 9.22848237 77.69002457 9.22006658 73.04118156 9.21647072 C70.80880187 9.21158971 68.57642649 9.19993299 66.34411812 9.18143272 C63.22447476 9.15717902 60.10579204 9.15798087 56.98608398 9.16494751 C56.06075363 9.15213745 55.13542328 9.13932739 54.18205261 9.12612915 C49.1269658 9.15016264 49.1269658 9.15016264 44.71299744 11.42552185 C42.93438284 14.22265125 42.94566915 16.3321401 43.53857422 19.56167603 C44.96860179 23.41440259 47.80325131 25.81767096 50.80810547 28.50991821 C52.00768107 29.63054086 53.2056769 30.75285771 54.40185547 31.87710571 C54.93488281 32.36034302 55.46791016 32.84358032 56.01708984 33.34146118 C58.92006225 36.24992333 58.46253793 39.16383145 58.51342773 43.10415649 C58.52346045 43.77842619 58.53349318 44.45269588 58.54382992 45.14739799 C58.57525033 47.33330711 58.60000055 49.51923433 58.62451172 51.70523071 C58.64291191 53.05346269 58.66174841 54.40168879 58.68103027 55.74990845 C58.74951573 60.75317538 58.80954431 65.75655517 58.87060547 70.75991821 C59.08716797 87.52804321 59.08716797 87.52804321 59.30810547 104.63491821 C35.21810547 104.63491821 11.12810547 104.63491821 -13.69189453 104.63491821 C-13.89243858 80.12843571 -13.89243858 80.12843571 -13.93603516 69.68765259 C-13.96593244 62.56140547 -14.00131236 55.43547936 -14.0690918 48.30947876 C-14.12339189 42.56472441 -14.15331121 36.82031426 -14.16628075 31.0753231 C-14.17552411 28.88281523 -14.19357424 26.69032633 -14.22054482 24.49796486 C-14.25680757 21.42837342 -14.26184091 18.36020673 -14.25952148 15.29043579 C-14.27749786 14.38268906 -14.29547424 13.47494232 -14.31399536 12.53968811 C-14.30712204 11.69981354 -14.30024872 10.85993896 -14.29316711 9.99461365 C-14.29777608 9.26916257 -14.30238504 8.54371149 -14.30713367 7.79627705 C-12.25101454 0.57305125 -6.54857246 -0.0896542 0 0 Z " fill="#E5E5E5" transform="translate(253.69189453125,111.36508178710938)"/>
<path d="M0 0 C73.92 0 147.84 0 224 0 C224 98 224 98 221 103 C218.02118573 103.99293809 216.08512761 104.12119785 212.9777832 104.11352539 C211.95695145 104.11344986 210.93611969 104.11337433 209.88435364 104.11329651 C208.78427475 104.10813522 207.68419586 104.10297394 206.55078125 104.09765625 C205.4230278 104.0962413 204.29527435 104.09482635 203.13334656 104.09336853 C199.52637088 104.0877647 195.91945696 104.07521153 192.3125 104.0625 C189.86914152 104.05748549 187.42578207 104.0529225 184.98242188 104.04882812 C178.98826013 104.03779403 172.99413448 104.02105215 167 104 C167.00444122 102.8666069 167.00888245 101.73321381 167.01345825 100.56547546 C167.05395812 89.8972171 167.08396216 79.22897428 167.10362434 68.56065655 C167.11407258 63.0756428 167.12825077 57.59069099 167.15087891 52.10571289 C167.17257017 46.81486716 167.18456079 41.5240811 167.18975449 36.23319435 C167.19345693 34.21212639 167.20068664 32.19106179 167.21146011 30.17001915 C167.2259256 27.34463759 167.22798001 24.51950428 167.22705078 21.6940918 C167.23783661 20.43389473 167.23783661 20.43389473 167.24884033 19.14823914 C167.23489311 15.24301568 167.21654725 13.32482088 165 10 C162.26621127 9.08873709 160.6462035 8.8691516 157.83180237 8.85282898 C156.98362946 8.84567368 156.13545654 8.83851837 155.26158142 8.83114624 C153.87054955 8.82711288 153.87054955 8.82711288 152.45141602 8.82299805 C151.47229248 8.81642685 150.49316895 8.80985565 149.484375 8.80308533 C146.24088467 8.78335659 142.99744055 8.77169266 139.75390625 8.76171875 C138.64736128 8.75764322 137.54081631 8.7535677 136.40073967 8.74936867 C130.54767925 8.72851302 124.69464227 8.71420724 118.84155273 8.70483398 C112.78733118 8.69375088 106.73347528 8.65932743 100.67938328 8.61966228 C96.0306071 8.59356416 91.3819191 8.58514836 86.7330761 8.58155251 C84.5006964 8.5766715 82.26832102 8.56501477 80.03601265 8.54651451 C76.91636929 8.52226081 73.79768657 8.52306266 70.67797852 8.5300293 C69.75264816 8.51721924 68.82731781 8.50440918 67.87394714 8.49121094 C62.81886033 8.51524442 62.81886033 8.51524442 58.40489197 10.79060364 C56.62627737 13.58773303 56.63756369 15.69722189 57.23046875 18.92675781 C58.66049632 22.77948437 61.49514584 25.18275275 64.5 27.875 C65.69957561 28.99562265 66.89757143 30.11793949 68.09375 31.2421875 C68.62677734 31.7254248 69.15980469 32.20866211 69.70898438 32.70654297 C72.61195678 35.61500511 72.15443246 38.52891324 72.20532227 42.46923828 C72.21522186 43.13277313 72.22512146 43.79630798 72.23532104 44.47994995 C72.26694916 46.67670097 72.29169854 48.87347363 72.31640625 51.0703125 C72.33697466 52.59203661 72.3579711 54.113755 72.37937927 55.63546753 C72.43461171 59.6434465 72.48401578 63.65147713 72.53222656 67.6595459 C72.58243305 71.74833787 72.63812356 75.83705468 72.69335938 79.92578125 C72.80095528 87.95045732 72.90239704 95.9751962 73 104 C64.20302392 104.06951618 55.40614242 104.12281935 46.60895157 104.15543652 C42.52403307 104.17109129 38.43930252 104.19232591 34.35449219 104.22631836 C30.41227115 104.25891886 26.47023087 104.27685443 22.52788544 104.28463173 C21.02397567 104.29017403 19.52007578 104.30099685 18.01624298 104.31719017 C15.90937434 104.33897434 13.80325224 104.34196662 11.69628906 104.34057617 C10.49715881 104.34723801 9.29802856 104.35389984 8.06256104 104.36076355 C4.71132196 103.96599431 3.35023578 103.38201872 1 101 C-9.6468566 69.05943019 0 33.66831679 0 0 Z " fill="#CDCDCD" transform="translate(240,264)"/>
<path d="M0 0 C31.68 0 63.36 0 96 0 C96 72.93 96 145.86 96 221 C93.69 219.02 91.38 217.04 89 215 C88.13560303 214.35272949 87.27120605 213.70545898 86.38061523 213.03857422 C82.40364979 209.76676278 80.28162742 207.36476894 79.22314453 202.23535156 C78.8597673 197.86286438 78.94851524 193.50655532 79.0625 189.125 C79.08345071 186.86232283 79.09179969 184.6001419 79.09165955 182.33737183 C79.09736202 180.30041199 79.13580519 178.26362148 79.17602539 176.22705078 C79.26605455 172.84814346 79.26605455 172.84814346 77 170 C73.85261849 168.95087283 72.04721081 169.00445275 68.7734375 169.2109375 C52.37758478 169.77595749 52.37758478 169.77595749 47.99316406 166.50097656 C44.95313488 162.90445471 41 156.87396498 41 152 C41.72703125 151.85304687 42.4540625 151.70609375 43.203125 151.5546875 C55.2969571 148.85683265 65.98360294 144.70325384 73 134 C79.01991686 122.03541524 80.62894437 111.97824496 77.03515625 98.95703125 C73.72078612 89.48918903 68.01398241 81.94203714 58.92578125 77.49609375 C47.8412527 72.80288564 36.99668 70.55103866 25.5 75.1875 C20.92568713 77.34519475 17.01482982 79.94523818 13 83 C12.34 83 11.68 83 11 83 C7.67289354 70.14830119 4.68701122 57.3186471 2.6875 44.1875 C2.52862305 43.14674316 2.36974609 42.10598633 2.20605469 41.03369141 C0.19400836 27.20805875 0 14.14050275 0 0 Z " fill="#E5E5E5" transform="translate(32,80)"/>
<path d="M0 0 C6.71617722 3.8031365 11.35868031 8.74569377 13.9453125 16.1015625 C14.50791463 20.12540841 14.49256586 24.09992649 14.46289062 28.15795898 C14.4698999 29.34435974 14.47690918 30.5307605 14.48413086 31.75311279 C14.49865699 34.98683539 14.49534018 38.21989637 14.48261452 41.45360827 C14.47242997 44.85133337 14.48189545 48.2490168 14.48815918 51.64674377 C14.49542083 57.35189655 14.48588816 63.0568417 14.46679688 68.76196289 C14.44504118 75.33885528 14.45207558 81.91525133 14.4741025 88.49213165 C14.49231157 94.15782243 14.49478777 99.82336462 14.48434782 105.48907524 C14.47814161 108.86460464 14.47719699 112.23990152 14.49049377 115.61541557 C14.50068926 119.38253859 14.48511362 123.14871843 14.46289062 126.91577148 C14.47098755 128.02098648 14.47908447 129.12620148 14.48742676 130.26490784 C14.40103425 138.19813167 12.95503758 144.45762548 7.83203125 150.66015625 C1.04859183 156.45559916 -4.60264614 158.66022556 -13.57421875 158.40234375 C-21.13756419 157.48521367 -25.49956997 153.03024084 -30.390625 147.515625 C-34.7350988 141.21307851 -34.35119672 134.62173372 -34.34521484 127.25634766 C-34.35193207 126.06863266 -34.35864929 124.88091766 -34.36557007 123.6572113 C-34.38127918 120.41122507 -34.38792309 117.16539268 -34.38920164 113.91937304 C-34.39062681 111.88804443 -34.39490329 109.85674237 -34.40019608 107.82542038 C-34.41867759 100.72929949 -34.42686897 93.63325354 -34.42529297 86.53710938 C-34.42409178 79.93755017 -34.44519419 73.3383181 -34.4767803 66.73884165 C-34.50298669 61.0596462 -34.51365846 55.38055734 -34.51238215 49.70130193 C-34.51187383 46.31512071 -34.51748436 42.92923052 -34.53873825 39.54310989 C-34.55836192 35.76365345 -34.55257339 31.98503674 -34.54052734 28.20556641 C-34.55176636 27.09361404 -34.56300537 25.98166168 -34.57458496 24.83601379 C-34.51109804 16.98608112 -33.21835442 11.66705474 -27.87109375 5.640625 C-26.75541016 4.69316406 -26.75541016 4.69316406 -25.6171875 3.7265625 C-24.87597656 3.07945312 -24.13476562 2.43234375 -23.37109375 1.765625 C-16.42365906 -3.22528087 -7.75505918 -3.35947908 0 0 Z " fill="#000000" transform="translate(194.0546875,193.8984375)"/>
<path d="M0 0 C54.78 0 109.56 0 166 0 C166.061875 16.066875 166.12375 32.13375 166.1875 48.6875 C166.21481201 53.75826904 166.24212402 58.82903809 166.27026367 64.0534668 C166.28381348 70.25158691 166.28381348 70.25158691 166.28633118 73.15437317 C166.29093408 75.17917356 166.30147739 77.20396579 166.31672668 79.22871399 C166.3386851 82.29804748 166.34171806 85.36687903 166.34057617 88.4362793 C166.3513705 89.33638827 166.36216482 90.23649725 166.37328625 91.16388226 C166.34975262 95.88911207 166.19591117 99.23144308 163 103 C160.02118573 103.99293809 158.08512761 104.12119785 154.9777832 104.11352539 C153.95695145 104.11344986 152.93611969 104.11337433 151.88435364 104.11329651 C150.78427475 104.10813522 149.68419586 104.10297394 148.55078125 104.09765625 C147.4230278 104.0962413 146.29527435 104.09482635 145.13334656 104.09336853 C141.52637088 104.0877647 137.91945696 104.07521153 134.3125 104.0625 C131.86914152 104.05748549 129.42578207 104.0529225 126.98242188 104.04882812 C120.98826013 104.03779403 114.99413448 104.02105215 109 104 C109.00444122 102.8666069 109.00888245 101.73321381 109.01345825 100.56547546 C109.05395812 89.8972171 109.08396216 79.22897428 109.10362434 68.56065655 C109.11407258 63.0756428 109.12825077 57.59069099 109.15087891 52.10571289 C109.17257017 46.81486716 109.18456079 41.5240811 109.18975449 36.23319435 C109.19345693 34.21212639 109.20068664 32.19106179 109.21146011 30.17001915 C109.2259256 27.34463759 109.22798001 24.51950428 109.22705078 21.6940918 C109.23783661 20.43389473 109.23783661 20.43389473 109.24884033 19.14823914 C109.23489311 15.24301568 109.21654725 13.32482088 107 10 C104.27840565 9.09280188 102.74972717 8.88018301 99.95915222 8.89561462 C99.13911209 8.89738708 98.31907196 8.89915955 97.47418213 8.90098572 C96.12994171 8.91120506 96.12994171 8.91120506 94.75854492 8.92163086 C92.79648391 8.92774668 90.8344223 8.93367346 88.87236023 8.93943787 C87.31045739 8.9464462 87.31045739 8.9464462 85.71700096 8.95359612 C80.20910389 8.97273722 74.70126635 8.95756792 69.19335938 8.94726562 C62.18132429 8.93500864 55.16989962 8.93337709 48.15795898 8.97583008 C42.4936637 9.0092209 36.83057619 9.00380462 31.16628456 8.97226143 C29.00813651 8.9673332 26.84990708 8.97663893 24.69188499 9.00047112 C21.66977109 9.03188548 18.65168572 9.01370501 15.62963867 8.98413086 C14.29450729 9.01560463 14.29450729 9.01560463 12.93240356 9.04771423 C10.42179871 8.99327087 10.42179871 8.99327087 6 8 C4.02 5.36 2.04 2.72 0 0 Z " fill="#E5E5E5" transform="translate(298,264)"/>
<path d="M0 0 C0.66569504 -0.00554901 1.33139008 -0.01109802 2.01725769 -0.01681519 C4.20691044 -0.02857861 6.39447797 -0.00437471 8.58398438 0.02148438 C10.11185614 0.02319649 11.63973084 0.02312877 13.16760254 0.0213623 C16.36543997 0.02301365 19.56257476 0.04167599 22.76025391 0.07324219 C26.85265379 0.1129199 30.94413402 0.11728643 35.03668976 0.10977936 C38.19037249 0.1067051 41.3438497 0.11884625 44.4974823 0.13591003 C46.00610565 0.14292529 47.5147523 0.14606636 49.02339172 0.1452179 C51.13450962 0.14702221 53.24453978 0.16845545 55.35546875 0.1953125 C57.15485901 0.20794128 57.15485901 0.20794128 58.99060059 0.2208252 C62.47938538 0.65256382 64.38053785 1.52169287 67.17773438 3.61523438 C68.60439454 6.4685547 68.3208113 8.90711711 68.33886719 12.09692383 C68.34631454 13.09480927 68.34631454 13.09480927 68.35391235 14.112854 C68.36854059 16.31808501 68.37533764 18.52324403 68.38085938 20.72851562 C68.38661104 22.26067609 68.39236878 23.79283653 68.39813232 25.32499695 C68.40864471 28.5404799 68.41448556 31.75593783 68.41796875 34.97143555 C68.42344879 39.08735328 68.44746504 43.20293941 68.4759407 47.31875324 C68.49458689 50.48523414 68.49977377 53.65163557 68.50130463 56.81816673 C68.5043281 58.33519488 68.51234636 59.85222172 68.52548981 61.36919594 C68.54258957 63.49483887 68.54066082 65.61967708 68.53417969 67.74536133 C68.53964813 69.55832451 68.53964813 69.55832451 68.54522705 71.40791321 C68.14025309 74.94235521 67.35714972 76.82342512 65.17773438 79.61523438 C61.7763977 80.74901327 59.15369216 80.75607614 55.56665039 80.77636719 C54.89964111 80.78133209 54.23263184 80.786297 53.54541016 80.79141235 C51.34080979 80.80600722 49.13628134 80.81283076 46.93164062 80.81835938 C45.39851378 80.82411214 43.86538694 80.82986986 42.33226013 80.83563232 C39.11855738 80.84613407 35.9048796 80.85198243 32.69116211 80.85546875 C28.57405421 80.86095796 24.45727627 80.88499827 20.34027195 80.9134407 C17.17383356 80.93206534 14.00747479 80.93727254 10.84098625 80.93880463 C9.32313161 80.94183107 7.80527836 80.94985938 6.28747749 80.96298981 C4.16413352 80.98005061 2.04159765 80.97817077 -0.08178711 80.97167969 C-1.28963364 80.97532532 -2.49748016 80.97897095 -3.7419281 80.98272705 C-7.10057853 80.58203089 -8.46788703 80.00404465 -10.82226562 77.61523438 C-11.95200742 74.22600898 -11.97696206 71.59405878 -12.01513672 68.02001953 C-12.02331421 67.35461655 -12.0314917 66.68921356 -12.03991699 66.00364685 C-12.06470916 63.80387258 -12.08126939 61.60416249 -12.09570312 59.40429688 C-12.1010268 58.65204205 -12.10635048 57.89978722 -12.11183548 57.12473679 C-12.13853792 53.14436615 -12.1579236 49.16402659 -12.17236328 45.18359375 C-12.18571243 41.89131955 -12.21358572 38.59966371 -12.25439453 35.30761719 C-12.30370527 31.32944295 -12.32848171 27.3518303 -12.33559036 23.37336349 C-12.34230223 21.85908246 -12.35752291 20.34481392 -12.38148117 18.83070755 C-12.41313503 16.70955411 -12.4131713 14.59056628 -12.40576172 12.46923828 C-12.41384857 11.26361237 -12.42193542 10.05798645 -12.43026733 8.81582642 C-11.08699814 1.74470044 -6.68069272 -0.01144146 0 0 Z " fill="#000000" transform="translate(43.822265625,247.384765625)"/>
<path d="M0 0 C8.95888218 5.36354131 15.76815203 13.27729877 18.6875 23.37890625 C21.49267084 35.82685186 20.08135849 46.83753062 13.25 57.8125 C6.33961325 67.31857929 -2.02500831 71.34166944 -13 75 C-25.77488104 76.10810616 -36.08479109 73.86724459 -46.2578125 65.59375 C-54.32076965 58.21777126 -59.21867266 49.45962001 -60.37109375 38.45703125 C-60.59613523 26.10622538 -57.40714775 16.19016642 -49 7 C-35.57044338 -6.61959751 -16.88247715 -8.71649635 0 0 Z " fill="#020303" transform="translate(92,157)"/>
<path d="M0 0 C22.77 0 45.54 0 69 0 C69.12032643 18.26733438 69.12032643 18.26733438 69.14648438 26.06054688 C69.16441026 31.37598669 69.18560527 36.69127131 69.22631836 42.0065918 C69.25894044 46.29246025 69.27685904 50.57816224 69.28463173 54.86414528 C69.29017013 56.49840731 69.30098535 58.13266035 69.31719017 59.76685143 C69.33900272 62.05790186 69.34196539 64.34826654 69.34057617 66.6394043 C69.35056892 68.59465279 69.35056892 68.59465279 69.36076355 70.58940125 C68.9739526 74.24624784 68.27185812 76.13332313 66 79 C63.00632982 79.99789006 60.98611991 80.137985 57.85766602 80.16113281 C56.28572227 80.17554413 56.28572227 80.17554413 54.68202209 80.19024658 C53.55074387 80.19449646 52.41946564 80.19874634 51.25390625 80.203125 C50.09124741 80.20882507 48.92858856 80.21452515 47.73069763 80.22039795 C45.27026276 80.2298485 42.80981524 80.23638215 40.34936523 80.24023438 C36.58099403 80.24995231 32.81316532 80.28098101 29.04492188 80.3125 C26.65625324 80.3190288 24.26758071 80.32427975 21.87890625 80.328125 C20.74965225 80.3404718 19.62039825 80.3528186 18.45692444 80.36553955 C17.40580978 80.36253845 16.35469513 80.35953735 15.27172852 80.35644531 C13.88631615 80.36191376 13.88631615 80.36191376 12.47291565 80.36749268 C9.50107284 79.92585591 8.15358166 79.06933457 6 77 C4.99503148 73.98509443 4.89664697 71.95818308 4.9375 68.8125 C4.95103516 67.46091797 4.95103516 67.46091797 4.96484375 66.08203125 C4.97644531 65.39496094 4.98804688 64.70789063 5 64 C5.91523438 63.89042969 6.83046875 63.78085937 7.7734375 63.66796875 C8.96195312 63.50941406 10.15046875 63.35085938 11.375 63.1875 C12.55835938 63.03667969 13.74171875 62.88585937 14.9609375 62.73046875 C18.29532084 62.29300666 18.29532084 62.29300666 20 59 C20.33957563 54.92509248 20.31332486 53.46998729 18 50 C14.89188713 49.19458793 14.89188713 49.19458793 11.375 48.8125 C9.27125 48.544375 7.1675 48.27625 5 48 C5 42.72 5 37.44 5 32 C9.98046875 31.36523438 9.98046875 31.36523438 14.9609375 30.73046875 C18.29532084 30.29300666 18.29532084 30.29300666 20 27 C20.33957563 22.92509248 20.31332486 21.46998729 18 18 C14.89188713 17.19458793 14.89188713 17.19458793 11.375 16.8125 C9.59222656 16.57466797 9.59222656 16.57466797 7.7734375 16.33203125 C6.40058594 16.16767578 6.40058594 16.16767578 5 16 C4.89042969 15.34773438 4.78085937 14.69546875 4.66796875 14.0234375 C4.43013672 12.71246094 4.43013672 12.71246094 4.1875 11.375 C3.96126953 10.08722656 3.96126953 10.08722656 3.73046875 8.7734375 C2.92901259 5.34637621 2.92901259 5.34637621 0 0 Z " fill="#7FBACD" transform="translate(323,288)"/>
<path d="M0 0 C22.77 0 45.54 0 69 0 C69.12032643 18.26733438 69.12032643 18.26733438 69.14648438 26.06054688 C69.16441026 31.37598669 69.18560527 36.69127131 69.22631836 42.0065918 C69.25894044 46.29246025 69.27685904 50.57816224 69.28463173 54.86414528 C69.29017013 56.49840731 69.30098535 58.13266035 69.31719017 59.76685143 C69.33900272 62.05790186 69.34196539 64.34826654 69.34057617 66.6394043 C69.35056892 68.59465279 69.35056892 68.59465279 69.36076355 70.58940125 C68.9739526 74.24624784 68.27185812 76.13332313 66 79 C63.00632982 79.99789006 60.98611991 80.137985 57.85766602 80.16113281 C56.28572227 80.17554413 56.28572227 80.17554413 54.68202209 80.19024658 C53.55074387 80.19449646 52.41946564 80.19874634 51.25390625 80.203125 C50.09124741 80.20882507 48.92858856 80.21452515 47.73069763 80.22039795 C45.27026276 80.2298485 42.80981524 80.23638215 40.34936523 80.24023438 C36.58099403 80.24995231 32.81316532 80.28098101 29.04492188 80.3125 C26.65625324 80.3190288 24.26758071 80.32427975 21.87890625 80.328125 C20.74965225 80.3404718 19.62039825 80.3528186 18.45692444 80.36553955 C17.40580978 80.36253845 16.35469513 80.35953735 15.27172852 80.35644531 C13.88631615 80.36191376 13.88631615 80.36191376 12.47291565 80.36749268 C9.50107284 79.92585591 8.15358166 79.06933457 6 77 C4.99503148 73.98509443 4.89664697 71.95818308 4.9375 68.8125 C4.95103516 67.46091797 4.95103516 67.46091797 4.96484375 66.08203125 C4.97644531 65.39496094 4.98804688 64.70789063 5 64 C5.91523438 63.89042969 6.83046875 63.78085938 7.7734375 63.66796875 C8.96195312 63.50941406 10.15046875 63.35085937 11.375 63.1875 C12.55835938 63.03667969 13.74171875 62.88585937 14.9609375 62.73046875 C18.29532084 62.29300666 18.29532084 62.29300666 20 59 C20.33957563 54.92509248 20.31332486 53.46998729 18 50 C14.89188713 49.19458793 14.89188713 49.19458793 11.375 48.8125 C9.27125 48.544375 7.1675 48.27625 5 48 C5 42.72 5 37.44 5 32 C9.98046875 31.36523438 9.98046875 31.36523438 14.9609375 30.73046875 C18.29532084 30.29300666 18.29532084 30.29300666 20 27 C20.33957563 22.92509248 20.31332486 21.46998729 18 18 C14.89188713 17.19458793 14.89188713 17.19458793 11.375 16.8125 C9.59222656 16.57466797 9.59222656 16.57466797 7.7734375 16.33203125 C6.40058594 16.16767578 6.40058594 16.16767578 5 16 C4.89042969 15.34773437 4.78085937 14.69546875 4.66796875 14.0234375 C4.43013672 12.71246094 4.43013672 12.71246094 4.1875 11.375 C3.96126953 10.08722656 3.96126953 10.08722656 3.73046875 8.7734375 C2.92901259 5.34637621 2.92901259 5.34637621 0 0 Z " fill="#A6CFE0" transform="translate(323,136)"/>
<path d="M0 0 C73.92 0 147.84 0 224 0 C224 5.28 224 10.56 224 16 C150.08 16 76.16 16 0 16 C0 10.72 0 5.44 0 0 Z " fill="#79828A" transform="translate(240,232)"/>
<path d="M0 0 C15.84 0 31.68 0 48 0 C48 15.84 48 31.68 48 48 C32.16 48 16.32 48 0 48 C0 32.16 0 16.32 0 0 Z " fill="#7FBACD" transform="translate(48,264)"/>
<path d="M0 0 C22.77 0 45.54 0 69 0 C69 15.84 69 31.68 69 48 C63.88090583 46.97618117 59.97731046 45.34708237 55.3125 43.125 C54.06968262 42.53368286 54.06968262 42.53368286 52.80175781 41.93041992 C46.7782698 39.0002131 40.97317811 35.79116513 35.25 32.3125 C34.16199097 31.65435303 34.16199097 31.65435303 33.05200195 30.98291016 C27.32529365 27.41645718 21.7789148 23.6683722 18 18 C14.89188713 17.19458793 14.89188713 17.19458793 11.375 16.8125 C9.59222656 16.57466797 9.59222656 16.57466797 7.7734375 16.33203125 C6.40058594 16.16767578 6.40058594 16.16767578 5 16 C4.89042969 15.34773438 4.78085937 14.69546875 4.66796875 14.0234375 C4.43013672 12.71246094 4.43013672 12.71246094 4.1875 11.375 C3.96126953 10.08722656 3.96126953 10.08722656 3.73046875 8.7734375 C2.92901259 5.34637621 2.92901259 5.34637621 0 0 Z " fill="#A6CFE0" transform="translate(323,288)"/>
<path d="M0 0 C1.46373047 0.06767578 1.46373047 0.06767578 2.95703125 0.13671875 C3.69308594 0.19472656 4.42914063 0.25273438 5.1875 0.3125 C5.20208252 1.43930176 5.21666504 2.56610352 5.23168945 3.72705078 C5.6923436 36.71050715 7.1502947 68.78318453 19.3046875 99.93359375 C20.1875 102.3125 20.1875 102.3125 20.1875 104.3125 C9.9575 104.3125 -0.2725 104.3125 -10.8125 104.3125 C-10.92543065 91.49087472 -11.01717609 78.66957939 -11.07156086 65.84756947 C-11.09766194 59.89387864 -11.13307029 53.9405455 -11.18969727 47.98706055 C-11.24399735 42.2423062 -11.27391668 36.49789605 -11.28688622 30.75290489 C-11.29612958 28.56039701 -11.31417971 26.36790812 -11.34115028 24.17554665 C-11.37741304 21.10595521 -11.38244638 18.03778852 -11.38012695 14.96801758 C-11.39810333 14.06027084 -11.41607971 13.15252411 -11.43460083 12.2172699 C-11.39801695 7.74696109 -11.25817168 5.89414705 -8.45793152 2.23954773 C-5.32768912 -0.04065739 -3.82030095 -0.23013861 0 0 Z " fill="#CDCDCD" transform="translate(250.8125,111.6875)"/>
<path d="M0 0 C4.21127298 0.87734854 5.4268733 2.16339038 8 5.625 C8.74036183 9.36464235 8.66243691 13.05188369 8.61523438 16.85351562 C8.62078339 17.98738205 8.6263324 19.12124847 8.63204956 20.28947449 C8.64385939 24.03716297 8.61955491 27.78364608 8.59375 31.53125 C8.59203922 34.13529403 8.59210425 36.73933979 8.59387207 39.34338379 C8.59381854 44.80084864 8.57408623 50.25796682 8.54199219 55.71533203 C8.50510083 62.01896607 8.49631698 68.32214613 8.5032897 74.62587404 C8.50960165 80.69732277 8.49861409 86.76859127 8.47932434 92.8400116 C8.47228956 95.42041769 8.46917038 98.00083751 8.47001648 100.58125305 C8.4682202 104.1865827 8.44685146 107.79126632 8.41992188 111.39648438 C8.42285248 112.46468918 8.42578308 113.53289398 8.42880249 114.63346863 C8.32358153 123.75683528 8.32358153 123.75683528 5 127.625 C2.19084526 129.02957737 0.11189466 128.87395157 -3 128.625 C-6.1359157 126.84515595 -6.84102736 126.10191793 -8 122.625 C-8.09965472 121.03766747 -8.14351712 119.44653341 -8.15390015 117.85610962 C-8.16250061 116.8747554 -8.17110107 115.89340118 -8.17996216 114.88230896 C-8.18635208 113.26921593 -8.18635208 113.26921593 -8.19287109 111.62353516 C-8.20104858 110.48996078 -8.20922607 109.35638641 -8.21765137 108.1884613 C-8.24250232 104.43033377 -8.25901857 100.67224394 -8.2734375 96.9140625 C-8.27876118 95.63224468 -8.28408485 94.35042686 -8.28956985 93.02976608 C-8.31079583 87.64416674 -8.32992669 82.25857968 -8.34119225 76.8729496 C-8.35743639 69.15867648 -8.39063472 61.44490658 -8.44759309 53.73082316 C-8.49096127 47.64981982 -8.50693686 41.56901397 -8.51332474 35.48786545 C-8.52005399 32.90183297 -8.53531909 30.3158083 -8.55921555 27.72987747 C-8.59072435 24.11461055 -8.59092481 20.50062126 -8.58349609 16.88525391 C-8.59990143 15.81390701 -8.61630676 14.74256012 -8.63320923 13.63874817 C-8.57216548 6.39586348 -8.57216548 6.39586348 -5.65103149 2.46029663 C-3 0.625 -3 0.625 0 0 Z " fill="#E4E4E4" transform="translate(184,207.375)"/>
<path d="M0 0 C6.06343563 3.8805988 10.95667407 9.08758162 13.1875 16 C14.28146397 24.39553743 12.81376604 31.28126393 7.64453125 38.0078125 C2.96879743 43.12223073 -1.62616785 45.51037051 -8.484375 46.3125 C-14.78354151 46.5909162 -19.72160615 45.8531501 -24.8125 42 C-30.94998905 36.1959359 -34.90461478 30.73804388 -35.25 22.125 C-35.02618613 15.15233713 -33.53760694 10.85729496 -28.71875 5.8046875 C-20.54144386 -1.80020721 -10.69057161 -5.44614025 0 0 Z " fill="#A4CCDD" transform="translate(82.8125,170)"/>
<path d="M0 0 C6.86988073 1.14498012 12.97868562 2.16903206 19.5625 3.9375 C31.47579335 6.95885344 43.79594234 7.82910113 56 9 C56.0355571 10.60270342 56.06094912 12.20563458 56.08203125 13.80859375 C56.10487183 15.14748657 56.10487183 15.14748657 56.12817383 16.51342773 C55.96212658 19.73474429 55.1119095 21.57521502 53 24 C50.02118573 24.99293809 48.08512761 25.12119785 44.9777832 25.11352539 C43.95695145 25.11344986 42.93611969 25.11337433 41.88435364 25.11329651 C40.78427475 25.10813522 39.68419586 25.10297394 38.55078125 25.09765625 C37.4230278 25.0962413 36.29527435 25.09482635 35.13334656 25.09336853 C31.52637088 25.0877647 27.91945696 25.07521153 24.3125 25.0625 C21.86914152 25.05748549 19.42578207 25.0529225 16.98242188 25.04882812 C10.98823824 25.03864433 4.99418836 25.01906953 -1 25 C-0.67 16.75 -0.34 8.5 0 0 Z " fill="#CDCDCD" transform="translate(408,343)"/>
<path d="M0 0 C12.87 0 25.74 0 39 0 C41.64 5.28 44.28 10.56 47 16 C31.49 16 15.98 16 0 16 C0 10.72 0 5.44 0 0 Z " fill="#5D6972" transform="translate(240,232)"/>
<path d="M0 0 C10.56 0 21.12 0 32 0 C32 11.55555556 32 11.55555556 29 15 C24.56039131 16.47986956 20.21322847 16.22497927 15.5625 16.25 C14.13067383 16.2809375 14.13067383 16.2809375 12.66992188 16.3125 C11.74888672 16.31765625 10.82785156 16.3228125 9.87890625 16.328125 C9.0391626 16.3374707 8.19941895 16.34681641 7.33422852 16.35644531 C4.44742792 15.9156202 3.1057398 14.99722064 1 13 C0 10 0 10 0 0 Z " fill="#5D6972" transform="translate(432,416)"/>
<path d="M0 0 C10.56 0 21.12 0 32 0 C32 11.55555556 32 11.55555556 29 15 C24.56039131 16.47986956 20.21322847 16.22497927 15.5625 16.25 C14.13067383 16.2809375 14.13067383 16.2809375 12.66992188 16.3125 C11.74888672 16.31765625 10.82785156 16.3228125 9.87890625 16.328125 C9.0391626 16.3374707 8.19941895 16.34681641 7.33422852 16.35644531 C4.44742792 15.9156202 3.1057398 14.99722064 1 13 C0 10 0 10 0 0 Z " fill="#5D6972" transform="translate(48,416)"/>
<path d="M0 0 C1.47726562 -0.02900391 1.47726562 -0.02900391 2.984375 -0.05859375 C7.77512201 -0.02622384 10.22682286 0.04751534 14.1484375 2.9765625 C16 5.625 16 5.625 16.625 8.625 C15.74952595 12.82727546 14.44619808 14.05104064 11 16.625 C7.31963136 17.36573147 3.74267136 17.32348177 0 17.25 C-1.47726562 17.27900391 -1.47726562 17.27900391 -2.984375 17.30859375 C-7.77512201 17.27622384 -10.22682286 17.20248466 -14.1484375 14.2734375 C-16 11.625 -16 11.625 -16.625 8.625 C-14.75456808 -0.3530732 -7.60103253 -0.14923493 0 0 Z " fill="#FEFEFE" transform="translate(448,111.375)"/>
<path d="M0 0 C0.93714844 -0.00257813 1.87429687 -0.00515625 2.83984375 -0.0078125 C7.80437377 0.06260637 11.52949427 0.18039685 15.5 3.5 C16.90457737 6.30915474 16.74895157 8.38810534 16.5 11.5 C14.72015595 14.6359157 13.97691793 15.34102736 10.5 16.5 C7.04690178 16.8042547 3.58992872 16.8234943 0.125 16.875 C-0.82117188 16.91238281 -1.76734375 16.94976562 -2.7421875 16.98828125 C-7.46883931 17.04802825 -9.74297641 17.06587514 -13.625 14.1640625 C-15.5 11.5 -15.5 11.5 -16.125 8.5 C-14.28929376 -0.31138993 -7.47902301 -0.22632532 0 0 Z " fill="#020303" transform="translate(71.5,271.5)"/>
<path d="M0 0 C4.0299485 0.85743585 5.50679333 2.33639686 7.9375 5.625 C8.6875 8.4375 8.6875 8.4375 7.9375 11.625 C5.8904128 14.59620085 3.50496368 17.09903068 0.9375 19.625 C0.41285156 20.15996094 -0.11179687 20.69492188 -0.65234375 21.24609375 C-3.07206061 23.51177028 -4.86623589 24.5849461 -8.125 25.25 C-12.1549485 24.39256415 -13.63179333 22.91360314 -16.0625 19.625 C-16.8125 16.8125 -16.8125 16.8125 -16.0625 13.625 C-14.0154128 10.65379915 -11.62996368 8.15096932 -9.0625 5.625 C-8.53785156 5.09003906 -8.01320313 4.55507812 -7.47265625 4.00390625 C-5.05293939 1.73822972 -3.25876411 0.6650539 0 0 Z " fill="#050607" transform="translate(80.0625,175.375)"/>
<path d="M0 0 C10.56 0 21.12 0 32 0 C30 6 30 6 28.17773438 7.35620117 C24.01774169 8.58601067 19.80534044 8.32710428 15.5 8.3125 C14.54996094 8.32861328 13.59992188 8.34472656 12.62109375 8.36132812 C11.70457031 8.36197266 10.78804688 8.36261719 9.84375 8.36328125 C8.59368164 8.36775269 8.59368164 8.36775269 7.31835938 8.37231445 C4.39119399 7.90222945 3.07606997 7.1114968 1 5 C0.67 3.35 0.34 1.7 0 0 Z " fill="#788088" transform="translate(432,424)"/>
<path d="M0 0 C10.56 0 21.12 0 32 0 C30 6 30 6 28.17773438 7.35620117 C24.01774169 8.58601067 19.80534044 8.32710428 15.5 8.3125 C14.54996094 8.32861328 13.59992187 8.34472656 12.62109375 8.36132812 C11.70457031 8.36197266 10.78804687 8.36261719 9.84375 8.36328125 C8.59368164 8.36775269 8.59368164 8.36775269 7.31835938 8.37231445 C4.39119399 7.90222945 3.07606997 7.1114968 1 5 C0.67 3.35 0.34 1.7 0 0 Z " fill="#788088" transform="translate(48,424)"/>
<path d="M0 0 C2.63014028 1.31507014 2.75008495 2.41075951 3.8046875 5.12109375 C4.14113281 5.97509766 4.47757813 6.82910156 4.82421875 7.70898438 C5.34435547 9.05959961 5.34435547 9.05959961 5.875 10.4375 C6.21402344 11.30310547 6.55304687 12.16871094 6.90234375 13.06054688 C7.5880739 14.811375 8.27133749 16.56317115 8.95214844 18.31591797 C10.60707132 22.55501912 12.3028857 26.77764773 14 31 C7.32862021 28.50114061 4.09304531 23.97077399 0.0625 18.25 C-1.82717956 12.4698037 -1.92873702 5.78621105 0 0 Z " fill="#7CB4C6" transform="translate(49,183)"/>
<path d="M0 0 C1.33617352 0.97528737 2.6688751 1.95533319 4 2.9375 C4.7425 3.48277344 5.485 4.02804687 6.25 4.58984375 C6.8275 5.05519531 7.405 5.52054687 8 6 C8 6.33 8 6.66 8 7 C5.36 7 2.72 7 0 7 C0 4.69 0 2.38 0 0 Z " fill="#81BCCE" transform="translate(328,297)"/>
</svg>
