<?xml version="1.0" encoding="UTF-8"?>
<svg xmlns="http://www.w3.org/2000/svg" xmlns:xlink="http://www.w3.org/1999/xlink" width="48pt" height="48pt" viewBox="0 0 48 48" version="1.1">
<g id="surface1">
<path style=" stroke:none;fill-rule:nonzero;fill:#EF4823;fill-opacity:1;" d="M 29.738281 31.574219 C 29.34375 30.945313 28.855469 30.394531 28.351563 29.867188 C 27.871094 29.382813 27.375 28.914063 26.886719 28.425781 C 26.136719 27.675781 25.460938 26.839844 24.710938 26.089844 C 23.625 25.003906 22.5 23.953125 21.414063 22.867188 C 20.851563 22.304688 20.289063 21.730469 19.761719 21.132813 C 19.359375 20.671875 18.992188 20.164063 18.542969 19.753906 C 17.886719 19.152344 16.941406 18.628906 16.058594 19.097656 C 15.75 19.257813 15.167969 19.59375 15.179688 20.015625 C 15.179688 20.410156 15.496094 20.671875 15.816406 20.867188 C 15.910156 20.925781 15.976563 21.007813 16.023438 21.085938 C 17.867188 22.585938 19.507813 24.320313 21.113281 26.070313 C 22.339844 27.414063 23.625 28.707031 24.722656 30.160156 C 25.539063 31.226563 26.363281 32.390625 27.46875 33.179688 C 27.890625 33.476563 28.40625 33.730469 28.929688 33.675781 C 29.351563 33.628906 29.898438 33.355469 30.066406 32.960938 C 30.253906 32.539063 29.980469 31.96875 29.738281 31.574219 Z "/>
<path style=" stroke:none;fill-rule:nonzero;fill:#FEBF10;fill-opacity:1;" d="M 24.9375 32.101563 C 24.429688 31.492188 23.960938 30.84375 23.484375 30.226563 C 22.847656 29.398438 22.097656 28.667969 21.394531 27.898438 C 19.367188 25.679688 17.34375 23.4375 14.972656 21.5625 C 14.914063 21.515625 14.867188 21.46875 14.839844 21.414063 C 14.820313 21.394531 14.804688 21.382813 14.785156 21.367188 C 13.632813 22.5 12.628906 23.765625 11.550781 24.964844 C 10.539063 26.089844 9.382813 27.027344 8.316406 28.085938 C 7.78125 28.621094 7.21875 29.089844 6.648438 29.570313 C 6.320313 29.839844 5.457031 30.414063 5.53125 30.917969 C 5.578125 31.210938 6.085938 31.480469 6.28125 31.648438 C 6.507813 31.847656 6.710938 32.054688 6.882813 32.296875 C 6.917969 32.257813 6.945313 32.222656 6.976563 32.195313 C 7.460938 31.621094 7.960938 31.058594 8.492188 30.542969 C 8.972656 30.085938 9.742188 30.777344 9.261719 31.238281 C 8.839844 31.640625 8.457031 32.070313 8.070313 32.511719 C 7.835938 32.773438 7.601563 33.046875 7.386719 33.328125 C 7.378906 33.335938 7.367188 33.347656 7.359375 33.367188 C 7.453125 33.683594 7.539063 33.992188 7.667969 34.292969 C 7.894531 34.789063 8.304688 34.941406 8.8125 35.054688 C 9.28125 35.164063 9.675781 35.335938 9.976563 35.671875 C 10.246094 35.351563 10.519531 35.035156 10.808594 34.726563 C 11.773438 33.675781 12.5625 32.503906 13.679688 31.59375 C 14.195313 31.171875 14.738281 32.042969 14.230469 32.464844 C 13.238281 33.28125 12.554688 34.359375 11.699219 35.289063 C 11.410156 35.605469 11.117188 35.925781 10.835938 36.253906 C 10.726563 36.382813 10.613281 36.523438 10.5 36.65625 C 10.453125 36.722656 10.425781 36.757813 10.40625 36.777344 C 10.433594 36.984375 10.453125 37.199219 10.507813 37.398438 C 10.566406 37.613281 10.667969 37.761719 10.800781 37.894531 C 10.855469 37.828125 10.941406 37.78125 11.042969 37.753906 C 10.855469 37.800781 11.015625 37.753906 11.109375 37.640625 C 11.222656 37.519531 11.335938 37.386719 11.4375 37.257813 C 11.597656 37.058594 11.765625 36.863281 11.90625 36.648438 C 12.214844 36.179688 12.675781 35.765625 13.050781 35.34375 C 13.40625 34.941406 13.761719 34.546875 14.117188 34.144531 C 15.664063 32.410156 16.996094 30.507813 18.695313 28.894531 C 19.171875 28.433594 19.941406 29.128906 19.460938 29.585938 C 17.691406 31.285156 16.285156 33.28125 14.652344 35.101563 C 13.960938 35.878906 13.210938 36.628906 12.582031 37.460938 C 12.402344 37.695313 12.179688 38.0625 11.914063 38.34375 C 12.214844 38.417969 12.515625 38.492188 12.777344 38.632813 C 12.804688 38.652344 12.824219 38.664063 12.851563 38.679688 C 15.226563 36.335938 16.949219 33.421875 19.433594 31.171875 C 19.632813 30.992188 19.960938 30.917969 20.164063 31.132813 L 20.230469 31.199219 C 20.410156 31.386719 20.484375 31.726563 20.269531 31.929688 L 20.128906 32.0625 C 20.035156 32.148438 19.941406 32.195313 19.835938 32.203125 C 17.523438 34.425781 15.835938 37.21875 13.527344 39.460938 C 13.601563 39.617188 13.6875 39.777344 13.78125 39.796875 C 14.054688 39.84375 14.484375 39.347656 14.664063 39.179688 C 15.648438 38.222656 16.820313 37.5 17.820313 36.5625 C 18.300781 36.113281 19.070313 36.789063 18.589844 37.257813 C 17.878906 37.949219 17.371094 38.8125 16.820313 39.628906 C 16.445313 40.171875 15.945313 40.726563 15.617188 41.324219 C 15.890625 41.398438 16.144531 41.511719 16.359375 41.671875 C 16.714844 41.089844 17.324219 40.566406 17.691406 40.085938 C 17.960938 39.742188 18.226563 39.335938 18.582031 39.066406 C 18.964844 38.765625 19.480469 39.007813 19.507813 39.488281 C 19.527344 39.796875 19.320313 39.964844 19.078125 40.003906 C 19.050781 40.03125 19.03125 40.058594 19.003906 40.085938 C 18.910156 40.199219 18.816406 40.3125 18.722656 40.425781 C 18.554688 40.632813 18.394531 40.855469 18.226563 41.054688 C 18.019531 41.296875 17.804688 41.539063 17.597656 41.792969 C 17.445313 41.960938 17.101563 42.300781 17.101563 42.542969 C 17.101563 42.675781 17.0625 42.789063 16.996094 42.871094 C 17.007813 43.257813 16.914063 43.800781 17.210938 44.015625 C 17.398438 44.15625 17.699219 44.070313 17.945313 43.960938 C 17.664063 43.820313 17.492188 43.453125 17.785156 43.179688 C 18.027344 42.957031 18.195313 42.582031 18.394531 42.308594 C 18.628906 41.992188 18.863281 41.671875 19.105469 41.363281 C 19.59375 40.714844 20.007813 40.023438 20.476563 39.355469 C 21.308594 38.15625 21.898438 36.75 23.023438 35.773438 C 23.523438 35.34375 24.289063 36.039063 23.792969 36.46875 C 22.640625 37.460938 21.929688 38.960938 21.140625 40.238281 C 20.726563 40.914063 20.25 41.550781 19.773438 42.1875 C 19.539063 42.507813 19.292969 42.816406 19.070313 43.132813 C 18.984375 43.257813 18.910156 43.398438 18.824219 43.527344 C 18.804688 43.601563 18.757813 43.679688 18.683594 43.753906 L 18.648438 43.789063 C 18.75 43.828125 18.84375 43.894531 18.910156 43.996094 C 19.03125 44.183594 19.171875 44.34375 19.304688 44.511719 C 19.398438 44.390625 19.5 44.289063 19.59375 44.195313 C 19.988281 43.78125 20.296875 43.257813 20.644531 42.804688 C 21.449219 41.792969 22.273438 40.789063 23.054688 39.757813 C 24.441406 37.902344 25.339844 35.710938 27.074219 34.132813 C 26.222656 33.617188 25.527344 32.820313 24.9375 32.101563 Z "/>
<path style=" stroke:none;fill-rule:nonzero;fill:#EF4823;fill-opacity:1;" d="M 29.699219 25.867188 C 28.726563 24.308594 27.710938 22.726563 26.457031 21.375 C 25.246094 20.070313 23.820313 18.984375 22.03125 18.664063 C 21.207031 18.515625 20.324219 18.429688 19.492188 18.5625 C 19.285156 18.589844 19.058594 18.628906 18.835938 18.65625 C 19.695313 19.332031 20.324219 20.25 21.074219 21.046875 C 22.125 22.164063 23.25 23.222656 24.347656 24.289063 C 25.78125 25.6875 27.09375 27.1875 28.519531 28.59375 C 28.949219 29.015625 29.4375 29.484375 29.878906 29.992188 C 30.085938 29.34375 30.320313 28.695313 30.375 28.023438 C 30.46875 27.179688 30.121094 26.550781 29.699219 25.867188 Z "/>
<path style=" stroke:none;fill-rule:nonzero;fill:#EF4823;fill-opacity:1;" d="M 42.085938 7.085938 C 40.667969 5.832031 38.4375 5.757813 36.824219 6.695313 C 34.378906 8.109375 33.273438 10.820313 31.855469 13.132813 C 30.347656 15.589844 28.40625 17.726563 26.242188 19.621094 C 26.222656 19.640625 26.203125 19.648438 26.175781 19.667969 C 26.671875 20.101563 27.132813 20.578125 27.554688 21.085938 C 27.917969 21.515625 28.273438 21.964844 28.613281 22.425781 C 30.871094 20.429688 33.300781 18.601563 35.992188 17.210938 C 38.164063 16.097656 40.855469 15.007813 42.242188 12.871094 C 43.339844 11.183594 43.742188 8.558594 42.085938 7.085938 Z "/>
<path style=" stroke:none;fill-rule:nonzero;fill:#000000;fill-opacity:1;" d="M 43.941406 8.0625 C 43.285156 6.226563 41.511719 5.210938 39.648438 5.042969 C 36.289063 4.742188 33.964844 7.472656 32.417969 10.078125 C 31.472656 11.664063 30.609375 13.265625 29.484375 14.738281 C 28.304688 16.273438 26.925781 17.652344 25.460938 18.929688 C 25.425781 18.964844 25.398438 18.992188 25.367188 19.03125 C 24.675781 18.535156 23.925781 18.140625 23.101563 17.867188 C 22.210938 17.585938 21.261719 17.492188 20.335938 17.476563 C 19.902344 17.464844 19.492188 17.523438 19.058594 17.585938 C 18.710938 17.632813 18.253906 17.738281 17.945313 17.539063 C 17.585938 17.316406 17.269531 17.605469 17.222656 17.933594 C 16.726563 17.859375 16.210938 17.914063 15.730469 18.113281 C 14.898438 18.460938 14.042969 19.238281 14.136719 20.222656 C 14.148438 20.316406 14.164063 20.398438 14.183594 20.484375 C 13.085938 21.535156 12.121094 22.714844 11.128906 23.859375 C 10.132813 25.003906 9.039063 26.007813 7.921875 27.019531 C 7.398438 27.507813 6.910156 28.011719 6.347656 28.460938 C 5.773438 28.921875 5.164063 29.390625 4.753906 30 C 4.171875 30.851563 4.632813 31.640625 5.324219 32.210938 C 5.664063 32.484375 6 32.757813 6.1875 33.160156 C 6.054688 33.421875 6.007813 33.695313 6.148438 33.929688 C 6.242188 34.085938 6.382813 34.164063 6.523438 34.164063 C 6.582031 34.332031 6.636719 34.5 6.710938 34.667969 C 6.929688 35.148438 7.246094 35.503906 7.707031 35.746094 C 8.175781 36.007813 8.867188 35.925781 9.226563 36.355469 C 9.375 36.535156 9.367188 36.84375 9.382813 37.058594 C 9.414063 37.3125 9.476563 37.554688 9.542969 37.800781 C 9.683594 38.304688 10.039063 38.691406 10.492188 38.933594 C 10.875 39.140625 11.335938 39.214844 11.757813 39.328125 C 11.972656 39.382813 12.179688 39.46875 12.375 39.570313 C 12.582031 39.683594 12.683594 40.070313 12.816406 40.265625 C 13.5 41.296875 14.585938 40.574219 15.261719 39.964844 C 14.898438 40.472656 14.558594 40.988281 14.363281 41.578125 C 14.277344 41.820313 14.492188 42.167969 14.757813 42.195313 C 15.261719 42.242188 15.816406 42.289063 15.957031 42.851563 C 16.023438 43.125 15.957031 43.433594 15.984375 43.707031 C 16.011719 43.960938 16.097656 44.183594 16.21875 44.417969 C 16.632813 45.214844 17.558594 45.148438 18.289063 44.878906 C 18.347656 44.933594 18.394531 45 18.441406 45.066406 C 18.289063 45.441406 18.570313 45.957031 19.03125 45.75 C 19.070313 45.730469 19.179688 45.710938 19.226563 45.695313 C 19.339844 45.648438 19.425781 45.570313 19.492188 45.488281 C 19.566406 45.496094 19.640625 45.496094 19.726563 45.46875 C 19.867188 45.414063 19.960938 45.335938 20.0625 45.234375 C 20.148438 45.160156 20.195313 45.074219 20.210938 44.992188 C 20.289063 44.898438 20.371094 44.8125 20.445313 44.710938 C 20.792969 44.25 21.132813 43.789063 21.488281 43.339844 C 22.257813 42.375 23.015625 41.398438 23.785156 40.433594 C 25.238281 38.605469 26.042969 36.261719 27.882813 34.734375 C 27.945313 34.6875 27.984375 34.621094 28.023438 34.566406 C 28.246094 34.632813 28.480469 34.667969 28.726563 34.6875 C 29.4375 34.726563 30.1875 34.351563 30.675781 33.84375 C 31.132813 33.367188 31.210938 32.710938 31.070313 32.089844 C 30.964844 31.632813 30.757813 31.191406 30.488281 30.777344 C 30.628906 30.722656 30.742188 30.617188 30.796875 30.441406 C 31.285156 28.847656 31.789063 27.300781 30.84375 25.761719 C 30.320313 24.910156 29.773438 24.054688 29.203125 23.230469 C 31.359375 21.320313 33.675781 19.59375 36.214844 18.226563 C 38.371094 17.070313 40.679688 16.105469 42.394531 14.296875 C 43.929688 12.703125 44.699219 10.199219 43.941406 8.0625 Z M 23.035156 39.757813 C 22.265625 40.800781 21.429688 41.792969 20.625 42.804688 C 20.269531 43.257813 19.96875 43.78125 19.574219 44.195313 C 19.480469 44.289063 19.378906 44.398438 19.285156 44.511719 C 19.152344 44.34375 19.011719 44.183594 18.890625 43.996094 C 18.824219 43.894531 18.730469 43.820313 18.628906 43.789063 L 18.664063 43.753906 C 18.742188 43.679688 18.789063 43.601563 18.804688 43.527344 C 18.890625 43.398438 18.964844 43.257813 19.050781 43.132813 C 19.273438 42.816406 19.519531 42.496094 19.753906 42.1875 C 20.230469 41.550781 20.710938 40.914063 21.121094 40.238281 C 21.910156 38.960938 22.621094 37.460938 23.773438 36.46875 C 24.28125 36.039063 23.511719 35.34375 23.007813 35.773438 C 21.871094 36.75 21.289063 38.148438 20.457031 39.355469 C 19.996094 40.023438 19.585938 40.714844 19.085938 41.363281 C 18.851563 41.679688 18.609375 41.992188 18.375 42.308594 C 18.179688 42.582031 18.007813 42.957031 17.765625 43.179688 C 17.476563 43.460938 17.644531 43.820313 17.925781 43.960938 C 17.679688 44.0625 17.390625 44.15625 17.195313 44.015625 C 16.894531 43.800781 16.988281 43.257813 16.976563 42.871094 C 17.042969 42.789063 17.082031 42.683594 17.082031 42.542969 C 17.070313 42.300781 17.429688 41.972656 17.578125 41.792969 C 17.785156 41.550781 18 41.304688 18.207031 41.054688 C 18.375 40.847656 18.535156 40.632813 18.703125 40.425781 C 18.796875 40.3125 18.890625 40.199219 18.984375 40.085938 C 19.011719 40.058594 19.03125 40.03125 19.058594 40.003906 C 19.292969 39.976563 19.507813 39.796875 19.492188 39.488281 C 19.453125 39.007813 18.945313 38.765625 18.5625 39.066406 C 18.207031 39.335938 17.945313 39.730469 17.671875 40.085938 C 17.304688 40.566406 16.695313 41.089844 16.339844 41.671875 C 16.125 41.511719 15.871094 41.398438 15.601563 41.324219 C 15.929688 40.726563 16.425781 40.171875 16.800781 39.628906 C 17.363281 38.8125 17.859375 37.949219 18.570313 37.257813 C 19.050781 36.789063 18.289063 36.113281 17.804688 36.5625 C 16.800781 37.5 15.617188 38.222656 14.644531 39.179688 C 14.476563 39.347656 14.035156 39.84375 13.761719 39.796875 C 13.667969 39.777344 13.574219 39.617188 13.507813 39.460938 C 15.816406 37.21875 17.492188 34.425781 19.820313 32.203125 C 19.921875 32.195313 20.023438 32.148438 20.109375 32.0625 L 20.25 31.929688 C 20.464844 31.726563 20.390625 31.398438 20.210938 31.199219 L 20.148438 31.132813 C 19.941406 30.917969 19.613281 30.992188 19.414063 31.171875 C 16.941406 33.421875 15.214844 36.335938 12.835938 38.679688 C 12.804688 38.664063 12.789063 38.652344 12.757813 38.632813 C 12.507813 38.492188 12.207031 38.417969 11.898438 38.34375 C 12.160156 38.0625 12.394531 37.695313 12.5625 37.460938 C 13.179688 36.628906 13.929688 35.878906 14.632813 35.101563 C 16.265625 33.28125 17.671875 31.273438 19.445313 29.585938 C 19.921875 29.128906 19.164063 28.433594 18.675781 28.894531 C 16.988281 30.507813 15.65625 32.410156 14.101563 34.144531 C 13.742188 34.539063 13.386719 34.941406 13.03125 35.34375 C 12.65625 35.765625 12.195313 36.179688 11.886719 36.648438 C 11.746094 36.863281 11.578125 37.058594 11.417969 37.257813 C 11.316406 37.386719 11.203125 37.519531 11.089844 37.640625 C 10.996094 37.742188 10.835938 37.800781 11.023438 37.753906 C 10.921875 37.78125 10.835938 37.828125 10.78125 37.894531 C 10.648438 37.773438 10.554688 37.613281 10.492188 37.398438 C 10.433594 37.199219 10.414063 36.984375 10.386719 36.777344 C 10.398438 36.757813 10.425781 36.710938 10.480469 36.65625 C 10.59375 36.515625 10.707031 36.382813 10.820313 36.253906 C 11.101563 35.925781 11.382813 35.605469 11.679688 35.289063 C 12.542969 34.359375 13.226563 33.273438 14.210938 32.464844 C 14.71875 32.054688 14.175781 31.171875 13.660156 31.59375 C 12.542969 32.503906 11.757813 33.675781 10.789063 34.726563 C 10.507813 35.035156 10.226563 35.351563 9.957031 35.671875 C 9.65625 35.335938 9.261719 35.164063 8.792969 35.054688 C 8.296875 34.929688 7.875 34.789063 7.648438 34.292969 C 7.519531 33.992188 7.433594 33.675781 7.339844 33.367188 C 7.351563 33.355469 7.359375 33.347656 7.367188 33.328125 C 7.585938 33.046875 7.820313 32.785156 8.054688 32.511719 C 8.4375 32.082031 8.820313 31.640625 9.242188 31.238281 C 9.722656 30.777344 8.953125 30.085938 8.476563 30.542969 C 7.929688 31.058594 7.433594 31.632813 6.957031 32.195313 C 6.929688 32.230469 6.898438 32.257813 6.863281 32.296875 C 6.695313 32.0625 6.496094 31.847656 6.261719 31.648438 C 6.054688 31.480469 5.558594 31.210938 5.511719 30.917969 C 5.4375 30.414063 6.300781 29.839844 6.628906 29.570313 C 7.199219 29.089844 7.761719 28.621094 8.296875 28.085938 C 9.355469 27.019531 10.519531 26.089844 11.53125 24.964844 C 12.609375 23.765625 13.613281 22.5 14.765625 21.367188 C 14.785156 21.382813 14.804688 21.394531 14.820313 21.414063 C 14.851563 21.46875 14.898438 21.515625 14.953125 21.5625 C 17.324219 23.429688 19.339844 25.679688 21.375 27.898438 C 22.078125 28.667969 22.828125 29.398438 23.464844 30.226563 C 23.953125 30.851563 24.421875 31.492188 24.917969 32.101563 C 25.519531 32.820313 26.210938 33.617188 27.039063 34.132813 C 25.320313 35.710938 24.421875 37.902344 23.035156 39.757813 Z M 30.074219 32.953125 C 29.898438 33.347656 29.351563 33.617188 28.941406 33.664063 C 28.414063 33.722656 27.890625 33.46875 27.476563 33.167969 C 26.363281 32.382813 25.546875 31.226563 24.730469 30.148438 C 23.632813 28.695313 22.339844 27.402344 21.121094 26.0625 C 19.519531 24.308594 17.878906 22.585938 16.03125 21.074219 C 15.992188 20.992188 15.929688 20.914063 15.824219 20.859375 C 15.507813 20.664063 15.195313 20.410156 15.1875 20.007813 C 15.1875 19.585938 15.769531 19.246094 16.070313 19.085938 C 16.949219 18.617188 17.898438 19.144531 18.554688 19.742188 C 19.003906 20.15625 19.367188 20.664063 19.773438 21.121094 C 20.296875 21.722656 20.859375 22.292969 21.421875 22.855469 C 22.507813 23.945313 23.632813 24.984375 24.722656 26.082031 C 25.472656 26.832031 26.136719 27.664063 26.898438 28.414063 C 27.382813 28.902344 27.882813 29.363281 28.359375 29.859375 C 28.875 30.382813 29.363281 30.9375 29.746094 31.566406 C 29.980469 31.96875 30.253906 32.539063 30.074219 32.953125 Z M 29.699219 25.867188 C 30.132813 26.550781 30.46875 27.179688 30.394531 28.023438 C 30.328125 28.695313 30.101563 29.351563 29.898438 29.992188 C 29.457031 29.484375 28.960938 29.015625 28.539063 28.59375 C 27.113281 27.1875 25.800781 25.6875 24.367188 24.289063 C 23.257813 23.222656 22.144531 22.164063 21.09375 21.046875 C 20.34375 20.25 19.707031 19.339844 18.851563 18.65625 C 19.078125 18.628906 19.304688 18.589844 19.507813 18.5625 C 20.34375 18.441406 21.214844 18.515625 22.050781 18.664063 C 23.839844 18.984375 25.257813 20.070313 26.476563 21.375 C 27.710938 22.726563 28.726563 24.300781 29.699219 25.867188 Z M 42.253906 12.863281 C 40.867188 15 38.175781 16.085938 36 17.203125 C 33.308594 18.589844 30.890625 20.417969 28.621094 22.414063 C 28.285156 21.957031 27.929688 21.507813 27.5625 21.074219 C 27.132813 20.570313 26.671875 20.101563 26.183594 19.660156 C 26.203125 19.648438 26.222656 19.632813 26.25 19.613281 C 28.414063 17.71875 30.355469 15.582031 31.867188 13.125 C 33.28125 10.820313 34.386719 8.109375 36.835938 6.683594 C 38.445313 5.746094 40.679688 5.820313 42.09375 7.078125 C 43.742188 8.558594 43.339844 11.183594 42.253906 12.863281 Z "/>
</g>
</svg>
