<?xml version="1.0" encoding="UTF-8"?>
<svg xmlns="http://www.w3.org/2000/svg" xmlns:xlink="http://www.w3.org/1999/xlink" width="48pt" height="48pt" viewBox="0 0 48 48" version="1.1">
<g id="surface1">
<path style=" stroke:none;fill-rule:nonzero;fill:#127274;fill-opacity:1;" d="M 21.253906 15.308594 C 21.730469 15.320313 22.21875 15.335938 22.695313 15.308594 C 22.941406 15.300781 23.417969 15.300781 23.785156 15.195313 C 22.914063 14.746094 21.609375 14.4375 21.253906 15.308594 Z "/>
<path style=" stroke:none;fill-rule:nonzero;fill:#14B6B9;fill-opacity:1;" d="M 42.132813 38.175781 C 41.351563 37.105469 40.546875 36.054688 39.769531 34.988281 C 39.730469 35.089844 39.695313 35.183594 39.65625 35.277344 C 39.570313 35.476563 39.476563 35.671875 39.375 35.859375 C 40.835938 36.179688 40.875 38.578125 40.03125 39.648438 C 39.554688 40.246094 38.785156 40.800781 38.007813 40.882813 C 37.414063 40.941406 36.984375 40.6875 36.75 40.257813 C 36.609375 40.835938 36.664063 41.417969 37.058594 41.914063 C 37.554688 42.542969 38.363281 42.929688 39.160156 42.9375 C 40.59375 42.957031 42.449219 42.132813 42.84375 40.613281 C 43.097656 39.65625 42.683594 38.933594 42.132813 38.175781 Z "/>
<path style=" stroke:none;fill-rule:nonzero;fill:#127274;fill-opacity:1;" d="M 17.269531 7.023438 C 17.222656 6.984375 17.195313 6.976563 17.0625 6.910156 C 16.761719 6.777344 16.398438 6.703125 16.03125 6.636719 C 14.992188 6.449219 13.921875 6.367188 12.871094 6.300781 C 11.765625 6.234375 10.613281 6.28125 9.507813 6.101563 C 8.804688 5.992188 8.054688 5.972656 7.351563 6.101563 C 6.835938 6.207031 6.140625 6.429688 6.101563 7.050781 C 6.046875 7.894531 6.769531 8.710938 7.5 9.019531 C 8.371094 9.382813 9.355469 9.382813 10.285156 9.328125 C 11.390625 9.261719 12.476563 9.140625 13.585938 9.121094 C 14.820313 9.09375 16.070313 9.074219 17.25 8.691406 C 17.269531 8.230469 17.304688 7.761719 17.324219 7.304688 C 17.289063 7.226563 17.257813 7.125 17.269531 7.023438 Z "/>
<path style=" stroke:none;fill-rule:nonzero;fill:#D6E5E5;fill-opacity:1;" d="M 38.804688 36.871094 C 38.785156 36.871094 38.765625 36.882813 38.746094 36.882813 C 38.257813 37.585938 37.734375 38.257813 37.3125 38.992188 C 37.472656 39.054688 37.585938 39.1875 37.59375 39.414063 C 37.601563 39.824219 37.707031 39.945313 38.117188 39.804688 C 38.570313 39.648438 38.992188 39.355469 39.273438 38.960938 C 39.675781 38.398438 39.871094 36.695313 38.804688 36.871094 Z "/>
<path style=" stroke:none;fill-rule:nonzero;fill:#127274;fill-opacity:1;" d="M 18.65625 22.734375 C 18.507813 21.964844 18.429688 21.1875 18.289063 20.417969 C 18.160156 19.695313 17.980469 18.992188 18 18.253906 C 18.007813 17.878906 18.046875 17.484375 18.160156 17.117188 C 15.898438 17.445313 13.585938 17.503906 11.316406 17.445313 C 9.582031 17.410156 7.867188 16.902344 6.121094 17.007813 C 5.210938 17.0625 4.003906 17.289063 3.757813 18.335938 C 3.507813 19.433594 3.664063 20.632813 3.648438 21.75 C 3.636719 22.632813 3.570313 23.898438 4.332031 24.515625 C 4.894531 24.976563 5.671875 25.117188 6.382813 25.179688 C 8.015625 25.339844 9.636719 25.070313 11.269531 24.957031 C 13.882813 24.769531 16.492188 24.449219 19.105469 24.242188 C 18.898438 23.785156 18.757813 23.257813 18.65625 22.734375 Z "/>
<path style=" stroke:none;fill-rule:nonzero;fill:#127274;fill-opacity:1;" d="M 27.113281 19.976563 C 26.980469 19.085938 26.820313 18.195313 26.550781 17.335938 C 26.371094 16.789063 26.082031 15.757813 25.445313 15.570313 C 25.320313 15.535156 25.226563 15.46875 25.164063 15.382813 C 25.164063 15.382813 25.164063 15.382813 25.164063 15.394531 C 24.402344 16.601563 22.453125 16.367188 21.179688 16.339844 C 21.101563 16.445313 20.980469 16.519531 20.804688 16.527344 C 20.25 16.539063 19.554688 16.621094 19.265625 17.175781 C 19.023438 17.652344 19.003906 18.195313 19.050781 18.722656 C 19.105469 19.339844 19.257813 19.941406 19.359375 20.550781 C 19.453125 21.148438 19.527344 21.75 19.632813 22.339844 C 19.800781 23.296875 20.109375 24.804688 21.226563 25.105469 C 21.796875 25.257813 22.414063 25.351563 23.015625 25.367188 C 23.382813 25.378906 24 25.433594 24.402344 25.257813 C 24.449219 25.132813 24.542969 25.03125 24.722656 24.984375 C 25.21875 24.863281 25.753906 24.824219 26.230469 24.628906 C 26.726563 24.421875 26.972656 23.992188 27.101563 23.492188 C 27.414063 22.320313 27.289063 21.160156 27.113281 19.976563 Z "/>
<path style=" stroke:none;fill-rule:nonzero;fill:#127274;fill-opacity:1;" d="M 37.359375 5.960938 C 37.292969 5.597656 37.152344 5.25 36.777344 5.128906 C 36.234375 4.941406 35.503906 5.128906 34.960938 5.183594 C 33.394531 5.335938 31.882813 5.738281 30.335938 6.054688 C 29.710938 6.1875 29.070313 6.320313 28.460938 6.507813 C 28.273438 6.5625 28.078125 6.628906 27.898438 6.710938 C 27.863281 6.730469 27.835938 6.742188 27.804688 6.757813 C 27.882813 7.023438 27.710938 7.3125 27.476563 7.40625 C 27.523438 7.808594 27.703125 8.117188 28.144531 8.269531 C 28.679688 8.457031 29.289063 8.417969 29.839844 8.390625 C 31.660156 8.296875 33.496094 8.117188 35.304688 7.929688 C 35.371094 7.789063 35.503906 7.695313 35.71875 7.714844 C 36.1875 7.742188 36.804688 7.726563 37.132813 7.332031 C 37.453125 6.945313 37.445313 6.429688 37.359375 5.960938 Z "/>
<path style=" stroke:none;fill-rule:nonzero;fill:#127274;fill-opacity:1;" d="M 44.371094 30.394531 C 44.351563 30.335938 44.34375 30.28125 44.34375 30.214844 L 44.34375 30.019531 C 44.34375 30.019531 44.34375 30.007813 44.34375 30.007813 C 44.34375 29.4375 44.335938 28.726563 43.996094 28.285156 C 43.613281 27.789063 42.355469 28.351563 41.90625 28.5 C 40.039063 29.136719 38.101563 29.109375 36.148438 29.089844 C 36.046875 29.34375 35.765625 29.539063 35.4375 29.410156 C 35.324219 29.363281 35.277344 29.390625 35.296875 29.382813 C 35.230469 29.417969 35.195313 29.464844 35.148438 29.605469 C 35.070313 29.8125 35.082031 30.179688 35.15625 30.429688 C 35.492188 31.539063 36.488281 31.460938 37.480469 31.453125 C 39.132813 31.445313 40.828125 31.367188 42.460938 31.132813 C 42.84375 31.078125 43.238281 31.050781 43.613281 30.964844 C 43.808594 30.917969 44.054688 30.882813 44.230469 30.769531 C 44.382813 30.675781 44.34375 30.742188 44.335938 30.675781 C 44.324219 30.5625 44.335938 30.46875 44.371094 30.394531 Z "/>
<path style=" stroke:none;fill-rule:nonzero;fill:#127274;fill-opacity:1;" d="M 24.429688 7.453125 C 24.167969 7.273438 23.839844 7.152344 23.539063 7.070313 C 22.894531 6.890625 22.023438 6.675781 21.355469 6.882813 C 20.832031 7.039063 19.507813 7.78125 19.808594 8.492188 C 20.117188 9.253906 21.234375 9.429688 21.75 10.023438 C 22.179688 10.507813 22.152344 11.148438 22.132813 11.765625 C 22.472656 11.867188 22.789063 12.054688 23.128906 12.148438 C 23.148438 12.160156 23.175781 12.160156 23.195313 12.167969 C 23.195313 12.046875 23.183594 11.925781 23.175781 11.804688 C 23.101563 11.0625 22.949219 10.265625 23.195313 9.535156 C 23.316406 9.148438 23.597656 8.746094 23.953125 8.550781 C 24.214844 8.398438 24.683594 8.277344 24.871094 8.035156 C 24.9375 7.929688 24.582031 7.566406 24.429688 7.453125 Z "/>
<path style=" stroke:none;fill-rule:nonzero;fill:#127274;fill-opacity:1;" d="M 42.5625 27.195313 C 42.496094 26.054688 42.402344 24.910156 42.226563 23.773438 C 42.066406 22.761719 41.792969 21.769531 41.699219 20.757813 C 41.539063 18.917969 41.484375 16.800781 39.496094 15.984375 C 38.671875 15.648438 37.753906 15.570313 36.871094 15.523438 C 35.785156 15.46875 34.6875 15.449219 33.601563 15.507813 C 32.398438 15.570313 31.191406 15.75 29.992188 15.789063 C 29.035156 15.824219 28.039063 15.695313 27.101563 15.910156 C 27.253906 16.191406 27.367188 16.492188 27.460938 16.78125 C 27.796875 17.785156 27.992188 18.84375 28.144531 19.894531 C 28.332031 21.160156 28.472656 22.5 28.105469 23.738281 C 29.128906 23.746094 30.160156 23.820313 31.179688 23.898438 C 32.175781 23.972656 33.226563 23.945313 34.179688 24.226563 C 35.015625 24.46875 35.804688 24.910156 36.195313 25.714844 C 36.488281 26.316406 36.617188 27.085938 36.648438 27.777344 C 36.648438 27.804688 36.65625 27.824219 36.65625 27.851563 L 36.65625 28.039063 C 37.601563 28.050781 38.558594 28.050781 39.507813 27.957031 C 40.132813 27.890625 40.726563 27.789063 41.316406 27.582031 C 41.726563 27.441406 42.140625 27.308594 42.5625 27.207031 C 42.5625 27.214844 42.5625 27.207031 42.5625 27.195313 Z "/>
<path style=" stroke:none;fill-rule:nonzero;fill:#010101;fill-opacity:1;" d="M 24.84375 6.507813 C 24.066406 6.027344 23.042969 5.839844 22.152344 5.804688 C 21.214844 5.765625 20.464844 6.066406 19.726563 6.648438 C 18.910156 7.285156 18.414063 8.289063 19.039063 9.242188 C 19.304688 9.636719 19.742188 9.910156 20.136719 10.152344 C 20.476563 10.359375 20.945313 10.507813 21.074219 10.914063 C 21.1875 11.269531 21.09375 11.746094 21.09375 12.113281 C 21.09375 12.441406 21.347656 12.589844 21.601563 12.570313 C 21.664063 12.65625 21.757813 12.730469 21.882813 12.769531 C 22.59375 12.976563 23.550781 13.660156 24.101563 12.789063 C 24.300781 12.476563 24.214844 11.960938 24.1875 11.617188 C 24.148438 11.183594 24.085938 10.761719 24.09375 10.320313 C 24.101563 9.890625 24.226563 9.5625 24.609375 9.347656 C 24.992188 9.140625 25.40625 9 25.6875 8.644531 C 26.316406 7.867188 25.507813 6.917969 24.84375 6.507813 Z M 24.863281 8.035156 C 24.664063 8.277344 24.207031 8.398438 23.945313 8.550781 C 23.578125 8.746094 23.304688 9.160156 23.183594 9.535156 C 22.941406 10.265625 23.101563 11.0625 23.164063 11.804688 C 23.175781 11.925781 23.183594 12.046875 23.183594 12.167969 C 23.15625 12.160156 23.136719 12.148438 23.117188 12.148438 C 22.78125 12.054688 22.460938 11.878906 22.125 11.765625 C 22.144531 11.15625 22.171875 10.519531 21.742188 10.023438 C 21.226563 9.429688 20.109375 9.253906 19.800781 8.492188 C 19.507813 7.78125 20.832031 7.039063 21.347656 6.882813 C 22.011719 6.675781 22.882813 6.890625 23.53125 7.070313 C 23.839844 7.152344 24.160156 7.273438 24.421875 7.453125 C 24.582031 7.566406 24.9375 7.929688 24.863281 8.035156 Z "/>
<path style=" stroke:none;fill-rule:nonzero;fill:#010101;fill-opacity:1;" d="M 38.417969 6.121094 C 38.382813 5.503906 38.164063 4.867188 37.667969 4.453125 C 37.03125 3.929688 36.160156 4.039063 35.398438 4.105469 C 33.273438 4.273438 31.191406 4.800781 29.109375 5.269531 C 28.5 5.410156 26.585938 5.878906 26.652344 6.710938 C 26.53125 6.804688 26.4375 6.945313 26.4375 7.132813 C 26.417969 7.820313 26.625 8.484375 27.179688 8.90625 C 27.742188 9.335938 28.472656 9.402344 29.148438 9.421875 C 30.101563 9.449219 31.070313 9.308594 32.015625 9.234375 C 33.242188 9.132813 34.472656 9.046875 35.699219 8.914063 C 35.859375 8.898438 35.972656 8.832031 36.046875 8.738281 C 36.664063 8.726563 37.285156 8.570313 37.761719 8.148438 C 38.351563 7.621094 38.464844 6.871094 38.417969 6.121094 Z M 37.132813 7.332031 C 36.804688 7.726563 36.1875 7.742188 35.71875 7.714844 C 35.511719 7.707031 35.371094 7.800781 35.304688 7.929688 C 33.488281 8.117188 31.660156 8.296875 29.839844 8.390625 C 29.289063 8.417969 28.667969 8.457031 28.144531 8.269531 C 27.695313 8.117188 27.523438 7.800781 27.476563 7.40625 C 27.710938 7.3125 27.890625 7.023438 27.804688 6.757813 C 27.835938 6.742188 27.871094 6.730469 27.898438 6.710938 C 28.078125 6.628906 28.273438 6.570313 28.460938 6.507813 C 29.070313 6.308594 29.710938 6.179688 30.335938 6.054688 C 31.875 5.738281 33.382813 5.335938 34.960938 5.183594 C 35.511719 5.128906 36.242188 4.949219 36.777344 5.128906 C 37.152344 5.257813 37.292969 5.605469 37.359375 5.960938 C 37.445313 6.429688 37.453125 6.945313 37.132813 7.332031 Z "/>
<path style=" stroke:none;fill-rule:nonzero;fill:#010101;fill-opacity:1;" d="M 18.367188 6.871094 C 18.367188 6.664063 18.273438 6.535156 18.140625 6.46875 C 17.757813 5.925781 16.753906 5.71875 16.152344 5.617188 C 14.652344 5.34375 13.105469 5.289063 11.585938 5.222656 C 11.035156 5.195313 10.507813 5.175781 10.003906 5.136719 C 9.429688 5.089844 8.867188 4.996094 8.289063 4.996094 C 6.863281 5.007813 5.015625 5.523438 5.082031 7.257813 C 5.117188 8.316406 5.867188 9.28125 6.75 9.804688 C 7.679688 10.351563 8.851563 10.40625 9.898438 10.386719 C 11.109375 10.359375 12.300781 10.191406 13.507813 10.164063 C 15 10.132813 16.519531 10.105469 17.933594 9.5625 C 18.195313 9.460938 18.289063 9.226563 18.253906 9 C 18.261719 8.953125 18.273438 8.90625 18.273438 8.851563 C 18.28125 8.183594 18.367188 7.527344 18.367188 6.871094 Z M 17.25 8.699219 C 16.070313 9.074219 14.820313 9.101563 13.585938 9.132813 C 12.476563 9.148438 11.390625 9.273438 10.285156 9.335938 C 9.355469 9.394531 8.371094 9.394531 7.5 9.027344 C 6.769531 8.71875 6.039063 7.902344 6.101563 7.058594 C 6.148438 6.441406 6.835938 6.207031 7.351563 6.113281 C 8.054688 5.980469 8.792969 6 9.507813 6.113281 C 10.601563 6.289063 11.757813 6.242188 12.871094 6.308594 C 13.929688 6.375 14.992188 6.449219 16.03125 6.648438 C 16.398438 6.710938 16.753906 6.789063 17.0625 6.917969 C 17.203125 6.976563 17.230469 6.992188 17.269531 7.03125 C 17.257813 7.132813 17.289063 7.238281 17.335938 7.320313 C 17.304688 7.773438 17.269531 8.230469 17.25 8.699219 Z "/>
<path style=" stroke:none;fill-rule:nonzero;fill:#010101;fill-opacity:1;" d="M 45.367188 30.589844 C 45.355469 30.515625 45.328125 30.449219 45.300781 30.402344 C 45.335938 30.328125 45.367188 30.242188 45.367188 30.140625 L 45.367188 29.945313 C 45.367188 29.925781 45.367188 29.914063 45.367188 29.90625 C 45.355469 29.222656 45.28125 28.480469 44.945313 27.882813 C 44.632813 27.320313 44.128906 27.121094 43.585938 27.113281 C 43.519531 25.921875 43.40625 24.730469 43.21875 23.550781 C 43.050781 22.445313 42.769531 21.375 42.683594 20.257813 C 42.609375 19.246094 42.542969 18.234375 42.148438 17.289063 C 41.746094 16.332031 40.996094 15.582031 40.070313 15.121094 C 39.226563 14.710938 38.257813 14.597656 37.332031 14.539063 C 36.179688 14.464844 35.023438 14.429688 33.871094 14.476563 C 32.585938 14.523438 31.3125 14.671875 30.039063 14.765625 C 28.902344 14.851563 27.789063 14.691406 26.671875 14.972656 C 26.585938 14.992188 26.523438 15.027344 26.464844 15.074219 C 26.230469 14.851563 25.960938 14.671875 25.621094 14.578125 C 25.351563 14.503906 25.152344 14.644531 25.078125 14.839844 C 25.058594 14.820313 25.039063 14.804688 25.023438 14.785156 C 23.652344 13.695313 20.4375 12.9375 20.148438 15.449219 C 20.148438 15.488281 20.136719 15.515625 20.148438 15.554688 C 19.632813 15.628906 19.144531 15.816406 18.75 16.179688 C 18.65625 16.097656 18.535156 16.050781 18.367188 16.078125 C 16.894531 16.304688 15.414063 16.398438 13.929688 16.433594 C 12.683594 16.460938 11.417969 16.507813 10.171875 16.367188 C 8.148438 16.144531 5.746094 15.507813 3.863281 16.601563 C 2.859375 17.183594 2.644531 18.289063 2.605469 19.351563 C 2.585938 19.894531 2.625 20.429688 2.625 20.972656 C 2.625 21.628906 2.585938 22.285156 2.632813 22.941406 C 2.699219 23.851563 2.972656 24.777344 3.703125 25.378906 C 4.3125 25.875 5.109375 26.089844 5.867188 26.195313 C 7.601563 26.445313 9.375 26.195313 11.109375 26.042969 C 13.96875 25.789063 16.828125 25.480469 19.6875 25.273438 C 20.015625 25.660156 20.445313 25.96875 21 26.148438 C 21.683594 26.363281 22.472656 26.398438 23.183594 26.429688 C 23.886719 26.445313 24.648438 26.382813 25.21875 25.949219 C 25.695313 25.847656 26.183594 25.78125 26.644531 25.59375 C 27.074219 25.414063 27.414063 25.117188 27.65625 24.742188 C 27.730469 24.777344 27.804688 24.796875 27.898438 24.796875 C 28.800781 24.796875 29.699219 24.851563 30.601563 24.917969 C 31.492188 24.984375 32.390625 25.011719 33.273438 25.132813 C 33.992188 25.238281 34.761719 25.460938 35.183594 26.101563 C 35.523438 26.605469 35.585938 27.460938 35.597656 28.078125 C 35.539063 28.078125 35.476563 28.078125 35.417969 28.078125 C 35.148438 28.078125 35.007813 28.246094 34.96875 28.445313 C 34.378906 28.640625 34.039063 29.34375 34.050781 30.085938 C 34.050781 31.265625 34.921875 32.335938 36.113281 32.464844 C 37.21875 32.585938 38.382813 32.503906 39.488281 32.4375 C 40.519531 32.382813 41.570313 32.324219 42.589844 32.175781 C 43.453125 32.023438 45.570313 31.929688 45.367188 30.589844 Z M 23.792969 15.195313 C 23.429688 15.300781 22.941406 15.289063 22.707031 15.308594 C 22.226563 15.335938 21.742188 15.320313 21.261719 15.308594 C 21.609375 14.4375 22.914063 14.746094 23.792969 15.195313 Z M 11.269531 24.976563 C 9.648438 25.085938 8.015625 25.359375 6.382813 25.199219 C 5.679688 25.132813 4.894531 24.992188 4.332031 24.535156 C 3.570313 23.914063 3.636719 22.640625 3.648438 21.769531 C 3.664063 20.652344 3.507813 19.453125 3.757813 18.355469 C 4.003906 17.304688 5.203125 17.082031 6.121094 17.023438 C 7.867188 16.921875 9.582031 17.417969 11.316406 17.464844 C 13.59375 17.523438 15.910156 17.464844 18.160156 17.136719 C 18.046875 17.503906 18.007813 17.898438 18 18.273438 C 17.980469 19.011719 18.160156 19.714844 18.289063 20.4375 C 18.429688 21.207031 18.507813 21.984375 18.65625 22.753906 C 18.757813 23.277344 18.898438 23.804688 19.105469 24.273438 C 16.492188 24.46875 13.882813 24.789063 11.269531 24.976563 Z M 27.09375 23.492188 C 26.960938 24 26.71875 24.429688 26.222656 24.628906 C 25.742188 24.824219 25.210938 24.863281 24.710938 24.984375 C 24.535156 25.03125 24.429688 25.132813 24.394531 25.257813 C 23.992188 25.433594 23.371094 25.378906 23.007813 25.367188 C 22.414063 25.351563 21.796875 25.265625 21.214844 25.105469 C 20.101563 24.804688 19.800781 23.296875 19.621094 22.339844 C 19.519531 21.742188 19.445313 21.140625 19.351563 20.550781 C 19.257813 19.941406 19.097656 19.339844 19.039063 18.722656 C 18.992188 18.195313 19.011719 17.652344 19.257813 17.175781 C 19.546875 16.621094 20.242188 16.539063 20.792969 16.527344 C 20.972656 16.527344 21.09375 16.453125 21.167969 16.339844 C 22.445313 16.367188 24.394531 16.601563 25.152344 15.394531 C 25.152344 15.394531 25.152344 15.394531 25.152344 15.382813 C 25.21875 15.46875 25.3125 15.535156 25.433594 15.570313 C 26.070313 15.757813 26.363281 16.789063 26.539063 17.335938 C 26.820313 18.195313 26.972656 19.085938 27.101563 19.976563 C 27.289063 21.160156 27.414063 22.320313 27.09375 23.492188 Z M 34.171875 24.234375 C 33.214844 23.953125 32.15625 23.980469 31.171875 23.90625 C 30.148438 23.832031 29.128906 23.757813 28.097656 23.746094 C 28.460938 22.5 28.332031 21.167969 28.132813 19.902344 C 27.976563 18.851563 27.789063 17.804688 27.449219 16.789063 C 27.355469 16.5 27.234375 16.199219 27.09375 15.917969 C 28.03125 15.703125 29.023438 15.824219 29.980469 15.796875 C 31.179688 15.75 32.390625 15.570313 33.589844 15.515625 C 34.6875 15.460938 35.773438 15.476563 36.863281 15.535156 C 37.742188 15.582031 38.664063 15.65625 39.488281 15.992188 C 41.476563 16.808594 41.523438 18.9375 41.691406 20.765625 C 41.785156 21.789063 42.054688 22.78125 42.214844 23.785156 C 42.394531 24.917969 42.496094 26.0625 42.554688 27.207031 C 42.554688 27.214844 42.554688 27.226563 42.554688 27.234375 C 42.132813 27.335938 41.71875 27.46875 41.304688 27.609375 C 40.707031 27.816406 40.125 27.917969 39.496094 27.984375 C 38.550781 28.078125 37.601563 28.078125 36.648438 28.070313 L 36.648438 27.882813 C 36.648438 27.851563 36.648438 27.824219 36.636719 27.804688 C 36.609375 27.113281 36.476563 26.34375 36.1875 25.742188 C 35.792969 24.917969 35.007813 24.488281 34.171875 24.234375 Z M 44.34375 30.664063 C 44.351563 30.730469 44.390625 30.675781 44.242188 30.757813 C 44.0625 30.871094 43.820313 30.910156 43.621094 30.957031 C 43.246094 31.039063 42.851563 31.070313 42.46875 31.125 C 40.835938 31.359375 39.140625 31.433594 37.492188 31.445313 C 36.496094 31.453125 35.503906 31.519531 35.164063 30.421875 C 35.089844 30.167969 35.082031 29.792969 35.15625 29.597656 C 35.210938 29.457031 35.25 29.410156 35.304688 29.371094 C 35.289063 29.382813 35.335938 29.363281 35.445313 29.398438 C 35.773438 29.53125 36.054688 29.335938 36.160156 29.082031 C 38.109375 29.089844 40.039063 29.128906 41.914063 28.492188 C 42.367188 28.339844 43.621094 27.777344 44.007813 28.273438 C 44.34375 28.714844 44.351563 29.429688 44.351563 30 C 44.351563 30 44.351563 30.007813 44.351563 30.007813 L 44.351563 30.207031 C 44.351563 30.273438 44.363281 30.335938 44.382813 30.382813 C 44.335938 30.46875 44.324219 30.5625 44.34375 30.664063 Z "/>
<path style=" stroke:none;fill-rule:nonzero;fill:#010101;fill-opacity:1;" d="M 43.929688 39.582031 C 43.808594 38.632813 43.21875 37.902344 42.664063 37.164063 C 41.878906 36.09375 41.070313 35.042969 40.304688 33.964844 C 40.191406 33.804688 40.03125 33.742188 39.882813 33.75 C 39.648438 33.375 38.980469 33.335938 38.945313 33.882813 C 38.886719 34.707031 38.464844 35.429688 38.023438 36.113281 C 37.519531 36.890625 36.945313 37.632813 36.460938 38.417969 C 36.019531 39.132813 35.644531 39.929688 35.625 40.773438 C 35.597656 41.644531 36.019531 42.429688 36.648438 43.011719 C 39.160156 45.289063 44.410156 43.164063 43.929688 39.582031 Z M 38.738281 36.882813 C 38.757813 36.882813 38.773438 36.882813 38.792969 36.871094 C 39.871094 36.695313 39.664063 38.398438 39.253906 38.960938 C 38.972656 39.347656 38.550781 39.648438 38.101563 39.804688 C 37.6875 39.945313 37.585938 39.824219 37.574219 39.414063 C 37.566406 39.1875 37.453125 39.054688 37.292969 38.992188 C 37.726563 38.257813 38.257813 37.585938 38.738281 36.882813 Z M 42.84375 40.613281 C 42.449219 42.132813 40.59375 42.945313 39.160156 42.9375 C 38.363281 42.929688 37.554688 42.554688 37.058594 41.914063 C 36.664063 41.410156 36.609375 40.828125 36.75 40.257813 C 36.984375 40.679688 37.425781 40.941406 38.007813 40.882813 C 38.792969 40.808594 39.5625 40.257813 40.03125 39.648438 C 40.875 38.578125 40.835938 36.167969 39.375 35.859375 C 39.476563 35.671875 39.570313 35.484375 39.65625 35.277344 C 39.695313 35.183594 39.730469 35.082031 39.769531 34.988281 C 40.539063 36.066406 41.351563 37.105469 42.132813 38.175781 C 42.683594 38.933594 43.097656 39.65625 42.84375 40.613281 Z "/>
</g>
</svg>
