<?xml version="1.0" encoding="UTF-8"?>
<svg version="1.1" xmlns="http://www.w3.org/2000/svg" width="512" height="512">
<path d="M0 0 C1.37001499 -0.00679667 1.37001499 -0.00679667 2.76770705 -0.01373065 C5.82913209 -0.02639404 8.89037967 -0.02475301 11.951828 -0.02310181 C14.14645619 -0.02908585 16.34108226 -0.03589111 18.53570557 -0.04345703 C24.49857763 -0.06113708 30.4613923 -0.06581327 36.42428803 -0.0670886 C41.40190351 -0.06898734 46.3795056 -0.07634461 51.35711592 -0.08343279 C62.43038929 -0.09879156 73.50364002 -0.10477003 84.57692269 -0.10342209 C85.2410809 -0.10334218 85.9052391 -0.10326227 86.58952332 -0.10317993 C87.25449503 -0.10309817 87.91946675 -0.10301641 88.60458913 -0.10293217 C99.37862644 -0.10211947 110.15252388 -0.12125397 120.92652074 -0.14945666 C131.9963304 -0.17820441 143.06606852 -0.19162987 154.13591594 -0.19026911 C160.3479254 -0.18975916 166.55977659 -0.19546077 172.77175331 -0.21662521 C178.61504718 -0.2359897 184.4580315 -0.23614406 190.30133629 -0.22159195 C192.44429857 -0.21950053 194.58728014 -0.22422449 196.73020935 -0.23631287 C199.65928879 -0.25176394 202.58730074 -0.24245771 205.51635742 -0.22705078 C206.36121651 -0.23733791 207.2060756 -0.24762503 208.07653648 -0.25822389 C214.83730363 -0.1798217 219.89962682 1.7958246 225.15568542 6.05648804 C225.68549011 6.66234741 226.2152948 7.26820679 226.76115417 7.89242554 C227.30384949 8.48281616 227.8465448 9.07320679 228.40568542 9.68148804 C233.84296697 18.7940966 233.37473991 28.91155237 233.3296051 39.15768433 C233.33306531 40.87098313 233.3378323 42.58427971 233.34378684 44.29757166 C233.35627662 48.98738621 233.35013565 53.67701693 233.34082818 58.36683202 C233.33402975 63.43166535 233.34452286 68.49646746 233.35276794 73.56129456 C233.36609898 83.47611335 233.36323033 93.39086395 233.35453002 103.3056854 C233.34775142 111.36457781 233.34683752 119.42345114 233.35010147 127.48234558 C233.35056117 128.62987837 233.35102087 129.77741115 233.3514945 130.95971766 C233.35245369 133.29100001 233.35342633 135.62228236 233.35441227 137.9535647 C233.36296432 159.80754846 233.35313492 181.66149444 233.33701117 203.51547199 C233.32360817 222.26207308 233.32593631 241.00861843 233.33976746 259.75521851 C233.35582652 281.53167752 233.36214037 303.30810344 233.35293067 325.08456755 C233.35197503 327.40721352 233.35103192 329.72985951 233.35010147 332.05250549 C233.34963864 333.19525426 233.34917582 334.33800302 233.34869897 335.51538053 C233.34611006 343.56341831 233.35047794 351.61143508 233.35754013 359.6594696 C233.36595894 369.46900885 233.36366693 379.27847608 233.3476979 389.08800709 C233.33982036 394.09176415 233.33671484 399.0954012 233.34664536 404.09915733 C233.35560337 408.68224628 233.35064111 413.26510429 233.3347127 417.84817237 C233.3313696 419.50348899 233.33304835 421.15882524 233.34034006 422.81412917 C233.42991717 444.84406249 233.42991717 444.84406249 225.78849792 452.72836304 C217.75239919 459.45070465 210.16498378 459.92986766 199.94865417 459.26742554 C199.98345886 460.0524646 200.01826355 460.83750366 200.05412292 461.64633179 C200.21779409 467.99833195 200.19872017 472.73027607 196.94865417 478.26742554 C192.09839975 481.50092849 186.77607679 480.67718402 181.07365417 480.70492554 C179.88900574 480.73779663 178.7043573 480.77066772 177.48381042 480.80453491 C176.34041199 480.81162476 175.19701355 480.8187146 174.01896667 480.82601929 C172.97498718 480.83947388 171.93100769 480.85292847 170.85539246 480.86679077 C167.94865417 480.26742554 167.94865417 480.26742554 162.94865417 475.26742554 C162.94865417 469.98742554 162.94865417 464.70742554 162.94865417 459.26742554 C123.34865417 459.26742554 83.74865417 459.26742554 42.94865417 459.26742554 C42.94865417 464.21742554 42.94865417 469.16742554 42.94865417 474.26742554 C41.26115417 478.16195679 41.26115417 478.16195679 37.94865417 480.26742554 C33.58613737 481.08193634 29.37427293 481.05925756 24.94865417 480.95492554 C23.18521667 480.97716187 23.18521667 480.97716187 21.38615417 480.99984741 C11.8321736 480.90756465 11.8321736 480.90756465 8.69865417 477.84945679 C5.84007475 473.63177598 5.8396215 471.26101982 5.88615417 466.14242554 C5.89517761 464.86109741 5.90420105 463.57976929 5.91349792 462.25961304 C5.92509949 461.27219116 5.93670105 460.28476929 5.94865417 459.26742554 C5.04244324 459.31383179 4.1362323 459.36023804 3.20256042 459.40805054 C-5.56384478 459.66779588 -12.29536142 459.47428454 -19.04743958 453.50180054 C-27.78845265 444.27012769 -27.48589283 434.42018059 -27.43902588 422.46582031 C-27.44320078 420.73774792 -27.44867916 419.00967828 -27.45534569 417.28161371 C-27.4697985 412.54168045 -27.46555606 407.80192111 -27.45817888 403.06197834 C-27.45344911 397.94666219 -27.46595539 392.83138377 -27.47619629 387.71607971 C-27.49339347 377.6980532 -27.49422237 367.68008938 -27.48898339 357.66205193 C-27.48494209 349.51920547 -27.48638476 341.37637753 -27.49173164 333.23353195 C-27.49248007 332.07462674 -27.49322849 330.91572153 -27.49399959 329.72169798 C-27.49553107 327.36738456 -27.49706941 325.01307114 -27.49861456 322.65875773 C-27.51234298 300.57969189 -27.50689955 278.50066148 -27.49542934 256.42159645 C-27.48549705 236.22416355 -27.49843699 216.02682225 -27.52236354 195.82940347 C-27.54674832 175.08884478 -27.5563639 154.34832876 -27.54971081 133.60775602 C-27.54621716 121.96424214 -27.54846031 110.32079873 -27.56596184 98.67729568 C-27.58067604 88.76522005 -27.58132944 78.85326448 -27.56389093 68.94119121 C-27.5553721 63.88475621 -27.55325304 58.82853577 -27.56854248 53.77211189 C-27.58237309 49.14077546 -27.57764725 44.50983774 -27.55830324 39.87852447 C-27.55453794 38.2056504 -27.55748049 36.53274452 -27.5679149 34.85989876 C-27.62573585 24.87800639 -27.50756851 15.68823309 -20.86775208 7.61117554 C-20.12396301 7.00273804 -19.38017395 6.39430054 -18.61384583 5.76742554 C-17.50202942 4.82383179 -17.50202942 4.82383179 -16.36775208 3.86117554 C-10.98429617 0.15721262 -6.33457892 -0.0230397 0 0 Z " fill="#FE5F66" transform="translate(57.05134582519531,15.732574462890625)"/>
<path d="M0 0 C1.33031274 -0.00701996 1.33031274 -0.00701996 2.68750048 -0.01418173 C5.65929143 -0.02614781 8.63062262 -0.01666812 11.60241699 -0.00723267 C13.7329485 -0.01129764 15.8634779 -0.01663911 17.9940033 -0.02316284 C23.78110093 -0.03685095 29.5680383 -0.03153155 35.35513878 -0.02202559 C41.40798758 -0.01443678 47.46082254 -0.02147243 53.51367188 -0.02618408 C63.6788581 -0.03164389 73.84397897 -0.02444406 84.00915527 -0.01016235 C95.76587999 0.00616455 107.52244863 0.0008762 119.27916956 -0.01564157 C129.36845057 -0.02924997 139.45768457 -0.03117925 149.5469718 -0.02332556 C155.57496544 -0.01864551 161.60288569 -0.01803337 167.63087463 -0.02793503 C173.29766722 -0.03659297 178.96425834 -0.03060409 184.63102913 -0.01325226 C186.7123538 -0.00928117 188.79369538 -0.01043207 190.87501335 -0.01704025 C193.71304804 -0.0252211 196.5504345 -0.01497587 199.38842773 0 C200.21478871 -0.00669217 201.04114968 -0.01338433 201.8925519 -0.02027929 C207.78564446 0.04016249 210.91183352 1.48196084 215.47833252 5.28138733 C218.25244953 10.29254508 217.71532081 15.3441171 217.64831543 20.97396851 C217.64879757 22.2730675 217.64927971 23.5721665 217.64977646 24.91063213 C217.65067787 28.41823455 217.62753022 31.92528884 217.59933472 35.43276215 C217.57651986 38.72647073 217.57548035 42.02015613 217.57263184 45.31393433 C217.55165983 54.94051219 217.49581498 64.56698852 217.44421387 74.19345093 C217.36171387 95.70532593 217.27921387 117.21720093 217.19421387 139.38095093 C139.64421387 139.38095093 62.09421387 139.38095093 -17.80578613 139.38095093 C-17.88828613 118.24032593 -17.97078613 97.09970093 -18.05578613 75.31845093 C-18.09220215 68.64747192 -18.12861816 61.97649292 -18.1661377 55.10336304 C-18.1842041 46.94650269 -18.1842041 46.94650269 -18.18756104 43.12583923 C-18.1936971 40.46167629 -18.20624862 37.79827598 -18.22808838 35.13426208 C-18.26076027 31.09517296 -18.26140973 27.05664645 -18.2598877 23.01742554 C-18.27428013 21.83409354 -18.28867256 20.65076155 -18.30350113 19.43157101 C-18.2704666 12.87983862 -17.92114951 8.6018584 -13.80578613 3.38095093 C-9.35452638 -0.14470342 -5.43119898 -0.04398378 0 0 Z " fill="#C4E2EC" transform="translate(59.8057861328125,27.619049072265625)"/>
<path d="M0 0 C1.37001499 -0.00679667 1.37001499 -0.00679667 2.76770705 -0.01373065 C5.82913209 -0.02639404 8.89037967 -0.02475301 11.951828 -0.02310181 C14.14645619 -0.02908585 16.34108226 -0.03589111 18.53570557 -0.04345703 C24.49857763 -0.06113708 30.4613923 -0.06581327 36.42428803 -0.0670886 C41.40190351 -0.06898734 46.3795056 -0.07634461 51.35711592 -0.08343279 C62.43038929 -0.09879156 73.50364002 -0.10477003 84.57692269 -0.10342209 C85.2410809 -0.10334218 85.9052391 -0.10326227 86.58952332 -0.10317993 C87.25449503 -0.10309817 87.91946675 -0.10301641 88.60458913 -0.10293217 C99.37862644 -0.10211947 110.15252388 -0.12125397 120.92652074 -0.14945666 C131.9963304 -0.17820441 143.06606852 -0.19162987 154.13591594 -0.19026911 C160.3479254 -0.18975916 166.55977659 -0.19546077 172.77175331 -0.21662521 C178.61504718 -0.2359897 184.4580315 -0.23614406 190.30133629 -0.22159195 C192.44429857 -0.21950053 194.58728014 -0.22422449 196.73020935 -0.23631287 C199.65928879 -0.25176394 202.58730074 -0.24245771 205.51635742 -0.22705078 C206.36121651 -0.23733791 207.2060756 -0.24762503 208.07653648 -0.25822389 C214.83730363 -0.1798217 219.89962682 1.7958246 225.15568542 6.05648804 C225.68549011 6.66234741 226.2152948 7.26820679 226.76115417 7.89242554 C227.30384949 8.48281616 227.8465448 9.07320679 228.40568542 9.68148804 C233.84296697 18.7940966 233.37473991 28.91155237 233.3296051 39.15768433 C233.33306531 40.87098313 233.3378323 42.58427971 233.34378684 44.29757166 C233.35627662 48.98738621 233.35013565 53.67701693 233.34082818 58.36683202 C233.33402975 63.43166535 233.34452286 68.49646746 233.35276794 73.56129456 C233.36609898 83.47611335 233.36323033 93.39086395 233.35453002 103.3056854 C233.34775142 111.36457781 233.34683752 119.42345114 233.35010147 127.48234558 C233.35056117 128.62987837 233.35102087 129.77741115 233.3514945 130.95971766 C233.35245369 133.29100001 233.35342633 135.62228236 233.35441227 137.9535647 C233.36296432 159.80754846 233.35313492 181.66149444 233.33701117 203.51547199 C233.32360817 222.26207308 233.32593631 241.00861843 233.33976746 259.75521851 C233.35582652 281.53167752 233.36214037 303.30810344 233.35293067 325.08456755 C233.35197503 327.40721352 233.35103192 329.72985951 233.35010147 332.05250549 C233.34963864 333.19525426 233.34917582 334.33800302 233.34869897 335.51538053 C233.34611006 343.56341831 233.35047794 351.61143508 233.35754013 359.6594696 C233.36595894 369.46900885 233.36366693 379.27847608 233.3476979 389.08800709 C233.33982036 394.09176415 233.33671484 399.0954012 233.34664536 404.09915733 C233.35560337 408.68224628 233.35064111 413.26510429 233.3347127 417.84817237 C233.3313696 419.50348899 233.33304835 421.15882524 233.34034006 422.81412917 C233.42991717 444.84406249 233.42991717 444.84406249 225.78849792 452.72836304 C217.75239919 459.45070465 210.16498378 459.92986766 199.94865417 459.26742554 C199.98345886 460.0524646 200.01826355 460.83750366 200.05412292 461.64633179 C200.21779409 467.99833195 200.19872017 472.73027607 196.94865417 478.26742554 C192.09839975 481.50092849 186.77607679 480.67718402 181.07365417 480.70492554 C179.88900574 480.73779663 178.7043573 480.77066772 177.48381042 480.80453491 C176.34041199 480.81162476 175.19701355 480.8187146 174.01896667 480.82601929 C172.97498718 480.83947388 171.93100769 480.85292847 170.85539246 480.86679077 C167.94865417 480.26742554 167.94865417 480.26742554 162.94865417 475.26742554 C162.94865417 469.98742554 162.94865417 464.70742554 162.94865417 459.26742554 C123.34865417 459.26742554 83.74865417 459.26742554 42.94865417 459.26742554 C42.94865417 464.21742554 42.94865417 469.16742554 42.94865417 474.26742554 C41.26115417 478.16195679 41.26115417 478.16195679 37.94865417 480.26742554 C33.58613737 481.08193634 29.37427293 481.05925756 24.94865417 480.95492554 C23.18521667 480.97716187 23.18521667 480.97716187 21.38615417 480.99984741 C11.8321736 480.90756465 11.8321736 480.90756465 8.69865417 477.84945679 C5.84007475 473.63177598 5.8396215 471.26101982 5.88615417 466.14242554 C5.89517761 464.86109741 5.90420105 463.57976929 5.91349792 462.25961304 C5.92509949 461.27219116 5.93670105 460.28476929 5.94865417 459.26742554 C5.04244324 459.31383179 4.1362323 459.36023804 3.20256042 459.40805054 C-5.56384478 459.66779588 -12.29536142 459.47428454 -19.04743958 453.50180054 C-27.78845265 444.27012769 -27.48589283 434.42018059 -27.43902588 422.46582031 C-27.44320078 420.73774792 -27.44867916 419.00967828 -27.45534569 417.28161371 C-27.4697985 412.54168045 -27.46555606 407.80192111 -27.45817888 403.06197834 C-27.45344911 397.94666219 -27.46595539 392.83138377 -27.47619629 387.71607971 C-27.49339347 377.6980532 -27.49422237 367.68008938 -27.48898339 357.66205193 C-27.48494209 349.51920547 -27.48638476 341.37637753 -27.49173164 333.23353195 C-27.49248007 332.07462674 -27.49322849 330.91572153 -27.49399959 329.72169798 C-27.49553107 327.36738456 -27.49706941 325.01307114 -27.49861456 322.65875773 C-27.51234298 300.57969189 -27.50689955 278.50066148 -27.49542934 256.42159645 C-27.48549705 236.22416355 -27.49843699 216.02682225 -27.52236354 195.82940347 C-27.54674832 175.08884478 -27.5563639 154.34832876 -27.54971081 133.60775602 C-27.54621716 121.96424214 -27.54846031 110.32079873 -27.56596184 98.67729568 C-27.58067604 88.76522005 -27.58132944 78.85326448 -27.56389093 68.94119121 C-27.5553721 63.88475621 -27.55325304 58.82853577 -27.56854248 53.77211189 C-27.58237309 49.14077546 -27.57764725 44.50983774 -27.55830324 39.87852447 C-27.55453794 38.2056504 -27.55748049 36.53274452 -27.5679149 34.85989876 C-27.62573585 24.87800639 -27.50756851 15.68823309 -20.86775208 7.61117554 C-20.12396301 7.00273804 -19.38017395 6.39430054 -18.61384583 5.76742554 C-17.50202942 4.82383179 -17.50202942 4.82383179 -16.36775208 3.86117554 C-10.98429617 0.15721262 -6.33457892 -0.0230397 0 0 Z M-13.90505981 18.73474121 C-15.63800511 24.07542288 -15.44266576 29.21065524 -15.391922 34.79037476 C-15.3922836 36.06976992 -15.39264521 37.34916508 -15.39301777 38.66732979 C-15.39369288 42.11676387 -15.37635164 45.56588343 -15.35518646 49.01524353 C-15.3380555 52.25627767 -15.3372946 55.49729879 -15.3351593 58.7383728 C-15.3194401 68.20643176 -15.27755641 77.67443266 -15.23884583 87.14242554 C-15.17697083 108.30367554 -15.11509583 129.46492554 -15.05134583 151.26742554 C62.49865417 151.26742554 140.04865417 151.26742554 219.94865417 151.26742554 C220.07240417 129.79680054 220.19615417 108.32617554 220.32365417 86.20492554 C220.3782782 79.42953247 220.43290222 72.6541394 220.48918152 65.6734314 C220.5092501 59.59153899 220.5092501 59.59153899 220.52131653 53.5096283 C220.53052254 50.80342977 220.5493484 48.09891967 220.58210754 45.39305115 C220.63111028 41.29088058 220.63208994 37.18995635 220.62980652 33.0874939 C220.66218949 31.28439082 220.66218949 31.28439082 220.69522667 29.44486141 C220.64736238 23.01899791 220.136017 19.10932422 215.53017616 14.44562626 C211.60960198 11.52488069 207.03638875 12.11922434 202.3901062 12.12025452 C201.06341509 12.11473948 201.06341509 12.11473948 199.70992213 12.10911304 C196.73439926 12.09806479 193.7589113 12.09423044 190.78337097 12.09042358 C188.65475859 12.08415988 186.52614731 12.07751316 184.39753723 12.07051086 C178.6061782 12.05309447 172.81482744 12.04254769 167.02344871 12.03430533 C163.40701704 12.0291573 159.79058795 12.02308153 156.1741581 12.0167942 C144.86432629 11.99774169 133.55450103 11.98350979 122.24465626 11.97518224 C109.17944278 11.96540385 96.11439844 11.93906879 83.04924458 11.89868134 C72.95660337 11.86855056 62.86401074 11.85371631 52.77132541 11.85040122 C46.74042532 11.84804759 40.70970593 11.8390461 34.67885399 11.81394005 C29.00632541 11.79070708 23.33409713 11.78640695 17.66153336 11.79670143 C15.57900432 11.79719804 13.49646073 11.79084102 11.41397667 11.77714539 C8.57167348 11.75949778 5.73045635 11.76649756 2.88815308 11.77967834 C2.0633407 11.7687091 1.23852833 11.75773985 0.38872164 11.74643821 C-5.90700614 11.81696491 -9.99154976 13.52581214 -13.90505981 18.73474121 Z M-15.05134583 163.26742554 C-15.16787333 211.79573199 -15.16787333 211.79573199 -15.24665833 260.32406616 C-15.25448983 266.86548909 -15.26257176 273.40691164 -15.27107239 279.94833374 C-15.27212738 280.76819568 -15.27318238 281.58805763 -15.27426934 282.43276387 C-15.2916671 295.66922541 -15.32320265 308.90561744 -15.35995701 322.14203776 C-15.39736171 335.72594629 -15.41958068 349.30981844 -15.4276998 362.89377636 C-15.43318856 371.27599019 -15.45052494 379.65800767 -15.48301169 388.04016107 C-15.50415378 393.7879421 -15.51054658 399.5356216 -15.50535133 405.28343869 C-15.50278903 408.59982077 -15.50890554 411.91578729 -15.52816772 415.23212433 C-15.54804017 418.82953903 -15.54329395 422.4261105 -15.53236389 426.02354431 C-15.54401526 427.06927425 -15.55566662 428.1150042 -15.56767106 429.19242293 C-15.51647616 435.4173481 -14.87536303 439.26673247 -11.05134583 444.26742554 C-6.82792586 447.94181086 -2.57486117 447.69153504 2.75444031 447.64837646 C3.64131546 447.65305644 4.52819062 447.65773641 5.44194078 447.6625582 C8.41373173 447.67452428 11.38506292 447.66504458 14.3568573 447.65560913 C16.48738881 447.65967411 18.61791821 447.66501557 20.7484436 447.67153931 C26.53554124 447.68522742 32.32247861 447.67990802 38.10957909 447.67040205 C44.16242789 447.66281324 50.21526285 447.6698489 56.26811218 447.67456055 C66.43329841 447.68002036 76.59841927 447.67282053 86.76359558 447.65853882 C98.52032029 447.64221192 110.27688894 447.64750026 122.03360987 447.66401803 C132.12289088 447.67762644 142.21212488 447.67955571 152.30141211 447.67170203 C158.32940575 447.66702197 164.357326 447.66640984 170.38531494 447.67631149 C176.05210753 447.68496943 181.71869864 447.67898055 187.38546944 447.66162872 C189.46679411 447.65765763 191.54813569 447.65880853 193.62945366 447.66541672 C196.46748835 447.67359757 199.30487481 447.66335234 202.14286804 447.64837646 C202.96922902 447.65506863 203.79558999 447.6617608 204.64699221 447.66865575 C210.63986973 447.60719054 213.67204328 446.25737733 218.23109055 442.27238178 C220.85430627 437.68294572 220.48685167 433.38685664 220.42967224 428.18812561 C220.43479879 426.49112675 220.43479879 426.49112675 220.44002891 424.75984508 C220.44662857 420.96092772 220.42459604 417.16271358 220.40275574 413.36386108 C220.39940133 410.64394177 220.40208401 407.92403629 220.40452576 405.20411682 C220.40662283 399.34423706 220.39407643 393.48453549 220.3715744 387.62470055 C220.33906158 379.15240156 220.32864813 370.68018871 220.32362244 362.2078341 C220.31486865 348.46194269 220.28825081 334.71614625 220.25041199 320.9703064 C220.21369406 307.61777209 220.1854271 294.26526371 220.16838074 280.91268921 C220.16730875 280.08119836 220.16623676 279.24970751 220.16513228 278.39301997 C220.15681456 271.89018311 220.14898687 265.38734567 220.14131403 258.88450801 C220.10358153 227.01206002 220.02310796 195.13984976 219.94865417 163.26742554 C142.39865417 163.26742554 64.84865417 163.26742554 -15.05134583 163.26742554 Z " fill="#040203" transform="translate(57.05134582519531,15.732574462890625)"/>
<path d="M0 0 C0.77988281 0.350625 1.55976563 0.70125 2.36328125 1.0625 C15.74248625 7.71744135 24.74186484 19.30217688 30 33 C31.51887017 37.7193466 32.38429546 42.12011068 32.75 47.0625 C32.84796875 48.22910156 32.9459375 49.39570313 33.046875 50.59765625 C33.20789366 53.4098211 32.93092275 55.20812952 32.03140259 57.91838074 C30.67745859 62.57342814 29.67339321 66.56747729 32.05874634 70.94136238 C36.07382555 76.30812483 41.09321283 80.77093319 45.9765625 85.328125 C47.54315277 86.8495743 49.10579278 88.37510065 50.66464233 89.90447998 C54.76950229 93.9144774 58.91735592 97.87667029 63.07885742 101.82775879 C69.72763718 108.15299308 76.31333039 114.54345317 82.8898735 120.9436264 C85.18562409 123.16353896 87.50227852 125.35967138 89.82290649 127.55352783 C91.24530703 128.92213068 92.66715992 130.29130303 94.08837891 131.66113281 C95.05334793 132.55603928 95.05334793 132.55603928 96.03781128 133.46902466 C101.70378228 138.99391472 105.01739169 145.58017623 105.4375 153.5625 C105.03629476 160.9006733 102.77198941 167.08490016 97.75 172.49609375 C90.78796317 178.47909415 82.88550258 179.6241882 74 179 C61.80631075 176.98249869 51.96765629 162.98344415 43.7967701 154.50515175 C39.71813512 150.284732 35.60400988 146.09880942 31.49723148 141.90580463 C27.90492676 138.23406731 24.32540207 134.55128599 20.76977539 130.84399414 C17.30470969 127.23254132 13.80870623 123.65381746 10.28954887 120.09508324 C8.96102439 118.74010657 7.64411033 117.37364067 6.33952522 115.99559975 C-0.32009812 108.36938214 -0.32009812 108.36938214 -9.22203064 104.63427734 C-12.03649266 105.13482377 -14.3737222 105.89604522 -17 107 C-31.76578439 108.5813916 -46.62877239 104.00201226 -58.42578125 95.1875 C-70.3936448 85.21092804 -77.35283943 71.4421303 -79 56 C-79.91800427 45.85277423 -78.10329433 34.86844979 -73 26 C-70.00307111 24.50153555 -68.34572054 24.51217426 -65 25 C-62.21926623 26.93842868 -59.96713995 29.33521399 -57.6328125 31.78125 C-56.95322479 32.46932739 -56.27363708 33.15740479 -55.57345581 33.86633301 C-53.40947086 36.06386208 -51.26729035 38.28133652 -49.125 40.5 C-47.66024451 41.9948532 -46.19411372 43.48836012 -44.7265625 44.98046875 C-41.13490544 48.63822421 -37.5626627 52.31400706 -34 56 C-32.88325489 55.04957913 -31.76747511 54.09802392 -30.65209961 53.14599609 C-30.0306456 52.61622162 -29.40919159 52.08644714 -28.76890564 51.5406189 C-26.60555632 49.65646139 -24.57300987 47.67078197 -22.5625 45.625 C-21.88316406 44.93664062 -21.20382812 44.24828125 -20.50390625 43.5390625 C-20.00761719 43.03117187 -19.51132812 42.52328125 -19 42 C-20.65141388 37.60422681 -23.98317437 34.90646746 -27.3203125 31.765625 C-28.59073005 30.53998051 -29.86023365 29.3133881 -31.12890625 28.0859375 C-33.12602173 26.16300762 -35.12825542 24.24693562 -37.14697266 22.34667969 C-39.09827918 20.50460054 -41.02299558 18.63787586 -42.9453125 16.765625 C-43.85460007 15.92768402 -43.85460007 15.92768402 -44.78225708 15.07281494 C-48.81595007 11.09051171 -48.81595007 11.09051171 -49.371521 7.79870605 C-49.37841797 5.57714844 -49.37841797 5.57714844 -49 2 C-47.81679424 1.36690809 -46.62812152 0.74403282 -45.4375 0.125 C-44.77621094 -0.22304687 -44.11492187 -0.57109375 -43.43359375 -0.9296875 C-30.54926239 -6.59631157 -12.61687051 -6.09781977 0 0 Z " fill="#030200" transform="translate(377,196)"/>
<path d="M0 0 C15.41031016 -0.51622627 26.98559015 1.09830236 39.0390625 11.8125 C47.20296846 20.44394242 51.17870267 30.65604019 51.1875 42.3125 C51.19974609 43.15490234 51.21199219 43.99730469 51.22460938 44.86523438 C51.23602344 49.73143023 50.61380548 53.37545861 49 58 C48.49670574 61.36911397 48.25446894 63.85341775 50.16724968 66.79516029 C51.92652916 68.78257563 53.77120817 70.62516588 55.68530273 72.46411133 C56.39570709 73.17393158 57.10611145 73.88375183 57.83804321 74.61508179 C60.18716805 76.95424232 62.55998096 79.2677454 64.93359375 81.58203125 C66.56946847 83.20230733 68.20373046 84.82421316 69.83644104 86.44767761 C74.13645262 90.71530793 78.45662047 94.96193667 82.78173828 99.20410156 C88.04079348 104.36936593 93.27703007 109.55773904 98.51546574 114.74389935 C102.58952575 118.77677064 106.66730442 122.80562525 110.75669861 126.82295227 C111.88062263 127.92951927 111.88062263 127.92951927 113.0272522 129.05844116 C114.43044562 130.43976766 115.83556128 131.81914515 117.24290466 133.19624329 C117.85851257 133.80310974 118.47412048 134.4099762 119.10838318 135.03523254 C119.91449114 135.82632022 119.91449114 135.82632022 120.73688412 136.63338947 C123.84452519 139.99565818 123.3875982 143.87679641 123.34765625 148.23046875 C122.79655937 152.62066745 121.32166378 154.12122472 118 157 C114.32339766 159.07398081 111.1840444 159.51233197 107 159 C101.96863467 156.07683672 98.10083415 152.36960899 94.0324707 148.24365234 C93.36341705 147.57328445 92.6943634 146.90291656 92.0050354 146.2122345 C89.80730403 144.00804204 87.61663825 141.79696094 85.42578125 139.5859375 C83.89505747 138.0489396 82.36381493 136.5124582 80.83207703 134.97647095 C76.80947814 130.94059567 72.79249188 126.89918415 68.77709961 122.85614014 C62.3408554 116.37670073 55.8978159 109.90403541 49.45155907 103.43455887 C47.20068459 101.17345402 44.95324881 98.90897204 42.70613098 96.64413452 C41.33065095 95.26182804 39.95506181 93.87963013 38.5793457 92.49755859 C37.64186241 91.54996925 37.64186241 91.54996925 36.68544006 90.58323669 C36.1094104 90.00569138 35.53338074 89.42814606 34.93989563 88.83309937 C34.19248847 88.08041306 34.19248847 88.08041306 33.42998219 87.31252098 C30.64829939 84.73596279 30.64829939 84.73596279 27.0625 83.98828125 C26.0415625 84.14876953 26.0415625 84.14876953 25 84.3125 C23.9790625 84.46138672 23.9790625 84.46138672 22.9375 84.61328125 C20.79553685 84.99903245 20.79553685 84.99903245 18 86 C3.39121444 87.22571109 -8.34198764 86.52968578 -19.90234375 76.90625 C-27.12834207 70.33960721 -34.55632648 61.14737237 -35.11352539 50.9152832 C-35.10828857 50.13499756 -35.10305176 49.35471191 -35.09765625 48.55078125 C-35.09443359 47.70322266 -35.09121094 46.85566406 -35.08789062 45.98242188 C-35.07951172 45.10134766 -35.07113281 44.22027344 -35.0625 43.3125 C-35.05798828 42.41982422 -35.05347656 41.52714844 -35.04882812 40.60742188 C-35.03704983 38.40488013 -35.02060164 36.20247401 -35 34 C-28.36470454 39.49250091 -22.41331045 45.55266092 -16.40820312 51.71875 C-15.64056641 52.49734375 -14.87292969 53.2759375 -14.08203125 54.078125 C-13.39343018 54.78356445 -12.7048291 55.48900391 -11.99536133 56.21582031 C-8.90626161 58.97798118 -6.7509736 59.91655849 -2.625 60.375 C5.05978055 59.5800227 10.06155289 53.24546301 15.25 48 C15.96929687 47.2884375 16.68859375 46.576875 17.4296875 45.84375 C18.11804688 45.1528125 18.80640625 44.461875 19.515625 43.75 C20.13727539 43.12609375 20.75892578 42.5021875 21.39941406 41.859375 C23.94142623 38.90636025 24.9072239 36.60304464 25.5 32.75 C24.30098788 23.75740912 15.32842876 17.1415785 9.125 11.125 C7.3939505 9.44471441 5.66713529 7.76005163 3.9453125 6.0703125 C3.18750488 5.33570801 2.42969727 4.60110352 1.64892578 3.84423828 C0 2 0 2 0 0 Z " fill="#FADA48" transform="translate(346,204)"/>
<path d="M0 0 C3.89173027 2.05396875 5.86703508 4.39460061 7.765625 8.27734375 C8.14594173 11.18719387 8.14594173 11.18719387 8.15330505 14.45689392 C8.16320969 15.70039108 8.17311432 16.94388824 8.18331909 18.22506714 C8.17908135 19.59527687 8.17452352 20.96548564 8.16967773 22.33569336 C8.17538263 23.78481065 8.18234736 25.23392345 8.19047546 26.68302917 C8.20840913 30.61282757 8.20723813 34.5424027 8.20153308 38.47222972 C8.19844146 41.75505001 8.20453339 45.0378274 8.21057183 48.32064158 C8.22461617 56.06625507 8.22305659 63.81175827 8.21166992 71.55737305 C8.20018896 79.54352013 8.21426405 87.52933138 8.2410664 95.51543421 C8.26323015 102.37674254 8.26985926 109.23794551 8.26398998 116.09928709 C8.26062077 120.19520425 8.26303294 124.29090614 8.28024101 128.38679314 C8.29571894 132.23895129 8.29174567 136.09061235 8.27293587 139.94275093 C8.26925226 141.35444672 8.27235191 142.76617941 8.28282166 144.17784119 C8.37359568 157.43155046 8.37359568 157.43155046 3.765625 162.27734375 C-0.99531494 165.93960524 -6.2860237 165.88892412 -12.08984375 165.76953125 C-16.71246017 165.04599129 -19.49716998 163.02731463 -22.234375 159.27734375 C-23.31077112 156.04815538 -23.37087976 153.69749846 -23.38827515 150.30033875 C-23.39687561 149.05117676 -23.40547607 147.80201477 -23.41433716 146.51499939 C-23.41877224 145.12808269 -23.42307061 143.74116555 -23.42724609 142.35424805 C-23.43514855 140.89557704 -23.4434176 139.43690798 -23.45202637 137.97824097 C-23.4782269 133.18603376 -23.49355069 128.39381789 -23.5078125 123.6015625 C-23.51317274 121.95144966 -23.51855025 120.30133687 -23.52394485 118.65122414 C-23.54556949 111.78757706 -23.56430653 104.92393233 -23.57556725 98.06025982 C-23.59180981 88.22502855 -23.6249995 78.39019211 -23.68196809 68.55510968 C-23.72066491 61.63866439 -23.74019953 54.72232473 -23.74548781 47.80577403 C-23.74914127 43.67507679 -23.76116164 39.54480085 -23.79359055 35.41422081 C-23.82366753 31.52759388 -23.82998478 27.64164326 -23.81820679 23.75492477 C-23.81798603 22.33030361 -23.82629351 20.90565109 -23.84386063 19.48113823 C-23.98496139 7.37838385 -23.98496139 7.37838385 -20.81973267 3.46736145 C-14.83203227 -1.60472974 -7.56706022 -2.44738836 0 0 Z " fill="#040102" transform="translate(78.234375,238.72265625)"/>
<path d="M0 0 C3.32715203 2.06686717 5.15132845 4.83331505 6.859375 8.2734375 C7.24705505 11.45384216 7.24705505 11.45384216 7.26342773 15.07983398 C7.27029099 15.74392273 7.27715424 16.40801147 7.28422546 17.09222412 C7.30245194 19.27654709 7.29866218 21.46014892 7.29296875 23.64453125 C7.2975327 25.1700107 7.30283891 26.6954881 7.30885315 28.22096252 C7.31777615 31.41440191 7.31537067 34.60759111 7.30541992 37.80102539 C7.29393312 41.88443035 7.31414048 45.96697016 7.34333706 50.0502615 C7.36172313 53.19966578 7.36140184 56.34886367 7.35569954 59.49830818 C7.35554661 61.00333939 7.36156779 62.50838485 7.37399101 64.01336479 C7.38894543 66.12200345 7.3781942 68.22905593 7.36108398 70.33764648 C7.36091782 71.53501938 7.36075165 72.73239227 7.36058044 73.96604919 C6.60775617 78.9338368 4.3712743 82.11043804 0.421875 85.1484375 C-5.11775618 86.89779471 -10.39823745 87.17224599 -16.140625 86.2734375 C-20.28282032 84.09621748 -22.66092165 81.71254756 -24.140625 77.2734375 C-24.24542681 75.04625097 -24.28929765 72.8160419 -24.30175781 70.58642578 C-24.30672272 69.91126923 -24.31168762 69.23611267 -24.31680298 68.54049683 C-24.33140098 66.30823749 -24.33822246 64.07604921 -24.34375 61.84375 C-24.3495032 60.29059853 -24.35526091 58.73744709 -24.36102295 57.18429565 C-24.37152607 53.92771067 -24.37737331 50.67115032 -24.38085938 47.41455078 C-24.38634407 43.2459768 -24.41037423 39.07772945 -24.43883133 34.90925789 C-24.45747389 31.70074518 -24.46266415 28.49231092 -24.46419525 25.28374863 C-24.46721844 23.74718311 -24.47523573 22.21061886 -24.48838043 20.6741066 C-24.50547612 18.52223237 -24.50355266 16.37115327 -24.49707031 14.21923828 C-24.50071594 12.99584747 -24.50436157 11.77245667 -24.50811768 10.51199341 C-24.10563383 6.96507523 -23.25464665 5.11739012 -21.140625 2.2734375 C-15.4572259 -2.22797218 -6.74022869 -2.28774186 0 0 Z " fill="#060707" transform="translate(79.140625,54.7265625)"/>
<path d="M0 0 C2.64 0 5.28 0 8 0 C8 46.86 8 93.72 8 142 C5.36 142 2.72 142 0 142 C0 95.14 0 48.28 0 0 Z " fill="#E2EBEC" transform="translate(66,250)"/>
<path d="M0 0 C2.31 0 4.62 0 7 0 C7 20.79 7 41.58 7 63 C4.69 63 2.38 63 0 63 C0 42.21 0 21.42 0 0 Z " fill="#ECF6F7" transform="translate(67,66)"/>
<path d="M0 0 C3.96 0 7.92 0 12 0 C12 2.97 12 5.94 12 9 C8.04 9 4.08 9 0 9 C0 6.03 0 3.06 0 0 Z " fill="#F4FEFF" transform="translate(232,475)"/>
<path d="M0 0 C3.96 0 7.92 0 12 0 C12 2.97 12 5.94 12 9 C8.04 9 4.08 9 0 9 C0 6.03 0 3.06 0 0 Z " fill="#F4FEFF" transform="translate(76,475)"/>
</svg>
