<?xml version="1.0" encoding="UTF-8"?>
<svg xmlns="http://www.w3.org/2000/svg" xmlns:xlink="http://www.w3.org/1999/xlink" width="48pt" height="48pt" viewBox="0 0 48 48" version="1.1">
<g id="surface1">
<path style=" stroke:none;fill-rule:nonzero;fill:#BCBCBC;fill-opacity:1;" d="M 20.53125 30.382813 C 20.335938 30.335938 20.15625 30.347656 20.007813 30.414063 C 20.371094 30.582031 20.746094 30.722656 21.09375 30.9375 C 20.980469 30.675781 20.792969 30.449219 20.53125 30.382813 Z "/>
<path style=" stroke:none;fill-rule:nonzero;fill:#FEBF10;fill-opacity:1;" d="M 22.398438 31.996094 C 22.359375 30.609375 21.664063 29.652344 20.765625 28.660156 C 19.902344 27.703125 19.171875 26.710938 18.535156 25.585938 C 17.886719 24.441406 17.335938 23.089844 16.367188 22.171875 C 15.675781 21.515625 14.757813 21.054688 13.773438 21.300781 C 12.628906 21.582031 11.710938 22.332031 10.921875 23.175781 C 8.933594 25.292969 6.957031 27.421875 5.109375 29.652344 L 5.109375 29.851563 C 5.109375 29.933594 5.089844 30.007813 5.0625 30.066406 C 5.25 30.160156 5.457031 30.207031 5.652344 30.140625 C 5.972656 30.027344 6.214844 29.792969 6.429688 29.539063 C 7.070313 28.789063 7.753906 28.125 8.492188 27.46875 C 9.179688 26.859375 9.863281 26.269531 10.5 25.621094 C 10.988281 25.125 11.539063 24.589844 12.195313 24.335938 C 13.191406 23.960938 14.082031 24.394531 14.53125 25.332031 C 14.945313 26.175781 14.972656 27.132813 15.195313 28.03125 C 15.554688 29.445313 15.890625 30.871094 16.171875 32.304688 C 16.445313 33.664063 16.59375 35.054688 16.929688 36.402344 C 17.203125 37.5 17.53125 38.664063 17.335938 39.804688 C 17.15625 40.847656 16.632813 41.820313 15.742188 42.402344 C 15.007813 42.882813 14.109375 43.273438 13.519531 43.929688 C 13.414063 44.042969 13.058594 44.476563 13.339844 44.617188 C 13.601563 44.746094 13.96875 44.671875 14.175781 44.476563 C 14.257813 44.398438 14.351563 44.351563 14.457031 44.335938 C 15.75 43.039063 17.4375 42.273438 18.929688 41.242188 C 19.679688 40.726563 20.445313 40.132813 20.945313 39.347656 C 21.554688 38.382813 21.648438 37.339844 21.742188 36.226563 C 21.871094 34.789063 22.433594 33.402344 22.398438 31.996094 Z M 22.171875 31.753906 C 21.964844 32.90625 20.898438 33.871094 19.707031 33.289063 C 18.710938 32.8125 18.074219 31.726563 18.140625 30.628906 C 18.160156 30.300781 18.421875 30.1875 18.664063 30.234375 C 19.199219 29.539063 20.015625 29.101563 20.925781 29.445313 C 21.835938 29.792969 22.339844 30.816406 22.171875 31.753906 Z "/>
<path style=" stroke:none;fill-rule:nonzero;fill:#BCBCBC;fill-opacity:1;" d="M 20.671875 31.882813 C 20.230469 31.601563 19.734375 31.445313 19.265625 31.199219 C 19.257813 31.210938 19.257813 31.21875 19.246094 31.226563 C 19.238281 31.246094 19.226563 31.265625 19.21875 31.285156 C 19.359375 31.726563 19.707031 32.136719 20.070313 32.324219 C 20.53125 32.550781 20.878906 32.304688 21.046875 31.914063 C 20.933594 31.960938 20.792969 31.960938 20.671875 31.882813 Z "/>
<path style=" stroke:none;fill-rule:nonzero;fill:#127274;fill-opacity:1;" d="M 14.007813 41.839844 C 13.3125 40.679688 12.722656 39.507813 12.769531 38.117188 C 12.816406 36.816406 12.976563 35.511719 12.394531 34.292969 C 11.804688 33.066406 10.714844 32.175781 10.304688 30.824219 C 10.105469 30.179688 10.03125 29.511719 10.058594 28.835938 C 10.085938 28.265625 10.246094 27.722656 10.339844 27.160156 C 9.777344 27.675781 9.207031 28.179688 8.644531 28.695313 C 8.128906 29.175781 7.679688 29.679688 7.210938 30.195313 C 7.257813 30.242188 7.304688 30.308594 7.332031 30.394531 C 7.527344 30.929688 7.941406 31.332031 8.25 31.800781 C 8.625 32.371094 8.820313 32.953125 8.867188 33.636719 C 8.972656 35.035156 8.738281 36.46875 9.449219 37.742188 C 10.492188 39.617188 12.375 41.035156 12.695313 43.265625 C 13.125 42.75 13.734375 42.382813 14.296875 42.039063 C 14.183594 42.039063 14.082031 41.972656 14.007813 41.839844 Z "/>
<path style=" stroke:none;fill-rule:nonzero;fill:#BCBCBC;fill-opacity:1;" d="M 41.945313 6.273438 C 41.671875 5.644531 41.398438 5.015625 41.15625 4.378906 C 41.054688 4.105469 40.960938 3.75 40.800781 3.46875 C 38.71875 4.941406 36.804688 6.628906 34.789063 8.195313 C 32.664063 9.851563 30.515625 11.492188 28.378906 13.144531 C 26.289063 14.757813 24.253906 16.472656 22.097656 18.007813 C 21.054688 18.75 19.996094 19.445313 18.945313 20.164063 C 18.554688 20.4375 18.179688 20.757813 17.765625 20.992188 C 17.617188 21.074219 17.476563 21.148438 17.324219 21.234375 C 17.277344 21.261719 17.230469 21.289063 17.183594 21.320313 C 17.164063 21.367188 17.128906 21.414063 17.101563 21.460938 C 17.289063 21.648438 17.464844 21.84375 17.632813 22.050781 C 18.476563 23.128906 19.023438 24.421875 19.734375 25.585938 C 20.390625 26.671875 21.207031 27.5625 22.023438 28.527344 C 22.546875 29.148438 22.976563 29.820313 23.222656 30.5625 C 26.398438 26.785156 30.167969 23.570313 33.355469 19.789063 C 35.035156 17.804688 36.628906 15.75 38.316406 13.78125 C 38.726563 13.304688 39.140625 12.824219 39.5625 12.355469 C 39.9375 11.933594 40.378906 11.578125 40.753906 11.15625 C 41.484375 10.367188 42.179688 9.515625 42.664063 8.550781 C 42.730469 8.429688 42.824219 8.34375 42.929688 8.304688 C 42.570313 7.640625 42.242188 6.964844 41.945313 6.273438 Z M 24.742188 24.019531 C 24.207031 24.695313 23.382813 25.070313 22.507813 24.945313 C 21.804688 24.84375 21.273438 24.429688 20.71875 24.039063 C 19.210938 23.691406 19.613281 21.460938 20.210938 20.484375 C 20.992188 19.226563 23.089844 19.003906 24.308594 19.726563 C 25.773438 20.597656 25.707031 22.789063 24.742188 24.019531 Z "/>
<path style=" stroke:none;fill-rule:nonzero;fill:#BCBCBC;fill-opacity:1;" d="M 43.433594 9.289063 C 42.355469 11.222656 40.613281 12.664063 39.1875 14.324219 C 37.5 16.292969 35.90625 18.347656 34.226563 20.335938 C 30.851563 24.328125 26.839844 27.710938 23.539063 31.761719 C 23.503906 31.808594 23.464844 31.847656 23.417969 31.875 C 23.417969 31.882813 23.417969 31.902344 23.417969 31.914063 C 23.410156 33.132813 23.054688 34.285156 22.867188 35.476563 C 23.878906 35.578125 25.21875 35.539063 25.640625 34.554688 C 26.117188 33.441406 25.753906 31.894531 26.804688 31.050781 C 27.308594 30.648438 27.9375 30.609375 28.546875 30.554688 C 29.042969 30.507813 29.625 30.394531 29.785156 29.839844 C 30.085938 28.773438 29.726563 27.273438 30.636719 26.4375 C 31.03125 26.070313 31.613281 26.136719 32.109375 26.117188 C 32.671875 26.109375 33.027344 25.96875 33.261719 25.425781 C 33.710938 24.414063 33.542969 23.277344 34.179688 22.320313 C 34.566406 21.742188 35.398438 21.851563 35.980469 21.601563 C 35.972656 21.601563 36 21.582031 36.019531 21.554688 C 36.054688 21.496094 36.09375 21.449219 36.121094 21.394531 C 36.273438 21.140625 36.421875 20.886719 36.5625 20.632813 C 36.851563 20.089844 37.003906 19.539063 37.210938 18.964844 C 37.378906 18.46875 37.480469 17.945313 37.875 17.578125 C 38.296875 17.183594 38.839844 17.175781 39.394531 17.175781 C 39.730469 17.175781 39.984375 17.148438 40.199219 16.855469 C 40.320313 16.6875 40.425781 16.480469 40.492188 16.285156 C 40.621094 15.835938 40.679688 15.375 40.761719 14.925781 C 40.941406 13.96875 41.304688 13.191406 42.242188 12.804688 C 42.617188 12.65625 42.910156 12.601563 43.125 12.226563 C 43.40625 11.746094 43.695313 11.242188 43.714844 10.667969 C 43.726563 10.480469 43.820313 10.332031 43.941406 10.246094 C 43.78125 9.917969 43.601563 9.609375 43.433594 9.289063 Z "/>
<path style=" stroke:none;fill-rule:nonzero;fill:#000000;fill-opacity:1;" d="M 44.953125 9.898438 C 44.148438 8.511719 43.414063 7.085938 42.777344 5.617188 C 42.515625 5.015625 42.273438 4.40625 42.039063 3.796875 C 41.851563 3.300781 41.644531 2.691406 41.210938 2.34375 C 40.949219 2.148438 40.660156 2.230469 40.492188 2.417969 C 40.472656 2.429688 40.460938 2.4375 40.445313 2.445313 C 38.175781 4.023438 36.101563 5.859375 33.929688 7.546875 C 31.648438 9.320313 29.363281 11.070313 27.074219 12.824219 C 24.851563 14.53125 22.695313 16.339844 20.382813 17.914063 C 19.367188 18.609375 18.355469 19.320313 17.34375 20.007813 C 17.042969 20.210938 16.695313 20.335938 16.414063 20.558594 C 16.351563 20.617188 16.292969 20.679688 16.246094 20.757813 C 15.683594 20.417969 15.046875 20.203125 14.351563 20.183594 C 13.039063 20.136719 11.792969 20.933594 10.855469 21.777344 C 9.523438 22.976563 8.34375 24.402344 7.144531 25.726563 C 6.542969 26.382813 5.953125 27.054688 5.371094 27.722656 C 5.0625 28.078125 4.753906 28.445313 4.453125 28.808594 C 4.359375 28.921875 4.226563 29.042969 4.152344 29.183594 C 4.039063 29.277344 3.957031 29.417969 3.957031 29.605469 C 3.957031 29.859375 3.898438 30.195313 3.984375 30.441406 C 4.078125 30.703125 4.398438 30.835938 4.632813 30.945313 C 5.101563 31.171875 5.625 31.210938 6.113281 31.039063 C 6.226563 31.003906 6.335938 30.945313 6.441406 30.882813 C 6.628906 31.304688 6.898438 31.660156 7.171875 32.035156 C 7.621094 32.625 7.820313 33.140625 7.867188 33.882813 C 7.96875 35.296875 7.800781 36.648438 8.4375 37.96875 C 9.328125 39.84375 11.410156 41.242188 11.679688 43.386719 C 11.726563 43.761719 12.074219 43.894531 12.355469 43.828125 C 12.140625 44.410156 12.253906 45.074219 12.824219 45.441406 C 13.433594 45.824219 14.210938 45.664063 14.765625 45.261719 C 14.886719 45.253906 15 45.207031 15.113281 45.101563 C 16.492188 43.660156 18.421875 42.882813 20.015625 41.699219 C 20.8125 41.109375 21.507813 40.414063 22.011719 39.5625 C 22.574219 38.617188 22.679688 37.546875 22.773438 36.476563 C 23.539063 36.542969 24.335938 36.496094 25.078125 36.300781 C 26.023438 36.054688 26.570313 35.222656 26.804688 34.332031 C 27 33.582031 26.832031 32.257813 27.5625 31.773438 C 27.882813 31.554688 28.386719 31.59375 28.753906 31.554688 C 29.242188 31.507813 29.710938 31.386719 30.101563 31.097656 C 30.898438 30.507813 30.9375 29.476563 31.003906 28.574219 C 31.03125 28.164063 31.058594 27.722656 31.226563 27.347656 C 31.398438 26.980469 32.117188 27.140625 32.464844 27.121094 C 33.648438 27.066406 34.226563 26.0625 34.5 25.03125 C 34.660156 24.421875 34.613281 23.773438 34.875 23.195313 C 34.921875 23.101563 34.988281 23.007813 35.035156 22.914063 C 35.035156 22.914063 35.042969 22.902344 35.054688 22.882813 C 35.148438 22.855469 35.242188 22.835938 35.324219 22.808594 C 35.773438 22.6875 36.394531 22.640625 36.742188 22.285156 C 37.226563 21.789063 37.574219 21 37.847656 20.371094 C 38.015625 19.96875 38.109375 19.539063 38.25 19.117188 C 38.34375 18.816406 38.398438 18.429688 38.671875 18.234375 C 38.953125 18.027344 39.5625 18.167969 39.890625 18.140625 C 40.339844 18.09375 40.714844 17.839844 40.996094 17.492188 C 41.457031 16.949219 41.597656 16.210938 41.71875 15.523438 C 41.820313 14.914063 41.851563 14.164063 42.429688 13.820313 C 42.9375 13.507813 43.445313 13.460938 43.835938 12.976563 C 44.371094 12.308594 44.71875 11.457031 44.757813 10.601563 C 44.980469 10.5 45.121094 10.199219 44.953125 9.898438 Z M 12.695313 43.292969 C 12.382813 41.0625 10.5 39.648438 9.449219 37.773438 C 8.738281 36.496094 8.972656 35.054688 8.867188 33.664063 C 8.820313 32.980469 8.625 32.390625 8.25 31.828125 C 7.941406 31.359375 7.527344 30.957031 7.332031 30.421875 C 7.304688 30.335938 7.257813 30.28125 7.210938 30.226563 C 7.679688 29.699219 8.128906 29.203125 8.644531 28.726563 C 9.207031 28.199219 9.777344 27.703125 10.339844 27.1875 C 10.246094 27.75 10.085938 28.292969 10.058594 28.867188 C 10.03125 29.539063 10.105469 30.207031 10.304688 30.851563 C 10.714844 32.195313 11.792969 33.085938 12.394531 34.320313 C 12.984375 35.539063 12.816406 36.84375 12.769531 38.148438 C 12.722656 39.535156 13.3125 40.707031 14.007813 41.867188 C 14.082031 42 14.183594 42.066406 14.296875 42.09375 C 13.734375 42.402344 13.117188 42.777344 12.695313 43.292969 Z M 11.371094 26.203125 C 11.398438 26.175781 11.429688 26.148438 11.457031 26.117188 C 12.039063 25.546875 13.085938 24.675781 13.613281 25.761719 C 14.023438 26.605469 14.054688 27.628906 14.277344 28.539063 C 14.644531 29.980469 14.980469 31.433594 15.261719 32.898438 C 15.515625 34.226563 15.683594 35.558594 16.011719 36.871094 C 16.292969 37.96875 16.585938 39.148438 16.164063 40.257813 C 16.003906 40.667969 15.769531 41.101563 15.402344 41.371094 C 15.242188 41.484375 15.085938 41.585938 14.914063 41.691406 C 14.960938 41.558594 14.953125 41.410156 14.859375 41.257813 C 14.175781 40.117188 13.714844 39.066406 13.808594 37.707031 C 13.902344 36.429688 13.894531 35.148438 13.359375 33.957031 C 12.835938 32.785156 11.832031 31.929688 11.351563 30.730469 C 11.128906 30.148438 11.0625 29.53125 11.070313 28.914063 C 11.089844 28.085938 11.398438 27.300781 11.417969 26.464844 C 11.4375 26.363281 11.410156 26.269531 11.371094 26.203125 Z M 21.75 36.195313 C 21.65625 37.3125 21.554688 38.351563 20.953125 39.320313 C 20.464844 40.105469 19.6875 40.695313 18.9375 41.210938 C 17.4375 42.242188 15.757813 43.011719 14.464844 44.304688 C 14.371094 44.324219 14.269531 44.363281 14.183594 44.445313 C 13.96875 44.644531 13.613281 44.71875 13.351563 44.585938 C 13.070313 44.445313 13.425781 44.015625 13.527344 43.902344 C 14.117188 43.246094 15.019531 42.851563 15.75 42.375 C 16.640625 41.792969 17.164063 40.820313 17.34375 39.777344 C 17.539063 38.632813 17.222656 37.472656 16.941406 36.375 C 16.601563 35.023438 16.453125 33.648438 16.179688 32.277344 C 15.898438 30.84375 15.554688 29.429688 15.207031 28.003906 C 14.980469 27.101563 14.945313 26.148438 14.539063 25.304688 C 14.089844 24.375 13.199219 23.945313 12.207031 24.308594 C 11.539063 24.5625 10.996094 25.097656 10.507813 25.59375 C 9.871094 26.242188 9.1875 26.832031 8.503906 27.441406 C 7.761719 28.097656 7.078125 28.761719 6.441406 29.511719 C 6.226563 29.765625 5.980469 30 5.664063 30.113281 C 5.464844 30.179688 5.257813 30.121094 5.070313 30.039063 C 5.101563 29.972656 5.117188 29.898438 5.117188 29.820313 L 5.117188 29.625 C 6.976563 27.394531 8.953125 25.265625 10.929688 23.148438 C 11.71875 22.304688 12.636719 21.554688 13.78125 21.273438 C 14.757813 21.027344 15.683594 21.488281 16.378906 22.144531 C 17.351563 23.0625 17.898438 24.414063 18.542969 25.554688 C 19.171875 26.679688 19.914063 27.675781 20.773438 28.632813 C 21.664063 29.625 22.367188 30.582031 22.40625 31.96875 C 22.433594 33.402344 21.871094 34.789063 21.75 36.195313 Z M 22.003906 28.519531 C 21.1875 27.554688 20.371094 26.664063 19.714844 25.574219 C 19.003906 24.402344 18.460938 23.117188 17.617188 22.039063 C 17.445313 21.824219 17.269531 21.628906 17.082031 21.449219 C 17.117188 21.402344 17.148438 21.355469 17.164063 21.308594 C 17.210938 21.28125 17.257813 21.253906 17.304688 21.226563 C 17.457031 21.140625 17.597656 21.066406 17.746094 20.980469 C 18.160156 20.746094 18.535156 20.429688 18.929688 20.15625 C 19.976563 19.433594 21.039063 18.742188 22.078125 18 C 24.234375 16.472656 26.269531 14.746094 28.359375 13.132813 C 30.496094 11.484375 32.644531 9.84375 34.773438 8.183594 C 36.777344 6.617188 38.699219 4.929688 40.78125 3.460938 C 40.941406 3.742188 41.035156 4.105469 41.136719 4.367188 C 41.382813 5.007813 41.652344 5.632813 41.925781 6.261719 C 42.226563 6.957031 42.554688 7.632813 42.898438 8.304688 C 42.796875 8.34375 42.703125 8.429688 42.636719 8.550781 C 42.140625 9.507813 41.457031 10.359375 40.726563 11.15625 C 40.339844 11.570313 39.910156 11.933594 39.535156 12.355469 C 39.113281 12.824219 38.699219 13.304688 38.289063 13.78125 C 36.601563 15.75 35.007813 17.804688 33.328125 19.789063 C 30.140625 23.558594 26.371094 26.773438 23.195313 30.5625 C 22.960938 29.8125 22.527344 29.136719 22.003906 28.519531 Z M 43.734375 10.648438 C 43.714844 11.222656 43.425781 11.726563 43.144531 12.207031 C 42.917969 12.582031 42.636719 12.636719 42.261719 12.789063 C 41.324219 13.171875 40.949219 13.960938 40.78125 14.90625 C 40.695313 15.367188 40.640625 15.824219 40.507813 16.265625 C 40.453125 16.472656 40.351563 16.667969 40.21875 16.835938 C 40.003906 17.128906 39.75 17.15625 39.414063 17.15625 C 38.867188 17.15625 38.324219 17.164063 37.894531 17.558594 C 37.5 17.933594 37.398438 18.460938 37.226563 18.945313 C 37.03125 19.527344 36.882813 20.070313 36.582031 20.617188 C 36.441406 20.867188 36.289063 21.121094 36.140625 21.375 C 36.101563 21.429688 36.074219 21.488281 36.039063 21.535156 C 36.019531 21.5625 35.980469 21.589844 36 21.582031 C 35.417969 21.835938 34.585938 21.710938 34.199219 22.304688 C 33.5625 23.257813 33.730469 24.394531 33.28125 25.40625 C 33.039063 25.949219 32.691406 26.089844 32.128906 26.101563 C 31.632813 26.109375 31.050781 26.054688 30.65625 26.417969 C 29.757813 27.253906 30.113281 28.742188 29.804688 29.820313 C 29.644531 30.375 29.054688 30.488281 28.566406 30.535156 C 27.945313 30.589844 27.320313 30.636719 26.820313 31.03125 C 25.773438 31.875 26.136719 33.421875 25.660156 34.539063 C 25.238281 35.511719 23.898438 35.558594 22.882813 35.457031 C 23.070313 34.265625 23.429688 33.113281 23.4375 31.894531 C 23.4375 31.882813 23.4375 31.867188 23.4375 31.855469 C 23.476563 31.828125 23.523438 31.789063 23.558594 31.742188 C 26.859375 27.683594 30.871094 24.300781 34.246094 20.316406 C 35.925781 18.328125 37.519531 16.285156 39.207031 14.304688 C 40.632813 12.636719 42.367188 11.203125 43.453125 9.273438 C 43.621094 9.589844 43.800781 9.898438 43.976563 10.210938 C 43.828125 10.320313 43.734375 10.460938 43.734375 10.648438 Z "/>
<path style=" stroke:none;fill-rule:nonzero;fill:#000000;fill-opacity:1;" d="M 20.933594 29.4375 C 20.023438 29.082031 19.210938 29.53125 18.675781 30.226563 C 18.421875 30.179688 18.167969 30.300781 18.148438 30.617188 C 18.074219 31.714844 18.710938 32.804688 19.714844 33.28125 C 20.90625 33.851563 21.964844 32.886719 22.179688 31.742188 C 22.339844 30.816406 21.835938 29.792969 20.933594 29.4375 Z M 20.082031 32.324219 C 19.707031 32.148438 19.367188 31.726563 19.226563 31.285156 C 19.238281 31.265625 19.246094 31.246094 19.257813 31.226563 C 19.265625 31.21875 19.265625 31.210938 19.273438 31.199219 C 19.734375 31.445313 20.242188 31.601563 20.679688 31.882813 C 20.792969 31.960938 20.945313 31.960938 21.066406 31.914063 C 20.886719 32.304688 20.539063 32.550781 20.082031 32.324219 Z M 19.996094 30.414063 C 20.15625 30.347656 20.324219 30.335938 20.523438 30.382813 C 20.785156 30.449219 20.972656 30.675781 21.074219 30.9375 C 20.746094 30.730469 20.363281 30.582031 19.996094 30.414063 Z "/>
<path style=" stroke:none;fill-rule:nonzero;fill:#000000;fill-opacity:1;" d="M 24.308594 19.726563 C 23.089844 19.003906 20.992188 19.226563 20.210938 20.484375 C 19.613281 21.449219 19.210938 23.691406 20.71875 24.039063 C 21.273438 24.421875 21.804688 24.84375 22.507813 24.945313 C 23.371094 25.070313 24.207031 24.695313 24.742188 24.019531 C 25.707031 22.789063 25.773438 20.597656 24.308594 19.726563 Z M 23.832031 23.503906 C 23.054688 24.402344 22.085938 23.757813 21.28125 23.195313 C 21.242188 23.148438 21.1875 23.117188 21.132813 23.089844 C 20.992188 22.996094 20.859375 22.902344 20.726563 22.828125 C 20.523438 22.339844 20.945313 21.214844 21.148438 20.945313 C 21.742188 20.164063 23.175781 20.25 23.933594 20.699219 C 24.335938 20.945313 24.402344 21.554688 24.414063 21.976563 C 24.414063 22.519531 24.1875 23.089844 23.832031 23.503906 Z "/>
</g>
</svg>
