<?xml version="1.0" encoding="UTF-8"?>
<svg xmlns="http://www.w3.org/2000/svg" xmlns:xlink="http://www.w3.org/1999/xlink" width="24pt" height="24pt" viewBox="0 0 24 24" version="1.1">
<g id="surface1">
<path style=" stroke:none;fill-rule:nonzero;fill:#5B5B5B;fill-opacity:1;" d="M 20 2 L 17 2 C 16.449219 2 16 2.449219 16 3 L 16 6 C 16 6.550781 16.449219 7 17 7 L 20 7 C 20.550781 7 21 6.550781 21 6 L 21 3 C 21 2.449219 20.550781 2 20 2 Z M 19 5 L 18 5 L 18 4 L 19 4 Z "/>
<path style=" stroke:none;fill-rule:nonzero;fill:#5B5B5B;fill-opacity:1;" d="M 6 2 L 3 2 C 2.449219 2 2 2.449219 2 3 L 2 6 C 2 6.550781 2.449219 7 3 7 L 6 7 C 6.550781 7 7 6.550781 7 6 L 7 3 C 7 2.449219 6.550781 2 6 2 Z M 5 5 L 4 5 L 4 4 L 5 4 Z "/>
<path style=" stroke:none;fill-rule:nonzero;fill:#5B5B5B;fill-opacity:1;" d="M 20 16 L 17 16 C 16.449219 16 16 16.449219 16 17 L 16 20 C 16 20.550781 16.449219 21 17 21 L 20 21 C 20.550781 21 21 20.550781 21 20 L 21 17 C 21 16.449219 20.550781 16 20 16 Z M 19 19 L 18 19 L 18 18 L 19 18 Z "/>
<path style=" stroke:none;fill-rule:nonzero;fill:#5B5B5B;fill-opacity:1;" d="M 6 16 L 3 16 C 2.449219 16 2 16.449219 2 17 L 2 20 C 2 20.550781 2.449219 21 3 21 L 6 21 C 6.550781 21 7 20.550781 7 20 L 7 17 C 7 16.449219 6.550781 16 6 16 Z M 5 19 L 4 19 L 4 18 L 5 18 Z "/>
<path style=" stroke:none;fill-rule:nonzero;fill:#5B5B5B;fill-opacity:1;" d="M 13 9 L 10 9 C 9.449219 9 9 9.449219 9 10 L 9 13 C 9 13.550781 9.449219 14 10 14 L 13 14 C 13.550781 14 14 13.550781 14 13 L 14 10 C 14 9.449219 13.550781 9 13 9 Z M 12 12 L 11 12 L 11 11 L 12 11 Z "/>
<path style=" stroke:none;fill-rule:nonzero;fill:#5B5B5B;fill-opacity:1;" d="M 20 9 L 17 9 C 16.449219 9 16 9.449219 16 10 L 16 13 C 16 13.550781 16.449219 14 17 14 L 20 14 C 20.550781 14 21 13.550781 21 13 L 21 10 C 21 9.449219 20.550781 9 20 9 Z M 18.5 12 C 18.222656 12 18 11.777344 18 11.5 C 18 11.222656 18.222656 11 18.5 11 C 18.777344 11 19 11.222656 19 11.5 C 19 11.777344 18.777344 12 18.5 12 Z "/>
<path style=" stroke:none;fill-rule:nonzero;fill:#5B5B5B;fill-opacity:1;" d="M 13 2 L 10 2 C 9.449219 2 9 2.449219 9 3 L 9 6 C 9 6.550781 9.449219 7 10 7 L 13 7 C 13.550781 7 14 6.550781 14 6 L 14 3 C 14 2.449219 13.550781 2 13 2 Z M 11.5 5 C 11.222656 5 11 4.777344 11 4.5 C 11 4.222656 11.222656 4 11.5 4 C 11.777344 4 12 4.222656 12 4.5 C 12 4.777344 11.777344 5 11.5 5 Z "/>
<path style=" stroke:none;fill-rule:nonzero;fill:#5B5B5B;fill-opacity:1;" d="M 13 16 L 10 16 C 9.449219 16 9 16.449219 9 17 L 9 20 C 9 20.550781 9.449219 21 10 21 L 13 21 C 13.550781 21 14 20.550781 14 20 L 14 17 C 14 16.449219 13.550781 16 13 16 Z M 11.5 19 C 11.222656 19 11 18.777344 11 18.5 C 11 18.222656 11.222656 18 11.5 18 C 11.777344 18 12 18.222656 12 18.5 C 12 18.777344 11.777344 19 11.5 19 Z "/>
<path style=" stroke:none;fill-rule:nonzero;fill:#5B5B5B;fill-opacity:1;" d="M 6 9 L 3 9 C 2.449219 9 2 9.449219 2 10 L 2 13 C 2 13.550781 2.449219 14 3 14 L 6 14 C 6.550781 14 7 13.550781 7 13 L 7 10 C 7 9.449219 6.550781 9 6 9 Z M 4.5 12 C 4.222656 12 4 11.777344 4 11.5 C 4 11.222656 4.222656 11 4.5 11 C 4.777344 11 5 11.222656 5 11.5 C 5 11.777344 4.777344 12 4.5 12 Z "/>
</g>
</svg>
