<?xml version="1.0" encoding="UTF-8"?>
<svg xmlns="http://www.w3.org/2000/svg" xmlns:xlink="http://www.w3.org/1999/xlink" width="48pt" height="48pt" viewBox="0 0 48 48" version="1.1">
<g id="surface1">
<path style=" stroke:none;fill-rule:nonzero;fill:#D6E5E5;fill-opacity:1;" d="M 26.867188 37.292969 C 26.859375 37.351563 26.839844 37.414063 26.804688 37.472656 C 26.617188 37.773438 26.492188 38.101563 26.363281 38.417969 C 26.644531 38.304688 26.972656 38.269531 27.28125 38.304688 C 27.113281 37.988281 26.972656 37.648438 26.867188 37.292969 Z "/>
<path style=" stroke:none;fill-rule:nonzero;fill:#D6E5E5;fill-opacity:1;" d="M 24.65625 37.117188 C 24.085938 37.023438 23.523438 36.796875 22.941406 36.835938 C 22.902344 36.835938 22.875 36.835938 22.847656 36.835938 C 22.632813 37.273438 22.292969 37.667969 21.851563 38.007813 C 21.890625 38.042969 21.917969 38.101563 21.945313 38.15625 C 22.164063 38.644531 22.414063 39.113281 22.679688 39.582031 C 22.882813 39.957031 23.203125 40.367188 23.316406 40.78125 C 23.382813 41.007813 23.476563 41.222656 23.597656 41.417969 C 23.605469 41.398438 23.625 41.371094 23.632813 41.351563 C 24.132813 40.574219 24.554688 39.796875 24.957031 38.960938 C 25.238281 38.390625 25.445313 37.761719 25.753906 37.210938 C 25.398438 37.191406 25.023438 37.171875 24.65625 37.117188 Z "/>
<path style=" stroke:none;fill-rule:nonzero;fill:#EF4754;fill-opacity:1;" d="M 27.421875 39.496094 C 27.355469 39.335938 27.066406 39.273438 26.867188 39.328125 C 26.820313 39.335938 26.652344 39.394531 26.664063 39.394531 C 26.632813 39.402344 26.503906 39.515625 26.550781 39.460938 C 26.53125 39.476563 26.523438 39.488281 26.523438 39.488281 C 26.625 39.710938 26.558594 39.929688 26.429688 40.078125 C 26.738281 40.660156 27.730469 40.191406 27.421875 39.496094 Z "/>
<path style=" stroke:none;fill-rule:nonzero;fill:#FCBF95;fill-opacity:1;" d="M 29.886719 34.902344 C 29.804688 34.5 29.792969 34.125 29.792969 33.730469 C 28.789063 34.339844 27.65625 34.761719 26.417969 34.941406 C 25.152344 35.128906 23.898438 35.054688 22.6875 34.761719 C 22.820313 35.128906 22.875 35.464844 22.875 35.785156 C 23.382813 35.792969 23.851563 35.933594 24.347656 36.039063 C 24.957031 36.160156 25.59375 36.160156 26.210938 36.167969 C 27.328125 36.179688 28.40625 36.132813 29.429688 35.679688 C 29.457031 35.644531 29.492188 35.605469 29.53125 35.570313 C 29.605469 35.511719 29.691406 35.476563 29.773438 35.445313 C 29.859375 35.417969 29.945313 35.410156 30.039063 35.429688 C 29.972656 35.257813 29.925781 35.082031 29.886719 34.902344 Z "/>
<path style=" stroke:none;fill-rule:nonzero;fill:#D6E5E5;fill-opacity:1;" d="M 31.21875 36.992188 C 31.039063 36.804688 30.871094 36.609375 30.722656 36.382813 C 30.683594 36.328125 30.648438 36.273438 30.617188 36.214844 C 30.582031 36.300781 30.523438 36.375 30.441406 36.421875 C 29.617188 36.84375 28.78125 37.058594 27.898438 37.144531 C 28.171875 37.949219 28.679688 38.671875 29.007813 39.449219 C 29.175781 39.851563 29.316406 40.492188 29.605469 40.902344 C 29.953125 40.292969 30.1875 39.589844 30.488281 38.960938 C 30.628906 38.664063 30.769531 38.363281 30.890625 38.054688 C 30.945313 37.902344 31.011719 37.753906 31.039063 37.601563 C 31.039063 37.59375 31.058594 37.367188 31.085938 37.480469 C 31.050781 37.285156 31.105469 37.117188 31.21875 36.992188 Z "/>
<path style=" stroke:none;fill-rule:nonzero;fill:#FCBF95;fill-opacity:1;" d="M 34.070313 13.132813 C 33.695313 12.722656 33.289063 12.242188 32.980469 11.726563 C 32.34375 12.226563 31.601563 12.535156 30.769531 12.523438 C 30.101563 12.515625 29.503906 12.289063 28.988281 11.925781 C 28.527344 13.003906 27.289063 13.707031 26.128906 13.820313 C 24.542969 13.96875 22.921875 13.480469 21.871094 12.28125 C 20.832031 12.757813 19.714844 13.097656 18.5625 13.058594 C 17.953125 13.039063 17.222656 12.863281 16.648438 12.515625 C 16.445313 13.03125 16.171875 13.519531 15.835938 13.976563 C 15.636719 14.242188 15.394531 14.503906 15.113281 14.679688 C 15 14.757813 14.878906 14.832031 14.746094 14.867188 C 14.699219 14.886719 14.625 14.898438 14.550781 14.914063 C 14.652344 16.257813 14.804688 17.585938 14.992188 18.917969 C 15.28125 20.953125 15.554688 22.996094 15.890625 25.023438 C 16.171875 26.699219 16.585938 28.414063 17.511719 29.859375 C 18.496094 31.398438 19.976563 32.597656 21.65625 33.300781 C 23.859375 34.226563 26.417969 34.3125 28.613281 33.320313 C 30.757813 32.34375 32.417969 30.535156 33.375 28.398438 C 33.917969 27.1875 34.238281 25.929688 34.453125 24.65625 C 34.453125 24.648438 34.453125 24.636719 34.453125 24.617188 L 34.453125 24.496094 C 34.453125 24.394531 34.480469 24.300781 34.519531 24.226563 C 34.660156 23.269531 34.753906 22.292969 34.835938 21.320313 C 35.054688 18.9375 35.195313 16.546875 35.324219 14.15625 C 34.835938 13.96875 34.378906 13.492188 34.070313 13.132813 Z M 20.960938 18.382813 C 20.539063 18.722656 19.882813 18.65625 19.5 18.289063 C 19.039063 17.859375 19.058594 17.117188 19.398438 16.648438 C 19.210938 16.640625 19.011719 16.660156 18.816406 16.707031 C 18.742188 16.78125 18.628906 16.835938 18.476563 16.835938 L 18.28125 16.835938 C 17.699219 16.835938 17.4375 15.964844 18.066406 15.796875 C 19.265625 15.460938 20.878906 15.476563 21.273438 16.949219 C 21.402344 17.457031 21.414063 18.027344 20.960938 18.382813 Z M 23.867188 16.789063 C 23.925781 16.097656 24.976563 16.3125 24.929688 16.996094 C 24.816406 18.421875 25.058594 19.828125 25.050781 21.242188 C 25.039063 21.964844 24.84375 23.53125 25.714844 23.839844 C 26.363281 24.074219 25.882813 25.03125 25.238281 24.804688 C 24 24.367188 23.972656 22.726563 23.980469 21.636719 C 23.980469 20.007813 23.738281 18.402344 23.867188 16.789063 Z M 27.335938 28.273438 C 26.71875 28.6875 26.023438 29.175781 25.238281 29.023438 C 24.535156 28.882813 23.785156 28.5 23.503906 27.816406 C 23.230469 27.179688 24.253906 26.820313 24.515625 27.460938 C 24.65625 27.796875 25.332031 28.023438 25.667969 27.964844 C 26.0625 27.898438 26.410156 27.601563 26.738281 27.382813 C 27.308594 27 27.910156 27.890625 27.335938 28.273438 Z M 31.058594 17.867188 C 30.140625 18.367188 29.210938 17.34375 29.417969 16.433594 C 29.230469 16.480469 29.054688 16.585938 28.902344 16.761719 C 28.453125 17.289063 27.648438 16.585938 28.097656 16.050781 C 28.828125 15.195313 30.007813 15.113281 30.910156 15.769531 C 31.601563 16.273438 31.996094 17.363281 31.058594 17.867188 Z "/>
<path style=" stroke:none;fill-rule:nonzero;fill:#3AB37C;fill-opacity:1;" d="M 36.964844 30.75 C 36.542969 29.785156 36.039063 28.847656 35.710938 27.835938 C 35.691406 27.789063 35.679688 27.730469 35.664063 27.683594 C 35.671875 28.734375 35.605469 29.785156 35.363281 30.804688 C 35.164063 31.667969 34.867188 32.585938 34.929688 33.488281 C 34.96875 34.105469 35.289063 35.136719 36.09375 35.0625 C 36.757813 34.996094 37.339844 34.351563 37.460938 33.710938 C 37.660156 32.679688 37.378906 31.695313 36.964844 30.75 Z "/>
<path style=" stroke:none;fill-rule:nonzero;fill:#F6851F;fill-opacity:1;" d="M 33.179688 8.671875 C 32.757813 8.035156 32.082031 7.914063 31.414063 7.667969 C 30.636719 7.386719 30.28125 6.890625 30.242188 6.066406 C 30.207031 5.363281 29.898438 4.902344 29.242188 4.613281 C 28.632813 4.332031 27.964844 4.210938 27.300781 4.132813 C 26.570313 4.058594 25.808594 4.585938 25.425781 5.164063 C 25.273438 5.390625 25.023438 5.445313 24.816406 5.390625 C 24.664063 5.644531 24.328125 5.773438 24.066406 5.503906 C 23.109375 4.546875 21.542969 4.902344 20.445313 5.398438 C 19.789063 5.699219 19.097656 6.121094 18.851563 6.84375 C 18.65625 7.414063 18.636719 7.960938 19.320313 8.117188 C 19.902344 8.25 19.835938 9.054688 19.265625 9.140625 C 18.609375 9.234375 17.945313 9.542969 17.410156 9.945313 C 17.109375 10.171875 16.453125 10.707031 16.742188 11.15625 C 17.222656 11.886719 18.253906 12.074219 19.058594 12.007813 C 19.996094 11.933594 20.90625 11.625 21.742188 11.195313 C 21.992188 11.0625 22.285156 11.082031 22.453125 11.335938 C 23.222656 12.449219 24.617188 12.917969 25.941406 12.789063 C 26.878906 12.695313 28.191406 12.085938 28.132813 10.976563 C 28.105469 10.414063 28.753906 10.285156 29.070313 10.648438 C 30.207031 11.945313 32.0625 11.605469 32.980469 10.246094 C 33.28125 9.804688 33.496094 9.160156 33.179688 8.671875 Z "/>
<path style=" stroke:none;fill-rule:nonzero;fill:#F6851F;fill-opacity:1;" d="M 45.085938 22.875 C 45.085938 21.984375 45.113281 20.898438 44.578125 20.128906 C 44.136719 19.5 43.292969 19.199219 43.257813 18.328125 C 43.210938 17.457031 44.203125 16.894531 44.316406 16.050781 C 44.410156 15.300781 44.304688 14.511719 44.015625 13.808594 C 43.445313 12.394531 42.214844 11.371094 40.632813 11.699219 C 40.238281 11.785156 39.964844 11.277344 40.125 10.960938 C 40.632813 9.976563 40.097656 8.804688 39.375 8.070313 C 38.972656 7.667969 38.570313 7.179688 38.0625 6.917969 C 37.527344 6.636719 37.03125 6.75 36.449219 6.757813 C 36.167969 6.769531 35.925781 6.570313 35.898438 6.28125 C 35.820313 5.398438 35.445313 4.613281 34.621094 4.21875 C 33.816406 3.835938 32.898438 3.757813 32.015625 3.757813 C 31.726563 3.757813 31.492188 3.582031 31.460938 3.28125 C 31.378906 2.511719 30.273438 1.976563 29.632813 1.789063 C 28.996094 1.601563 27.945313 1.386719 27.628906 2.164063 C 27.589844 2.257813 27.535156 2.324219 27.476563 2.371094 C 27.46875 2.617188 27.429688 2.859375 27.382813 3.101563 C 28.132813 3.132813 28.949219 3.328125 29.605469 3.636719 C 30.375 3.992188 31.117188 4.613281 31.246094 5.492188 C 31.304688 5.851563 31.171875 6.429688 31.554688 6.609375 C 31.96875 6.804688 32.417969 6.871094 32.832031 7.070313 C 33.628906 7.453125 34.367188 8.203125 34.378906 9.140625 C 34.386719 9.804688 34.152344 10.445313 33.757813 10.96875 C 33.976563 11.417969 34.339844 11.859375 34.648438 12.234375 C 34.867188 12.496094 35.101563 12.757813 35.371094 12.964844 C 35.476563 13.039063 35.570313 13.125 35.691406 13.171875 C 36.148438 12.957031 36.589844 13.5 36.382813 13.875 C 36.273438 15.992188 36.148438 18.113281 35.980469 20.222656 C 35.867188 21.554688 35.792969 22.894531 35.605469 24.226563 C 35.710938 24.273438 35.804688 24.375 35.851563 24.523438 C 36.195313 25.734375 36.476563 26.980469 36.9375 28.164063 C 37.378906 29.269531 38.023438 30.308594 38.34375 31.460938 C 38.625 32.464844 38.757813 33.664063 38.230469 34.613281 C 37.835938 35.335938 37.152344 36.007813 36.289063 36.09375 C 35.371094 36.179688 34.539063 35.597656 34.179688 34.753906 C 33.777344 33.796875 33.898438 32.726563 34.117188 31.742188 C 34.359375 30.628906 34.621094 29.558594 34.648438 28.40625 C 34.648438 28.273438 34.648438 28.132813 34.648438 28.003906 C 33.871094 29.953125 32.664063 31.734375 31.058594 33.007813 C 31.039063 33.957031 30.976563 34.882813 31.527344 35.710938 C 31.988281 36.394531 32.644531 36.898438 33.382813 37.257813 C 34.621094 37.855469 35.898438 37.976563 37.238281 38.164063 C 37.929688 38.257813 38.746094 38.382813 39.46875 38.652344 C 39.554688 38.445313 39.75 38.289063 40.023438 38.316406 C 41.0625 38.410156 41.550781 36.945313 41.492188 36.140625 C 41.445313 35.585938 41.277344 35.183594 40.949219 34.742188 C 40.6875 34.378906 40.433594 34.03125 40.246094 33.617188 C 40.117188 33.328125 40.378906 32.933594 40.695313 32.933594 C 41.851563 32.953125 43.199219 31.828125 43.433594 30.703125 C 43.507813 30.355469 43.492188 29.980469 43.492188 29.625 C 43.480469 29.25 43.507813 28.714844 43.292969 28.386719 C 42.957031 27.863281 42.441406 27.535156 42.195313 26.933594 C 42.09375 26.691406 42.253906 26.34375 42.515625 26.277344 C 43.265625 26.082031 44.109375 25.800781 44.625 25.179688 C 45.132813 24.496094 45.085938 23.691406 45.085938 22.875 Z "/>
<path style=" stroke:none;fill-rule:nonzero;fill:#3AB37C;fill-opacity:1;" d="M 15.273438 32.523438 C 15.09375 31.59375 14.933594 30.683594 14.933594 29.738281 C 14.933594 28.902344 14.992188 28.078125 15.066406 27.242188 C 15 27.515625 14.933594 27.789063 14.859375 28.058594 C 14.585938 29.070313 14.222656 30.046875 13.867188 31.03125 C 13.566406 31.867188 13.265625 32.804688 13.351563 33.703125 C 13.398438 34.21875 13.527344 34.914063 13.929688 35.277344 C 14.382813 35.679688 15.019531 35.128906 15.214844 34.6875 C 15.523438 34.011719 15.414063 33.226563 15.273438 32.523438 Z "/>
<path style=" stroke:none;fill-rule:nonzero;fill:#F6851F;fill-opacity:1;" d="M 26.296875 1.902344 C 25.929688 1.59375 25.453125 1.40625 24.984375 1.3125 C 24.179688 1.144531 22.828125 1.039063 22.304688 1.855469 C 22.105469 2.15625 21.796875 2.210938 21.496094 2.015625 C 20.070313 1.050781 18.429688 1.667969 17.089844 2.464844 C 16.425781 2.859375 15.929688 3.308594 15.570313 4.003906 C 15.328125 4.492188 14.960938 4.867188 14.382813 4.882813 C 14.023438 4.894531 13.648438 4.902344 13.304688 4.960938 C 12.929688 5.015625 12.617188 5.210938 12.300781 5.398438 C 11.625 5.8125 10.96875 6.273438 10.414063 6.835938 C 9.496094 7.773438 8.476563 9.320313 8.886719 10.707031 C 8.980469 11.015625 8.785156 11.371094 8.4375 11.390625 C 7.453125 11.445313 6.710938 12.019531 6.101563 12.757813 C 5.492188 13.492188 4.960938 14.289063 4.554688 15.148438 C 4.21875 15.882813 3.628906 17.230469 4.105469 18.007813 C 4.546875 18.730469 5.203125 19.460938 4.78125 20.363281 C 4.425781 21.121094 3.617188 21.523438 3.273438 22.292969 C 2.914063 23.101563 2.851563 24.027344 2.933594 24.898438 C 3.019531 25.742188 3.167969 26.679688 3.789063 27.308594 C 4.378906 27.910156 5.117188 28.285156 5.859375 28.660156 C 6.121094 28.789063 6.207031 29.089844 6.09375 29.351563 C 5.578125 30.582031 4.808594 31.753906 5.183594 33.140625 C 5.464844 34.171875 6.242188 35.15625 7.359375 35.25 C 7.855469 35.289063 8.417969 35.363281 8.679688 35.839844 C 8.972656 36.347656 8.699219 36.757813 8.652344 37.273438 C 8.605469 37.789063 9.375 38.015625 9.75 38.0625 C 10.238281 38.128906 10.726563 38.109375 11.222656 38.109375 C 11.523438 38.109375 11.71875 38.289063 11.773438 38.585938 C 11.859375 39.039063 11.980469 39.1875 12.421875 39.308594 C 12.609375 39.355469 12.730469 39.488281 12.777344 39.628906 C 14.070313 39.207031 15.523438 39.121094 16.847656 38.851563 C 18.234375 38.558594 19.761719 38.210938 20.953125 37.414063 C 21.367188 37.132813 21.835938 36.742188 21.964844 36.261719 C 22.132813 35.652344 21.945313 35.070313 21.636719 34.539063 C 21.601563 34.480469 21.582031 34.425781 21.570313 34.367188 C 19.125 33.421875 17.054688 31.546875 15.945313 29.109375 C 15.929688 29.652344 15.945313 30.195313 15.992188 30.742188 C 16.085938 31.679688 16.386719 32.585938 16.414063 33.523438 C 16.433594 34.414063 16.246094 35.296875 15.554688 35.898438 C 14.945313 36.421875 14.148438 36.683594 13.445313 36.207031 C 12.054688 35.269531 12.1875 33.007813 12.589844 31.632813 C 12.929688 30.476563 13.425781 29.382813 13.742188 28.226563 C 14.082031 26.992188 14.324219 25.734375 14.570313 24.46875 C 14.585938 24.355469 14.632813 24.273438 14.699219 24.207031 C 14.539063 23.109375 14.410156 22.011719 14.242188 20.925781 C 13.921875 18.863281 13.640625 16.789063 13.5 14.71875 C 13.460938 14.578125 13.5 14.429688 13.632813 14.289063 C 13.820313 14.089844 14.015625 14.007813 14.277344 13.921875 C 14.570313 13.828125 14.792969 13.632813 14.972656 13.398438 C 15.355469 12.882813 15.636719 12.320313 15.851563 11.710938 C 15.804688 11.632813 15.769531 11.550781 15.742188 11.457031 C 15.234375 10.058594 16.660156 8.972656 17.992188 8.445313 C 17.757813 8.128906 17.644531 7.714844 17.699219 7.238281 C 17.820313 6.195313 18.46875 5.324219 19.359375 4.808594 C 20.859375 3.945313 23.128906 3.347656 24.582031 4.59375 C 25.003906 3.992188 25.621094 3.460938 26.335938 3.226563 C 26.324219 3.167969 26.324219 3.09375 26.335938 3.027344 C 26.390625 2.699219 26.597656 2.164063 26.296875 1.902344 Z "/>
<path style=" stroke:none;fill-rule:nonzero;fill:#D6E5E5;fill-opacity:1;" d="M 40.125 40.304688 C 39.65625 39.730469 38.832031 39.507813 38.136719 39.355469 C 36.441406 39 34.734375 39.019531 33.132813 38.277344 C 32.773438 38.117188 32.429688 37.921875 32.101563 37.707031 C 32.015625 38.277344 31.679688 38.886719 31.453125 39.347656 C 31.023438 40.238281 30.703125 41.222656 30.101563 42.007813 C 29.972656 42.1875 29.671875 42.242188 29.484375 42.132813 C 28.867188 41.773438 28.566406 41.117188 28.3125 40.472656 C 28.105469 40.894531 27.742188 41.230469 27.253906 41.335938 C 26.429688 41.523438 25.707031 41.0625 25.433594 40.339844 C 25.199219 40.828125 24.945313 41.351563 24.601563 41.757813 C 24.394531 42 24.28125 42.320313 23.972656 42.476563 C 23.175781 42.882813 22.660156 41.90625 22.425781 41.296875 C 22.050781 40.332031 21.429688 39.46875 21.007813 38.523438 C 19.226563 39.476563 16.714844 39.929688 15.226563 40.171875 C 14.203125 40.339844 10.988281 40.660156 11.746094 42.347656 C 12.234375 43.433594 13.554688 44.25 14.597656 44.746094 C 15.730469 45.289063 16.960938 45.636719 18.207031 45.796875 C 19.6875 45.992188 21.148438 46.226563 22.640625 46.339844 C 24.167969 46.460938 25.695313 46.507813 27.226563 46.492188 C 30.101563 46.453125 33.085938 46.304688 35.757813 45.113281 C 37.273438 44.4375 39.132813 43.660156 40.097656 42.234375 C 40.492188 41.671875 40.59375 40.882813 40.125 40.304688 Z "/>
<path style=" stroke:none;fill-rule:nonzero;fill:#000000;fill-opacity:1;" d="M 25.707031 23.832031 C 24.835938 23.523438 25.039063 21.957031 25.039063 21.234375 C 25.050781 19.820313 24.796875 18.414063 24.917969 16.988281 C 24.976563 16.304688 23.914063 16.085938 23.859375 16.78125 C 23.726563 18.402344 23.972656 20.007813 23.960938 21.628906 C 23.953125 22.714844 23.980469 24.355469 25.21875 24.796875 C 25.875 25.023438 26.363281 24.066406 25.707031 23.832031 Z "/>
<path style=" stroke:none;fill-rule:nonzero;fill:#000000;fill-opacity:1;" d="M 30.898438 15.757813 C 30 15.101563 28.828125 15.1875 28.085938 16.039063 C 27.636719 16.566406 28.445313 17.277344 28.894531 16.753906 C 29.042969 16.585938 29.222656 16.472656 29.410156 16.425781 C 29.203125 17.34375 30.140625 18.355469 31.050781 17.859375 C 31.996094 17.363281 31.601563 16.273438 30.898438 15.757813 Z "/>
<path style=" stroke:none;fill-rule:nonzero;fill:#000000;fill-opacity:1;" d="M 21.261719 16.949219 C 20.867188 15.476563 19.265625 15.460938 18.054688 15.796875 C 17.4375 15.964844 17.699219 16.835938 18.273438 16.835938 L 18.46875 16.835938 C 18.617188 16.835938 18.730469 16.789063 18.804688 16.707031 C 18.992188 16.667969 19.191406 16.640625 19.386719 16.648438 C 19.050781 17.117188 19.039063 17.859375 19.492188 18.289063 C 19.875 18.648438 20.53125 18.710938 20.953125 18.382813 C 21.414063 18.027344 21.402344 17.457031 21.261719 16.949219 Z "/>
<path style=" stroke:none;fill-rule:nonzero;fill:#000000;fill-opacity:1;" d="M 26.738281 27.382813 C 26.417969 27.601563 26.0625 27.890625 25.667969 27.964844 C 25.332031 28.023438 24.65625 27.796875 24.515625 27.460938 C 24.253906 26.820313 23.230469 27.167969 23.503906 27.816406 C 23.792969 28.5 24.535156 28.882813 25.238281 29.023438 C 26.023438 29.183594 26.71875 28.695313 27.335938 28.273438 C 27.910156 27.890625 27.308594 27 26.738281 27.382813 Z "/>
<path style=" stroke:none;fill-rule:nonzero;fill:#000000;fill-opacity:1;" d="M 45.835938 20.410156 C 45.695313 19.941406 45.441406 19.519531 45.113281 19.164063 C 44.980469 19.011719 44.203125 18.535156 44.277344 18.300781 C 44.4375 17.859375 44.820313 17.492188 45.054688 17.089844 C 45.308594 16.660156 45.347656 16.144531 45.367188 15.65625 C 45.414063 14.765625 45.179688 13.847656 44.792969 13.050781 C 44.117188 11.664063 42.835938 10.632813 41.316406 10.601563 C 41.484375 9.523438 41.035156 8.390625 40.320313 7.574219 C 39.824219 7.011719 39.273438 6.476563 38.644531 6.066406 C 38.070313 5.691406 37.480469 5.691406 36.851563 5.71875 C 36.65625 4.742188 36.148438 3.9375 35.257813 3.402344 C 34.414063 2.898438 33.367188 2.773438 32.371094 2.746094 C 32.007813 1.753906 30.871094 1.125 29.914063 0.816406 C 28.988281 0.523438 27.742188 0.460938 27.039063 1.171875 C 26.617188 0.742188 25.929688 0.496094 25.386719 0.347656 C 24.179688 0.0195313 22.648438 0.0664063 21.730469 0.964844 C 21.132813 0.648438 20.503906 0.46875 19.789063 0.460938 C 18.898438 0.449219 18.054688 0.84375 17.257813 1.21875 C 16.5 1.574219 15.789063 2.023438 15.214844 2.644531 C 14.945313 2.945313 14.773438 3.28125 14.597656 3.636719 C 14.445313 3.929688 14.164063 3.863281 13.867188 3.882813 C 13.480469 3.910156 13.105469 3.929688 12.730469 4.03125 C 12.328125 4.144531 11.945313 4.40625 11.585938 4.621094 C 10.789063 5.109375 10.058594 5.691406 9.421875 6.375 C 8.445313 7.414063 7.640625 8.960938 7.789063 10.433594 C 5.980469 10.847656 4.742188 12.609375 3.890625 14.164063 C 3.367188 15.132813 2.980469 16.199219 2.945313 17.304688 C 2.925781 17.8125 3.066406 18.261719 3.328125 18.695313 C 3.570313 19.085938 4.039063 19.5 3.816406 19.996094 C 3.648438 20.363281 3.234375 20.644531 2.953125 20.933594 C 2.617188 21.289063 2.371094 21.730469 2.210938 22.191406 C 1.855469 23.15625 1.828125 24.226563 1.941406 25.246094 C 2.054688 26.210938 2.304688 27.160156 2.953125 27.910156 C 3.507813 28.546875 4.226563 28.976563 4.976563 29.363281 C 4.734375 29.886719 4.472656 30.414063 4.292969 30.964844 C 4.058594 31.707031 4.011719 32.464844 4.171875 33.234375 C 4.445313 34.566406 5.316406 35.585938 6.542969 36.148438 C 6.769531 36.253906 7.050781 36.253906 7.292969 36.273438 C 7.460938 36.289063 7.828125 36.289063 7.820313 36.414063 C 7.78125 36.722656 7.632813 37.011719 7.640625 37.332031 C 7.648438 37.667969 7.78125 37.960938 7.976563 38.230469 C 8.632813 39.132813 9.84375 39.160156 10.882813 39.140625 C 11.042969 39.601563 11.304688 39.910156 11.726563 40.125 C 11.203125 40.472656 10.78125 40.960938 10.640625 41.597656 C 10.398438 42.730469 11.382813 43.734375 12.148438 44.410156 C 14.128906 46.132813 16.695313 46.648438 19.210938 47.015625 C 22.179688 47.445313 25.199219 47.605469 28.210938 47.53125 C 30.984375 47.457031 33.769531 47.15625 36.328125 46.011719 C 37.929688 45.289063 39.722656 44.457031 40.820313 43.023438 C 41.644531 41.945313 41.71875 40.539063 40.789063 39.507813 C 40.714844 39.421875 40.632813 39.335938 40.539063 39.261719 C 41.511719 39.007813 42.179688 38.070313 42.429688 37.085938 C 42.609375 36.414063 42.535156 35.585938 42.261719 34.949219 C 42.09375 34.539063 41.804688 34.199219 41.550781 33.84375 C 42.757813 33.507813 43.828125 32.429688 44.277344 31.332031 C 44.597656 30.554688 44.550781 29.53125 44.429688 28.714844 C 44.363281 28.265625 44.203125 27.851563 43.902344 27.496094 C 43.773438 27.335938 43.601563 27.1875 43.460938 27.039063 C 44.070313 26.820313 44.644531 26.511719 45.140625 26.070313 C 45.835938 25.453125 46.085938 24.542969 46.105469 23.644531 C 46.125 22.566406 46.152344 21.460938 45.835938 20.410156 Z M 27.300781 4.132813 C 27.964844 4.199219 28.632813 4.332031 29.242188 4.613281 C 29.886719 4.914063 30.207031 5.363281 30.242188 6.066406 C 30.28125 6.890625 30.636719 7.386719 31.414063 7.667969 C 32.082031 7.914063 32.757813 8.035156 33.179688 8.671875 C 33.496094 9.160156 33.28125 9.804688 32.992188 10.246094 C 32.070313 11.605469 30.214844 11.945313 29.082031 10.648438 C 28.753906 10.285156 28.105469 10.414063 28.144531 10.976563 C 28.199219 12.09375 26.886719 12.703125 25.949219 12.789063 C 24.628906 12.910156 23.230469 12.449219 22.460938 11.335938 C 22.285156 11.082031 22.003906 11.0625 21.75 11.195313 C 20.914063 11.625 20.007813 11.925781 19.070313 12.007813 C 18.261719 12.074219 17.230469 11.878906 16.753906 11.15625 C 16.453125 10.707031 17.109375 10.171875 17.417969 9.945313 C 17.953125 9.554688 18.617188 9.234375 19.273438 9.140625 C 19.847656 9.054688 19.914063 8.25 19.332031 8.117188 C 18.648438 7.96875 18.664063 7.414063 18.863281 6.84375 C 19.105469 6.132813 19.808594 5.699219 20.457031 5.398438 C 21.554688 4.902344 23.117188 4.546875 24.074219 5.503906 C 24.335938 5.765625 24.675781 5.632813 24.824219 5.390625 C 25.039063 5.445313 25.285156 5.390625 25.433594 5.164063 C 25.808594 4.574219 26.578125 4.058594 27.300781 4.132813 Z M 34.835938 21.289063 C 34.753906 22.265625 34.660156 23.242188 34.519531 24.195313 C 34.472656 24.273438 34.453125 24.367188 34.453125 24.46875 L 34.453125 24.589844 C 34.453125 24.601563 34.453125 24.609375 34.453125 24.628906 C 34.238281 25.902344 33.929688 27.160156 33.375 28.367188 C 32.410156 30.507813 30.757813 32.316406 28.613281 33.289063 C 26.410156 34.285156 23.859375 34.210938 21.65625 33.273438 C 19.976563 32.570313 18.496094 31.359375 17.511719 29.832031 C 16.585938 28.386719 16.171875 26.664063 15.890625 24.992188 C 15.554688 22.96875 15.28125 20.925781 14.992188 18.890625 C 14.804688 17.558594 14.652344 16.226563 14.550781 14.886719 C 14.625 14.867188 14.699219 14.851563 14.746094 14.839844 C 14.878906 14.804688 15 14.726563 15.113281 14.652344 C 15.394531 14.476563 15.636719 14.210938 15.835938 13.949219 C 16.171875 13.5 16.433594 13.003906 16.648438 12.488281 C 17.230469 12.84375 17.960938 13.011719 18.5625 13.03125 C 19.714844 13.078125 20.832031 12.742188 21.871094 12.253906 C 22.914063 13.453125 24.535156 13.949219 26.128906 13.789063 C 27.289063 13.679688 28.527344 12.976563 28.988281 11.898438 C 29.503906 12.261719 30.101563 12.488281 30.769531 12.496094 C 31.601563 12.507813 32.34375 12.195313 32.980469 11.699219 C 33.28125 12.214844 33.695313 12.695313 34.070313 13.105469 C 34.378906 13.453125 34.835938 13.929688 35.335938 14.109375 C 35.203125 16.527344 35.054688 18.910156 34.835938 21.289063 Z M 35.363281 30.816406 C 35.597656 29.785156 35.671875 28.734375 35.664063 27.695313 C 35.679688 27.742188 35.691406 27.796875 35.710938 27.84375 C 36.039063 28.855469 36.542969 29.785156 36.964844 30.757813 C 37.378906 31.707031 37.667969 32.691406 37.460938 33.722656 C 37.332031 34.359375 36.757813 35.007813 36.09375 35.070313 C 35.289063 35.148438 34.976563 34.117188 34.929688 33.496094 C 34.867188 32.597656 35.164063 31.679688 35.363281 30.816406 Z M 31.105469 37.480469 C 31.078125 37.367188 31.058594 37.59375 31.058594 37.601563 C 31.023438 37.761719 30.964844 37.914063 30.910156 38.054688 C 30.789063 38.363281 30.648438 38.664063 30.507813 38.960938 C 30.207031 39.582031 29.972656 40.285156 29.625 40.902344 C 29.335938 40.480469 29.195313 39.851563 29.023438 39.449219 C 28.6875 38.671875 28.179688 37.949219 27.917969 37.144531 C 28.789063 37.058594 29.632813 36.84375 30.460938 36.421875 C 30.542969 36.375 30.601563 36.300781 30.636719 36.214844 C 30.675781 36.273438 30.703125 36.328125 30.742188 36.382813 C 30.882813 36.601563 31.050781 36.804688 31.238281 36.992188 C 31.105469 37.117188 31.050781 37.285156 31.105469 37.480469 Z M 26.53125 39.488281 C 26.53125 39.488281 26.539063 39.476563 26.558594 39.460938 C 26.511719 39.515625 26.644531 39.402344 26.671875 39.394531 C 26.664063 39.402344 26.820313 39.347656 26.878906 39.328125 C 27.074219 39.28125 27.367188 39.347656 27.429688 39.496094 C 27.742188 40.191406 26.746094 40.648438 26.4375 40.078125 C 26.570313 39.929688 26.625 39.710938 26.53125 39.488281 Z M 26.363281 38.429688 C 26.492188 38.101563 26.617188 37.78125 26.804688 37.480469 C 26.839844 37.414063 26.859375 37.359375 26.867188 37.304688 C 26.972656 37.660156 27.113281 37.996094 27.28125 38.324219 C 26.972656 38.277344 26.644531 38.316406 26.363281 38.429688 Z M 26.417969 36.167969 C 25.789063 36.167969 25.164063 36.167969 24.554688 36.039063 C 24.054688 35.933594 23.585938 35.804688 23.082031 35.785156 C 23.082031 35.464844 23.023438 35.128906 22.894531 34.761719 C 24.09375 35.054688 25.359375 35.128906 26.625 34.941406 C 27.863281 34.761719 28.996094 34.332031 30 33.730469 C 30 34.125 30.007813 34.5 30.09375 34.902344 C 30.132813 35.082031 30.179688 35.257813 30.242188 35.429688 C 30.160156 35.410156 30.066406 35.417969 29.980469 35.445313 C 29.898438 35.476563 29.8125 35.511719 29.738281 35.570313 C 29.699219 35.605469 29.664063 35.644531 29.632813 35.679688 C 28.613281 36.140625 27.535156 36.179688 26.417969 36.167969 Z M 25.773438 37.199219 C 25.460938 37.753906 25.257813 38.382813 24.976563 38.953125 C 24.570313 39.777344 24.148438 40.566406 23.652344 41.34375 C 23.644531 41.363281 23.625 41.382813 23.617188 41.410156 C 23.492188 41.210938 23.390625 40.996094 23.335938 40.773438 C 23.210938 40.359375 22.902344 39.945313 22.695313 39.570313 C 22.433594 39.101563 22.179688 38.632813 21.964844 38.148438 C 21.9375 38.089844 21.910156 38.042969 21.871094 37.996094 C 22.304688 37.660156 22.648438 37.273438 22.867188 36.824219 C 22.894531 36.824219 22.929688 36.835938 22.960938 36.824219 C 23.539063 36.796875 24.101563 37.011719 24.675781 37.105469 C 25.023438 37.171875 25.398438 37.191406 25.773438 37.199219 Z M 15.273438 32.523438 C 15.402344 33.226563 15.523438 34.011719 15.226563 34.6875 C 15.027344 35.128906 14.398438 35.691406 13.941406 35.277344 C 13.539063 34.914063 13.40625 34.21875 13.359375 33.703125 C 13.273438 32.804688 13.574219 31.875 13.875 31.03125 C 14.230469 30.046875 14.597656 29.070313 14.867188 28.058594 C 14.945313 27.789063 15.007813 27.515625 15.074219 27.242188 C 14.992188 28.070313 14.933594 28.902344 14.945313 29.738281 C 14.933594 30.683594 15.101563 31.59375 15.273438 32.523438 Z M 11.242188 38.109375 C 10.753906 38.109375 10.257813 38.128906 9.769531 38.0625 C 9.394531 38.007813 8.625 37.789063 8.671875 37.273438 C 8.71875 36.757813 8.992188 36.347656 8.699219 35.839844 C 8.429688 35.363281 7.867188 35.296875 7.378906 35.25 C 6.253906 35.15625 5.476563 34.171875 5.203125 33.140625 C 4.828125 31.753906 5.597656 30.570313 6.113281 29.351563 C 6.226563 29.089844 6.140625 28.789063 5.878906 28.660156 C 5.136719 28.285156 4.398438 27.910156 3.804688 27.308594 C 3.1875 26.679688 3.027344 25.742188 2.953125 24.898438 C 2.867188 24.027344 2.925781 23.101563 3.289063 22.292969 C 3.636719 21.523438 4.445313 21.121094 4.800781 20.363281 C 5.222656 19.460938 4.566406 18.730469 4.125 18.007813 C 3.648438 17.222656 4.238281 15.882813 4.574219 15.148438 C 4.96875 14.277344 5.511719 13.492188 6.121094 12.757813 C 6.730469 12.027344 7.480469 11.457031 8.457031 11.390625 C 8.804688 11.371094 9 11.015625 8.90625 10.707031 C 8.492188 9.328125 9.523438 7.78125 10.433594 6.835938 C 10.988281 6.273438 11.644531 5.8125 12.320313 5.398438 C 12.636719 5.203125 12.945313 5.015625 13.320313 4.960938 C 13.679688 4.902344 14.042969 4.894531 14.398438 4.882813 C 14.980469 4.867188 15.347656 4.492188 15.589844 4.003906 C 15.945313 3.308594 16.445313 2.859375 17.109375 2.464844 C 18.449219 1.660156 20.089844 1.050781 21.515625 2.015625 C 21.816406 2.210938 22.125 2.164063 22.320313 1.855469 C 22.847656 1.039063 24.195313 1.152344 25.003906 1.3125 C 25.472656 1.40625 25.949219 1.59375 26.316406 1.902344 C 26.617188 2.15625 26.410156 2.699219 26.351563 3.027344 C 26.34375 3.101563 26.34375 3.167969 26.351563 3.226563 C 25.640625 3.460938 25.023438 3.992188 24.601563 4.59375 C 23.148438 3.347656 20.878906 3.945313 19.378906 4.808594 C 18.488281 5.324219 17.832031 6.195313 17.71875 7.238281 C 17.664063 7.707031 17.773438 8.117188 18.007813 8.445313 C 16.667969 8.972656 15.253906 10.058594 15.757813 11.457031 C 15.789063 11.539063 15.835938 11.625 15.871094 11.710938 C 15.65625 12.320313 15.382813 12.882813 14.992188 13.398438 C 14.8125 13.640625 14.578125 13.835938 14.296875 13.921875 C 14.042969 14.007813 13.847656 14.089844 13.648438 14.289063 C 13.519531 14.429688 13.492188 14.578125 13.519531 14.71875 C 13.660156 16.800781 13.941406 18.863281 14.257813 20.925781 C 14.429688 22.011719 14.558594 23.109375 14.71875 24.207031 C 14.652344 24.273438 14.605469 24.355469 14.585938 24.46875 C 14.34375 25.726563 14.101563 26.992188 13.761719 28.226563 C 13.445313 29.390625 12.945313 30.488281 12.609375 31.632813 C 12.207031 33.007813 12.074219 35.269531 13.460938 36.207031 C 14.175781 36.683594 14.972656 36.421875 15.570313 35.898438 C 16.265625 35.289063 16.460938 34.40625 16.433594 33.523438 C 16.414063 32.585938 16.105469 31.679688 16.011719 30.742188 C 15.957031 30.195313 15.945313 29.652344 15.964844 29.109375 C 17.082031 31.546875 19.152344 33.421875 21.589844 34.367188 C 21.601563 34.425781 21.617188 34.480469 21.65625 34.539063 C 21.964844 35.070313 22.152344 35.652344 21.984375 36.261719 C 21.851563 36.742188 21.382813 37.132813 20.972656 37.414063 C 19.78125 38.222656 18.253906 38.570313 16.867188 38.851563 C 15.535156 39.121094 14.089844 39.195313 12.796875 39.628906 C 12.742188 39.476563 12.628906 39.355469 12.441406 39.308594 C 12 39.1875 11.878906 39.039063 11.792969 38.585938 C 11.738281 38.289063 11.539063 38.109375 11.242188 38.109375 Z M 40.097656 42.253906 C 39.132813 43.679688 37.273438 44.457031 35.757813 45.132813 C 33.085938 46.320313 30.101563 46.472656 27.226563 46.507813 C 25.695313 46.527344 24.167969 46.472656 22.640625 46.359375 C 21.148438 46.246094 19.6875 46.011719 18.207031 45.816406 C 16.960938 45.65625 15.730469 45.308594 14.597656 44.765625 C 13.566406 44.269531 12.242188 43.453125 11.746094 42.367188 C 10.988281 40.6875 14.203125 40.359375 15.226563 40.191406 C 16.726563 39.9375 19.226563 39.496094 21.007813 38.539063 C 21.429688 39.488281 22.058594 40.351563 22.425781 41.316406 C 22.660156 41.925781 23.175781 42.898438 23.972656 42.496094 C 24.28125 42.347656 24.382813 42.027344 24.601563 41.773438 C 24.945313 41.371094 25.199219 40.835938 25.433594 40.359375 C 25.707031 41.082031 26.417969 41.539063 27.253906 41.351563 C 27.742188 41.25 28.105469 40.914063 28.3125 40.492188 C 28.566406 41.136719 28.867188 41.792969 29.484375 42.148438 C 29.671875 42.261719 29.972656 42.207031 30.101563 42.027344 C 30.703125 41.230469 31.023438 40.257813 31.453125 39.367188 C 31.679688 38.90625 32.015625 38.296875 32.101563 37.726563 C 32.429688 37.941406 32.785156 38.136719 33.132813 38.296875 C 34.734375 39.039063 36.441406 39.019531 38.136719 39.375 C 38.832031 39.515625 39.65625 39.75 40.125 40.320313 C 40.59375 40.882813 40.492188 41.671875 40.097656 42.253906 Z M 44.585938 25.164063 C 44.082031 25.789063 43.226563 26.0625 42.476563 26.257813 C 42.214844 26.324219 42.054688 26.671875 42.160156 26.914063 C 42.414063 27.507813 42.929688 27.84375 43.257813 28.367188 C 43.472656 28.707031 43.445313 29.230469 43.453125 29.605469 C 43.453125 29.960938 43.472656 30.335938 43.398438 30.683594 C 43.164063 31.820313 41.8125 32.933594 40.660156 32.914063 C 40.339844 32.914063 40.078125 33.308594 40.210938 33.601563 C 40.398438 34.011719 40.640625 34.367188 40.914063 34.726563 C 41.242188 35.164063 41.410156 35.570313 41.457031 36.121094 C 41.523438 36.917969 41.023438 38.382813 39.984375 38.296875 C 39.710938 38.269531 39.515625 38.4375 39.429688 38.632813 C 38.710938 38.363281 37.894531 38.242188 37.199219 38.148438 C 35.859375 37.960938 34.59375 37.835938 33.347656 37.238281 C 32.605469 36.882813 31.949219 36.375 31.492188 35.691406 C 30.9375 34.867188 31.003906 33.929688 31.023438 32.992188 C 32.625 31.714844 33.84375 29.933594 34.613281 27.984375 C 34.613281 28.117188 34.613281 28.257813 34.613281 28.386719 C 34.585938 29.53125 34.320313 30.609375 34.078125 31.726563 C 33.863281 32.710938 33.742188 33.777344 34.144531 34.734375 C 34.5 35.578125 35.324219 36.160156 36.253906 36.074219 C 37.117188 35.992188 37.800781 35.316406 38.195313 34.59375 C 38.71875 33.636719 38.597656 32.445313 38.304688 31.445313 C 37.976563 30.289063 37.332031 29.25 36.898438 28.144531 C 36.429688 26.972656 36.160156 25.726563 35.8125 24.507813 C 35.765625 24.355469 35.679688 24.253906 35.570313 24.207031 C 35.757813 22.875 35.839844 21.523438 35.945313 20.203125 C 36.113281 18.09375 36.234375 15.976563 36.347656 13.855469 C 36.554688 13.480469 36.113281 12.9375 35.652344 13.152344 C 35.53125 13.105469 35.429688 13.03125 35.335938 12.945313 C 35.0625 12.730469 34.835938 12.476563 34.613281 12.214844 C 34.304688 11.839844 33.9375 11.398438 33.722656 10.949219 C 34.117188 10.425781 34.351563 9.777344 34.339844 9.121094 C 34.332031 8.183594 33.589844 7.433594 32.792969 7.050781 C 32.390625 6.851563 31.929688 6.789063 31.519531 6.589844 C 31.132813 6.414063 31.265625 5.832031 31.210938 5.476563 C 31.078125 4.59375 30.335938 3.964844 29.570313 3.617188 C 28.914063 3.320313 28.097656 3.113281 27.347656 3.085938 C 27.394531 2.839844 27.429688 2.597656 27.441406 2.351563 C 27.496094 2.304688 27.554688 2.242188 27.589844 2.148438 C 27.910156 1.378906 28.96875 1.585938 29.597656 1.773438 C 30.234375 1.960938 31.339844 2.492188 31.425781 3.261719 C 31.453125 3.5625 31.6875 3.730469 31.976563 3.742188 C 32.859375 3.742188 33.777344 3.816406 34.585938 4.199219 C 35.410156 4.59375 35.785156 5.382813 35.859375 6.261719 C 35.886719 6.554688 36.132813 6.742188 36.414063 6.742188 C 36.992188 6.722656 37.492188 6.609375 38.023438 6.898438 C 38.53125 7.164063 38.945313 7.648438 39.335938 8.054688 C 40.058594 8.773438 40.59375 9.945313 40.085938 10.941406 C 39.929688 11.257813 40.191406 11.765625 40.59375 11.679688 C 42.179688 11.363281 43.398438 12.375 43.976563 13.789063 C 44.257813 14.492188 44.371094 15.273438 44.277344 16.03125 C 44.164063 16.882813 43.171875 17.4375 43.21875 18.308594 C 43.265625 19.179688 44.101563 19.480469 44.539063 20.109375 C 45.074219 20.878906 45.046875 21.964844 45.046875 22.855469 C 45.085938 23.691406 45.132813 24.496094 44.585938 25.164063 Z "/>
</g>
</svg>
