<?xml version="1.0" encoding="UTF-8"?>
<svg xmlns="http://www.w3.org/2000/svg" xmlns:xlink="http://www.w3.org/1999/xlink" width="48pt" height="48pt" viewBox="0 0 48 48" version="1.1">
<g id="surface1">
<path style=" stroke:none;fill-rule:nonzero;fill:#75CCCE;fill-opacity:1;" d="M 17.257813 21.121094 C 17.398438 20.839844 17.558594 20.570313 17.726563 20.304688 C 16.976563 20.296875 16.304688 20.539063 16.171875 21.394531 C 16.011719 22.359375 16.125 23.390625 16.152344 24.367188 C 16.171875 24.976563 16.199219 25.585938 16.152344 26.183594 C 16.105469 26.710938 16.011719 27.253906 16.058594 27.777344 C 16.085938 28.117188 16.125 28.546875 16.519531 28.632813 C 16.800781 28.695313 17.082031 28.6875 17.363281 28.648438 C 16.882813 27.515625 16.621094 26.289063 16.59375 25.050781 C 16.125 23.746094 16.640625 22.292969 17.257813 21.121094 Z "/>
<path style=" stroke:none;fill-rule:nonzero;fill:#75CCCE;fill-opacity:1;" d="M 24.710938 10.398438 C 24.160156 10.292969 23.429688 10.40625 23.464844 11.148438 C 23.476563 11.242188 23.457031 11.324219 23.417969 11.390625 C 23.691406 11.792969 24.121094 12.101563 24.617188 12.101563 C 25.152344 12.101563 25.726563 11.832031 25.761719 11.230469 C 25.800781 10.742188 25.085938 10.472656 24.710938 10.398438 Z "/>
<path style=" stroke:none;fill-rule:nonzero;fill:#127272;fill-opacity:1;" d="M 29.773438 20.945313 C 29.296875 20.351563 28.453125 20.148438 27.742188 20.0625 C 26.898438 19.960938 26.035156 19.996094 25.199219 20.148438 C 24.320313 20.304688 23.550781 20.679688 22.867188 21.273438 C 22.152344 21.890625 21.421875 22.820313 21.46875 23.8125 C 21.460938 23.839844 21.449219 23.859375 21.449219 23.886719 C 21.355469 24.253906 21.261719 24.84375 21.375 25.273438 C 21.367188 26.082031 21.796875 26.898438 22.285156 27.515625 C 22.921875 28.304688 23.851563 29.089844 24.863281 29.296875 C 25.835938 29.492188 27.355469 29.511719 28.171875 28.835938 C 28.59375 28.480469 28.332031 27.945313 28.144531 27.535156 C 27.917969 27.039063 27.664063 26.539063 27.589844 25.988281 C 27.429688 24.851563 28.03125 23.898438 28.867188 23.183594 C 29.523438 22.640625 30.476563 21.816406 29.773438 20.945313 Z "/>
<path style=" stroke:none;fill-rule:nonzero;fill:#BCBDBD;fill-opacity:1;" d="M 32.484375 20.25 C 31.882813 19.332031 31.117188 18.421875 30.140625 17.886719 C 29.210938 17.371094 28.179688 17.089844 27.121094 16.996094 C 25.03125 16.800781 22.585938 17.148438 20.851563 18.402344 C 19.875 19.105469 19.058594 20.035156 18.460938 21.074219 C 17.898438 22.050781 17.230469 23.34375 17.503906 24.507813 C 17.523438 24.523438 17.53125 24.542969 17.539063 24.5625 C 17.550781 24.722656 17.578125 24.871094 17.617188 25.023438 C 17.671875 26.839844 18.234375 28.648438 19.378906 30.085938 C 20.585938 31.613281 22.246094 32.410156 24.160156 32.585938 C 26.035156 32.765625 28.011719 32.429688 29.632813 31.425781 C 31.304688 30.382813 32.644531 28.742188 33.242188 26.859375 C 33.9375 24.65625 33.757813 22.21875 32.484375 20.25 Z M 29.539063 23.972656 C 29.128906 24.328125 28.707031 24.769531 28.621094 25.332031 C 28.539063 25.875 28.753906 26.371094 28.976563 26.859375 C 29.390625 27.769531 29.785156 28.847656 28.867188 29.605469 C 27.984375 30.335938 26.652344 30.46875 25.554688 30.414063 C 24.535156 30.355469 23.625 30.019531 22.800781 29.410156 C 21.375 28.359375 20.164063 26.632813 20.410156 24.835938 C 20.457031 24.589844 20.503906 24.355469 20.484375 24.113281 C 20.484375 24.113281 20.492188 24.113281 20.492188 24.101563 C 20.371094 23.023438 20.792969 22.003906 21.507813 21.179688 C 22.21875 20.363281 23.175781 19.59375 24.234375 19.304688 C 25.882813 18.84375 28.039063 18.695313 29.597656 19.507813 C 30.300781 19.875 30.992188 20.550781 31.070313 21.382813 C 31.164063 22.5 30.308594 23.304688 29.539063 23.972656 Z "/>
<path style=" stroke:none;fill-rule:nonzero;fill:#75CCCE;fill-opacity:1;" d="M 35.195313 40.695313 C 34.539063 40.695313 33.882813 40.679688 33.226563 40.660156 C 33.226563 40.667969 33.226563 40.679688 33.226563 40.6875 C 33.113281 41.578125 34.648438 41.503906 35.195313 41.445313 C 35.644531 41.398438 36.113281 41.324219 36.523438 41.117188 C 36.636719 41.0625 36.824219 40.875 36.9375 40.734375 C 36.984375 40.660156 37.039063 40.585938 37.078125 40.507813 C 36.46875 40.660156 35.832031 40.707031 35.195313 40.695313 Z "/>
<path style=" stroke:none;fill-rule:nonzero;fill:#75CCCE;fill-opacity:1;" d="M 16.21875 40.359375 C 15.132813 40.359375 13.960938 40.554688 12.816406 40.574219 C 13.386719 41.230469 14.585938 41.148438 15.394531 41.128906 C 16.023438 41.109375 17.644531 41.242188 17.679688 40.359375 C 17.203125 40.359375 16.714844 40.359375 16.21875 40.359375 Z "/>
<path style=" stroke:none;fill-rule:nonzero;fill:#75CCCE;fill-opacity:1;" d="M 19.679688 11.476563 C 19.359375 11.230469 18.917969 11.148438 18.535156 11.089844 C 17.765625 10.988281 16.988281 10.996094 16.21875 10.976563 C 15.019531 10.949219 13.199219 10.941406 13.03125 12.414063 C 15.300781 12.414063 17.570313 12.328125 19.835938 12.320313 C 19.882813 12 19.894531 11.644531 19.679688 11.476563 Z "/>
<path style=" stroke:none;fill-rule:nonzero;fill:#D6E7E7;fill-opacity:1;" d="M 38.476563 34.265625 C 38.550781 32.804688 38.644531 31.351563 38.644531 29.878906 C 38.644531 26.773438 38.492188 23.671875 38.476563 20.570313 C 38.464844 17.972656 38.269531 15.347656 38.445313 12.75 C 38.511719 11.832031 38.578125 10.894531 38.511719 9.976563 C 38.464844 9.355469 38.417969 8.558594 37.949219 8.101563 C 33.140625 8.101563 28.339844 8.570313 23.523438 8.644531 C 21.074219 8.679688 18.636719 8.664063 16.191406 8.664063 C 15.027344 8.664063 13.867188 8.679688 12.695313 8.726563 C 12.226563 8.746094 11.746094 8.765625 11.277344 8.746094 C 11.101563 8.738281 10.921875 8.738281 10.742188 8.738281 C 10.667969 8.738281 10.601563 8.738281 10.527344 8.746094 C 10.539063 14.082031 10.632813 19.414063 10.613281 24.75 C 10.601563 27.460938 10.59375 30.167969 10.753906 32.867188 C 10.828125 34.132813 10.828125 35.382813 10.820313 36.648438 C 10.808594 37.152344 10.78125 37.660156 10.773438 38.164063 C 10.761719 38.492188 10.734375 38.898438 10.808594 39.242188 C 10.835938 39.253906 10.875 39.261719 10.902344 39.273438 C 11.757813 39.609375 12.757813 39.507813 13.648438 39.441406 C 14.652344 39.367188 15.648438 39.308594 16.660156 39.308594 C 19.144531 39.308594 21.628906 39.289063 24.101563 39.367188 C 26.644531 39.441406 29.183594 39.5625 31.734375 39.589844 C 32.765625 39.601563 33.789063 39.636719 34.820313 39.65625 C 35.652344 39.664063 36.617188 39.695313 37.386719 39.308594 C 37.574219 39.214844 37.761719 39.234375 37.914063 39.320313 C 38.164063 39.113281 38.277344 38.644531 38.335938 38.371094 C 38.476563 37.695313 38.503906 37.011719 38.503906 36.335938 C 38.503906 35.664063 38.445313 34.960938 38.476563 34.265625 Z M 32.585938 9.234375 C 33.253906 9.234375 33.328125 10.265625 32.664063 10.265625 C 32.007813 10.265625 31.921875 9.234375 32.585938 9.234375 Z M 32.457031 11.15625 C 33.121094 11.15625 33.195313 12.1875 32.53125 12.1875 C 31.875 12.179688 31.789063 11.15625 32.457031 11.15625 Z M 30.335938 9.355469 C 31.003906 9.355469 31.078125 10.386719 30.414063 10.386719 C 29.757813 10.386719 29.671875 9.355469 30.335938 9.355469 Z M 30.207031 11.277344 C 30.871094 11.277344 30.945313 12.308594 30.28125 12.308594 C 29.625 12.308594 29.539063 11.277344 30.207031 11.277344 Z M 27.929688 9.601563 C 28.011719 9.496094 28.144531 9.441406 28.273438 9.421875 C 28.414063 9.414063 28.554688 9.460938 28.660156 9.554688 C 28.679688 9.570313 28.695313 9.589844 28.714844 9.609375 C 28.714844 9.609375 28.726563 9.617188 28.726563 9.617188 C 28.828125 9.703125 28.882813 9.835938 28.902344 9.964844 C 28.914063 10.105469 28.867188 10.238281 28.773438 10.351563 C 28.6875 10.445313 28.554688 10.527344 28.425781 10.527344 C 28.265625 10.527344 28.105469 10.507813 27.984375 10.386719 C 27.871094 10.273438 27.804688 10.144531 27.804688 9.984375 C 27.796875 9.835938 27.824219 9.703125 27.929688 9.601563 Z M 27.796875 11.511719 C 27.882813 11.410156 28.011719 11.351563 28.144531 11.335938 C 28.285156 11.324219 28.425781 11.371094 28.527344 11.464844 C 28.546875 11.484375 28.566406 11.503906 28.585938 11.523438 C 28.585938 11.523438 28.59375 11.53125 28.59375 11.53125 C 28.695313 11.617188 28.753906 11.746094 28.773438 11.878906 C 28.78125 12.019531 28.734375 12.148438 28.640625 12.261719 C 28.554688 12.355469 28.425781 12.441406 28.292969 12.441406 C 28.132813 12.441406 27.976563 12.421875 27.851563 12.300781 C 27.742188 12.1875 27.675781 12.054688 27.675781 11.898438 C 27.675781 11.757813 27.703125 11.625 27.796875 11.511719 Z M 22.445313 11.230469 C 22.378906 9.9375 23.53125 9.1875 24.710938 9.355469 C 25.59375 9.488281 26.773438 10.070313 26.792969 11.109375 C 26.820313 12.160156 25.960938 13.085938 24.898438 13.132813 C 23.914063 13.179688 22.921875 12.683594 22.460938 11.792969 C 22.378906 11.625 22.386719 11.457031 22.453125 11.316406 C 22.445313 11.289063 22.445313 11.257813 22.445313 11.230469 Z M 13.011719 13.453125 C 12.777344 13.453125 12.609375 13.320313 12.535156 13.152344 C 12.261719 13.191406 11.992188 13.050781 11.992188 12.703125 C 12.007813 11.671875 12.429688 10.800781 13.398438 10.351563 C 14.242188 9.957031 15.234375 9.929688 16.144531 9.957031 C 17.195313 9.984375 18.328125 9.910156 19.339844 10.210938 C 19.882813 10.367188 20.382813 10.601563 20.691406 11.089844 C 21.019531 11.617188 20.8125 12.234375 20.792969 12.804688 C 20.785156 13.070313 20.625 13.359375 20.316406 13.359375 C 17.886719 13.359375 15.449219 13.453125 13.011719 13.453125 Z M 34.292969 26.925781 C 33.609375 29.070313 32.242188 31.023438 30.308594 32.222656 C 28.453125 33.375 26.269531 33.835938 24.09375 33.628906 C 21.910156 33.421875 19.96875 32.511719 18.589844 30.769531 C 18.300781 30.402344 18.039063 30.007813 17.8125 29.597656 C 17.757813 29.625 17.699219 29.644531 17.632813 29.652344 C 16.59375 29.804688 15.382813 29.632813 15.113281 28.433594 C 14.945313 27.722656 15.039063 27.007813 15.113281 26.296875 C 15.179688 25.566406 15.140625 24.824219 15.121094 24.09375 C 15.085938 22.996094 14.878906 21.554688 15.375 20.523438 C 15.910156 19.40625 17.148438 19.210938 18.273438 19.320313 C 18.328125 19.332031 18.375 19.339844 18.421875 19.359375 C 19.445313 18.074219 20.757813 17.042969 22.359375 16.527344 C 24.375 15.871094 26.679688 15.683594 28.742188 16.238281 C 30.917969 16.820313 32.679688 18.28125 33.710938 20.289063 C 34.734375 22.320313 34.996094 24.722656 34.292969 26.925781 Z M 35.445313 11.820313 C 35.363281 11.914063 35.230469 12 35.101563 12 L 35.035156 12 C 34.894531 12 34.761719 11.972656 34.648438 11.867188 C 34.546875 11.785156 34.492188 11.652344 34.472656 11.523438 C 34.460938 11.382813 34.507813 11.242188 34.601563 11.136719 C 34.6875 11.042969 34.820313 10.960938 34.949219 10.960938 L 35.015625 10.960938 C 35.15625 10.960938 35.289063 10.988281 35.398438 11.089844 C 35.503906 11.175781 35.558594 11.304688 35.578125 11.4375 C 35.585938 11.578125 35.539063 11.71875 35.445313 11.820313 Z M 35.578125 9.898438 C 35.492188 9.992188 35.363281 10.078125 35.230469 10.078125 L 35.164063 10.078125 C 35.023438 10.078125 34.894531 10.050781 34.78125 9.945313 C 34.679688 9.863281 34.621094 9.730469 34.601563 9.601563 C 34.59375 9.460938 34.640625 9.320313 34.734375 9.214844 C 34.820313 9.121094 34.949219 9.039063 35.082031 9.039063 L 35.148438 9.039063 C 35.289063 9.039063 35.417969 9.066406 35.53125 9.167969 C 35.632813 9.253906 35.691406 9.382813 35.710938 9.515625 C 35.710938 9.65625 35.664063 9.796875 35.578125 9.898438 Z M 37.453125 11.820313 C 37.367188 11.914063 37.238281 12 37.105469 12 L 36.917969 12 C 36.777344 12 36.648438 11.972656 36.535156 11.867188 C 36.429688 11.785156 36.375 11.652344 36.355469 11.523438 C 36.347656 11.382813 36.394531 11.242188 36.488281 11.136719 C 36.570313 11.042969 36.703125 10.960938 36.835938 10.960938 L 37.023438 10.960938 C 37.164063 10.960938 37.292969 10.988281 37.40625 11.089844 C 37.507813 11.175781 37.566406 11.304688 37.585938 11.4375 C 37.585938 11.578125 37.539063 11.71875 37.453125 11.820313 Z M 37.574219 9.898438 C 37.492188 9.992188 37.359375 10.078125 37.226563 10.078125 L 37.039063 10.078125 C 36.898438 10.078125 36.769531 10.050781 36.65625 9.945313 C 36.554688 9.863281 36.496094 9.730469 36.476563 9.601563 C 36.46875 9.460938 36.515625 9.320313 36.609375 9.214844 C 36.695313 9.121094 36.824219 9.039063 36.957031 9.039063 L 37.144531 9.039063 C 37.285156 9.039063 37.414063 9.066406 37.527344 9.167969 C 37.632813 9.253906 37.6875 9.382813 37.707031 9.515625 C 37.714844 9.65625 37.667969 9.796875 37.574219 9.898438 Z "/>
<path style=" stroke:none;fill-rule:nonzero;fill:#000000;fill-opacity:1;" d="M 9.515625 8.476563 C 9.515625 13.988281 9.628906 19.507813 9.601563 25.023438 C 9.589844 26.679688 9.589844 28.339844 9.628906 30 L 9.628906 8.148438 C 9.5625 8.230469 9.515625 8.34375 9.515625 8.476563 Z "/>
<path style=" stroke:none;fill-rule:nonzero;fill:#000000;fill-opacity:1;" d="M 39.515625 21.234375 C 39.507813 19.695313 39.488281 18.160156 39.449219 16.632813 C 39.429688 15.476563 39.375 14.304688 39.449219 13.152344 C 39.523438 12.039063 39.617188 10.914063 39.542969 9.789063 C 39.476563 8.886719 39.28125 7.761719 38.492188 7.199219 C 38.363281 7.105469 38.230469 7.085938 38.109375 7.105469 C 38.054688 7.085938 37.996094 7.078125 37.929688 7.078125 L 37.742188 7.078125 C 37.734375 7.078125 37.726563 7.078125 37.714844 7.078125 C 32.652344 7.085938 27.601563 7.585938 22.539063 7.632813 C 19.921875 7.660156 17.296875 7.640625 14.679688 7.640625 C 13.554688 7.640625 12.441406 7.753906 11.316406 7.734375 C 10.875 7.726563 9.929688 7.632813 9.664063 8.101563 C 9.648438 8.117188 9.636719 8.128906 9.628906 8.148438 L 9.628906 30 C 9.65625 31.105469 9.695313 32.222656 9.757813 33.328125 C 9.835938 34.621094 9.804688 35.898438 9.796875 37.191406 C 9.789063 38.183594 9.601563 39.214844 10.070313 40.132813 C 10.21875 40.414063 10.492188 40.433594 10.695313 40.304688 C 10.996094 40.40625 11.296875 40.472656 11.617188 40.507813 C 12.167969 42.140625 14.023438 42.1875 15.476563 42.148438 C 16.6875 42.121094 18.824219 41.972656 18.730469 40.359375 C 20.492188 40.359375 22.257813 40.359375 24.007813 40.40625 C 26.671875 40.480469 29.34375 40.601563 32.007813 40.632813 C 32.070313 40.632813 32.128906 40.632813 32.195313 40.632813 C 32.089844 42.394531 34.179688 42.617188 35.539063 42.441406 C 36.226563 42.347656 36.9375 42.167969 37.453125 41.699219 C 37.773438 41.410156 38.128906 40.835938 38.148438 40.351563 C 39.449219 39.816406 39.496094 37.902344 39.515625 36.683594 C 39.535156 35.933594 39.488281 35.183594 39.488281 34.433594 C 39.488281 33.992188 39.554688 33.496094 39.582031 32.972656 C 39.628906 32.164063 39.65625 31.359375 39.664063 30.554688 C 39.722656 27.441406 39.535156 24.347656 39.515625 21.234375 Z M 15.402344 41.117188 C 14.597656 41.136719 13.398438 41.230469 12.824219 40.566406 C 13.96875 40.546875 15.140625 40.351563 16.226563 40.351563 C 16.714844 40.351563 17.203125 40.351563 17.691406 40.351563 C 17.652344 41.230469 16.03125 41.109375 15.402344 41.117188 Z M 36.9375 40.734375 C 36.835938 40.882813 36.636719 41.070313 36.523438 41.117188 C 36.113281 41.316406 35.644531 41.398438 35.195313 41.445313 C 34.648438 41.503906 33.113281 41.585938 33.226563 40.6875 C 33.226563 40.679688 33.226563 40.667969 33.226563 40.660156 C 33.882813 40.679688 34.539063 40.695313 35.195313 40.695313 C 35.832031 40.695313 36.460938 40.660156 37.070313 40.507813 C 37.03125 40.585938 36.984375 40.660156 36.9375 40.734375 Z M 38.503906 36.347656 C 38.503906 37.03125 38.476563 37.714844 38.335938 38.382813 C 38.277344 38.652344 38.164063 39.121094 37.914063 39.328125 C 37.761719 39.242188 37.574219 39.226563 37.386719 39.320313 C 36.628906 39.703125 35.652344 39.675781 34.820313 39.664063 C 33.789063 39.65625 32.765625 39.609375 31.734375 39.601563 C 29.195313 39.570313 26.652344 39.449219 24.101563 39.375 C 21.617188 39.300781 19.132813 39.320313 16.660156 39.320313 C 15.648438 39.320313 14.664063 39.367188 13.648438 39.449219 C 12.757813 39.515625 11.746094 39.617188 10.902344 39.28125 C 10.875 39.273438 10.835938 39.261719 10.808594 39.253906 C 10.734375 38.90625 10.761719 38.503906 10.773438 38.175781 C 10.78125 37.667969 10.808594 37.164063 10.820313 36.65625 C 10.835938 35.382813 10.828125 34.144531 10.753906 32.878906 C 10.59375 30.179688 10.601563 27.460938 10.613281 24.757813 C 10.640625 19.425781 10.539063 14.089844 10.527344 8.757813 C 10.601563 8.746094 10.667969 8.746094 10.742188 8.746094 C 10.921875 8.746094 11.101563 8.746094 11.277344 8.757813 C 11.746094 8.773438 12.226563 8.757813 12.695313 8.738281 C 13.855469 8.691406 15.019531 8.671875 16.191406 8.671875 C 18.636719 8.671875 21.074219 8.691406 23.523438 8.652344 C 28.339844 8.578125 33.132813 8.109375 37.949219 8.109375 C 38.417969 8.570313 38.464844 9.367188 38.511719 9.984375 C 38.578125 10.914063 38.503906 11.839844 38.445313 12.757813 C 38.269531 15.355469 38.464844 17.972656 38.476563 20.578125 C 38.492188 23.679688 38.644531 26.785156 38.644531 29.886719 C 38.644531 31.359375 38.550781 32.8125 38.476563 34.273438 C 38.445313 34.960938 38.503906 35.664063 38.503906 36.347656 Z "/>
<path style=" stroke:none;fill-rule:nonzero;fill:#000000;fill-opacity:1;" d="M 33.695313 20.277344 C 32.664063 18.273438 30.898438 16.808594 28.726563 16.226563 C 26.664063 15.675781 24.355469 15.863281 22.339844 16.519531 C 20.738281 17.035156 19.425781 18.066406 18.402344 19.351563 C 18.355469 19.332031 18.308594 19.320313 18.253906 19.3125 C 17.128906 19.199219 15.890625 19.398438 15.355469 20.511719 C 14.859375 21.542969 15.074219 22.988281 15.101563 24.085938 C 15.121094 24.816406 15.167969 25.554688 15.09375 26.289063 C 15.027344 27 14.933594 27.710938 15.09375 28.425781 C 15.375 29.625 16.574219 29.792969 17.617188 29.644531 C 17.679688 29.632813 17.746094 29.617188 17.792969 29.585938 C 18.019531 30 18.28125 30.382813 18.570313 30.757813 C 19.949219 32.503906 21.890625 33.414063 24.074219 33.617188 C 26.25 33.824219 28.433594 33.367188 30.289063 32.210938 C 32.222656 31.011719 33.589844 29.0625 34.273438 26.914063 C 34.996094 24.722656 34.734375 22.320313 33.695313 20.277344 Z M 16.507813 28.632813 C 16.117188 28.546875 16.078125 28.117188 16.050781 27.777344 C 16.003906 27.253906 16.105469 26.710938 16.144531 26.183594 C 16.191406 25.585938 16.164063 24.976563 16.144531 24.367188 C 16.117188 23.390625 16.011719 22.367188 16.164063 21.394531 C 16.292969 20.550781 16.976563 20.296875 17.71875 20.304688 C 17.550781 20.570313 17.398438 20.839844 17.25 21.121094 C 16.640625 22.292969 16.125 23.746094 16.574219 25.050781 C 16.601563 26.277344 16.867188 27.507813 17.34375 28.648438 C 17.0625 28.679688 16.789063 28.6875 16.507813 28.632813 Z M 33.234375 26.859375 C 32.632813 28.742188 31.292969 30.382813 29.625 31.425781 C 28.003906 32.429688 26.035156 32.765625 24.148438 32.585938 C 22.226563 32.410156 20.570313 31.601563 19.367188 30.085938 C 18.234375 28.648438 17.664063 26.832031 17.605469 25.023438 C 17.570313 24.871094 17.539063 24.710938 17.53125 24.5625 C 17.523438 24.542969 17.503906 24.523438 17.492188 24.507813 C 17.222656 23.351563 17.898438 22.050781 18.449219 21.074219 C 19.050781 20.035156 19.867188 19.105469 20.839844 18.402344 C 22.585938 17.148438 25.023438 16.800781 27.113281 16.996094 C 28.171875 17.101563 29.203125 17.371094 30.132813 17.886719 C 31.097656 18.421875 31.875 19.332031 32.476563 20.25 C 33.757813 22.21875 33.9375 24.65625 33.234375 26.859375 Z "/>
<path style=" stroke:none;fill-rule:nonzero;fill:#000000;fill-opacity:1;" d="M 31.070313 21.394531 C 30.992188 20.550781 30.300781 19.882813 29.597656 19.519531 C 28.03125 18.695313 25.875 18.851563 24.234375 19.3125 C 23.175781 19.601563 22.21875 20.371094 21.507813 21.1875 C 20.785156 22.011719 20.371094 23.035156 20.492188 24.113281 C 20.492188 24.113281 20.484375 24.113281 20.484375 24.121094 C 20.503906 24.367188 20.457031 24.609375 20.410156 24.84375 C 20.164063 26.644531 21.375 28.367188 22.800781 29.417969 C 23.625 30.027344 24.535156 30.367188 25.554688 30.421875 C 26.652344 30.476563 27.992188 30.347656 28.867188 29.617188 C 29.773438 28.855469 29.390625 27.777344 28.976563 26.867188 C 28.753906 26.382813 28.539063 25.882813 28.621094 25.339844 C 28.707031 24.777344 29.128906 24.328125 29.539063 23.980469 C 30.308594 23.304688 31.164063 22.5 31.070313 21.394531 Z M 28.875 23.195313 C 28.039063 23.90625 27.441406 24.863281 27.601563 25.996094 C 27.675781 26.539063 27.929688 27.039063 28.152344 27.542969 C 28.339844 27.957031 28.601563 28.5 28.179688 28.847656 C 27.367188 29.523438 25.847656 29.503906 24.871094 29.304688 C 23.851563 29.101563 22.921875 28.320313 22.292969 27.523438 C 21.804688 26.914063 21.375 26.101563 21.382813 25.285156 C 21.273438 24.84375 21.367188 24.261719 21.460938 23.898438 C 21.46875 23.867188 21.476563 23.839844 21.476563 23.820313 C 21.421875 22.828125 22.152344 21.898438 22.875 21.28125 C 23.558594 20.691406 24.320313 20.316406 25.210938 20.15625 C 26.042969 20.007813 26.90625 19.96875 27.75 20.070313 C 28.472656 20.15625 29.304688 20.363281 29.785156 20.953125 C 30.476563 21.816406 29.523438 22.640625 28.875 23.195313 Z "/>
<path style=" stroke:none;fill-rule:nonzero;fill:#000000;fill-opacity:1;" d="M 20.691406 11.089844 C 20.382813 10.59375 19.882813 10.367188 19.339844 10.210938 C 18.328125 9.910156 17.183594 9.984375 16.144531 9.957031 C 15.226563 9.929688 14.242188 9.957031 13.398438 10.351563 C 12.441406 10.800781 12.007813 11.671875 11.992188 12.703125 C 11.980469 13.050781 12.261719 13.191406 12.535156 13.152344 C 12.617188 13.320313 12.777344 13.453125 13.011719 13.453125 C 15.449219 13.453125 17.886719 13.359375 20.324219 13.359375 C 20.625 13.359375 20.792969 13.070313 20.804688 12.804688 C 20.8125 12.234375 21.019531 11.617188 20.691406 11.089844 Z M 19.835938 12.328125 C 17.570313 12.335938 15.300781 12.414063 13.03125 12.421875 C 13.210938 10.941406 15.027344 10.949219 16.21875 10.988281 C 16.988281 11.007813 17.773438 10.996094 18.535156 11.101563 C 18.929688 11.15625 19.359375 11.230469 19.679688 11.484375 C 19.894531 11.644531 19.882813 12 19.835938 12.328125 Z "/>
<path style=" stroke:none;fill-rule:nonzero;fill:#000000;fill-opacity:1;" d="M 24.710938 9.355469 C 23.53125 9.179688 22.378906 9.9375 22.445313 11.230469 C 22.445313 11.257813 22.453125 11.289063 22.453125 11.316406 C 22.386719 11.457031 22.378906 11.625 22.460938 11.792969 C 22.921875 12.683594 23.914063 13.179688 24.898438 13.132813 C 25.960938 13.085938 26.820313 12.160156 26.792969 11.109375 C 26.765625 10.070313 25.59375 9.488281 24.710938 9.355469 Z M 24.628906 12.113281 C 24.132813 12.113281 23.691406 11.792969 23.429688 11.398438 C 23.457031 11.335938 23.476563 11.25 23.476563 11.15625 C 23.4375 10.414063 24.160156 10.304688 24.722656 10.40625 C 25.097656 10.472656 25.808594 10.753906 25.78125 11.242188 C 25.734375 11.839844 25.164063 12.113281 24.628906 12.113281 Z "/>
<path style=" stroke:none;fill-rule:nonzero;fill:#000000;fill-opacity:1;" d="M 28.714844 9.609375 C 28.714844 9.609375 28.707031 9.601563 28.707031 9.601563 C 28.6875 9.582031 28.667969 9.5625 28.648438 9.542969 C 28.546875 9.449219 28.40625 9.402344 28.265625 9.414063 C 28.132813 9.421875 28.003906 9.488281 27.917969 9.589844 C 27.824219 9.703125 27.789063 9.824219 27.789063 9.976563 C 27.789063 10.132813 27.863281 10.265625 27.964844 10.378906 C 28.085938 10.5 28.246094 10.519531 28.40625 10.519531 C 28.539063 10.519531 28.667969 10.433594 28.753906 10.339844 C 28.847656 10.238281 28.894531 10.097656 28.882813 9.957031 C 28.875 9.824219 28.820313 9.703125 28.714844 9.609375 Z "/>
<path style=" stroke:none;fill-rule:nonzero;fill:#000000;fill-opacity:1;" d="M 30.335938 9.355469 C 29.671875 9.355469 29.757813 10.386719 30.414063 10.386719 C 31.078125 10.386719 30.992188 9.355469 30.335938 9.355469 Z "/>
<path style=" stroke:none;fill-rule:nonzero;fill:#000000;fill-opacity:1;" d="M 32.585938 9.234375 C 31.921875 9.234375 32.007813 10.265625 32.664063 10.265625 C 33.328125 10.265625 33.242188 9.234375 32.585938 9.234375 Z "/>
<path style=" stroke:none;fill-rule:nonzero;fill:#000000;fill-opacity:1;" d="M 35.53125 9.179688 C 35.417969 9.085938 35.296875 9.046875 35.148438 9.046875 L 35.082031 9.046875 C 34.949219 9.046875 34.820313 9.132813 34.734375 9.226563 C 34.640625 9.328125 34.59375 9.46875 34.601563 9.609375 C 34.613281 9.742188 34.679688 9.871094 34.78125 9.957031 C 34.894531 10.050781 35.015625 10.085938 35.164063 10.085938 L 35.230469 10.085938 C 35.363281 10.085938 35.492188 10.003906 35.578125 9.910156 C 35.671875 9.804688 35.71875 9.664063 35.710938 9.523438 C 35.691406 9.394531 35.625 9.261719 35.53125 9.179688 Z "/>
<path style=" stroke:none;fill-rule:nonzero;fill:#000000;fill-opacity:1;" d="M 37.527344 9.179688 C 37.414063 9.085938 37.292969 9.046875 37.144531 9.046875 L 36.957031 9.046875 C 36.824219 9.046875 36.695313 9.132813 36.609375 9.226563 C 36.515625 9.328125 36.46875 9.46875 36.476563 9.609375 C 36.488281 9.742188 36.554688 9.871094 36.65625 9.957031 C 36.769531 10.050781 36.890625 10.085938 37.039063 10.085938 L 37.226563 10.085938 C 37.359375 10.085938 37.492188 10.003906 37.574219 9.910156 C 37.667969 9.804688 37.714844 9.664063 37.707031 9.523438 C 37.6875 9.394531 37.632813 9.261719 37.527344 9.179688 Z "/>
<path style=" stroke:none;fill-rule:nonzero;fill:#000000;fill-opacity:1;" d="M 28.59375 11.53125 C 28.59375 11.53125 28.585938 11.523438 28.585938 11.523438 C 28.566406 11.503906 28.546875 11.484375 28.527344 11.464844 C 28.425781 11.371094 28.285156 11.324219 28.144531 11.335938 C 28.011719 11.34375 27.882813 11.410156 27.796875 11.511719 C 27.703125 11.625 27.664063 11.746094 27.664063 11.898438 C 27.664063 12.054688 27.742188 12.1875 27.84375 12.300781 C 27.964844 12.421875 28.125 12.441406 28.285156 12.441406 C 28.414063 12.441406 28.546875 12.355469 28.632813 12.261719 C 28.726563 12.160156 28.773438 12.019531 28.761719 11.878906 C 28.753906 11.746094 28.6875 11.617188 28.59375 11.53125 Z "/>
<path style=" stroke:none;fill-rule:nonzero;fill:#000000;fill-opacity:1;" d="M 30.207031 11.277344 C 29.539063 11.277344 29.625 12.308594 30.28125 12.308594 C 30.957031 12.308594 30.871094 11.277344 30.207031 11.277344 Z "/>
<path style=" stroke:none;fill-rule:nonzero;fill:#000000;fill-opacity:1;" d="M 32.457031 11.15625 C 31.789063 11.15625 31.875 12.1875 32.53125 12.1875 C 33.207031 12.179688 33.121094 11.15625 32.457031 11.15625 Z "/>
<path style=" stroke:none;fill-rule:nonzero;fill:#000000;fill-opacity:1;" d="M 35.398438 11.089844 C 35.289063 10.996094 35.164063 10.960938 35.015625 10.960938 L 34.949219 10.960938 C 34.820313 10.960938 34.6875 11.042969 34.601563 11.136719 C 34.507813 11.242188 34.460938 11.382813 34.472656 11.523438 C 34.480469 11.652344 34.546875 11.785156 34.648438 11.867188 C 34.761719 11.960938 34.882813 12 35.035156 12 L 35.101563 12 C 35.230469 12 35.363281 11.914063 35.445313 11.820313 C 35.539063 11.71875 35.585938 11.578125 35.578125 11.4375 C 35.570313 11.304688 35.503906 11.183594 35.398438 11.089844 Z "/>
<path style=" stroke:none;fill-rule:nonzero;fill:#000000;fill-opacity:1;" d="M 37.40625 11.089844 C 37.292969 10.996094 37.171875 10.960938 37.023438 10.960938 L 36.835938 10.960938 C 36.703125 10.960938 36.570313 11.042969 36.488281 11.136719 C 36.394531 11.242188 36.347656 11.382813 36.355469 11.523438 C 36.367188 11.652344 36.429688 11.785156 36.535156 11.867188 C 36.648438 11.960938 36.769531 12 36.917969 12 L 37.105469 12 C 37.238281 12 37.367188 11.914063 37.453125 11.820313 C 37.546875 11.71875 37.59375 11.578125 37.585938 11.4375 C 37.566406 11.304688 37.5 11.183594 37.40625 11.089844 Z "/>
</g>
</svg>
