<?xml version="1.0" encoding="UTF-8"?>
<svg version="1.1" xmlns="http://www.w3.org/2000/svg" width="512" height="512">
<path d="M0 0 C1.0864922 -0.00743927 1.0864922 -0.00743927 2.19493374 -0.01502883 C4.61703462 -0.02796088 7.03858204 -0.01960808 9.46069622 -0.01129913 C11.21677961 -0.01618918 12.97285977 -0.02237951 14.72893447 -0.02975702 C19.55093171 -0.04616533 24.37276554 -0.04383678 29.19478095 -0.03838205 C34.39669054 -0.03571296 39.59855646 -0.05024143 44.80044842 -0.06247711 C54.99039374 -0.08353856 65.18028217 -0.08807154 75.37024669 -0.08628923 C83.6528011 -0.08498193 91.93533776 -0.08878411 100.21788883 -0.09621429 C102.60311037 -0.09831348 104.98833191 -0.10041108 107.37355345 -0.10250711 C108.56072617 -0.10355064 109.74789888 -0.10459417 110.97104653 -0.10566932 C133.42732757 -0.12457468 155.88357595 -0.12352062 178.33986165 -0.11669999 C198.88333334 -0.11112468 219.42668031 -0.131949 239.97012285 -0.16506046 C261.06321497 -0.198794 282.15624734 -0.21396618 303.24936694 -0.20934343 C315.09188792 -0.20709836 326.93429363 -0.21234748 338.77679157 -0.23723602 C348.85908747 -0.25824477 358.9412049 -0.2618453 369.02350811 -0.24293643 C374.16706694 -0.23377595 379.310293 -0.23264534 384.45382595 -0.25329208 C389.16483939 -0.2719934 393.8752473 -0.2675079 398.58623763 -0.24474627 C400.28808019 -0.2405584 401.9899691 -0.24476684 403.69176266 -0.25834221 C412.98335798 -0.32739888 420.52781919 0.03567833 428.51359844 5.38311005 C429.42109844 5.93998505 430.32859844 6.49686005 431.26359844 7.07061005 C442.21209146 18.32322787 441.80962789 32.2060937 441.7531004 46.99590302 C441.75421545 48.64816117 441.75627666 50.30041892 441.75920391 51.95267487 C441.76390193 55.49273015 441.76283113 59.03271894 441.75742817 62.57277298 C441.74976318 68.19149472 441.76053771 73.81009095 441.77463055 79.42879486 C441.8122074 95.40055073 441.83061088 111.37224936 441.81901836 127.34404755 C441.81276387 136.17944639 441.82457546 145.01464115 441.85546368 153.84999001 C441.87092802 158.5102901 441.87732126 163.17018837 441.86088276 167.83049393 C441.6407538 194.34988613 441.6407538 194.34988613 446.90719604 220.22543049 C454.68023606 247.8831865 453.2801818 284.46206987 447.51359844 312.38311005 C447.31492168 313.36618134 447.11624493 314.34925262 446.91154766 315.36211395 C440.39767499 346.68237512 428.70293927 376.9299333 410.51359844 403.38311005 C410.11076641 403.97833466 409.70793438 404.57355927 409.29289532 405.18682098 C400.1961498 418.57244414 389.57888576 430.60449446 378.51359844 442.38311005 C377.59320782 443.36730927 377.59320782 443.36730927 376.65422344 444.3713913 C371.68048606 449.52276216 366.11914063 453.94235585 360.51359844 458.38311005 C359.50039532 459.19006317 358.48719219 459.9970163 357.44328594 460.82842255 C335.49688889 478.13676891 311.04995724 491.49894616 284.51359844 500.38311005 C283.72034161 500.65558563 282.92708477 500.92806122 282.10978985 501.20879364 C261.51407344 508.20030906 239.46386621 512.47227212 217.68547344 512.58623505 C216.7823341 512.59329468 215.87919476 512.60035431 214.94868755 512.60762787 C177.96402013 512.83123337 177.96402013 512.83123337 161.51359844 509.38311005 C160.52440411 509.18975067 159.53520977 508.9963913 158.51603985 508.79717255 C114.43980209 500.08544399 73.45055967 480.06085733 40.51359844 449.38311005 C39.14284661 448.19070883 37.76801981 447.00297122 36.38859844 445.82061005 C29.51790196 439.80358728 23.50544844 433.35142537 17.79484844 426.2229538 C16.31767211 424.38407161 14.81880304 422.56232182 13.29484844 420.7620163 C2.58575729 408.0732516 -5.79235442 394.0527184 -13.48640156 379.38311005 C-13.86651386 378.66768036 -14.24662617 377.95225067 -14.63825703 377.2151413 C-32.37456893 343.41996477 -39.94702908 305.67591374 -39.79890156 267.75811005 C-39.79616734 266.30427414 -39.79616734 266.30427414 -39.79337788 264.82106781 C-39.69063748 232.36480909 -39.69063748 232.36480909 -35.23803425 218.1802597 C-29.95288748 200.84071383 -30.78010819 183.01973834 -30.84336591 165.08620977 C-30.85407552 160.3841917 -30.83467251 155.6822962 -30.81823444 150.98030853 C-30.79126894 142.09757513 -30.78756026 133.21501312 -30.79400748 124.3322469 C-30.80501072 108.41101099 -30.78019334 92.48982537 -30.74025983 76.56864178 C-30.72726126 70.99442747 -30.72588518 65.42036993 -30.73439276 59.84614825 C-30.73803513 56.37667745 -30.73369821 52.90724625 -30.72755146 49.43778038 C-30.72647283 47.83949955 -30.72878798 46.24121195 -30.73489666 44.64294243 C-30.78169422 31.77443451 -30.80415486 19.84915725 -22.48640156 9.38311005 C-15.99300941 3.13997033 -8.99860636 0.0109942 0 0 Z " fill="#73C2F8" transform="translate(50.48640155792236,-0.38311004638671875)"/>
<path d="M0 0 C63.69 0 127.38 0 193 0 C193 149.82 193 299.64 193 454 C77.54832347 454 77.54832347 454 41 420 C39.6290837 418.80778787 38.25423376 417.62008001 36.875 416.4375 C29.06528995 409.59813469 22.48779857 402.09040639 16 394 C13.78115046 391.32992224 11.56139148 388.66066987 9.3359375 385.99609375 C8.17964844 384.51302734 8.17964844 384.51302734 7 383 C6.42917425 382.35980679 5.85834849 381.71961357 5.27022499 381.06002057 C-0.80898645 373.59940731 -0.9793611 366.95769365 -0.84178162 357.63693237 C-0.8448382 356.08974251 -0.85097473 354.54255621 -0.85990578 352.9953891 C-0.87549279 348.76472584 -0.84765176 344.53531271 -0.81245935 340.30480862 C-0.78214283 335.73507305 -0.79246585 331.1654042 -0.79777527 326.59559631 C-0.80144027 318.68510194 -0.77953562 310.77501269 -0.7401104 302.86462021 C-0.68314618 291.42768673 -0.66498265 279.99094853 -0.65619446 268.55388857 C-0.64088576 249.99675226 -0.594333 231.43983171 -0.52807617 212.8828125 C-0.46379271 194.8597113 -0.41433887 176.83666908 -0.38452148 158.81347656 C-0.3826455 157.69062791 -0.38076952 156.56777925 -0.37883669 155.41090488 C-0.36428017 146.62908752 -0.35058189 137.84726887 -0.33715475 129.06544971 C-0.27115569 86.04343508 -0.13031943 43.02196077 0 0 Z " fill="#4FAAF6" transform="translate(50,29)"/>
<path d="M0 0 C1.0864922 -0.00743927 1.0864922 -0.00743927 2.19493374 -0.01502883 C4.61703462 -0.02796088 7.03858204 -0.01960808 9.46069622 -0.01129913 C11.21677961 -0.01618918 12.97285977 -0.02237951 14.72893447 -0.02975702 C19.55093171 -0.04616533 24.37276554 -0.04383678 29.19478095 -0.03838205 C34.39669054 -0.03571296 39.59855646 -0.05024143 44.80044842 -0.06247711 C54.99039374 -0.08353856 65.18028217 -0.08807154 75.37024669 -0.08628923 C83.6528011 -0.08498193 91.93533776 -0.08878411 100.21788883 -0.09621429 C102.60311037 -0.09831348 104.98833191 -0.10041108 107.37355345 -0.10250711 C108.56072617 -0.10355064 109.74789888 -0.10459417 110.97104653 -0.10566932 C133.42732757 -0.12457468 155.88357595 -0.12352062 178.33986165 -0.11669999 C198.88333334 -0.11112468 219.42668031 -0.131949 239.97012285 -0.16506046 C261.06321497 -0.198794 282.15624734 -0.21396618 303.24936694 -0.20934343 C315.09188792 -0.20709836 326.93429363 -0.21234748 338.77679157 -0.23723602 C348.85908747 -0.25824477 358.9412049 -0.2618453 369.02350811 -0.24293643 C374.16706694 -0.23377595 379.310293 -0.23264534 384.45382595 -0.25329208 C389.16483939 -0.2719934 393.8752473 -0.2675079 398.58623763 -0.24474627 C400.28808019 -0.2405584 401.9899691 -0.24476684 403.69176266 -0.25834221 C412.98335798 -0.32739888 420.52781919 0.03567833 428.51359844 5.38311005 C429.42109844 5.93998505 430.32859844 6.49686005 431.26359844 7.07061005 C442.21209146 18.32322787 441.80962789 32.2060937 441.7531004 46.99590302 C441.75421545 48.64816117 441.75627666 50.30041892 441.75920391 51.95267487 C441.76390193 55.49273015 441.76283113 59.03271894 441.75742817 62.57277298 C441.74976318 68.19149472 441.76053771 73.81009095 441.77463055 79.42879486 C441.8122074 95.40055073 441.83061088 111.37224936 441.81901836 127.34404755 C441.81276387 136.17944639 441.82457546 145.01464115 441.85546368 153.84999001 C441.87092802 158.5102901 441.87732126 163.17018837 441.86088276 167.83049393 C441.6407538 194.34988613 441.6407538 194.34988613 446.90719604 220.22543049 C454.68023606 247.8831865 453.2801818 284.46206987 447.51359844 312.38311005 C447.31492168 313.36618134 447.11624493 314.34925262 446.91154766 315.36211395 C440.80316866 344.73266436 430.44371708 375.95584168 412.51359844 400.38311005 C412.18359844 400.38311005 411.85359844 400.38311005 411.51359844 400.38311005 C411.18359844 278.28311005 410.85359844 156.18311005 410.51359844 30.38311005 C316.95859844 29.88811005 316.95859844 29.88811005 221.51359844 29.38311005 C221.84359844 102.31311005 222.17359844 175.24311005 222.51359844 250.38311005 C227.66591031 244.50657266 227.66591031 244.50657266 232.51359844 238.38311005 C233.50359844 239.04311005 234.49359844 239.70311005 235.51359844 240.38311005 C237.16909375 240.76810896 238.83584174 241.11104139 240.51359844 241.38311005 C240.85391094 242.64123505 241.19422344 243.89936005 241.54484844 245.19561005 C245.80756984 260.44441819 251.05245805 275.92196966 262.51359844 287.38311005 C262.71074014 291.52308572 262.82125322 294.46014572 261.51359844 298.38311005 C260.60867657 298.20521942 260.60867657 298.20521942 259.68547344 298.02373505 C254.68999008 297.15851805 254.68999008 297.15851805 250.01359844 298.69561005 C248.06621462 302.18467273 247.98442089 305.18697316 247.88469219 309.14092255 C247.76223125 309.88084442 247.63977032 310.6207663 247.51359844 311.38311005 C244.30253733 313.52381746 242.52471794 313.84853469 238.76359844 314.38311005 C235.2660991 314.91533821 231.89544489 315.46414875 228.51359844 316.50811005 C225.51359844 317.38311005 225.51359844 317.38311005 221.51359844 317.38311005 C221.51359844 372.16311005 221.51359844 426.94311005 221.51359844 483.38311005 C254.51359844 483.38311005 287.51359844 483.38311005 321.51359844 483.38311005 C290.45644959 506.67597168 243.46446509 512.84591595 205.82609844 512.69561005 C204.85360149 512.6934549 203.88110455 512.69129974 202.87913799 512.68907928 C188.87459175 512.63926563 175.2617237 512.26481316 161.51359844 509.38311005 C160.52440411 509.18975067 159.53520977 508.9963913 158.51603985 508.79717255 C134.13845186 503.97890901 111.64679198 495.58912017 89.51359844 484.38311005 C89.51359844 484.05311005 89.51359844 483.72311005 89.51359844 483.38311005 C123.50359844 483.38311005 157.49359844 483.38311005 192.51359844 483.38311005 C192.51359844 333.56311005 192.51359844 183.74311005 192.51359844 29.38311005 C128.82359844 29.38311005 65.13359844 29.38311005 -0.48640156 29.38311005 C-0.48640156 151.81311005 -0.48640156 274.24311005 -0.48640156 400.38311005 C-5.73032481 393.82820598 -9.55890215 386.76553171 -13.48640156 379.38311005 C-14.04617695 378.33510223 -14.04617695 378.33510223 -14.61726093 377.26592255 C-32.36866397 343.45971074 -39.94708766 305.69090961 -39.79890156 267.75811005 C-39.79616734 266.30427414 -39.79616734 266.30427414 -39.79337788 264.82106781 C-39.69063748 232.36480909 -39.69063748 232.36480909 -35.23803425 218.1802597 C-29.95288748 200.84071383 -30.78010819 183.01973834 -30.84336591 165.08620977 C-30.85407552 160.3841917 -30.83467251 155.6822962 -30.81823444 150.98030853 C-30.79126894 142.09757513 -30.78756026 133.21501312 -30.79400748 124.3322469 C-30.80501072 108.41101099 -30.78019334 92.48982537 -30.74025983 76.56864178 C-30.72726126 70.99442747 -30.72588518 65.42036993 -30.73439276 59.84614825 C-30.73803513 56.37667745 -30.73369821 52.90724625 -30.72755146 49.43778038 C-30.72647283 47.83949955 -30.72878798 46.24121195 -30.73489666 44.64294243 C-30.78169422 31.77443451 -30.80415486 19.84915725 -22.48640156 9.38311005 C-15.99300941 3.13997033 -8.99860636 0.0109942 0 0 Z " fill="#4B6BB1" transform="translate(50.48640155792236,-0.38311004638671875)"/>
<path d="M0 0 C5.26431151 3.95884716 9.15438494 9.31749626 12.9375 14.64453125 C18.96583743 22.79575095 28.05557744 27.52522684 37.9375 29.45703125 C39.93507002 29.57373711 41.93656276 29.63202539 43.9375 29.64453125 C44.96875 29.65871094 46 29.67289063 47.0625 29.6875 C49.9415532 29.45670633 51.46599766 28.86080122 53.9375 27.45703125 C57.14827401 26.97541515 58.47727044 27.1709426 61.25 28.89453125 C64.78356432 34.2603141 62.96625127 40.57638636 61.875 46.58203125 C61.67777344 47.53335938 61.48054688 48.4846875 61.27734375 49.46484375 C60.7054336 54.50028253 60.92569639 58.09903396 64.00390625 62.23046875 C64.82761719 63.08898437 65.65132813 63.9475 66.5 64.83203125 C71.59816416 70.75824118 71.59816416 70.75824118 71.75 75.20703125 C71.16734628 80.32345921 68.71112477 84.20390909 65.59375 88.1640625 C62.30974249 92.39317682 60.39104908 95.97150473 60.9375 101.45703125 C62.16307209 105.01119031 64.05030396 108.09785887 66.09765625 111.234375 C68.88810302 115.64508119 69.88182016 119.3449904 68.9375 124.45703125 C67.7993418 127.88622341 66.44423112 131.17450988 64.9375 134.45703125 C66.113125 134.53953125 67.28875 134.62203125 68.5 134.70703125 C84.56513723 136.53146324 99.26455132 141.90936222 109.7265625 154.6328125 C118.92354446 168.11114814 117.77335332 187.80758905 118.625 203.45703125 C118.75497394 205.67713535 118.8858279 207.89718811 119.01757812 210.1171875 C119.14140608 212.25125691 119.26448016 214.38537022 119.38671875 216.51953125 C119.44292892 217.49986328 119.4991391 218.48019531 119.55705261 219.49023438 C120.44685672 235.89429122 120.44685672 235.89429122 116.1875 240.64453125 C115.37023437 241.57136719 114.55296875 242.49820313 113.7109375 243.453125 C112.78759148 244.45547211 111.86305928 245.45672749 110.9375 246.45703125 C109.92894916 247.57224939 108.92115704 248.68815407 107.9140625 249.8046875 C104.96025078 253.05887104 101.95812112 256.26492403 98.9375 259.45703125 C98.29941406 260.13765625 97.66132813 260.81828125 97.00390625 261.51953125 C92.0560769 266.64534007 86.51442923 271.03894446 80.9375 275.45703125 C79.92429687 276.26398438 78.91109375 277.0709375 77.8671875 277.90234375 C72.12777352 282.42419856 66.25746175 286.70118611 60.1875 290.76953125 C59.59807617 291.1658374 59.00865234 291.56214355 58.40136719 291.97045898 C56.5970159 293.16160104 54.76899098 294.30807641 52.9375 295.45703125 C52.28895585 295.88628497 51.6404117 296.31553869 50.9722147 296.7578001 C45.04607963 300.42197734 40.44082917 301.15889379 33.55249023 301.0246582 C32.03429861 301.02556221 32.03429861 301.02556221 30.48543644 301.02648449 C27.23841213 301.02277924 23.99285822 300.98483086 20.74609375 300.9453125 C18.72986542 300.93795271 16.71362751 300.93285697 14.6973877 300.93005371 C7.25644525 300.90393622 -0.18429212 300.83412966 -7.625 300.76953125 C-24.269375 300.66640625 -40.91375 300.56328125 -58.0625 300.45703125 C-58.0625 245.67703125 -58.0625 190.89703125 -58.0625 134.45703125 C-42.82720588 130.10409007 -42.82720588 130.10409007 -35.0625 129.45703125 C-34.4025 129.12703125 -33.7425 128.79703125 -33.0625 128.45703125 C-32.78473808 126.2638196 -32.78473808 126.2638196 -32.75 123.70703125 C-32.42802168 119.90332122 -32.12639732 118.55287723 -29.9375 115.26953125 C-27.0625 113.45703125 -27.0625 113.45703125 -23.375 113.58203125 C-20.0625 114.45703125 -20.0625 114.45703125 -18.0625 115.45703125 C-17.18239548 108.69289072 -17.18239548 108.69289072 -19.33984375 102.47265625 C-20.5505832 101.23171695 -21.77016137 99.99936988 -22.99609375 98.7734375 C-31.72510582 88.98836348 -39.0625 71.56580741 -39.0625 58.45703125 C-40.155625 58.37453125 -41.24875 58.29203125 -42.375 58.20703125 C-46.0625 57.45703125 -46.0625 57.45703125 -47.71875 55.796875 C-51.5461133 49.13236739 -51.78067577 38.99787684 -51.0625 31.45703125 C-49.4375 28.83203125 -49.4375 28.83203125 -47.0625 27.45703125 C-43.99974796 27.64079637 -41.8019691 28.0872967 -39.0625 29.45703125 C-37.89318653 26.57872118 -36.79213348 23.69743007 -35.75 20.76953125 C-31.95673866 10.81691486 -28.01300083 3.66391333 -18.6875 -1.98046875 C-12.12180766 -3.38740282 -5.92981723 -3.3833433 0 0 Z " fill="#70F1A3" transform="translate(330.0625,182.54296875)"/>
<path d="M0 0 C20.46 0 40.92 0 62 0 C62.12865715 34.64025406 62.25638153 69.28051102 62.38218227 103.92077555 C62.39719416 108.05411733 62.4122168 112.18745907 62.42724609 116.32080078 C62.43023671 117.14332642 62.43322732 117.96585206 62.43630856 118.81330273 C62.48411877 131.95584758 62.53278956 145.09838911 62.58180541 158.24092951 C62.63246093 171.82852365 62.68212923 185.41612116 62.73096704 199.00372195 C62.75826969 206.59258445 62.78596459 214.18144499 62.81480408 221.77030182 C62.9756793 264.18037392 63.02940238 306.58962552 63 349 C60.78337188 347.74052134 58.5676052 346.47956638 56.35229492 345.21777344 C55.73179008 344.86540619 55.11128525 344.51303894 54.47197723 344.1499939 C48.97563007 341.01682902 43.6172634 337.69788851 38.3125 334.25 C37.0140918 333.42435547 37.0140918 333.42435547 35.68945312 332.58203125 C34.85994141 332.04449219 34.03042969 331.50695312 33.17578125 330.953125 C32.44270752 330.48036133 31.70963379 330.00759766 30.9543457 329.52050781 C28.75407216 327.80866476 27.36777223 326.43926227 26 324 C25.92578125 321.203125 25.92578125 321.203125 26.3125 318.25 C26.43238281 317.26515625 26.55226562 316.2803125 26.67578125 315.265625 C26.78277344 314.51796875 26.88976562 313.7703125 27 313 C26.21987549 312.52691406 25.43975098 312.05382812 24.63598633 311.56640625 C21.67419484 309.77002817 18.71263564 307.97326825 15.7512207 306.17626953 C14.48210435 305.40626543 13.21290196 304.63640312 11.94360352 303.86669922 C4.25020147 299.20125921 -3.42856048 294.51373991 -11.08666992 289.79052734 C-13.59336661 288.24991614 -16.10797152 286.72416893 -18.62890625 285.20703125 C-19.94020327 284.409017 -21.25140521 283.61084647 -22.5625 282.8125 C-23.23345703 282.41353516 -23.90441406 282.01457031 -24.59570312 281.60351562 C-30.72226351 277.84500137 -34.08374765 274.09192457 -36 267 C-36.48664371 264.83951584 -36.94360692 262.67219104 -37.375 260.5 C-38.74316042 253.97753228 -40.47109279 247.63522364 -42.35058594 241.24462891 C-43.42124253 237.54402111 -44.4437562 233.83008629 -45.47436523 230.11816406 C-47.9524647 221.19458767 -50.48510007 212.29584887 -53.1875 203.4375 C-60 181.03848532 -60 181.03848532 -60 175 C-61.21623047 175.29003906 -61.21623047 175.29003906 -62.45703125 175.5859375 C-91.33045985 182.37573095 -91.33045985 182.37573095 -99.5625 178.1875 C-106.65643965 170.66009865 -106.86675276 154.6870243 -108.64428711 144.86572266 C-109.18776749 141.8735273 -109.74485988 138.88407212 -110.30273438 135.89453125 C-110.65447499 133.96890127 -111.00541399 132.04312466 -111.35546875 130.1171875 C-111.52104782 129.23570038 -111.68662689 128.35421326 -111.85722351 127.4460144 C-114.28269815 113.83072998 -114.28269815 113.83072998 -112.09416199 109.00094604 C-105.89247876 100.34572202 -91.86948277 100.32420672 -82.1328125 98.66015625 C-80.93679413 98.45192734 -79.74077576 98.24369843 -78.5085144 98.02915955 C-74.71471509 97.36945895 -70.91991732 96.71573538 -67.125 96.0625 C-63.37814567 95.41368881 -59.63151356 94.76360933 -55.88494873 94.11312866 C-53.43947192 93.68862599 -50.99387581 93.26481001 -48.54815674 92.84170532 C-39.86080025 91.33547447 -31.18381641 89.77767615 -22.51565552 88.16456604 C-21.68017181 88.01027634 -20.84468811 87.85598663 -19.98388672 87.69702148 C-19.25805389 87.56166489 -18.53222107 87.42630829 -17.78439331 87.28684998 C-16 87 -16 87 -14 87 C-14.00888245 86.1806044 -14.01776489 85.3612088 -14.0269165 84.51698303 C-14.10733368 76.76441161 -14.1681013 69.01204473 -14.20724869 61.25916386 C-14.22805198 57.27407482 -14.25623497 53.28933276 -14.30175781 49.30444336 C-14.34547727 45.45295783 -14.36919159 41.60180433 -14.37950897 37.75008965 C-14.38685389 36.28657244 -14.40119607 34.82307174 -14.42292023 33.35969734 C-14.57146141 22.93132578 -13.74381934 14.47647391 -6.4375 6.5 C-5.85871094 5.8503125 -5.27992188 5.200625 -4.68359375 4.53125 C-3 3 -3 3 0 2 C0 1.34 0 0.68 0 0 Z " fill="#73C2F8" transform="translate(180,30)"/>
<path d="M0 0 C24.62526687 -0.02332609 49.25053209 -0.04097774 73.87580776 -0.05181217 C85.30889187 -0.05697575 96.74196912 -0.06401961 108.17504883 -0.07543945 C118.13626026 -0.08538441 128.09746672 -0.09185298 138.05868298 -0.09408849 C143.33654174 -0.09539592 148.6143863 -0.09848379 153.89224052 -0.10573006 C158.85383884 -0.11248731 163.81541703 -0.11461757 168.7770195 -0.11310768 C170.603628 -0.11338414 172.43023713 -0.11539101 174.25684166 -0.11920547 C176.73944452 -0.12413813 179.22197015 -0.12299989 181.70457458 -0.12025452 C182.43705097 -0.12316736 183.16952736 -0.1260802 183.9242 -0.12908131 C188.88587879 -0.11412121 188.88587879 -0.11412121 190 1 C190.09780042 3.61762734 190.12994511 6.20885307 190.12025452 8.82691956 C190.12153615 10.07164289 190.12153615 10.07164289 190.12284368 11.34151214 C190.12450103 14.14379319 190.11897297 16.94601541 190.11352539 19.74829102 C190.11324355 21.74841307 190.1134012 23.74853523 190.1139679 25.74865723 C190.11425598 31.19678035 190.10835745 36.64488166 190.10139394 42.0929997 C190.09516226 47.77984842 190.09455675 53.46669758 190.09336853 59.15354919 C190.09025466 69.93059959 190.08204053 80.7076399 190.07201904 91.48468584 C190.06085962 103.75049607 190.05534789 116.01630678 190.05032361 128.28212082 C190.03985796 153.52141949 190.02225745 178.76070918 190 204 C184.84733616 199.67871751 179.99000289 195.16062195 175.21083069 190.43202209 C174.45755963 189.69018895 173.70428858 188.94835581 172.92819113 188.18404287 C170.41861596 185.7110775 167.91248223 183.23465656 165.40649414 180.75805664 C163.60262692 178.97847729 161.79865908 177.19899992 159.99459839 175.4196167 C143.57581376 159.21672025 127.20373446 142.96654707 110.84436893 126.7036829 C108.65832893 124.53076866 106.47216457 122.35797963 104.28588867 120.18530273 C103.74256468 119.6453479 103.19924069 119.10539306 102.63945233 118.54907595 C93.83184146 109.79768568 84.99666786 101.07464843 76.15066177 92.36208922 C67.05529417 83.4027937 57.98867085 74.41516561 48.94833845 65.40033621 C43.37844041 59.84787082 37.78775944 54.31822316 32.16805988 48.81616037 C27.86140763 44.59486357 23.59562038 40.3345287 19.34341049 36.05831909 C17.59722096 34.31465541 15.83817914 32.58375181 14.06549263 30.867033 C-0.72429332 16.52079757 -0.72429332 16.52079757 -1.12260586 8.39107364 C-1.01095624 5.52841212 -0.62228428 2.7940142 0 0 Z " fill="#9AD7F8" transform="translate(272,29)"/>
<path d="M0 0 C6.29196722 5.06852915 7.29961392 10.15907948 8.609375 17.81640625 C8.90053192 19.42780739 8.90053192 19.42780739 9.1975708 21.07176208 C9.60459688 23.34416646 10.00422992 25.61790578 10.39697266 27.89282227 C10.99424287 31.34175547 11.61821354 34.78503904 12.24609375 38.22851562 C12.6396333 40.44502681 13.03160981 42.6618162 13.421875 44.87890625 C13.6061908 45.89497452 13.79050659 46.91104279 13.98040771 47.957901 C17.00982779 65.77831415 17.00982779 65.77831415 13.4375 71.9375 C9.53708027 75.28071691 6.73085425 76.25640292 1.71875 77.1015625 C0.43355469 77.32070312 -0.85164063 77.53984375 -2.17578125 77.765625 C-2.84432129 77.87583984 -3.51286133 77.98605469 -4.20166016 78.09960938 C-6.24385652 78.43648658 -8.2840832 78.78369314 -10.32421875 79.1328125 C-20.29236421 80.8125 -20.29236421 80.8125 -23.75 80.8125 C-23.4096875 81.6905127 -23.069375 82.56852539 -22.71875 83.47314453 C-18.0120879 95.75061153 -13.87648184 108.20547307 -9.75 120.6875 C-9.05757784 122.77483454 -8.36487081 124.8620746 -7.671875 126.94921875 C-7.33244873 127.97259338 -6.99302246 128.99596802 -6.64331055 130.050354 C-5.96918946 132.08059628 -5.29359186 134.11034894 -4.61645508 136.1395874 C-3.06464743 140.79855898 -1.53868638 145.46121502 -0.08984375 150.15332031 C0.16974121 150.97728302 0.42932617 151.80124573 0.69677734 152.650177 C1.17214049 154.16320354 1.63577527 155.67999374 2.08447266 157.20114136 C4.43698716 164.60731668 8.84029652 167.87470467 15.46875 171.4765625 C16.04911011 171.79531342 16.62947021 172.11406433 17.22741699 172.44247437 C19.06394968 173.44899874 20.90663962 174.44354539 22.75 175.4375 C24.59181433 176.44124775 26.43229418 177.44740762 28.27258301 178.45394897 C29.94067826 179.36461644 31.61185608 180.2696308 33.28320312 181.17431641 C35.21692223 182.24206288 37.12313783 183.36171807 38.99291992 184.5378418 C41.84797615 186.15019968 42.93328668 185.76382372 46.0625 185 C52.25 184.8125 52.25 184.8125 68.25 192.8125 C68.25 215.2525 68.25 237.6925 68.25 260.8125 C59.8757156 256.02719463 51.63007614 251.30610861 43.5625 246.0625 C42.69689453 245.51207031 41.83128906 244.96164062 40.93945312 244.39453125 C40.10994141 243.85699219 39.28042969 243.31945312 38.42578125 242.765625 C37.69270752 242.29286133 36.95963379 241.82009766 36.2043457 241.33300781 C34.00407216 239.62116476 32.61777223 238.25176227 31.25 235.8125 C31.17578125 233.015625 31.17578125 233.015625 31.5625 230.0625 C31.68238281 229.07765625 31.80226562 228.0928125 31.92578125 227.078125 C32.03277344 226.33046875 32.13976562 225.5828125 32.25 224.8125 C31.46987549 224.33941406 30.68975098 223.86632812 29.88598633 223.37890625 C26.92419484 221.58252817 23.96263564 219.78576825 21.0012207 217.98876953 C19.73210435 217.21876543 18.46290196 216.44890312 17.19360352 215.67919922 C9.50020147 211.01375921 1.82143952 206.32623991 -5.83666992 201.60302734 C-8.34336661 200.06241614 -10.85797152 198.53666893 -13.37890625 197.01953125 C-14.69020327 196.221517 -16.00140521 195.42334647 -17.3125 194.625 C-17.98345703 194.22603516 -18.65441406 193.82707031 -19.34570312 193.41601562 C-25.47226351 189.65750137 -28.83374765 185.90442457 -30.75 178.8125 C-31.23664371 176.65201584 -31.69360692 174.48469104 -32.125 172.3125 C-33.49316042 165.79003228 -35.22109279 159.44772364 -37.10058594 153.05712891 C-38.17124253 149.35652111 -39.1937562 145.64258629 -40.22436523 141.93066406 C-42.7024647 133.00708767 -45.23510007 124.10834887 -47.9375 115.25 C-54.75 92.85098532 -54.75 92.85098532 -54.75 86.8125 C-55.96623047 87.10253906 -55.96623047 87.10253906 -57.20703125 87.3984375 C-86.08045985 94.18823095 -86.08045985 94.18823095 -94.3125 90 C-101.40643965 82.47259865 -101.61675276 66.4995243 -103.39428711 56.67822266 C-103.93776749 53.6860273 -104.49485988 50.69657212 -105.05273438 47.70703125 C-105.40447499 45.78140127 -105.75541399 43.85562466 -106.10546875 41.9296875 C-106.35383736 40.60745682 -106.35383736 40.60745682 -106.60722351 39.2585144 C-109.03269815 25.64322998 -109.03269815 25.64322998 -106.84416199 20.81344604 C-100.64247876 12.15822202 -86.61948277 12.13670672 -76.8828125 10.47265625 C-75.68679413 10.26442734 -74.49077576 10.05619843 -73.2585144 9.84165955 C-69.46471509 9.18195895 -65.66991732 8.52823538 -61.875 7.875 C-58.12861948 7.22627085 -54.38246149 6.57627549 -50.63641357 5.92562866 C-48.18616797 5.50046699 -45.73568909 5.07664744 -43.28497314 4.65420532 C-37.6184396 3.67452873 -31.95805786 2.67387936 -26.30761719 1.60498047 C-25.31027557 1.41745712 -24.31293396 1.22993378 -23.28536987 1.03672791 C-21.45335902 0.68989394 -19.62244422 0.33718925 -17.79299927 -0.02293396 C-5.454708 -2.35544209 -5.454708 -2.35544209 0 0 Z " fill="#FBAD6E" transform="translate(174.75,118.1875)"/>
<path d="M0 0 C1.37047304 0.0008472 2.74094743 0.00036931 4.11141968 -0.00132751 C7.81555308 -0.00218526 11.51939269 0.01540434 15.22345805 0.03639436 C19.1004999 0.05519825 22.97754911 0.05691452 26.85462952 0.06047058 C34.1891079 0.06978018 41.5234515 0.09437917 48.85787064 0.12451905 C57.21093843 0.15809695 65.56401278 0.17455757 73.9171313 0.18960536 C91.09335093 0.22092976 108.26943952 0.27366902 125.44555664 0.34057617 C124.89580849 3.50432286 124.25674326 5.72546499 122.82055664 8.65307617 C121.07836023 13.32533018 121.41495592 15.50468049 122.44555664 20.34057617 C123.09685461 21.68148376 123.76068939 23.01649949 124.44555664 24.34057617 C124.44555664 25.99057617 124.44555664 27.64057617 124.44555664 29.34057617 C81.21555664 29.34057617 37.98555664 29.34057617 -6.55444336 29.34057617 C-6.55444336 151.77057617 -6.55444336 274.20057617 -6.55444336 400.34057617 C-11.79836661 393.78567211 -15.62694395 386.72299783 -19.55444336 379.34057617 C-20.11421875 378.29256836 -20.11421875 378.29256836 -20.68530273 377.22338867 C-38.43670578 343.41717686 -46.01512946 305.64837573 -45.86694336 267.71557617 C-45.86420914 266.26174026 -45.86420914 266.26174026 -45.86141968 264.77853394 C-45.75867929 232.32227521 -45.75867929 232.32227521 -41.30607605 218.13772583 C-36.02092928 200.79817995 -36.84814999 182.97720446 -36.91140771 165.0436759 C-36.92211732 160.34165783 -36.90271431 155.63976233 -36.88627625 150.93777466 C-36.85931075 142.05504126 -36.85560207 133.17247924 -36.86204928 124.28971303 C-36.87305252 108.36847712 -36.84823514 92.4472915 -36.80830163 76.52610791 C-36.79530306 70.95189359 -36.79392698 65.37783605 -36.80243456 59.80361438 C-36.80607693 56.33414357 -36.80174001 52.86471237 -36.79559326 49.39524651 C-36.79451463 47.79696568 -36.79682978 46.19867807 -36.80293846 44.60040855 C-36.84973602 31.73190064 -36.87219667 19.80662338 -28.55444336 9.34057617 C-19.87553488 0.99614896 -11.6521234 -0.09860286 0 0 Z " fill="#3C589F" transform="translate(56.554443359375,-0.340576171875)"/>
<path d="M0 0 C5.26431151 3.95884716 9.15438494 9.31749626 12.9375 14.64453125 C18.96583743 22.79575095 28.05557744 27.52522684 37.9375 29.45703125 C39.93507002 29.57373711 41.93656276 29.63202539 43.9375 29.64453125 C44.96875 29.65871094 46 29.67289063 47.0625 29.6875 C49.9415532 29.45670633 51.46599766 28.86080122 53.9375 27.45703125 C57.14827401 26.97541515 58.47727044 27.1709426 61.25 28.89453125 C65.13213812 34.78962987 62.82698759 43.19655744 61.62890625 49.7734375 C60.74783883 53.19317375 59.6675701 55.19497317 56.9375 57.45703125 C54.1875 58.26953125 54.1875 58.26953125 51.9375 58.45703125 C51.83695312 59.59785156 51.73640625 60.73867187 51.6328125 61.9140625 C51.03787021 66.62903198 49.58193745 70.75366959 47.8125 75.14453125 C47.5019165 75.92546143 47.19133301 76.7063916 46.87133789 77.51098633 C39.87409522 94.72289869 39.87409522 94.72289869 33.5 101.08203125 C30.69294347 104.02981093 30.61923335 106.18455008 30.6875 110.20703125 C30.80351562 111.59148437 30.80351562 111.59148437 30.921875 113.00390625 C30.9375 115.45703125 30.9375 115.45703125 28.9375 118.45703125 C28.60684174 121.67352333 28.60684174 121.67352333 28.61865234 125.40698242 C28.60860672 126.10967758 28.5985611 126.81237274 28.58821106 127.53636169 C28.55733573 129.85756619 28.54033213 132.17865512 28.5234375 134.5 C28.50472932 136.10998024 28.48515617 137.71995064 28.4647522 139.32991028 C28.41338789 143.5663778 28.37378527 147.80287713 28.33660889 152.03948975 C28.28956055 157.1232115 28.22794434 162.20677493 28.16876221 167.29036713 C28.08049751 175.01252474 28.01077102 182.73465121 27.9375 190.45703125 C13.4175 190.45703125 -1.1025 190.45703125 -16.0625 190.45703125 C-16.12308594 185.27113281 -16.18367188 180.08523438 -16.24609375 174.7421875 C-16.28656756 171.46548606 -16.32733026 168.18879337 -16.36914062 164.91210938 C-16.43554054 159.70616552 -16.50084466 154.50022347 -16.55981445 149.29418945 C-16.60740014 145.09906915 -16.65974058 140.90403313 -16.71544075 136.70901299 C-16.73589066 135.1049858 -16.75459929 133.50093548 -16.77157402 131.89686775 C-16.79555997 129.65780356 -16.82562194 127.41890009 -16.85717773 125.17993164 C-16.87272202 123.90307999 -16.8882663 122.62622833 -16.90428162 121.3106842 C-16.73872553 118.55851318 -16.73872553 118.55851318 -18.0625 117.45703125 C-17.94969687 115.43548041 -17.8220268 113.41475275 -17.6875 111.39453125 C-17.65675535 106.66497993 -17.70518373 104.00770916 -21.0625 100.58203125 C-21.70058594 99.96199219 -22.33867187 99.34195313 -22.99609375 98.703125 C-31.80660903 89.12647796 -39.0625 71.42846641 -39.0625 58.45703125 C-40.155625 58.37453125 -41.24875 58.29203125 -42.375 58.20703125 C-46.0625 57.45703125 -46.0625 57.45703125 -47.71875 55.796875 C-51.5461133 49.13236739 -51.78067577 38.99787684 -51.0625 31.45703125 C-49.4375 28.83203125 -49.4375 28.83203125 -47.0625 27.45703125 C-43.99974796 27.64079637 -41.8019691 28.0872967 -39.0625 29.45703125 C-37.89318653 26.57872118 -36.79213348 23.69743007 -35.75 20.76953125 C-31.95673866 10.81691486 -28.01300083 3.66391333 -18.6875 -1.98046875 C-12.12180766 -3.38740282 -5.92981723 -3.3833433 0 0 Z " fill="#FBAC6D" transform="translate(330.0625,182.54296875)"/>
<path d="M0 0 C4.04504797 1.56398274 7.58713809 3.44392704 11.296875 5.703125 C12.18647919 6.24353424 12.18647919 6.24353424 13.09405518 6.79486084 C14.3456991 7.55626831 15.59622967 8.31950865 16.84570312 9.08447266 C18.72785598 10.23644673 20.61358186 11.38237081 22.5 12.52734375 C29.0970044 16.54251399 35.62596561 20.63614013 42 25 C41.57682292 27.70182292 41.15364583 30.40364583 40.73046875 33.10546875 C40.75343632 36.13819544 40.75343632 36.13819544 42.91796875 38.49609375 C46.79622066 41.64686621 50.86807575 44.26830746 55.125 46.875 C59.91461062 49.8470548 59.91461062 49.8470548 62.26472473 51.38813782 C64.93716317 53.08030435 64.93716317 53.08030435 67.86210632 54.01335144 C71.53714728 55.56380336 73.46970878 56.87939533 76 60 C78.12410889 67.48224604 77.27303615 75.74811841 77.07421875 83.43359375 C77.05369189 85.75525729 77.03803876 88.07696861 77.02705383 90.3986969 C76.9851348 96.4975129 76.87715774 102.59342811 76.75531006 108.69110107 C76.64260248 114.91801713 76.59250592 121.14540393 76.53710938 127.37304688 C76.41928133 139.58330297 76.23164638 151.79140991 76 164 C68.07188192 164.18611324 60.14468982 164.32787873 52.214921 164.41449738 C48.53189509 164.4560907 44.85037321 164.51241317 41.16821289 164.60351562 C37.60838707 164.6910309 34.04999884 164.73839314 30.48917961 164.75901794 C28.48315305 164.78079677 26.47769802 164.84315781 24.47254944 164.90637207 C17.94721408 164.90955029 13.80625711 164.56484479 8.75366211 160.21289062 C2.09141596 153.44350185 -0.1284855 146.34498766 -0.12025452 136.96989441 C-0.12162918 135.75979706 -0.12300385 134.54969971 -0.12442017 133.30293274 C-0.12082489 131.98375351 -0.11722961 130.66457428 -0.11352539 129.30541992 C-0.11324318 127.89583335 -0.11340192 126.48624664 -0.1139679 125.07666016 C-0.11425454 121.25681721 -0.10837923 117.43700573 -0.10139394 113.6171701 C-0.09513834 109.62265543 -0.09455485 105.62814002 -0.09336853 101.63362122 C-0.09026173 94.07247176 -0.0820571 86.51133679 -0.07201904 78.9501937 C-0.06083771 70.34081187 -0.05534236 61.73142935 -0.05032361 53.12204206 C-0.03987395 35.4146865 -0.0222871 17.70734442 0 0 Z " fill="#72C2F8" transform="translate(166,318)"/>
<path d="M0 0 C17.32377352 -0.0233285 34.64754216 -0.04097893 51.97132778 -0.05181217 C60.01450054 -0.05697523 68.05766357 -0.06401812 76.10083008 -0.07543945 C83.1087296 -0.08538598 90.11662208 -0.09185335 97.12452847 -0.09408849 C100.83743192 -0.09539566 104.5503152 -0.09848184 108.2632122 -0.10573006 C112.40131411 -0.11374332 116.53938061 -0.11399116 120.67749023 -0.11352539 C121.91754318 -0.11712067 123.15759613 -0.12071594 124.43522644 -0.12442017 C125.55568359 -0.1230455 126.67614075 -0.12167084 127.83055115 -0.12025452 C128.81041709 -0.12117631 129.79028303 -0.1220981 130.79984188 -0.12304783 C133 0 133 0 134 1 C134.09624593 2.72092653 134.12187598 4.44583382 134.12025452 6.16944885 C134.12231651 7.85013458 134.12231651 7.85013458 134.12442017 9.56477356 C134.12082489 10.80482651 134.11722961 12.04487946 134.11352539 13.32250977 C134.11367142 14.61988068 134.11381744 15.91725159 134.1139679 17.25393677 C134.11425586 20.82195929 134.10835932 24.38994848 134.10139394 27.95796323 C134.09516021 31.6829062 134.09455659 35.40784986 134.09336853 39.13279724 C134.09025527 46.19117363 134.08204195 53.2495346 134.07201904 60.30790418 C134.06085774 68.34162971 134.05534741 76.37535596 134.05032361 84.4090873 C134.03985934 100.93940057 134.02226 117.46969832 134 134 C127.0837886 128.33380864 120.85568912 121.99659406 114.54711914 115.67651367 C113.29507758 114.42582873 112.04282374 113.17535628 110.79037476 111.92507935 C107.4063298 108.54557488 104.02543325 105.16293733 100.6452477 101.7795732 C97.10601684 98.2378046 93.56434009 94.69848316 90.02305603 91.1587677 C84.08412797 85.22165577 78.14730492 79.28244506 72.21166992 73.34204102 C65.34073549 66.46564999 58.46618567 59.59288914 51.5897761 52.7219736 C45.68551009 46.82223666 39.78318381 40.92056446 33.88249296 35.01725179 C30.35800627 31.49120311 26.83284026 27.96584072 23.30592537 24.44222069 C19.99666943 21.13584096 16.68984548 17.82704848 13.38492966 14.51633072 C12.16831772 13.29839048 10.95084282 12.08131158 9.73246956 10.86513329 C8.07743678 9.21280888 6.42547656 7.5574747 4.77430725 5.90129089 C3.84685731 4.97346393 2.91940737 4.04563696 1.96385288 3.08969402 C0 1 0 1 0 0 Z " fill="#73C2F8" transform="translate(328,29)"/>
<path d="M0 0 C3.79130308 1.17185732 5.05643245 1.9441854 7.4375 5.0625 C7.91851807 8.2769165 7.91851807 8.2769165 7.89160156 12.12597656 C7.89218567 12.82881775 7.89276978 13.53165894 7.89337158 14.25579834 C7.89059139 16.57208152 7.85950512 18.88706749 7.828125 21.203125 C7.82066232 22.8116587 7.81496951 24.42020151 7.81097412 26.02874756 C7.79571977 30.25729585 7.75644018 34.48529238 7.7121582 38.71362305 C7.6712009 43.03036027 7.65296216 47.34718687 7.6328125 51.6640625 C7.58994513 60.13048945 7.51959741 68.59636247 7.4375 77.0625 C14.0375 77.0625 20.6375 77.0625 27.4375 77.0625 C26.66434033 80.92829833 25.98537574 83.21377397 24.375 86.625 C21.66603336 93.32770056 20.88280633 100.09776218 23.56640625 106.94140625 C24.44212514 108.65542014 25.36428974 110.34698598 26.34375 112.00390625 C27.4375 114.0625 27.4375 114.0625 27.4375 117.0625 C26.66559326 117.07708252 25.89368652 117.09166504 25.09838867 117.10668945 C21.60674907 117.18108033 18.1160751 117.2777709 14.625 117.375 C13.41005859 117.39755859 12.19511719 117.42011719 10.94335938 117.44335938 C9.77998047 117.47880859 8.61660156 117.51425781 7.41796875 117.55078125 C5.80764771 117.59005737 5.80764771 117.59005737 4.16479492 117.63012695 C1.03931684 118.12562616 0.34775136 118.62313647 -1.5625 121.0625 C-2.02015303 123.01382485 -2.02015303 123.01382485 -1.96655273 125.17578125 C-1.98557899 126.41352295 -1.98557899 126.41352295 -2.00498962 127.67626953 C-2.00205399 128.56685059 -1.99911835 129.45743164 -1.99609375 130.375 C-2.0013356 131.29909668 -2.00657745 132.22319336 -2.01197815 133.17529297 C-2.01840633 135.13556922 -2.01705108 137.09588401 -2.00854492 139.05615234 C-2.0001099 142.02383472 -2.02866232 144.98954285 -2.06054688 147.95703125 C-2.19637817 165.41191524 -2.19637817 165.41191524 6.5 180.0625 C7.17160156 180.76375 7.84320313 181.465 8.53515625 182.1875 C9.16292969 182.80625 9.79070312 183.425 10.4375 184.0625 C11.4275 185.0525 12.4175 186.0425 13.4375 187.0625 C-2.4025 187.0625 -18.2425 187.0625 -34.5625 187.0625 C-34.5625 132.2825 -34.5625 77.5025 -34.5625 21.0625 C-19.32720588 16.70955882 -19.32720588 16.70955882 -11.5625 16.0625 C-10.9025 15.7325 -10.2425 15.4025 -9.5625 15.0625 C-9.28473808 12.86928835 -9.28473808 12.86928835 -9.25 10.3125 C-8.92802168 6.50878997 -8.62639732 5.15834598 -6.4375 1.875 C-3.5625 0.0625 -3.5625 0.0625 0 0 Z " fill="#50DD88" transform="translate(306.5625,295.9375)"/>
<path d="M0 0 C21.63253012 4.80722892 21.63253012 4.80722892 30.5 7 C31.4796875 7.23460937 32.459375 7.46921875 33.46875 7.7109375 C48.35882167 11.39385416 59.35690114 16.90582298 68 30 C74.62906335 41.88659635 73.66980127 58.23168257 74.43261719 71.47631836 C74.62557828 74.82252815 74.82767201 78.16809279 75.03125 81.51367188 C75.15938427 83.66142677 75.28700641 85.8092123 75.4140625 87.95703125 C75.50308334 89.44164604 75.50308334 89.44164604 75.59390259 90.95625305 C76.46361693 106.18164587 76.46361693 106.18164587 74.453125 109.73046875 C73.72609375 110.54128906 72.9990625 111.35210937 72.25 112.1875 C71.43273437 113.11433594 70.61546875 114.04117188 69.7734375 114.99609375 C68.85009148 115.99844086 67.92555928 116.99969624 67 118 C65.99144916 119.11521814 64.98365704 120.23112282 63.9765625 121.34765625 C48.98152409 137.86348483 48.98152409 137.86348483 44 141 C43.34 141 42.68 141 42 141 C41.88930176 139.75089844 41.77860352 138.50179687 41.66455078 137.21484375 C41.24620433 132.50299584 40.82406444 127.79149368 40.40087891 123.08007812 C40.21953346 121.05542848 40.03916588 119.03069096 39.85986328 117.00585938 C38.79333134 104.97013584 37.61431759 92.97593346 36 81 C35.34 81 34.68 81 34 81 C33.85900879 81.78648926 33.71801758 82.57297852 33.57275391 83.38330078 C32.92806918 86.96470657 32.27660255 90.54484666 31.625 94.125 C31.29242188 95.98125 31.29242188 95.98125 30.953125 97.875 C30.62441406 99.67324219 30.62441406 99.67324219 30.2890625 101.5078125 C30.09006348 102.60754395 29.89106445 103.70727539 29.68603516 104.84033203 C29.00152662 107.99296887 28.07694528 110.96133284 27 114 C26.67 114 26.34 114 26 114 C25.97421875 113.27554688 25.9484375 112.55109375 25.921875 111.8046875 C25.56819455 105.77604351 25.13225955 101.690673 21 97 C19.576875 95.8553125 19.576875 95.8553125 18.125 94.6875 C10.367868 88.40791695 7.48140597 79.54553908 4.35961914 70.38818359 C4.08110107 69.57945801 3.80258301 68.77073242 3.515625 67.9375 C3.14872559 66.83728516 3.14872559 66.83728516 2.77441406 65.71484375 C2.12710775 63.80059583 2.12710775 63.80059583 0 63 C0 42.21 0 21.42 0 0 Z " fill="#FEDC40" transform="translate(374,311)"/>
<path d="M0 0 C0.33 0 0.66 0 1 0 C1.16081055 0.91289795 1.32162109 1.8257959 1.48730469 2.76635742 C2.09421101 6.16992447 2.71445664 9.57050074 3.34375 12.9699707 C3.61276585 14.43840278 3.87651391 15.90781049 4.13476562 17.37817383 C4.50812559 19.49842765 4.90064229 21.6143852 5.296875 23.73046875 C5.64250488 25.63928833 5.64250488 25.63928833 5.99511719 27.58666992 C7.07422503 31.25212345 8.37438309 33.25783721 11 36 C18.39946414 39.69973207 29.9939859 36.41714825 37.75 35 C38.84054688 34.80921875 39.93109375 34.6184375 41.0546875 34.421875 C43.70486424 33.95693171 46.35304706 33.48289874 49 33 C52.64134684 45.89608825 56.23212617 58.80272179 59.6875 71.75 C61.65334596 79.10314381 63.67675463 86.41530798 65.96484375 93.67578125 C67.39586304 98.2712432 68.77150543 102.8811641 70.125 107.5 C70.50603882 108.76420776 70.50603882 108.76420776 70.89477539 110.05395508 C72.31877584 114.95434431 73.3358438 119.78715894 74.08544922 124.83789062 C74.25873749 125.99567017 74.43202576 127.15344971 74.61056519 128.34631348 C74.73907867 129.22203003 74.86759216 130.09774658 75 131 C66.62870892 131.06962306 58.25753957 131.12287344 49.8860302 131.15543652 C45.99846009 131.17106807 42.11108862 131.19226004 38.22363281 131.22631836 C34.46943341 131.25900201 30.71542464 131.27687189 26.9610939 131.28463173 C25.53140387 131.29015915 24.10172384 131.3009529 22.67211533 131.31719017 C20.66416416 131.33908159 18.65601969 131.3402264 16.64794922 131.34057617 C15.50655487 131.34723801 14.36516052 131.35389984 13.18917847 131.36076355 C8.14649606 130.79032949 5.15994151 129.20856028 1.65338135 125.55502319 C-0.74723357 120.39333336 -0.52639977 115.7462824 -0.45410156 110.11962891 C-0.45468567 108.92881714 -0.45526978 107.73800537 -0.45587158 106.5111084 C-0.45356838 103.25922339 -0.43355978 100.008034 -0.40557575 96.7562871 C-0.38050783 93.35304846 -0.37821588 89.94979499 -0.37347412 86.54647827 C-0.36106007 80.10792429 -0.32826008 73.66964318 -0.28807616 67.23120916 C-0.24330924 59.89872094 -0.2213591 52.56621945 -0.20129442 45.23362851 C-0.15952579 30.15560051 -0.08920467 15.07782759 0 0 Z " fill="#9BD7F8" transform="translate(71,172)"/>
<path d="M0 0 C9.60050883 8.13236505 16.10077651 19.41432594 18.16796875 31.89453125 C18.24767777 34.09775727 18.27569187 36.30316807 18.265625 38.5078125 C18.26079102 40.37856445 18.26079102 40.37856445 18.25585938 42.28710938 C18.24329102 44.2274707 18.24329102 44.2274707 18.23046875 46.20703125 C18.22595703 47.51994141 18.22144531 48.83285156 18.21679688 50.18554688 C18.20502824 53.42192135 18.18858635 56.65820303 18.16796875 59.89453125 C17.09546875 59.68828125 16.02296875 59.48203125 14.91796875 59.26953125 C11.05240456 58.88297483 10.33859639 59.08831305 7.16796875 60.89453125 C-4.09766725 62.35363471 -14.65904708 59.16652798 -23.8125 52.5859375 C-28.01965205 49.06234593 -31.3293993 44.89914134 -34.609375 40.5234375 C-38.77239213 34.97578447 -42.08608428 31.14318024 -48.83203125 28.89453125 C-55.68523341 28.15199958 -61.16705508 28.81372068 -66.83203125 32.89453125 C-72.57617409 38.63867409 -75.40696851 45.54524934 -78.10546875 53.0625 C-79.07898806 55.51723419 -80.38614582 57.69127726 -81.83203125 59.89453125 C-84.80203125 59.56453125 -87.77203125 59.23453125 -90.83203125 58.89453125 C-90.93245012 54.98437497 -91.00421144 51.07473874 -91.05175781 47.16357422 C-91.08127875 45.19471784 -91.13215802 43.22621827 -91.18359375 41.2578125 C-91.33826452 26.02274119 -86.51448145 13.85528822 -76.14453125 2.64453125 C-54.81746496 -17.29341578 -22.76218304 -16.92250574 0 0 Z " fill="#2B428C" transform="translate(372.83203125,152.10546875)"/>
<path d="M0 0 C6.29196722 5.06852915 7.29961392 10.15907948 8.609375 17.81640625 C8.90053192 19.42780739 8.90053192 19.42780739 9.1975708 21.07176208 C9.60459688 23.34416646 10.00422992 25.61790578 10.39697266 27.89282227 C10.99424287 31.34175547 11.61821354 34.78503904 12.24609375 38.22851562 C12.6396333 40.44502681 13.03160981 42.6618162 13.421875 44.87890625 C13.6061908 45.89497452 13.79050659 46.91104279 13.98040771 47.957901 C17.00982779 65.77831415 17.00982779 65.77831415 13.4375 71.9375 C9.66129179 75.1742499 6.99175022 76.20539575 2.140625 76.99609375 C0.91730469 77.20024902 -0.30601562 77.4044043 -1.56640625 77.61474609 C-2.86449219 77.82437988 -4.16257813 78.03401367 -5.5 78.25 C-14.71995092 79.76959498 -23.88913619 81.34908158 -33 83.4296875 C-37.10033877 84.00047329 -39.55004358 83.67389729 -42.9375 81.2421875 C-45.3382865 78.02389181 -46.00987478 74.80054127 -46.75 70.9375 C-46.91169678 70.15592529 -47.07339355 69.37435059 -47.23999023 68.5690918 C-48.89938627 60.41459716 -50.35555039 52.21812722 -51.80078125 44.0234375 C-52.36670988 40.84708377 -52.97308716 37.6896932 -53.66796875 34.5390625 C-57.28540753 18.06528028 -57.28540753 18.06528028 -55.75 10.8125 C-51.70979767 5.60398629 -47.97761123 4.74845522 -41.79296875 3.79296875 C-40.93117508 3.64467117 -40.06938141 3.4963736 -39.18147278 3.34358215 C-37.36335837 3.03451761 -35.54359225 2.73503455 -33.72241211 2.44458008 C-30.95364786 2.00257783 -28.1908805 1.53238316 -25.42773438 1.05664062 C-23.65392488 0.75875025 -21.87984351 0.4624734 -20.10546875 0.16796875 C-18.87850533 -0.03817802 -18.87850533 -0.03817802 -17.62675476 -0.24848938 C-5.14640392 -2.22231078 -5.14640392 -2.22231078 0 0 Z " fill="#FEDC40" transform="translate(174.75,118.1875)"/>
<path d="M0 0 C3.84564966 1.28188322 4.50545749 2.86108801 6.75 6.1875 C13.67085509 15.87920468 21.99832025 21.76279368 34 24 C35.99757002 24.11670586 37.99906276 24.17499414 40 24.1875 C41.03125 24.20167969 42.0625 24.21585938 43.125 24.23046875 C46.0040532 23.99967508 47.52849766 23.40376997 50 22 C53.21077401 21.5183839 54.53977044 21.71391135 57.3125 23.4375 C61.19463812 29.33259862 58.88948759 37.73952619 57.69140625 44.31640625 C56.81033883 47.7361425 55.7300701 49.73794192 53 52 C50.25 52.8125 50.25 52.8125 48 53 C47.89945312 54.14082031 47.79890625 55.28164062 47.6953125 56.45703125 C47.10039927 61.17177045 45.64511907 65.29706975 43.875 69.6875 C43.56224121 70.47060547 43.24948242 71.25371094 42.92724609 72.06054688 C37.83832563 84.53924307 31.70006497 97.40223996 20 105 C14.75091762 104.86540814 11.55724501 101.60386911 8.04296875 97.984375 C-7.79387364 78.91348269 -14.76618697 53.77276325 -13.27197266 29.25341797 C-12.79917821 25.33609956 -11.38519559 22.34833311 -9.29296875 19.0546875 C-7.90924001 16.85577113 -7.22446624 14.86247366 -6.5 12.375 C-5.07305128 7.74772697 -2.73541104 3.9679678 0 0 Z " fill="#F8B98E" transform="translate(334,188)"/>
<path d="M0 0 C1.10794922 -0.01260864 2.21589844 -0.02521729 3.35742188 -0.03820801 C4.54916016 -0.03011108 5.74089844 -0.02201416 6.96875 -0.01367188 C8.19658203 -0.01749878 9.42441406 -0.02132568 10.68945312 -0.02526855 C13.28516459 -0.02799029 15.88090336 -0.02061099 18.4765625 -0.00390625 C22.45374599 0.01749738 26.42912282 -0.0037015 30.40625 -0.02929688 C32.92708733 -0.02665365 35.44792353 -0.02152878 37.96875 -0.01367188 C39.16048828 -0.0217688 40.35222656 -0.02986572 41.58007812 -0.03820801 C43.24200195 -0.01929504 43.24200195 -0.01929504 44.9375 0 C45.91138672 0.00318237 46.88527344 0.00636475 47.88867188 0.00964355 C51.24088892 0.66958749 52.42551196 1.81685508 54.46875 4.51757812 C54.96995544 6.53251648 54.96995544 6.53251648 54.97045898 8.68432617 C54.97983994 9.49584641 54.98922089 10.30736664 54.99888611 11.14347839 C54.98765213 12.01329849 54.97641815 12.88311859 54.96484375 13.77929688 C54.96629898 14.68452591 54.96775421 15.58975494 54.96925354 16.52241516 C54.96759468 18.43807185 54.95603479 20.35374189 54.93530273 22.26928711 C54.90652283 25.17750892 54.91465948 28.08388656 54.92773438 30.9921875 C54.92149094 32.8587327 54.9130953 34.72527219 54.90234375 36.59179688 C54.90527939 37.45149582 54.90821503 38.31119476 54.91123962 39.19694519 C54.79452066 46.80953275 53.03688041 53.80334184 48.78125 60.20507812 C48.34425781 60.88957031 47.90726562 61.5740625 47.45703125 62.27929688 C42.22570592 68.16839199 38.34745261 70.82875388 30.2578125 71.41992188 C28.22645326 71.47244858 26.20186611 71.4840636 24.16992188 71.46459961 C22.10063272 71.45510969 20.04426172 71.52553691 17.9765625 71.6015625 C10.9696344 71.70178712 6.10680555 71.0179211 0.68359375 66.29101562 C-5.54329443 59.95132391 -9.58957267 52.13642205 -9.70825195 43.1796875 C-9.72108719 42.33200806 -9.73392242 41.48432861 -9.74714661 40.61096191 C-9.75453354 39.70358276 -9.76192047 38.79620361 -9.76953125 37.86132812 C-9.777603 36.92204468 -9.78567474 35.98276123 -9.79399109 35.01501465 C-9.80780259 33.03135002 -9.81853782 31.04766191 -9.82641602 29.06396484 C-9.84368775 26.02851815 -9.88760645 22.99414457 -9.93164062 19.95898438 C-9.9417631 18.03060695 -9.9502806 16.1022203 -9.95703125 14.17382812 C-9.98329338 12.8127594 -9.98329338 12.8127594 -10.01008606 11.42419434 C-10.00716049 10.57651489 -10.00423492 9.72883545 -10.0012207 8.85546875 C-10.00708694 8.11252563 -10.01295319 7.36958252 -10.01899719 6.60412598 C-8.76360671 1.23365464 -5.03608388 0.01645643 0 0 Z " fill="#38C573" transform="translate(313.53125,412.482421875)"/>
<path d="M0 0 C-0.66 0.99 -1.32 1.98 -2 3 C-3.03870605 12.35269691 -1.24236498 21.34099181 0.75 30.4375 C1.16817506 32.40894958 1.58194061 34.38128693 1.99504089 36.35380554 C2.40639525 38.31797913 2.82061619 40.28155165 3.23486328 42.24511719 C4.52065438 48.55509391 5.60349321 54.90252545 6.61816406 61.26147461 C7.65769367 67.36064576 9.29871441 71.7464559 14 76 C9.52360149 77.60582464 5.06923383 78.67120101 0.3984375 79.5078125 C-0.31927826 79.63815887 -1.03699402 79.76850525 -1.77645874 79.90280151 C-3.29047762 80.17575065 -4.80494426 80.44622656 -6.31982422 80.71435547 C-8.5994274 81.12044449 -10.87574786 81.54226574 -13.15234375 81.96484375 C-34.42961808 85.8165101 -34.42961808 85.8165101 -41.5625 82.1875 C-48.65643965 74.66009865 -48.86675276 58.6870243 -50.64428711 48.86572266 C-51.18776749 45.8735273 -51.74485988 42.88407212 -52.30273438 39.89453125 C-52.65447499 37.96890127 -53.00541399 36.04312466 -53.35546875 34.1171875 C-53.60383736 32.79495682 -53.60383736 32.79495682 -53.85722351 31.4460144 C-56.49593252 16.63374919 -56.49593252 16.63374919 -52.75 11.125 C-45.82195505 4.11899955 -31.66639143 3.87517702 -22.21533203 2.15527344 C-19.97384094 1.74521445 -17.73506987 1.3219881 -15.49609375 0.8984375 C-14.06004286 0.63461512 -12.62384979 0.37156518 -11.1875 0.109375 C-9.90230469 -0.12813477 -8.61710937 -0.36564453 -7.29296875 -0.61035156 C-4.3936505 -0.95342036 -2.69727305 -0.99024571 0 0 Z " fill="#FEB333" transform="translate(122,126)"/>
<path d="M0 0 C11.58688402 -0.02312228 23.17376259 -0.0409145 34.76066494 -0.05181217 C40.14033762 -0.05704125 45.51999458 -0.06413935 50.8996582 -0.07543945 C56.08674843 -0.08626745 61.27382349 -0.09227665 66.46092415 -0.09487724 C68.4445628 -0.09673165 70.42820058 -0.10035256 72.41183281 -0.10573006 C75.18009136 -0.11293932 77.94828638 -0.11399099 80.71655273 -0.11352539 C81.54517319 -0.11712067 82.37379364 -0.12071594 83.2275238 -0.12442017 C88.88594784 -0.11405216 88.88594784 -0.11405216 90 1 C90.09517803 3.76938966 90.12554265 6.51377159 90.11352539 9.28344727 C90.11367142 10.15166107 90.11381744 11.01987488 90.1139679 11.91439819 C90.11326846 14.79842586 90.10547463 17.6823898 90.09765625 20.56640625 C90.09579218 22.56037867 90.09436823 24.55435155 90.09336853 26.54832458 C90.08954248 31.80745702 90.07971145 37.06656203 90.06866455 42.32568359 C90.0584523 47.68782175 90.05387131 53.04996431 90.04882812 58.41210938 C90.03808926 68.94141833 90.0210118 79.47070689 90 90 C84.58941263 85.48430684 79.56118559 80.70399065 74.58618164 75.71557617 C73.37032883 74.50235184 73.37032883 74.50235184 72.12991333 73.26461792 C69.47081874 70.6098993 66.81536835 67.95157015 64.16015625 65.29296875 C62.30942663 63.44291299 60.4585486 61.59300568 58.60752869 59.74324036 C54.74005349 55.87757792 50.87467754 52.00982582 47.01049805 48.14086914 C42.53895525 43.66386231 38.06379024 39.19050041 33.58677202 34.71896952 C29.27509176 30.41236272 24.96621409 26.10296343 20.65853691 21.79235268 C18.82554066 19.95868731 16.9917957 18.12577008 15.15730476 16.29360008 C12.60513592 13.74395393 10.05616584 11.19115362 7.50805664 8.63745117 C6.74294266 7.87436142 5.97782867 7.11127167 5.18952942 6.32505798 C4.15714142 5.28844025 4.15714142 5.28844025 3.10389709 4.23088074 C2.50091828 3.6275249 1.89793947 3.02416906 1.27668858 2.40252972 C0 1 0 1 0 0 Z " fill="#9AD7F8" transform="translate(372,29)"/>
<path d="M0 0 C0.495 0.99 0.495 0.99 1 2 C0.28714844 2.24234375 -0.42570312 2.4846875 -1.16015625 2.734375 C-9.4828578 5.5747 -9.4828578 5.5747 -17 10 C-18.50653275 12.7880624 -18.50653275 12.7880624 -18 16 C-16.96722935 17.67517078 -16.96722935 17.67517078 -15.625 19.3125 C-12.50488957 23.29151724 -11.39981732 26.93758957 -12 32 C-13.99041225 36.75347398 -17.16125919 40.58778594 -21 44 C-22.9730842 43.0351879 -24.90358389 42.05768126 -26.7890625 40.9296875 C-32.16599731 37.84081006 -36.85671714 37.04285895 -43 38 C-49.58065611 40.04425268 -53.63439547 43.89848423 -57.0859375 49.8828125 C-59.16246128 53.86411749 -60.75834309 57.9473486 -62.2734375 62.16796875 C-63.24695681 64.62270294 -64.55411457 66.79674601 -66 69 C-68.97 68.67 -71.94 68.34 -75 68 C-75.10041887 64.08984372 -75.17218019 60.18020749 -75.21972656 56.26904297 C-75.2492475 54.30018659 -75.30012677 52.33168702 -75.3515625 50.36328125 C-75.50623327 35.12820994 -70.6824502 22.96075697 -60.3125 11.75 C-44.84007226 -2.71464509 -19.95286921 -7.99581891 0 0 Z " fill="#1C2F7A" transform="translate(357,143)"/>
<path d="M0 0 C0.06948076 8.16233476 0.12280118 16.32454617 0.15543652 24.48710346 C0.1710991 28.2772344 0.19234778 32.06716316 0.22631836 35.85717773 C0.2588913 39.51410601 0.27684855 43.1708397 0.28463173 46.82790184 C0.29017901 48.22378796 0.3010115 49.61966331 0.31719017 51.01546669 C0.33893429 52.9689459 0.34022515 54.92262051 0.34057617 56.8762207 C0.34723801 57.9887471 0.35389984 59.1012735 0.36076355 60.24751282 C-0.0507049 63.38685888 -0.66074963 64.01317663 -3 66 C-3.82576219 68.30760942 -4.56522764 70.6466978 -5.25 73 C-8.35949551 82.93121342 -12.89198535 90.96553255 -21.203125 97.46484375 C-23.39725217 99.22619007 -23.39725217 99.22619007 -26 103 C-26 70.99 -26 38.98 -26 6 C-10.76470588 1.64705882 -10.76470588 1.64705882 -3 1 C-1 0 -1 0 0 0 Z " fill="#FCB333" transform="translate(298,311)"/>
<path d="M0 0 C6.435 3.465 6.435 3.465 13 7 C13 29.44 13 51.88 13 75 C4.6257156 70.21469463 -3.61992386 65.49360861 -11.6875 60.25 C-12.9859082 59.42435547 -12.9859082 59.42435547 -14.31054688 58.58203125 C-15.14005859 58.04449219 -15.96957031 57.50695312 -16.82421875 56.953125 C-17.92382935 56.24397949 -17.92382935 56.24397949 -19.0456543 55.52050781 C-21.21176564 53.83524343 -22.60769408 52.36885382 -24 50 C-24.60752351 42.532345 -21.89846857 34.39312792 -20.1875 27.1875 C-19.91760254 26.04345703 -19.64770508 24.89941406 -19.36962891 23.72070312 C-14.13083732 1.79087787 -14.13083732 1.79087787 -11.12890625 -0.30859375 C-7.10508384 -1.61541314 -4.1197788 -0.86464493 0 0 Z " fill="#FBB234" transform="translate(230,304)"/>
<path d="M0 0 C0.33 0 0.66 0 1 0 C1.84246212 5.65185751 2.4618512 11.31139601 3 17 C3.11150391 18.14645996 3.22300781 19.29291992 3.33789062 20.47412109 C3.67842359 24.27225848 3.94029159 28.06973037 4.1875 31.875 C4.30279053 33.09791748 4.41808105 34.32083496 4.53686523 35.58081055 C4.91000383 42.51704775 4.30904812 46.48018511 -0.12890625 51.9609375 C-1.72460281 53.66724858 -3.3464602 55.3496815 -5 57 C-6.09167328 58.21884524 -7.17852013 59.44205297 -8.2578125 60.671875 C-9.20980844 61.70138142 -10.16545907 62.72752215 -11.125 63.75 C-11.63289063 64.2951123 -12.14078125 64.84022461 -12.6640625 65.40185547 C-23.90736817 77.42315774 -23.90736817 77.42315774 -28 80 C-28.66 80 -29.32 80 -30 80 C-30.55315661 73.99023599 -31.10442529 67.98030265 -31.65405273 61.97021484 C-31.84072642 59.93175746 -32.02788847 57.89334474 -32.21557617 55.85498047 C-33.25374324 44.57633341 -34.26802498 33.30345401 -35 22 C-34.03835938 21.76522949 -33.07671875 21.53045898 -32.0859375 21.28857422 C-19.21788592 18.06601475 -9.81764306 12.06851801 -1 2 C-0.67 1.34 -0.34 0.68 0 0 Z " fill="#FC995C" transform="translate(446,372)"/>
<path d="M0 0 C3.25928493 0.58361851 6.10341748 1.36974642 9 3 C10.81028768 5.86985829 11.37783381 8.89055008 12.0625 12.1875 C15.4926186 25.7654623 20.92504123 38.92504123 31 49 C31.1971417 53.13997567 31.30765478 56.07703567 30 60 C29.39671875 59.88140625 28.7934375 59.7628125 28.171875 59.640625 C23.17639164 58.775408 23.17639164 58.775408 18.5 60.3125 C16.55261618 63.80156268 16.47082244 66.80386311 16.37109375 70.7578125 C16.24863281 71.49773437 16.12617188 72.23765625 16 73 C12.77666752 75.14888832 10.90429909 75.50173118 7.125 76.0625 C3.39418854 76.62819948 -0.30547235 77.2297387 -4 78 C-7.44821917 73.92483189 -8.69458362 69.98520648 -9.5 64.75 C-8.87980057 60.09850431 -7.04270109 57.220085 -4.5078125 53.33203125 C-1.49438082 48.67136102 -0.25564516 45.67570565 -1 40 C-2.30896118 37.59266762 -3.77803473 35.42214508 -5.39453125 33.2109375 C-9.4009772 27.69354478 -10.7556373 23.9964568 -10.62890625 17.14453125 C-9.68253377 12.41266886 -7.17593844 9.63004133 -3.9453125 6.15625 C-2.12568516 4.13931367 -1.14430123 2.4298114 0 0 Z " fill="#1D2F7A" transform="translate(282,238)"/>
<path d="M0 0 C0.33 0 0.66 0 1 0 C1 31.35 1 62.7 1 95 C-4.28637721 91.82817368 -5.16635915 90.38877699 -7 85 C-7.33972839 84.03488495 -7.67945679 83.0697699 -8.02947998 82.07540894 C-9.28017438 78.47339985 -10.49810243 74.86095786 -11.7109375 71.24609375 C-12.16521273 69.89948604 -12.61977752 68.55297597 -13.07461548 67.20655823 C-14.26862257 63.67003471 -15.45944115 60.13244667 -16.64935303 56.59454346 C-18.54521549 50.95894119 -20.44533861 45.32477649 -22.34660721 39.69099617 C-23.0018666 37.74757062 -23.65539554 35.80357019 -24.3086853 33.85948181 C-25.97755741 28.90772462 -27.64591031 23.95806745 -29.42169189 19.04348755 C-29.77024199 18.07884 -29.77024199 18.07884 -30.12583351 17.09470463 C-30.77408884 15.30904626 -31.42749356 13.52525974 -32.08120728 11.74159241 C-33 9 -33 9 -33 7 C-28.97981356 6.18427743 -24.95874228 5.37300025 -20.9375 4.5625 C-19.80376953 4.33240234 -18.67003906 4.10230469 -17.50195312 3.86523438 C-8.04363846 1.96254134 -8.04363846 1.96254134 -3.75390625 1.40234375 C-1.09477015 1.29392225 -1.09477015 1.29392225 0 0 Z " fill="#9BD7F7" transform="translate(184,192)"/>
<path d="M0 0 C0.66 0.99 1.32 1.98 2 3 C2.95018086 4.29767557 3.90918656 5.58891682 4.875 6.875 C5.4009375 7.58527344 5.926875 8.29554688 6.46875 9.02734375 C8.05734748 11.1499629 8.05734748 11.1499629 10.375 13.4375 C12.79442821 17.25275218 12.75011099 20.60541037 12 25 C10.46251061 28.30275499 8.88900293 30.87065616 6.65625 33.70703125 C3.37224249 37.93614557 1.45354908 41.51447348 2 47 C3.22557209 50.55415906 5.11280396 53.64082762 7.16015625 56.77734375 C9.93778592 61.16779065 10.97073357 64.90364875 10 70 C8.8739675 73.11600374 7.52436139 76.06016017 6 79 C5.3709375 78.86722656 4.741875 78.73445313 4.09375 78.59765625 C-0.07903236 77.73670567 -4.19676755 76.93433945 -8.4375 76.5 C-12 76 -12 76 -15 74 C-15.40625 71.72265625 -15.40625 71.72265625 -15.5 69.0625 C-15.5940295 65.37242278 -15.5940295 65.37242278 -17.3125 62.2265625 C-20.66602914 59.78904363 -24.98313135 60 -29 60 C-29.68608344 55.52139973 -30.05551734 51.61351218 -27.5 47.70703125 C-26.09968481 46.11800171 -24.69715387 44.53092331 -23.29296875 42.9453125 C-15.4924446 32.92555917 -9.92865796 18.1041196 -7.55859375 5.6875 C-7 4 -7 4 -4 2.3125 C-3.01 1.879375 -2.02 1.44625 -1 1 C-0.67 0.67 -0.34 0.34 0 0 Z " fill="#1E307A" transform="translate(389,237)"/>
<path d="M0 0 C10.56 0 21.12 0 32 0 C32.3125 15.6875 32.3125 15.6875 32.38793945 20.54956055 C32.61196911 29.3957339 33.6171972 37.42621476 36 46 C36.33674611 47.33247549 36.67156005 48.66545285 37 50 C19.02577081 51.45113498 19.02577081 51.45113498 12.5546875 48.34765625 C6.20990208 42.8274989 1.66792501 35.28127462 0 27 C-0.08120233 24.9023604 -0.10755808 22.80231238 -0.09765625 20.703125 C-0.09515869 19.61676758 -0.09266113 18.53041016 -0.09008789 17.41113281 C-0.08098389 16.03795898 -0.07187988 14.66478516 -0.0625 13.25 C-0.041875 8.8775 -0.02125 4.505 0 0 Z " fill="#1BA552" transform="translate(304,433)"/>
<path d="M0 0 C3.80533467 1.17619435 5.06133676 1.91887945 7.4375 5.0625 C7.83247365 7.71301669 7.98540197 9.94916742 7.95507812 12.59741211 C7.9620874 13.35074326 7.96909668 14.1040744 7.97631836 14.88023376 C7.993904 17.36714694 7.98227321 19.85291926 7.96875 22.33984375 C7.97144505 24.07093016 7.97532759 25.80201509 7.98034668 27.53309631 C7.98624271 31.16047585 7.97767667 34.78746123 7.95898438 38.41479492 C7.93621155 43.05994319 7.94930626 47.70416615 7.97327423 52.34928036 C7.98774407 55.92414797 7.98312054 59.49879706 7.97276306 63.07367134 C7.97009816 64.78605827 7.97335724 66.49846516 7.98268127 68.21082878 C7.99286485 70.60714952 7.97732163 73.00198311 7.95507812 75.39819336 C7.96317505 76.10329041 7.97127197 76.80838745 7.97961426 77.53485107 C7.89795785 82.29407071 6.84178435 84.74706745 3.4375 88.0625 C0.5625 89.1875 0.5625 89.1875 -2.5625 89.0625 C-5.08462194 87.44075602 -6.72802317 86.33933207 -8.5625 84.0625 C-9.16830297 81.20121905 -9.37790606 79.17597076 -9.32299805 76.32226562 C-9.33190567 75.55903488 -9.34081329 74.79580414 -9.34999084 74.00944519 C-9.37124309 71.49500158 -9.34898688 68.98312983 -9.32421875 66.46875 C-9.32572162 64.71667215 -9.32915274 62.96459498 -9.33442688 61.21252441 C-9.33875613 57.54384857 -9.32193787 53.87605239 -9.28979492 50.20751953 C-9.2500131 45.50950033 -9.25931456 40.81313042 -9.28402996 36.1150589 C-9.2982255 32.49809292 -9.28811661 28.88151097 -9.27051735 25.26457214 C-9.26467512 23.53265806 -9.26595874 21.80070455 -9.27454185 20.06880188 C-9.28255094 17.64589385 -9.25825163 15.22538699 -9.2253418 12.80273438 C-9.23389191 12.08985764 -9.24244202 11.3769809 -9.25125122 10.64250183 C-9.16163263 6.81218523 -8.62427636 5.14188895 -6.24372864 2.0826416 C-3.5625 0.0625 -3.5625 0.0625 0 0 Z " fill="#6FF0A3" transform="translate(366.5625,295.9375)"/>
<path d="M0 0 C7.10244999 -0.02526787 14.20488848 -0.04283201 21.30737305 -0.05493164 C23.72567172 -0.05997349 26.14396733 -0.06680678 28.56225586 -0.07543945 C32.02979283 -0.08751157 35.49728966 -0.09322963 38.96484375 -0.09765625 C40.05337143 -0.10281754 41.14189911 -0.10797882 42.26341248 -0.11329651 C43.76485558 -0.11340981 43.76485558 -0.11340981 45.29663086 -0.11352539 C46.62566689 -0.11685631 46.62566689 -0.11685631 47.98155212 -0.12025452 C50 0 50 0 51 1 C51.09326716 2.56547048 51.11745582 4.13512772 51.11352539 5.70336914 C51.11344986 6.70433121 51.11337433 7.70529327 51.11329651 8.73658752 C51.10813522 9.8251152 51.10297394 10.91364288 51.09765625 12.03515625 C51.0962413 13.14354355 51.09482635 14.25193085 51.09336853 15.39390564 C51.08775033 18.95013069 51.07519475 22.50629383 51.0625 26.0625 C51.05748734 28.46679597 51.05292403 30.87109292 51.04882812 33.27539062 C51.03777499 39.18361504 51.02101917 45.0918031 51 51 C44.88583878 45.93858057 39.29543358 40.44049226 33.69140625 34.82421875 C32.71506577 33.84855308 31.73857699 32.8730358 30.76194763 31.8976593 C28.73070388 29.86787998 26.70125551 27.83632746 24.6730957 25.8034668 C22.06818085 23.19280951 19.45874011 20.58672907 16.84797764 17.9819212 C14.8379743 15.97551864 12.83034284 13.96675646 10.82343864 11.95725441 C9.86126104 10.99440855 8.89833682 10.03230822 7.93466377 9.07095909 C6.59669027 7.73550903 5.26223863 6.3965332 3.92797852 5.05737305 C3.16743668 4.29603561 2.40689484 3.53469818 1.62330627 2.75028992 C0 1 0 1 0 0 Z " fill="#72C1F7" transform="translate(411,29)"/>
<path d="M0 0 C1.10794922 -0.01260864 2.21589844 -0.02521729 3.35742188 -0.03820801 C4.54916016 -0.03011108 5.74089844 -0.02201416 6.96875 -0.01367188 C8.19658203 -0.01749878 9.42441406 -0.02132568 10.68945312 -0.02526855 C13.28516459 -0.02799029 15.88090336 -0.02061099 18.4765625 -0.00390625 C22.45374599 0.01749738 26.42912282 -0.0037015 30.40625 -0.02929688 C32.92708733 -0.02665365 35.44792353 -0.02152878 37.96875 -0.01367188 C39.16048828 -0.0217688 40.35222656 -0.02986572 41.58007812 -0.03820801 C43.24200195 -0.01929504 43.24200195 -0.01929504 44.9375 0 C45.91138672 0.00318237 46.88527344 0.00636475 47.88867188 0.00964355 C51.24474579 0.67034679 52.42992116 1.80710201 54.46875 4.51757812 C54.94976807 6.59307861 54.94976807 6.59307861 54.92285156 8.82714844 C54.92254944 9.6677179 54.92224731 10.50828735 54.92193604 11.37432861 C54.90129089 12.2723822 54.88064575 13.17043579 54.859375 14.09570312 C54.85371521 15.02227722 54.84805542 15.94885132 54.84222412 16.90350342 C54.81985921 19.85872374 54.76966262 22.81272518 54.71875 25.76757812 C54.69868515 27.77276893 54.68043435 29.77797877 54.6640625 31.78320312 C54.619994 36.69513007 54.55096555 41.60614754 54.46875 46.51757812 C54.13875 46.51757812 53.80875 46.51757812 53.46875 46.51757812 C53.46875 37.93757813 53.46875 29.35757812 53.46875 20.51757812 C32.67875 20.51757812 11.88875 20.51757812 -9.53125 20.51757812 C-9.53125 0.0311453 -9.53125 0.0311453 0 0 Z " fill="#4FDC88" transform="translate(313.53125,412.482421875)"/>
<path d="M0 0 C3.63 2.31 7.26 4.62 11 7 C18.36874076 9.45624692 26.02354648 10.82199614 33.3125 7.3125 C37.07891669 5.17907516 40.47433382 2.51833298 44 0 C44 11.22 44 22.44 44 34 C29.48 34 14.96 34 0 34 C0 22.78 0 11.56 0 0 Z " fill="#FCDC41" transform="translate(314,339)"/>
<path d="M0 0 C0.68964844 0.45890625 1.37929688 0.9178125 2.08984375 1.390625 C9.07513381 5.95166487 15.8446818 10.02456062 24 12 C24.05038777 15.87365665 24.08617252 19.7471799 24.10986328 23.62109375 C24.12456776 25.5677768 24.15001202 27.51436947 24.17578125 29.4609375 C24.23079488 40.24360813 23.65885201 50.77634161 20 61 C12.45116562 59.62748466 6.45986848 56.45986848 1 51 C0.76634919 48.14705016 0.65048602 45.38388153 0.62109375 42.52734375 C0.60409927 41.68909561 0.5871048 40.85084747 0.56959534 39.98719788 C0.51636413 37.30404217 0.47611874 34.62090278 0.4375 31.9375 C0.39363332 29.25060575 0.34698351 26.56383428 0.29469299 23.87709045 C0.26263432 22.20338621 0.2357763 20.52957318 0.21446228 18.85569763 C0.50284122 15.12213182 0.50284122 15.12213182 -1 12 C-0.90997602 9.97591245 -0.75358962 7.95455713 -0.5625 5.9375 C-0.46066406 4.83277344 -0.35882813 3.72804688 -0.25390625 2.58984375 C-0.17011719 1.73519531 -0.08632813 0.88054687 0 0 Z " fill="#FC995B" transform="translate(313,288)"/>
<path d="M0 0 C3.84967428 0.57820011 6.55259546 1.69352625 9.86328125 3.72265625 C11.19262695 4.52993164 11.19262695 4.52993164 12.54882812 5.35351562 C13.46083984 5.91748047 14.37285156 6.48144531 15.3125 7.0625 C16.24384766 7.63033203 17.17519531 8.19816406 18.13476562 8.78320312 C20.42730656 10.18224093 22.71543753 11.58798481 25 13 C23.46301249 21.29489166 21.44623574 29.4495126 19.375 37.625 C19.0466531 38.92832953 18.71852663 40.23171462 18.390625 41.53515625 C17.59590679 44.69065501 16.79898371 47.8455791 16 51 C8.50356508 46.9838581 1.13632873 42.8021349 -6.125 38.375 C-7.06859375 37.81554687 -8.0121875 37.25609375 -8.984375 36.6796875 C-9.87898437 36.133125 -10.77359375 35.5865625 -11.6953125 35.0234375 C-12.49984863 34.53794434 -13.30438477 34.05245117 -14.13330078 33.55224609 C-16.28114979 31.76621104 -16.65234155 30.72614209 -17 28 C-16.33613281 27.6596875 -15.67226562 27.319375 -14.98828125 26.96875 C-8.91219549 23.63355548 -4.39431883 20.69154607 -2 14 C-1.05355983 9.3529287 -0.4441458 4.71987778 0 0 Z " fill="#FC995B" transform="translate(192,292)"/>
<path d="M0 0 C0.33 0 0.66 0 1 0 C1 46.2 1 92.4 1 140 C-18.99259538 100.01480923 -10.74678195 41.21946205 0 0 Z " fill="#FE7086" transform="translate(20,197)"/>
<path d="M0 0 C19.99259538 39.98519077 11.74678195 98.78053795 1 140 C0.67 140 0.34 140 0 140 C0 93.8 0 47.6 0 0 Z " fill="#FE7086" transform="translate(491,197)"/>
<path d="M0 0 C0.99 0.33 1.98 0.66 3 1 C3.11102051 1.88961426 3.22204102 2.77922852 3.33642578 3.69580078 C3.4961084 4.97438965 3.65579102 6.25297852 3.8203125 7.5703125 C3.90765656 8.27890411 3.99500061 8.98749573 4.08499146 9.71755981 C4.60793625 13.94163948 5.15505541 18.16105709 5.73339844 22.37792969 C6.39029186 27.20686773 6.97204667 32.0412396 7.51904297 36.88378906 C7.75797444 38.8916 8.0206994 40.89671084 8.30615234 42.8984375 C10.60344568 59.1830485 10.60344568 59.1830485 7.91125488 63.91271973 C4.16962904 68.30093469 -0.54212367 71.18070789 -6 73 C-7.43477156 54.1430024 -8.490403 35.4898947 -4 17 C-3.28846222 13.34562131 -2.64863628 9.67817748 -2.00268555 6.01171875 C-1.10788364 1.10788364 -1.10788364 1.10788364 0 0 Z " fill="#74C3F6" transform="translate(408,391)"/>
<path d="M0 0 C0.66 0.99 1.32 1.98 2 3 C2.95018086 4.29767557 3.90918656 5.58891682 4.875 6.875 C5.4009375 7.58527344 5.926875 8.29554688 6.46875 9.02734375 C8.05734748 11.1499629 8.05734748 11.1499629 10.375 13.4375 C12.79442821 17.25275218 12.75011099 20.60541037 12 25 C10.75538536 27.67361664 9.67802645 29.65831678 8 32 C7.56816406 32.62132812 7.13632812 33.24265625 6.69140625 33.8828125 C5.8543718 35.07006018 5.00771749 36.25062711 4.1484375 37.421875 C3.05865422 38.91940032 2.02735054 40.45897419 1 42 C1 41.34 1 40.68 1 40 C0.26394531 40.03480469 -0.47210938 40.06960938 -1.23046875 40.10546875 C-6.84611081 40.26125274 -10.27228028 40.29507738 -15 37 C-17.25328412 37.20643199 -17.25328412 37.20643199 -19 38 C-17.74875227 34.1034203 -16.3345359 30.36972658 -14.6875 26.625 C-13.1524922 23.04780346 -11.81847129 19.51493912 -10.7734375 15.76953125 C-10.57016846 15.0513623 -10.36689941 14.33319336 -10.1574707 13.59326172 C-9.76810608 12.182474 -9.39858536 10.76602168 -9.05151367 9.34423828 C-7.99635989 5.54229763 -7.32286476 4.19827886 -3.90234375 2.09765625 C-2.94457031 1.73542969 -1.98679687 1.37320313 -1 1 C-0.67 0.67 -0.34 0.34 0 0 Z " fill="#2C438C" transform="translate(389,237)"/>
<path d="M0 0 C0.33 0 0.66 0 1 0 C1.84246212 5.65185751 2.4618512 11.31139601 3 17 C3.11150391 18.14645996 3.22300781 19.29291992 3.33789062 20.47412109 C3.67842359 24.27225848 3.94029159 28.06973037 4.1875 31.875 C4.30279053 33.09791748 4.41808105 34.32083496 4.53686523 35.58081055 C4.91401523 42.59161515 4.25111349 46.56643553 -0.19921875 52.1328125 C-3.22822684 55.4409034 -6.44970158 58.26330342 -10 61 C-10.0501123 60.38181396 -10.10022461 59.76362793 -10.15185547 59.12670898 C-11.34155313 44.34393201 -11.34155313 44.34393201 -13.125 29.625 C-13.27710938 28.4596875 -13.42921875 27.294375 -13.5859375 26.09375 C-13.84049512 24.19177229 -14.1297914 22.29359432 -14.4765625 20.40625 C-14.77749467 17.89561588 -14.83740281 16.39387976 -14 14 C-11.7068627 11.40738582 -9.29355156 9.28438281 -6.578125 7.140625 C-3.97110495 4.97600835 -2.07048078 2.66737615 0 0 Z " fill="#FAAD6D" transform="translate(446,372)"/>
<path d="M0 0 C3.82873176 1.18342618 5.07335133 1.87337518 7.4375 5.0625 C7.83545079 7.96209709 7.99909574 10.47403767 7.96875 13.37109375 C7.9725769 14.17482925 7.97640381 14.97856476 7.98034668 15.80665588 C7.98306418 17.50368505 7.97571418 19.20075621 7.95898438 20.89770508 C7.93759826 23.48809822 7.95877471 26.07570935 7.984375 28.66601562 C7.98173114 30.31771443 7.97660497 31.96941151 7.96875 33.62109375 C7.97684692 34.39206894 7.98494385 35.16304413 7.99328613 35.9573822 C7.92955546 39.6344436 7.56075204 41.86204996 5.61914062 45.01977539 C3.4375 47.0625 3.4375 47.0625 0 48.1875 C-3.5625 48.0625 -3.5625 48.0625 -6.24365234 46.09375 C-9.31340732 42.08089701 -9.28959308 39.35551598 -9.2265625 34.4375 C-9.23134613 33.6129834 -9.23612976 32.7884668 -9.24105835 31.93896484 C-9.24445122 30.20082687 -9.23529153 28.46262456 -9.21435547 26.72460938 C-9.18757729 24.07016175 -9.21411996 21.41994175 -9.24609375 18.765625 C-9.24278954 17.07290737 -9.23638306 15.38019237 -9.2265625 13.6875 C-9.23668365 12.89778809 -9.24680481 12.10807617 -9.25723267 11.29443359 C-9.1684082 7.0998757 -8.87864981 5.47631074 -6.24365234 2.02734375 C-3.5625 0.0625 -3.5625 0.0625 0 0 Z " fill="#70F0A3" transform="translate(306.5625,295.9375)"/>
<path d="M0 0 C0.33 0 0.66 0 1 0 C1.09902133 5.74742629 1.17154082 11.49435392 1.21972656 17.24243164 C1.23981774 19.19694673 1.26709589 21.1514019 1.30175781 23.10571289 C1.35038601 25.91828208 1.3729936 28.73005527 1.390625 31.54296875 C1.41127014 32.41398727 1.43191528 33.2850058 1.45318604 34.18241882 C1.45469665 38.28476243 1.337689 40.44703203 -0.84472656 44.02075195 C-3.66848985 46.61389298 -5.16208386 47.15351665 -9 47 C-14.58585285 43.61040882 -14.58585285 43.61040882 -15.52410889 39.96200562 C-15.69488969 37.46809475 -15.67475743 35.04117718 -15.5859375 32.54296875 C-15.57744781 31.64000565 -15.56895813 30.73704254 -15.56021118 29.80671692 C-15.52671545 26.93241308 -15.45144586 24.06095067 -15.375 21.1875 C-15.34489533 19.23506666 -15.3175204 17.28258919 -15.29296875 15.33007812 C-15.22693687 10.55229636 -15.12344347 5.77662931 -15 1 C-14.01 1.495 -14.01 1.495 -13 2 C-13 2.66 -13 3.32 -13 4 C-9.01270909 4.89056171 -9.01270909 4.89056171 -5 5 C-2.03949126 2.70800597 -2.03949126 2.70800597 0 0 Z " fill="#50DD89" transform="translate(373,338)"/>
<path d="M0 0 C7.75813384 3.46179677 11.59929156 12.50747865 14.9296875 19.76171875 C16.0195304 23.05188842 16.34796254 25.43586614 15.9609375 28.875 C11.09578593 33.24116166 4.40300059 35.66426144 -2.1015625 36.0625 C-3.060625 35.9696875 -3.060625 35.9696875 -4.0390625 35.875 C-4.3690625 35.215 -4.6990625 34.555 -5.0390625 33.875 C-6.0290625 33.545 -7.0190625 33.215 -8.0390625 32.875 C-8.11325384 28.65750781 -8.1676829 24.44036189 -8.20385742 20.22241211 C-8.21893839 18.78777448 -8.2394063 17.35318292 -8.26538086 15.91870117 C-8.30179687 13.85584141 -8.31879493 11.79359142 -8.33203125 9.73046875 C-8.3477417 8.48934326 -8.36345215 7.24821777 -8.37963867 5.96948242 C-8.0390625 2.875 -8.0390625 2.875 -6.7199707 0.9621582 C-4.452496 -0.50437264 -2.6158813 -0.52979874 0 0 Z " fill="#FEB332" transform="translate(415.0390625,358.125)"/>
<path d="M0 0 C1.16015625 0.01289063 2.3203125 0.02578125 3.515625 0.0390625 C4.7221875 0.07257813 5.92875 0.10609375 7.171875 0.140625 C9.00492187 0.16769531 9.00492187 0.16769531 10.875 0.1953125 C13.89141578 0.242444 16.90624991 0.30823087 19.921875 0.390625 C19.59807861 1.33534668 19.27428223 2.28006836 18.94067383 3.25341797 C17.60812083 7.35677432 17.57507111 10.0902567 17.921875 14.390625 C19.30114273 16.73324108 19.30114273 16.73324108 20.921875 18.390625 C20.921875 19.050625 20.921875 19.710625 20.921875 20.390625 C10.691875 20.390625 0.461875 20.390625 -10.078125 20.390625 C-10.160625 17.833125 -10.243125 15.275625 -10.328125 12.640625 C-10.36454102 11.84172852 -10.40095703 11.04283203 -10.43847656 10.21972656 C-10.49003345 6.91842237 -10.42498191 4.85859347 -8.43359375 2.171875 C-5.41786471 -0.10867631 -3.75083122 -0.07354571 0 0 Z " fill="#38C674" transform="translate(314.078125,412.609375)"/>
<path d="M0 0 C3.63 2.31 7.26 4.62 11 7 C13.30393007 8.0659975 15.62521893 9.10286048 18 10 C16.125 15.75 16.125 15.75 15 18 C14.4845623 24.18525235 15.04809625 26.97030431 19 32 C19.33 32.66 19.66 33.32 20 34 C13.4 34 6.8 34 0 34 C0 22.78 0 11.56 0 0 Z " fill="#FEB332" transform="translate(314,339)"/>
<path d="M0 0 C13.53 0 27.06 0 41 0 C40.32520054 4.04879675 39.63595911 7.51908809 38.4375 11.375 C38.16808594 12.24898438 37.89867187 13.12296875 37.62109375 14.0234375 C37.41613281 14.67570312 37.21117187 15.32796875 37 16 C31.09396877 15.41330816 26.12184315 13.11116577 20.75 10.75 C19.85925781 10.36714844 18.96851563 9.98429687 18.05078125 9.58984375 C11.92576864 6.93181941 5.94232001 4.04331446 0 1 C0 0.67 0 0.34 0 0 Z " fill="#3C58A0" transform="translate(140,483)"/>
<path d="M0 0 C2.875 0.875 2.875 0.875 4.875 2.875 C4.60353224 4.55285403 4.25916277 6.21931046 3.875 7.875 C3.79709113 9.71348168 3.76706385 11.55442827 3.77734375 13.39453125 C3.78056641 14.41611328 3.78378906 15.43769531 3.78710938 16.49023438 C3.79548828 17.54533203 3.80386719 18.60042969 3.8125 19.6875 C3.81701172 20.76193359 3.82152344 21.83636719 3.82617188 22.94335938 C3.83792271 25.58729683 3.85435213 28.23111952 3.875 30.875 C-1.5705644 30.39094983 -1.5705644 30.39094983 -3.92578125 28.19921875 C-7.4797625 21.31120948 -7.85151046 11.50335987 -7.125 3.875 C-4.96786348 0.39039486 -4.11135677 -0.16445427 0 0 Z " fill="#F8975C" transform="translate(286.125,210.125)"/>
<path d="M0 0 C9.4375 9.4375 9.4375 9.4375 10.5625 16.5625 C9.77493459 21.37539975 7.47055518 24.77429487 4.84375 28.75 C2.12928702 33.09314077 1.31137926 35.92142202 2 41 C3.16178087 44.41523515 4.51814321 47.71213024 6 51 C3.03 51.495 3.03 51.495 0 52 C0 34.84 0 17.68 0 0 Z " fill="#72C0F6" transform="translate(272,265)"/>
<path d="M0 0 C2.3125 1.4375 2.3125 1.4375 4 4 C5.29633358 11.56994792 3.98581847 21.62410861 0.125 28.1875 C-2 30 -2 30 -6 31 C-6.33 21.1 -6.66 11.2 -7 1 C-4.4086487 -0.29567565 -2.87704151 -0.34250494 0 0 Z " fill="#F7AC6F" transform="translate(389,210)"/>
<path d="M0 0 C1.98 0.99 1.98 0.99 4 2 C3.01 3.485 3.01 3.485 2 5 C1.67126012 7.64711758 1.67126012 7.64711758 1.68115234 10.66479492 C1.66128265 11.82577194 1.64141296 12.98674896 1.62094116 14.1829071 C1.60938995 15.43610245 1.59783875 16.68929779 1.5859375 17.98046875 C1.56657135 19.26359451 1.5472052 20.54672028 1.5272522 21.86872864 C1.47592708 25.2766095 1.43630368 28.68452986 1.39910889 32.09259033 C1.35907143 35.57159193 1.30797796 39.05042918 1.2578125 42.52929688 C1.16104893 49.35274449 1.07664561 56.17629758 1 63 C0.67 63 0.34 63 0 63 C0 42.21 0 21.42 0 0 Z " fill="#E2DF4E" transform="translate(374,311)"/>
<path d="M0 0 C1.98 0.99 1.98 0.99 4 2 C3.01 3.485 3.01 3.485 2 5 C1.6349209 7.22131423 1.6349209 7.22131423 1.5859375 9.66796875 C1.54726563 10.56064453 1.50859375 11.45332031 1.46875 12.37304688 C1.4378125 13.30181641 1.406875 14.23058594 1.375 15.1875 C1.33632813 16.12787109 1.29765625 17.06824219 1.2578125 18.03710938 C1.16356813 20.3578771 1.07795975 22.67863748 1 25 C0.67 25 0.34 25 0 25 C0 16.75 0 8.5 0 0 Z " fill="#F0C859" transform="translate(374,311)"/>
</svg>
